M48
INCH
T43C0.032
T42C0.118
T41C0.012
T40C0.020
T39C0.039
%
T41
X000857Y047225
X000857Y041925
X000857Y036625
X000857Y031325
X000857Y026025
X000857Y020725
X000857Y015425
X000857Y010125
X000857Y004825
X001557Y048625
X001557Y043325
X001557Y038025
X001557Y032725
X001557Y027425
X001557Y022125
X001557Y016825
X001557Y011525
X001557Y006225
X004357Y047725
X004357Y042425
X004357Y037125
X004357Y031825
X004357Y026525
X004357Y021225
X004357Y015925
X004357Y010625
X004357Y005325
X005557Y048275
X005557Y046275
X005557Y044275
X005557Y042275
X005557Y040275
X005557Y038275
X005557Y036275
X005557Y034275
X005557Y032275
X005557Y030275
X005557Y028275
X005557Y026275
X005557Y024275
X005557Y022275
X005557Y020275
X005557Y018275
X005557Y016275
X005557Y014275
X005557Y012275
X005557Y010275
X005557Y008275
X005557Y006275
X005557Y004275
X005557Y002275
X006497Y048565
X006497Y046565
X006497Y044565
X006497Y042565
X006497Y040565
X006497Y038565
X006497Y036565
X006497Y034565
X006497Y032565
X006497Y030565
X006497Y028565
X006497Y026565
X006497Y024565
X006497Y022565
X006497Y020565
X006497Y018565
X006497Y016565
X006497Y014565
X006497Y012565
X006497Y010565
X006497Y008565
X006497Y006565
X006497Y004565
X006497Y002565
X007557Y048775
X007557Y046775
X007557Y044775
X007557Y042775
X007557Y040775
X007557Y038775
X007557Y036775
X007557Y034775
X007557Y032775
X007557Y030775
X007557Y028775
X007557Y026775
X007557Y024775
X007557Y022775
X007557Y020775
X007557Y018775
X007557Y016775
X007557Y014775
X007557Y012775
X007557Y010775
X007557Y008775
X007557Y006775
X007557Y004775
X007557Y002775
X008407Y049775
X008407Y047775
X008407Y045775
X008407Y043775
X008407Y041775
X008407Y039775
X008407Y037775
X008407Y035775
X008407Y033775
X008407Y031775
X008407Y029775
X008407Y027775
X008407Y025775
X008407Y023775
X008407Y021775
X008407Y019775
X008407Y017775
X008407Y015775
X008407Y013775
X008407Y011775
X008407Y009775
X008407Y007775
X008407Y005775
X008407Y003775
X010907Y049575
X010907Y047575
X010907Y045575
X010907Y043575
X010907Y041575
X010907Y039575
X010907Y037575
X010907Y035575
X010907Y033575
X010907Y031575
X010907Y029575
X010907Y027575
X010907Y025575
X010907Y023575
X010907Y021575
X010907Y019575
X010907Y017575
X010907Y015575
X010907Y013575
X010907Y011575
X010907Y009575
X010907Y007575
X010907Y005575
X010907Y003575
X011157Y048375
X011157Y046375
X011157Y044375
X011157Y042375
X011157Y040375
X011157Y038375
X011157Y036375
X011157Y034375
X011157Y032375
X011157Y030375
X011157Y028375
X011157Y026375
X011157Y024375
X011157Y022375
X011157Y020375
X011157Y018375
X011157Y016375
X011157Y014375
X011157Y012375
X011157Y010375
X011157Y008375
X011157Y006375
X011157Y004375
X011157Y002375
X012107Y048375
X012107Y046375
X012107Y044375
X012107Y042375
X012107Y040375
X012107Y038375
X012107Y036375
X012107Y034375
X012107Y032375
X012107Y030375
X012107Y028375
X012107Y026375
X012107Y024375
X012107Y022375
X012107Y020375
X012107Y018375
X012107Y016375
X012107Y014375
X012107Y012375
X012107Y010375
X012107Y008375
X012107Y006375
X012107Y004375
X012107Y002375
X030807Y050775
X030807Y048775
X030807Y046775
X030807Y044775
X030807Y042775
X030807Y040775
X030807Y038775
X030807Y036775
X030807Y034775
X030807Y032775
X030807Y030775
X030807Y028775
X030807Y026775
X030807Y024775
X030807Y022775
X030807Y020775
X030807Y018775
X030807Y016775
X030807Y014775
X030807Y012775
X030807Y010775
X030807Y008775
X030807Y006775
X030807Y004775
X031757Y050775
X031757Y048775
X031757Y046775
X031757Y044775
X031757Y042775
X031757Y040775
X031757Y038775
X031757Y036775
X031757Y034775
X031757Y032775
X031757Y030775
X031757Y028775
X031757Y026775
X031757Y024775
X031757Y022775
X031757Y020775
X031757Y018775
X031757Y016775
X031757Y014775
X031757Y012775
X031757Y010775
X031757Y008775
X031757Y006775
X031757Y004775
X032007Y049575
X032007Y047575
X032007Y045575
X032007Y043575
X032007Y041575
X032007Y039575
X032007Y037575
X032007Y035575
X032007Y033575
X032007Y031575
X032007Y029575
X032007Y027575
X032007Y025575
X032007Y023575
X032007Y021575
X032007Y019575
X032007Y017575
X032007Y015575
X032007Y013575
X032007Y011575
X032007Y009575
X032007Y007575
X032007Y005575
X032007Y003575
X034507Y049375
X034507Y047375
X034507Y045375
X034507Y043375
X034507Y041375
X034507Y039375
X034507Y037375
X034507Y035375
X034507Y033375
X034507Y031375
X034507Y029375
X034507Y027375
X034507Y025375
X034507Y023375
X034507Y021375
X034507Y019375
X034507Y017375
X034507Y015375
X034507Y013375
X034507Y011375
X034507Y009375
X034507Y007375
X034507Y005375
X034507Y003375
X035357Y050375
X035357Y048375
X035357Y046375
X035357Y044375
X035357Y042375
X035357Y040375
X035357Y038375
X035357Y036375
X035357Y034375
X035357Y032375
X035357Y030375
X035357Y028375
X035357Y026375
X035357Y024375
X035357Y022375
X035357Y020375
X035357Y018375
X035357Y016375
X035357Y014375
X035357Y012375
X035357Y010375
X035357Y008375
X035357Y006375
X035357Y004375
X036417Y050585
X036417Y048585
X036417Y046585
X036417Y044585
X036417Y042585
X036417Y040585
X036417Y038585
X036417Y036585
X036417Y034585
X036417Y032585
X036417Y030585
X036417Y028585
X036417Y026585
X036417Y024585
X036417Y022585
X036417Y020585
X036417Y018585
X036417Y016585
X036417Y014585
X036417Y012585
X036417Y010585
X036417Y008585
X036417Y006585
X036417Y004585
X037357Y050875
X037357Y048875
X037357Y046875
X037357Y044875
X037357Y042875
X037357Y040875
X037357Y038875
X037357Y036875
X037357Y034875
X037357Y032875
X037357Y030875
X037357Y028875
X037357Y026875
X037357Y024875
X037357Y022875
X037357Y020875
X037357Y018875
X037357Y016875
X037357Y014875
X037357Y012875
X037357Y010875
X037357Y008875
X037357Y006875
X037357Y004875
X038557Y047825
X038557Y042525
X038557Y037225
X038557Y031925
X038557Y026625
X038557Y021325
X038557Y016025
X038557Y010725
X038557Y005425
X041357Y046925
X041357Y041625
X041357Y036325
X041357Y031025
X041357Y025725
X041357Y020425
X041357Y015125
X041357Y009825
X041357Y004525
X042057Y048325
X042057Y043025
X042057Y037725
X042057Y032425
X042057Y027125
X042057Y021825
X042057Y016525
X042057Y011225
X042057Y005925
T40
X000857Y001525
X002257Y044775
X002257Y039475
X002257Y034175
X002257Y028875
X002257Y023575
X002257Y018275
X002257Y012975
X002257Y007675
X002257Y002375
X002857Y048375
X002857Y043075
X002857Y037775
X002857Y032475
X002857Y027175
X002857Y021875
X002857Y016575
X002857Y011275
X002857Y005975
X004507Y051575
X009007Y049675
X009007Y047675
X009007Y045675
X009007Y043675
X009007Y041675
X009007Y039675
X009007Y037675
X009007Y035675
X009007Y033675
X009007Y031675
X009007Y029675
X009007Y027675
X009007Y025675
X009007Y023675
X009007Y021675
X009007Y019675
X009007Y017675
X009007Y015675
X009007Y013675
X009007Y011675
X009007Y009675
X009007Y007675
X009007Y005675
X009007Y003675
X013407Y048425
X013407Y046425
X013407Y044425
X013407Y042425
X013407Y040425
X013407Y038425
X013407Y036425
X013407Y034425
X013407Y032425
X013407Y030425
X013407Y028425
X013407Y026425
X013407Y024425
X013407Y022425
X013407Y020425
X013407Y018425
X013407Y016425
X013407Y014425
X013407Y012425
X013407Y010425
X013407Y008425
X013407Y006425
X013407Y004425
X013407Y002425
X014807Y048425
X014807Y046425
X014807Y044425
X014807Y042425
X014807Y040425
X014807Y038425
X014807Y036425
X014807Y034425
X014807Y032425
X014807Y030425
X014807Y028425
X014807Y026425
X014807Y024425
X014807Y022425
X014807Y020425
X014807Y018425
X014807Y016425
X014807Y014425
X014807Y012425
X014807Y010425
X014807Y008425
X014807Y006425
X014807Y004425
X015857Y003775
X019457Y050275
X020357Y048675
X021657Y047375
X022357Y047375
X022957Y048675
X024407Y044875
X028107Y050725
X028107Y048725
X028107Y046725
X028107Y044725
X028107Y042725
X028107Y040725
X028107Y038725
X028107Y036725
X028107Y034725
X028107Y032725
X028107Y030725
X028107Y028725
X028107Y026725
X028107Y024725
X028107Y022725
X028107Y020725
X028107Y018725
X028107Y016725
X028107Y014725
X028107Y012725
X028107Y010725
X028107Y008725
X028107Y006725
X028107Y004725
X029507Y050725
X029507Y048725
X029507Y046725
X029507Y044725
X029507Y042725
X029507Y040725
X029507Y038725
X029507Y036725
X029507Y034725
X029507Y032725
X029507Y030725
X029507Y028725
X029507Y026725
X029507Y024725
X029507Y022725
X029507Y020725
X029507Y018725
X029507Y016725
X029507Y014725
X029507Y012725
X029507Y010725
X029507Y008725
X029507Y006725
X029507Y004725
X033907Y049475
X033907Y047475
X033907Y045475
X033907Y043475
X033907Y041475
X033907Y039475
X033907Y037475
X033907Y035475
X033907Y033475
X033907Y031475
X033907Y029475
X033907Y027475
X033907Y025475
X033907Y023475
X033907Y021475
X033907Y019475
X033907Y017475
X033907Y015475
X033907Y013475
X033907Y011475
X033907Y009475
X033907Y007475
X033907Y005475
X033907Y003475
X039957Y052275
X040057Y047175
X040057Y041875
X040057Y036575
X040057Y031275
X040057Y025975
X040057Y020675
X040057Y015375
X040057Y010075
X040057Y004775
X040657Y050775
X040657Y045475
X040657Y040175
X040657Y034875
X040657Y029575
X040657Y024275
X040657Y018975
X040657Y013675
X040657Y008375
X042057Y003425
T43
X005357Y050875
X016057Y002575
X016557Y003075
X019857Y003575
X020357Y004075
X025157Y003975
X025857Y003975
X038457Y051575
T39
X018457Y038075
X018457Y037075
X018457Y036075
X018457Y035075
X018457Y034075
X018457Y033075
X018457Y032075
X018457Y031075
X018457Y030075
X018457Y029075
X018457Y028075
X018457Y027075
X018457Y026075
X018457Y025075
X018457Y024075
X018457Y023075
X018457Y022075
X018457Y021075
X018457Y020075
X018457Y019075
X018457Y018075
X018457Y017075
X018457Y016075
X018457Y015075
X019957Y044075
X019957Y043075
X019957Y010075
X019957Y009075
X020957Y044075
X020957Y043075
X020957Y040075
X020957Y039075
X020957Y038075
X020957Y037075
X020957Y036075
X020957Y035075
X020957Y034075
X020957Y033075
X020957Y032075
X020957Y031075
X020957Y030075
X020957Y029075
X020957Y028075
X020957Y027075
X020957Y026075
X020957Y025075
X020957Y024075
X020957Y023075
X020957Y022075
X020957Y021075
X020957Y020075
X020957Y019075
X020957Y018075
X020957Y017075
X020957Y016075
X020957Y015075
X020957Y014075
X020957Y013075
X020957Y010075
X020957Y009075
X021957Y044075
X021957Y043075
X021957Y040075
X021957Y039075
X021957Y038075
X021957Y037075
X021957Y036075
X021957Y035075
X021957Y034075
X021957Y033075
X021957Y032075
X021957Y031075
X021957Y030075
X021957Y029075
X021957Y028075
X021957Y027075
X021957Y026075
X021957Y025075
X021957Y024075
X021957Y023075
X021957Y022075
X021957Y021075
X021957Y020075
X021957Y019075
X021957Y018075
X021957Y017075
X021957Y016075
X021957Y015075
X021957Y014075
X021957Y013075
X021957Y010075
X021957Y009075
X022957Y044075
X022957Y043075
X022957Y010075
X022957Y009075
X024457Y038075
X024457Y037075
X024457Y036075
X024457Y035075
X024457Y034075
X024457Y033075
X024457Y032075
X024457Y031075
X024457Y030075
X024457Y029075
X024457Y028075
X024457Y027075
X024457Y026075
X024457Y025075
X024457Y024075
X024457Y023075
X024457Y022075
X024457Y021075
X024457Y020075
X024457Y019075
X024457Y018075
X024457Y017075
X024457Y016075
X024457Y015075
T42
X018307Y046654
X024606Y006496
M30
