G04 start of page 7 for group -4062 idx -4062 *
G04 Title: NVMemProg_Driver, soldermask *
G04 Creator: pcb 1.99z *
G04 CreationDate: Mon Nov  7 15:47:14 2016 UTC *
G04 For: wojtek *
G04 Format: Gerber/RS-274X *
G04 PCB-Dimensions (mil): 4291.34 5354.33 *
G04 PCB-Coordinate-Origin: lower left *
%MOIN*%
%FSLAX25Y25*%
%LNBOTTOMMASK*%
%ADD50C,0.0001*%
%ADD49C,0.0783*%
%ADD48C,0.0803*%
G54D48*X209567Y320748D03*
Y310748D03*
Y300748D03*
Y290748D03*
Y280748D03*
Y330748D03*
X219567D03*
Y350748D03*
Y340748D03*
Y320748D03*
Y310748D03*
Y300748D03*
Y290748D03*
G54D49*X184567Y300748D03*
Y290748D03*
Y280748D03*
Y270748D03*
Y260748D03*
Y250748D03*
Y240748D03*
Y230748D03*
Y220748D03*
Y210748D03*
Y200748D03*
Y190748D03*
Y180748D03*
Y170748D03*
Y160748D03*
Y150748D03*
G54D48*X209567Y270748D03*
X219567Y280748D03*
Y270748D03*
Y230748D03*
G54D50*G36*
X215551Y264764D02*Y256732D01*
X223583D01*
Y264764D01*
X215551D01*
G37*
G54D48*X219567Y250748D03*
Y240748D03*
G54D50*G36*
X205551Y264764D02*Y256732D01*
X213583D01*
Y264764D01*
X205551D01*
G37*
G54D48*X209567Y250748D03*
Y240748D03*
Y230748D03*
X219567Y220748D03*
Y210748D03*
Y200748D03*
Y190748D03*
Y180748D03*
Y170748D03*
Y160748D03*
Y150748D03*
Y140748D03*
Y130748D03*
Y100748D03*
X229567D03*
X219567Y90748D03*
X229567D03*
X209567Y220748D03*
Y210748D03*
Y200748D03*
Y190748D03*
Y180748D03*
Y170748D03*
Y160748D03*
Y150748D03*
Y140748D03*
Y130748D03*
G54D50*G36*
X195551Y104764D02*Y96732D01*
X203583D01*
Y104764D01*
X195551D01*
G37*
G54D48*X199567Y90748D03*
X209567Y100748D03*
Y90748D03*
Y370748D03*
Y360748D03*
Y350748D03*
Y340748D03*
G54D50*G36*
X205551Y404764D02*Y396732D01*
X213583D01*
Y404764D01*
X205551D01*
G37*
G54D48*X209567Y390748D03*
Y380748D03*
X219567Y390748D03*
Y380748D03*
Y370748D03*
Y360748D03*
G54D50*G36*
X215551Y404764D02*Y396732D01*
X223583D01*
Y404764D01*
X215551D01*
G37*
G36*
X195551Y444764D02*Y436732D01*
X203583D01*
Y444764D01*
X195551D01*
G37*
G54D48*X199567Y430748D03*
X209567Y440748D03*
Y430748D03*
X219567Y440748D03*
Y430748D03*
X229567Y440748D03*
Y430748D03*
G54D49*X184567Y380748D03*
Y370748D03*
Y360748D03*
Y350748D03*
Y340748D03*
Y330748D03*
Y320748D03*
Y310748D03*
X244567Y380748D03*
Y370748D03*
Y360748D03*
Y350748D03*
Y340748D03*
Y330748D03*
Y320748D03*
Y310748D03*
Y300748D03*
Y290748D03*
Y280748D03*
Y270748D03*
Y260748D03*
Y250748D03*
Y240748D03*
Y230748D03*
Y220748D03*
Y210748D03*
Y200748D03*
Y190748D03*
Y180748D03*
Y170748D03*
Y160748D03*
Y150748D03*
G54D50*G36*
X194094Y471102D02*X187637Y477559D01*
X178505D01*
X172047Y471102D01*
Y461969D01*
X178505Y455512D01*
X187637D01*
X194094Y461969D01*
Y471102D01*
G37*
G36*
X257087Y69527D02*X250629Y75984D01*
X241497D01*
X235039Y69527D01*
Y60395D01*
X241497Y53937D01*
X250629D01*
X257087Y60395D01*
Y69527D01*
G37*
G36*
X236402Y293016D02*X232850D01*
Y288480D01*
X236402D01*
Y293016D01*
G37*
G36*
X231284Y308016D02*X227732D01*
Y303480D01*
X231284D01*
Y308016D01*
G37*
G36*
Y328016D02*X227732D01*
Y323480D01*
X231284D01*
Y328016D01*
G37*
G36*
Y318016D02*X227732D01*
Y313480D01*
X231284D01*
Y318016D01*
G37*
G36*
X236402Y308016D02*X232850D01*
Y303480D01*
X236402D01*
Y308016D01*
G37*
G36*
Y328016D02*X232850D01*
Y323480D01*
X236402D01*
Y328016D01*
G37*
G36*
Y338016D02*X232850D01*
Y333480D01*
X236402D01*
Y338016D01*
G37*
G36*
Y348016D02*X232850D01*
Y343480D01*
X236402D01*
Y348016D01*
G37*
G36*
Y358016D02*X232850D01*
Y353480D01*
X236402D01*
Y358016D01*
G37*
G36*
Y318016D02*X232850D01*
Y313480D01*
X236402D01*
Y318016D01*
G37*
G36*
X231284Y338016D02*X227732D01*
Y333480D01*
X231284D01*
Y338016D01*
G37*
G36*
Y348016D02*X227732D01*
Y343480D01*
X231284D01*
Y348016D01*
G37*
G36*
Y358016D02*X227732D01*
Y353480D01*
X231284D01*
Y358016D01*
G37*
G36*
Y373016D02*X227732D01*
Y368480D01*
X231284D01*
Y373016D01*
G37*
G36*
Y383016D02*X227732D01*
Y378480D01*
X231284D01*
Y383016D01*
G37*
G36*
X236402Y373016D02*X232850D01*
Y368480D01*
X236402D01*
Y373016D01*
G37*
G36*
Y383016D02*X232850D01*
Y378480D01*
X236402D01*
Y383016D01*
G37*
G36*
X231284Y393016D02*X227732D01*
Y388480D01*
X231284D01*
Y393016D01*
G37*
G36*
X236402D02*X232850D01*
Y388480D01*
X236402D01*
Y393016D01*
G37*
G36*
X201402D02*X197850D01*
Y388480D01*
X201402D01*
Y393016D01*
G37*
G36*
Y373016D02*X197850D01*
Y368480D01*
X201402D01*
Y373016D01*
G37*
G36*
Y383016D02*X197850D01*
Y378480D01*
X201402D01*
Y383016D01*
G37*
G36*
X196284Y393016D02*X192732D01*
Y388480D01*
X196284D01*
Y393016D01*
G37*
G36*
Y373016D02*X192732D01*
Y368480D01*
X196284D01*
Y373016D01*
G37*
G36*
Y383016D02*X192732D01*
Y378480D01*
X196284D01*
Y383016D01*
G37*
G36*
X104902Y410016D02*X101350D01*
Y405480D01*
X104902D01*
Y410016D01*
G37*
G36*
X99784D02*X96232D01*
Y405480D01*
X99784D01*
Y410016D01*
G37*
G36*
X104902Y330016D02*X101350D01*
Y325480D01*
X104902D01*
Y330016D01*
G37*
G36*
X99784D02*X96232D01*
Y325480D01*
X99784D01*
Y330016D01*
G37*
G36*
X104902Y370016D02*X101350D01*
Y365480D01*
X104902D01*
Y370016D01*
G37*
G36*
X99784D02*X96232D01*
Y365480D01*
X99784D01*
Y370016D01*
G37*
G36*
X104902Y290016D02*X101350D01*
Y285480D01*
X104902D01*
Y290016D01*
G37*
G36*
X99784D02*X96232D01*
Y285480D01*
X99784D01*
Y290016D01*
G37*
G36*
Y250016D02*X96232D01*
Y245480D01*
X99784D01*
Y250016D01*
G37*
G36*
X104902Y210016D02*X101350D01*
Y205480D01*
X104902D01*
Y210016D01*
G37*
G36*
X99784D02*X96232D01*
Y205480D01*
X99784D01*
Y210016D01*
G37*
G36*
X104902Y250016D02*X101350D01*
Y245480D01*
X104902D01*
Y250016D01*
G37*
G36*
X145902Y397016D02*X142350D01*
Y392480D01*
X145902D01*
Y397016D01*
G37*
G36*
X140784D02*X137232D01*
Y392480D01*
X140784D01*
Y397016D01*
G37*
G36*
X145902Y317016D02*X142350D01*
Y312480D01*
X145902D01*
Y317016D01*
G37*
G36*
X140784D02*X137232D01*
Y312480D01*
X140784D01*
Y317016D01*
G37*
G36*
X145902Y357016D02*X142350D01*
Y352480D01*
X145902D01*
Y357016D01*
G37*
G36*
X140784D02*X137232D01*
Y352480D01*
X140784D01*
Y357016D01*
G37*
G36*
X145902Y277016D02*X142350D01*
Y272480D01*
X145902D01*
Y277016D01*
G37*
G36*
X140784D02*X137232D01*
Y272480D01*
X140784D01*
Y277016D01*
G37*
G36*
X145902Y197016D02*X142350D01*
Y192480D01*
X145902D01*
Y197016D01*
G37*
G36*
X140784D02*X137232D01*
Y192480D01*
X140784D01*
Y197016D01*
G37*
G36*
X145902Y237016D02*X142350D01*
Y232480D01*
X145902D01*
Y237016D01*
G37*
G36*
X140784D02*X137232D01*
Y232480D01*
X140784D01*
Y237016D01*
G37*
G36*
X145902Y477016D02*X142350D01*
Y472480D01*
X145902D01*
Y477016D01*
G37*
G36*
X140784D02*X137232D01*
Y472480D01*
X140784D01*
Y477016D01*
G37*
G36*
X104902Y490016D02*X101350D01*
Y485480D01*
X104902D01*
Y490016D01*
G37*
G36*
X99784D02*X96232D01*
Y485480D01*
X99784D01*
Y490016D01*
G37*
G36*
X104902Y450016D02*X101350D01*
Y445480D01*
X104902D01*
Y450016D01*
G37*
G36*
X99784D02*X96232D01*
Y445480D01*
X99784D01*
Y450016D01*
G37*
G36*
X145902Y437016D02*X142350D01*
Y432480D01*
X145902D01*
Y437016D01*
G37*
G36*
X140784D02*X137232D01*
Y432480D01*
X140784D01*
Y437016D01*
G37*
G36*
X24784Y481016D02*X21232D01*
Y476480D01*
X24784D01*
Y481016D01*
G37*
G36*
X29902D02*X26350D01*
Y476480D01*
X29902D01*
Y481016D01*
G37*
G36*
X24784Y428016D02*X21232D01*
Y423480D01*
X24784D01*
Y428016D01*
G37*
G36*
X29902D02*X26350D01*
Y423480D01*
X29902D01*
Y428016D01*
G37*
G36*
X24784Y375016D02*X21232D01*
Y370480D01*
X24784D01*
Y375016D01*
G37*
G36*
X29902D02*X26350D01*
Y370480D01*
X29902D01*
Y375016D01*
G37*
G36*
X201402Y308016D02*X197850D01*
Y303480D01*
X201402D01*
Y308016D01*
G37*
G36*
Y293016D02*X197850D01*
Y288480D01*
X201402D01*
Y293016D01*
G37*
G36*
Y283016D02*X197850D01*
Y278480D01*
X201402D01*
Y283016D01*
G37*
G36*
X196284Y308016D02*X192732D01*
Y303480D01*
X196284D01*
Y308016D01*
G37*
G36*
Y293016D02*X192732D01*
Y288480D01*
X196284D01*
Y293016D01*
G37*
G36*
Y283016D02*X192732D01*
Y278480D01*
X196284D01*
Y283016D01*
G37*
G36*
X201402Y318016D02*X197850D01*
Y313480D01*
X201402D01*
Y318016D01*
G37*
G36*
X196284D02*X192732D01*
Y313480D01*
X196284D01*
Y318016D01*
G37*
G36*
X201402Y328016D02*X197850D01*
Y323480D01*
X201402D01*
Y328016D01*
G37*
G36*
X196284D02*X192732D01*
Y323480D01*
X196284D01*
Y328016D01*
G37*
G36*
X201402Y338016D02*X197850D01*
Y333480D01*
X201402D01*
Y338016D01*
G37*
G36*
X196284D02*X192732D01*
Y333480D01*
X196284D01*
Y338016D01*
G37*
G36*
X201402Y348016D02*X197850D01*
Y343480D01*
X201402D01*
Y348016D01*
G37*
G36*
X196284D02*X192732D01*
Y343480D01*
X196284D01*
Y348016D01*
G37*
G36*
X201402Y358016D02*X197850D01*
Y353480D01*
X201402D01*
Y358016D01*
G37*
G36*
X196284D02*X192732D01*
Y353480D01*
X196284D01*
Y358016D01*
G37*
G36*
X24784Y216016D02*X21232D01*
Y211480D01*
X24784D01*
Y216016D01*
G37*
G36*
X29902D02*X26350D01*
Y211480D01*
X29902D01*
Y216016D01*
G37*
G36*
X24784Y269016D02*X21232D01*
Y264480D01*
X24784D01*
Y269016D01*
G37*
G36*
X29902D02*X26350D01*
Y264480D01*
X29902D01*
Y269016D01*
G37*
G36*
X24784Y322016D02*X21232D01*
Y317480D01*
X24784D01*
Y322016D01*
G37*
G36*
X29902D02*X26350D01*
Y317480D01*
X29902D01*
Y322016D01*
G37*
G36*
X231284Y228016D02*X227732D01*
Y223480D01*
X231284D01*
Y228016D01*
G37*
G36*
Y243016D02*X227732D01*
Y238480D01*
X231284D01*
Y243016D01*
G37*
G36*
Y253016D02*X227732D01*
Y248480D01*
X231284D01*
Y253016D01*
G37*
G36*
X236402Y228016D02*X232850D01*
Y223480D01*
X236402D01*
Y228016D01*
G37*
G36*
Y243016D02*X232850D01*
Y238480D01*
X236402D01*
Y243016D01*
G37*
G36*
Y253016D02*X232850D01*
Y248480D01*
X236402D01*
Y253016D01*
G37*
G36*
Y263016D02*X232850D01*
Y258480D01*
X236402D01*
Y263016D01*
G37*
G36*
Y273016D02*X232850D01*
Y268480D01*
X236402D01*
Y273016D01*
G37*
G36*
Y283016D02*X232850D01*
Y278480D01*
X236402D01*
Y283016D01*
G37*
G36*
X231284Y263016D02*X227732D01*
Y258480D01*
X231284D01*
Y263016D01*
G37*
G36*
Y273016D02*X227732D01*
Y268480D01*
X231284D01*
Y273016D01*
G37*
G36*
Y283016D02*X227732D01*
Y278480D01*
X231284D01*
Y283016D01*
G37*
G36*
Y293016D02*X227732D01*
Y288480D01*
X231284D01*
Y293016D01*
G37*
G36*
Y198016D02*X227732D01*
Y193480D01*
X231284D01*
Y198016D01*
G37*
G36*
X236402D02*X232850D01*
Y193480D01*
X236402D01*
Y198016D01*
G37*
G36*
X231284Y208016D02*X227732D01*
Y203480D01*
X231284D01*
Y208016D01*
G37*
G36*
X236402D02*X232850D01*
Y203480D01*
X236402D01*
Y208016D01*
G37*
G36*
X231284Y178016D02*X227732D01*
Y173480D01*
X231284D01*
Y178016D01*
G37*
G36*
X236402D02*X232850D01*
Y173480D01*
X236402D01*
Y178016D01*
G37*
G36*
X231284Y188016D02*X227732D01*
Y183480D01*
X231284D01*
Y188016D01*
G37*
G36*
X236402D02*X232850D01*
Y183480D01*
X236402D01*
Y188016D01*
G37*
G36*
X231284Y218016D02*X227732D01*
Y213480D01*
X231284D01*
Y218016D01*
G37*
G36*
X236402D02*X232850D01*
Y213480D01*
X236402D01*
Y218016D01*
G37*
G36*
X231284Y143016D02*X227732D01*
Y138480D01*
X231284D01*
Y143016D01*
G37*
G36*
Y153016D02*X227732D01*
Y148480D01*
X231284D01*
Y153016D01*
G37*
G36*
Y163016D02*X227732D01*
Y158480D01*
X231284D01*
Y163016D01*
G37*
G36*
X201402Y273016D02*X197850D01*
Y268480D01*
X201402D01*
Y273016D01*
G37*
G36*
Y263016D02*X197850D01*
Y258480D01*
X201402D01*
Y263016D01*
G37*
G36*
Y253016D02*X197850D01*
Y248480D01*
X201402D01*
Y253016D01*
G37*
G36*
Y243016D02*X197850D01*
Y238480D01*
X201402D01*
Y243016D01*
G37*
G36*
X196284Y273016D02*X192732D01*
Y268480D01*
X196284D01*
Y273016D01*
G37*
G36*
Y263016D02*X192732D01*
Y258480D01*
X196284D01*
Y263016D01*
G37*
G36*
Y253016D02*X192732D01*
Y248480D01*
X196284D01*
Y253016D01*
G37*
G36*
Y243016D02*X192732D01*
Y238480D01*
X196284D01*
Y243016D01*
G37*
G36*
X201402Y228016D02*X197850D01*
Y223480D01*
X201402D01*
Y228016D01*
G37*
G36*
Y218016D02*X197850D01*
Y213480D01*
X201402D01*
Y218016D01*
G37*
G36*
Y198016D02*X197850D01*
Y193480D01*
X201402D01*
Y198016D01*
G37*
G36*
Y188016D02*X197850D01*
Y183480D01*
X201402D01*
Y188016D01*
G37*
G36*
Y208016D02*X197850D01*
Y203480D01*
X201402D01*
Y208016D01*
G37*
G36*
X196284Y178016D02*X192732D01*
Y173480D01*
X196284D01*
Y178016D01*
G37*
G36*
Y143016D02*X192732D01*
Y138480D01*
X196284D01*
Y143016D01*
G37*
G36*
Y153016D02*X192732D01*
Y148480D01*
X196284D01*
Y153016D01*
G37*
G36*
Y163016D02*X192732D01*
Y158480D01*
X196284D01*
Y163016D01*
G37*
G36*
Y198016D02*X192732D01*
Y193480D01*
X196284D01*
Y198016D01*
G37*
G36*
Y188016D02*X192732D01*
Y183480D01*
X196284D01*
Y188016D01*
G37*
G36*
Y228016D02*X192732D01*
Y223480D01*
X196284D01*
Y228016D01*
G37*
G36*
Y218016D02*X192732D01*
Y213480D01*
X196284D01*
Y218016D01*
G37*
G36*
Y208016D02*X192732D01*
Y203480D01*
X196284D01*
Y208016D01*
G37*
G36*
X201402Y178016D02*X197850D01*
Y173480D01*
X201402D01*
Y178016D01*
G37*
G36*
Y143016D02*X197850D01*
Y138480D01*
X201402D01*
Y143016D01*
G37*
G36*
Y153016D02*X197850D01*
Y148480D01*
X201402D01*
Y153016D01*
G37*
G36*
Y163016D02*X197850D01*
Y158480D01*
X201402D01*
Y163016D01*
G37*
G36*
X140784Y77016D02*X137232D01*
Y72480D01*
X140784D01*
Y77016D01*
G37*
G36*
Y37016D02*X137232D01*
Y32480D01*
X140784D01*
Y37016D01*
G37*
G36*
X145902D02*X142350D01*
Y32480D01*
X145902D01*
Y37016D01*
G37*
G36*
Y77016D02*X142350D01*
Y72480D01*
X145902D01*
Y77016D01*
G37*
G36*
Y117016D02*X142350D01*
Y112480D01*
X145902D01*
Y117016D01*
G37*
G36*
X140784D02*X137232D01*
Y112480D01*
X140784D01*
Y117016D01*
G37*
G36*
X145902Y157016D02*X142350D01*
Y152480D01*
X145902D01*
Y157016D01*
G37*
G36*
X140784D02*X137232D01*
Y152480D01*
X140784D01*
Y157016D01*
G37*
G36*
X236402Y143016D02*X232850D01*
Y138480D01*
X236402D01*
Y143016D01*
G37*
G36*
Y153016D02*X232850D01*
Y148480D01*
X236402D01*
Y153016D01*
G37*
G36*
Y163016D02*X232850D01*
Y158480D01*
X236402D01*
Y163016D01*
G37*
G36*
X104902Y170016D02*X101350D01*
Y165480D01*
X104902D01*
Y170016D01*
G37*
G36*
X99784D02*X96232D01*
Y165480D01*
X99784D01*
Y170016D01*
G37*
G36*
X104902Y90016D02*X101350D01*
Y85480D01*
X104902D01*
Y90016D01*
G37*
G36*
X99784D02*X96232D01*
Y85480D01*
X99784D01*
Y90016D01*
G37*
G36*
X104902Y50016D02*X101350D01*
Y45480D01*
X104902D01*
Y50016D01*
G37*
G36*
X99784D02*X96232D01*
Y45480D01*
X99784D01*
Y50016D01*
G37*
G36*
X104902Y130016D02*X101350D01*
Y125480D01*
X104902D01*
Y130016D01*
G37*
G36*
X99784D02*X96232D01*
Y125480D01*
X99784D01*
Y130016D01*
G37*
G36*
X24784Y110016D02*X21232D01*
Y105480D01*
X24784D01*
Y110016D01*
G37*
G36*
X29902D02*X26350D01*
Y105480D01*
X29902D01*
Y110016D01*
G37*
G36*
X24784Y163016D02*X21232D01*
Y158480D01*
X24784D01*
Y163016D01*
G37*
G36*
X29902D02*X26350D01*
Y158480D01*
X29902D01*
Y163016D01*
G37*
G36*
X24784Y57016D02*X21232D01*
Y52480D01*
X24784D01*
Y57016D01*
G37*
G36*
X29902D02*X26350D01*
Y52480D01*
X29902D01*
Y57016D01*
G37*
G36*
X327784Y286016D02*X324232D01*
Y281480D01*
X327784D01*
Y286016D01*
G37*
G36*
X332902D02*X329350D01*
Y281480D01*
X332902D01*
Y286016D01*
G37*
G36*
X327784Y246016D02*X324232D01*
Y241480D01*
X327784D01*
Y246016D01*
G37*
G36*
X332902D02*X329350D01*
Y241480D01*
X332902D01*
Y246016D01*
G37*
G36*
Y206016D02*X329350D01*
Y201480D01*
X332902D01*
Y206016D01*
G37*
G36*
X327784Y166016D02*X324232D01*
Y161480D01*
X327784D01*
Y166016D01*
G37*
G36*
X332902D02*X329350D01*
Y161480D01*
X332902D01*
Y166016D01*
G37*
G36*
X286784Y259016D02*X283232D01*
Y254480D01*
X286784D01*
Y259016D01*
G37*
G36*
X291902D02*X288350D01*
Y254480D01*
X291902D01*
Y259016D01*
G37*
G36*
X327784Y366016D02*X324232D01*
Y361480D01*
X327784D01*
Y366016D01*
G37*
G36*
Y406016D02*X324232D01*
Y401480D01*
X327784D01*
Y406016D01*
G37*
G36*
X332902Y366016D02*X329350D01*
Y361480D01*
X332902D01*
Y366016D01*
G37*
G36*
Y406016D02*X329350D01*
Y401480D01*
X332902D01*
Y406016D01*
G37*
G36*
X327784Y326016D02*X324232D01*
Y321480D01*
X327784D01*
Y326016D01*
G37*
G36*
X332902D02*X329350D01*
Y321480D01*
X332902D01*
Y326016D01*
G37*
G36*
X286784Y179016D02*X283232D01*
Y174480D01*
X286784D01*
Y179016D01*
G37*
G36*
X291902D02*X288350D01*
Y174480D01*
X291902D01*
Y179016D01*
G37*
G36*
X286784Y139016D02*X283232D01*
Y134480D01*
X286784D01*
Y139016D01*
G37*
G36*
X291902D02*X288350D01*
Y134480D01*
X291902D01*
Y139016D01*
G37*
G36*
X286784Y419016D02*X283232D01*
Y414480D01*
X286784D01*
Y419016D01*
G37*
G36*
X291902D02*X288350D01*
Y414480D01*
X291902D01*
Y419016D01*
G37*
G36*
X286784Y339016D02*X283232D01*
Y334480D01*
X286784D01*
Y339016D01*
G37*
G36*
X291902D02*X288350D01*
Y334480D01*
X291902D01*
Y339016D01*
G37*
G36*
X286784Y379016D02*X283232D01*
Y374480D01*
X286784D01*
Y379016D01*
G37*
G36*
X291902D02*X288350D01*
Y374480D01*
X291902D01*
Y379016D01*
G37*
G36*
X286784Y299016D02*X283232D01*
Y294480D01*
X286784D01*
Y299016D01*
G37*
G36*
X291902D02*X288350D01*
Y294480D01*
X291902D01*
Y299016D01*
G37*
G36*
X286784Y219016D02*X283232D01*
Y214480D01*
X286784D01*
Y219016D01*
G37*
G36*
X291902D02*X288350D01*
Y214480D01*
X291902D01*
Y219016D01*
G37*
G36*
X327784Y206016D02*X324232D01*
Y201480D01*
X327784D01*
Y206016D01*
G37*
G36*
X332902Y126016D02*X329350D01*
Y121480D01*
X332902D01*
Y126016D01*
G37*
G36*
X327784D02*X324232D01*
Y121480D01*
X327784D01*
Y126016D01*
G37*
G36*
Y46016D02*X324232D01*
Y41480D01*
X327784D01*
Y46016D01*
G37*
G36*
X332902D02*X329350D01*
Y41480D01*
X332902D01*
Y46016D01*
G37*
G36*
X327784Y86016D02*X324232D01*
Y81480D01*
X327784D01*
Y86016D01*
G37*
G36*
X332902D02*X329350D01*
Y81480D01*
X332902D01*
Y86016D01*
G37*
G36*
X286784Y99016D02*X283232D01*
Y94480D01*
X286784D01*
Y99016D01*
G37*
G36*
X291902D02*X288350D01*
Y94480D01*
X291902D01*
Y99016D01*
G37*
G36*
X286784Y59016D02*X283232D01*
Y54480D01*
X286784D01*
Y59016D01*
G37*
G36*
X291902D02*X288350D01*
Y54480D01*
X291902D01*
Y59016D01*
G37*
G36*
X286784Y499016D02*X283232D01*
Y494480D01*
X286784D01*
Y499016D01*
G37*
G36*
X291902D02*X288350D01*
Y494480D01*
X291902D01*
Y499016D01*
G37*
G36*
X286784Y459016D02*X283232D01*
Y454480D01*
X286784D01*
Y459016D01*
G37*
G36*
X291902D02*X288350D01*
Y454480D01*
X291902D01*
Y459016D01*
G37*
G36*
X327784Y446016D02*X324232D01*
Y441480D01*
X327784D01*
Y446016D01*
G37*
G36*
X332902D02*X329350D01*
Y441480D01*
X332902D01*
Y446016D01*
G37*
G36*
Y486016D02*X329350D01*
Y481480D01*
X332902D01*
Y486016D01*
G37*
G36*
X327784D02*X324232D01*
Y481480D01*
X327784D01*
Y486016D01*
G37*
G36*
X407902Y426016D02*X404350D01*
Y421480D01*
X407902D01*
Y426016D01*
G37*
G36*
X402784D02*X399232D01*
Y421480D01*
X402784D01*
Y426016D01*
G37*
G36*
X407902Y479016D02*X404350D01*
Y474480D01*
X407902D01*
Y479016D01*
G37*
G36*
X402784D02*X399232D01*
Y474480D01*
X402784D01*
Y479016D01*
G37*
G36*
X407902Y161016D02*X404350D01*
Y156480D01*
X407902D01*
Y161016D01*
G37*
G36*
X402784D02*X399232D01*
Y156480D01*
X402784D01*
Y161016D01*
G37*
G36*
X407902Y108016D02*X404350D01*
Y103480D01*
X407902D01*
Y108016D01*
G37*
G36*
X402784D02*X399232D01*
Y103480D01*
X402784D01*
Y108016D01*
G37*
G36*
X407902Y55016D02*X404350D01*
Y50480D01*
X407902D01*
Y55016D01*
G37*
G36*
X402784D02*X399232D01*
Y50480D01*
X402784D01*
Y55016D01*
G37*
G36*
X407902Y214016D02*X404350D01*
Y209480D01*
X407902D01*
Y214016D01*
G37*
G36*
X402784D02*X399232D01*
Y209480D01*
X402784D01*
Y214016D01*
G37*
G36*
X407902Y320016D02*X404350D01*
Y315480D01*
X407902D01*
Y320016D01*
G37*
G36*
X402784D02*X399232D01*
Y315480D01*
X402784D01*
Y320016D01*
G37*
G36*
X407902Y373016D02*X404350D01*
Y368480D01*
X407902D01*
Y373016D01*
G37*
G36*
X402784D02*X399232D01*
Y368480D01*
X402784D01*
Y373016D01*
G37*
G36*
X407902Y267016D02*X404350D01*
Y262480D01*
X407902D01*
Y267016D01*
G37*
G36*
X402784D02*X399232D01*
Y262480D01*
X402784D01*
Y267016D01*
G37*
M02*
