G04 start of page 11 for group -4014 idx -4014 *
G04 Title: NVMemProg_Driver, bottompaste *
G04 Creator: pcb 1.99z *
G04 CreationDate: Mon Nov  7 15:47:14 2016 UTC *
G04 For: wojtek *
G04 Format: Gerber/RS-274X *
G04 PCB-Dimensions (mil): 4291.34 5354.33 *
G04 PCB-Coordinate-Origin: lower left *
%MOIN*%
%FSLAX25Y25*%
%LNBOTTOMPASTE*%
%ADD59C,0.0001*%
G54D59*G36*
X230984Y177716D02*X228032D01*
Y173780D01*
X230984D01*
Y177716D01*
G37*
G36*
X236102D02*X233150D01*
Y173780D01*
X236102D01*
Y177716D01*
G37*
G36*
X230984Y187716D02*X228032D01*
Y183780D01*
X230984D01*
Y187716D01*
G37*
G36*
X236102D02*X233150D01*
Y183780D01*
X236102D01*
Y187716D01*
G37*
G36*
X230984Y197716D02*X228032D01*
Y193780D01*
X230984D01*
Y197716D01*
G37*
G36*
X236102D02*X233150D01*
Y193780D01*
X236102D01*
Y197716D01*
G37*
G36*
X230984Y207716D02*X228032D01*
Y203780D01*
X230984D01*
Y207716D01*
G37*
G36*
X236102D02*X233150D01*
Y203780D01*
X236102D01*
Y207716D01*
G37*
G36*
X230984Y217716D02*X228032D01*
Y213780D01*
X230984D01*
Y217716D01*
G37*
G36*
X236102D02*X233150D01*
Y213780D01*
X236102D01*
Y217716D01*
G37*
G36*
X230984Y227716D02*X228032D01*
Y223780D01*
X230984D01*
Y227716D01*
G37*
G36*
X236102D02*X233150D01*
Y223780D01*
X236102D01*
Y227716D01*
G37*
G36*
X230984Y242716D02*X228032D01*
Y238780D01*
X230984D01*
Y242716D01*
G37*
G36*
X236102D02*X233150D01*
Y238780D01*
X236102D01*
Y242716D01*
G37*
G36*
X230984Y252716D02*X228032D01*
Y248780D01*
X230984D01*
Y252716D01*
G37*
G36*
X236102D02*X233150D01*
Y248780D01*
X236102D01*
Y252716D01*
G37*
G36*
X230984Y262716D02*X228032D01*
Y258780D01*
X230984D01*
Y262716D01*
G37*
G36*
X236102D02*X233150D01*
Y258780D01*
X236102D01*
Y262716D01*
G37*
G36*
X230984Y272716D02*X228032D01*
Y268780D01*
X230984D01*
Y272716D01*
G37*
G36*
X236102D02*X233150D01*
Y268780D01*
X236102D01*
Y272716D01*
G37*
G36*
X230984Y282716D02*X228032D01*
Y278780D01*
X230984D01*
Y282716D01*
G37*
G36*
X236102D02*X233150D01*
Y278780D01*
X236102D01*
Y282716D01*
G37*
G36*
X230984Y292716D02*X228032D01*
Y288780D01*
X230984D01*
Y292716D01*
G37*
G36*
X236102D02*X233150D01*
Y288780D01*
X236102D01*
Y292716D01*
G37*
G36*
X230984Y307716D02*X228032D01*
Y303780D01*
X230984D01*
Y307716D01*
G37*
G36*
X236102D02*X233150D01*
Y303780D01*
X236102D01*
Y307716D01*
G37*
G36*
X230984Y327716D02*X228032D01*
Y323780D01*
X230984D01*
Y327716D01*
G37*
G36*
X236102D02*X233150D01*
Y323780D01*
X236102D01*
Y327716D01*
G37*
G36*
X230984Y337716D02*X228032D01*
Y333780D01*
X230984D01*
Y337716D01*
G37*
G36*
X236102D02*X233150D01*
Y333780D01*
X236102D01*
Y337716D01*
G37*
G36*
X230984Y347716D02*X228032D01*
Y343780D01*
X230984D01*
Y347716D01*
G37*
G36*
X236102D02*X233150D01*
Y343780D01*
X236102D01*
Y347716D01*
G37*
G36*
X230984Y357716D02*X228032D01*
Y353780D01*
X230984D01*
Y357716D01*
G37*
G36*
X236102D02*X233150D01*
Y353780D01*
X236102D01*
Y357716D01*
G37*
G36*
X230984Y317716D02*X228032D01*
Y313780D01*
X230984D01*
Y317716D01*
G37*
G36*
X236102D02*X233150D01*
Y313780D01*
X236102D01*
Y317716D01*
G37*
G36*
X230984Y372716D02*X228032D01*
Y368780D01*
X230984D01*
Y372716D01*
G37*
G36*
X236102D02*X233150D01*
Y368780D01*
X236102D01*
Y372716D01*
G37*
G36*
X230984Y392716D02*X228032D01*
Y388780D01*
X230984D01*
Y392716D01*
G37*
G36*
X236102D02*X233150D01*
Y388780D01*
X236102D01*
Y392716D01*
G37*
G36*
X230984Y142716D02*X228032D01*
Y138780D01*
X230984D01*
Y142716D01*
G37*
G36*
X236102D02*X233150D01*
Y138780D01*
X236102D01*
Y142716D01*
G37*
G36*
X230984Y152716D02*X228032D01*
Y148780D01*
X230984D01*
Y152716D01*
G37*
G36*
X236102D02*X233150D01*
Y148780D01*
X236102D01*
Y152716D01*
G37*
G36*
X230984Y162716D02*X228032D01*
Y158780D01*
X230984D01*
Y162716D01*
G37*
G36*
X236102D02*X233150D01*
Y158780D01*
X236102D01*
Y162716D01*
G37*
G36*
X230984Y382716D02*X228032D01*
Y378780D01*
X230984D01*
Y382716D01*
G37*
G36*
X236102D02*X233150D01*
Y378780D01*
X236102D01*
Y382716D01*
G37*
G36*
X201102Y307716D02*X198150D01*
Y303780D01*
X201102D01*
Y307716D01*
G37*
G36*
X195984D02*X193032D01*
Y303780D01*
X195984D01*
Y307716D01*
G37*
G36*
X201102Y317716D02*X198150D01*
Y313780D01*
X201102D01*
Y317716D01*
G37*
G36*
X195984D02*X193032D01*
Y313780D01*
X195984D01*
Y317716D01*
G37*
G36*
X201102Y327716D02*X198150D01*
Y323780D01*
X201102D01*
Y327716D01*
G37*
G36*
X195984D02*X193032D01*
Y323780D01*
X195984D01*
Y327716D01*
G37*
G36*
X201102Y347716D02*X198150D01*
Y343780D01*
X201102D01*
Y347716D01*
G37*
G36*
X195984D02*X193032D01*
Y343780D01*
X195984D01*
Y347716D01*
G37*
G36*
X201102Y357716D02*X198150D01*
Y353780D01*
X201102D01*
Y357716D01*
G37*
G36*
X195984D02*X193032D01*
Y353780D01*
X195984D01*
Y357716D01*
G37*
G36*
X201102Y272716D02*X198150D01*
Y268780D01*
X201102D01*
Y272716D01*
G37*
G36*
X195984D02*X193032D01*
Y268780D01*
X195984D01*
Y272716D01*
G37*
G36*
X201102Y262716D02*X198150D01*
Y258780D01*
X201102D01*
Y262716D01*
G37*
G36*
X195984D02*X193032D01*
Y258780D01*
X195984D01*
Y262716D01*
G37*
G36*
X201102Y252716D02*X198150D01*
Y248780D01*
X201102D01*
Y252716D01*
G37*
G36*
X195984D02*X193032D01*
Y248780D01*
X195984D01*
Y252716D01*
G37*
G36*
X201102Y242716D02*X198150D01*
Y238780D01*
X201102D01*
Y242716D01*
G37*
G36*
X195984D02*X193032D01*
Y238780D01*
X195984D01*
Y242716D01*
G37*
G36*
X201102Y292716D02*X198150D01*
Y288780D01*
X201102D01*
Y292716D01*
G37*
G36*
X195984D02*X193032D01*
Y288780D01*
X195984D01*
Y292716D01*
G37*
G36*
X201102Y282716D02*X198150D01*
Y278780D01*
X201102D01*
Y282716D01*
G37*
G36*
X195984D02*X193032D01*
Y278780D01*
X195984D01*
Y282716D01*
G37*
G36*
X201102Y197716D02*X198150D01*
Y193780D01*
X201102D01*
Y197716D01*
G37*
G36*
X195984D02*X193032D01*
Y193780D01*
X195984D01*
Y197716D01*
G37*
G36*
X201102Y187716D02*X198150D01*
Y183780D01*
X201102D01*
Y187716D01*
G37*
G36*
X195984D02*X193032D01*
Y183780D01*
X195984D01*
Y187716D01*
G37*
G36*
X201102Y177716D02*X198150D01*
Y173780D01*
X201102D01*
Y177716D01*
G37*
G36*
X195984D02*X193032D01*
Y173780D01*
X195984D01*
Y177716D01*
G37*
G36*
X201102Y227716D02*X198150D01*
Y223780D01*
X201102D01*
Y227716D01*
G37*
G36*
X195984D02*X193032D01*
Y223780D01*
X195984D01*
Y227716D01*
G37*
G36*
X201102Y217716D02*X198150D01*
Y213780D01*
X201102D01*
Y217716D01*
G37*
G36*
X195984D02*X193032D01*
Y213780D01*
X195984D01*
Y217716D01*
G37*
G36*
X201102Y207716D02*X198150D01*
Y203780D01*
X201102D01*
Y207716D01*
G37*
G36*
X195984D02*X193032D01*
Y203780D01*
X195984D01*
Y207716D01*
G37*
G36*
X201102Y142716D02*X198150D01*
Y138780D01*
X201102D01*
Y142716D01*
G37*
G36*
X195984D02*X193032D01*
Y138780D01*
X195984D01*
Y142716D01*
G37*
G36*
X201102Y152716D02*X198150D01*
Y148780D01*
X201102D01*
Y152716D01*
G37*
G36*
X195984D02*X193032D01*
Y148780D01*
X195984D01*
Y152716D01*
G37*
G36*
X201102Y162716D02*X198150D01*
Y158780D01*
X201102D01*
Y162716D01*
G37*
G36*
X195984D02*X193032D01*
Y158780D01*
X195984D01*
Y162716D01*
G37*
G36*
X201102Y392716D02*X198150D01*
Y388780D01*
X201102D01*
Y392716D01*
G37*
G36*
X195984D02*X193032D01*
Y388780D01*
X195984D01*
Y392716D01*
G37*
G36*
X201102Y372716D02*X198150D01*
Y368780D01*
X201102D01*
Y372716D01*
G37*
G36*
X195984D02*X193032D01*
Y368780D01*
X195984D01*
Y372716D01*
G37*
G36*
X201102Y382716D02*X198150D01*
Y378780D01*
X201102D01*
Y382716D01*
G37*
G36*
X195984D02*X193032D01*
Y378780D01*
X195984D01*
Y382716D01*
G37*
G36*
X201102Y337716D02*X198150D01*
Y333780D01*
X201102D01*
Y337716D01*
G37*
G36*
X195984D02*X193032D01*
Y333780D01*
X195984D01*
Y337716D01*
G37*
G36*
X24484Y374716D02*X21532D01*
Y370780D01*
X24484D01*
Y374716D01*
G37*
G36*
X29602D02*X26650D01*
Y370780D01*
X29602D01*
Y374716D01*
G37*
G36*
X24484Y215716D02*X21532D01*
Y211780D01*
X24484D01*
Y215716D01*
G37*
G36*
X29602D02*X26650D01*
Y211780D01*
X29602D01*
Y215716D01*
G37*
G36*
X24484Y56716D02*X21532D01*
Y52780D01*
X24484D01*
Y56716D01*
G37*
G36*
X29602D02*X26650D01*
Y52780D01*
X29602D01*
Y56716D01*
G37*
G36*
X24484Y427716D02*X21532D01*
Y423780D01*
X24484D01*
Y427716D01*
G37*
G36*
X29602D02*X26650D01*
Y423780D01*
X29602D01*
Y427716D01*
G37*
G36*
X24484Y268716D02*X21532D01*
Y264780D01*
X24484D01*
Y268716D01*
G37*
G36*
X29602D02*X26650D01*
Y264780D01*
X29602D01*
Y268716D01*
G37*
G36*
X24484Y109716D02*X21532D01*
Y105780D01*
X24484D01*
Y109716D01*
G37*
G36*
X29602D02*X26650D01*
Y105780D01*
X29602D01*
Y109716D01*
G37*
G36*
X24484Y480716D02*X21532D01*
Y476780D01*
X24484D01*
Y480716D01*
G37*
G36*
X29602D02*X26650D01*
Y476780D01*
X29602D01*
Y480716D01*
G37*
G36*
X24484Y321716D02*X21532D01*
Y317780D01*
X24484D01*
Y321716D01*
G37*
G36*
X29602D02*X26650D01*
Y317780D01*
X29602D01*
Y321716D01*
G37*
G36*
X24484Y162716D02*X21532D01*
Y158780D01*
X24484D01*
Y162716D01*
G37*
G36*
X29602D02*X26650D01*
Y158780D01*
X29602D01*
Y162716D01*
G37*
G36*
X407602Y160716D02*X404650D01*
Y156780D01*
X407602D01*
Y160716D01*
G37*
G36*
X402484D02*X399532D01*
Y156780D01*
X402484D01*
Y160716D01*
G37*
G36*
X407602Y319716D02*X404650D01*
Y315780D01*
X407602D01*
Y319716D01*
G37*
G36*
X402484D02*X399532D01*
Y315780D01*
X402484D01*
Y319716D01*
G37*
G36*
X407602Y478716D02*X404650D01*
Y474780D01*
X407602D01*
Y478716D01*
G37*
G36*
X402484D02*X399532D01*
Y474780D01*
X402484D01*
Y478716D01*
G37*
G36*
X407602Y107716D02*X404650D01*
Y103780D01*
X407602D01*
Y107716D01*
G37*
G36*
X402484D02*X399532D01*
Y103780D01*
X402484D01*
Y107716D01*
G37*
G36*
X407602Y266716D02*X404650D01*
Y262780D01*
X407602D01*
Y266716D01*
G37*
G36*
X402484D02*X399532D01*
Y262780D01*
X402484D01*
Y266716D01*
G37*
G36*
X407602Y425716D02*X404650D01*
Y421780D01*
X407602D01*
Y425716D01*
G37*
G36*
X402484D02*X399532D01*
Y421780D01*
X402484D01*
Y425716D01*
G37*
G36*
X407602Y54716D02*X404650D01*
Y50780D01*
X407602D01*
Y54716D01*
G37*
G36*
X402484D02*X399532D01*
Y50780D01*
X402484D01*
Y54716D01*
G37*
G36*
X407602Y213716D02*X404650D01*
Y209780D01*
X407602D01*
Y213716D01*
G37*
G36*
X402484D02*X399532D01*
Y209780D01*
X402484D01*
Y213716D01*
G37*
G36*
X407602Y372716D02*X404650D01*
Y368780D01*
X407602D01*
Y372716D01*
G37*
G36*
X402484D02*X399532D01*
Y368780D01*
X402484D01*
Y372716D01*
G37*
G36*
X286484Y418716D02*X283532D01*
Y414780D01*
X286484D01*
Y418716D01*
G37*
G36*
X291602D02*X288650D01*
Y414780D01*
X291602D01*
Y418716D01*
G37*
G36*
X286484Y258716D02*X283532D01*
Y254780D01*
X286484D01*
Y258716D01*
G37*
G36*
X291602D02*X288650D01*
Y254780D01*
X291602D01*
Y258716D01*
G37*
G36*
X286484Y98716D02*X283532D01*
Y94780D01*
X286484D01*
Y98716D01*
G37*
G36*
X291602D02*X288650D01*
Y94780D01*
X291602D01*
Y98716D01*
G37*
G36*
X286484Y498716D02*X283532D01*
Y494780D01*
X286484D01*
Y498716D01*
G37*
G36*
X291602D02*X288650D01*
Y494780D01*
X291602D01*
Y498716D01*
G37*
G36*
X286484Y338716D02*X283532D01*
Y334780D01*
X286484D01*
Y338716D01*
G37*
G36*
X291602D02*X288650D01*
Y334780D01*
X291602D01*
Y338716D01*
G37*
G36*
X286484Y178716D02*X283532D01*
Y174780D01*
X286484D01*
Y178716D01*
G37*
G36*
X291602D02*X288650D01*
Y174780D01*
X291602D01*
Y178716D01*
G37*
G36*
X286484Y378716D02*X283532D01*
Y374780D01*
X286484D01*
Y378716D01*
G37*
G36*
X291602D02*X288650D01*
Y374780D01*
X291602D01*
Y378716D01*
G37*
G36*
X286484Y218716D02*X283532D01*
Y214780D01*
X286484D01*
Y218716D01*
G37*
G36*
X291602D02*X288650D01*
Y214780D01*
X291602D01*
Y218716D01*
G37*
G36*
X286484Y58716D02*X283532D01*
Y54780D01*
X286484D01*
Y58716D01*
G37*
G36*
X291602D02*X288650D01*
Y54780D01*
X291602D01*
Y58716D01*
G37*
G36*
X286484Y458716D02*X283532D01*
Y454780D01*
X286484D01*
Y458716D01*
G37*
G36*
X291602D02*X288650D01*
Y454780D01*
X291602D01*
Y458716D01*
G37*
G36*
X286484Y298716D02*X283532D01*
Y294780D01*
X286484D01*
Y298716D01*
G37*
G36*
X291602D02*X288650D01*
Y294780D01*
X291602D01*
Y298716D01*
G37*
G36*
X286484Y138716D02*X283532D01*
Y134780D01*
X286484D01*
Y138716D01*
G37*
G36*
X291602D02*X288650D01*
Y134780D01*
X291602D01*
Y138716D01*
G37*
G36*
X327484Y365716D02*X324532D01*
Y361780D01*
X327484D01*
Y365716D01*
G37*
G36*
X332602D02*X329650D01*
Y361780D01*
X332602D01*
Y365716D01*
G37*
G36*
X327484Y205716D02*X324532D01*
Y201780D01*
X327484D01*
Y205716D01*
G37*
G36*
X332602D02*X329650D01*
Y201780D01*
X332602D01*
Y205716D01*
G37*
G36*
X327484Y45716D02*X324532D01*
Y41780D01*
X327484D01*
Y45716D01*
G37*
G36*
X332602D02*X329650D01*
Y41780D01*
X332602D01*
Y45716D01*
G37*
G36*
X327484Y485716D02*X324532D01*
Y481780D01*
X327484D01*
Y485716D01*
G37*
G36*
X332602D02*X329650D01*
Y481780D01*
X332602D01*
Y485716D01*
G37*
G36*
X327484Y325716D02*X324532D01*
Y321780D01*
X327484D01*
Y325716D01*
G37*
G36*
X332602D02*X329650D01*
Y321780D01*
X332602D01*
Y325716D01*
G37*
G36*
X327484Y165716D02*X324532D01*
Y161780D01*
X327484D01*
Y165716D01*
G37*
G36*
X332602D02*X329650D01*
Y161780D01*
X332602D01*
Y165716D01*
G37*
G36*
X327484Y445716D02*X324532D01*
Y441780D01*
X327484D01*
Y445716D01*
G37*
G36*
X332602D02*X329650D01*
Y441780D01*
X332602D01*
Y445716D01*
G37*
G36*
X327484Y285716D02*X324532D01*
Y281780D01*
X327484D01*
Y285716D01*
G37*
G36*
X332602D02*X329650D01*
Y281780D01*
X332602D01*
Y285716D01*
G37*
G36*
X327484Y125716D02*X324532D01*
Y121780D01*
X327484D01*
Y125716D01*
G37*
G36*
X332602D02*X329650D01*
Y121780D01*
X332602D01*
Y125716D01*
G37*
G36*
X327484Y405716D02*X324532D01*
Y401780D01*
X327484D01*
Y405716D01*
G37*
G36*
X332602D02*X329650D01*
Y401780D01*
X332602D01*
Y405716D01*
G37*
G36*
X327484Y245716D02*X324532D01*
Y241780D01*
X327484D01*
Y245716D01*
G37*
G36*
X332602D02*X329650D01*
Y241780D01*
X332602D01*
Y245716D01*
G37*
G36*
X327484Y85716D02*X324532D01*
Y81780D01*
X327484D01*
Y85716D01*
G37*
G36*
X332602D02*X329650D01*
Y81780D01*
X332602D01*
Y85716D01*
G37*
G36*
X145602Y116716D02*X142650D01*
Y112780D01*
X145602D01*
Y116716D01*
G37*
G36*
X140484D02*X137532D01*
Y112780D01*
X140484D01*
Y116716D01*
G37*
G36*
X145602Y276716D02*X142650D01*
Y272780D01*
X145602D01*
Y276716D01*
G37*
G36*
X140484D02*X137532D01*
Y272780D01*
X140484D01*
Y276716D01*
G37*
G36*
X145602Y436716D02*X142650D01*
Y432780D01*
X145602D01*
Y436716D01*
G37*
G36*
X140484D02*X137532D01*
Y432780D01*
X140484D01*
Y436716D01*
G37*
G36*
X145602Y36716D02*X142650D01*
Y32780D01*
X145602D01*
Y36716D01*
G37*
G36*
X140484D02*X137532D01*
Y32780D01*
X140484D01*
Y36716D01*
G37*
G36*
X145602Y196716D02*X142650D01*
Y192780D01*
X145602D01*
Y196716D01*
G37*
G36*
X140484D02*X137532D01*
Y192780D01*
X140484D01*
Y196716D01*
G37*
G36*
X145602Y356716D02*X142650D01*
Y352780D01*
X145602D01*
Y356716D01*
G37*
G36*
X140484D02*X137532D01*
Y352780D01*
X140484D01*
Y356716D01*
G37*
G36*
X145602Y156716D02*X142650D01*
Y152780D01*
X145602D01*
Y156716D01*
G37*
G36*
X140484D02*X137532D01*
Y152780D01*
X140484D01*
Y156716D01*
G37*
G36*
X145602Y316716D02*X142650D01*
Y312780D01*
X145602D01*
Y316716D01*
G37*
G36*
X140484D02*X137532D01*
Y312780D01*
X140484D01*
Y316716D01*
G37*
G36*
X145602Y476716D02*X142650D01*
Y472780D01*
X145602D01*
Y476716D01*
G37*
G36*
X140484D02*X137532D01*
Y472780D01*
X140484D01*
Y476716D01*
G37*
G36*
X145602Y76716D02*X142650D01*
Y72780D01*
X145602D01*
Y76716D01*
G37*
G36*
X140484D02*X137532D01*
Y72780D01*
X140484D01*
Y76716D01*
G37*
G36*
X145602Y236716D02*X142650D01*
Y232780D01*
X145602D01*
Y236716D01*
G37*
G36*
X140484D02*X137532D01*
Y232780D01*
X140484D01*
Y236716D01*
G37*
G36*
X145602Y396716D02*X142650D01*
Y392780D01*
X145602D01*
Y396716D01*
G37*
G36*
X140484D02*X137532D01*
Y392780D01*
X140484D01*
Y396716D01*
G37*
G36*
X104602Y169716D02*X101650D01*
Y165780D01*
X104602D01*
Y169716D01*
G37*
G36*
X99484D02*X96532D01*
Y165780D01*
X99484D01*
Y169716D01*
G37*
G36*
X104602Y329716D02*X101650D01*
Y325780D01*
X104602D01*
Y329716D01*
G37*
G36*
X99484D02*X96532D01*
Y325780D01*
X99484D01*
Y329716D01*
G37*
G36*
X104602Y489716D02*X101650D01*
Y485780D01*
X104602D01*
Y489716D01*
G37*
G36*
X99484D02*X96532D01*
Y485780D01*
X99484D01*
Y489716D01*
G37*
G36*
X104602Y49716D02*X101650D01*
Y45780D01*
X104602D01*
Y49716D01*
G37*
G36*
X99484D02*X96532D01*
Y45780D01*
X99484D01*
Y49716D01*
G37*
G36*
X104602Y209716D02*X101650D01*
Y205780D01*
X104602D01*
Y209716D01*
G37*
G36*
X99484D02*X96532D01*
Y205780D01*
X99484D01*
Y209716D01*
G37*
G36*
X104602Y369716D02*X101650D01*
Y365780D01*
X104602D01*
Y369716D01*
G37*
G36*
X99484D02*X96532D01*
Y365780D01*
X99484D01*
Y369716D01*
G37*
G36*
X104602Y89716D02*X101650D01*
Y85780D01*
X104602D01*
Y89716D01*
G37*
G36*
X99484D02*X96532D01*
Y85780D01*
X99484D01*
Y89716D01*
G37*
G36*
X104602Y249716D02*X101650D01*
Y245780D01*
X104602D01*
Y249716D01*
G37*
G36*
X99484D02*X96532D01*
Y245780D01*
X99484D01*
Y249716D01*
G37*
G36*
X104602Y409716D02*X101650D01*
Y405780D01*
X104602D01*
Y409716D01*
G37*
G36*
X99484D02*X96532D01*
Y405780D01*
X99484D01*
Y409716D01*
G37*
G36*
X104602Y129716D02*X101650D01*
Y125780D01*
X104602D01*
Y129716D01*
G37*
G36*
X99484D02*X96532D01*
Y125780D01*
X99484D01*
Y129716D01*
G37*
G36*
X104602Y289716D02*X101650D01*
Y285780D01*
X104602D01*
Y289716D01*
G37*
G36*
X99484D02*X96532D01*
Y285780D01*
X99484D01*
Y289716D01*
G37*
G36*
X104602Y449716D02*X101650D01*
Y445780D01*
X104602D01*
Y449716D01*
G37*
G36*
X99484D02*X96532D01*
Y445780D01*
X99484D01*
Y449716D01*
G37*
M02*
