G04 start of page 6 for group -4063 idx -4063 *
G04 Title: NVMemProg_Driver, componentmask *
G04 Creator: pcb 1.99z *
G04 CreationDate: Mon Nov  7 15:47:14 2016 UTC *
G04 For: wojtek *
G04 Format: Gerber/RS-274X *
G04 PCB-Dimensions (mil): 4291.34 5354.33 *
G04 PCB-Coordinate-Origin: lower left *
%MOIN*%
%FSLAX25Y25*%
%LNTOPMASK*%
%ADD47C,0.0780*%
%ADD46C,0.0001*%
%ADD45C,0.0783*%
%ADD44C,0.0803*%
G54D44*X209567Y320748D03*
Y310748D03*
Y300748D03*
Y290748D03*
Y280748D03*
Y330748D03*
X219567D03*
Y350748D03*
Y340748D03*
Y320748D03*
Y310748D03*
Y300748D03*
Y290748D03*
G54D45*X184567Y300748D03*
Y290748D03*
Y280748D03*
Y270748D03*
Y260748D03*
Y250748D03*
Y240748D03*
Y230748D03*
Y220748D03*
Y210748D03*
Y200748D03*
Y190748D03*
Y180748D03*
Y170748D03*
Y160748D03*
Y150748D03*
G54D44*X209567Y270748D03*
X219567Y280748D03*
Y270748D03*
Y230748D03*
G54D46*G36*
X215551Y264764D02*Y256732D01*
X223583D01*
Y264764D01*
X215551D01*
G37*
G54D44*X219567Y250748D03*
Y240748D03*
G54D46*G36*
X205551Y264764D02*Y256732D01*
X213583D01*
Y264764D01*
X205551D01*
G37*
G54D44*X209567Y250748D03*
Y240748D03*
Y230748D03*
X219567Y220748D03*
Y210748D03*
Y200748D03*
Y190748D03*
Y180748D03*
Y170748D03*
Y160748D03*
Y150748D03*
Y140748D03*
Y130748D03*
Y100748D03*
X229567D03*
X219567Y90748D03*
X229567D03*
X209567Y220748D03*
Y210748D03*
Y200748D03*
Y190748D03*
Y180748D03*
Y170748D03*
Y160748D03*
Y150748D03*
Y140748D03*
Y130748D03*
G54D46*G36*
X195551Y104764D02*Y96732D01*
X203583D01*
Y104764D01*
X195551D01*
G37*
G54D44*X199567Y90748D03*
X209567Y100748D03*
Y90748D03*
Y370748D03*
Y360748D03*
Y350748D03*
Y340748D03*
G54D46*G36*
X205551Y404764D02*Y396732D01*
X213583D01*
Y404764D01*
X205551D01*
G37*
G54D44*X209567Y390748D03*
Y380748D03*
X219567Y390748D03*
Y380748D03*
Y370748D03*
Y360748D03*
G54D46*G36*
X215551Y404764D02*Y396732D01*
X223583D01*
Y404764D01*
X215551D01*
G37*
G36*
X195551Y444764D02*Y436732D01*
X203583D01*
Y444764D01*
X195551D01*
G37*
G54D44*X199567Y430748D03*
X209567Y440748D03*
Y430748D03*
X219567Y440748D03*
Y430748D03*
X229567Y440748D03*
Y430748D03*
G54D45*X184567Y380748D03*
Y370748D03*
Y360748D03*
Y350748D03*
Y340748D03*
Y330748D03*
Y320748D03*
Y310748D03*
X244567Y380748D03*
Y370748D03*
Y360748D03*
Y350748D03*
Y340748D03*
Y330748D03*
Y320748D03*
Y310748D03*
Y300748D03*
Y290748D03*
Y280748D03*
Y270748D03*
Y260748D03*
Y250748D03*
Y240748D03*
Y230748D03*
Y220748D03*
Y210748D03*
Y200748D03*
Y190748D03*
Y180748D03*
Y170748D03*
Y160748D03*
Y150748D03*
G54D46*G36*
X194094Y471102D02*X187637Y477559D01*
X178505D01*
X172047Y471102D01*
Y461969D01*
X178505Y455512D01*
X187637D01*
X194094Y461969D01*
Y471102D01*
G37*
G36*
X257087Y69527D02*X250629Y75984D01*
X241497D01*
X235039Y69527D01*
Y60395D01*
X241497Y53937D01*
X250629D01*
X257087Y60395D01*
Y69527D01*
G37*
G36*
X128277Y385425D02*X125709D01*
Y382071D01*
X128277D01*
Y385425D01*
G37*
G36*
X131425D02*X128857D01*
Y382071D01*
X131425D01*
Y385425D01*
G37*
G36*
X128277Y365425D02*X125709D01*
Y362071D01*
X128277D01*
Y365425D01*
G37*
G36*
X131425D02*X128857D01*
Y362071D01*
X131425D01*
Y365425D01*
G37*
G36*
X128277Y345425D02*X125709D01*
Y342071D01*
X128277D01*
Y345425D01*
G37*
G36*
X131425D02*X128857D01*
Y342071D01*
X131425D01*
Y345425D01*
G37*
G36*
X128277Y325425D02*X125709D01*
Y322071D01*
X128277D01*
Y325425D01*
G37*
G36*
X131425D02*X128857D01*
Y322071D01*
X131425D01*
Y325425D01*
G37*
G36*
X116299Y411965D02*Y408413D01*
X120835D01*
Y411965D01*
X116299D01*
G37*
G36*
Y391965D02*Y388413D01*
X120835D01*
Y391965D01*
X116299D01*
G37*
G36*
Y397083D02*Y393531D01*
X120835D01*
Y397083D01*
X116299D01*
G37*
G36*
X119425Y405425D02*X116857D01*
Y402071D01*
X119425D01*
Y405425D01*
G37*
G36*
X116299Y371965D02*Y368413D01*
X120835D01*
Y371965D01*
X116299D01*
G37*
G36*
Y377083D02*Y373531D01*
X120835D01*
Y377083D01*
X116299D01*
G37*
G36*
Y351965D02*Y348413D01*
X120835D01*
Y351965D01*
X116299D01*
G37*
G36*
Y357083D02*Y353531D01*
X120835D01*
Y357083D01*
X116299D01*
G37*
G36*
X119425Y365425D02*X116857D01*
Y362071D01*
X119425D01*
Y365425D01*
G37*
G36*
X116277D02*X113709D01*
Y362071D01*
X116277D01*
Y365425D01*
G37*
G36*
Y405425D02*X113709D01*
Y402071D01*
X116277D01*
Y405425D01*
G37*
G36*
X119425Y385425D02*X116857D01*
Y382071D01*
X119425D01*
Y385425D01*
G37*
G36*
X116277D02*X113709D01*
Y382071D01*
X116277D01*
Y385425D01*
G37*
G36*
X102267Y357748D02*Y353748D01*
X106867D01*
Y357748D01*
X102267D01*
G37*
G36*
Y349948D02*Y345948D01*
X106867D01*
Y349948D01*
X102267D01*
G37*
G36*
X110467Y353848D02*Y349848D01*
X115067D01*
Y353848D01*
X110467D01*
G37*
G36*
X102267Y337748D02*Y333748D01*
X106867D01*
Y337748D01*
X102267D01*
G37*
G36*
Y329948D02*Y325948D01*
X106867D01*
Y329948D01*
X102267D01*
G37*
G36*
Y317748D02*Y313748D01*
X106867D01*
Y317748D01*
X102267D01*
G37*
G36*
Y309948D02*Y305948D01*
X106867D01*
Y309948D01*
X102267D01*
G37*
G36*
X110467Y333848D02*Y329848D01*
X115067D01*
Y333848D01*
X110467D01*
G37*
G36*
Y313848D02*Y309848D01*
X115067D01*
Y313848D01*
X110467D01*
G37*
G36*
Y293848D02*Y289848D01*
X115067D01*
Y293848D01*
X110467D01*
G37*
G36*
X102267Y297748D02*Y293748D01*
X106867D01*
Y297748D01*
X102267D01*
G37*
G36*
Y289948D02*Y285948D01*
X106867D01*
Y289948D01*
X102267D01*
G37*
G36*
Y277748D02*Y273748D01*
X106867D01*
Y277748D01*
X102267D01*
G37*
G36*
Y269948D02*Y265948D01*
X106867D01*
Y269948D01*
X102267D01*
G37*
G36*
X110467Y273848D02*Y269848D01*
X115067D01*
Y273848D01*
X110467D01*
G37*
G36*
X116277Y265425D02*X113709D01*
Y262071D01*
X116277D01*
Y265425D01*
G37*
G36*
X99367Y270048D02*X95367D01*
Y265448D01*
X99367D01*
Y270048D01*
G37*
G36*
X95467Y278248D02*X91467D01*
Y273648D01*
X95467D01*
Y278248D01*
G37*
G36*
X119425Y285425D02*X116857D01*
Y282071D01*
X119425D01*
Y285425D01*
G37*
G36*
Y265425D02*X116857D01*
Y262071D01*
X119425D01*
Y265425D01*
G37*
G36*
X116277Y285425D02*X113709D01*
Y282071D01*
X116277D01*
Y285425D01*
G37*
G36*
X116299Y337083D02*Y333531D01*
X120835D01*
Y337083D01*
X116299D01*
G37*
G36*
X119425Y345425D02*X116857D01*
Y342071D01*
X119425D01*
Y345425D01*
G37*
G36*
X116277D02*X113709D01*
Y342071D01*
X116277D01*
Y345425D01*
G37*
G36*
X119425Y325425D02*X116857D01*
Y322071D01*
X119425D01*
Y325425D01*
G37*
G36*
X116277D02*X113709D01*
Y322071D01*
X116277D01*
Y325425D01*
G37*
G36*
X119425Y305425D02*X116857D01*
Y302071D01*
X119425D01*
Y305425D01*
G37*
G36*
X116277D02*X113709D01*
Y302071D01*
X116277D01*
Y305425D01*
G37*
G36*
X102267Y257748D02*Y253748D01*
X106867D01*
Y257748D01*
X102267D01*
G37*
G36*
Y249948D02*Y245948D01*
X106867D01*
Y249948D01*
X102267D01*
G37*
G36*
X110467Y253848D02*Y249848D01*
X115067D01*
Y253848D01*
X110467D01*
G37*
G36*
X99367Y250048D02*X95367D01*
Y245448D01*
X99367D01*
Y250048D01*
G37*
G36*
X95467Y258248D02*X91467D01*
Y253648D01*
X95467D01*
Y258248D01*
G37*
G36*
X126567Y250048D02*X122567D01*
Y245448D01*
X126567D01*
Y250048D01*
G37*
G36*
X116299Y331965D02*Y328413D01*
X120835D01*
Y331965D01*
X116299D01*
G37*
G36*
Y311965D02*Y308413D01*
X120835D01*
Y311965D01*
X116299D01*
G37*
G36*
Y291965D02*Y288413D01*
X120835D01*
Y291965D01*
X116299D01*
G37*
G36*
Y297083D02*Y293531D01*
X120835D01*
Y297083D01*
X116299D01*
G37*
G36*
Y317083D02*Y313531D01*
X120835D01*
Y317083D01*
X116299D01*
G37*
G36*
Y271965D02*Y268413D01*
X120835D01*
Y271965D01*
X116299D01*
G37*
G36*
Y277083D02*Y273531D01*
X120835D01*
Y277083D01*
X116299D01*
G37*
G36*
Y251965D02*Y248413D01*
X120835D01*
Y251965D01*
X116299D01*
G37*
G36*
Y257083D02*Y253531D01*
X120835D01*
Y257083D01*
X116299D01*
G37*
G36*
X142277Y385425D02*X139709D01*
Y382071D01*
X142277D01*
Y385425D01*
G37*
G36*
X145425D02*X142857D01*
Y382071D01*
X145425D01*
Y385425D01*
G37*
G36*
X126567Y390048D02*X122567D01*
Y385448D01*
X126567D01*
Y390048D01*
G37*
G36*
Y370048D02*X122567D01*
Y365448D01*
X126567D01*
Y370048D01*
G37*
G36*
X130467Y378248D02*X126467D01*
Y373648D01*
X130467D01*
Y378248D01*
G37*
G36*
X140567Y370048D02*X136567D01*
Y365448D01*
X140567D01*
Y370048D01*
G37*
G36*
X142277Y325425D02*X139709D01*
Y322071D01*
X142277D01*
Y325425D01*
G37*
G36*
X145425D02*X142857D01*
Y322071D01*
X145425D01*
Y325425D01*
G37*
G36*
X142277Y305425D02*X139709D01*
Y302071D01*
X142277D01*
Y305425D01*
G37*
G36*
X145425D02*X142857D01*
Y302071D01*
X145425D01*
Y305425D01*
G37*
G36*
X144467Y318248D02*X140467D01*
Y313648D01*
X144467D01*
Y318248D01*
G37*
G36*
Y298248D02*X140467D01*
Y293648D01*
X144467D01*
Y298248D01*
G37*
G36*
X140567Y310048D02*X136567D01*
Y305448D01*
X140567D01*
Y310048D01*
G37*
G36*
X148367D02*X144367D01*
Y305448D01*
X148367D01*
Y310048D01*
G37*
G36*
X142277Y365425D02*X139709D01*
Y362071D01*
X142277D01*
Y365425D01*
G37*
G36*
Y345425D02*X139709D01*
Y342071D01*
X142277D01*
Y345425D01*
G37*
G36*
X145425D02*X142857D01*
Y342071D01*
X145425D01*
Y345425D01*
G37*
G36*
X144467Y358248D02*X140467D01*
Y353648D01*
X144467D01*
Y358248D01*
G37*
G36*
Y338248D02*X140467D01*
Y333648D01*
X144467D01*
Y338248D01*
G37*
G36*
X145425Y365425D02*X142857D01*
Y362071D01*
X145425D01*
Y365425D01*
G37*
G36*
X134367Y390048D02*X130367D01*
Y385448D01*
X134367D01*
Y390048D01*
G37*
G36*
Y370048D02*X130367D01*
Y365448D01*
X134367D01*
Y370048D01*
G37*
G36*
Y350048D02*X130367D01*
Y345448D01*
X134367D01*
Y350048D01*
G37*
G36*
Y330048D02*X130367D01*
Y325448D01*
X134367D01*
Y330048D01*
G37*
G36*
X126567Y350048D02*X122567D01*
Y345448D01*
X126567D01*
Y350048D01*
G37*
G36*
X130467Y358248D02*X126467D01*
Y353648D01*
X130467D01*
Y358248D01*
G37*
G36*
X126567Y330048D02*X122567D01*
Y325448D01*
X126567D01*
Y330048D01*
G37*
G36*
X130467Y338248D02*X126467D01*
Y333648D01*
X130467D01*
Y338248D01*
G37*
G36*
X140567Y350048D02*X136567D01*
Y345448D01*
X140567D01*
Y350048D01*
G37*
G36*
Y330048D02*X136567D01*
Y325448D01*
X140567D01*
Y330048D01*
G37*
G36*
X148367Y350048D02*X144367D01*
Y345448D01*
X148367D01*
Y350048D01*
G37*
G36*
Y330048D02*X144367D01*
Y325448D01*
X148367D01*
Y330048D01*
G37*
G36*
X126567Y310048D02*X122567D01*
Y305448D01*
X126567D01*
Y310048D01*
G37*
G36*
X130467Y318248D02*X126467D01*
Y313648D01*
X130467D01*
Y318248D01*
G37*
G36*
X126567Y290048D02*X122567D01*
Y285448D01*
X126567D01*
Y290048D01*
G37*
G36*
X130467Y298248D02*X126467D01*
Y293648D01*
X130467D01*
Y298248D01*
G37*
G36*
X134367Y310048D02*X130367D01*
Y305448D01*
X134367D01*
Y310048D01*
G37*
G36*
Y290048D02*X130367D01*
Y285448D01*
X134367D01*
Y290048D01*
G37*
G36*
Y270048D02*X130367D01*
Y265448D01*
X134367D01*
Y270048D01*
G37*
G36*
Y250048D02*X130367D01*
Y245448D01*
X134367D01*
Y250048D01*
G37*
G36*
X126567Y270048D02*X122567D01*
Y265448D01*
X126567D01*
Y270048D01*
G37*
G36*
X130467Y278248D02*X126467D01*
Y273648D01*
X130467D01*
Y278248D01*
G37*
G36*
Y258248D02*X126467D01*
Y253648D01*
X130467D01*
Y258248D01*
G37*
G36*
X142277Y285425D02*X139709D01*
Y282071D01*
X142277D01*
Y285425D01*
G37*
G36*
X145425D02*X142857D01*
Y282071D01*
X145425D01*
Y285425D01*
G37*
G36*
X144467Y278248D02*X140467D01*
Y273648D01*
X144467D01*
Y278248D01*
G37*
G36*
X140567Y290048D02*X136567D01*
Y285448D01*
X140567D01*
Y290048D01*
G37*
G36*
X148367D02*X144367D01*
Y285448D01*
X148367D01*
Y290048D01*
G37*
G36*
X142277Y265425D02*X139709D01*
Y262071D01*
X142277D01*
Y265425D01*
G37*
G36*
X145425D02*X142857D01*
Y262071D01*
X145425D01*
Y265425D01*
G37*
G36*
X140567Y270048D02*X136567D01*
Y265448D01*
X140567D01*
Y270048D01*
G37*
G36*
X148367D02*X144367D01*
Y265448D01*
X148367D01*
Y270048D01*
G37*
G36*
X140567Y250048D02*X136567D01*
Y245448D01*
X140567D01*
Y250048D01*
G37*
G36*
X144467Y258248D02*X140467D01*
Y253648D01*
X144467D01*
Y258248D01*
G37*
G36*
X148367Y250048D02*X144367D01*
Y245448D01*
X148367D01*
Y250048D01*
G37*
G36*
X128277Y485425D02*X125709D01*
Y482071D01*
X128277D01*
Y485425D01*
G37*
G36*
X131425D02*X128857D01*
Y482071D01*
X131425D01*
Y485425D01*
G37*
G36*
X130467Y478248D02*X126467D01*
Y473648D01*
X130467D01*
Y478248D01*
G37*
G36*
X142277Y485425D02*X139709D01*
Y482071D01*
X142277D01*
Y485425D01*
G37*
G36*
X144467Y498248D02*X140467D01*
Y493648D01*
X144467D01*
Y498248D01*
G37*
G36*
Y478248D02*X140467D01*
Y473648D01*
X144467D01*
Y478248D01*
G37*
G36*
X145425Y485425D02*X142857D01*
Y482071D01*
X145425D01*
Y485425D01*
G37*
G36*
X134367Y490048D02*X130367D01*
Y485448D01*
X134367D01*
Y490048D01*
G37*
G36*
X140567D02*X136567D01*
Y485448D01*
X140567D01*
Y490048D01*
G37*
G36*
X148367D02*X144367D01*
Y485448D01*
X148367D01*
Y490048D01*
G37*
G36*
X116299Y491965D02*Y488413D01*
X120835D01*
Y491965D01*
X116299D01*
G37*
G36*
X119425Y485425D02*X116857D01*
Y482071D01*
X119425D01*
Y485425D01*
G37*
G36*
X116277D02*X113709D01*
Y482071D01*
X116277D01*
Y485425D01*
G37*
G36*
X116299Y497083D02*Y493531D01*
X120835D01*
Y497083D01*
X116299D01*
G37*
G36*
X102267Y497748D02*Y493748D01*
X106867D01*
Y497748D01*
X102267D01*
G37*
G36*
Y489948D02*Y485948D01*
X106867D01*
Y489948D01*
X102267D01*
G37*
G36*
X110467Y493848D02*Y489848D01*
X115067D01*
Y493848D01*
X110467D01*
G37*
G36*
X126567Y490048D02*X122567D01*
Y485448D01*
X126567D01*
Y490048D01*
G37*
G36*
X130467Y498248D02*X126467D01*
Y493648D01*
X130467D01*
Y498248D01*
G37*
G36*
X99367Y490048D02*X95367D01*
Y485448D01*
X99367D01*
Y490048D01*
G37*
G36*
X95467Y498248D02*X91467D01*
Y493648D01*
X95467D01*
Y498248D01*
G37*
G36*
X142277Y465425D02*X139709D01*
Y462071D01*
X142277D01*
Y465425D01*
G37*
G36*
X145425D02*X142857D01*
Y462071D01*
X145425D01*
Y465425D01*
G37*
G36*
X142277Y445425D02*X139709D01*
Y442071D01*
X142277D01*
Y445425D01*
G37*
G36*
X145425D02*X142857D01*
Y442071D01*
X145425D01*
Y445425D01*
G37*
G36*
X144467Y458248D02*X140467D01*
Y453648D01*
X144467D01*
Y458248D01*
G37*
G36*
X134367Y470048D02*X130367D01*
Y465448D01*
X134367D01*
Y470048D01*
G37*
G36*
Y450048D02*X130367D01*
Y445448D01*
X134367D01*
Y450048D01*
G37*
G36*
X128277Y465425D02*X125709D01*
Y462071D01*
X128277D01*
Y465425D01*
G37*
G36*
X131425D02*X128857D01*
Y462071D01*
X131425D01*
Y465425D01*
G37*
G36*
X126567Y450048D02*X122567D01*
Y445448D01*
X126567D01*
Y450048D01*
G37*
G36*
X130467Y458248D02*X126467D01*
Y453648D01*
X130467D01*
Y458248D01*
G37*
G36*
X119425Y445425D02*X116857D01*
Y442071D01*
X119425D01*
Y445425D01*
G37*
G36*
X116277D02*X113709D01*
Y442071D01*
X116277D01*
Y445425D01*
G37*
G36*
X140567Y470048D02*X136567D01*
Y465448D01*
X140567D01*
Y470048D01*
G37*
G36*
X148367D02*X144367D01*
Y465448D01*
X148367D01*
Y470048D01*
G37*
G36*
X140567Y450048D02*X136567D01*
Y445448D01*
X140567D01*
Y450048D01*
G37*
G36*
X148367D02*X144367D01*
Y445448D01*
X148367D01*
Y450048D01*
G37*
G36*
X99367D02*X95367D01*
Y445448D01*
X99367D01*
Y450048D01*
G37*
G36*
X95467Y458248D02*X91467D01*
Y453648D01*
X95467D01*
Y458248D01*
G37*
G36*
X102267Y477748D02*Y473748D01*
X106867D01*
Y477748D01*
X102267D01*
G37*
G36*
Y469948D02*Y465948D01*
X106867D01*
Y469948D01*
X102267D01*
G37*
G36*
X110467Y473848D02*Y469848D01*
X115067D01*
Y473848D01*
X110467D01*
G37*
G36*
X126567Y470048D02*X122567D01*
Y465448D01*
X126567D01*
Y470048D01*
G37*
G36*
X116299Y471965D02*Y468413D01*
X120835D01*
Y471965D01*
X116299D01*
G37*
G36*
Y477083D02*Y473531D01*
X120835D01*
Y477083D01*
X116299D01*
G37*
G36*
X119425Y465425D02*X116857D01*
Y462071D01*
X119425D01*
Y465425D01*
G37*
G36*
X116277D02*X113709D01*
Y462071D01*
X116277D01*
Y465425D01*
G37*
G36*
X99367Y470048D02*X95367D01*
Y465448D01*
X99367D01*
Y470048D01*
G37*
G36*
X95467Y478248D02*X91467D01*
Y473648D01*
X95467D01*
Y478248D01*
G37*
G36*
X128277Y445425D02*X125709D01*
Y442071D01*
X128277D01*
Y445425D01*
G37*
G36*
X130467Y438248D02*X126467D01*
Y433648D01*
X130467D01*
Y438248D01*
G37*
G36*
X131425Y445425D02*X128857D01*
Y442071D01*
X131425D01*
Y445425D01*
G37*
G36*
X116299Y451965D02*Y448413D01*
X120835D01*
Y451965D01*
X116299D01*
G37*
G36*
Y457083D02*Y453531D01*
X120835D01*
Y457083D01*
X116299D01*
G37*
G36*
Y431965D02*Y428413D01*
X120835D01*
Y431965D01*
X116299D01*
G37*
G36*
Y437083D02*Y433531D01*
X120835D01*
Y437083D01*
X116299D01*
G37*
G36*
X126567Y430048D02*X122567D01*
Y425448D01*
X126567D01*
Y430048D01*
G37*
G36*
X134367D02*X130367D01*
Y425448D01*
X134367D01*
Y430048D01*
G37*
G36*
X142277Y425425D02*X139709D01*
Y422071D01*
X142277D01*
Y425425D01*
G37*
G36*
X145425D02*X142857D01*
Y422071D01*
X145425D01*
Y425425D01*
G37*
G36*
Y405425D02*X142857D01*
Y402071D01*
X145425D01*
Y405425D01*
G37*
G36*
X144467Y418248D02*X140467D01*
Y413648D01*
X144467D01*
Y418248D01*
G37*
G36*
X140567Y430048D02*X136567D01*
Y425448D01*
X140567D01*
Y430048D01*
G37*
G36*
X148367D02*X144367D01*
Y425448D01*
X148367D01*
Y430048D01*
G37*
G36*
X144467Y438248D02*X140467D01*
Y433648D01*
X144467D01*
Y438248D01*
G37*
G36*
X102267Y457748D02*Y453748D01*
X106867D01*
Y457748D01*
X102267D01*
G37*
G36*
Y449948D02*Y445948D01*
X106867D01*
Y449948D01*
X102267D01*
G37*
G36*
Y437748D02*Y433748D01*
X106867D01*
Y437748D01*
X102267D01*
G37*
G36*
Y429948D02*Y425948D01*
X106867D01*
Y429948D01*
X102267D01*
G37*
G36*
X110467Y453848D02*Y449848D01*
X115067D01*
Y453848D01*
X110467D01*
G37*
G36*
Y433848D02*Y429848D01*
X115067D01*
Y433848D01*
X110467D01*
G37*
G36*
Y413848D02*Y409848D01*
X115067D01*
Y413848D01*
X110467D01*
G37*
G36*
X116277Y425425D02*X113709D01*
Y422071D01*
X116277D01*
Y425425D01*
G37*
G36*
X102267Y417748D02*Y413748D01*
X106867D01*
Y417748D01*
X102267D01*
G37*
G36*
Y409948D02*Y405948D01*
X106867D01*
Y409948D01*
X102267D01*
G37*
G36*
Y397748D02*Y393748D01*
X106867D01*
Y397748D01*
X102267D01*
G37*
G36*
Y389948D02*Y385948D01*
X106867D01*
Y389948D01*
X102267D01*
G37*
G36*
X110467Y393848D02*Y389848D01*
X115067D01*
Y393848D01*
X110467D01*
G37*
G36*
X102267Y377748D02*Y373748D01*
X106867D01*
Y377748D01*
X102267D01*
G37*
G36*
Y369948D02*Y365948D01*
X106867D01*
Y369948D01*
X102267D01*
G37*
G36*
X110467Y373848D02*Y369848D01*
X115067D01*
Y373848D01*
X110467D01*
G37*
G36*
X128277Y425425D02*X125709D01*
Y422071D01*
X128277D01*
Y425425D01*
G37*
G36*
X131425D02*X128857D01*
Y422071D01*
X131425D01*
Y425425D01*
G37*
G36*
X130467Y418248D02*X126467D01*
Y413648D01*
X130467D01*
Y418248D01*
G37*
G36*
X116299Y417083D02*Y413531D01*
X120835D01*
Y417083D01*
X116299D01*
G37*
G36*
X128277Y405425D02*X125709D01*
Y402071D01*
X128277D01*
Y405425D01*
G37*
G36*
X131425D02*X128857D01*
Y402071D01*
X131425D01*
Y405425D01*
G37*
G36*
X126567Y410048D02*X122567D01*
Y405448D01*
X126567D01*
Y410048D01*
G37*
G36*
X134367D02*X130367D01*
Y405448D01*
X134367D01*
Y410048D01*
G37*
G36*
X130467Y398248D02*X126467D01*
Y393648D01*
X130467D01*
Y398248D01*
G37*
G36*
X119425Y425425D02*X116857D01*
Y422071D01*
X119425D01*
Y425425D01*
G37*
G36*
X140567Y410048D02*X136567D01*
Y405448D01*
X140567D01*
Y410048D01*
G37*
G36*
Y390048D02*X136567D01*
Y385448D01*
X140567D01*
Y390048D01*
G37*
G36*
X148367Y410048D02*X144367D01*
Y405448D01*
X148367D01*
Y410048D01*
G37*
G36*
Y390048D02*X144367D01*
Y385448D01*
X148367D01*
Y390048D01*
G37*
G36*
Y370048D02*X144367D01*
Y365448D01*
X148367D01*
Y370048D01*
G37*
G36*
X142277Y405425D02*X139709D01*
Y402071D01*
X142277D01*
Y405425D01*
G37*
G36*
X144467Y398248D02*X140467D01*
Y393648D01*
X144467D01*
Y398248D01*
G37*
G36*
Y378248D02*X140467D01*
Y373648D01*
X144467D01*
Y378248D01*
G37*
G36*
X10567Y483748D02*Y480748D01*
X20067D01*
Y483748D01*
X10567D01*
G37*
G36*
Y478748D02*Y475748D01*
X20067D01*
Y478748D01*
X10567D01*
G37*
G36*
Y453748D02*Y450748D01*
X20067D01*
Y453748D01*
X10567D01*
G37*
G36*
X31067D02*Y450748D01*
X40567D01*
Y453748D01*
X31067D01*
G37*
G36*
Y458748D02*Y455748D01*
X40567D01*
Y458748D01*
X31067D01*
G37*
G36*
Y463748D02*Y460748D01*
X40567D01*
Y463748D01*
X31067D01*
G37*
G36*
Y468748D02*Y465748D01*
X40567D01*
Y468748D01*
X31067D01*
G37*
G36*
Y473748D02*Y470748D01*
X40567D01*
Y473748D01*
X31067D01*
G37*
G36*
Y478748D02*Y475748D01*
X40567D01*
Y478748D01*
X31067D01*
G37*
G36*
Y483748D02*Y480748D01*
X40567D01*
Y483748D01*
X31067D01*
G37*
G36*
X10567Y473748D02*Y470748D01*
X20067D01*
Y473748D01*
X10567D01*
G37*
G36*
Y468748D02*Y465748D01*
X20067D01*
Y468748D01*
X10567D01*
G37*
G36*
Y463748D02*Y460748D01*
X20067D01*
Y463748D01*
X10567D01*
G37*
G36*
Y458748D02*Y455748D01*
X20067D01*
Y458748D01*
X10567D01*
G37*
G36*
Y448748D02*Y445748D01*
X20067D01*
Y448748D01*
X10567D01*
G37*
G36*
X17784Y443016D02*X14232D01*
Y438480D01*
X17784D01*
Y443016D01*
G37*
G36*
X22902D02*X19350D01*
Y438480D01*
X22902D01*
Y443016D01*
G37*
G36*
X17784Y390016D02*X14232D01*
Y385480D01*
X17784D01*
Y390016D01*
G37*
G36*
X22902D02*X19350D01*
Y385480D01*
X22902D01*
Y390016D01*
G37*
G36*
X30784D02*X27232D01*
Y385480D01*
X30784D01*
Y390016D01*
G37*
G36*
X35902D02*X32350D01*
Y385480D01*
X35902D01*
Y390016D01*
G37*
G36*
X30784Y443016D02*X27232D01*
Y438480D01*
X30784D01*
Y443016D01*
G37*
G36*
X35902D02*X32350D01*
Y438480D01*
X35902D01*
Y443016D01*
G37*
G36*
X210299Y460083D02*Y456531D01*
X214835D01*
Y460083D01*
X210299D01*
G37*
G36*
X216299D02*Y456531D01*
X220835D01*
Y460083D01*
X216299D01*
G37*
G36*
X210299Y454965D02*Y451413D01*
X214835D01*
Y454965D01*
X210299D01*
G37*
G36*
X216299D02*Y451413D01*
X220835D01*
Y454965D01*
X216299D01*
G37*
G36*
X262902Y489016D02*X259350D01*
Y484480D01*
X262902D01*
Y489016D01*
G37*
G36*
X257784D02*X254232D01*
Y484480D01*
X257784D01*
Y489016D01*
G37*
G36*
X262902Y481016D02*X259350D01*
Y476480D01*
X262902D01*
Y481016D01*
G37*
G36*
X257784D02*X254232D01*
Y476480D01*
X257784D01*
Y481016D01*
G37*
G36*
X233567Y458748D02*Y455748D01*
X243067D01*
Y458748D01*
X233567D01*
G37*
G36*
X236315Y442150D02*Y436432D01*
X242819D01*
Y442150D01*
X236315D01*
G37*
G36*
Y435064D02*Y429346D01*
X242819D01*
Y435064D01*
X236315D01*
G37*
G36*
X254067Y458748D02*Y455748D01*
X263567D01*
Y458748D01*
X254067D01*
G37*
G36*
X233567Y473748D02*Y470748D01*
X243067D01*
Y473748D01*
X233567D01*
G37*
G36*
Y468748D02*Y465748D01*
X243067D01*
Y468748D01*
X233567D01*
G37*
G36*
Y463748D02*Y460748D01*
X243067D01*
Y463748D01*
X233567D01*
G37*
G36*
X254067D02*Y460748D01*
X263567D01*
Y463748D01*
X254067D01*
G37*
G36*
Y468748D02*Y465748D01*
X263567D01*
Y468748D01*
X254067D01*
G37*
G36*
Y473748D02*Y470748D01*
X263567D01*
Y473748D01*
X254067D01*
G37*
G36*
X84617Y496798D02*X82517D01*
Y492698D01*
X84617D01*
Y496798D01*
G37*
G36*
X82017D02*X79917D01*
Y492698D01*
X82017D01*
Y496798D01*
G37*
G36*
X79517D02*X77417D01*
Y492698D01*
X79517D01*
Y496798D01*
G37*
G36*
X82017Y489798D02*X79917D01*
Y485698D01*
X82017D01*
Y489798D01*
G37*
G36*
X84617D02*X82517D01*
Y485698D01*
X84617D01*
Y489798D01*
G37*
G36*
X72890Y498606D02*Y496038D01*
X76244D01*
Y498606D01*
X72890D01*
G37*
G36*
X70445Y492717D02*X67689D01*
Y488780D01*
X70445D01*
Y492717D01*
G37*
G36*
Y499409D02*X67689D01*
Y495472D01*
X70445D01*
Y499409D01*
G37*
G36*
X91567Y490048D02*X87567D01*
Y485448D01*
X91567D01*
Y490048D01*
G37*
G36*
X84617Y476798D02*X82517D01*
Y472698D01*
X84617D01*
Y476798D01*
G37*
G36*
Y469798D02*X82517D01*
Y465698D01*
X84617D01*
Y469798D01*
G37*
G36*
X91567Y470048D02*X87567D01*
Y465448D01*
X91567D01*
Y470048D01*
G37*
G36*
X82017Y476798D02*X79917D01*
Y472698D01*
X82017D01*
Y476798D01*
G37*
G36*
X79517D02*X77417D01*
Y472698D01*
X79517D01*
Y476798D01*
G37*
G36*
Y469798D02*X77417D01*
Y465698D01*
X79517D01*
Y469798D01*
G37*
G36*
X82017D02*X79917D01*
Y465698D01*
X82017D01*
Y469798D01*
G37*
G36*
X55317Y476798D02*X51817D01*
Y472698D01*
X55317D01*
Y476798D01*
G37*
G36*
X50217D02*X46717D01*
Y472698D01*
X50217D01*
Y476798D01*
G37*
G36*
X52717Y469798D02*X49217D01*
Y465698D01*
X52717D01*
Y469798D01*
G37*
G36*
X55317Y456798D02*X51817D01*
Y452698D01*
X55317D01*
Y456798D01*
G37*
G36*
X50217D02*X46717D01*
Y452698D01*
X50217D01*
Y456798D01*
G37*
G36*
X52717Y449798D02*X49217D01*
Y445698D01*
X52717D01*
Y449798D01*
G37*
G36*
X60217Y456798D02*X56717D01*
Y452698D01*
X60217D01*
Y456798D01*
G37*
G36*
X62717Y449798D02*X59217D01*
Y445698D01*
X62717D01*
Y449798D01*
G37*
G36*
X79517Y489798D02*X77417D01*
Y485698D01*
X79517D01*
Y489798D01*
G37*
G36*
X52717D02*X49217D01*
Y485698D01*
X52717D01*
Y489798D01*
G37*
G36*
X62717D02*X59217D01*
Y485698D01*
X62717D01*
Y489798D01*
G37*
G36*
X72890Y495458D02*Y492890D01*
X76244D01*
Y495458D01*
X72890D01*
G37*
G36*
Y478606D02*Y476038D01*
X76244D01*
Y478606D01*
X72890D01*
G37*
G36*
Y475458D02*Y472890D01*
X76244D01*
Y475458D01*
X72890D01*
G37*
G36*
X70445Y472717D02*X67689D01*
Y468780D01*
X70445D01*
Y472717D01*
G37*
G36*
Y479409D02*X67689D01*
Y475472D01*
X70445D01*
Y479409D01*
G37*
G36*
X55317Y496798D02*X51817D01*
Y492698D01*
X55317D01*
Y496798D01*
G37*
G36*
X50217D02*X46717D01*
Y492698D01*
X50217D01*
Y496798D01*
G37*
G36*
X65317D02*X61817D01*
Y492698D01*
X65317D01*
Y496798D01*
G37*
G36*
X60217D02*X56717D01*
Y492698D01*
X60217D01*
Y496798D01*
G37*
G36*
X65317Y476798D02*X61817D01*
Y472698D01*
X65317D01*
Y476798D01*
G37*
G36*
X60217D02*X56717D01*
Y472698D01*
X60217D01*
Y476798D01*
G37*
G36*
X62717Y469798D02*X59217D01*
Y465698D01*
X62717D01*
Y469798D01*
G37*
G36*
X84617Y456798D02*X82517D01*
Y452698D01*
X84617D01*
Y456798D01*
G37*
G36*
X82017D02*X79917D01*
Y452698D01*
X82017D01*
Y456798D01*
G37*
G36*
X79517D02*X77417D01*
Y452698D01*
X79517D01*
Y456798D01*
G37*
G36*
X72890Y458606D02*Y456038D01*
X76244D01*
Y458606D01*
X72890D01*
G37*
G36*
X70445Y459409D02*X67689D01*
Y455472D01*
X70445D01*
Y459409D01*
G37*
G36*
X72890Y455458D02*Y452890D01*
X76244D01*
Y455458D01*
X72890D01*
G37*
G36*
X70445Y452717D02*X67689D01*
Y448780D01*
X70445D01*
Y452717D01*
G37*
G36*
X65317Y456798D02*X61817D01*
Y452698D01*
X65317D01*
Y456798D01*
G37*
G36*
X72890Y438606D02*Y436038D01*
X76244D01*
Y438606D01*
X72890D01*
G37*
G36*
Y435458D02*Y432890D01*
X76244D01*
Y435458D01*
X72890D01*
G37*
G36*
X70445Y432717D02*X67689D01*
Y428780D01*
X70445D01*
Y432717D01*
G37*
G36*
Y439409D02*X67689D01*
Y435472D01*
X70445D01*
Y439409D01*
G37*
G36*
X65317Y436798D02*X61817D01*
Y432698D01*
X65317D01*
Y436798D01*
G37*
G36*
X79517Y449798D02*X77417D01*
Y445698D01*
X79517D01*
Y449798D01*
G37*
G36*
X82017D02*X79917D01*
Y445698D01*
X82017D01*
Y449798D01*
G37*
G36*
X84617D02*X82517D01*
Y445698D01*
X84617D01*
Y449798D01*
G37*
G36*
X91567Y450048D02*X87567D01*
Y445448D01*
X91567D01*
Y450048D01*
G37*
G36*
Y430048D02*X87567D01*
Y425448D01*
X91567D01*
Y430048D01*
G37*
G36*
X99367D02*X95367D01*
Y425448D01*
X99367D01*
Y430048D01*
G37*
G36*
X95467Y438248D02*X91467D01*
Y433648D01*
X95467D01*
Y438248D01*
G37*
G36*
Y418248D02*X91467D01*
Y413648D01*
X95467D01*
Y418248D01*
G37*
G36*
X91567Y410048D02*X87567D01*
Y405448D01*
X91567D01*
Y410048D01*
G37*
G36*
X99367D02*X95367D01*
Y405448D01*
X99367D01*
Y410048D01*
G37*
G36*
X91567Y390048D02*X87567D01*
Y385448D01*
X91567D01*
Y390048D01*
G37*
G36*
X99367D02*X95367D01*
Y385448D01*
X99367D01*
Y390048D01*
G37*
G36*
X95467Y398248D02*X91467D01*
Y393648D01*
X95467D01*
Y398248D01*
G37*
G36*
X91567Y370048D02*X87567D01*
Y365448D01*
X91567D01*
Y370048D01*
G37*
G36*
Y330048D02*X87567D01*
Y325448D01*
X91567D01*
Y330048D01*
G37*
G36*
Y310048D02*X87567D01*
Y305448D01*
X91567D01*
Y310048D01*
G37*
G36*
X95467Y318248D02*X91467D01*
Y313648D01*
X95467D01*
Y318248D01*
G37*
G36*
X91567Y290048D02*X87567D01*
Y285448D01*
X91567D01*
Y290048D01*
G37*
G36*
X95467Y298248D02*X91467D01*
Y293648D01*
X95467D01*
Y298248D01*
G37*
G36*
X99367Y370048D02*X95367D01*
Y365448D01*
X99367D01*
Y370048D01*
G37*
G36*
Y330048D02*X95367D01*
Y325448D01*
X99367D01*
Y330048D01*
G37*
G36*
Y310048D02*X95367D01*
Y305448D01*
X99367D01*
Y310048D01*
G37*
G36*
Y290048D02*X95367D01*
Y285448D01*
X99367D01*
Y290048D01*
G37*
G36*
X95467Y378248D02*X91467D01*
Y373648D01*
X95467D01*
Y378248D01*
G37*
G36*
X91567Y350048D02*X87567D01*
Y345448D01*
X91567D01*
Y350048D01*
G37*
G36*
X99367D02*X95367D01*
Y345448D01*
X99367D01*
Y350048D01*
G37*
G36*
X95467Y358248D02*X91467D01*
Y353648D01*
X95467D01*
Y358248D01*
G37*
G36*
Y338248D02*X91467D01*
Y333648D01*
X95467D01*
Y338248D01*
G37*
G36*
X10567Y218748D02*Y215748D01*
X20067D01*
Y218748D01*
X10567D01*
G37*
G36*
Y213748D02*Y210748D01*
X20067D01*
Y213748D01*
X10567D01*
G37*
G36*
Y208748D02*Y205748D01*
X20067D01*
Y208748D01*
X10567D01*
G37*
G36*
Y203748D02*Y200748D01*
X20067D01*
Y203748D01*
X10567D01*
G37*
G36*
X31067D02*Y200748D01*
X40567D01*
Y203748D01*
X31067D01*
G37*
G36*
Y208748D02*Y205748D01*
X40567D01*
Y208748D01*
X31067D01*
G37*
G36*
X10567Y198748D02*Y195748D01*
X20067D01*
Y198748D01*
X10567D01*
G37*
G36*
X31067D02*Y195748D01*
X40567D01*
Y198748D01*
X31067D01*
G37*
G36*
X10567Y193748D02*Y190748D01*
X20067D01*
Y193748D01*
X10567D01*
G37*
G36*
X31067D02*Y190748D01*
X40567D01*
Y193748D01*
X31067D01*
G37*
G36*
X10567Y188748D02*Y185748D01*
X20067D01*
Y188748D01*
X10567D01*
G37*
G36*
X31067D02*Y185748D01*
X40567D01*
Y188748D01*
X31067D01*
G37*
G36*
X10567Y183748D02*Y180748D01*
X20067D01*
Y183748D01*
X10567D01*
G37*
G36*
X31067D02*Y180748D01*
X40567D01*
Y183748D01*
X31067D01*
G37*
G36*
X10567Y271748D02*Y268748D01*
X20067D01*
Y271748D01*
X10567D01*
G37*
G36*
Y266748D02*Y263748D01*
X20067D01*
Y266748D01*
X10567D01*
G37*
G36*
Y261748D02*Y258748D01*
X20067D01*
Y261748D01*
X10567D01*
G37*
G36*
Y256748D02*Y253748D01*
X20067D01*
Y256748D01*
X10567D01*
G37*
G36*
X17784Y284016D02*X14232D01*
Y279480D01*
X17784D01*
Y284016D01*
G37*
G36*
X22902D02*X19350D01*
Y279480D01*
X22902D01*
Y284016D01*
G37*
G36*
X10567Y251748D02*Y248748D01*
X20067D01*
Y251748D01*
X10567D01*
G37*
G36*
Y246748D02*Y243748D01*
X20067D01*
Y246748D01*
X10567D01*
G37*
G36*
Y241748D02*Y238748D01*
X20067D01*
Y241748D01*
X10567D01*
G37*
G36*
Y236748D02*Y233748D01*
X20067D01*
Y236748D01*
X10567D01*
G37*
G36*
X17784Y231016D02*X14232D01*
Y226480D01*
X17784D01*
Y231016D01*
G37*
G36*
X22902D02*X19350D01*
Y226480D01*
X22902D01*
Y231016D01*
G37*
G36*
X30784D02*X27232D01*
Y226480D01*
X30784D01*
Y231016D01*
G37*
G36*
Y284016D02*X27232D01*
Y279480D01*
X30784D01*
Y284016D01*
G37*
G36*
X31067Y213748D02*Y210748D01*
X40567D01*
Y213748D01*
X31067D01*
G37*
G36*
Y218748D02*Y215748D01*
X40567D01*
Y218748D01*
X31067D01*
G37*
G36*
Y236748D02*Y233748D01*
X40567D01*
Y236748D01*
X31067D01*
G37*
G36*
Y241748D02*Y238748D01*
X40567D01*
Y241748D01*
X31067D01*
G37*
G36*
X35902Y231016D02*X32350D01*
Y226480D01*
X35902D01*
Y231016D01*
G37*
G36*
X31067Y246748D02*Y243748D01*
X40567D01*
Y246748D01*
X31067D01*
G37*
G36*
Y251748D02*Y248748D01*
X40567D01*
Y251748D01*
X31067D01*
G37*
G36*
Y256748D02*Y253748D01*
X40567D01*
Y256748D01*
X31067D01*
G37*
G36*
Y261748D02*Y258748D01*
X40567D01*
Y261748D01*
X31067D01*
G37*
G36*
Y266748D02*Y263748D01*
X40567D01*
Y266748D01*
X31067D01*
G37*
G36*
Y271748D02*Y268748D01*
X40567D01*
Y271748D01*
X31067D01*
G37*
G36*
X35902Y284016D02*X32350D01*
Y279480D01*
X35902D01*
Y284016D01*
G37*
G36*
X52717Y429798D02*X49217D01*
Y425698D01*
X52717D01*
Y429798D01*
G37*
G36*
X55317Y416798D02*X51817D01*
Y412698D01*
X55317D01*
Y416798D01*
G37*
G36*
X50217D02*X46717D01*
Y412698D01*
X50217D01*
Y416798D01*
G37*
G36*
X52717Y409798D02*X49217D01*
Y405698D01*
X52717D01*
Y409798D01*
G37*
G36*
X55317Y436798D02*X51817D01*
Y432698D01*
X55317D01*
Y436798D01*
G37*
G36*
X60217D02*X56717D01*
Y432698D01*
X60217D01*
Y436798D01*
G37*
G36*
X62717Y429798D02*X59217D01*
Y425698D01*
X62717D01*
Y429798D01*
G37*
G36*
X50217Y436798D02*X46717D01*
Y432698D01*
X50217D01*
Y436798D01*
G37*
G36*
X65317Y416798D02*X61817D01*
Y412698D01*
X65317D01*
Y416798D01*
G37*
G36*
X60217D02*X56717D01*
Y412698D01*
X60217D01*
Y416798D01*
G37*
G36*
X62717Y409798D02*X59217D01*
Y405698D01*
X62717D01*
Y409798D01*
G37*
G36*
X65317Y396798D02*X61817D01*
Y392698D01*
X65317D01*
Y396798D01*
G37*
G36*
X60217D02*X56717D01*
Y392698D01*
X60217D01*
Y396798D01*
G37*
G36*
X62717Y389798D02*X59217D01*
Y385698D01*
X62717D01*
Y389798D01*
G37*
G36*
X10567Y430748D02*Y427748D01*
X20067D01*
Y430748D01*
X10567D01*
G37*
G36*
Y425748D02*Y422748D01*
X20067D01*
Y425748D01*
X10567D01*
G37*
G36*
Y420748D02*Y417748D01*
X20067D01*
Y420748D01*
X10567D01*
G37*
G36*
Y415748D02*Y412748D01*
X20067D01*
Y415748D01*
X10567D01*
G37*
G36*
Y410748D02*Y407748D01*
X20067D01*
Y410748D01*
X10567D01*
G37*
G36*
Y405748D02*Y402748D01*
X20067D01*
Y405748D01*
X10567D01*
G37*
G36*
Y400748D02*Y397748D01*
X20067D01*
Y400748D01*
X10567D01*
G37*
G36*
Y395748D02*Y392748D01*
X20067D01*
Y395748D01*
X10567D01*
G37*
G36*
X31067D02*Y392748D01*
X40567D01*
Y395748D01*
X31067D01*
G37*
G36*
Y400748D02*Y397748D01*
X40567D01*
Y400748D01*
X31067D01*
G37*
G36*
Y405748D02*Y402748D01*
X40567D01*
Y405748D01*
X31067D01*
G37*
G36*
Y410748D02*Y407748D01*
X40567D01*
Y410748D01*
X31067D01*
G37*
G36*
Y415748D02*Y412748D01*
X40567D01*
Y415748D01*
X31067D01*
G37*
G36*
Y420748D02*Y417748D01*
X40567D01*
Y420748D01*
X31067D01*
G37*
G36*
Y425748D02*Y422748D01*
X40567D01*
Y425748D01*
X31067D01*
G37*
G36*
Y430748D02*Y427748D01*
X40567D01*
Y430748D01*
X31067D01*
G37*
G36*
Y448748D02*Y445748D01*
X40567D01*
Y448748D01*
X31067D01*
G37*
G36*
X65317Y376798D02*X61817D01*
Y372698D01*
X65317D01*
Y376798D01*
G37*
G36*
Y356798D02*X61817D01*
Y352698D01*
X65317D01*
Y356798D01*
G37*
G36*
Y336798D02*X61817D01*
Y332698D01*
X65317D01*
Y336798D01*
G37*
G36*
Y316798D02*X61817D01*
Y312698D01*
X65317D01*
Y316798D01*
G37*
G36*
X60217Y376798D02*X56717D01*
Y372698D01*
X60217D01*
Y376798D01*
G37*
G36*
X62717Y369798D02*X59217D01*
Y365698D01*
X62717D01*
Y369798D01*
G37*
G36*
X60217Y356798D02*X56717D01*
Y352698D01*
X60217D01*
Y356798D01*
G37*
G36*
X62717Y349798D02*X59217D01*
Y345698D01*
X62717D01*
Y349798D01*
G37*
G36*
X60217Y336798D02*X56717D01*
Y332698D01*
X60217D01*
Y336798D01*
G37*
G36*
X62717Y329798D02*X59217D01*
Y325698D01*
X62717D01*
Y329798D01*
G37*
G36*
X60217Y316798D02*X56717D01*
Y312698D01*
X60217D01*
Y316798D01*
G37*
G36*
X55317Y396798D02*X51817D01*
Y392698D01*
X55317D01*
Y396798D01*
G37*
G36*
X50217D02*X46717D01*
Y392698D01*
X50217D01*
Y396798D01*
G37*
G36*
X52717Y389798D02*X49217D01*
Y385698D01*
X52717D01*
Y389798D01*
G37*
G36*
X55317Y376798D02*X51817D01*
Y372698D01*
X55317D01*
Y376798D01*
G37*
G36*
X50217D02*X46717D01*
Y372698D01*
X50217D01*
Y376798D01*
G37*
G36*
X52717Y369798D02*X49217D01*
Y365698D01*
X52717D01*
Y369798D01*
G37*
G36*
X10567Y377748D02*Y374748D01*
X20067D01*
Y377748D01*
X10567D01*
G37*
G36*
Y372748D02*Y369748D01*
X20067D01*
Y372748D01*
X10567D01*
G37*
G36*
Y367748D02*Y364748D01*
X20067D01*
Y367748D01*
X10567D01*
G37*
G36*
Y362748D02*Y359748D01*
X20067D01*
Y362748D01*
X10567D01*
G37*
G36*
X31067Y357748D02*Y354748D01*
X40567D01*
Y357748D01*
X31067D01*
G37*
G36*
Y362748D02*Y359748D01*
X40567D01*
Y362748D01*
X31067D01*
G37*
G36*
Y367748D02*Y364748D01*
X40567D01*
Y367748D01*
X31067D01*
G37*
G36*
Y372748D02*Y369748D01*
X40567D01*
Y372748D01*
X31067D01*
G37*
G36*
Y377748D02*Y374748D01*
X40567D01*
Y377748D01*
X31067D01*
G37*
G36*
X10567Y357748D02*Y354748D01*
X20067D01*
Y357748D01*
X10567D01*
G37*
G36*
Y352748D02*Y349748D01*
X20067D01*
Y352748D01*
X10567D01*
G37*
G36*
Y347748D02*Y344748D01*
X20067D01*
Y347748D01*
X10567D01*
G37*
G36*
Y342748D02*Y339748D01*
X20067D01*
Y342748D01*
X10567D01*
G37*
G36*
X31067D02*Y339748D01*
X40567D01*
Y342748D01*
X31067D01*
G37*
G36*
Y347748D02*Y344748D01*
X40567D01*
Y347748D01*
X31067D01*
G37*
G36*
Y352748D02*Y349748D01*
X40567D01*
Y352748D01*
X31067D01*
G37*
G36*
X17784Y337016D02*X14232D01*
Y332480D01*
X17784D01*
Y337016D01*
G37*
G36*
X22902D02*X19350D01*
Y332480D01*
X22902D01*
Y337016D01*
G37*
G36*
X30843D02*X27291D01*
Y332480D01*
X30843D01*
Y337016D01*
G37*
G36*
X35961D02*X32409D01*
Y332480D01*
X35961D01*
Y337016D01*
G37*
G36*
X10567Y324748D02*Y321748D01*
X20067D01*
Y324748D01*
X10567D01*
G37*
G36*
Y319748D02*Y316748D01*
X20067D01*
Y319748D01*
X10567D01*
G37*
G36*
Y314748D02*Y311748D01*
X20067D01*
Y314748D01*
X10567D01*
G37*
G36*
Y309748D02*Y306748D01*
X20067D01*
Y309748D01*
X10567D01*
G37*
G36*
Y304748D02*Y301748D01*
X20067D01*
Y304748D01*
X10567D01*
G37*
G36*
X31067D02*Y301748D01*
X40567D01*
Y304748D01*
X31067D01*
G37*
G36*
X10567Y299748D02*Y296748D01*
X20067D01*
Y299748D01*
X10567D01*
G37*
G36*
Y294748D02*Y291748D01*
X20067D01*
Y294748D01*
X10567D01*
G37*
G36*
Y289748D02*Y286748D01*
X20067D01*
Y289748D01*
X10567D01*
G37*
G36*
X31067D02*Y286748D01*
X40567D01*
Y289748D01*
X31067D01*
G37*
G36*
Y294748D02*Y291748D01*
X40567D01*
Y294748D01*
X31067D01*
G37*
G36*
Y299748D02*Y296748D01*
X40567D01*
Y299748D01*
X31067D01*
G37*
G36*
Y309748D02*Y306748D01*
X40567D01*
Y309748D01*
X31067D01*
G37*
G36*
Y314748D02*Y311748D01*
X40567D01*
Y314748D01*
X31067D01*
G37*
G36*
Y319748D02*Y316748D01*
X40567D01*
Y319748D01*
X31067D01*
G37*
G36*
Y324748D02*Y321748D01*
X40567D01*
Y324748D01*
X31067D01*
G37*
G36*
X128277Y305425D02*X125709D01*
Y302071D01*
X128277D01*
Y305425D01*
G37*
G36*
X131425D02*X128857D01*
Y302071D01*
X131425D01*
Y305425D01*
G37*
G36*
X128277Y285425D02*X125709D01*
Y282071D01*
X128277D01*
Y285425D01*
G37*
G36*
X131425D02*X128857D01*
Y282071D01*
X131425D01*
Y285425D01*
G37*
G36*
X128277Y265425D02*X125709D01*
Y262071D01*
X128277D01*
Y265425D01*
G37*
G36*
X131425D02*X128857D01*
Y262071D01*
X131425D01*
Y265425D01*
G37*
G36*
X128277Y245425D02*X125709D01*
Y242071D01*
X128277D01*
Y245425D01*
G37*
G36*
X131425D02*X128857D01*
Y242071D01*
X131425D01*
Y245425D01*
G37*
G36*
X128277Y225425D02*X125709D01*
Y222071D01*
X128277D01*
Y225425D01*
G37*
G36*
X131425D02*X128857D01*
Y222071D01*
X131425D01*
Y225425D01*
G37*
G36*
X128277Y205425D02*X125709D01*
Y202071D01*
X128277D01*
Y205425D01*
G37*
G36*
X131425D02*X128857D01*
Y202071D01*
X131425D01*
Y205425D01*
G37*
G36*
X128277Y185425D02*X125709D01*
Y182071D01*
X128277D01*
Y185425D01*
G37*
G36*
X131425D02*X128857D01*
Y182071D01*
X131425D01*
Y185425D01*
G37*
G36*
X128277Y165425D02*X125709D01*
Y162071D01*
X128277D01*
Y165425D01*
G37*
G36*
X131425D02*X128857D01*
Y162071D01*
X131425D01*
Y165425D01*
G37*
G36*
X128277Y145425D02*X125709D01*
Y142071D01*
X128277D01*
Y145425D01*
G37*
G36*
X131425D02*X128857D01*
Y142071D01*
X131425D01*
Y145425D01*
G37*
G36*
X128277Y125425D02*X125709D01*
Y122071D01*
X128277D01*
Y125425D01*
G37*
G36*
X131425D02*X128857D01*
Y122071D01*
X131425D01*
Y125425D01*
G37*
G36*
X128277Y105425D02*X125709D01*
Y102071D01*
X128277D01*
Y105425D01*
G37*
G36*
X131425D02*X128857D01*
Y102071D01*
X131425D01*
Y105425D01*
G37*
G36*
X130467Y98248D02*X126467D01*
Y93648D01*
X130467D01*
Y98248D01*
G37*
G36*
X128277Y85425D02*X125709D01*
Y82071D01*
X128277D01*
Y85425D01*
G37*
G36*
X126567Y70048D02*X122567D01*
Y65448D01*
X126567D01*
Y70048D01*
G37*
G36*
X130467Y78248D02*X126467D01*
Y73648D01*
X130467D01*
Y78248D01*
G37*
G36*
X131425Y85425D02*X128857D01*
Y82071D01*
X131425D01*
Y85425D01*
G37*
G36*
X134367Y90048D02*X130367D01*
Y85448D01*
X134367D01*
Y90048D01*
G37*
G36*
Y70048D02*X130367D01*
Y65448D01*
X134367D01*
Y70048D01*
G37*
G36*
X128277Y65425D02*X125709D01*
Y62071D01*
X128277D01*
Y65425D01*
G37*
G36*
X131425D02*X128857D01*
Y62071D01*
X131425D01*
Y65425D01*
G37*
G36*
X130467Y58248D02*X126467D01*
Y53648D01*
X130467D01*
Y58248D01*
G37*
G36*
X128277Y45425D02*X125709D01*
Y42071D01*
X128277D01*
Y45425D01*
G37*
G36*
X131425D02*X128857D01*
Y42071D01*
X131425D01*
Y45425D01*
G37*
G36*
X126567Y50048D02*X122567D01*
Y45448D01*
X126567D01*
Y50048D01*
G37*
G36*
X134367D02*X130367D01*
Y45448D01*
X134367D01*
Y50048D01*
G37*
G36*
X128277Y25425D02*X125709D01*
Y22071D01*
X128277D01*
Y25425D01*
G37*
G36*
X131425D02*X128857D01*
Y22071D01*
X131425D01*
Y25425D01*
G37*
G36*
X126567Y30048D02*X122567D01*
Y25448D01*
X126567D01*
Y30048D01*
G37*
G36*
X134367D02*X130367D01*
Y25448D01*
X134367D01*
Y30048D01*
G37*
G36*
X130467Y38248D02*X126467D01*
Y33648D01*
X130467D01*
Y38248D01*
G37*
G36*
X116299Y231965D02*Y228413D01*
X120835D01*
Y231965D01*
X116299D01*
G37*
G36*
Y237083D02*Y233531D01*
X120835D01*
Y237083D01*
X116299D01*
G37*
G36*
Y211965D02*Y208413D01*
X120835D01*
Y211965D01*
X116299D01*
G37*
G36*
Y217083D02*Y213531D01*
X120835D01*
Y217083D01*
X116299D01*
G37*
G36*
Y191965D02*Y188413D01*
X120835D01*
Y191965D01*
X116299D01*
G37*
G36*
Y197083D02*Y193531D01*
X120835D01*
Y197083D01*
X116299D01*
G37*
G36*
X119425Y205425D02*X116857D01*
Y202071D01*
X119425D01*
Y205425D01*
G37*
G36*
Y245425D02*X116857D01*
Y242071D01*
X119425D01*
Y245425D01*
G37*
G36*
Y225425D02*X116857D01*
Y222071D01*
X119425D01*
Y225425D01*
G37*
G36*
Y185425D02*X116857D01*
Y182071D01*
X119425D01*
Y185425D01*
G37*
G36*
X116299Y171965D02*Y168413D01*
X120835D01*
Y171965D01*
X116299D01*
G37*
G36*
Y177083D02*Y173531D01*
X120835D01*
Y177083D01*
X116299D01*
G37*
G36*
Y151965D02*Y148413D01*
X120835D01*
Y151965D01*
X116299D01*
G37*
G36*
Y157083D02*Y153531D01*
X120835D01*
Y157083D01*
X116299D01*
G37*
G36*
X119425Y165425D02*X116857D01*
Y162071D01*
X119425D01*
Y165425D01*
G37*
G36*
Y145425D02*X116857D01*
Y142071D01*
X119425D01*
Y145425D01*
G37*
G36*
X116299Y131965D02*Y128413D01*
X120835D01*
Y131965D01*
X116299D01*
G37*
G36*
Y111965D02*Y108413D01*
X120835D01*
Y111965D01*
X116299D01*
G37*
G36*
Y117083D02*Y113531D01*
X120835D01*
Y117083D01*
X116299D01*
G37*
G36*
X119425Y125425D02*X116857D01*
Y122071D01*
X119425D01*
Y125425D01*
G37*
G36*
Y105425D02*X116857D01*
Y102071D01*
X119425D01*
Y105425D01*
G37*
G36*
X116299Y137083D02*Y133531D01*
X120835D01*
Y137083D01*
X116299D01*
G37*
G36*
Y91965D02*Y88413D01*
X120835D01*
Y91965D01*
X116299D01*
G37*
G36*
Y97083D02*Y93531D01*
X120835D01*
Y97083D01*
X116299D01*
G37*
G36*
Y71965D02*Y68413D01*
X120835D01*
Y71965D01*
X116299D01*
G37*
G36*
Y77083D02*Y73531D01*
X120835D01*
Y77083D01*
X116299D01*
G37*
G36*
X119425Y85425D02*X116857D01*
Y82071D01*
X119425D01*
Y85425D01*
G37*
G36*
Y65425D02*X116857D01*
Y62071D01*
X119425D01*
Y65425D01*
G37*
G36*
X116299Y51965D02*Y48413D01*
X120835D01*
Y51965D01*
X116299D01*
G37*
G36*
Y31965D02*Y28413D01*
X120835D01*
Y31965D01*
X116299D01*
G37*
G36*
Y37083D02*Y33531D01*
X120835D01*
Y37083D01*
X116299D01*
G37*
G36*
X119425Y45425D02*X116857D01*
Y42071D01*
X119425D01*
Y45425D01*
G37*
G36*
Y25425D02*X116857D01*
Y22071D01*
X119425D01*
Y25425D01*
G37*
G36*
X116299Y57083D02*Y53531D01*
X120835D01*
Y57083D01*
X116299D01*
G37*
G36*
X142277Y245425D02*X139709D01*
Y242071D01*
X142277D01*
Y245425D01*
G37*
G36*
X145425D02*X142857D01*
Y242071D01*
X145425D01*
Y245425D01*
G37*
G36*
X142277Y225425D02*X139709D01*
Y222071D01*
X142277D01*
Y225425D01*
G37*
G36*
X145425D02*X142857D01*
Y222071D01*
X145425D01*
Y225425D01*
G37*
G36*
X144467Y238248D02*X140467D01*
Y233648D01*
X144467D01*
Y238248D01*
G37*
G36*
Y218248D02*X140467D01*
Y213648D01*
X144467D01*
Y218248D01*
G37*
G36*
X140567Y230048D02*X136567D01*
Y225448D01*
X140567D01*
Y230048D01*
G37*
G36*
X148367D02*X144367D01*
Y225448D01*
X148367D01*
Y230048D01*
G37*
G36*
X142277Y145425D02*X139709D01*
Y142071D01*
X142277D01*
Y145425D01*
G37*
G36*
X145425D02*X142857D01*
Y142071D01*
X145425D01*
Y145425D01*
G37*
G36*
X142277Y125425D02*X139709D01*
Y122071D01*
X142277D01*
Y125425D01*
G37*
G36*
X145425D02*X142857D01*
Y122071D01*
X145425D01*
Y125425D01*
G37*
G36*
X144467Y138248D02*X140467D01*
Y133648D01*
X144467D01*
Y138248D01*
G37*
G36*
X142277Y105425D02*X139709D01*
Y102071D01*
X142277D01*
Y105425D01*
G37*
G36*
X145425D02*X142857D01*
Y102071D01*
X145425D01*
Y105425D01*
G37*
G36*
X142277Y85425D02*X139709D01*
Y82071D01*
X142277D01*
Y85425D01*
G37*
G36*
X145425D02*X142857D01*
Y82071D01*
X145425D01*
Y85425D01*
G37*
G36*
X144467Y98248D02*X140467D01*
Y93648D01*
X144467D01*
Y98248D01*
G37*
G36*
Y78248D02*X140467D01*
Y73648D01*
X144467D01*
Y78248D01*
G37*
G36*
X142277Y65425D02*X139709D01*
Y62071D01*
X142277D01*
Y65425D01*
G37*
G36*
X145425D02*X142857D01*
Y62071D01*
X145425D01*
Y65425D01*
G37*
G36*
X142277Y45425D02*X139709D01*
Y42071D01*
X142277D01*
Y45425D01*
G37*
G36*
X145425D02*X142857D01*
Y42071D01*
X145425D01*
Y45425D01*
G37*
G36*
X144467Y58248D02*X140467D01*
Y53648D01*
X144467D01*
Y58248D01*
G37*
G36*
Y38248D02*X140467D01*
Y33648D01*
X144467D01*
Y38248D01*
G37*
G36*
X142277Y25425D02*X139709D01*
Y22071D01*
X142277D01*
Y25425D01*
G37*
G36*
X145425D02*X142857D01*
Y22071D01*
X145425D01*
Y25425D01*
G37*
G36*
X144467Y118248D02*X140467D01*
Y113648D01*
X144467D01*
Y118248D01*
G37*
G36*
X142277Y205425D02*X139709D01*
Y202071D01*
X142277D01*
Y205425D01*
G37*
G36*
X140567Y210048D02*X136567D01*
Y205448D01*
X140567D01*
Y210048D01*
G37*
G36*
Y190048D02*X136567D01*
Y185448D01*
X140567D01*
Y190048D01*
G37*
G36*
X144467Y198248D02*X140467D01*
Y193648D01*
X144467D01*
Y198248D01*
G37*
G36*
X145425Y205425D02*X142857D01*
Y202071D01*
X145425D01*
Y205425D01*
G37*
G36*
X148367Y210048D02*X144367D01*
Y205448D01*
X148367D01*
Y210048D01*
G37*
G36*
Y190048D02*X144367D01*
Y185448D01*
X148367D01*
Y190048D01*
G37*
G36*
X142277Y185425D02*X139709D01*
Y182071D01*
X142277D01*
Y185425D01*
G37*
G36*
X145425D02*X142857D01*
Y182071D01*
X145425D01*
Y185425D01*
G37*
G36*
X144467Y178248D02*X140467D01*
Y173648D01*
X144467D01*
Y178248D01*
G37*
G36*
X142277Y165425D02*X139709D01*
Y162071D01*
X142277D01*
Y165425D01*
G37*
G36*
X145425D02*X142857D01*
Y162071D01*
X145425D01*
Y165425D01*
G37*
G36*
X140567Y170048D02*X136567D01*
Y165448D01*
X140567D01*
Y170048D01*
G37*
G36*
X148367D02*X144367D01*
Y165448D01*
X148367D01*
Y170048D01*
G37*
G36*
X140567Y90048D02*X136567D01*
Y85448D01*
X140567D01*
Y90048D01*
G37*
G36*
Y70048D02*X136567D01*
Y65448D01*
X140567D01*
Y70048D01*
G37*
G36*
Y50048D02*X136567D01*
Y45448D01*
X140567D01*
Y50048D01*
G37*
G36*
X148367D02*X144367D01*
Y45448D01*
X148367D01*
Y50048D01*
G37*
G36*
X140567Y30048D02*X136567D01*
Y25448D01*
X140567D01*
Y30048D01*
G37*
G36*
X148367D02*X144367D01*
Y25448D01*
X148367D01*
Y30048D01*
G37*
G36*
X140567Y130048D02*X136567D01*
Y125448D01*
X140567D01*
Y130048D01*
G37*
G36*
Y110048D02*X136567D01*
Y105448D01*
X140567D01*
Y110048D01*
G37*
G36*
X148367Y150048D02*X144367D01*
Y145448D01*
X148367D01*
Y150048D01*
G37*
G36*
Y130048D02*X144367D01*
Y125448D01*
X148367D01*
Y130048D01*
G37*
G36*
Y110048D02*X144367D01*
Y105448D01*
X148367D01*
Y110048D01*
G37*
G36*
Y90048D02*X144367D01*
Y85448D01*
X148367D01*
Y90048D01*
G37*
G36*
Y70048D02*X144367D01*
Y65448D01*
X148367D01*
Y70048D01*
G37*
G36*
X140567Y150048D02*X136567D01*
Y145448D01*
X140567D01*
Y150048D01*
G37*
G36*
X144467Y158248D02*X140467D01*
Y153648D01*
X144467D01*
Y158248D01*
G37*
G36*
X230969Y84000D02*X225251D01*
Y77496D01*
X230969D01*
Y84000D01*
G37*
G36*
X223883D02*X218165D01*
Y77496D01*
X223883D01*
Y84000D01*
G37*
G36*
X210969D02*X205251D01*
Y77496D01*
X210969D01*
Y84000D01*
G37*
G36*
X203883D02*X198165D01*
Y77496D01*
X203883D01*
Y84000D01*
G37*
G36*
X102267Y237748D02*Y233748D01*
X106867D01*
Y237748D01*
X102267D01*
G37*
G36*
Y229948D02*Y225948D01*
X106867D01*
Y229948D01*
X102267D01*
G37*
G36*
X110467Y233848D02*Y229848D01*
X115067D01*
Y233848D01*
X110467D01*
G37*
G36*
X95467Y238248D02*X91467D01*
Y233648D01*
X95467D01*
Y238248D01*
G37*
G36*
X116277Y245425D02*X113709D01*
Y242071D01*
X116277D01*
Y245425D01*
G37*
G36*
Y225425D02*X113709D01*
Y222071D01*
X116277D01*
Y225425D01*
G37*
G36*
X102267Y217748D02*Y213748D01*
X106867D01*
Y217748D01*
X102267D01*
G37*
G36*
X99367Y230048D02*X95367D01*
Y225448D01*
X99367D01*
Y230048D01*
G37*
G36*
X95467Y218248D02*X91467D01*
Y213648D01*
X95467D01*
Y218248D01*
G37*
G36*
X102267Y177748D02*Y173748D01*
X106867D01*
Y177748D01*
X102267D01*
G37*
G36*
Y169948D02*Y165948D01*
X106867D01*
Y169948D01*
X102267D01*
G37*
G36*
Y157748D02*Y153748D01*
X106867D01*
Y157748D01*
X102267D01*
G37*
G36*
Y149948D02*Y145948D01*
X106867D01*
Y149948D01*
X102267D01*
G37*
G36*
X110467Y153848D02*Y149848D01*
X115067D01*
Y153848D01*
X110467D01*
G37*
G36*
X99367Y150048D02*X95367D01*
Y145448D01*
X99367D01*
Y150048D01*
G37*
G36*
X95467Y158248D02*X91467D01*
Y153648D01*
X95467D01*
Y158248D01*
G37*
G36*
X116277Y165425D02*X113709D01*
Y162071D01*
X116277D01*
Y165425D01*
G37*
G36*
X102267Y117748D02*Y113748D01*
X106867D01*
Y117748D01*
X102267D01*
G37*
G36*
Y109948D02*Y105948D01*
X106867D01*
Y109948D01*
X102267D01*
G37*
G36*
X110467Y113848D02*Y109848D01*
X115067D01*
Y113848D01*
X110467D01*
G37*
G36*
X102267Y97748D02*Y93748D01*
X106867D01*
Y97748D01*
X102267D01*
G37*
G36*
Y89948D02*Y85948D01*
X106867D01*
Y89948D01*
X102267D01*
G37*
G36*
Y77748D02*Y73748D01*
X106867D01*
Y77748D01*
X102267D01*
G37*
G36*
Y69948D02*Y65948D01*
X106867D01*
Y69948D01*
X102267D01*
G37*
G36*
X110467Y93848D02*Y89848D01*
X115067D01*
Y93848D01*
X110467D01*
G37*
G36*
Y73848D02*Y69848D01*
X115067D01*
Y73848D01*
X110467D01*
G37*
G36*
Y53848D02*Y49848D01*
X115067D01*
Y53848D01*
X110467D01*
G37*
G36*
X116277Y85425D02*X113709D01*
Y82071D01*
X116277D01*
Y85425D01*
G37*
G36*
Y65425D02*X113709D01*
Y62071D01*
X116277D01*
Y65425D01*
G37*
G36*
Y45425D02*X113709D01*
Y42071D01*
X116277D01*
Y45425D01*
G37*
G36*
X102267Y57748D02*Y53748D01*
X106867D01*
Y57748D01*
X102267D01*
G37*
G36*
Y49948D02*Y45948D01*
X106867D01*
Y49948D01*
X102267D01*
G37*
G36*
Y37748D02*Y33748D01*
X106867D01*
Y37748D01*
X102267D01*
G37*
G36*
Y29948D02*Y25948D01*
X106867D01*
Y29948D01*
X102267D01*
G37*
G36*
X110467Y33848D02*Y29848D01*
X115067D01*
Y33848D01*
X110467D01*
G37*
G36*
X116277Y25425D02*X113709D01*
Y22071D01*
X116277D01*
Y25425D01*
G37*
G36*
Y105425D02*X113709D01*
Y102071D01*
X116277D01*
Y105425D01*
G37*
G36*
X102267Y209948D02*Y205948D01*
X106867D01*
Y209948D01*
X102267D01*
G37*
G36*
Y197748D02*Y193748D01*
X106867D01*
Y197748D01*
X102267D01*
G37*
G36*
Y189948D02*Y185948D01*
X106867D01*
Y189948D01*
X102267D01*
G37*
G36*
X99367Y210048D02*X95367D01*
Y205448D01*
X99367D01*
Y210048D01*
G37*
G36*
X110467Y213848D02*Y209848D01*
X115067D01*
Y213848D01*
X110467D01*
G37*
G36*
Y193848D02*Y189848D01*
X115067D01*
Y193848D01*
X110467D01*
G37*
G36*
Y173848D02*Y169848D01*
X115067D01*
Y173848D01*
X110467D01*
G37*
G36*
X116277Y185425D02*X113709D01*
Y182071D01*
X116277D01*
Y185425D01*
G37*
G36*
Y205425D02*X113709D01*
Y202071D01*
X116277D01*
Y205425D01*
G37*
G36*
X99367Y190048D02*X95367D01*
Y185448D01*
X99367D01*
Y190048D01*
G37*
G36*
X95467Y198248D02*X91467D01*
Y193648D01*
X95467D01*
Y198248D01*
G37*
G36*
X99367Y170048D02*X95367D01*
Y165448D01*
X99367D01*
Y170048D01*
G37*
G36*
X95467Y178248D02*X91467D01*
Y173648D01*
X95467D01*
Y178248D01*
G37*
G36*
X116277Y125425D02*X113709D01*
Y122071D01*
X116277D01*
Y125425D01*
G37*
G36*
X99367Y110048D02*X95367D01*
Y105448D01*
X99367D01*
Y110048D01*
G37*
G36*
X95467Y118248D02*X91467D01*
Y113648D01*
X95467D01*
Y118248D01*
G37*
G36*
X99367Y90048D02*X95367D01*
Y85448D01*
X99367D01*
Y90048D01*
G37*
G36*
X95467Y98248D02*X91467D01*
Y93648D01*
X95467D01*
Y98248D01*
G37*
G36*
X99367Y70048D02*X95367D01*
Y65448D01*
X99367D01*
Y70048D01*
G37*
G36*
X95467Y78248D02*X91467D01*
Y73648D01*
X95467D01*
Y78248D01*
G37*
G36*
X99367Y50048D02*X95367D01*
Y45448D01*
X99367D01*
Y50048D01*
G37*
G36*
X95467Y58248D02*X91467D01*
Y53648D01*
X95467D01*
Y58248D01*
G37*
G36*
X99367Y30048D02*X95367D01*
Y25448D01*
X99367D01*
Y30048D01*
G37*
G36*
X95467Y38248D02*X91467D01*
Y33648D01*
X95467D01*
Y38248D01*
G37*
G36*
X102267Y137748D02*Y133748D01*
X106867D01*
Y137748D01*
X102267D01*
G37*
G36*
X110467Y133848D02*Y129848D01*
X115067D01*
Y133848D01*
X110467D01*
G37*
G36*
X116277Y145425D02*X113709D01*
Y142071D01*
X116277D01*
Y145425D01*
G37*
G36*
X102267Y129948D02*Y125948D01*
X106867D01*
Y129948D01*
X102267D01*
G37*
G36*
X99367Y130048D02*X95367D01*
Y125448D01*
X99367D01*
Y130048D01*
G37*
G36*
X95467Y138248D02*X91467D01*
Y133648D01*
X95467D01*
Y138248D01*
G37*
G36*
X126567Y230048D02*X122567D01*
Y225448D01*
X126567D01*
Y230048D01*
G37*
G36*
Y210048D02*X122567D01*
Y205448D01*
X126567D01*
Y210048D01*
G37*
G36*
X130467Y218248D02*X126467D01*
Y213648D01*
X130467D01*
Y218248D01*
G37*
G36*
X134367Y230048D02*X130367D01*
Y225448D01*
X134367D01*
Y230048D01*
G37*
G36*
Y210048D02*X130367D01*
Y205448D01*
X134367D01*
Y210048D01*
G37*
G36*
Y190048D02*X130367D01*
Y185448D01*
X134367D01*
Y190048D01*
G37*
G36*
Y170048D02*X130367D01*
Y165448D01*
X134367D01*
Y170048D01*
G37*
G36*
X130467Y238248D02*X126467D01*
Y233648D01*
X130467D01*
Y238248D01*
G37*
G36*
X126567Y190048D02*X122567D01*
Y185448D01*
X126567D01*
Y190048D01*
G37*
G36*
X130467Y198248D02*X126467D01*
Y193648D01*
X130467D01*
Y198248D01*
G37*
G36*
X126567Y170048D02*X122567D01*
Y165448D01*
X126567D01*
Y170048D01*
G37*
G36*
X130467Y178248D02*X126467D01*
Y173648D01*
X130467D01*
Y178248D01*
G37*
G36*
X126567Y150048D02*X122567D01*
Y145448D01*
X126567D01*
Y150048D01*
G37*
G36*
X130467Y158248D02*X126467D01*
Y153648D01*
X130467D01*
Y158248D01*
G37*
G36*
X126567Y130048D02*X122567D01*
Y125448D01*
X126567D01*
Y130048D01*
G37*
G36*
X130467Y138248D02*X126467D01*
Y133648D01*
X130467D01*
Y138248D01*
G37*
G36*
X134367Y150048D02*X130367D01*
Y145448D01*
X134367D01*
Y150048D01*
G37*
G36*
Y130048D02*X130367D01*
Y125448D01*
X134367D01*
Y130048D01*
G37*
G36*
Y110048D02*X130367D01*
Y105448D01*
X134367D01*
Y110048D01*
G37*
G36*
X126567D02*X122567D01*
Y105448D01*
X126567D01*
Y110048D01*
G37*
G36*
X130467Y118248D02*X126467D01*
Y113648D01*
X130467D01*
Y118248D01*
G37*
G36*
X126567Y90048D02*X122567D01*
Y85448D01*
X126567D01*
Y90048D01*
G37*
G36*
X82017Y276798D02*X79917D01*
Y272698D01*
X82017D01*
Y276798D01*
G37*
G36*
Y269798D02*X79917D01*
Y265698D01*
X82017D01*
Y269798D01*
G37*
G36*
Y256798D02*X79917D01*
Y252698D01*
X82017D01*
Y256798D01*
G37*
G36*
Y249798D02*X79917D01*
Y245698D01*
X82017D01*
Y249798D01*
G37*
G36*
X79517Y276798D02*X77417D01*
Y272698D01*
X79517D01*
Y276798D01*
G37*
G36*
Y269798D02*X77417D01*
Y265698D01*
X79517D01*
Y269798D01*
G37*
G36*
Y256798D02*X77417D01*
Y252698D01*
X79517D01*
Y256798D01*
G37*
G36*
Y249798D02*X77417D01*
Y245698D01*
X79517D01*
Y249798D01*
G37*
G36*
X84617Y276798D02*X82517D01*
Y272698D01*
X84617D01*
Y276798D01*
G37*
G36*
Y269798D02*X82517D01*
Y265698D01*
X84617D01*
Y269798D01*
G37*
G36*
Y256798D02*X82517D01*
Y252698D01*
X84617D01*
Y256798D01*
G37*
G36*
Y249798D02*X82517D01*
Y245698D01*
X84617D01*
Y249798D01*
G37*
G36*
X91567Y270048D02*X87567D01*
Y265448D01*
X91567D01*
Y270048D01*
G37*
G36*
Y250048D02*X87567D01*
Y245448D01*
X91567D01*
Y250048D01*
G37*
G36*
Y230048D02*X87567D01*
Y225448D01*
X91567D01*
Y230048D01*
G37*
G36*
X84617Y236798D02*X82517D01*
Y232698D01*
X84617D01*
Y236798D01*
G37*
G36*
Y229798D02*X82517D01*
Y225698D01*
X84617D01*
Y229798D01*
G37*
G36*
Y216798D02*X82517D01*
Y212698D01*
X84617D01*
Y216798D01*
G37*
G36*
X82017Y236798D02*X79917D01*
Y232698D01*
X82017D01*
Y236798D01*
G37*
G36*
Y229798D02*X79917D01*
Y225698D01*
X82017D01*
Y229798D01*
G37*
G36*
Y216798D02*X79917D01*
Y212698D01*
X82017D01*
Y216798D01*
G37*
G36*
Y209798D02*X79917D01*
Y205698D01*
X82017D01*
Y209798D01*
G37*
G36*
Y196798D02*X79917D01*
Y192698D01*
X82017D01*
Y196798D01*
G37*
G36*
Y189798D02*X79917D01*
Y185698D01*
X82017D01*
Y189798D01*
G37*
G36*
X79517Y236798D02*X77417D01*
Y232698D01*
X79517D01*
Y236798D01*
G37*
G36*
Y229798D02*X77417D01*
Y225698D01*
X79517D01*
Y229798D01*
G37*
G36*
Y216798D02*X77417D01*
Y212698D01*
X79517D01*
Y216798D01*
G37*
G36*
Y209798D02*X77417D01*
Y205698D01*
X79517D01*
Y209798D01*
G37*
G36*
Y196798D02*X77417D01*
Y192698D01*
X79517D01*
Y196798D01*
G37*
G36*
Y189798D02*X77417D01*
Y185698D01*
X79517D01*
Y189798D01*
G37*
G36*
X72890Y238606D02*Y236038D01*
X76244D01*
Y238606D01*
X72890D01*
G37*
G36*
Y235458D02*Y232890D01*
X76244D01*
Y235458D01*
X72890D01*
G37*
G36*
Y218606D02*Y216038D01*
X76244D01*
Y218606D01*
X72890D01*
G37*
G36*
Y215458D02*Y212890D01*
X76244D01*
Y215458D01*
X72890D01*
G37*
G36*
X70445Y232717D02*X67689D01*
Y228780D01*
X70445D01*
Y232717D01*
G37*
G36*
Y239409D02*X67689D01*
Y235472D01*
X70445D01*
Y239409D01*
G37*
G36*
Y212717D02*X67689D01*
Y208780D01*
X70445D01*
Y212717D01*
G37*
G36*
Y219409D02*X67689D01*
Y215472D01*
X70445D01*
Y219409D01*
G37*
G36*
Y192717D02*X67689D01*
Y188780D01*
X70445D01*
Y192717D01*
G37*
G36*
Y199409D02*X67689D01*
Y195472D01*
X70445D01*
Y199409D01*
G37*
G36*
X84617Y209798D02*X82517D01*
Y205698D01*
X84617D01*
Y209798D01*
G37*
G36*
Y196798D02*X82517D01*
Y192698D01*
X84617D01*
Y196798D01*
G37*
G36*
Y189798D02*X82517D01*
Y185698D01*
X84617D01*
Y189798D01*
G37*
G36*
X72890Y198606D02*Y196038D01*
X76244D01*
Y198606D01*
X72890D01*
G37*
G36*
Y195458D02*Y192890D01*
X76244D01*
Y195458D01*
X72890D01*
G37*
G36*
Y178606D02*Y176038D01*
X76244D01*
Y178606D01*
X72890D01*
G37*
G36*
Y175458D02*Y172890D01*
X76244D01*
Y175458D01*
X72890D01*
G37*
G36*
X91567Y210048D02*X87567D01*
Y205448D01*
X91567D01*
Y210048D01*
G37*
G36*
Y190048D02*X87567D01*
Y185448D01*
X91567D01*
Y190048D01*
G37*
G36*
Y170048D02*X87567D01*
Y165448D01*
X91567D01*
Y170048D01*
G37*
G36*
Y150048D02*X87567D01*
Y145448D01*
X91567D01*
Y150048D01*
G37*
G36*
Y130048D02*X87567D01*
Y125448D01*
X91567D01*
Y130048D01*
G37*
G36*
Y110048D02*X87567D01*
Y105448D01*
X91567D01*
Y110048D01*
G37*
G36*
Y90048D02*X87567D01*
Y85448D01*
X91567D01*
Y90048D01*
G37*
G36*
Y70048D02*X87567D01*
Y65448D01*
X91567D01*
Y70048D01*
G37*
G36*
Y50048D02*X87567D01*
Y45448D01*
X91567D01*
Y50048D01*
G37*
G36*
Y30048D02*X87567D01*
Y25448D01*
X91567D01*
Y30048D01*
G37*
G36*
X82017Y176798D02*X79917D01*
Y172698D01*
X82017D01*
Y176798D01*
G37*
G36*
Y169798D02*X79917D01*
Y165698D01*
X82017D01*
Y169798D01*
G37*
G36*
Y156798D02*X79917D01*
Y152698D01*
X82017D01*
Y156798D01*
G37*
G36*
Y149798D02*X79917D01*
Y145698D01*
X82017D01*
Y149798D01*
G37*
G36*
X79517Y176798D02*X77417D01*
Y172698D01*
X79517D01*
Y176798D01*
G37*
G36*
Y169798D02*X77417D01*
Y165698D01*
X79517D01*
Y169798D01*
G37*
G36*
Y156798D02*X77417D01*
Y152698D01*
X79517D01*
Y156798D01*
G37*
G36*
Y149798D02*X77417D01*
Y145698D01*
X79517D01*
Y149798D01*
G37*
G36*
X84617Y176798D02*X82517D01*
Y172698D01*
X84617D01*
Y176798D01*
G37*
G36*
Y169798D02*X82517D01*
Y165698D01*
X84617D01*
Y169798D01*
G37*
G36*
Y156798D02*X82517D01*
Y152698D01*
X84617D01*
Y156798D01*
G37*
G36*
Y149798D02*X82517D01*
Y145698D01*
X84617D01*
Y149798D01*
G37*
G36*
X72890Y158606D02*Y156038D01*
X76244D01*
Y158606D01*
X72890D01*
G37*
G36*
X70445Y172717D02*X67689D01*
Y168780D01*
X70445D01*
Y172717D01*
G37*
G36*
Y179409D02*X67689D01*
Y175472D01*
X70445D01*
Y179409D01*
G37*
G36*
Y159409D02*X67689D01*
Y155472D01*
X70445D01*
Y159409D01*
G37*
G36*
X72890Y155458D02*Y152890D01*
X76244D01*
Y155458D01*
X72890D01*
G37*
G36*
X70445Y152717D02*X67689D01*
Y148780D01*
X70445D01*
Y152717D01*
G37*
G36*
X72890Y138606D02*Y136038D01*
X76244D01*
Y138606D01*
X72890D01*
G37*
G36*
Y135458D02*Y132890D01*
X76244D01*
Y135458D01*
X72890D01*
G37*
G36*
X70445Y132717D02*X67689D01*
Y128780D01*
X70445D01*
Y132717D01*
G37*
G36*
Y139409D02*X67689D01*
Y135472D01*
X70445D01*
Y139409D01*
G37*
G36*
X84617Y136798D02*X82517D01*
Y132698D01*
X84617D01*
Y136798D01*
G37*
G36*
Y129798D02*X82517D01*
Y125698D01*
X84617D01*
Y129798D01*
G37*
G36*
Y116798D02*X82517D01*
Y112698D01*
X84617D01*
Y116798D01*
G37*
G36*
X82017Y136798D02*X79917D01*
Y132698D01*
X82017D01*
Y136798D01*
G37*
G36*
Y129798D02*X79917D01*
Y125698D01*
X82017D01*
Y129798D01*
G37*
G36*
Y116798D02*X79917D01*
Y112698D01*
X82017D01*
Y116798D01*
G37*
G36*
Y109798D02*X79917D01*
Y105698D01*
X82017D01*
Y109798D01*
G37*
G36*
Y96798D02*X79917D01*
Y92698D01*
X82017D01*
Y96798D01*
G37*
G36*
Y89798D02*X79917D01*
Y85698D01*
X82017D01*
Y89798D01*
G37*
G36*
X79517Y136798D02*X77417D01*
Y132698D01*
X79517D01*
Y136798D01*
G37*
G36*
Y129798D02*X77417D01*
Y125698D01*
X79517D01*
Y129798D01*
G37*
G36*
Y116798D02*X77417D01*
Y112698D01*
X79517D01*
Y116798D01*
G37*
G36*
Y109798D02*X77417D01*
Y105698D01*
X79517D01*
Y109798D01*
G37*
G36*
Y96798D02*X77417D01*
Y92698D01*
X79517D01*
Y96798D01*
G37*
G36*
Y89798D02*X77417D01*
Y85698D01*
X79517D01*
Y89798D01*
G37*
G36*
X72890Y118606D02*Y116038D01*
X76244D01*
Y118606D01*
X72890D01*
G37*
G36*
X70445Y112717D02*X67689D01*
Y108780D01*
X70445D01*
Y112717D01*
G37*
G36*
Y119409D02*X67689D01*
Y115472D01*
X70445D01*
Y119409D01*
G37*
G36*
X10567Y112748D02*Y109748D01*
X20067D01*
Y112748D01*
X10567D01*
G37*
G36*
X31067D02*Y109748D01*
X40567D01*
Y112748D01*
X31067D01*
G37*
G36*
X10567Y107748D02*Y104748D01*
X20067D01*
Y107748D01*
X10567D01*
G37*
G36*
X31067D02*Y104748D01*
X40567D01*
Y107748D01*
X31067D01*
G37*
G36*
X10567Y102748D02*Y99748D01*
X20067D01*
Y102748D01*
X10567D01*
G37*
G36*
X31067D02*Y99748D01*
X40567D01*
Y102748D01*
X31067D01*
G37*
G36*
X10567Y97748D02*Y94748D01*
X20067D01*
Y97748D01*
X10567D01*
G37*
G36*
X31067D02*Y94748D01*
X40567D01*
Y97748D01*
X31067D01*
G37*
G36*
X10567Y92748D02*Y89748D01*
X20067D01*
Y92748D01*
X10567D01*
G37*
G36*
X31067D02*Y89748D01*
X40567D01*
Y92748D01*
X31067D01*
G37*
G36*
X10567Y87748D02*Y84748D01*
X20067D01*
Y87748D01*
X10567D01*
G37*
G36*
X31067D02*Y84748D01*
X40567D01*
Y87748D01*
X31067D01*
G37*
G36*
X10567Y165748D02*Y162748D01*
X20067D01*
Y165748D01*
X10567D01*
G37*
G36*
Y160748D02*Y157748D01*
X20067D01*
Y160748D01*
X10567D01*
G37*
G36*
Y155748D02*Y152748D01*
X20067D01*
Y155748D01*
X10567D01*
G37*
G36*
Y150748D02*Y147748D01*
X20067D01*
Y150748D01*
X10567D01*
G37*
G36*
Y145748D02*Y142748D01*
X20067D01*
Y145748D01*
X10567D01*
G37*
G36*
X17784Y178016D02*X14232D01*
Y173480D01*
X17784D01*
Y178016D01*
G37*
G36*
X10567Y140748D02*Y137748D01*
X20067D01*
Y140748D01*
X10567D01*
G37*
G36*
Y135748D02*Y132748D01*
X20067D01*
Y135748D01*
X10567D01*
G37*
G36*
Y130748D02*Y127748D01*
X20067D01*
Y130748D01*
X10567D01*
G37*
G36*
X17784Y125016D02*X14232D01*
Y120480D01*
X17784D01*
Y125016D01*
G37*
G36*
X22902D02*X19350D01*
Y120480D01*
X22902D01*
Y125016D01*
G37*
G36*
X30784D02*X27232D01*
Y120480D01*
X30784D01*
Y125016D01*
G37*
G36*
X22902Y178016D02*X19350D01*
Y173480D01*
X22902D01*
Y178016D01*
G37*
G36*
X30843D02*X27291D01*
Y173480D01*
X30843D01*
Y178016D01*
G37*
G36*
X31067Y130748D02*Y127748D01*
X40567D01*
Y130748D01*
X31067D01*
G37*
G36*
Y135748D02*Y132748D01*
X40567D01*
Y135748D01*
X31067D01*
G37*
G36*
Y140748D02*Y137748D01*
X40567D01*
Y140748D01*
X31067D01*
G37*
G36*
Y145748D02*Y142748D01*
X40567D01*
Y145748D01*
X31067D01*
G37*
G36*
Y150748D02*Y147748D01*
X40567D01*
Y150748D01*
X31067D01*
G37*
G36*
Y155748D02*Y152748D01*
X40567D01*
Y155748D01*
X31067D01*
G37*
G36*
Y160748D02*Y157748D01*
X40567D01*
Y160748D01*
X31067D01*
G37*
G36*
Y165748D02*Y162748D01*
X40567D01*
Y165748D01*
X31067D01*
G37*
G36*
X35902Y125016D02*X32350D01*
Y120480D01*
X35902D01*
Y125016D01*
G37*
G36*
X35961Y178016D02*X32409D01*
Y173480D01*
X35961D01*
Y178016D01*
G37*
G36*
X82017Y76798D02*X79917D01*
Y72698D01*
X82017D01*
Y76798D01*
G37*
G36*
Y69798D02*X79917D01*
Y65698D01*
X82017D01*
Y69798D01*
G37*
G36*
Y56798D02*X79917D01*
Y52698D01*
X82017D01*
Y56798D01*
G37*
G36*
Y49798D02*X79917D01*
Y45698D01*
X82017D01*
Y49798D01*
G37*
G36*
X79517Y76798D02*X77417D01*
Y72698D01*
X79517D01*
Y76798D01*
G37*
G36*
Y69798D02*X77417D01*
Y65698D01*
X79517D01*
Y69798D01*
G37*
G36*
X84617Y76798D02*X82517D01*
Y72698D01*
X84617D01*
Y76798D01*
G37*
G36*
Y69798D02*X82517D01*
Y65698D01*
X84617D01*
Y69798D01*
G37*
G36*
Y56798D02*X82517D01*
Y52698D01*
X84617D01*
Y56798D01*
G37*
G36*
Y49798D02*X82517D01*
Y45698D01*
X84617D01*
Y49798D01*
G37*
G36*
Y109798D02*X82517D01*
Y105698D01*
X84617D01*
Y109798D01*
G37*
G36*
Y96798D02*X82517D01*
Y92698D01*
X84617D01*
Y96798D01*
G37*
G36*
Y89798D02*X82517D01*
Y85698D01*
X84617D01*
Y89798D01*
G37*
G36*
X72890Y115458D02*Y112890D01*
X76244D01*
Y115458D01*
X72890D01*
G37*
G36*
Y98606D02*Y96038D01*
X76244D01*
Y98606D01*
X72890D01*
G37*
G36*
Y95458D02*Y92890D01*
X76244D01*
Y95458D01*
X72890D01*
G37*
G36*
Y78606D02*Y76038D01*
X76244D01*
Y78606D01*
X72890D01*
G37*
G36*
Y75458D02*Y72890D01*
X76244D01*
Y75458D01*
X72890D01*
G37*
G36*
X70445Y92717D02*X67689D01*
Y88780D01*
X70445D01*
Y92717D01*
G37*
G36*
Y99409D02*X67689D01*
Y95472D01*
X70445D01*
Y99409D01*
G37*
G36*
Y72717D02*X67689D01*
Y68780D01*
X70445D01*
Y72717D01*
G37*
G36*
Y79409D02*X67689D01*
Y75472D01*
X70445D01*
Y79409D01*
G37*
G36*
X84617Y36798D02*X82517D01*
Y32698D01*
X84617D01*
Y36798D01*
G37*
G36*
Y29798D02*X82517D01*
Y25698D01*
X84617D01*
Y29798D01*
G37*
G36*
X82017Y36798D02*X79917D01*
Y32698D01*
X82017D01*
Y36798D01*
G37*
G36*
Y29798D02*X79917D01*
Y25698D01*
X82017D01*
Y29798D01*
G37*
G36*
X79517Y36798D02*X77417D01*
Y32698D01*
X79517D01*
Y36798D01*
G37*
G36*
Y29798D02*X77417D01*
Y25698D01*
X79517D01*
Y29798D01*
G37*
G36*
X72890Y38606D02*Y36038D01*
X76244D01*
Y38606D01*
X72890D01*
G37*
G36*
Y35458D02*Y32890D01*
X76244D01*
Y35458D01*
X72890D01*
G37*
G36*
X79517Y56798D02*X77417D01*
Y52698D01*
X79517D01*
Y56798D01*
G37*
G36*
Y49798D02*X77417D01*
Y45698D01*
X79517D01*
Y49798D01*
G37*
G36*
X72890Y58606D02*Y56038D01*
X76244D01*
Y58606D01*
X72890D01*
G37*
G36*
Y55458D02*Y52890D01*
X76244D01*
Y55458D01*
X72890D01*
G37*
G36*
X70445Y52717D02*X67689D01*
Y48780D01*
X70445D01*
Y52717D01*
G37*
G36*
Y59409D02*X67689D01*
Y55472D01*
X70445D01*
Y59409D01*
G37*
G36*
Y32717D02*X67689D01*
Y28780D01*
X70445D01*
Y32717D01*
G37*
G36*
Y39409D02*X67689D01*
Y35472D01*
X70445D01*
Y39409D01*
G37*
G36*
X10567Y59748D02*Y56748D01*
X20067D01*
Y59748D01*
X10567D01*
G37*
G36*
Y54748D02*Y51748D01*
X20067D01*
Y54748D01*
X10567D01*
G37*
G36*
X31067Y29748D02*Y26748D01*
X40567D01*
Y29748D01*
X31067D01*
G37*
G36*
Y34748D02*Y31748D01*
X40567D01*
Y34748D01*
X31067D01*
G37*
G36*
Y39748D02*Y36748D01*
X40567D01*
Y39748D01*
X31067D01*
G37*
G36*
Y44748D02*Y41748D01*
X40567D01*
Y44748D01*
X31067D01*
G37*
G36*
Y49748D02*Y46748D01*
X40567D01*
Y49748D01*
X31067D01*
G37*
G36*
Y54748D02*Y51748D01*
X40567D01*
Y54748D01*
X31067D01*
G37*
G36*
Y59748D02*Y56748D01*
X40567D01*
Y59748D01*
X31067D01*
G37*
G36*
X10567Y82748D02*Y79748D01*
X20067D01*
Y82748D01*
X10567D01*
G37*
G36*
Y77748D02*Y74748D01*
X20067D01*
Y77748D01*
X10567D01*
G37*
G36*
X31067D02*Y74748D01*
X40567D01*
Y77748D01*
X31067D01*
G37*
G36*
Y82748D02*Y79748D01*
X40567D01*
Y82748D01*
X31067D01*
G37*
G36*
X17784Y72016D02*X14232D01*
Y67480D01*
X17784D01*
Y72016D01*
G37*
G36*
X22902D02*X19350D01*
Y67480D01*
X22902D01*
Y72016D01*
G37*
G36*
X30784D02*X27232D01*
Y67480D01*
X30784D01*
Y72016D01*
G37*
G36*
X35902D02*X32350D01*
Y67480D01*
X35902D01*
Y72016D01*
G37*
G36*
X10567Y29748D02*Y26748D01*
X20067D01*
Y29748D01*
X10567D01*
G37*
G36*
Y24748D02*Y21748D01*
X20067D01*
Y24748D01*
X10567D01*
G37*
G36*
X31067D02*Y21748D01*
X40567D01*
Y24748D01*
X31067D01*
G37*
G36*
X10567Y49748D02*Y46748D01*
X20067D01*
Y49748D01*
X10567D01*
G37*
G36*
Y44748D02*Y41748D01*
X20067D01*
Y44748D01*
X10567D01*
G37*
G36*
Y39748D02*Y36748D01*
X20067D01*
Y39748D01*
X10567D01*
G37*
G36*
Y34748D02*Y31748D01*
X20067D01*
Y34748D01*
X10567D01*
G37*
G36*
X17784Y19016D02*X14232D01*
Y14480D01*
X17784D01*
Y19016D01*
G37*
G36*
X22902D02*X19350D01*
Y14480D01*
X22902D01*
Y19016D01*
G37*
G36*
X30843D02*X27291D01*
Y14480D01*
X30843D01*
Y19016D01*
G37*
G36*
X35961D02*X32409D01*
Y14480D01*
X35961D01*
Y19016D01*
G37*
G36*
X84617Y436798D02*X82517D01*
Y432698D01*
X84617D01*
Y436798D01*
G37*
G36*
Y429798D02*X82517D01*
Y425698D01*
X84617D01*
Y429798D01*
G37*
G36*
Y416798D02*X82517D01*
Y412698D01*
X84617D01*
Y416798D01*
G37*
G36*
X82017Y436798D02*X79917D01*
Y432698D01*
X82017D01*
Y436798D01*
G37*
G36*
Y429798D02*X79917D01*
Y425698D01*
X82017D01*
Y429798D01*
G37*
G36*
Y416798D02*X79917D01*
Y412698D01*
X82017D01*
Y416798D01*
G37*
G36*
Y409798D02*X79917D01*
Y405698D01*
X82017D01*
Y409798D01*
G37*
G36*
Y396798D02*X79917D01*
Y392698D01*
X82017D01*
Y396798D01*
G37*
G36*
Y389798D02*X79917D01*
Y385698D01*
X82017D01*
Y389798D01*
G37*
G36*
X79517Y436798D02*X77417D01*
Y432698D01*
X79517D01*
Y436798D01*
G37*
G36*
Y429798D02*X77417D01*
Y425698D01*
X79517D01*
Y429798D01*
G37*
G36*
Y416798D02*X77417D01*
Y412698D01*
X79517D01*
Y416798D01*
G37*
G36*
Y409798D02*X77417D01*
Y405698D01*
X79517D01*
Y409798D01*
G37*
G36*
Y396798D02*X77417D01*
Y392698D01*
X79517D01*
Y396798D01*
G37*
G36*
Y389798D02*X77417D01*
Y385698D01*
X79517D01*
Y389798D01*
G37*
G36*
X72890Y418606D02*Y416038D01*
X76244D01*
Y418606D01*
X72890D01*
G37*
G36*
X70445Y412717D02*X67689D01*
Y408780D01*
X70445D01*
Y412717D01*
G37*
G36*
Y419409D02*X67689D01*
Y415472D01*
X70445D01*
Y419409D01*
G37*
G36*
X82017Y376798D02*X79917D01*
Y372698D01*
X82017D01*
Y376798D01*
G37*
G36*
Y369798D02*X79917D01*
Y365698D01*
X82017D01*
Y369798D01*
G37*
G36*
Y356798D02*X79917D01*
Y352698D01*
X82017D01*
Y356798D01*
G37*
G36*
Y349798D02*X79917D01*
Y345698D01*
X82017D01*
Y349798D01*
G37*
G36*
X79517Y376798D02*X77417D01*
Y372698D01*
X79517D01*
Y376798D01*
G37*
G36*
Y369798D02*X77417D01*
Y365698D01*
X79517D01*
Y369798D01*
G37*
G36*
Y356798D02*X77417D01*
Y352698D01*
X79517D01*
Y356798D01*
G37*
G36*
Y349798D02*X77417D01*
Y345698D01*
X79517D01*
Y349798D01*
G37*
G36*
X84617Y376798D02*X82517D01*
Y372698D01*
X84617D01*
Y376798D01*
G37*
G36*
Y369798D02*X82517D01*
Y365698D01*
X84617D01*
Y369798D01*
G37*
G36*
Y356798D02*X82517D01*
Y352698D01*
X84617D01*
Y356798D01*
G37*
G36*
Y349798D02*X82517D01*
Y345698D01*
X84617D01*
Y349798D01*
G37*
G36*
X72890Y358606D02*Y356038D01*
X76244D01*
Y358606D01*
X72890D01*
G37*
G36*
X70445Y359409D02*X67689D01*
Y355472D01*
X70445D01*
Y359409D01*
G37*
G36*
X72890Y355458D02*Y352890D01*
X76244D01*
Y355458D01*
X72890D01*
G37*
G36*
X70445Y352717D02*X67689D01*
Y348780D01*
X70445D01*
Y352717D01*
G37*
G36*
X72890Y338606D02*Y336038D01*
X76244D01*
Y338606D01*
X72890D01*
G37*
G36*
Y335458D02*Y332890D01*
X76244D01*
Y335458D01*
X72890D01*
G37*
G36*
X70445Y332717D02*X67689D01*
Y328780D01*
X70445D01*
Y332717D01*
G37*
G36*
Y339409D02*X67689D01*
Y335472D01*
X70445D01*
Y339409D01*
G37*
G36*
X84617Y336798D02*X82517D01*
Y332698D01*
X84617D01*
Y336798D01*
G37*
G36*
Y329798D02*X82517D01*
Y325698D01*
X84617D01*
Y329798D01*
G37*
G36*
Y316798D02*X82517D01*
Y312698D01*
X84617D01*
Y316798D01*
G37*
G36*
X82017Y336798D02*X79917D01*
Y332698D01*
X82017D01*
Y336798D01*
G37*
G36*
Y329798D02*X79917D01*
Y325698D01*
X82017D01*
Y329798D01*
G37*
G36*
Y316798D02*X79917D01*
Y312698D01*
X82017D01*
Y316798D01*
G37*
G36*
Y309798D02*X79917D01*
Y305698D01*
X82017D01*
Y309798D01*
G37*
G36*
Y296798D02*X79917D01*
Y292698D01*
X82017D01*
Y296798D01*
G37*
G36*
Y289798D02*X79917D01*
Y285698D01*
X82017D01*
Y289798D01*
G37*
G36*
X79517Y336798D02*X77417D01*
Y332698D01*
X79517D01*
Y336798D01*
G37*
G36*
Y329798D02*X77417D01*
Y325698D01*
X79517D01*
Y329798D01*
G37*
G36*
Y316798D02*X77417D01*
Y312698D01*
X79517D01*
Y316798D01*
G37*
G36*
Y309798D02*X77417D01*
Y305698D01*
X79517D01*
Y309798D01*
G37*
G36*
Y296798D02*X77417D01*
Y292698D01*
X79517D01*
Y296798D01*
G37*
G36*
Y289798D02*X77417D01*
Y285698D01*
X79517D01*
Y289798D01*
G37*
G36*
X72890Y318606D02*Y316038D01*
X76244D01*
Y318606D01*
X72890D01*
G37*
G36*
Y315458D02*Y312890D01*
X76244D01*
Y315458D01*
X72890D01*
G37*
G36*
Y298606D02*Y296038D01*
X76244D01*
Y298606D01*
X72890D01*
G37*
G36*
Y295458D02*Y292890D01*
X76244D01*
Y295458D01*
X72890D01*
G37*
G36*
X70445Y312717D02*X67689D01*
Y308780D01*
X70445D01*
Y312717D01*
G37*
G36*
Y319409D02*X67689D01*
Y315472D01*
X70445D01*
Y319409D01*
G37*
G36*
Y292717D02*X67689D01*
Y288780D01*
X70445D01*
Y292717D01*
G37*
G36*
Y299409D02*X67689D01*
Y295472D01*
X70445D01*
Y299409D01*
G37*
G36*
X84617Y309798D02*X82517D01*
Y305698D01*
X84617D01*
Y309798D01*
G37*
G36*
Y296798D02*X82517D01*
Y292698D01*
X84617D01*
Y296798D01*
G37*
G36*
Y289798D02*X82517D01*
Y285698D01*
X84617D01*
Y289798D01*
G37*
G36*
X72890Y278606D02*Y276038D01*
X76244D01*
Y278606D01*
X72890D01*
G37*
G36*
Y275458D02*Y272890D01*
X76244D01*
Y275458D01*
X72890D01*
G37*
G36*
Y258606D02*Y256038D01*
X76244D01*
Y258606D01*
X72890D01*
G37*
G36*
Y255458D02*Y252890D01*
X76244D01*
Y255458D01*
X72890D01*
G37*
G36*
X70445Y272717D02*X67689D01*
Y268780D01*
X70445D01*
Y272717D01*
G37*
G36*
Y279409D02*X67689D01*
Y275472D01*
X70445D01*
Y279409D01*
G37*
G36*
Y252717D02*X67689D01*
Y248780D01*
X70445D01*
Y252717D01*
G37*
G36*
Y259409D02*X67689D01*
Y255472D01*
X70445D01*
Y259409D01*
G37*
G36*
X84617Y409798D02*X82517D01*
Y405698D01*
X84617D01*
Y409798D01*
G37*
G36*
Y396798D02*X82517D01*
Y392698D01*
X84617D01*
Y396798D01*
G37*
G36*
Y389798D02*X82517D01*
Y385698D01*
X84617D01*
Y389798D01*
G37*
G36*
X72890Y415458D02*Y412890D01*
X76244D01*
Y415458D01*
X72890D01*
G37*
G36*
Y398606D02*Y396038D01*
X76244D01*
Y398606D01*
X72890D01*
G37*
G36*
Y395458D02*Y392890D01*
X76244D01*
Y395458D01*
X72890D01*
G37*
G36*
Y378606D02*Y376038D01*
X76244D01*
Y378606D01*
X72890D01*
G37*
G36*
Y375458D02*Y372890D01*
X76244D01*
Y375458D01*
X72890D01*
G37*
G36*
X70445Y392717D02*X67689D01*
Y388780D01*
X70445D01*
Y392717D01*
G37*
G36*
Y399409D02*X67689D01*
Y395472D01*
X70445D01*
Y399409D01*
G37*
G36*
Y372717D02*X67689D01*
Y368780D01*
X70445D01*
Y372717D01*
G37*
G36*
Y379409D02*X67689D01*
Y375472D01*
X70445D01*
Y379409D01*
G37*
G36*
X55317Y356798D02*X51817D01*
Y352698D01*
X55317D01*
Y356798D01*
G37*
G36*
Y336798D02*X51817D01*
Y332698D01*
X55317D01*
Y336798D01*
G37*
G36*
Y316798D02*X51817D01*
Y312698D01*
X55317D01*
Y316798D01*
G37*
G36*
Y296798D02*X51817D01*
Y292698D01*
X55317D01*
Y296798D01*
G37*
G36*
X50217Y356798D02*X46717D01*
Y352698D01*
X50217D01*
Y356798D01*
G37*
G36*
X52717Y349798D02*X49217D01*
Y345698D01*
X52717D01*
Y349798D01*
G37*
G36*
X50217Y336798D02*X46717D01*
Y332698D01*
X50217D01*
Y336798D01*
G37*
G36*
X52717Y329798D02*X49217D01*
Y325698D01*
X52717D01*
Y329798D01*
G37*
G36*
X50217Y316798D02*X46717D01*
Y312698D01*
X50217D01*
Y316798D01*
G37*
G36*
X52717Y309798D02*X49217D01*
Y305698D01*
X52717D01*
Y309798D01*
G37*
G36*
X50217Y296798D02*X46717D01*
Y292698D01*
X50217D01*
Y296798D01*
G37*
G36*
X52717Y289798D02*X49217D01*
Y285698D01*
X52717D01*
Y289798D01*
G37*
G36*
X55317Y276798D02*X51817D01*
Y272698D01*
X55317D01*
Y276798D01*
G37*
G36*
Y256798D02*X51817D01*
Y252698D01*
X55317D01*
Y256798D01*
G37*
G36*
Y236798D02*X51817D01*
Y232698D01*
X55317D01*
Y236798D01*
G37*
G36*
Y216798D02*X51817D01*
Y212698D01*
X55317D01*
Y216798D01*
G37*
G36*
X50217Y276798D02*X46717D01*
Y272698D01*
X50217D01*
Y276798D01*
G37*
G36*
X52717Y269798D02*X49217D01*
Y265698D01*
X52717D01*
Y269798D01*
G37*
G36*
X50217Y256798D02*X46717D01*
Y252698D01*
X50217D01*
Y256798D01*
G37*
G36*
X52717Y249798D02*X49217D01*
Y245698D01*
X52717D01*
Y249798D01*
G37*
G36*
X50217Y236798D02*X46717D01*
Y232698D01*
X50217D01*
Y236798D01*
G37*
G36*
X52717Y229798D02*X49217D01*
Y225698D01*
X52717D01*
Y229798D01*
G37*
G36*
X50217Y216798D02*X46717D01*
Y212698D01*
X50217D01*
Y216798D01*
G37*
G36*
X52717Y209798D02*X49217D01*
Y205698D01*
X52717D01*
Y209798D01*
G37*
G36*
X55317Y196798D02*X51817D01*
Y192698D01*
X55317D01*
Y196798D01*
G37*
G36*
X50217D02*X46717D01*
Y192698D01*
X50217D01*
Y196798D01*
G37*
G36*
X52717Y189798D02*X49217D01*
Y185698D01*
X52717D01*
Y189798D01*
G37*
G36*
X55317Y176798D02*X51817D01*
Y172698D01*
X55317D01*
Y176798D01*
G37*
G36*
X50217D02*X46717D01*
Y172698D01*
X50217D01*
Y176798D01*
G37*
G36*
X52717Y169798D02*X49217D01*
Y165698D01*
X52717D01*
Y169798D01*
G37*
G36*
X55317Y156798D02*X51817D01*
Y152698D01*
X55317D01*
Y156798D01*
G37*
G36*
X50217D02*X46717D01*
Y152698D01*
X50217D01*
Y156798D01*
G37*
G36*
X52717Y149798D02*X49217D01*
Y145698D01*
X52717D01*
Y149798D01*
G37*
G36*
X55317Y136798D02*X51817D01*
Y132698D01*
X55317D01*
Y136798D01*
G37*
G36*
X50217D02*X46717D01*
Y132698D01*
X50217D01*
Y136798D01*
G37*
G36*
X52717Y129798D02*X49217D01*
Y125698D01*
X52717D01*
Y129798D01*
G37*
G36*
X55317Y116798D02*X51817D01*
Y112698D01*
X55317D01*
Y116798D01*
G37*
G36*
X50217D02*X46717D01*
Y112698D01*
X50217D01*
Y116798D01*
G37*
G36*
X52717Y109798D02*X49217D01*
Y105698D01*
X52717D01*
Y109798D01*
G37*
G36*
X55317Y96798D02*X51817D01*
Y92698D01*
X55317D01*
Y96798D01*
G37*
G36*
X50217D02*X46717D01*
Y92698D01*
X50217D01*
Y96798D01*
G37*
G36*
X52717Y89798D02*X49217D01*
Y85698D01*
X52717D01*
Y89798D01*
G37*
G36*
X55317Y76798D02*X51817D01*
Y72698D01*
X55317D01*
Y76798D01*
G37*
G36*
X50217D02*X46717D01*
Y72698D01*
X50217D01*
Y76798D01*
G37*
G36*
X52717Y69798D02*X49217D01*
Y65698D01*
X52717D01*
Y69798D01*
G37*
G36*
X55317Y56798D02*X51817D01*
Y52698D01*
X55317D01*
Y56798D01*
G37*
G36*
X50217D02*X46717D01*
Y52698D01*
X50217D01*
Y56798D01*
G37*
G36*
X52717Y49798D02*X49217D01*
Y45698D01*
X52717D01*
Y49798D01*
G37*
G36*
X55317Y36798D02*X51817D01*
Y32698D01*
X55317D01*
Y36798D01*
G37*
G36*
X50217D02*X46717D01*
Y32698D01*
X50217D01*
Y36798D01*
G37*
G36*
X52717Y29798D02*X49217D01*
Y25698D01*
X52717D01*
Y29798D01*
G37*
G36*
X62717Y309798D02*X59217D01*
Y305698D01*
X62717D01*
Y309798D01*
G37*
G36*
X65317Y296798D02*X61817D01*
Y292698D01*
X65317D01*
Y296798D01*
G37*
G36*
Y276798D02*X61817D01*
Y272698D01*
X65317D01*
Y276798D01*
G37*
G36*
Y256798D02*X61817D01*
Y252698D01*
X65317D01*
Y256798D01*
G37*
G36*
Y236798D02*X61817D01*
Y232698D01*
X65317D01*
Y236798D01*
G37*
G36*
X60217Y296798D02*X56717D01*
Y292698D01*
X60217D01*
Y296798D01*
G37*
G36*
X62717Y289798D02*X59217D01*
Y285698D01*
X62717D01*
Y289798D01*
G37*
G36*
X60217Y276798D02*X56717D01*
Y272698D01*
X60217D01*
Y276798D01*
G37*
G36*
X62717Y269798D02*X59217D01*
Y265698D01*
X62717D01*
Y269798D01*
G37*
G36*
X60217Y256798D02*X56717D01*
Y252698D01*
X60217D01*
Y256798D01*
G37*
G36*
X62717Y249798D02*X59217D01*
Y245698D01*
X62717D01*
Y249798D01*
G37*
G36*
X60217Y236798D02*X56717D01*
Y232698D01*
X60217D01*
Y236798D01*
G37*
G36*
X62717Y229798D02*X59217D01*
Y225698D01*
X62717D01*
Y229798D01*
G37*
G36*
X65317Y216798D02*X61817D01*
Y212698D01*
X65317D01*
Y216798D01*
G37*
G36*
X60217D02*X56717D01*
Y212698D01*
X60217D01*
Y216798D01*
G37*
G36*
X62717Y209798D02*X59217D01*
Y205698D01*
X62717D01*
Y209798D01*
G37*
G36*
X65317Y196798D02*X61817D01*
Y192698D01*
X65317D01*
Y196798D01*
G37*
G36*
X60217D02*X56717D01*
Y192698D01*
X60217D01*
Y196798D01*
G37*
G36*
X62717Y189798D02*X59217D01*
Y185698D01*
X62717D01*
Y189798D01*
G37*
G36*
X65317Y176798D02*X61817D01*
Y172698D01*
X65317D01*
Y176798D01*
G37*
G36*
X60217D02*X56717D01*
Y172698D01*
X60217D01*
Y176798D01*
G37*
G36*
X62717Y169798D02*X59217D01*
Y165698D01*
X62717D01*
Y169798D01*
G37*
G36*
X65317Y156798D02*X61817D01*
Y152698D01*
X65317D01*
Y156798D01*
G37*
G36*
X60217D02*X56717D01*
Y152698D01*
X60217D01*
Y156798D01*
G37*
G36*
X62717Y149798D02*X59217D01*
Y145698D01*
X62717D01*
Y149798D01*
G37*
G36*
X65317Y136798D02*X61817D01*
Y132698D01*
X65317D01*
Y136798D01*
G37*
G36*
X60217D02*X56717D01*
Y132698D01*
X60217D01*
Y136798D01*
G37*
G36*
X62717Y129798D02*X59217D01*
Y125698D01*
X62717D01*
Y129798D01*
G37*
G36*
X65317Y116798D02*X61817D01*
Y112698D01*
X65317D01*
Y116798D01*
G37*
G36*
X60217D02*X56717D01*
Y112698D01*
X60217D01*
Y116798D01*
G37*
G36*
X62717Y109798D02*X59217D01*
Y105698D01*
X62717D01*
Y109798D01*
G37*
G36*
X65317Y96798D02*X61817D01*
Y92698D01*
X65317D01*
Y96798D01*
G37*
G36*
X60217D02*X56717D01*
Y92698D01*
X60217D01*
Y96798D01*
G37*
G36*
X62717Y89798D02*X59217D01*
Y85698D01*
X62717D01*
Y89798D01*
G37*
G36*
X65317Y76798D02*X61817D01*
Y72698D01*
X65317D01*
Y76798D01*
G37*
G36*
X60217D02*X56717D01*
Y72698D01*
X60217D01*
Y76798D01*
G37*
G36*
X62717Y69798D02*X59217D01*
Y65698D01*
X62717D01*
Y69798D01*
G37*
G36*
X65317Y56798D02*X61817D01*
Y52698D01*
X65317D01*
Y56798D01*
G37*
G36*
X60217D02*X56717D01*
Y52698D01*
X60217D01*
Y56798D01*
G37*
G36*
X62717Y49798D02*X59217D01*
Y45698D01*
X62717D01*
Y49798D01*
G37*
G36*
X65317Y36798D02*X61817D01*
Y32698D01*
X65317D01*
Y36798D01*
G37*
G36*
X60217D02*X56717D01*
Y32698D01*
X60217D01*
Y36798D01*
G37*
G36*
X62717Y29798D02*X59217D01*
Y25698D01*
X62717D01*
Y29798D01*
G37*
G36*
X341567Y286048D02*X337567D01*
Y281448D01*
X341567D01*
Y286048D01*
G37*
G36*
Y266048D02*X337567D01*
Y261448D01*
X341567D01*
Y266048D01*
G37*
G36*
Y246048D02*X337567D01*
Y241448D01*
X341567D01*
Y246048D01*
G37*
G36*
Y226048D02*X337567D01*
Y221448D01*
X341567D01*
Y226048D01*
G37*
G36*
X333767Y286048D02*X329767D01*
Y281448D01*
X333767D01*
Y286048D01*
G37*
G36*
X312277Y269425D02*X309709D01*
Y266071D01*
X312277D01*
Y269425D01*
G37*
G36*
X315425D02*X312857D01*
Y266071D01*
X315425D01*
Y269425D01*
G37*
G36*
X337667Y277848D02*X333667D01*
Y273248D01*
X337667D01*
Y277848D01*
G37*
G36*
Y257848D02*X333667D01*
Y253248D01*
X337667D01*
Y257848D01*
G37*
G36*
Y237848D02*X333667D01*
Y233248D01*
X337667D01*
Y237848D01*
G37*
G36*
X312277Y289425D02*X309709D01*
Y286071D01*
X312277D01*
Y289425D01*
G37*
G36*
X315425D02*X312857D01*
Y286071D01*
X315425D01*
Y289425D01*
G37*
G36*
X367317Y238798D02*X363817D01*
Y234698D01*
X367317D01*
Y238798D01*
G37*
G36*
X372417D02*X368917D01*
Y234698D01*
X372417D01*
Y238798D01*
G37*
G36*
X369917Y245798D02*X366417D01*
Y241698D01*
X369917D01*
Y245798D01*
G37*
G36*
X361445Y242717D02*X358689D01*
Y238780D01*
X361445D01*
Y242717D01*
G37*
G36*
Y236024D02*X358689D01*
Y232087D01*
X361445D01*
Y236024D01*
G37*
G36*
X377317Y238798D02*X373817D01*
Y234698D01*
X377317D01*
Y238798D01*
G37*
G36*
X382417D02*X378917D01*
Y234698D01*
X382417D01*
Y238798D01*
G37*
G36*
X379917Y245798D02*X376417D01*
Y241698D01*
X379917D01*
Y245798D01*
G37*
G36*
X352890Y235458D02*Y232890D01*
X356244D01*
Y235458D01*
X352890D01*
G37*
G36*
Y238606D02*Y236038D01*
X356244D01*
Y238606D01*
X352890D01*
G37*
G36*
X346617Y238798D02*X344517D01*
Y234698D01*
X346617D01*
Y238798D01*
G37*
G36*
Y245798D02*X344517D01*
Y241698D01*
X346617D01*
Y245798D01*
G37*
G36*
Y225798D02*X344517D01*
Y221698D01*
X346617D01*
Y225798D01*
G37*
G36*
X349217Y238798D02*X347117D01*
Y234698D01*
X349217D01*
Y238798D01*
G37*
G36*
X351717D02*X349617D01*
Y234698D01*
X351717D01*
Y238798D01*
G37*
G36*
Y245798D02*X349617D01*
Y241698D01*
X351717D01*
Y245798D01*
G37*
G36*
X349217D02*X347117D01*
Y241698D01*
X349217D01*
Y245798D01*
G37*
G36*
X351717Y225798D02*X349617D01*
Y221698D01*
X351717D01*
Y225798D01*
G37*
G36*
X349217D02*X347117D01*
Y221698D01*
X349217D01*
Y225798D01*
G37*
G36*
X333767Y266048D02*X329767D01*
Y261448D01*
X333767D01*
Y266048D01*
G37*
G36*
Y246048D02*X329767D01*
Y241448D01*
X333767D01*
Y246048D01*
G37*
G36*
Y226048D02*X329767D01*
Y221448D01*
X333767D01*
Y226048D01*
G37*
G36*
X315425Y249425D02*X312857D01*
Y246071D01*
X315425D01*
Y249425D01*
G37*
G36*
X322267Y237748D02*Y233748D01*
X326867D01*
Y237748D01*
X322267D01*
G37*
G36*
Y245548D02*Y241548D01*
X326867D01*
Y245548D01*
X322267D01*
G37*
G36*
X314067Y241648D02*Y237648D01*
X318667D01*
Y241648D01*
X314067D01*
G37*
G36*
X308299Y243083D02*Y239531D01*
X312835D01*
Y243083D01*
X308299D01*
G37*
G36*
Y237965D02*Y234413D01*
X312835D01*
Y237965D01*
X308299D01*
G37*
G36*
X306567Y246048D02*X302567D01*
Y241448D01*
X306567D01*
Y246048D01*
G37*
G36*
Y226048D02*X302567D01*
Y221448D01*
X306567D01*
Y226048D01*
G37*
G36*
X322267Y217748D02*Y213748D01*
X326867D01*
Y217748D01*
X322267D01*
G37*
G36*
Y225548D02*Y221548D01*
X326867D01*
Y225548D01*
X322267D01*
G37*
G36*
X314067Y221648D02*Y217648D01*
X318667D01*
Y221648D01*
X314067D01*
G37*
G36*
X308299Y223083D02*Y219531D01*
X312835D01*
Y223083D01*
X308299D01*
G37*
G36*
Y217965D02*Y214413D01*
X312835D01*
Y217965D01*
X308299D01*
G37*
G36*
X312277Y249425D02*X309709D01*
Y246071D01*
X312277D01*
Y249425D01*
G37*
G36*
Y229425D02*X309709D01*
Y226071D01*
X312277D01*
Y229425D01*
G37*
G36*
X315425D02*X312857D01*
Y226071D01*
X315425D01*
Y229425D01*
G37*
G36*
X312277Y209425D02*X309709D01*
Y206071D01*
X312277D01*
Y209425D01*
G37*
G36*
X315425D02*X312857D01*
Y206071D01*
X315425D01*
Y209425D01*
G37*
G36*
X312277Y189425D02*X309709D01*
Y186071D01*
X312277D01*
Y189425D01*
G37*
G36*
X315425D02*X312857D01*
Y186071D01*
X315425D01*
Y189425D01*
G37*
G36*
X312277Y169425D02*X309709D01*
Y166071D01*
X312277D01*
Y169425D01*
G37*
G36*
X308299Y163083D02*Y159531D01*
X312835D01*
Y163083D01*
X308299D01*
G37*
G36*
Y157965D02*Y154413D01*
X312835D01*
Y157965D01*
X308299D01*
G37*
G36*
X315425Y169425D02*X312857D01*
Y166071D01*
X315425D01*
Y169425D01*
G37*
G36*
X312277Y149425D02*X309709D01*
Y146071D01*
X312277D01*
Y149425D01*
G37*
G36*
X308299Y143083D02*Y139531D01*
X312835D01*
Y143083D01*
X308299D01*
G37*
G36*
Y137965D02*Y134413D01*
X312835D01*
Y137965D01*
X308299D01*
G37*
G36*
X315425Y149425D02*X312857D01*
Y146071D01*
X315425D01*
Y149425D01*
G37*
G36*
X303425D02*X300857D01*
Y146071D01*
X303425D01*
Y149425D01*
G37*
G36*
X300277D02*X297709D01*
Y146071D01*
X300277D01*
Y149425D01*
G37*
G36*
X361445Y162717D02*X358689D01*
Y158780D01*
X361445D01*
Y162717D01*
G37*
G36*
Y156024D02*X358689D01*
Y152087D01*
X361445D01*
Y156024D01*
G37*
G36*
Y142717D02*X358689D01*
Y138780D01*
X361445D01*
Y142717D01*
G37*
G36*
Y136024D02*X358689D01*
Y132087D01*
X361445D01*
Y136024D01*
G37*
G36*
X352890Y155458D02*Y152890D01*
X356244D01*
Y155458D01*
X352890D01*
G37*
G36*
Y135458D02*Y132890D01*
X356244D01*
Y135458D01*
X352890D01*
G37*
G36*
Y138606D02*Y136038D01*
X356244D01*
Y138606D01*
X352890D01*
G37*
G36*
Y158606D02*Y156038D01*
X356244D01*
Y158606D01*
X352890D01*
G37*
G36*
X349217Y158798D02*X347117D01*
Y154698D01*
X349217D01*
Y158798D01*
G37*
G36*
X351717D02*X349617D01*
Y154698D01*
X351717D01*
Y158798D01*
G37*
G36*
X346617D02*X344517D01*
Y154698D01*
X346617D01*
Y158798D01*
G37*
G36*
X351717Y165798D02*X349617D01*
Y161698D01*
X351717D01*
Y165798D01*
G37*
G36*
X349217D02*X347117D01*
Y161698D01*
X349217D01*
Y165798D01*
G37*
G36*
X346617D02*X344517D01*
Y161698D01*
X346617D01*
Y165798D01*
G37*
G36*
Y138798D02*X344517D01*
Y134698D01*
X346617D01*
Y138798D01*
G37*
G36*
Y145798D02*X344517D01*
Y141698D01*
X346617D01*
Y145798D01*
G37*
G36*
X349217Y138798D02*X347117D01*
Y134698D01*
X349217D01*
Y138798D01*
G37*
G36*
X351717D02*X349617D01*
Y134698D01*
X351717D01*
Y138798D01*
G37*
G36*
Y145798D02*X349617D01*
Y141698D01*
X351717D01*
Y145798D01*
G37*
G36*
X349217D02*X347117D01*
Y141698D01*
X349217D01*
Y145798D01*
G37*
G36*
X292567Y246048D02*X288567D01*
Y241448D01*
X292567D01*
Y246048D01*
G37*
G36*
X284767D02*X280767D01*
Y241448D01*
X284767D01*
Y246048D01*
G37*
G36*
X288667Y237848D02*X284667D01*
Y233248D01*
X288667D01*
Y237848D01*
G37*
G36*
X298767Y246048D02*X294767D01*
Y241448D01*
X298767D01*
Y246048D01*
G37*
G36*
X292567Y206048D02*X288567D01*
Y201448D01*
X292567D01*
Y206048D01*
G37*
G36*
X306567D02*X302567D01*
Y201448D01*
X306567D01*
Y206048D01*
G37*
G36*
X298767D02*X294767D01*
Y201448D01*
X298767D01*
Y206048D01*
G37*
G36*
X302667Y197848D02*X298667D01*
Y193248D01*
X302667D01*
Y197848D01*
G37*
G36*
X303425Y209425D02*X300857D01*
Y206071D01*
X303425D01*
Y209425D01*
G37*
G36*
X300277D02*X297709D01*
Y206071D01*
X300277D01*
Y209425D01*
G37*
G36*
X284767Y206048D02*X280767D01*
Y201448D01*
X284767D01*
Y206048D01*
G37*
G36*
X289425Y209425D02*X286857D01*
Y206071D01*
X289425D01*
Y209425D01*
G37*
G36*
X286277D02*X283709D01*
Y206071D01*
X286277D01*
Y209425D01*
G37*
G36*
X322267Y197748D02*Y193748D01*
X326867D01*
Y197748D01*
X322267D01*
G37*
G36*
X314067Y201648D02*Y197648D01*
X318667D01*
Y201648D01*
X314067D01*
G37*
G36*
X308299Y203083D02*Y199531D01*
X312835D01*
Y203083D01*
X308299D01*
G37*
G36*
Y197965D02*Y194413D01*
X312835D01*
Y197965D01*
X308299D01*
G37*
G36*
X322267Y205548D02*Y201548D01*
X326867D01*
Y205548D01*
X322267D01*
G37*
G36*
Y177748D02*Y173748D01*
X326867D01*
Y177748D01*
X322267D01*
G37*
G36*
Y185548D02*Y181548D01*
X326867D01*
Y185548D01*
X322267D01*
G37*
G36*
X314067Y181648D02*Y177648D01*
X318667D01*
Y181648D01*
X314067D01*
G37*
G36*
X308299Y183083D02*Y179531D01*
X312835D01*
Y183083D01*
X308299D01*
G37*
G36*
Y177965D02*Y174413D01*
X312835D01*
Y177965D01*
X308299D01*
G37*
G36*
X306567Y186048D02*X302567D01*
Y181448D01*
X306567D01*
Y186048D01*
G37*
G36*
X298767D02*X294767D01*
Y181448D01*
X298767D01*
Y186048D01*
G37*
G36*
X303425Y189425D02*X300857D01*
Y186071D01*
X303425D01*
Y189425D01*
G37*
G36*
X300277D02*X297709D01*
Y186071D01*
X300277D01*
Y189425D01*
G37*
G36*
X289425D02*X286857D01*
Y186071D01*
X289425D01*
Y189425D01*
G37*
G36*
X286277D02*X283709D01*
Y186071D01*
X286277D01*
Y189425D01*
G37*
G36*
X302667Y177848D02*X298667D01*
Y173248D01*
X302667D01*
Y177848D01*
G37*
G36*
X303425Y169425D02*X300857D01*
Y166071D01*
X303425D01*
Y169425D01*
G37*
G36*
X300277D02*X297709D01*
Y166071D01*
X300277D01*
Y169425D01*
G37*
G36*
X302667Y237848D02*X298667D01*
Y233248D01*
X302667D01*
Y237848D01*
G37*
G36*
X298767Y226048D02*X294767D01*
Y221448D01*
X298767D01*
Y226048D01*
G37*
G36*
X302667Y217848D02*X298667D01*
Y213248D01*
X302667D01*
Y217848D01*
G37*
G36*
X292567Y226048D02*X288567D01*
Y221448D01*
X292567D01*
Y226048D01*
G37*
G36*
X284767D02*X280767D01*
Y221448D01*
X284767D01*
Y226048D01*
G37*
G36*
X289425Y229425D02*X286857D01*
Y226071D01*
X289425D01*
Y229425D01*
G37*
G36*
X286277D02*X283709D01*
Y226071D01*
X286277D01*
Y229425D01*
G37*
G36*
X303425D02*X300857D01*
Y226071D01*
X303425D01*
Y229425D01*
G37*
G36*
X300277D02*X297709D01*
Y226071D01*
X300277D01*
Y229425D01*
G37*
G36*
X288667Y217848D02*X284667D01*
Y213248D01*
X288667D01*
Y217848D01*
G37*
G36*
X367317Y178798D02*X363817D01*
Y174698D01*
X367317D01*
Y178798D01*
G37*
G36*
X361445Y182717D02*X358689D01*
Y178780D01*
X361445D01*
Y182717D01*
G37*
G36*
Y176024D02*X358689D01*
Y172087D01*
X361445D01*
Y176024D01*
G37*
G36*
X372417Y178798D02*X368917D01*
Y174698D01*
X372417D01*
Y178798D01*
G37*
G36*
X369917Y185798D02*X366417D01*
Y181698D01*
X369917D01*
Y185798D01*
G37*
G36*
X379917D02*X376417D01*
Y181698D01*
X379917D01*
Y185798D01*
G37*
G36*
X352890Y175458D02*Y172890D01*
X356244D01*
Y175458D01*
X352890D01*
G37*
G36*
Y178606D02*Y176038D01*
X356244D01*
Y178606D01*
X352890D01*
G37*
G36*
X346617Y178798D02*X344517D01*
Y174698D01*
X346617D01*
Y178798D01*
G37*
G36*
X349217D02*X347117D01*
Y174698D01*
X349217D01*
Y178798D01*
G37*
G36*
X351717D02*X349617D01*
Y174698D01*
X351717D01*
Y178798D01*
G37*
G36*
Y185798D02*X349617D01*
Y181698D01*
X351717D01*
Y185798D01*
G37*
G36*
X349217D02*X347117D01*
Y181698D01*
X349217D01*
Y185798D01*
G37*
G36*
X346617D02*X344517D01*
Y181698D01*
X346617D01*
Y185798D01*
G37*
G36*
X367317Y218798D02*X363817D01*
Y214698D01*
X367317D01*
Y218798D01*
G37*
G36*
X372417D02*X368917D01*
Y214698D01*
X372417D01*
Y218798D01*
G37*
G36*
X367317Y198798D02*X363817D01*
Y194698D01*
X367317D01*
Y198798D01*
G37*
G36*
X372417D02*X368917D01*
Y194698D01*
X372417D01*
Y198798D01*
G37*
G36*
X369917Y205798D02*X366417D01*
Y201698D01*
X369917D01*
Y205798D01*
G37*
G36*
X377317Y218798D02*X373817D01*
Y214698D01*
X377317D01*
Y218798D01*
G37*
G36*
Y198798D02*X373817D01*
Y194698D01*
X377317D01*
Y198798D01*
G37*
G36*
X382417Y218798D02*X378917D01*
Y214698D01*
X382417D01*
Y218798D01*
G37*
G36*
Y198798D02*X378917D01*
Y194698D01*
X382417D01*
Y198798D01*
G37*
G36*
X379917Y205798D02*X376417D01*
Y201698D01*
X379917D01*
Y205798D01*
G37*
G36*
X367317Y158798D02*X363817D01*
Y154698D01*
X367317D01*
Y158798D01*
G37*
G36*
X372417D02*X368917D01*
Y154698D01*
X372417D01*
Y158798D01*
G37*
G36*
X369917Y165798D02*X366417D01*
Y161698D01*
X369917D01*
Y165798D01*
G37*
G36*
X367317Y138798D02*X363817D01*
Y134698D01*
X367317D01*
Y138798D01*
G37*
G36*
X372417D02*X368917D01*
Y134698D01*
X372417D01*
Y138798D01*
G37*
G36*
X369917Y145798D02*X366417D01*
Y141698D01*
X369917D01*
Y145798D01*
G37*
G36*
X377317Y178798D02*X373817D01*
Y174698D01*
X377317D01*
Y178798D01*
G37*
G36*
Y158798D02*X373817D01*
Y154698D01*
X377317D01*
Y158798D01*
G37*
G36*
Y138798D02*X373817D01*
Y134698D01*
X377317D01*
Y138798D01*
G37*
G36*
X382417Y178798D02*X378917D01*
Y174698D01*
X382417D01*
Y178798D01*
G37*
G36*
Y158798D02*X378917D01*
Y154698D01*
X382417D01*
Y158798D01*
G37*
G36*
X379917Y165798D02*X376417D01*
Y161698D01*
X379917D01*
Y165798D01*
G37*
G36*
X382417Y138798D02*X378917D01*
Y134698D01*
X382417D01*
Y138798D01*
G37*
G36*
X379917Y145798D02*X376417D01*
Y141698D01*
X379917D01*
Y145798D01*
G37*
G36*
Y225798D02*X376417D01*
Y221698D01*
X379917D01*
Y225798D01*
G37*
G36*
X369917D02*X366417D01*
Y221698D01*
X369917D01*
Y225798D01*
G37*
G36*
X361445Y222717D02*X358689D01*
Y218780D01*
X361445D01*
Y222717D01*
G37*
G36*
Y216024D02*X358689D01*
Y212087D01*
X361445D01*
Y216024D01*
G37*
G36*
X352890Y215458D02*Y212890D01*
X356244D01*
Y215458D01*
X352890D01*
G37*
G36*
Y218606D02*Y216038D01*
X356244D01*
Y218606D01*
X352890D01*
G37*
G36*
X361445Y202717D02*X358689D01*
Y198780D01*
X361445D01*
Y202717D01*
G37*
G36*
Y196024D02*X358689D01*
Y192087D01*
X361445D01*
Y196024D01*
G37*
G36*
X352890Y195458D02*Y192890D01*
X356244D01*
Y195458D01*
X352890D01*
G37*
G36*
Y198606D02*Y196038D01*
X356244D01*
Y198606D01*
X352890D01*
G37*
G36*
X351717Y198798D02*X349617D01*
Y194698D01*
X351717D01*
Y198798D01*
G37*
G36*
Y205798D02*X349617D01*
Y201698D01*
X351717D01*
Y205798D01*
G37*
G36*
X346617Y218798D02*X344517D01*
Y214698D01*
X346617D01*
Y218798D01*
G37*
G36*
Y198798D02*X344517D01*
Y194698D01*
X346617D01*
Y198798D01*
G37*
G36*
X349217D02*X347117D01*
Y194698D01*
X349217D01*
Y198798D01*
G37*
G36*
Y205798D02*X347117D01*
Y201698D01*
X349217D01*
Y205798D01*
G37*
G36*
X346617D02*X344517D01*
Y201698D01*
X346617D01*
Y205798D01*
G37*
G36*
X349217Y218798D02*X347117D01*
Y214698D01*
X349217D01*
Y218798D01*
G37*
G36*
X351717D02*X349617D01*
Y214698D01*
X351717D01*
Y218798D01*
G37*
G36*
X337667Y217848D02*X333667D01*
Y213248D01*
X337667D01*
Y217848D01*
G37*
G36*
X341567Y206048D02*X337567D01*
Y201448D01*
X341567D01*
Y206048D01*
G37*
G36*
X333767D02*X329767D01*
Y201448D01*
X333767D01*
Y206048D01*
G37*
G36*
X337667Y197848D02*X333667D01*
Y193248D01*
X337667D01*
Y197848D01*
G37*
G36*
X341567Y186048D02*X337567D01*
Y181448D01*
X341567D01*
Y186048D01*
G37*
G36*
X333767D02*X329767D01*
Y181448D01*
X333767D01*
Y186048D01*
G37*
G36*
X337667Y177848D02*X333667D01*
Y173248D01*
X337667D01*
Y177848D01*
G37*
G36*
X341567Y166048D02*X337567D01*
Y161448D01*
X341567D01*
Y166048D01*
G37*
G36*
X337667Y157848D02*X333667D01*
Y153248D01*
X337667D01*
Y157848D01*
G37*
G36*
X341567Y146048D02*X337567D01*
Y141448D01*
X341567D01*
Y146048D01*
G37*
G36*
X337667Y137848D02*X333667D01*
Y133248D01*
X337667D01*
Y137848D01*
G37*
G36*
X322267Y157748D02*Y153748D01*
X326867D01*
Y157748D01*
X322267D01*
G37*
G36*
Y165548D02*Y161548D01*
X326867D01*
Y165548D01*
X322267D01*
G37*
G36*
X314067Y161648D02*Y157648D01*
X318667D01*
Y161648D01*
X314067D01*
G37*
G36*
X333767Y166048D02*X329767D01*
Y161448D01*
X333767D01*
Y166048D01*
G37*
G36*
Y146048D02*X329767D01*
Y141448D01*
X333767D01*
Y146048D01*
G37*
G36*
Y126048D02*X329767D01*
Y121448D01*
X333767D01*
Y126048D01*
G37*
G36*
Y106048D02*X329767D01*
Y101448D01*
X333767D01*
Y106048D01*
G37*
G36*
X312277Y129425D02*X309709D01*
Y126071D01*
X312277D01*
Y129425D01*
G37*
G36*
X322267Y137748D02*Y133748D01*
X326867D01*
Y137748D01*
X322267D01*
G37*
G36*
Y145548D02*Y141548D01*
X326867D01*
Y145548D01*
X322267D01*
G37*
G36*
X314067Y141648D02*Y137648D01*
X318667D01*
Y141648D01*
X314067D01*
G37*
G36*
X315425Y129425D02*X312857D01*
Y126071D01*
X315425D01*
Y129425D01*
G37*
G36*
X322267Y117748D02*Y113748D01*
X326867D01*
Y117748D01*
X322267D01*
G37*
G36*
Y125548D02*Y121548D01*
X326867D01*
Y125548D01*
X322267D01*
G37*
G36*
X314067Y121648D02*Y117648D01*
X318667D01*
Y121648D01*
X314067D01*
G37*
G36*
X322267Y105548D02*Y101548D01*
X326867D01*
Y105548D01*
X322267D01*
G37*
G36*
X341567Y66048D02*X337567D01*
Y61448D01*
X341567D01*
Y66048D01*
G37*
G36*
X333767D02*X329767D01*
Y61448D01*
X333767D01*
Y66048D01*
G37*
G36*
X337667Y57848D02*X333667D01*
Y53248D01*
X337667D01*
Y57848D01*
G37*
G36*
X346617Y58798D02*X344517D01*
Y54698D01*
X346617D01*
Y58798D01*
G37*
G36*
X349217D02*X347117D01*
Y54698D01*
X349217D01*
Y58798D01*
G37*
G36*
X351717Y65798D02*X349617D01*
Y61698D01*
X351717D01*
Y65798D01*
G37*
G36*
X349217D02*X347117D01*
Y61698D01*
X349217D01*
Y65798D01*
G37*
G36*
X346617D02*X344517D01*
Y61698D01*
X346617D01*
Y65798D01*
G37*
G36*
X361445Y42717D02*X358689D01*
Y38780D01*
X361445D01*
Y42717D01*
G37*
G36*
Y36024D02*X358689D01*
Y32087D01*
X361445D01*
Y36024D01*
G37*
G36*
X367317Y38798D02*X363817D01*
Y34698D01*
X367317D01*
Y38798D01*
G37*
G36*
X369917Y45798D02*X366417D01*
Y41698D01*
X369917D01*
Y45798D01*
G37*
G36*
X352890Y35458D02*Y32890D01*
X356244D01*
Y35458D01*
X352890D01*
G37*
G36*
Y38606D02*Y36038D01*
X356244D01*
Y38606D01*
X352890D01*
G37*
G36*
X367317Y58798D02*X363817D01*
Y54698D01*
X367317D01*
Y58798D01*
G37*
G36*
X361445Y62717D02*X358689D01*
Y58780D01*
X361445D01*
Y62717D01*
G37*
G36*
Y56024D02*X358689D01*
Y52087D01*
X361445D01*
Y56024D01*
G37*
G36*
X352890Y55458D02*Y52890D01*
X356244D01*
Y55458D01*
X352890D01*
G37*
G36*
Y58606D02*Y56038D01*
X356244D01*
Y58606D01*
X352890D01*
G37*
G36*
X372417Y58798D02*X368917D01*
Y54698D01*
X372417D01*
Y58798D01*
G37*
G36*
X377317D02*X373817D01*
Y54698D01*
X377317D01*
Y58798D01*
G37*
G36*
X382417D02*X378917D01*
Y54698D01*
X382417D01*
Y58798D01*
G37*
G36*
X369917Y65798D02*X366417D01*
Y61698D01*
X369917D01*
Y65798D01*
G37*
G36*
X379917D02*X376417D01*
Y61698D01*
X379917D01*
Y65798D01*
G37*
G36*
X372417Y38798D02*X368917D01*
Y34698D01*
X372417D01*
Y38798D01*
G37*
G36*
X377317D02*X373817D01*
Y34698D01*
X377317D01*
Y38798D01*
G37*
G36*
X382417D02*X378917D01*
Y34698D01*
X382417D01*
Y38798D01*
G37*
G36*
X379917Y45798D02*X376417D01*
Y41698D01*
X379917D01*
Y45798D01*
G37*
G36*
X322267Y37748D02*Y33748D01*
X326867D01*
Y37748D01*
X322267D01*
G37*
G36*
X314067Y41648D02*Y37648D01*
X318667D01*
Y41648D01*
X314067D01*
G37*
G36*
X308299Y43083D02*Y39531D01*
X312835D01*
Y43083D01*
X308299D01*
G37*
G36*
Y37965D02*Y34413D01*
X312835D01*
Y37965D01*
X308299D01*
G37*
G36*
X337667Y37848D02*X333667D01*
Y33248D01*
X337667D01*
Y37848D01*
G37*
G36*
X346617Y38798D02*X344517D01*
Y34698D01*
X346617D01*
Y38798D01*
G37*
G36*
X349217D02*X347117D01*
Y34698D01*
X349217D01*
Y38798D01*
G37*
G36*
X351717D02*X349617D01*
Y34698D01*
X351717D01*
Y38798D01*
G37*
G36*
Y58798D02*X349617D01*
Y54698D01*
X351717D01*
Y58798D01*
G37*
G36*
Y45798D02*X349617D01*
Y41698D01*
X351717D01*
Y45798D01*
G37*
G36*
X349217D02*X347117D01*
Y41698D01*
X349217D01*
Y45798D01*
G37*
G36*
X346617D02*X344517D01*
Y41698D01*
X346617D01*
Y45798D01*
G37*
G36*
X341567Y46048D02*X337567D01*
Y41448D01*
X341567D01*
Y46048D01*
G37*
G36*
X333767D02*X329767D01*
Y41448D01*
X333767D01*
Y46048D01*
G37*
G36*
X322267Y45548D02*Y41548D01*
X326867D01*
Y45548D01*
X322267D01*
G37*
G36*
X312277Y109425D02*X309709D01*
Y106071D01*
X312277D01*
Y109425D01*
G37*
G36*
X315425D02*X312857D01*
Y106071D01*
X315425D01*
Y109425D01*
G37*
G36*
X308299Y103083D02*Y99531D01*
X312835D01*
Y103083D01*
X308299D01*
G37*
G36*
Y97965D02*Y94413D01*
X312835D01*
Y97965D01*
X308299D01*
G37*
G36*
Y123083D02*Y119531D01*
X312835D01*
Y123083D01*
X308299D01*
G37*
G36*
Y117965D02*Y114413D01*
X312835D01*
Y117965D01*
X308299D01*
G37*
G36*
X312277Y89425D02*X309709D01*
Y86071D01*
X312277D01*
Y89425D01*
G37*
G36*
X315425D02*X312857D01*
Y86071D01*
X315425D01*
Y89425D01*
G37*
G36*
X308299Y83083D02*Y79531D01*
X312835D01*
Y83083D01*
X308299D01*
G37*
G36*
X341567Y126048D02*X337567D01*
Y121448D01*
X341567D01*
Y126048D01*
G37*
G36*
X337667Y117848D02*X333667D01*
Y113248D01*
X337667D01*
Y117848D01*
G37*
G36*
X341567Y106048D02*X337567D01*
Y101448D01*
X341567D01*
Y106048D01*
G37*
G36*
X337667Y97848D02*X333667D01*
Y93248D01*
X337667D01*
Y97848D01*
G37*
G36*
X346617Y118798D02*X344517D01*
Y114698D01*
X346617D01*
Y118798D01*
G37*
G36*
X349217D02*X347117D01*
Y114698D01*
X349217D01*
Y118798D01*
G37*
G36*
X351717D02*X349617D01*
Y114698D01*
X351717D01*
Y118798D01*
G37*
G36*
Y125798D02*X349617D01*
Y121698D01*
X351717D01*
Y125798D01*
G37*
G36*
X349217D02*X347117D01*
Y121698D01*
X349217D01*
Y125798D01*
G37*
G36*
X346617D02*X344517D01*
Y121698D01*
X346617D01*
Y125798D01*
G37*
G36*
Y98798D02*X344517D01*
Y94698D01*
X346617D01*
Y98798D01*
G37*
G36*
X349217D02*X347117D01*
Y94698D01*
X349217D01*
Y98798D01*
G37*
G36*
X351717D02*X349617D01*
Y94698D01*
X351717D01*
Y98798D01*
G37*
G36*
Y105798D02*X349617D01*
Y101698D01*
X351717D01*
Y105798D01*
G37*
G36*
X349217D02*X347117D01*
Y101698D01*
X349217D01*
Y105798D01*
G37*
G36*
X346617D02*X344517D01*
Y101698D01*
X346617D01*
Y105798D01*
G37*
G36*
X322267Y97748D02*Y93748D01*
X326867D01*
Y97748D01*
X322267D01*
G37*
G36*
X314067Y101648D02*Y97648D01*
X318667D01*
Y101648D01*
X314067D01*
G37*
G36*
X288667Y197848D02*X284667D01*
Y193248D01*
X288667D01*
Y197848D01*
G37*
G36*
X292567Y186048D02*X288567D01*
Y181448D01*
X292567D01*
Y186048D01*
G37*
G36*
X288667Y177848D02*X284667D01*
Y173248D01*
X288667D01*
Y177848D01*
G37*
G36*
X284767Y186048D02*X280767D01*
Y181448D01*
X284767D01*
Y186048D01*
G37*
G36*
X306567Y166048D02*X302567D01*
Y161448D01*
X306567D01*
Y166048D01*
G37*
G36*
Y146048D02*X302567D01*
Y141448D01*
X306567D01*
Y146048D01*
G37*
G36*
Y126048D02*X302567D01*
Y121448D01*
X306567D01*
Y126048D01*
G37*
G36*
X302667Y157848D02*X298667D01*
Y153248D01*
X302667D01*
Y157848D01*
G37*
G36*
Y137848D02*X298667D01*
Y133248D01*
X302667D01*
Y137848D01*
G37*
G36*
X303425Y129425D02*X300857D01*
Y126071D01*
X303425D01*
Y129425D01*
G37*
G36*
X300277D02*X297709D01*
Y126071D01*
X300277D01*
Y129425D01*
G37*
G36*
X292567Y166048D02*X288567D01*
Y161448D01*
X292567D01*
Y166048D01*
G37*
G36*
X284767D02*X280767D01*
Y161448D01*
X284767D01*
Y166048D01*
G37*
G36*
X289425Y169425D02*X286857D01*
Y166071D01*
X289425D01*
Y169425D01*
G37*
G36*
X286277D02*X283709D01*
Y166071D01*
X286277D01*
Y169425D01*
G37*
G36*
X288667Y157848D02*X284667D01*
Y153248D01*
X288667D01*
Y157848D01*
G37*
G36*
X292567Y146048D02*X288567D01*
Y141448D01*
X292567D01*
Y146048D01*
G37*
G36*
X284767D02*X280767D01*
Y141448D01*
X284767D01*
Y146048D01*
G37*
G36*
X289425Y149425D02*X286857D01*
Y146071D01*
X289425D01*
Y149425D01*
G37*
G36*
X286277D02*X283709D01*
Y146071D01*
X286277D01*
Y149425D01*
G37*
G36*
X367317Y118798D02*X363817D01*
Y114698D01*
X367317D01*
Y118798D01*
G37*
G36*
X372417D02*X368917D01*
Y114698D01*
X372417D01*
Y118798D01*
G37*
G36*
X369917Y125798D02*X366417D01*
Y121698D01*
X369917D01*
Y125798D01*
G37*
G36*
Y105798D02*X366417D01*
Y101698D01*
X369917D01*
Y105798D01*
G37*
G36*
X352890Y115458D02*Y112890D01*
X356244D01*
Y115458D01*
X352890D01*
G37*
G36*
Y118606D02*Y116038D01*
X356244D01*
Y118606D01*
X352890D01*
G37*
G36*
X367317Y98798D02*X363817D01*
Y94698D01*
X367317D01*
Y98798D01*
G37*
G36*
X372417D02*X368917D01*
Y94698D01*
X372417D01*
Y98798D01*
G37*
G36*
X352890Y95458D02*Y92890D01*
X356244D01*
Y95458D01*
X352890D01*
G37*
G36*
Y98606D02*Y96038D01*
X356244D01*
Y98606D01*
X352890D01*
G37*
G36*
X377317Y118798D02*X373817D01*
Y114698D01*
X377317D01*
Y118798D01*
G37*
G36*
Y98798D02*X373817D01*
Y94698D01*
X377317D01*
Y98798D01*
G37*
G36*
X382417D02*X378917D01*
Y94698D01*
X382417D01*
Y98798D01*
G37*
G36*
X379917Y105798D02*X376417D01*
Y101698D01*
X379917D01*
Y105798D01*
G37*
G36*
X382417Y118798D02*X378917D01*
Y114698D01*
X382417D01*
Y118798D01*
G37*
G36*
X379917Y125798D02*X376417D01*
Y121698D01*
X379917D01*
Y125798D01*
G37*
G36*
X361445Y122717D02*X358689D01*
Y118780D01*
X361445D01*
Y122717D01*
G37*
G36*
Y116024D02*X358689D01*
Y112087D01*
X361445D01*
Y116024D01*
G37*
G36*
Y102717D02*X358689D01*
Y98780D01*
X361445D01*
Y102717D01*
G37*
G36*
Y96024D02*X358689D01*
Y92087D01*
X361445D01*
Y96024D01*
G37*
G36*
Y82717D02*X358689D01*
Y78780D01*
X361445D01*
Y82717D01*
G37*
G36*
Y76024D02*X358689D01*
Y72087D01*
X361445D01*
Y76024D01*
G37*
G36*
X352890Y78606D02*Y76038D01*
X356244D01*
Y78606D01*
X352890D01*
G37*
G36*
X367317Y78798D02*X363817D01*
Y74698D01*
X367317D01*
Y78798D01*
G37*
G36*
X372417D02*X368917D01*
Y74698D01*
X372417D01*
Y78798D01*
G37*
G36*
X369917Y85798D02*X366417D01*
Y81698D01*
X369917D01*
Y85798D01*
G37*
G36*
X377317Y78798D02*X373817D01*
Y74698D01*
X377317D01*
Y78798D01*
G37*
G36*
X382417D02*X378917D01*
Y74698D01*
X382417D01*
Y78798D01*
G37*
G36*
X379917Y85798D02*X376417D01*
Y81698D01*
X379917D01*
Y85798D01*
G37*
G36*
X352890Y75458D02*Y72890D01*
X356244D01*
Y75458D01*
X352890D01*
G37*
G36*
X341567Y86048D02*X337567D01*
Y81448D01*
X341567D01*
Y86048D01*
G37*
G36*
X333767D02*X329767D01*
Y81448D01*
X333767D01*
Y86048D01*
G37*
G36*
X337667Y77848D02*X333667D01*
Y73248D01*
X337667D01*
Y77848D01*
G37*
G36*
X346617Y78798D02*X344517D01*
Y74698D01*
X346617D01*
Y78798D01*
G37*
G36*
X349217D02*X347117D01*
Y74698D01*
X349217D01*
Y78798D01*
G37*
G36*
X351717D02*X349617D01*
Y74698D01*
X351717D01*
Y78798D01*
G37*
G36*
Y85798D02*X349617D01*
Y81698D01*
X351717D01*
Y85798D01*
G37*
G36*
X349217D02*X347117D01*
Y81698D01*
X349217D01*
Y85798D01*
G37*
G36*
X346617D02*X344517D01*
Y81698D01*
X346617D01*
Y85798D01*
G37*
G36*
X322267Y77748D02*Y73748D01*
X326867D01*
Y77748D01*
X322267D01*
G37*
G36*
Y85548D02*Y81548D01*
X326867D01*
Y85548D01*
X322267D01*
G37*
G36*
X314067Y81648D02*Y77648D01*
X318667D01*
Y81648D01*
X314067D01*
G37*
G36*
X308299Y77965D02*Y74413D01*
X312835D01*
Y77965D01*
X308299D01*
G37*
G36*
X312277Y69425D02*X309709D01*
Y66071D01*
X312277D01*
Y69425D01*
G37*
G36*
X315425D02*X312857D01*
Y66071D01*
X315425D01*
Y69425D01*
G37*
G36*
X312277Y49425D02*X309709D01*
Y46071D01*
X312277D01*
Y49425D01*
G37*
G36*
X315425D02*X312857D01*
Y46071D01*
X315425D01*
Y49425D01*
G37*
G36*
X322267Y57748D02*Y53748D01*
X326867D01*
Y57748D01*
X322267D01*
G37*
G36*
Y65548D02*Y61548D01*
X326867D01*
Y65548D01*
X322267D01*
G37*
G36*
X314067Y61648D02*Y57648D01*
X318667D01*
Y61648D01*
X314067D01*
G37*
G36*
X308299Y63083D02*Y59531D01*
X312835D01*
Y63083D01*
X308299D01*
G37*
G36*
Y57965D02*Y54413D01*
X312835D01*
Y57965D01*
X308299D01*
G37*
G36*
X288667Y137848D02*X284667D01*
Y133248D01*
X288667D01*
Y137848D01*
G37*
G36*
X292567Y126048D02*X288567D01*
Y121448D01*
X292567D01*
Y126048D01*
G37*
G36*
X284767D02*X280767D01*
Y121448D01*
X284767D01*
Y126048D01*
G37*
G36*
X288667Y117848D02*X284667D01*
Y113248D01*
X288667D01*
Y117848D01*
G37*
G36*
X289425Y129425D02*X286857D01*
Y126071D01*
X289425D01*
Y129425D01*
G37*
G36*
X286277D02*X283709D01*
Y126071D01*
X286277D01*
Y129425D01*
G37*
G36*
X292567Y106048D02*X288567D01*
Y101448D01*
X292567D01*
Y106048D01*
G37*
G36*
X284767D02*X280767D01*
Y101448D01*
X284767D01*
Y106048D01*
G37*
G36*
X289425Y109425D02*X286857D01*
Y106071D01*
X289425D01*
Y109425D01*
G37*
G36*
X286277D02*X283709D01*
Y106071D01*
X286277D01*
Y109425D01*
G37*
G36*
X288667Y97848D02*X284667D01*
Y93248D01*
X288667D01*
Y97848D01*
G37*
G36*
X292567Y86048D02*X288567D01*
Y81448D01*
X292567D01*
Y86048D01*
G37*
G36*
X284767D02*X280767D01*
Y81448D01*
X284767D01*
Y86048D01*
G37*
G36*
X289425Y89425D02*X286857D01*
Y86071D01*
X289425D01*
Y89425D01*
G37*
G36*
X286277D02*X283709D01*
Y86071D01*
X286277D01*
Y89425D01*
G37*
G36*
X288667Y77848D02*X284667D01*
Y73248D01*
X288667D01*
Y77848D01*
G37*
G36*
X286277Y69425D02*X283709D01*
Y66071D01*
X286277D01*
Y69425D01*
G37*
G36*
X292567Y66048D02*X288567D01*
Y61448D01*
X292567D01*
Y66048D01*
G37*
G36*
X284767D02*X280767D01*
Y61448D01*
X284767D01*
Y66048D01*
G37*
G36*
X289425Y69425D02*X286857D01*
Y66071D01*
X289425D01*
Y69425D01*
G37*
G36*
X288667Y57848D02*X284667D01*
Y53248D01*
X288667D01*
Y57848D01*
G37*
G36*
X292567Y46048D02*X288567D01*
Y41448D01*
X292567D01*
Y46048D01*
G37*
G36*
X284767D02*X280767D01*
Y41448D01*
X284767D01*
Y46048D01*
G37*
G36*
X288667Y37848D02*X284667D01*
Y33248D01*
X288667D01*
Y37848D01*
G37*
G36*
X289425Y49425D02*X286857D01*
Y46071D01*
X289425D01*
Y49425D01*
G37*
G36*
X286277D02*X283709D01*
Y46071D01*
X286277D01*
Y49425D01*
G37*
G36*
X298767Y166048D02*X294767D01*
Y161448D01*
X298767D01*
Y166048D01*
G37*
G36*
Y146048D02*X294767D01*
Y141448D01*
X298767D01*
Y146048D01*
G37*
G36*
Y126048D02*X294767D01*
Y121448D01*
X298767D01*
Y126048D01*
G37*
G36*
Y106048D02*X294767D01*
Y101448D01*
X298767D01*
Y106048D01*
G37*
G36*
Y86048D02*X294767D01*
Y81448D01*
X298767D01*
Y86048D01*
G37*
G36*
Y66048D02*X294767D01*
Y61448D01*
X298767D01*
Y66048D01*
G37*
G36*
X302667Y117848D02*X298667D01*
Y113248D01*
X302667D01*
Y117848D01*
G37*
G36*
Y97848D02*X298667D01*
Y93248D01*
X302667D01*
Y97848D01*
G37*
G36*
X303425Y109425D02*X300857D01*
Y106071D01*
X303425D01*
Y109425D01*
G37*
G36*
X300277D02*X297709D01*
Y106071D01*
X300277D01*
Y109425D01*
G37*
G36*
Y69425D02*X297709D01*
Y66071D01*
X300277D01*
Y69425D01*
G37*
G36*
X306567Y106048D02*X302567D01*
Y101448D01*
X306567D01*
Y106048D01*
G37*
G36*
Y86048D02*X302567D01*
Y81448D01*
X306567D01*
Y86048D01*
G37*
G36*
Y66048D02*X302567D01*
Y61448D01*
X306567D01*
Y66048D01*
G37*
G36*
Y46048D02*X302567D01*
Y41448D01*
X306567D01*
Y46048D01*
G37*
G36*
X298767D02*X294767D01*
Y41448D01*
X298767D01*
Y46048D01*
G37*
G36*
X302667Y37848D02*X298667D01*
Y33248D01*
X302667D01*
Y37848D01*
G37*
G36*
Y77848D02*X298667D01*
Y73248D01*
X302667D01*
Y77848D01*
G37*
G36*
Y57848D02*X298667D01*
Y53248D01*
X302667D01*
Y57848D01*
G37*
G36*
X303425Y89425D02*X300857D01*
Y86071D01*
X303425D01*
Y89425D01*
G37*
G36*
X300277D02*X297709D01*
Y86071D01*
X300277D01*
Y89425D01*
G37*
G36*
X303425Y69425D02*X300857D01*
Y66071D01*
X303425D01*
Y69425D01*
G37*
G36*
Y49425D02*X300857D01*
Y46071D01*
X303425D01*
Y49425D01*
G37*
G36*
X300277D02*X297709D01*
Y46071D01*
X300277D01*
Y49425D01*
G37*
G36*
X292567Y506048D02*X288567D01*
Y501448D01*
X292567D01*
Y506048D01*
G37*
G36*
X298767D02*X294767D01*
Y501448D01*
X298767D01*
Y506048D01*
G37*
G36*
X289425Y509425D02*X286857D01*
Y506071D01*
X289425D01*
Y509425D01*
G37*
G36*
X284767Y506048D02*X280767D01*
Y501448D01*
X284767D01*
Y506048D01*
G37*
G36*
X286277Y509425D02*X283709D01*
Y506071D01*
X286277D01*
Y509425D01*
G37*
G36*
X289425Y489425D02*X286857D01*
Y486071D01*
X289425D01*
Y489425D01*
G37*
G36*
X286277D02*X283709D01*
Y486071D01*
X286277D01*
Y489425D01*
G37*
G36*
X306567Y506048D02*X302567D01*
Y501448D01*
X306567D01*
Y506048D01*
G37*
G36*
Y486048D02*X302567D01*
Y481448D01*
X306567D01*
Y486048D01*
G37*
G36*
X298767D02*X294767D01*
Y481448D01*
X298767D01*
Y486048D01*
G37*
G36*
X303425Y489425D02*X300857D01*
Y486071D01*
X303425D01*
Y489425D01*
G37*
G36*
X300277D02*X297709D01*
Y486071D01*
X300277D01*
Y489425D01*
G37*
G36*
X303425Y509425D02*X300857D01*
Y506071D01*
X303425D01*
Y509425D01*
G37*
G36*
X300277D02*X297709D01*
Y506071D01*
X300277D01*
Y509425D01*
G37*
G36*
X292567Y486048D02*X288567D01*
Y481448D01*
X292567D01*
Y486048D01*
G37*
G36*
X284767D02*X280767D01*
Y481448D01*
X284767D01*
Y486048D01*
G37*
G36*
X288667Y477848D02*X284667D01*
Y473248D01*
X288667D01*
Y477848D01*
G37*
G36*
X289425Y469425D02*X286857D01*
Y466071D01*
X289425D01*
Y469425D01*
G37*
G36*
X286277D02*X283709D01*
Y466071D01*
X286277D01*
Y469425D01*
G37*
G36*
X302667Y477848D02*X298667D01*
Y473248D01*
X302667D01*
Y477848D01*
G37*
G36*
X306567Y466048D02*X302567D01*
Y461448D01*
X306567D01*
Y466048D01*
G37*
G36*
X298767D02*X294767D01*
Y461448D01*
X298767D01*
Y466048D01*
G37*
G36*
X302667Y457848D02*X298667D01*
Y453248D01*
X302667D01*
Y457848D01*
G37*
G36*
X303425Y469425D02*X300857D01*
Y466071D01*
X303425D01*
Y469425D01*
G37*
G36*
X300277D02*X297709D01*
Y466071D01*
X300277D01*
Y469425D01*
G37*
G36*
X306567Y446048D02*X302567D01*
Y441448D01*
X306567D01*
Y446048D01*
G37*
G36*
X308299Y443083D02*Y439531D01*
X312835D01*
Y443083D01*
X308299D01*
G37*
G36*
Y437965D02*Y434413D01*
X312835D01*
Y437965D01*
X308299D01*
G37*
G36*
X303425Y449425D02*X300857D01*
Y446071D01*
X303425D01*
Y449425D01*
G37*
G36*
X298767Y446048D02*X294767D01*
Y441448D01*
X298767D01*
Y446048D01*
G37*
G36*
X300277Y449425D02*X297709D01*
Y446071D01*
X300277D01*
Y449425D01*
G37*
G36*
X322267Y457748D02*Y453748D01*
X326867D01*
Y457748D01*
X322267D01*
G37*
G36*
Y437748D02*Y433748D01*
X326867D01*
Y437748D01*
X322267D01*
G37*
G36*
Y445548D02*Y441548D01*
X326867D01*
Y445548D01*
X322267D01*
G37*
G36*
Y465548D02*Y461548D01*
X326867D01*
Y465548D01*
X322267D01*
G37*
G36*
X308299Y463083D02*Y459531D01*
X312835D01*
Y463083D01*
X308299D01*
G37*
G36*
Y457965D02*Y454413D01*
X312835D01*
Y457965D01*
X308299D01*
G37*
G36*
X314067Y461648D02*Y457648D01*
X318667D01*
Y461648D01*
X314067D01*
G37*
G36*
Y441648D02*Y437648D01*
X318667D01*
Y441648D01*
X314067D01*
G37*
G36*
X312277Y509425D02*X309709D01*
Y506071D01*
X312277D01*
Y509425D01*
G37*
G36*
X308299Y503083D02*Y499531D01*
X312835D01*
Y503083D01*
X308299D01*
G37*
G36*
Y497965D02*Y494413D01*
X312835D01*
Y497965D01*
X308299D01*
G37*
G36*
X315425Y509425D02*X312857D01*
Y506071D01*
X315425D01*
Y509425D01*
G37*
G36*
X322267Y505548D02*Y501548D01*
X326867D01*
Y505548D01*
X322267D01*
G37*
G36*
X314067Y501648D02*Y497648D01*
X318667D01*
Y501648D01*
X314067D01*
G37*
G36*
X322267Y477748D02*Y473748D01*
X326867D01*
Y477748D01*
X322267D01*
G37*
G36*
Y485548D02*Y481548D01*
X326867D01*
Y485548D01*
X322267D01*
G37*
G36*
X314067Y481648D02*Y477648D01*
X318667D01*
Y481648D01*
X314067D01*
G37*
G36*
X288667Y497848D02*X284667D01*
Y493248D01*
X288667D01*
Y497848D01*
G37*
G36*
X302667D02*X298667D01*
Y493248D01*
X302667D01*
Y497848D01*
G37*
G36*
X322267Y497748D02*Y493748D01*
X326867D01*
Y497748D01*
X322267D01*
G37*
G36*
X312277Y489425D02*X309709D01*
Y486071D01*
X312277D01*
Y489425D01*
G37*
G36*
X315425D02*X312857D01*
Y486071D01*
X315425D01*
Y489425D01*
G37*
G36*
X308299Y483083D02*Y479531D01*
X312835D01*
Y483083D01*
X308299D01*
G37*
G36*
Y477965D02*Y474413D01*
X312835D01*
Y477965D01*
X308299D01*
G37*
G36*
X292567Y466048D02*X288567D01*
Y461448D01*
X292567D01*
Y466048D01*
G37*
G36*
X284767D02*X280767D01*
Y461448D01*
X284767D01*
Y466048D01*
G37*
G36*
X288667Y437848D02*X284667D01*
Y433248D01*
X288667D01*
Y437848D01*
G37*
G36*
Y457848D02*X284667D01*
Y453248D01*
X288667D01*
Y457848D01*
G37*
G36*
X284767Y446048D02*X280767D01*
Y441448D01*
X284767D01*
Y446048D01*
G37*
G36*
X286277Y449425D02*X283709D01*
Y446071D01*
X286277D01*
Y449425D01*
G37*
G36*
X292567Y446048D02*X288567D01*
Y441448D01*
X292567D01*
Y446048D01*
G37*
G36*
X289425Y449425D02*X286857D01*
Y446071D01*
X289425D01*
Y449425D01*
G37*
G36*
X333767Y446048D02*X329767D01*
Y441448D01*
X333767D01*
Y446048D01*
G37*
G36*
Y426048D02*X329767D01*
Y421448D01*
X333767D01*
Y426048D01*
G37*
G36*
Y406048D02*X329767D01*
Y401448D01*
X333767D01*
Y406048D01*
G37*
G36*
X337667Y497848D02*X333667D01*
Y493248D01*
X337667D01*
Y497848D01*
G37*
G36*
Y477848D02*X333667D01*
Y473248D01*
X337667D01*
Y477848D01*
G37*
G36*
Y457848D02*X333667D01*
Y453248D01*
X337667D01*
Y457848D01*
G37*
G36*
Y437848D02*X333667D01*
Y433248D01*
X337667D01*
Y437848D01*
G37*
G36*
Y417848D02*X333667D01*
Y413248D01*
X337667D01*
Y417848D01*
G37*
G36*
Y397848D02*X333667D01*
Y393248D01*
X337667D01*
Y397848D01*
G37*
G36*
X341567Y446048D02*X337567D01*
Y441448D01*
X341567D01*
Y446048D01*
G37*
G36*
Y426048D02*X337567D01*
Y421448D01*
X341567D01*
Y426048D01*
G37*
G36*
Y406048D02*X337567D01*
Y401448D01*
X341567D01*
Y406048D01*
G37*
G36*
X314067Y401648D02*Y397648D01*
X318667D01*
Y401648D01*
X314067D01*
G37*
G36*
X308299Y403083D02*Y399531D01*
X312835D01*
Y403083D01*
X308299D01*
G37*
G36*
Y397965D02*Y394413D01*
X312835D01*
Y397965D01*
X308299D01*
G37*
G36*
Y423083D02*Y419531D01*
X312835D01*
Y423083D01*
X308299D01*
G37*
G36*
Y417965D02*Y414413D01*
X312835D01*
Y417965D01*
X308299D01*
G37*
G36*
X372417Y458798D02*X368917D01*
Y454698D01*
X372417D01*
Y458798D01*
G37*
G36*
X369917Y465798D02*X366417D01*
Y461698D01*
X369917D01*
Y465798D01*
G37*
G36*
X372417Y438798D02*X368917D01*
Y434698D01*
X372417D01*
Y438798D01*
G37*
G36*
X369917Y445798D02*X366417D01*
Y441698D01*
X369917D01*
Y445798D01*
G37*
G36*
X382417Y458798D02*X378917D01*
Y454698D01*
X382417D01*
Y458798D01*
G37*
G36*
X379917Y465798D02*X376417D01*
Y461698D01*
X379917D01*
Y465798D01*
G37*
G36*
X382417Y438798D02*X378917D01*
Y434698D01*
X382417D01*
Y438798D01*
G37*
G36*
X379917Y445798D02*X376417D01*
Y441698D01*
X379917D01*
Y445798D01*
G37*
G36*
X377317Y418798D02*X373817D01*
Y414698D01*
X377317D01*
Y418798D01*
G37*
G36*
X382417D02*X378917D01*
Y414698D01*
X382417D01*
Y418798D01*
G37*
G36*
X379917Y425798D02*X376417D01*
Y421698D01*
X379917D01*
Y425798D01*
G37*
G36*
X377317Y398798D02*X373817D01*
Y394698D01*
X377317D01*
Y398798D01*
G37*
G36*
X382417D02*X378917D01*
Y394698D01*
X382417D01*
Y398798D01*
G37*
G36*
X379917Y405798D02*X376417D01*
Y401698D01*
X379917D01*
Y405798D01*
G37*
G36*
X367317Y498798D02*X363817D01*
Y494698D01*
X367317D01*
Y498798D01*
G37*
G36*
Y478798D02*X363817D01*
Y474698D01*
X367317D01*
Y478798D01*
G37*
G36*
Y458798D02*X363817D01*
Y454698D01*
X367317D01*
Y458798D01*
G37*
G36*
Y438798D02*X363817D01*
Y434698D01*
X367317D01*
Y438798D01*
G37*
G36*
X377317Y498798D02*X373817D01*
Y494698D01*
X377317D01*
Y498798D01*
G37*
G36*
Y478798D02*X373817D01*
Y474698D01*
X377317D01*
Y478798D01*
G37*
G36*
Y458798D02*X373817D01*
Y454698D01*
X377317D01*
Y458798D01*
G37*
G36*
Y438798D02*X373817D01*
Y434698D01*
X377317D01*
Y438798D01*
G37*
G36*
X361445Y476024D02*X358689D01*
Y472087D01*
X361445D01*
Y476024D01*
G37*
G36*
Y462717D02*X358689D01*
Y458780D01*
X361445D01*
Y462717D01*
G37*
G36*
Y456024D02*X358689D01*
Y452087D01*
X361445D01*
Y456024D01*
G37*
G36*
Y442717D02*X358689D01*
Y438780D01*
X361445D01*
Y442717D01*
G37*
G36*
Y436024D02*X358689D01*
Y432087D01*
X361445D01*
Y436024D01*
G37*
G36*
X352890Y455458D02*Y452890D01*
X356244D01*
Y455458D01*
X352890D01*
G37*
G36*
Y458606D02*Y456038D01*
X356244D01*
Y458606D01*
X352890D01*
G37*
G36*
Y435458D02*Y432890D01*
X356244D01*
Y435458D01*
X352890D01*
G37*
G36*
Y438606D02*Y436038D01*
X356244D01*
Y438606D01*
X352890D01*
G37*
G36*
X361445Y422717D02*X358689D01*
Y418780D01*
X361445D01*
Y422717D01*
G37*
G36*
X352890Y415458D02*Y412890D01*
X356244D01*
Y415458D01*
X352890D01*
G37*
G36*
Y418606D02*Y416038D01*
X356244D01*
Y418606D01*
X352890D01*
G37*
G36*
X361445Y416024D02*X358689D01*
Y412087D01*
X361445D01*
Y416024D01*
G37*
G36*
Y402717D02*X358689D01*
Y398780D01*
X361445D01*
Y402717D01*
G37*
G36*
X352890Y395458D02*Y392890D01*
X356244D01*
Y395458D01*
X352890D01*
G37*
G36*
Y398606D02*Y396038D01*
X356244D01*
Y398606D01*
X352890D01*
G37*
G36*
X346617Y458798D02*X344517D01*
Y454698D01*
X346617D01*
Y458798D01*
G37*
G36*
X349217D02*X347117D01*
Y454698D01*
X349217D01*
Y458798D01*
G37*
G36*
X351717D02*X349617D01*
Y454698D01*
X351717D01*
Y458798D01*
G37*
G36*
Y465798D02*X349617D01*
Y461698D01*
X351717D01*
Y465798D01*
G37*
G36*
X349217D02*X347117D01*
Y461698D01*
X349217D01*
Y465798D01*
G37*
G36*
X346617D02*X344517D01*
Y461698D01*
X346617D01*
Y465798D01*
G37*
G36*
X351717Y445798D02*X349617D01*
Y441698D01*
X351717D01*
Y445798D01*
G37*
G36*
X349217D02*X347117D01*
Y441698D01*
X349217D01*
Y445798D01*
G37*
G36*
X346617D02*X344517D01*
Y441698D01*
X346617D01*
Y445798D01*
G37*
G36*
Y438798D02*X344517D01*
Y434698D01*
X346617D01*
Y438798D01*
G37*
G36*
X349217D02*X347117D01*
Y434698D01*
X349217D01*
Y438798D01*
G37*
G36*
X351717D02*X349617D01*
Y434698D01*
X351717D01*
Y438798D01*
G37*
G36*
X346617Y418798D02*X344517D01*
Y414698D01*
X346617D01*
Y418798D01*
G37*
G36*
X349217D02*X347117D01*
Y414698D01*
X349217D01*
Y418798D01*
G37*
G36*
X351717D02*X349617D01*
Y414698D01*
X351717D01*
Y418798D01*
G37*
G36*
Y425798D02*X349617D01*
Y421698D01*
X351717D01*
Y425798D01*
G37*
G36*
X349217D02*X347117D01*
Y421698D01*
X349217D01*
Y425798D01*
G37*
G36*
X346617D02*X344517D01*
Y421698D01*
X346617D01*
Y425798D01*
G37*
G36*
Y398798D02*X344517D01*
Y394698D01*
X346617D01*
Y398798D01*
G37*
G36*
Y405798D02*X344517D01*
Y401698D01*
X346617D01*
Y405798D01*
G37*
G36*
X349217Y398798D02*X347117D01*
Y394698D01*
X349217D01*
Y398798D01*
G37*
G36*
X351717D02*X349617D01*
Y394698D01*
X351717D01*
Y398798D01*
G37*
G36*
Y405798D02*X349617D01*
Y401698D01*
X351717D01*
Y405798D01*
G37*
G36*
X349217D02*X347117D01*
Y401698D01*
X349217D01*
Y405798D01*
G37*
G36*
X312277Y469425D02*X309709D01*
Y466071D01*
X312277D01*
Y469425D01*
G37*
G36*
X315425D02*X312857D01*
Y466071D01*
X315425D01*
Y469425D01*
G37*
G36*
X312277Y449425D02*X309709D01*
Y446071D01*
X312277D01*
Y449425D01*
G37*
G36*
X315425D02*X312857D01*
Y446071D01*
X315425D01*
Y449425D01*
G37*
G36*
X333767Y506048D02*X329767D01*
Y501448D01*
X333767D01*
Y506048D01*
G37*
G36*
Y486048D02*X329767D01*
Y481448D01*
X333767D01*
Y486048D01*
G37*
G36*
Y466048D02*X329767D01*
Y461448D01*
X333767D01*
Y466048D01*
G37*
G36*
X372417Y498798D02*X368917D01*
Y494698D01*
X372417D01*
Y498798D01*
G37*
G36*
Y478798D02*X368917D01*
Y474698D01*
X372417D01*
Y478798D01*
G37*
G36*
X369917Y485798D02*X366417D01*
Y481698D01*
X369917D01*
Y485798D01*
G37*
G36*
X382417Y498798D02*X378917D01*
Y494698D01*
X382417D01*
Y498798D01*
G37*
G36*
Y478798D02*X378917D01*
Y474698D01*
X382417D01*
Y478798D01*
G37*
G36*
X379917Y485798D02*X376417D01*
Y481698D01*
X379917D01*
Y485798D01*
G37*
G36*
X361445Y502717D02*X358689D01*
Y498780D01*
X361445D01*
Y502717D01*
G37*
G36*
Y496024D02*X358689D01*
Y492087D01*
X361445D01*
Y496024D01*
G37*
G36*
Y482717D02*X358689D01*
Y478780D01*
X361445D01*
Y482717D01*
G37*
G36*
X352890Y495458D02*Y492890D01*
X356244D01*
Y495458D01*
X352890D01*
G37*
G36*
Y475458D02*Y472890D01*
X356244D01*
Y475458D01*
X352890D01*
G37*
G36*
Y478606D02*Y476038D01*
X356244D01*
Y478606D01*
X352890D01*
G37*
G36*
Y498606D02*Y496038D01*
X356244D01*
Y498606D01*
X352890D01*
G37*
G36*
X341567Y506048D02*X337567D01*
Y501448D01*
X341567D01*
Y506048D01*
G37*
G36*
Y486048D02*X337567D01*
Y481448D01*
X341567D01*
Y486048D01*
G37*
G36*
Y466048D02*X337567D01*
Y461448D01*
X341567D01*
Y466048D01*
G37*
G36*
X346617Y498798D02*X344517D01*
Y494698D01*
X346617D01*
Y498798D01*
G37*
G36*
Y505798D02*X344517D01*
Y501698D01*
X346617D01*
Y505798D01*
G37*
G36*
X349217Y498798D02*X347117D01*
Y494698D01*
X349217D01*
Y498798D01*
G37*
G36*
Y505798D02*X347117D01*
Y501698D01*
X349217D01*
Y505798D01*
G37*
G36*
X351717Y498798D02*X349617D01*
Y494698D01*
X351717D01*
Y498798D01*
G37*
G36*
Y505798D02*X349617D01*
Y501698D01*
X351717D01*
Y505798D01*
G37*
G36*
X346617Y478798D02*X344517D01*
Y474698D01*
X346617D01*
Y478798D01*
G37*
G36*
X349217D02*X347117D01*
Y474698D01*
X349217D01*
Y478798D01*
G37*
G36*
X351717D02*X349617D01*
Y474698D01*
X351717D01*
Y478798D01*
G37*
G36*
Y485798D02*X349617D01*
Y481698D01*
X351717D01*
Y485798D01*
G37*
G36*
X349217D02*X347117D01*
Y481698D01*
X349217D01*
Y485798D01*
G37*
G36*
X346617D02*X344517D01*
Y481698D01*
X346617D01*
Y485798D01*
G37*
G36*
X369917Y505798D02*X366417D01*
Y501698D01*
X369917D01*
Y505798D01*
G37*
G36*
X379917D02*X376417D01*
Y501698D01*
X379917D01*
Y505798D01*
G37*
G36*
X388567Y509748D02*Y506748D01*
X398067D01*
Y509748D01*
X388567D01*
G37*
G36*
Y504748D02*Y501748D01*
X398067D01*
Y504748D01*
X388567D01*
G37*
G36*
Y499748D02*Y496748D01*
X398067D01*
Y499748D01*
X388567D01*
G37*
G36*
Y494748D02*Y491748D01*
X398067D01*
Y494748D01*
X388567D01*
G37*
G36*
Y489748D02*Y486748D01*
X398067D01*
Y489748D01*
X388567D01*
G37*
G36*
Y484748D02*Y481748D01*
X398067D01*
Y484748D01*
X388567D01*
G37*
G36*
Y479748D02*Y476748D01*
X398067D01*
Y479748D01*
X388567D01*
G37*
G36*
Y474748D02*Y471748D01*
X398067D01*
Y474748D01*
X388567D01*
G37*
G36*
X409784Y517016D02*X406232D01*
Y512480D01*
X409784D01*
Y517016D01*
G37*
G36*
X401843D02*X398291D01*
Y512480D01*
X401843D01*
Y517016D01*
G37*
G36*
X396725D02*X393173D01*
Y512480D01*
X396725D01*
Y517016D01*
G37*
G36*
X409067Y421748D02*Y418748D01*
X418567D01*
Y421748D01*
X409067D01*
G37*
G36*
Y426748D02*Y423748D01*
X418567D01*
Y426748D01*
X409067D01*
G37*
G36*
Y431748D02*Y428748D01*
X418567D01*
Y431748D01*
X409067D01*
G37*
G36*
Y398748D02*Y395748D01*
X418567D01*
Y398748D01*
X409067D01*
G37*
G36*
Y403748D02*Y400748D01*
X418567D01*
Y403748D01*
X409067D01*
G37*
G36*
X414902Y411016D02*X411350D01*
Y406480D01*
X414902D01*
Y411016D01*
G37*
G36*
X388567Y426748D02*Y423748D01*
X398067D01*
Y426748D01*
X388567D01*
G37*
G36*
Y421748D02*Y418748D01*
X398067D01*
Y421748D01*
X388567D01*
G37*
G36*
Y403748D02*Y400748D01*
X398067D01*
Y403748D01*
X388567D01*
G37*
G36*
Y398748D02*Y395748D01*
X398067D01*
Y398748D01*
X388567D01*
G37*
G36*
X396784Y411016D02*X393232D01*
Y406480D01*
X396784D01*
Y411016D01*
G37*
G36*
X409784D02*X406232D01*
Y406480D01*
X409784D01*
Y411016D01*
G37*
G36*
X401902D02*X398350D01*
Y406480D01*
X401902D01*
Y411016D01*
G37*
G36*
X409067Y436748D02*Y433748D01*
X418567D01*
Y436748D01*
X409067D01*
G37*
G36*
X388567D02*Y433748D01*
X398067D01*
Y436748D01*
X388567D01*
G37*
G36*
Y431748D02*Y428748D01*
X398067D01*
Y431748D01*
X388567D01*
G37*
G36*
X409067Y441748D02*Y438748D01*
X418567D01*
Y441748D01*
X409067D01*
G37*
G36*
X388567D02*Y438748D01*
X398067D01*
Y441748D01*
X388567D01*
G37*
G36*
X409067Y446748D02*Y443748D01*
X418567D01*
Y446748D01*
X409067D01*
G37*
G36*
X388567D02*Y443748D01*
X398067D01*
Y446748D01*
X388567D01*
G37*
G36*
X409067Y451748D02*Y448748D01*
X418567D01*
Y451748D01*
X409067D01*
G37*
G36*
X388567D02*Y448748D01*
X398067D01*
Y451748D01*
X388567D01*
G37*
G36*
X409067Y456748D02*Y453748D01*
X418567D01*
Y456748D01*
X409067D01*
G37*
G36*
X388567D02*Y453748D01*
X398067D01*
Y456748D01*
X388567D01*
G37*
G36*
X414902Y464016D02*X411350D01*
Y459480D01*
X414902D01*
Y464016D01*
G37*
G36*
X409784D02*X406232D01*
Y459480D01*
X409784D01*
Y464016D01*
G37*
G36*
X401902D02*X398350D01*
Y459480D01*
X401902D01*
Y464016D01*
G37*
G36*
X396784D02*X393232D01*
Y459480D01*
X396784D01*
Y464016D01*
G37*
G36*
X409067Y474748D02*Y471748D01*
X418567D01*
Y474748D01*
X409067D01*
G37*
G36*
Y479748D02*Y476748D01*
X418567D01*
Y479748D01*
X409067D01*
G37*
G36*
Y484748D02*Y481748D01*
X418567D01*
Y484748D01*
X409067D01*
G37*
G36*
Y489748D02*Y486748D01*
X418567D01*
Y489748D01*
X409067D01*
G37*
G36*
Y494748D02*Y491748D01*
X418567D01*
Y494748D01*
X409067D01*
G37*
G36*
Y499748D02*Y496748D01*
X418567D01*
Y499748D01*
X409067D01*
G37*
G54D47*X419567Y515248D03*
G54D46*G36*
X409067Y504748D02*Y501748D01*
X418567D01*
Y504748D01*
X409067D01*
G37*
G36*
Y509748D02*Y506748D01*
X418567D01*
Y509748D01*
X409067D01*
G37*
G36*
X414902Y517016D02*X411350D01*
Y512480D01*
X414902D01*
Y517016D01*
G37*
G36*
X341567Y346048D02*X337567D01*
Y341448D01*
X341567D01*
Y346048D01*
G37*
G36*
Y326048D02*X337567D01*
Y321448D01*
X341567D01*
Y326048D01*
G37*
G36*
X333767D02*X329767D01*
Y321448D01*
X333767D01*
Y326048D01*
G37*
G36*
X346617Y318798D02*X344517D01*
Y314698D01*
X346617D01*
Y318798D01*
G37*
G36*
Y325798D02*X344517D01*
Y321698D01*
X346617D01*
Y325798D01*
G37*
G36*
X349217Y318798D02*X347117D01*
Y314698D01*
X349217D01*
Y318798D01*
G37*
G36*
X351717D02*X349617D01*
Y314698D01*
X351717D01*
Y318798D01*
G37*
G36*
Y325798D02*X349617D01*
Y321698D01*
X351717D01*
Y325798D01*
G37*
G36*
X349217D02*X347117D01*
Y321698D01*
X349217D01*
Y325798D01*
G37*
G36*
X337667Y317848D02*X333667D01*
Y313248D01*
X337667D01*
Y317848D01*
G37*
G36*
X341567Y306048D02*X337567D01*
Y301448D01*
X341567D01*
Y306048D01*
G37*
G36*
X333767D02*X329767D01*
Y301448D01*
X333767D01*
Y306048D01*
G37*
G36*
X337667Y297848D02*X333667D01*
Y293248D01*
X337667D01*
Y297848D01*
G37*
G36*
X346617Y298798D02*X344517D01*
Y294698D01*
X346617D01*
Y298798D01*
G37*
G36*
X349217D02*X347117D01*
Y294698D01*
X349217D01*
Y298798D01*
G37*
G36*
X351717D02*X349617D01*
Y294698D01*
X351717D01*
Y298798D01*
G37*
G36*
Y305798D02*X349617D01*
Y301698D01*
X351717D01*
Y305798D01*
G37*
G36*
X349217D02*X347117D01*
Y301698D01*
X349217D01*
Y305798D01*
G37*
G36*
X346617D02*X344517D01*
Y301698D01*
X346617D01*
Y305798D01*
G37*
G36*
Y278798D02*X344517D01*
Y274698D01*
X346617D01*
Y278798D01*
G37*
G36*
Y285798D02*X344517D01*
Y281698D01*
X346617D01*
Y285798D01*
G37*
G36*
X349217Y278798D02*X347117D01*
Y274698D01*
X349217D01*
Y278798D01*
G37*
G36*
Y285798D02*X347117D01*
Y281698D01*
X349217D01*
Y285798D01*
G37*
G36*
X351717Y278798D02*X349617D01*
Y274698D01*
X351717D01*
Y278798D01*
G37*
G36*
Y285798D02*X349617D01*
Y281698D01*
X351717D01*
Y285798D01*
G37*
G36*
X346617Y258798D02*X344517D01*
Y254698D01*
X346617D01*
Y258798D01*
G37*
G36*
X349217D02*X347117D01*
Y254698D01*
X349217D01*
Y258798D01*
G37*
G36*
X351717D02*X349617D01*
Y254698D01*
X351717D01*
Y258798D01*
G37*
G36*
Y265798D02*X349617D01*
Y261698D01*
X351717D01*
Y265798D01*
G37*
G36*
X349217D02*X347117D01*
Y261698D01*
X349217D01*
Y265798D01*
G37*
G36*
X346617D02*X344517D01*
Y261698D01*
X346617D01*
Y265798D01*
G37*
G36*
X322267Y277748D02*Y273748D01*
X326867D01*
Y277748D01*
X322267D01*
G37*
G36*
Y257748D02*Y253748D01*
X326867D01*
Y257748D01*
X322267D01*
G37*
G36*
Y265548D02*Y261548D01*
X326867D01*
Y265548D01*
X322267D01*
G37*
G36*
X314067Y261648D02*Y257648D01*
X318667D01*
Y261648D01*
X314067D01*
G37*
G36*
X308299Y263083D02*Y259531D01*
X312835D01*
Y263083D01*
X308299D01*
G37*
G36*
Y257965D02*Y254413D01*
X312835D01*
Y257965D01*
X308299D01*
G37*
G36*
X322267Y285548D02*Y281548D01*
X326867D01*
Y285548D01*
X322267D01*
G37*
G36*
X302667Y317848D02*X298667D01*
Y313248D01*
X302667D01*
Y317848D01*
G37*
G36*
X303425Y329425D02*X300857D01*
Y326071D01*
X303425D01*
Y329425D01*
G37*
G36*
X300277D02*X297709D01*
Y326071D01*
X300277D01*
Y329425D01*
G37*
G36*
X298767Y306048D02*X294767D01*
Y301448D01*
X298767D01*
Y306048D01*
G37*
G36*
X303425Y349425D02*X300857D01*
Y346071D01*
X303425D01*
Y349425D01*
G37*
G36*
X300277D02*X297709D01*
Y346071D01*
X300277D01*
Y349425D01*
G37*
G36*
X292567Y366048D02*X288567D01*
Y361448D01*
X292567D01*
Y366048D01*
G37*
G36*
Y346048D02*X288567D01*
Y341448D01*
X292567D01*
Y346048D01*
G37*
G36*
Y326048D02*X288567D01*
Y321448D01*
X292567D01*
Y326048D01*
G37*
G36*
Y306048D02*X288567D01*
Y301448D01*
X292567D01*
Y306048D01*
G37*
G36*
Y286048D02*X288567D01*
Y281448D01*
X292567D01*
Y286048D01*
G37*
G36*
Y266048D02*X288567D01*
Y261448D01*
X292567D01*
Y266048D01*
G37*
G36*
X288667Y357848D02*X284667D01*
Y353248D01*
X288667D01*
Y357848D01*
G37*
G36*
Y337848D02*X284667D01*
Y333248D01*
X288667D01*
Y337848D01*
G37*
G36*
Y317848D02*X284667D01*
Y313248D01*
X288667D01*
Y317848D01*
G37*
G36*
X289425Y309425D02*X286857D01*
Y306071D01*
X289425D01*
Y309425D01*
G37*
G36*
X286277D02*X283709D01*
Y306071D01*
X286277D01*
Y309425D01*
G37*
G36*
X284767Y306048D02*X280767D01*
Y301448D01*
X284767D01*
Y306048D01*
G37*
G36*
Y286048D02*X280767D01*
Y281448D01*
X284767D01*
Y286048D01*
G37*
G36*
Y266048D02*X280767D01*
Y261448D01*
X284767D01*
Y266048D01*
G37*
G36*
X288667Y297848D02*X284667D01*
Y293248D01*
X288667D01*
Y297848D01*
G37*
G36*
X289425Y289425D02*X286857D01*
Y286071D01*
X289425D01*
Y289425D01*
G37*
G36*
X286277D02*X283709D01*
Y286071D01*
X286277D01*
Y289425D01*
G37*
G36*
X288667Y277848D02*X284667D01*
Y273248D01*
X288667D01*
Y277848D01*
G37*
G36*
Y257848D02*X284667D01*
Y253248D01*
X288667D01*
Y257848D01*
G37*
G36*
X289425Y269425D02*X286857D01*
Y266071D01*
X289425D01*
Y269425D01*
G37*
G36*
X286277D02*X283709D01*
Y266071D01*
X286277D01*
Y269425D01*
G37*
G36*
X289425Y249425D02*X286857D01*
Y246071D01*
X289425D01*
Y249425D01*
G37*
G36*
X286277D02*X283709D01*
Y246071D01*
X286277D01*
Y249425D01*
G37*
G36*
X306567Y306048D02*X302567D01*
Y301448D01*
X306567D01*
Y306048D01*
G37*
G36*
X302667Y297848D02*X298667D01*
Y293248D01*
X302667D01*
Y297848D01*
G37*
G36*
X303425Y309425D02*X300857D01*
Y306071D01*
X303425D01*
Y309425D01*
G37*
G36*
X300277D02*X297709D01*
Y306071D01*
X300277D01*
Y309425D01*
G37*
G36*
X302667Y277848D02*X298667D01*
Y273248D01*
X302667D01*
Y277848D01*
G37*
G36*
X306567Y266048D02*X302567D01*
Y261448D01*
X306567D01*
Y266048D01*
G37*
G36*
X298767D02*X294767D01*
Y261448D01*
X298767D01*
Y266048D01*
G37*
G36*
X303425Y269425D02*X300857D01*
Y266071D01*
X303425D01*
Y269425D01*
G37*
G36*
X300277D02*X297709D01*
Y266071D01*
X300277D01*
Y269425D01*
G37*
G36*
X302667Y257848D02*X298667D01*
Y253248D01*
X302667D01*
Y257848D01*
G37*
G36*
X306567Y286048D02*X302567D01*
Y281448D01*
X306567D01*
Y286048D01*
G37*
G36*
X298767D02*X294767D01*
Y281448D01*
X298767D01*
Y286048D01*
G37*
G36*
X303425Y289425D02*X300857D01*
Y286071D01*
X303425D01*
Y289425D01*
G37*
G36*
X300277D02*X297709D01*
Y286071D01*
X300277D01*
Y289425D01*
G37*
G36*
X303425Y249425D02*X300857D01*
Y246071D01*
X303425D01*
Y249425D01*
G37*
G36*
X300277D02*X297709D01*
Y246071D01*
X300277D01*
Y249425D01*
G37*
G36*
X312277Y429425D02*X309709D01*
Y426071D01*
X312277D01*
Y429425D01*
G37*
G36*
Y409425D02*X309709D01*
Y406071D01*
X312277D01*
Y409425D01*
G37*
G36*
X315425D02*X312857D01*
Y406071D01*
X315425D01*
Y409425D01*
G37*
G36*
Y429425D02*X312857D01*
Y426071D01*
X315425D01*
Y429425D01*
G37*
G36*
X314067Y421648D02*Y417648D01*
X318667D01*
Y421648D01*
X314067D01*
G37*
G36*
X312277Y389425D02*X309709D01*
Y386071D01*
X312277D01*
Y389425D01*
G37*
G36*
X315425D02*X312857D01*
Y386071D01*
X315425D01*
Y389425D01*
G37*
G36*
X312277Y369425D02*X309709D01*
Y366071D01*
X312277D01*
Y369425D01*
G37*
G36*
X315425D02*X312857D01*
Y366071D01*
X315425D01*
Y369425D01*
G37*
G36*
X314067Y381648D02*Y377648D01*
X318667D01*
Y381648D01*
X314067D01*
G37*
G36*
Y361648D02*Y357648D01*
X318667D01*
Y361648D01*
X314067D01*
G37*
G36*
X308299Y383083D02*Y379531D01*
X312835D01*
Y383083D01*
X308299D01*
G37*
G36*
Y377965D02*Y374413D01*
X312835D01*
Y377965D01*
X308299D01*
G37*
G36*
Y363083D02*Y359531D01*
X312835D01*
Y363083D01*
X308299D01*
G37*
G36*
Y357965D02*Y354413D01*
X312835D01*
Y357965D01*
X308299D01*
G37*
G36*
X333767Y386048D02*X329767D01*
Y381448D01*
X333767D01*
Y386048D01*
G37*
G36*
Y366048D02*X329767D01*
Y361448D01*
X333767D01*
Y366048D01*
G37*
G36*
Y346048D02*X329767D01*
Y341448D01*
X333767D01*
Y346048D01*
G37*
G36*
X337667Y377848D02*X333667D01*
Y373248D01*
X337667D01*
Y377848D01*
G37*
G36*
Y357848D02*X333667D01*
Y353248D01*
X337667D01*
Y357848D01*
G37*
G36*
Y337848D02*X333667D01*
Y333248D01*
X337667D01*
Y337848D01*
G37*
G36*
X346617Y358798D02*X344517D01*
Y354698D01*
X346617D01*
Y358798D01*
G37*
G36*
Y338798D02*X344517D01*
Y334698D01*
X346617D01*
Y338798D01*
G37*
G36*
Y345798D02*X344517D01*
Y341698D01*
X346617D01*
Y345798D01*
G37*
G36*
X349217Y338798D02*X347117D01*
Y334698D01*
X349217D01*
Y338798D01*
G37*
G36*
Y345798D02*X347117D01*
Y341698D01*
X349217D01*
Y345798D01*
G37*
G36*
X351717Y338798D02*X349617D01*
Y334698D01*
X351717D01*
Y338798D01*
G37*
G36*
Y345798D02*X349617D01*
Y341698D01*
X351717D01*
Y345798D01*
G37*
G36*
X341567Y386048D02*X337567D01*
Y381448D01*
X341567D01*
Y386048D01*
G37*
G36*
X351717Y385798D02*X349617D01*
Y381698D01*
X351717D01*
Y385798D01*
G37*
G36*
X349217D02*X347117D01*
Y381698D01*
X349217D01*
Y385798D01*
G37*
G36*
X346617D02*X344517D01*
Y381698D01*
X346617D01*
Y385798D01*
G37*
G36*
X341567Y366048D02*X337567D01*
Y361448D01*
X341567D01*
Y366048D01*
G37*
G36*
X351717Y365798D02*X349617D01*
Y361698D01*
X351717D01*
Y365798D01*
G37*
G36*
X349217D02*X347117D01*
Y361698D01*
X349217D01*
Y365798D01*
G37*
G36*
X346617D02*X344517D01*
Y361698D01*
X346617D01*
Y365798D01*
G37*
G36*
X349217Y358798D02*X347117D01*
Y354698D01*
X349217D01*
Y358798D01*
G37*
G36*
X351717D02*X349617D01*
Y354698D01*
X351717D01*
Y358798D01*
G37*
G36*
X346617Y378798D02*X344517D01*
Y374698D01*
X346617D01*
Y378798D01*
G37*
G36*
X349217D02*X347117D01*
Y374698D01*
X349217D01*
Y378798D01*
G37*
G36*
X351717D02*X349617D01*
Y374698D01*
X351717D01*
Y378798D01*
G37*
G36*
X322267Y417748D02*Y413748D01*
X326867D01*
Y417748D01*
X322267D01*
G37*
G36*
Y425548D02*Y421548D01*
X326867D01*
Y425548D01*
X322267D01*
G37*
G36*
Y397748D02*Y393748D01*
X326867D01*
Y397748D01*
X322267D01*
G37*
G36*
Y405548D02*Y401548D01*
X326867D01*
Y405548D01*
X322267D01*
G37*
G36*
Y377748D02*Y373748D01*
X326867D01*
Y377748D01*
X322267D01*
G37*
G36*
Y385548D02*Y381548D01*
X326867D01*
Y385548D01*
X322267D01*
G37*
G36*
Y357748D02*Y353748D01*
X326867D01*
Y357748D01*
X322267D01*
G37*
G36*
Y365548D02*Y361548D01*
X326867D01*
Y365548D01*
X322267D01*
G37*
G36*
Y337748D02*Y333748D01*
X326867D01*
Y337748D01*
X322267D01*
G37*
G36*
Y345548D02*Y341548D01*
X326867D01*
Y345548D01*
X322267D01*
G37*
G36*
Y317748D02*Y313748D01*
X326867D01*
Y317748D01*
X322267D01*
G37*
G36*
Y325548D02*Y321548D01*
X326867D01*
Y325548D01*
X322267D01*
G37*
G36*
Y297748D02*Y293748D01*
X326867D01*
Y297748D01*
X322267D01*
G37*
G36*
Y305548D02*Y301548D01*
X326867D01*
Y305548D01*
X322267D01*
G37*
G36*
X312277Y349425D02*X309709D01*
Y346071D01*
X312277D01*
Y349425D01*
G37*
G36*
X315425D02*X312857D01*
Y346071D01*
X315425D01*
Y349425D01*
G37*
G36*
X314067Y341648D02*Y337648D01*
X318667D01*
Y341648D01*
X314067D01*
G37*
G36*
X312277Y329425D02*X309709D01*
Y326071D01*
X312277D01*
Y329425D01*
G37*
G36*
X315425D02*X312857D01*
Y326071D01*
X315425D01*
Y329425D01*
G37*
G36*
Y309425D02*X312857D01*
Y306071D01*
X315425D01*
Y309425D01*
G37*
G36*
X314067Y321648D02*Y317648D01*
X318667D01*
Y321648D01*
X314067D01*
G37*
G36*
X308299Y323083D02*Y319531D01*
X312835D01*
Y323083D01*
X308299D01*
G37*
G36*
Y317965D02*Y314413D01*
X312835D01*
Y317965D01*
X308299D01*
G37*
G36*
Y343083D02*Y339531D01*
X312835D01*
Y343083D01*
X308299D01*
G37*
G36*
Y337965D02*Y334413D01*
X312835D01*
Y337965D01*
X308299D01*
G37*
G36*
X312277Y309425D02*X309709D01*
Y306071D01*
X312277D01*
Y309425D01*
G37*
G36*
X314067Y301648D02*Y297648D01*
X318667D01*
Y301648D01*
X314067D01*
G37*
G36*
X308299Y303083D02*Y299531D01*
X312835D01*
Y303083D01*
X308299D01*
G37*
G36*
Y297965D02*Y294413D01*
X312835D01*
Y297965D01*
X308299D01*
G37*
G36*
X314067Y281648D02*Y277648D01*
X318667D01*
Y281648D01*
X314067D01*
G37*
G36*
X308299Y283083D02*Y279531D01*
X312835D01*
Y283083D01*
X308299D01*
G37*
G36*
Y277965D02*Y274413D01*
X312835D01*
Y277965D01*
X308299D01*
G37*
G36*
X292567Y426048D02*X288567D01*
Y421448D01*
X292567D01*
Y426048D01*
G37*
G36*
Y406048D02*X288567D01*
Y401448D01*
X292567D01*
Y406048D01*
G37*
G36*
Y386048D02*X288567D01*
Y381448D01*
X292567D01*
Y386048D01*
G37*
G36*
X289425Y429425D02*X286857D01*
Y426071D01*
X289425D01*
Y429425D01*
G37*
G36*
Y409425D02*X286857D01*
Y406071D01*
X289425D01*
Y409425D01*
G37*
G36*
Y389425D02*X286857D01*
Y386071D01*
X289425D01*
Y389425D01*
G37*
G36*
X284767Y426048D02*X280767D01*
Y421448D01*
X284767D01*
Y426048D01*
G37*
G36*
Y406048D02*X280767D01*
Y401448D01*
X284767D01*
Y406048D01*
G37*
G36*
Y386048D02*X280767D01*
Y381448D01*
X284767D01*
Y386048D01*
G37*
G36*
Y366048D02*X280767D01*
Y361448D01*
X284767D01*
Y366048D01*
G37*
G36*
Y346048D02*X280767D01*
Y341448D01*
X284767D01*
Y346048D01*
G37*
G36*
Y326048D02*X280767D01*
Y321448D01*
X284767D01*
Y326048D01*
G37*
G36*
X288667Y417848D02*X284667D01*
Y413248D01*
X288667D01*
Y417848D01*
G37*
G36*
Y397848D02*X284667D01*
Y393248D01*
X288667D01*
Y397848D01*
G37*
G36*
Y377848D02*X284667D01*
Y373248D01*
X288667D01*
Y377848D01*
G37*
G36*
X286277Y429425D02*X283709D01*
Y426071D01*
X286277D01*
Y429425D01*
G37*
G36*
Y409425D02*X283709D01*
Y406071D01*
X286277D01*
Y409425D01*
G37*
G36*
Y389425D02*X283709D01*
Y386071D01*
X286277D01*
Y389425D01*
G37*
G36*
X289425Y369425D02*X286857D01*
Y366071D01*
X289425D01*
Y369425D01*
G37*
G36*
X286277D02*X283709D01*
Y366071D01*
X286277D01*
Y369425D01*
G37*
G36*
X289425Y349425D02*X286857D01*
Y346071D01*
X289425D01*
Y349425D01*
G37*
G36*
X286277D02*X283709D01*
Y346071D01*
X286277D01*
Y349425D01*
G37*
G36*
X289425Y329425D02*X286857D01*
Y326071D01*
X289425D01*
Y329425D01*
G37*
G36*
X286277D02*X283709D01*
Y326071D01*
X286277D01*
Y329425D01*
G37*
G36*
X302667Y437848D02*X298667D01*
Y433248D01*
X302667D01*
Y437848D01*
G37*
G36*
X306567Y426048D02*X302567D01*
Y421448D01*
X306567D01*
Y426048D01*
G37*
G36*
X302667Y417848D02*X298667D01*
Y413248D01*
X302667D01*
Y417848D01*
G37*
G36*
X298767Y426048D02*X294767D01*
Y421448D01*
X298767D01*
Y426048D01*
G37*
G36*
X303425Y429425D02*X300857D01*
Y426071D01*
X303425D01*
Y429425D01*
G37*
G36*
X300277D02*X297709D01*
Y426071D01*
X300277D01*
Y429425D01*
G37*
G36*
X302667Y377848D02*X298667D01*
Y373248D01*
X302667D01*
Y377848D01*
G37*
G36*
X306567Y366048D02*X302567D01*
Y361448D01*
X306567D01*
Y366048D01*
G37*
G36*
X298767D02*X294767D01*
Y361448D01*
X298767D01*
Y366048D01*
G37*
G36*
X302667Y357848D02*X298667D01*
Y353248D01*
X302667D01*
Y357848D01*
G37*
G36*
X306567Y346048D02*X302567D01*
Y341448D01*
X306567D01*
Y346048D01*
G37*
G36*
X298767D02*X294767D01*
Y341448D01*
X298767D01*
Y346048D01*
G37*
G36*
X302667Y337848D02*X298667D01*
Y333248D01*
X302667D01*
Y337848D01*
G37*
G36*
X306567Y326048D02*X302567D01*
Y321448D01*
X306567D01*
Y326048D01*
G37*
G36*
X298767D02*X294767D01*
Y321448D01*
X298767D01*
Y326048D01*
G37*
G36*
X303425Y369425D02*X300857D01*
Y366071D01*
X303425D01*
Y369425D01*
G37*
G36*
X300277D02*X297709D01*
Y366071D01*
X300277D01*
Y369425D01*
G37*
G36*
X302667Y397848D02*X298667D01*
Y393248D01*
X302667D01*
Y397848D01*
G37*
G36*
X306567Y386048D02*X302567D01*
Y381448D01*
X306567D01*
Y386048D01*
G37*
G36*
X298767D02*X294767D01*
Y381448D01*
X298767D01*
Y386048D01*
G37*
G36*
X303425Y389425D02*X300857D01*
Y386071D01*
X303425D01*
Y389425D01*
G37*
G36*
X300277D02*X297709D01*
Y386071D01*
X300277D01*
Y389425D01*
G37*
G36*
X306567Y406048D02*X302567D01*
Y401448D01*
X306567D01*
Y406048D01*
G37*
G36*
X298767D02*X294767D01*
Y401448D01*
X298767D01*
Y406048D01*
G37*
G36*
X303425Y409425D02*X300857D01*
Y406071D01*
X303425D01*
Y409425D01*
G37*
G36*
X300277D02*X297709D01*
Y406071D01*
X300277D01*
Y409425D01*
G37*
G36*
X409067Y156748D02*Y153748D01*
X418567D01*
Y156748D01*
X409067D01*
G37*
G36*
Y161748D02*Y158748D01*
X418567D01*
Y161748D01*
X409067D01*
G37*
G36*
Y166748D02*Y163748D01*
X418567D01*
Y166748D01*
X409067D01*
G37*
G36*
X388567D02*Y163748D01*
X398067D01*
Y166748D01*
X388567D01*
G37*
G36*
Y161748D02*Y158748D01*
X398067D01*
Y161748D01*
X388567D01*
G37*
G36*
Y156748D02*Y153748D01*
X398067D01*
Y156748D01*
X388567D01*
G37*
G36*
X409067Y171748D02*Y168748D01*
X418567D01*
Y171748D01*
X409067D01*
G37*
G36*
X388567D02*Y168748D01*
X398067D01*
Y171748D01*
X388567D01*
G37*
G36*
X409067Y176748D02*Y173748D01*
X418567D01*
Y176748D01*
X409067D01*
G37*
G36*
X388567D02*Y173748D01*
X398067D01*
Y176748D01*
X388567D01*
G37*
G36*
X409067Y103748D02*Y100748D01*
X418567D01*
Y103748D01*
X409067D01*
G37*
G36*
Y108748D02*Y105748D01*
X418567D01*
Y108748D01*
X409067D01*
G37*
G36*
Y113748D02*Y110748D01*
X418567D01*
Y113748D01*
X409067D01*
G37*
G36*
Y118748D02*Y115748D01*
X418567D01*
Y118748D01*
X409067D01*
G37*
G36*
Y123748D02*Y120748D01*
X418567D01*
Y123748D01*
X409067D01*
G37*
G36*
Y128748D02*Y125748D01*
X418567D01*
Y128748D01*
X409067D01*
G37*
G36*
Y133748D02*Y130748D01*
X418567D01*
Y133748D01*
X409067D01*
G37*
G36*
Y138748D02*Y135748D01*
X418567D01*
Y138748D01*
X409067D01*
G37*
G36*
X414902Y146016D02*X411350D01*
Y141480D01*
X414902D01*
Y146016D01*
G37*
G36*
X409784D02*X406232D01*
Y141480D01*
X409784D01*
Y146016D01*
G37*
G36*
X401902D02*X398350D01*
Y141480D01*
X401902D01*
Y146016D01*
G37*
G36*
X388567Y138748D02*Y135748D01*
X398067D01*
Y138748D01*
X388567D01*
G37*
G36*
Y133748D02*Y130748D01*
X398067D01*
Y133748D01*
X388567D01*
G37*
G36*
Y128748D02*Y125748D01*
X398067D01*
Y128748D01*
X388567D01*
G37*
G36*
Y123748D02*Y120748D01*
X398067D01*
Y123748D01*
X388567D01*
G37*
G36*
Y118748D02*Y115748D01*
X398067D01*
Y118748D01*
X388567D01*
G37*
G36*
Y113748D02*Y110748D01*
X398067D01*
Y113748D01*
X388567D01*
G37*
G36*
X396784Y146016D02*X393232D01*
Y141480D01*
X396784D01*
Y146016D01*
G37*
G36*
X409067Y50748D02*Y47748D01*
X418567D01*
Y50748D01*
X409067D01*
G37*
G36*
Y55748D02*Y52748D01*
X418567D01*
Y55748D01*
X409067D01*
G37*
G36*
Y60748D02*Y57748D01*
X418567D01*
Y60748D01*
X409067D01*
G37*
G36*
Y65748D02*Y62748D01*
X418567D01*
Y65748D01*
X409067D01*
G37*
G36*
Y70748D02*Y67748D01*
X418567D01*
Y70748D01*
X409067D01*
G37*
G36*
Y75748D02*Y72748D01*
X418567D01*
Y75748D01*
X409067D01*
G37*
G36*
Y80748D02*Y77748D01*
X418567D01*
Y80748D01*
X409067D01*
G37*
G36*
Y85748D02*Y82748D01*
X418567D01*
Y85748D01*
X409067D01*
G37*
G36*
X414902Y93016D02*X411350D01*
Y88480D01*
X414902D01*
Y93016D01*
G37*
G36*
X409784D02*X406232D01*
Y88480D01*
X409784D01*
Y93016D01*
G37*
G36*
X401902D02*X398350D01*
Y88480D01*
X401902D01*
Y93016D01*
G37*
G36*
X388567Y108748D02*Y105748D01*
X398067D01*
Y108748D01*
X388567D01*
G37*
G36*
Y103748D02*Y100748D01*
X398067D01*
Y103748D01*
X388567D01*
G37*
G36*
Y85748D02*Y82748D01*
X398067D01*
Y85748D01*
X388567D01*
G37*
G36*
X396784Y93016D02*X393232D01*
Y88480D01*
X396784D01*
Y93016D01*
G37*
G36*
X388567Y80748D02*Y77748D01*
X398067D01*
Y80748D01*
X388567D01*
G37*
G36*
Y75748D02*Y72748D01*
X398067D01*
Y75748D01*
X388567D01*
G37*
G36*
Y70748D02*Y67748D01*
X398067D01*
Y70748D01*
X388567D01*
G37*
G36*
Y65748D02*Y62748D01*
X398067D01*
Y65748D01*
X388567D01*
G37*
G36*
Y60748D02*Y57748D01*
X398067D01*
Y60748D01*
X388567D01*
G37*
G36*
Y55748D02*Y52748D01*
X398067D01*
Y55748D01*
X388567D01*
G37*
G36*
Y50748D02*Y47748D01*
X398067D01*
Y50748D01*
X388567D01*
G37*
G36*
X409067Y181748D02*Y178748D01*
X418567D01*
Y181748D01*
X409067D01*
G37*
G36*
X388567D02*Y178748D01*
X398067D01*
Y181748D01*
X388567D01*
G37*
G36*
X409067Y186748D02*Y183748D01*
X418567D01*
Y186748D01*
X409067D01*
G37*
G36*
Y191748D02*Y188748D01*
X418567D01*
Y191748D01*
X409067D01*
G37*
G36*
X388567D02*Y188748D01*
X398067D01*
Y191748D01*
X388567D01*
G37*
G36*
Y186748D02*Y183748D01*
X398067D01*
Y186748D01*
X388567D01*
G37*
G36*
X414902Y199016D02*X411350D01*
Y194480D01*
X414902D01*
Y199016D01*
G37*
G36*
X409784D02*X406232D01*
Y194480D01*
X409784D01*
Y199016D01*
G37*
G36*
X401843D02*X398291D01*
Y194480D01*
X401843D01*
Y199016D01*
G37*
G36*
X396725D02*X393173D01*
Y194480D01*
X396725D01*
Y199016D01*
G37*
G36*
X409067Y209748D02*Y206748D01*
X418567D01*
Y209748D01*
X409067D01*
G37*
G36*
Y214748D02*Y211748D01*
X418567D01*
Y214748D01*
X409067D01*
G37*
G36*
Y219748D02*Y216748D01*
X418567D01*
Y219748D01*
X409067D01*
G37*
G36*
Y224748D02*Y221748D01*
X418567D01*
Y224748D01*
X409067D01*
G37*
G36*
X388567Y229748D02*Y226748D01*
X398067D01*
Y229748D01*
X388567D01*
G37*
G36*
Y224748D02*Y221748D01*
X398067D01*
Y224748D01*
X388567D01*
G37*
G36*
Y219748D02*Y216748D01*
X398067D01*
Y219748D01*
X388567D01*
G37*
G36*
Y214748D02*Y211748D01*
X398067D01*
Y214748D01*
X388567D01*
G37*
G36*
Y209748D02*Y206748D01*
X398067D01*
Y209748D01*
X388567D01*
G37*
G36*
X409067Y234748D02*Y231748D01*
X418567D01*
Y234748D01*
X409067D01*
G37*
G36*
X388567D02*Y231748D01*
X398067D01*
Y234748D01*
X388567D01*
G37*
G36*
X409067Y239748D02*Y236748D01*
X418567D01*
Y239748D01*
X409067D01*
G37*
G36*
X388567D02*Y236748D01*
X398067D01*
Y239748D01*
X388567D01*
G37*
G36*
X409067Y244748D02*Y241748D01*
X418567D01*
Y244748D01*
X409067D01*
G37*
G36*
X388567D02*Y241748D01*
X398067D01*
Y244748D01*
X388567D01*
G37*
G36*
X409067Y229748D02*Y226748D01*
X418567D01*
Y229748D01*
X409067D01*
G37*
G36*
X414902Y252016D02*X411350D01*
Y247480D01*
X414902D01*
Y252016D01*
G37*
G36*
X409784D02*X406232D01*
Y247480D01*
X409784D01*
Y252016D01*
G37*
G36*
X401902D02*X398350D01*
Y247480D01*
X401902D01*
Y252016D01*
G37*
G36*
X396784D02*X393232D01*
Y247480D01*
X396784D01*
Y252016D01*
G37*
G36*
X367317Y418798D02*X363817D01*
Y414698D01*
X367317D01*
Y418798D01*
G37*
G36*
X369917Y405798D02*X366417D01*
Y401698D01*
X369917D01*
Y405798D01*
G37*
G36*
X372417Y418798D02*X368917D01*
Y414698D01*
X372417D01*
Y418798D01*
G37*
G36*
X369917Y425798D02*X366417D01*
Y421698D01*
X369917D01*
Y425798D01*
G37*
G36*
X367317Y398798D02*X363817D01*
Y394698D01*
X367317D01*
Y398798D01*
G37*
G36*
X372417D02*X368917D01*
Y394698D01*
X372417D01*
Y398798D01*
G37*
G36*
X367317Y378798D02*X363817D01*
Y374698D01*
X367317D01*
Y378798D01*
G37*
G36*
X372417D02*X368917D01*
Y374698D01*
X372417D01*
Y378798D01*
G37*
G36*
X369917Y385798D02*X366417D01*
Y381698D01*
X369917D01*
Y385798D01*
G37*
G36*
X379917D02*X376417D01*
Y381698D01*
X379917D01*
Y385798D01*
G37*
G36*
X361445Y396024D02*X358689D01*
Y392087D01*
X361445D01*
Y396024D01*
G37*
G36*
X367317Y358798D02*X363817D01*
Y354698D01*
X367317D01*
Y358798D01*
G37*
G36*
Y338798D02*X363817D01*
Y334698D01*
X367317D01*
Y338798D01*
G37*
G36*
Y318798D02*X363817D01*
Y314698D01*
X367317D01*
Y318798D01*
G37*
G36*
Y298798D02*X363817D01*
Y294698D01*
X367317D01*
Y298798D01*
G37*
G36*
X372417Y358798D02*X368917D01*
Y354698D01*
X372417D01*
Y358798D01*
G37*
G36*
Y338798D02*X368917D01*
Y334698D01*
X372417D01*
Y338798D01*
G37*
G36*
X369917Y345798D02*X366417D01*
Y341698D01*
X369917D01*
Y345798D01*
G37*
G36*
Y365798D02*X366417D01*
Y361698D01*
X369917D01*
Y365798D01*
G37*
G36*
X372417Y318798D02*X368917D01*
Y314698D01*
X372417D01*
Y318798D01*
G37*
G36*
X369917Y325798D02*X366417D01*
Y321698D01*
X369917D01*
Y325798D01*
G37*
G36*
X372417Y298798D02*X368917D01*
Y294698D01*
X372417D01*
Y298798D01*
G37*
G36*
X369917Y305798D02*X366417D01*
Y301698D01*
X369917D01*
Y305798D01*
G37*
G36*
X367317Y278798D02*X363817D01*
Y274698D01*
X367317D01*
Y278798D01*
G37*
G36*
Y258798D02*X363817D01*
Y254698D01*
X367317D01*
Y258798D01*
G37*
G36*
X372417D02*X368917D01*
Y254698D01*
X372417D01*
Y258798D01*
G37*
G36*
X369917Y265798D02*X366417D01*
Y261698D01*
X369917D01*
Y265798D01*
G37*
G36*
X372417Y278798D02*X368917D01*
Y274698D01*
X372417D01*
Y278798D01*
G37*
G36*
X369917Y285798D02*X366417D01*
Y281698D01*
X369917D01*
Y285798D01*
G37*
G36*
X377317Y378798D02*X373817D01*
Y374698D01*
X377317D01*
Y378798D01*
G37*
G36*
Y358798D02*X373817D01*
Y354698D01*
X377317D01*
Y358798D01*
G37*
G36*
Y338798D02*X373817D01*
Y334698D01*
X377317D01*
Y338798D01*
G37*
G36*
Y318798D02*X373817D01*
Y314698D01*
X377317D01*
Y318798D01*
G37*
G36*
X382417Y378798D02*X378917D01*
Y374698D01*
X382417D01*
Y378798D01*
G37*
G36*
Y358798D02*X378917D01*
Y354698D01*
X382417D01*
Y358798D01*
G37*
G36*
X379917Y365798D02*X376417D01*
Y361698D01*
X379917D01*
Y365798D01*
G37*
G36*
X382417Y338798D02*X378917D01*
Y334698D01*
X382417D01*
Y338798D01*
G37*
G36*
X379917Y345798D02*X376417D01*
Y341698D01*
X379917D01*
Y345798D01*
G37*
G36*
X382417Y318798D02*X378917D01*
Y314698D01*
X382417D01*
Y318798D01*
G37*
G36*
X379917Y325798D02*X376417D01*
Y321698D01*
X379917D01*
Y325798D01*
G37*
G36*
X377317Y298798D02*X373817D01*
Y294698D01*
X377317D01*
Y298798D01*
G37*
G36*
Y278798D02*X373817D01*
Y274698D01*
X377317D01*
Y278798D01*
G37*
G36*
Y258798D02*X373817D01*
Y254698D01*
X377317D01*
Y258798D01*
G37*
G36*
X382417Y298798D02*X378917D01*
Y294698D01*
X382417D01*
Y298798D01*
G37*
G36*
Y278798D02*X378917D01*
Y274698D01*
X382417D01*
Y278798D01*
G37*
G36*
X379917Y285798D02*X376417D01*
Y281698D01*
X379917D01*
Y285798D01*
G37*
G36*
X382417Y258798D02*X378917D01*
Y254698D01*
X382417D01*
Y258798D01*
G37*
G36*
X379917Y265798D02*X376417D01*
Y261698D01*
X379917D01*
Y265798D01*
G37*
G36*
Y305798D02*X376417D01*
Y301698D01*
X379917D01*
Y305798D01*
G37*
G36*
X361445Y382717D02*X358689D01*
Y378780D01*
X361445D01*
Y382717D01*
G37*
G36*
Y376024D02*X358689D01*
Y372087D01*
X361445D01*
Y376024D01*
G37*
G36*
Y362717D02*X358689D01*
Y358780D01*
X361445D01*
Y362717D01*
G37*
G36*
Y356024D02*X358689D01*
Y352087D01*
X361445D01*
Y356024D01*
G37*
G36*
Y342717D02*X358689D01*
Y338780D01*
X361445D01*
Y342717D01*
G37*
G36*
Y336024D02*X358689D01*
Y332087D01*
X361445D01*
Y336024D01*
G37*
G36*
Y322717D02*X358689D01*
Y318780D01*
X361445D01*
Y322717D01*
G37*
G36*
Y316024D02*X358689D01*
Y312087D01*
X361445D01*
Y316024D01*
G37*
G36*
Y302717D02*X358689D01*
Y298780D01*
X361445D01*
Y302717D01*
G37*
G36*
Y296024D02*X358689D01*
Y292087D01*
X361445D01*
Y296024D01*
G37*
G36*
Y282717D02*X358689D01*
Y278780D01*
X361445D01*
Y282717D01*
G37*
G36*
Y276024D02*X358689D01*
Y272087D01*
X361445D01*
Y276024D01*
G37*
G36*
Y262717D02*X358689D01*
Y258780D01*
X361445D01*
Y262717D01*
G37*
G36*
Y256024D02*X358689D01*
Y252087D01*
X361445D01*
Y256024D01*
G37*
G36*
X352890Y375458D02*Y372890D01*
X356244D01*
Y375458D01*
X352890D01*
G37*
G36*
Y378606D02*Y376038D01*
X356244D01*
Y378606D01*
X352890D01*
G37*
G36*
Y355458D02*Y352890D01*
X356244D01*
Y355458D01*
X352890D01*
G37*
G36*
Y358606D02*Y356038D01*
X356244D01*
Y358606D01*
X352890D01*
G37*
G36*
Y335458D02*Y332890D01*
X356244D01*
Y335458D01*
X352890D01*
G37*
G36*
Y338606D02*Y336038D01*
X356244D01*
Y338606D01*
X352890D01*
G37*
G36*
Y315458D02*Y312890D01*
X356244D01*
Y315458D01*
X352890D01*
G37*
G36*
Y318606D02*Y316038D01*
X356244D01*
Y318606D01*
X352890D01*
G37*
G36*
Y295458D02*Y292890D01*
X356244D01*
Y295458D01*
X352890D01*
G37*
G36*
Y298606D02*Y296038D01*
X356244D01*
Y298606D01*
X352890D01*
G37*
G36*
Y275458D02*Y272890D01*
X356244D01*
Y275458D01*
X352890D01*
G37*
G36*
Y255458D02*Y252890D01*
X356244D01*
Y255458D01*
X352890D01*
G37*
G36*
Y258606D02*Y256038D01*
X356244D01*
Y258606D01*
X352890D01*
G37*
G36*
Y278606D02*Y276038D01*
X356244D01*
Y278606D01*
X352890D01*
G37*
G36*
X409067Y315748D02*Y312748D01*
X418567D01*
Y315748D01*
X409067D01*
G37*
G36*
Y320748D02*Y317748D01*
X418567D01*
Y320748D01*
X409067D01*
G37*
G36*
Y325748D02*Y322748D01*
X418567D01*
Y325748D01*
X409067D01*
G37*
G36*
Y330748D02*Y327748D01*
X418567D01*
Y330748D01*
X409067D01*
G37*
G36*
Y335748D02*Y332748D01*
X418567D01*
Y335748D01*
X409067D01*
G37*
G36*
Y350748D02*Y347748D01*
X418567D01*
Y350748D01*
X409067D01*
G37*
G36*
X388567D02*Y347748D01*
X398067D01*
Y350748D01*
X388567D01*
G37*
G36*
Y345748D02*Y342748D01*
X398067D01*
Y345748D01*
X388567D01*
G37*
G36*
Y340748D02*Y337748D01*
X398067D01*
Y340748D01*
X388567D01*
G37*
G36*
Y335748D02*Y332748D01*
X398067D01*
Y335748D01*
X388567D01*
G37*
G36*
Y330748D02*Y327748D01*
X398067D01*
Y330748D01*
X388567D01*
G37*
G36*
Y325748D02*Y322748D01*
X398067D01*
Y325748D01*
X388567D01*
G37*
G36*
Y320748D02*Y317748D01*
X398067D01*
Y320748D01*
X388567D01*
G37*
G36*
Y315748D02*Y312748D01*
X398067D01*
Y315748D01*
X388567D01*
G37*
G36*
Y297748D02*Y294748D01*
X398067D01*
Y297748D01*
X388567D01*
G37*
G36*
X396784Y305016D02*X393232D01*
Y300480D01*
X396784D01*
Y305016D01*
G37*
G36*
X388567Y292748D02*Y289748D01*
X398067D01*
Y292748D01*
X388567D01*
G37*
G36*
Y287748D02*Y284748D01*
X398067D01*
Y287748D01*
X388567D01*
G37*
G36*
Y282748D02*Y279748D01*
X398067D01*
Y282748D01*
X388567D01*
G37*
G36*
Y277748D02*Y274748D01*
X398067D01*
Y277748D01*
X388567D01*
G37*
G36*
Y272748D02*Y269748D01*
X398067D01*
Y272748D01*
X388567D01*
G37*
G36*
Y267748D02*Y264748D01*
X398067D01*
Y267748D01*
X388567D01*
G37*
G36*
Y262748D02*Y259748D01*
X398067D01*
Y262748D01*
X388567D01*
G37*
G36*
Y393748D02*Y390748D01*
X398067D01*
Y393748D01*
X388567D01*
G37*
G36*
Y388748D02*Y385748D01*
X398067D01*
Y388748D01*
X388567D01*
G37*
G36*
Y383748D02*Y380748D01*
X398067D01*
Y383748D01*
X388567D01*
G37*
G36*
Y378748D02*Y375748D01*
X398067D01*
Y378748D01*
X388567D01*
G37*
G36*
Y373748D02*Y370748D01*
X398067D01*
Y373748D01*
X388567D01*
G37*
G36*
Y368748D02*Y365748D01*
X398067D01*
Y368748D01*
X388567D01*
G37*
G36*
X396725Y358016D02*X393173D01*
Y353480D01*
X396725D01*
Y358016D01*
G37*
G36*
X409067Y340748D02*Y337748D01*
X418567D01*
Y340748D01*
X409067D01*
G37*
G36*
Y345748D02*Y342748D01*
X418567D01*
Y345748D01*
X409067D01*
G37*
G36*
Y368748D02*Y365748D01*
X418567D01*
Y368748D01*
X409067D01*
G37*
G36*
Y373748D02*Y370748D01*
X418567D01*
Y373748D01*
X409067D01*
G37*
G36*
Y378748D02*Y375748D01*
X418567D01*
Y378748D01*
X409067D01*
G37*
G36*
Y383748D02*Y380748D01*
X418567D01*
Y383748D01*
X409067D01*
G37*
G36*
Y388748D02*Y385748D01*
X418567D01*
Y388748D01*
X409067D01*
G37*
G36*
Y393748D02*Y390748D01*
X418567D01*
Y393748D01*
X409067D01*
G37*
G36*
X414902Y358016D02*X411350D01*
Y353480D01*
X414902D01*
Y358016D01*
G37*
G36*
X409784D02*X406232D01*
Y353480D01*
X409784D01*
Y358016D01*
G37*
G36*
X401843D02*X398291D01*
Y353480D01*
X401843D01*
Y358016D01*
G37*
G36*
X409067Y262748D02*Y259748D01*
X418567D01*
Y262748D01*
X409067D01*
G37*
G36*
Y267748D02*Y264748D01*
X418567D01*
Y267748D01*
X409067D01*
G37*
G36*
Y272748D02*Y269748D01*
X418567D01*
Y272748D01*
X409067D01*
G37*
G36*
Y277748D02*Y274748D01*
X418567D01*
Y277748D01*
X409067D01*
G37*
G36*
Y282748D02*Y279748D01*
X418567D01*
Y282748D01*
X409067D01*
G37*
G36*
Y287748D02*Y284748D01*
X418567D01*
Y287748D01*
X409067D01*
G37*
G36*
Y292748D02*Y289748D01*
X418567D01*
Y292748D01*
X409067D01*
G37*
G36*
Y297748D02*Y294748D01*
X418567D01*
Y297748D01*
X409067D01*
G37*
G36*
X414902Y305016D02*X411350D01*
Y300480D01*
X414902D01*
Y305016D01*
G37*
G36*
X409784D02*X406232D01*
Y300480D01*
X409784D01*
Y305016D01*
G37*
G36*
X401902D02*X398350D01*
Y300480D01*
X401902D01*
Y305016D01*
G37*
M02*
