G04 start of page 10 for group -4015 idx -4015 *
G04 Title: NVMemProg_Driver, toppaste *
G04 Creator: pcb 1.99z *
G04 CreationDate: Mon Nov  7 15:47:14 2016 UTC *
G04 For: wojtek *
G04 Format: Gerber/RS-274X *
G04 PCB-Dimensions (mil): 4291.34 5354.33 *
G04 PCB-Coordinate-Origin: lower left *
%MOIN*%
%FSLAX25Y25*%
%LNTOPPASTE*%
%ADD58C,0.0700*%
%ADD57C,0.0001*%
G54D57*G36*
X127977Y485125D02*X126009D01*
Y482371D01*
X127977D01*
Y485125D01*
G37*
G36*
X131125D02*X129157D01*
Y482371D01*
X131125D01*
Y485125D01*
G37*
G36*
X127977Y465125D02*X126009D01*
Y462371D01*
X127977D01*
Y465125D01*
G37*
G36*
X131125D02*X129157D01*
Y462371D01*
X131125D01*
Y465125D01*
G37*
G36*
X127977Y445125D02*X126009D01*
Y442371D01*
X127977D01*
Y445125D01*
G37*
G36*
X131125D02*X129157D01*
Y442371D01*
X131125D01*
Y445125D01*
G37*
G36*
X127977Y425125D02*X126009D01*
Y422371D01*
X127977D01*
Y425125D01*
G37*
G36*
X131125D02*X129157D01*
Y422371D01*
X131125D01*
Y425125D01*
G37*
G36*
X127977Y405125D02*X126009D01*
Y402371D01*
X127977D01*
Y405125D01*
G37*
G36*
X131125D02*X129157D01*
Y402371D01*
X131125D01*
Y405125D01*
G37*
G36*
X127977Y385125D02*X126009D01*
Y382371D01*
X127977D01*
Y385125D01*
G37*
G36*
X131125D02*X129157D01*
Y382371D01*
X131125D01*
Y385125D01*
G37*
G36*
X127977Y365125D02*X126009D01*
Y362371D01*
X127977D01*
Y365125D01*
G37*
G36*
X131125D02*X129157D01*
Y362371D01*
X131125D01*
Y365125D01*
G37*
G36*
X127977Y345125D02*X126009D01*
Y342371D01*
X127977D01*
Y345125D01*
G37*
G36*
X131125D02*X129157D01*
Y342371D01*
X131125D01*
Y345125D01*
G37*
G36*
X127977Y325125D02*X126009D01*
Y322371D01*
X127977D01*
Y325125D01*
G37*
G36*
X131125D02*X129157D01*
Y322371D01*
X131125D01*
Y325125D01*
G37*
G36*
X127977Y305125D02*X126009D01*
Y302371D01*
X127977D01*
Y305125D01*
G37*
G36*
X131125D02*X129157D01*
Y302371D01*
X131125D01*
Y305125D01*
G37*
G36*
X127977Y285125D02*X126009D01*
Y282371D01*
X127977D01*
Y285125D01*
G37*
G36*
X131125D02*X129157D01*
Y282371D01*
X131125D01*
Y285125D01*
G37*
G36*
X127977Y265125D02*X126009D01*
Y262371D01*
X127977D01*
Y265125D01*
G37*
G36*
X131125D02*X129157D01*
Y262371D01*
X131125D01*
Y265125D01*
G37*
G36*
X127977Y245125D02*X126009D01*
Y242371D01*
X127977D01*
Y245125D01*
G37*
G36*
X131125D02*X129157D01*
Y242371D01*
X131125D01*
Y245125D01*
G37*
G36*
X127977Y225125D02*X126009D01*
Y222371D01*
X127977D01*
Y225125D01*
G37*
G36*
X131125D02*X129157D01*
Y222371D01*
X131125D01*
Y225125D01*
G37*
G36*
X127977Y205125D02*X126009D01*
Y202371D01*
X127977D01*
Y205125D01*
G37*
G36*
X131125D02*X129157D01*
Y202371D01*
X131125D01*
Y205125D01*
G37*
G36*
X127977Y185125D02*X126009D01*
Y182371D01*
X127977D01*
Y185125D01*
G37*
G36*
X131125D02*X129157D01*
Y182371D01*
X131125D01*
Y185125D01*
G37*
G36*
X127977Y165125D02*X126009D01*
Y162371D01*
X127977D01*
Y165125D01*
G37*
G36*
X131125D02*X129157D01*
Y162371D01*
X131125D01*
Y165125D01*
G37*
G36*
X127977Y145125D02*X126009D01*
Y142371D01*
X127977D01*
Y145125D01*
G37*
G36*
X131125D02*X129157D01*
Y142371D01*
X131125D01*
Y145125D01*
G37*
G36*
X127977Y125125D02*X126009D01*
Y122371D01*
X127977D01*
Y125125D01*
G37*
G36*
X131125D02*X129157D01*
Y122371D01*
X131125D01*
Y125125D01*
G37*
G36*
X127977Y105125D02*X126009D01*
Y102371D01*
X127977D01*
Y105125D01*
G37*
G36*
X131125D02*X129157D01*
Y102371D01*
X131125D01*
Y105125D01*
G37*
G36*
X127977Y85125D02*X126009D01*
Y82371D01*
X127977D01*
Y85125D01*
G37*
G36*
X131125D02*X129157D01*
Y82371D01*
X131125D01*
Y85125D01*
G37*
G36*
X127977Y65125D02*X126009D01*
Y62371D01*
X127977D01*
Y65125D01*
G37*
G36*
X131125D02*X129157D01*
Y62371D01*
X131125D01*
Y65125D01*
G37*
G36*
X127977Y45125D02*X126009D01*
Y42371D01*
X127977D01*
Y45125D01*
G37*
G36*
X131125D02*X129157D01*
Y42371D01*
X131125D01*
Y45125D01*
G37*
G36*
X127977Y25125D02*X126009D01*
Y22371D01*
X127977D01*
Y25125D01*
G37*
G36*
X131125D02*X129157D01*
Y22371D01*
X131125D01*
Y25125D01*
G37*
G36*
X116599Y491665D02*Y488713D01*
X120535D01*
Y491665D01*
X116599D01*
G37*
G36*
Y496783D02*Y493831D01*
X120535D01*
Y496783D01*
X116599D01*
G37*
G36*
Y471665D02*Y468713D01*
X120535D01*
Y471665D01*
X116599D01*
G37*
G36*
Y476783D02*Y473831D01*
X120535D01*
Y476783D01*
X116599D01*
G37*
G36*
Y451665D02*Y448713D01*
X120535D01*
Y451665D01*
X116599D01*
G37*
G36*
Y456783D02*Y453831D01*
X120535D01*
Y456783D01*
X116599D01*
G37*
G36*
Y431665D02*Y428713D01*
X120535D01*
Y431665D01*
X116599D01*
G37*
G36*
Y436783D02*Y433831D01*
X120535D01*
Y436783D01*
X116599D01*
G37*
G36*
Y411665D02*Y408713D01*
X120535D01*
Y411665D01*
X116599D01*
G37*
G36*
Y416783D02*Y413831D01*
X120535D01*
Y416783D01*
X116599D01*
G37*
G36*
Y391665D02*Y388713D01*
X120535D01*
Y391665D01*
X116599D01*
G37*
G36*
Y396783D02*Y393831D01*
X120535D01*
Y396783D01*
X116599D01*
G37*
G36*
Y371665D02*Y368713D01*
X120535D01*
Y371665D01*
X116599D01*
G37*
G36*
Y376783D02*Y373831D01*
X120535D01*
Y376783D01*
X116599D01*
G37*
G36*
Y351665D02*Y348713D01*
X120535D01*
Y351665D01*
X116599D01*
G37*
G36*
Y356783D02*Y353831D01*
X120535D01*
Y356783D01*
X116599D01*
G37*
G36*
Y331665D02*Y328713D01*
X120535D01*
Y331665D01*
X116599D01*
G37*
G36*
Y336783D02*Y333831D01*
X120535D01*
Y336783D01*
X116599D01*
G37*
G36*
Y311665D02*Y308713D01*
X120535D01*
Y311665D01*
X116599D01*
G37*
G36*
Y316783D02*Y313831D01*
X120535D01*
Y316783D01*
X116599D01*
G37*
G36*
Y291665D02*Y288713D01*
X120535D01*
Y291665D01*
X116599D01*
G37*
G36*
Y296783D02*Y293831D01*
X120535D01*
Y296783D01*
X116599D01*
G37*
G36*
Y271665D02*Y268713D01*
X120535D01*
Y271665D01*
X116599D01*
G37*
G36*
Y276783D02*Y273831D01*
X120535D01*
Y276783D01*
X116599D01*
G37*
G36*
Y251665D02*Y248713D01*
X120535D01*
Y251665D01*
X116599D01*
G37*
G36*
Y256783D02*Y253831D01*
X120535D01*
Y256783D01*
X116599D01*
G37*
G36*
Y231665D02*Y228713D01*
X120535D01*
Y231665D01*
X116599D01*
G37*
G36*
Y236783D02*Y233831D01*
X120535D01*
Y236783D01*
X116599D01*
G37*
G36*
Y211665D02*Y208713D01*
X120535D01*
Y211665D01*
X116599D01*
G37*
G36*
Y216783D02*Y213831D01*
X120535D01*
Y216783D01*
X116599D01*
G37*
G36*
Y191665D02*Y188713D01*
X120535D01*
Y191665D01*
X116599D01*
G37*
G36*
Y196783D02*Y193831D01*
X120535D01*
Y196783D01*
X116599D01*
G37*
G36*
Y171665D02*Y168713D01*
X120535D01*
Y171665D01*
X116599D01*
G37*
G36*
Y176783D02*Y173831D01*
X120535D01*
Y176783D01*
X116599D01*
G37*
G36*
Y151665D02*Y148713D01*
X120535D01*
Y151665D01*
X116599D01*
G37*
G36*
Y156783D02*Y153831D01*
X120535D01*
Y156783D01*
X116599D01*
G37*
G36*
Y131665D02*Y128713D01*
X120535D01*
Y131665D01*
X116599D01*
G37*
G36*
Y136783D02*Y133831D01*
X120535D01*
Y136783D01*
X116599D01*
G37*
G36*
Y111665D02*Y108713D01*
X120535D01*
Y111665D01*
X116599D01*
G37*
G36*
Y116783D02*Y113831D01*
X120535D01*
Y116783D01*
X116599D01*
G37*
G36*
Y91665D02*Y88713D01*
X120535D01*
Y91665D01*
X116599D01*
G37*
G36*
Y96783D02*Y93831D01*
X120535D01*
Y96783D01*
X116599D01*
G37*
G36*
Y71665D02*Y68713D01*
X120535D01*
Y71665D01*
X116599D01*
G37*
G36*
Y76783D02*Y73831D01*
X120535D01*
Y76783D01*
X116599D01*
G37*
G36*
Y51665D02*Y48713D01*
X120535D01*
Y51665D01*
X116599D01*
G37*
G36*
Y56783D02*Y53831D01*
X120535D01*
Y56783D01*
X116599D01*
G37*
G36*
Y31665D02*Y28713D01*
X120535D01*
Y31665D01*
X116599D01*
G37*
G36*
Y36783D02*Y33831D01*
X120535D01*
Y36783D01*
X116599D01*
G37*
G36*
X141977Y485125D02*X140009D01*
Y482371D01*
X141977D01*
Y485125D01*
G37*
G36*
X145125D02*X143157D01*
Y482371D01*
X145125D01*
Y485125D01*
G37*
G36*
X141977Y465125D02*X140009D01*
Y462371D01*
X141977D01*
Y465125D01*
G37*
G36*
X145125D02*X143157D01*
Y462371D01*
X145125D01*
Y465125D01*
G37*
G36*
X141977Y445125D02*X140009D01*
Y442371D01*
X141977D01*
Y445125D01*
G37*
G36*
X145125D02*X143157D01*
Y442371D01*
X145125D01*
Y445125D01*
G37*
G36*
X141977Y425125D02*X140009D01*
Y422371D01*
X141977D01*
Y425125D01*
G37*
G36*
X145125D02*X143157D01*
Y422371D01*
X145125D01*
Y425125D01*
G37*
G36*
X141977Y405125D02*X140009D01*
Y402371D01*
X141977D01*
Y405125D01*
G37*
G36*
X145125D02*X143157D01*
Y402371D01*
X145125D01*
Y405125D01*
G37*
G36*
X141977Y385125D02*X140009D01*
Y382371D01*
X141977D01*
Y385125D01*
G37*
G36*
X145125D02*X143157D01*
Y382371D01*
X145125D01*
Y385125D01*
G37*
G36*
X141977Y365125D02*X140009D01*
Y362371D01*
X141977D01*
Y365125D01*
G37*
G36*
X145125D02*X143157D01*
Y362371D01*
X145125D01*
Y365125D01*
G37*
G36*
X141977Y345125D02*X140009D01*
Y342371D01*
X141977D01*
Y345125D01*
G37*
G36*
X145125D02*X143157D01*
Y342371D01*
X145125D01*
Y345125D01*
G37*
G36*
X141977Y325125D02*X140009D01*
Y322371D01*
X141977D01*
Y325125D01*
G37*
G36*
X145125D02*X143157D01*
Y322371D01*
X145125D01*
Y325125D01*
G37*
G36*
X141977Y305125D02*X140009D01*
Y302371D01*
X141977D01*
Y305125D01*
G37*
G36*
X145125D02*X143157D01*
Y302371D01*
X145125D01*
Y305125D01*
G37*
G36*
X141977Y285125D02*X140009D01*
Y282371D01*
X141977D01*
Y285125D01*
G37*
G36*
X145125D02*X143157D01*
Y282371D01*
X145125D01*
Y285125D01*
G37*
G36*
X141977Y265125D02*X140009D01*
Y262371D01*
X141977D01*
Y265125D01*
G37*
G36*
X145125D02*X143157D01*
Y262371D01*
X145125D01*
Y265125D01*
G37*
G36*
X141977Y245125D02*X140009D01*
Y242371D01*
X141977D01*
Y245125D01*
G37*
G36*
X145125D02*X143157D01*
Y242371D01*
X145125D01*
Y245125D01*
G37*
G36*
X141977Y225125D02*X140009D01*
Y222371D01*
X141977D01*
Y225125D01*
G37*
G36*
X145125D02*X143157D01*
Y222371D01*
X145125D01*
Y225125D01*
G37*
G36*
X141977Y205125D02*X140009D01*
Y202371D01*
X141977D01*
Y205125D01*
G37*
G36*
X145125D02*X143157D01*
Y202371D01*
X145125D01*
Y205125D01*
G37*
G36*
X141977Y185125D02*X140009D01*
Y182371D01*
X141977D01*
Y185125D01*
G37*
G36*
X145125D02*X143157D01*
Y182371D01*
X145125D01*
Y185125D01*
G37*
G36*
X141977Y165125D02*X140009D01*
Y162371D01*
X141977D01*
Y165125D01*
G37*
G36*
X145125D02*X143157D01*
Y162371D01*
X145125D01*
Y165125D01*
G37*
G36*
X141977Y145125D02*X140009D01*
Y142371D01*
X141977D01*
Y145125D01*
G37*
G36*
X145125D02*X143157D01*
Y142371D01*
X145125D01*
Y145125D01*
G37*
G36*
X141977Y125125D02*X140009D01*
Y122371D01*
X141977D01*
Y125125D01*
G37*
G36*
X145125D02*X143157D01*
Y122371D01*
X145125D01*
Y125125D01*
G37*
G36*
X141977Y105125D02*X140009D01*
Y102371D01*
X141977D01*
Y105125D01*
G37*
G36*
X145125D02*X143157D01*
Y102371D01*
X145125D01*
Y105125D01*
G37*
G36*
X141977Y85125D02*X140009D01*
Y82371D01*
X141977D01*
Y85125D01*
G37*
G36*
X145125D02*X143157D01*
Y82371D01*
X145125D01*
Y85125D01*
G37*
G36*
X141977Y65125D02*X140009D01*
Y62371D01*
X141977D01*
Y65125D01*
G37*
G36*
X145125D02*X143157D01*
Y62371D01*
X145125D01*
Y65125D01*
G37*
G36*
X141977Y45125D02*X140009D01*
Y42371D01*
X141977D01*
Y45125D01*
G37*
G36*
X145125D02*X143157D01*
Y42371D01*
X145125D01*
Y45125D01*
G37*
G36*
X141977Y25125D02*X140009D01*
Y22371D01*
X141977D01*
Y25125D01*
G37*
G36*
X145125D02*X143157D01*
Y22371D01*
X145125D01*
Y25125D01*
G37*
G36*
X102567Y497448D02*Y494048D01*
X106567D01*
Y497448D01*
X102567D01*
G37*
G36*
Y489648D02*Y486248D01*
X106567D01*
Y489648D01*
X102567D01*
G37*
G36*
X110767Y493548D02*Y490148D01*
X114767D01*
Y493548D01*
X110767D01*
G37*
G36*
X102567Y477448D02*Y474048D01*
X106567D01*
Y477448D01*
X102567D01*
G37*
G36*
Y469648D02*Y466248D01*
X106567D01*
Y469648D01*
X102567D01*
G37*
G36*
X110767Y473548D02*Y470148D01*
X114767D01*
Y473548D01*
X110767D01*
G37*
G36*
X102567Y457448D02*Y454048D01*
X106567D01*
Y457448D01*
X102567D01*
G37*
G36*
Y449648D02*Y446248D01*
X106567D01*
Y449648D01*
X102567D01*
G37*
G36*
X110767Y453548D02*Y450148D01*
X114767D01*
Y453548D01*
X110767D01*
G37*
G36*
X102567Y437448D02*Y434048D01*
X106567D01*
Y437448D01*
X102567D01*
G37*
G36*
Y429648D02*Y426248D01*
X106567D01*
Y429648D01*
X102567D01*
G37*
G36*
X110767Y433548D02*Y430148D01*
X114767D01*
Y433548D01*
X110767D01*
G37*
G36*
X102567Y417448D02*Y414048D01*
X106567D01*
Y417448D01*
X102567D01*
G37*
G36*
Y409648D02*Y406248D01*
X106567D01*
Y409648D01*
X102567D01*
G37*
G36*
X110767Y413548D02*Y410148D01*
X114767D01*
Y413548D01*
X110767D01*
G37*
G36*
X102567Y397448D02*Y394048D01*
X106567D01*
Y397448D01*
X102567D01*
G37*
G36*
Y389648D02*Y386248D01*
X106567D01*
Y389648D01*
X102567D01*
G37*
G36*
X110767Y393548D02*Y390148D01*
X114767D01*
Y393548D01*
X110767D01*
G37*
G36*
X102567Y377448D02*Y374048D01*
X106567D01*
Y377448D01*
X102567D01*
G37*
G36*
Y369648D02*Y366248D01*
X106567D01*
Y369648D01*
X102567D01*
G37*
G36*
X110767Y373548D02*Y370148D01*
X114767D01*
Y373548D01*
X110767D01*
G37*
G36*
X102567Y357448D02*Y354048D01*
X106567D01*
Y357448D01*
X102567D01*
G37*
G36*
Y349648D02*Y346248D01*
X106567D01*
Y349648D01*
X102567D01*
G37*
G36*
X110767Y353548D02*Y350148D01*
X114767D01*
Y353548D01*
X110767D01*
G37*
G36*
X102567Y337448D02*Y334048D01*
X106567D01*
Y337448D01*
X102567D01*
G37*
G36*
Y329648D02*Y326248D01*
X106567D01*
Y329648D01*
X102567D01*
G37*
G36*
X110767Y333548D02*Y330148D01*
X114767D01*
Y333548D01*
X110767D01*
G37*
G36*
X102567Y317448D02*Y314048D01*
X106567D01*
Y317448D01*
X102567D01*
G37*
G36*
Y309648D02*Y306248D01*
X106567D01*
Y309648D01*
X102567D01*
G37*
G36*
X110767Y313548D02*Y310148D01*
X114767D01*
Y313548D01*
X110767D01*
G37*
G36*
X102567Y297448D02*Y294048D01*
X106567D01*
Y297448D01*
X102567D01*
G37*
G36*
Y289648D02*Y286248D01*
X106567D01*
Y289648D01*
X102567D01*
G37*
G36*
X110767Y293548D02*Y290148D01*
X114767D01*
Y293548D01*
X110767D01*
G37*
G36*
X102567Y277448D02*Y274048D01*
X106567D01*
Y277448D01*
X102567D01*
G37*
G36*
Y269648D02*Y266248D01*
X106567D01*
Y269648D01*
X102567D01*
G37*
G36*
X110767Y273548D02*Y270148D01*
X114767D01*
Y273548D01*
X110767D01*
G37*
G36*
X102567Y257448D02*Y254048D01*
X106567D01*
Y257448D01*
X102567D01*
G37*
G36*
Y249648D02*Y246248D01*
X106567D01*
Y249648D01*
X102567D01*
G37*
G36*
X110767Y253548D02*Y250148D01*
X114767D01*
Y253548D01*
X110767D01*
G37*
G36*
X102567Y237448D02*Y234048D01*
X106567D01*
Y237448D01*
X102567D01*
G37*
G36*
Y229648D02*Y226248D01*
X106567D01*
Y229648D01*
X102567D01*
G37*
G36*
X110767Y233548D02*Y230148D01*
X114767D01*
Y233548D01*
X110767D01*
G37*
G36*
X102567Y217448D02*Y214048D01*
X106567D01*
Y217448D01*
X102567D01*
G37*
G36*
Y209648D02*Y206248D01*
X106567D01*
Y209648D01*
X102567D01*
G37*
G36*
X110767Y213548D02*Y210148D01*
X114767D01*
Y213548D01*
X110767D01*
G37*
G36*
X102567Y197448D02*Y194048D01*
X106567D01*
Y197448D01*
X102567D01*
G37*
G36*
Y189648D02*Y186248D01*
X106567D01*
Y189648D01*
X102567D01*
G37*
G36*
X110767Y193548D02*Y190148D01*
X114767D01*
Y193548D01*
X110767D01*
G37*
G36*
X102567Y177448D02*Y174048D01*
X106567D01*
Y177448D01*
X102567D01*
G37*
G36*
Y169648D02*Y166248D01*
X106567D01*
Y169648D01*
X102567D01*
G37*
G36*
X110767Y173548D02*Y170148D01*
X114767D01*
Y173548D01*
X110767D01*
G37*
G36*
X102567Y157448D02*Y154048D01*
X106567D01*
Y157448D01*
X102567D01*
G37*
G36*
Y149648D02*Y146248D01*
X106567D01*
Y149648D01*
X102567D01*
G37*
G36*
X110767Y153548D02*Y150148D01*
X114767D01*
Y153548D01*
X110767D01*
G37*
G36*
X102567Y137448D02*Y134048D01*
X106567D01*
Y137448D01*
X102567D01*
G37*
G36*
Y129648D02*Y126248D01*
X106567D01*
Y129648D01*
X102567D01*
G37*
G36*
X110767Y133548D02*Y130148D01*
X114767D01*
Y133548D01*
X110767D01*
G37*
G36*
X102567Y117448D02*Y114048D01*
X106567D01*
Y117448D01*
X102567D01*
G37*
G36*
Y109648D02*Y106248D01*
X106567D01*
Y109648D01*
X102567D01*
G37*
G36*
X110767Y113548D02*Y110148D01*
X114767D01*
Y113548D01*
X110767D01*
G37*
G36*
X102567Y97448D02*Y94048D01*
X106567D01*
Y97448D01*
X102567D01*
G37*
G36*
Y89648D02*Y86248D01*
X106567D01*
Y89648D01*
X102567D01*
G37*
G36*
X110767Y93548D02*Y90148D01*
X114767D01*
Y93548D01*
X110767D01*
G37*
G36*
X102567Y77448D02*Y74048D01*
X106567D01*
Y77448D01*
X102567D01*
G37*
G36*
Y69648D02*Y66248D01*
X106567D01*
Y69648D01*
X102567D01*
G37*
G36*
X110767Y73548D02*Y70148D01*
X114767D01*
Y73548D01*
X110767D01*
G37*
G36*
X102567Y57448D02*Y54048D01*
X106567D01*
Y57448D01*
X102567D01*
G37*
G36*
Y49648D02*Y46248D01*
X106567D01*
Y49648D01*
X102567D01*
G37*
G36*
X110767Y53548D02*Y50148D01*
X114767D01*
Y53548D01*
X110767D01*
G37*
G36*
X102567Y37448D02*Y34048D01*
X106567D01*
Y37448D01*
X102567D01*
G37*
G36*
Y29648D02*Y26248D01*
X106567D01*
Y29648D01*
X102567D01*
G37*
G36*
X110767Y33548D02*Y30148D01*
X114767D01*
Y33548D01*
X110767D01*
G37*
G36*
X126267Y489748D02*X122867D01*
Y485748D01*
X126267D01*
Y489748D01*
G37*
G36*
X134067D02*X130667D01*
Y485748D01*
X134067D01*
Y489748D01*
G37*
G36*
X130167Y497948D02*X126767D01*
Y493948D01*
X130167D01*
Y497948D01*
G37*
G36*
X126267Y469748D02*X122867D01*
Y465748D01*
X126267D01*
Y469748D01*
G37*
G36*
X134067D02*X130667D01*
Y465748D01*
X134067D01*
Y469748D01*
G37*
G36*
X130167Y477948D02*X126767D01*
Y473948D01*
X130167D01*
Y477948D01*
G37*
G36*
X126267Y449748D02*X122867D01*
Y445748D01*
X126267D01*
Y449748D01*
G37*
G36*
X134067D02*X130667D01*
Y445748D01*
X134067D01*
Y449748D01*
G37*
G36*
X130167Y457948D02*X126767D01*
Y453948D01*
X130167D01*
Y457948D01*
G37*
G36*
X126267Y429748D02*X122867D01*
Y425748D01*
X126267D01*
Y429748D01*
G37*
G36*
X134067D02*X130667D01*
Y425748D01*
X134067D01*
Y429748D01*
G37*
G36*
X130167Y437948D02*X126767D01*
Y433948D01*
X130167D01*
Y437948D01*
G37*
G36*
X126267Y409748D02*X122867D01*
Y405748D01*
X126267D01*
Y409748D01*
G37*
G36*
X134067D02*X130667D01*
Y405748D01*
X134067D01*
Y409748D01*
G37*
G36*
X130167Y417948D02*X126767D01*
Y413948D01*
X130167D01*
Y417948D01*
G37*
G36*
X126267Y389748D02*X122867D01*
Y385748D01*
X126267D01*
Y389748D01*
G37*
G36*
X134067D02*X130667D01*
Y385748D01*
X134067D01*
Y389748D01*
G37*
G36*
X130167Y397948D02*X126767D01*
Y393948D01*
X130167D01*
Y397948D01*
G37*
G36*
X126267Y369748D02*X122867D01*
Y365748D01*
X126267D01*
Y369748D01*
G37*
G36*
X134067D02*X130667D01*
Y365748D01*
X134067D01*
Y369748D01*
G37*
G36*
X130167Y377948D02*X126767D01*
Y373948D01*
X130167D01*
Y377948D01*
G37*
G36*
X126267Y349748D02*X122867D01*
Y345748D01*
X126267D01*
Y349748D01*
G37*
G36*
X134067D02*X130667D01*
Y345748D01*
X134067D01*
Y349748D01*
G37*
G36*
X130167Y357948D02*X126767D01*
Y353948D01*
X130167D01*
Y357948D01*
G37*
G36*
X126267Y329748D02*X122867D01*
Y325748D01*
X126267D01*
Y329748D01*
G37*
G36*
X134067D02*X130667D01*
Y325748D01*
X134067D01*
Y329748D01*
G37*
G36*
X130167Y337948D02*X126767D01*
Y333948D01*
X130167D01*
Y337948D01*
G37*
G36*
X126267Y309748D02*X122867D01*
Y305748D01*
X126267D01*
Y309748D01*
G37*
G36*
X134067D02*X130667D01*
Y305748D01*
X134067D01*
Y309748D01*
G37*
G36*
X130167Y317948D02*X126767D01*
Y313948D01*
X130167D01*
Y317948D01*
G37*
G36*
X126267Y289748D02*X122867D01*
Y285748D01*
X126267D01*
Y289748D01*
G37*
G36*
X134067D02*X130667D01*
Y285748D01*
X134067D01*
Y289748D01*
G37*
G36*
X130167Y297948D02*X126767D01*
Y293948D01*
X130167D01*
Y297948D01*
G37*
G36*
X126267Y269748D02*X122867D01*
Y265748D01*
X126267D01*
Y269748D01*
G37*
G36*
X134067D02*X130667D01*
Y265748D01*
X134067D01*
Y269748D01*
G37*
G36*
X130167Y277948D02*X126767D01*
Y273948D01*
X130167D01*
Y277948D01*
G37*
G36*
X126267Y249748D02*X122867D01*
Y245748D01*
X126267D01*
Y249748D01*
G37*
G36*
X134067D02*X130667D01*
Y245748D01*
X134067D01*
Y249748D01*
G37*
G36*
X130167Y257948D02*X126767D01*
Y253948D01*
X130167D01*
Y257948D01*
G37*
G36*
X126267Y229748D02*X122867D01*
Y225748D01*
X126267D01*
Y229748D01*
G37*
G36*
X134067D02*X130667D01*
Y225748D01*
X134067D01*
Y229748D01*
G37*
G36*
X130167Y237948D02*X126767D01*
Y233948D01*
X130167D01*
Y237948D01*
G37*
G36*
X126267Y209748D02*X122867D01*
Y205748D01*
X126267D01*
Y209748D01*
G37*
G36*
X134067D02*X130667D01*
Y205748D01*
X134067D01*
Y209748D01*
G37*
G36*
X130167Y217948D02*X126767D01*
Y213948D01*
X130167D01*
Y217948D01*
G37*
G36*
X126267Y189748D02*X122867D01*
Y185748D01*
X126267D01*
Y189748D01*
G37*
G36*
X134067D02*X130667D01*
Y185748D01*
X134067D01*
Y189748D01*
G37*
G36*
X130167Y197948D02*X126767D01*
Y193948D01*
X130167D01*
Y197948D01*
G37*
G36*
X126267Y169748D02*X122867D01*
Y165748D01*
X126267D01*
Y169748D01*
G37*
G36*
X134067D02*X130667D01*
Y165748D01*
X134067D01*
Y169748D01*
G37*
G36*
X130167Y177948D02*X126767D01*
Y173948D01*
X130167D01*
Y177948D01*
G37*
G36*
X126267Y149748D02*X122867D01*
Y145748D01*
X126267D01*
Y149748D01*
G37*
G36*
X134067D02*X130667D01*
Y145748D01*
X134067D01*
Y149748D01*
G37*
G36*
X130167Y157948D02*X126767D01*
Y153948D01*
X130167D01*
Y157948D01*
G37*
G36*
X126267Y129748D02*X122867D01*
Y125748D01*
X126267D01*
Y129748D01*
G37*
G36*
X134067D02*X130667D01*
Y125748D01*
X134067D01*
Y129748D01*
G37*
G36*
X130167Y137948D02*X126767D01*
Y133948D01*
X130167D01*
Y137948D01*
G37*
G36*
X126267Y109748D02*X122867D01*
Y105748D01*
X126267D01*
Y109748D01*
G37*
G36*
X134067D02*X130667D01*
Y105748D01*
X134067D01*
Y109748D01*
G37*
G36*
X130167Y117948D02*X126767D01*
Y113948D01*
X130167D01*
Y117948D01*
G37*
G36*
X126267Y89748D02*X122867D01*
Y85748D01*
X126267D01*
Y89748D01*
G37*
G36*
X134067D02*X130667D01*
Y85748D01*
X134067D01*
Y89748D01*
G37*
G36*
X130167Y97948D02*X126767D01*
Y93948D01*
X130167D01*
Y97948D01*
G37*
G36*
X126267Y69748D02*X122867D01*
Y65748D01*
X126267D01*
Y69748D01*
G37*
G36*
X134067D02*X130667D01*
Y65748D01*
X134067D01*
Y69748D01*
G37*
G36*
X130167Y77948D02*X126767D01*
Y73948D01*
X130167D01*
Y77948D01*
G37*
G36*
X126267Y49748D02*X122867D01*
Y45748D01*
X126267D01*
Y49748D01*
G37*
G36*
X134067D02*X130667D01*
Y45748D01*
X134067D01*
Y49748D01*
G37*
G36*
X130167Y57948D02*X126767D01*
Y53948D01*
X130167D01*
Y57948D01*
G37*
G36*
X126267Y29748D02*X122867D01*
Y25748D01*
X126267D01*
Y29748D01*
G37*
G36*
X134067D02*X130667D01*
Y25748D01*
X134067D01*
Y29748D01*
G37*
G36*
X130167Y37948D02*X126767D01*
Y33948D01*
X130167D01*
Y37948D01*
G37*
G36*
X140267Y489748D02*X136867D01*
Y485748D01*
X140267D01*
Y489748D01*
G37*
G36*
X148067D02*X144667D01*
Y485748D01*
X148067D01*
Y489748D01*
G37*
G36*
X144167Y497948D02*X140767D01*
Y493948D01*
X144167D01*
Y497948D01*
G37*
G36*
X140267Y469748D02*X136867D01*
Y465748D01*
X140267D01*
Y469748D01*
G37*
G36*
X148067D02*X144667D01*
Y465748D01*
X148067D01*
Y469748D01*
G37*
G36*
X144167Y477948D02*X140767D01*
Y473948D01*
X144167D01*
Y477948D01*
G37*
G36*
X140267Y449748D02*X136867D01*
Y445748D01*
X140267D01*
Y449748D01*
G37*
G36*
X148067D02*X144667D01*
Y445748D01*
X148067D01*
Y449748D01*
G37*
G36*
X144167Y457948D02*X140767D01*
Y453948D01*
X144167D01*
Y457948D01*
G37*
G36*
X140267Y429748D02*X136867D01*
Y425748D01*
X140267D01*
Y429748D01*
G37*
G36*
X148067D02*X144667D01*
Y425748D01*
X148067D01*
Y429748D01*
G37*
G36*
X144167Y437948D02*X140767D01*
Y433948D01*
X144167D01*
Y437948D01*
G37*
G36*
X140267Y409748D02*X136867D01*
Y405748D01*
X140267D01*
Y409748D01*
G37*
G36*
X148067D02*X144667D01*
Y405748D01*
X148067D01*
Y409748D01*
G37*
G36*
X144167Y417948D02*X140767D01*
Y413948D01*
X144167D01*
Y417948D01*
G37*
G36*
X140267Y389748D02*X136867D01*
Y385748D01*
X140267D01*
Y389748D01*
G37*
G36*
X148067D02*X144667D01*
Y385748D01*
X148067D01*
Y389748D01*
G37*
G36*
X144167Y397948D02*X140767D01*
Y393948D01*
X144167D01*
Y397948D01*
G37*
G36*
X140267Y369748D02*X136867D01*
Y365748D01*
X140267D01*
Y369748D01*
G37*
G36*
X148067D02*X144667D01*
Y365748D01*
X148067D01*
Y369748D01*
G37*
G36*
X144167Y377948D02*X140767D01*
Y373948D01*
X144167D01*
Y377948D01*
G37*
G36*
X140267Y349748D02*X136867D01*
Y345748D01*
X140267D01*
Y349748D01*
G37*
G36*
X148067D02*X144667D01*
Y345748D01*
X148067D01*
Y349748D01*
G37*
G36*
X144167Y357948D02*X140767D01*
Y353948D01*
X144167D01*
Y357948D01*
G37*
G36*
X140267Y329748D02*X136867D01*
Y325748D01*
X140267D01*
Y329748D01*
G37*
G36*
X148067D02*X144667D01*
Y325748D01*
X148067D01*
Y329748D01*
G37*
G36*
X144167Y337948D02*X140767D01*
Y333948D01*
X144167D01*
Y337948D01*
G37*
G36*
X140267Y309748D02*X136867D01*
Y305748D01*
X140267D01*
Y309748D01*
G37*
G36*
X148067D02*X144667D01*
Y305748D01*
X148067D01*
Y309748D01*
G37*
G36*
X144167Y317948D02*X140767D01*
Y313948D01*
X144167D01*
Y317948D01*
G37*
G36*
X140267Y289748D02*X136867D01*
Y285748D01*
X140267D01*
Y289748D01*
G37*
G36*
X148067D02*X144667D01*
Y285748D01*
X148067D01*
Y289748D01*
G37*
G36*
X144167Y297948D02*X140767D01*
Y293948D01*
X144167D01*
Y297948D01*
G37*
G36*
X140267Y269748D02*X136867D01*
Y265748D01*
X140267D01*
Y269748D01*
G37*
G36*
X148067D02*X144667D01*
Y265748D01*
X148067D01*
Y269748D01*
G37*
G36*
X144167Y277948D02*X140767D01*
Y273948D01*
X144167D01*
Y277948D01*
G37*
G36*
X140267Y249748D02*X136867D01*
Y245748D01*
X140267D01*
Y249748D01*
G37*
G36*
X148067D02*X144667D01*
Y245748D01*
X148067D01*
Y249748D01*
G37*
G36*
X144167Y257948D02*X140767D01*
Y253948D01*
X144167D01*
Y257948D01*
G37*
G36*
X140267Y229748D02*X136867D01*
Y225748D01*
X140267D01*
Y229748D01*
G37*
G36*
X148067D02*X144667D01*
Y225748D01*
X148067D01*
Y229748D01*
G37*
G36*
X144167Y237948D02*X140767D01*
Y233948D01*
X144167D01*
Y237948D01*
G37*
G36*
X140267Y209748D02*X136867D01*
Y205748D01*
X140267D01*
Y209748D01*
G37*
G36*
X148067D02*X144667D01*
Y205748D01*
X148067D01*
Y209748D01*
G37*
G36*
X144167Y217948D02*X140767D01*
Y213948D01*
X144167D01*
Y217948D01*
G37*
G36*
X140267Y189748D02*X136867D01*
Y185748D01*
X140267D01*
Y189748D01*
G37*
G36*
X148067D02*X144667D01*
Y185748D01*
X148067D01*
Y189748D01*
G37*
G36*
X144167Y197948D02*X140767D01*
Y193948D01*
X144167D01*
Y197948D01*
G37*
G36*
X140267Y169748D02*X136867D01*
Y165748D01*
X140267D01*
Y169748D01*
G37*
G36*
X148067D02*X144667D01*
Y165748D01*
X148067D01*
Y169748D01*
G37*
G36*
X144167Y177948D02*X140767D01*
Y173948D01*
X144167D01*
Y177948D01*
G37*
G36*
X140267Y149748D02*X136867D01*
Y145748D01*
X140267D01*
Y149748D01*
G37*
G36*
X148067D02*X144667D01*
Y145748D01*
X148067D01*
Y149748D01*
G37*
G36*
X144167Y157948D02*X140767D01*
Y153948D01*
X144167D01*
Y157948D01*
G37*
G36*
X140267Y129748D02*X136867D01*
Y125748D01*
X140267D01*
Y129748D01*
G37*
G36*
X148067D02*X144667D01*
Y125748D01*
X148067D01*
Y129748D01*
G37*
G36*
X144167Y137948D02*X140767D01*
Y133948D01*
X144167D01*
Y137948D01*
G37*
G36*
X140267Y109748D02*X136867D01*
Y105748D01*
X140267D01*
Y109748D01*
G37*
G36*
X148067D02*X144667D01*
Y105748D01*
X148067D01*
Y109748D01*
G37*
G36*
X144167Y117948D02*X140767D01*
Y113948D01*
X144167D01*
Y117948D01*
G37*
G36*
X140267Y89748D02*X136867D01*
Y85748D01*
X140267D01*
Y89748D01*
G37*
G36*
X148067D02*X144667D01*
Y85748D01*
X148067D01*
Y89748D01*
G37*
G36*
X144167Y97948D02*X140767D01*
Y93948D01*
X144167D01*
Y97948D01*
G37*
G36*
X140267Y69748D02*X136867D01*
Y65748D01*
X140267D01*
Y69748D01*
G37*
G36*
X148067D02*X144667D01*
Y65748D01*
X148067D01*
Y69748D01*
G37*
G36*
X144167Y77948D02*X140767D01*
Y73948D01*
X144167D01*
Y77948D01*
G37*
G36*
X140267Y49748D02*X136867D01*
Y45748D01*
X140267D01*
Y49748D01*
G37*
G36*
X148067D02*X144667D01*
Y45748D01*
X148067D01*
Y49748D01*
G37*
G36*
X144167Y57948D02*X140767D01*
Y53948D01*
X144167D01*
Y57948D01*
G37*
G36*
X140267Y29748D02*X136867D01*
Y25748D01*
X140267D01*
Y29748D01*
G37*
G36*
X148067D02*X144667D01*
Y25748D01*
X148067D01*
Y29748D01*
G37*
G36*
X144167Y37948D02*X140767D01*
Y33948D01*
X144167D01*
Y37948D01*
G37*
G36*
X84317Y496498D02*X82817D01*
Y492998D01*
X84317D01*
Y496498D01*
G37*
G36*
X81717D02*X80217D01*
Y492998D01*
X81717D01*
Y496498D01*
G37*
G36*
X79217D02*X77717D01*
Y492998D01*
X79217D01*
Y496498D01*
G37*
G36*
Y489498D02*X77717D01*
Y485998D01*
X79217D01*
Y489498D01*
G37*
G36*
X81717D02*X80217D01*
Y485998D01*
X81717D01*
Y489498D01*
G37*
G36*
X84317D02*X82817D01*
Y485998D01*
X84317D01*
Y489498D01*
G37*
G36*
Y476498D02*X82817D01*
Y472998D01*
X84317D01*
Y476498D01*
G37*
G36*
X81717D02*X80217D01*
Y472998D01*
X81717D01*
Y476498D01*
G37*
G36*
X79217D02*X77717D01*
Y472998D01*
X79217D01*
Y476498D01*
G37*
G36*
Y469498D02*X77717D01*
Y465998D01*
X79217D01*
Y469498D01*
G37*
G36*
X81717D02*X80217D01*
Y465998D01*
X81717D01*
Y469498D01*
G37*
G36*
X84317D02*X82817D01*
Y465998D01*
X84317D01*
Y469498D01*
G37*
G36*
Y456498D02*X82817D01*
Y452998D01*
X84317D01*
Y456498D01*
G37*
G36*
X81717D02*X80217D01*
Y452998D01*
X81717D01*
Y456498D01*
G37*
G36*
X79217D02*X77717D01*
Y452998D01*
X79217D01*
Y456498D01*
G37*
G36*
Y449498D02*X77717D01*
Y445998D01*
X79217D01*
Y449498D01*
G37*
G36*
X81717D02*X80217D01*
Y445998D01*
X81717D01*
Y449498D01*
G37*
G36*
X84317D02*X82817D01*
Y445998D01*
X84317D01*
Y449498D01*
G37*
G36*
Y436498D02*X82817D01*
Y432998D01*
X84317D01*
Y436498D01*
G37*
G36*
X81717D02*X80217D01*
Y432998D01*
X81717D01*
Y436498D01*
G37*
G36*
X79217D02*X77717D01*
Y432998D01*
X79217D01*
Y436498D01*
G37*
G36*
Y429498D02*X77717D01*
Y425998D01*
X79217D01*
Y429498D01*
G37*
G36*
X81717D02*X80217D01*
Y425998D01*
X81717D01*
Y429498D01*
G37*
G36*
X84317D02*X82817D01*
Y425998D01*
X84317D01*
Y429498D01*
G37*
G36*
Y416498D02*X82817D01*
Y412998D01*
X84317D01*
Y416498D01*
G37*
G36*
X81717D02*X80217D01*
Y412998D01*
X81717D01*
Y416498D01*
G37*
G36*
X79217D02*X77717D01*
Y412998D01*
X79217D01*
Y416498D01*
G37*
G36*
Y409498D02*X77717D01*
Y405998D01*
X79217D01*
Y409498D01*
G37*
G36*
X81717D02*X80217D01*
Y405998D01*
X81717D01*
Y409498D01*
G37*
G36*
X84317D02*X82817D01*
Y405998D01*
X84317D01*
Y409498D01*
G37*
G36*
Y396498D02*X82817D01*
Y392998D01*
X84317D01*
Y396498D01*
G37*
G36*
X81717D02*X80217D01*
Y392998D01*
X81717D01*
Y396498D01*
G37*
G36*
X79217D02*X77717D01*
Y392998D01*
X79217D01*
Y396498D01*
G37*
G36*
Y389498D02*X77717D01*
Y385998D01*
X79217D01*
Y389498D01*
G37*
G36*
X81717D02*X80217D01*
Y385998D01*
X81717D01*
Y389498D01*
G37*
G36*
X84317D02*X82817D01*
Y385998D01*
X84317D01*
Y389498D01*
G37*
G36*
Y376498D02*X82817D01*
Y372998D01*
X84317D01*
Y376498D01*
G37*
G36*
X81717D02*X80217D01*
Y372998D01*
X81717D01*
Y376498D01*
G37*
G36*
X79217D02*X77717D01*
Y372998D01*
X79217D01*
Y376498D01*
G37*
G36*
Y369498D02*X77717D01*
Y365998D01*
X79217D01*
Y369498D01*
G37*
G36*
X81717D02*X80217D01*
Y365998D01*
X81717D01*
Y369498D01*
G37*
G36*
X84317D02*X82817D01*
Y365998D01*
X84317D01*
Y369498D01*
G37*
G36*
Y356498D02*X82817D01*
Y352998D01*
X84317D01*
Y356498D01*
G37*
G36*
X81717D02*X80217D01*
Y352998D01*
X81717D01*
Y356498D01*
G37*
G36*
X79217D02*X77717D01*
Y352998D01*
X79217D01*
Y356498D01*
G37*
G36*
Y349498D02*X77717D01*
Y345998D01*
X79217D01*
Y349498D01*
G37*
G36*
X81717D02*X80217D01*
Y345998D01*
X81717D01*
Y349498D01*
G37*
G36*
X84317D02*X82817D01*
Y345998D01*
X84317D01*
Y349498D01*
G37*
G36*
Y336498D02*X82817D01*
Y332998D01*
X84317D01*
Y336498D01*
G37*
G36*
X81717D02*X80217D01*
Y332998D01*
X81717D01*
Y336498D01*
G37*
G36*
X79217D02*X77717D01*
Y332998D01*
X79217D01*
Y336498D01*
G37*
G36*
Y329498D02*X77717D01*
Y325998D01*
X79217D01*
Y329498D01*
G37*
G36*
X81717D02*X80217D01*
Y325998D01*
X81717D01*
Y329498D01*
G37*
G36*
X84317D02*X82817D01*
Y325998D01*
X84317D01*
Y329498D01*
G37*
G36*
Y316498D02*X82817D01*
Y312998D01*
X84317D01*
Y316498D01*
G37*
G36*
X81717D02*X80217D01*
Y312998D01*
X81717D01*
Y316498D01*
G37*
G36*
X79217D02*X77717D01*
Y312998D01*
X79217D01*
Y316498D01*
G37*
G36*
Y309498D02*X77717D01*
Y305998D01*
X79217D01*
Y309498D01*
G37*
G36*
X81717D02*X80217D01*
Y305998D01*
X81717D01*
Y309498D01*
G37*
G36*
X84317D02*X82817D01*
Y305998D01*
X84317D01*
Y309498D01*
G37*
G36*
Y296498D02*X82817D01*
Y292998D01*
X84317D01*
Y296498D01*
G37*
G36*
X81717D02*X80217D01*
Y292998D01*
X81717D01*
Y296498D01*
G37*
G36*
X79217D02*X77717D01*
Y292998D01*
X79217D01*
Y296498D01*
G37*
G36*
Y289498D02*X77717D01*
Y285998D01*
X79217D01*
Y289498D01*
G37*
G36*
X81717D02*X80217D01*
Y285998D01*
X81717D01*
Y289498D01*
G37*
G36*
X84317D02*X82817D01*
Y285998D01*
X84317D01*
Y289498D01*
G37*
G36*
Y276498D02*X82817D01*
Y272998D01*
X84317D01*
Y276498D01*
G37*
G36*
X81717D02*X80217D01*
Y272998D01*
X81717D01*
Y276498D01*
G37*
G36*
X79217D02*X77717D01*
Y272998D01*
X79217D01*
Y276498D01*
G37*
G36*
Y269498D02*X77717D01*
Y265998D01*
X79217D01*
Y269498D01*
G37*
G36*
X81717D02*X80217D01*
Y265998D01*
X81717D01*
Y269498D01*
G37*
G36*
X84317D02*X82817D01*
Y265998D01*
X84317D01*
Y269498D01*
G37*
G36*
Y256498D02*X82817D01*
Y252998D01*
X84317D01*
Y256498D01*
G37*
G36*
X81717D02*X80217D01*
Y252998D01*
X81717D01*
Y256498D01*
G37*
G36*
X79217D02*X77717D01*
Y252998D01*
X79217D01*
Y256498D01*
G37*
G36*
Y249498D02*X77717D01*
Y245998D01*
X79217D01*
Y249498D01*
G37*
G36*
X81717D02*X80217D01*
Y245998D01*
X81717D01*
Y249498D01*
G37*
G36*
X84317D02*X82817D01*
Y245998D01*
X84317D01*
Y249498D01*
G37*
G36*
Y236498D02*X82817D01*
Y232998D01*
X84317D01*
Y236498D01*
G37*
G36*
X81717D02*X80217D01*
Y232998D01*
X81717D01*
Y236498D01*
G37*
G36*
X79217D02*X77717D01*
Y232998D01*
X79217D01*
Y236498D01*
G37*
G36*
Y229498D02*X77717D01*
Y225998D01*
X79217D01*
Y229498D01*
G37*
G36*
X81717D02*X80217D01*
Y225998D01*
X81717D01*
Y229498D01*
G37*
G36*
X84317D02*X82817D01*
Y225998D01*
X84317D01*
Y229498D01*
G37*
G36*
Y216498D02*X82817D01*
Y212998D01*
X84317D01*
Y216498D01*
G37*
G36*
X81717D02*X80217D01*
Y212998D01*
X81717D01*
Y216498D01*
G37*
G36*
X79217D02*X77717D01*
Y212998D01*
X79217D01*
Y216498D01*
G37*
G36*
Y209498D02*X77717D01*
Y205998D01*
X79217D01*
Y209498D01*
G37*
G36*
X81717D02*X80217D01*
Y205998D01*
X81717D01*
Y209498D01*
G37*
G36*
X84317D02*X82817D01*
Y205998D01*
X84317D01*
Y209498D01*
G37*
G36*
Y196498D02*X82817D01*
Y192998D01*
X84317D01*
Y196498D01*
G37*
G36*
X81717D02*X80217D01*
Y192998D01*
X81717D01*
Y196498D01*
G37*
G36*
X79217D02*X77717D01*
Y192998D01*
X79217D01*
Y196498D01*
G37*
G36*
Y189498D02*X77717D01*
Y185998D01*
X79217D01*
Y189498D01*
G37*
G36*
X81717D02*X80217D01*
Y185998D01*
X81717D01*
Y189498D01*
G37*
G36*
X84317D02*X82817D01*
Y185998D01*
X84317D01*
Y189498D01*
G37*
G36*
Y176498D02*X82817D01*
Y172998D01*
X84317D01*
Y176498D01*
G37*
G36*
X81717D02*X80217D01*
Y172998D01*
X81717D01*
Y176498D01*
G37*
G36*
X79217D02*X77717D01*
Y172998D01*
X79217D01*
Y176498D01*
G37*
G36*
Y169498D02*X77717D01*
Y165998D01*
X79217D01*
Y169498D01*
G37*
G36*
X81717D02*X80217D01*
Y165998D01*
X81717D01*
Y169498D01*
G37*
G36*
X84317D02*X82817D01*
Y165998D01*
X84317D01*
Y169498D01*
G37*
G36*
Y156498D02*X82817D01*
Y152998D01*
X84317D01*
Y156498D01*
G37*
G36*
X81717D02*X80217D01*
Y152998D01*
X81717D01*
Y156498D01*
G37*
G36*
X79217D02*X77717D01*
Y152998D01*
X79217D01*
Y156498D01*
G37*
G36*
Y149498D02*X77717D01*
Y145998D01*
X79217D01*
Y149498D01*
G37*
G36*
X81717D02*X80217D01*
Y145998D01*
X81717D01*
Y149498D01*
G37*
G36*
X84317D02*X82817D01*
Y145998D01*
X84317D01*
Y149498D01*
G37*
G36*
Y136498D02*X82817D01*
Y132998D01*
X84317D01*
Y136498D01*
G37*
G36*
X81717D02*X80217D01*
Y132998D01*
X81717D01*
Y136498D01*
G37*
G36*
X79217D02*X77717D01*
Y132998D01*
X79217D01*
Y136498D01*
G37*
G36*
Y129498D02*X77717D01*
Y125998D01*
X79217D01*
Y129498D01*
G37*
G36*
X81717D02*X80217D01*
Y125998D01*
X81717D01*
Y129498D01*
G37*
G36*
X84317D02*X82817D01*
Y125998D01*
X84317D01*
Y129498D01*
G37*
G36*
Y116498D02*X82817D01*
Y112998D01*
X84317D01*
Y116498D01*
G37*
G36*
X81717D02*X80217D01*
Y112998D01*
X81717D01*
Y116498D01*
G37*
G36*
X79217D02*X77717D01*
Y112998D01*
X79217D01*
Y116498D01*
G37*
G36*
Y109498D02*X77717D01*
Y105998D01*
X79217D01*
Y109498D01*
G37*
G36*
X81717D02*X80217D01*
Y105998D01*
X81717D01*
Y109498D01*
G37*
G36*
X84317D02*X82817D01*
Y105998D01*
X84317D01*
Y109498D01*
G37*
G36*
Y96498D02*X82817D01*
Y92998D01*
X84317D01*
Y96498D01*
G37*
G36*
X81717D02*X80217D01*
Y92998D01*
X81717D01*
Y96498D01*
G37*
G36*
X79217D02*X77717D01*
Y92998D01*
X79217D01*
Y96498D01*
G37*
G36*
Y89498D02*X77717D01*
Y85998D01*
X79217D01*
Y89498D01*
G37*
G36*
X81717D02*X80217D01*
Y85998D01*
X81717D01*
Y89498D01*
G37*
G36*
X84317D02*X82817D01*
Y85998D01*
X84317D01*
Y89498D01*
G37*
G36*
Y76498D02*X82817D01*
Y72998D01*
X84317D01*
Y76498D01*
G37*
G36*
X81717D02*X80217D01*
Y72998D01*
X81717D01*
Y76498D01*
G37*
G36*
X79217D02*X77717D01*
Y72998D01*
X79217D01*
Y76498D01*
G37*
G36*
Y69498D02*X77717D01*
Y65998D01*
X79217D01*
Y69498D01*
G37*
G36*
X81717D02*X80217D01*
Y65998D01*
X81717D01*
Y69498D01*
G37*
G36*
X84317D02*X82817D01*
Y65998D01*
X84317D01*
Y69498D01*
G37*
G36*
Y56498D02*X82817D01*
Y52998D01*
X84317D01*
Y56498D01*
G37*
G36*
X81717D02*X80217D01*
Y52998D01*
X81717D01*
Y56498D01*
G37*
G36*
X79217D02*X77717D01*
Y52998D01*
X79217D01*
Y56498D01*
G37*
G36*
Y49498D02*X77717D01*
Y45998D01*
X79217D01*
Y49498D01*
G37*
G36*
X81717D02*X80217D01*
Y45998D01*
X81717D01*
Y49498D01*
G37*
G36*
X84317D02*X82817D01*
Y45998D01*
X84317D01*
Y49498D01*
G37*
G36*
Y36498D02*X82817D01*
Y32998D01*
X84317D01*
Y36498D01*
G37*
G36*
X81717D02*X80217D01*
Y32998D01*
X81717D01*
Y36498D01*
G37*
G36*
X79217D02*X77717D01*
Y32998D01*
X79217D01*
Y36498D01*
G37*
G36*
Y29498D02*X77717D01*
Y25998D01*
X79217D01*
Y29498D01*
G37*
G36*
X81717D02*X80217D01*
Y25998D01*
X81717D01*
Y29498D01*
G37*
G36*
X84317D02*X82817D01*
Y25998D01*
X84317D01*
Y29498D01*
G37*
G36*
X73190Y498306D02*Y496338D01*
X75944D01*
Y498306D01*
X73190D01*
G37*
G36*
Y495158D02*Y493190D01*
X75944D01*
Y495158D01*
X73190D01*
G37*
G36*
Y478306D02*Y476338D01*
X75944D01*
Y478306D01*
X73190D01*
G37*
G36*
Y475158D02*Y473190D01*
X75944D01*
Y475158D01*
X73190D01*
G37*
G36*
Y458306D02*Y456338D01*
X75944D01*
Y458306D01*
X73190D01*
G37*
G36*
Y455158D02*Y453190D01*
X75944D01*
Y455158D01*
X73190D01*
G37*
G36*
Y438306D02*Y436338D01*
X75944D01*
Y438306D01*
X73190D01*
G37*
G36*
Y435158D02*Y433190D01*
X75944D01*
Y435158D01*
X73190D01*
G37*
G36*
Y418306D02*Y416338D01*
X75944D01*
Y418306D01*
X73190D01*
G37*
G36*
Y415158D02*Y413190D01*
X75944D01*
Y415158D01*
X73190D01*
G37*
G36*
Y398306D02*Y396338D01*
X75944D01*
Y398306D01*
X73190D01*
G37*
G36*
Y395158D02*Y393190D01*
X75944D01*
Y395158D01*
X73190D01*
G37*
G36*
Y378306D02*Y376338D01*
X75944D01*
Y378306D01*
X73190D01*
G37*
G36*
Y375158D02*Y373190D01*
X75944D01*
Y375158D01*
X73190D01*
G37*
G36*
Y358306D02*Y356338D01*
X75944D01*
Y358306D01*
X73190D01*
G37*
G36*
Y355158D02*Y353190D01*
X75944D01*
Y355158D01*
X73190D01*
G37*
G36*
Y338306D02*Y336338D01*
X75944D01*
Y338306D01*
X73190D01*
G37*
G36*
Y335158D02*Y333190D01*
X75944D01*
Y335158D01*
X73190D01*
G37*
G36*
Y318306D02*Y316338D01*
X75944D01*
Y318306D01*
X73190D01*
G37*
G36*
Y315158D02*Y313190D01*
X75944D01*
Y315158D01*
X73190D01*
G37*
G36*
Y298306D02*Y296338D01*
X75944D01*
Y298306D01*
X73190D01*
G37*
G36*
Y295158D02*Y293190D01*
X75944D01*
Y295158D01*
X73190D01*
G37*
G36*
Y278306D02*Y276338D01*
X75944D01*
Y278306D01*
X73190D01*
G37*
G36*
Y275158D02*Y273190D01*
X75944D01*
Y275158D01*
X73190D01*
G37*
G36*
Y258306D02*Y256338D01*
X75944D01*
Y258306D01*
X73190D01*
G37*
G36*
Y255158D02*Y253190D01*
X75944D01*
Y255158D01*
X73190D01*
G37*
G36*
Y238306D02*Y236338D01*
X75944D01*
Y238306D01*
X73190D01*
G37*
G36*
Y235158D02*Y233190D01*
X75944D01*
Y235158D01*
X73190D01*
G37*
G36*
Y218306D02*Y216338D01*
X75944D01*
Y218306D01*
X73190D01*
G37*
G36*
Y215158D02*Y213190D01*
X75944D01*
Y215158D01*
X73190D01*
G37*
G36*
Y198306D02*Y196338D01*
X75944D01*
Y198306D01*
X73190D01*
G37*
G36*
Y195158D02*Y193190D01*
X75944D01*
Y195158D01*
X73190D01*
G37*
G36*
Y178306D02*Y176338D01*
X75944D01*
Y178306D01*
X73190D01*
G37*
G36*
Y175158D02*Y173190D01*
X75944D01*
Y175158D01*
X73190D01*
G37*
G36*
Y158306D02*Y156338D01*
X75944D01*
Y158306D01*
X73190D01*
G37*
G36*
Y155158D02*Y153190D01*
X75944D01*
Y155158D01*
X73190D01*
G37*
G36*
Y138306D02*Y136338D01*
X75944D01*
Y138306D01*
X73190D01*
G37*
G36*
Y135158D02*Y133190D01*
X75944D01*
Y135158D01*
X73190D01*
G37*
G36*
Y118306D02*Y116338D01*
X75944D01*
Y118306D01*
X73190D01*
G37*
G36*
Y115158D02*Y113190D01*
X75944D01*
Y115158D01*
X73190D01*
G37*
G36*
Y98306D02*Y96338D01*
X75944D01*
Y98306D01*
X73190D01*
G37*
G36*
Y95158D02*Y93190D01*
X75944D01*
Y95158D01*
X73190D01*
G37*
G36*
Y78306D02*Y76338D01*
X75944D01*
Y78306D01*
X73190D01*
G37*
G36*
Y75158D02*Y73190D01*
X75944D01*
Y75158D01*
X73190D01*
G37*
G36*
Y58306D02*Y56338D01*
X75944D01*
Y58306D01*
X73190D01*
G37*
G36*
Y55158D02*Y53190D01*
X75944D01*
Y55158D01*
X73190D01*
G37*
G36*
Y38306D02*Y36338D01*
X75944D01*
Y38306D01*
X73190D01*
G37*
G36*
Y35158D02*Y33190D01*
X75944D01*
Y35158D01*
X73190D01*
G37*
G36*
X70051Y492323D02*X68083D01*
Y489173D01*
X70051D01*
Y492323D01*
G37*
G36*
Y499016D02*X68083D01*
Y495866D01*
X70051D01*
Y499016D01*
G37*
G36*
Y472323D02*X68083D01*
Y469173D01*
X70051D01*
Y472323D01*
G37*
G36*
Y479016D02*X68083D01*
Y475866D01*
X70051D01*
Y479016D01*
G37*
G36*
Y452323D02*X68083D01*
Y449173D01*
X70051D01*
Y452323D01*
G37*
G36*
Y459016D02*X68083D01*
Y455866D01*
X70051D01*
Y459016D01*
G37*
G36*
Y432323D02*X68083D01*
Y429173D01*
X70051D01*
Y432323D01*
G37*
G36*
Y439016D02*X68083D01*
Y435866D01*
X70051D01*
Y439016D01*
G37*
G36*
Y412323D02*X68083D01*
Y409173D01*
X70051D01*
Y412323D01*
G37*
G36*
Y419016D02*X68083D01*
Y415866D01*
X70051D01*
Y419016D01*
G37*
G36*
Y392323D02*X68083D01*
Y389173D01*
X70051D01*
Y392323D01*
G37*
G36*
Y399016D02*X68083D01*
Y395866D01*
X70051D01*
Y399016D01*
G37*
G36*
Y372323D02*X68083D01*
Y369173D01*
X70051D01*
Y372323D01*
G37*
G36*
Y379016D02*X68083D01*
Y375866D01*
X70051D01*
Y379016D01*
G37*
G36*
Y352323D02*X68083D01*
Y349173D01*
X70051D01*
Y352323D01*
G37*
G36*
Y359016D02*X68083D01*
Y355866D01*
X70051D01*
Y359016D01*
G37*
G36*
Y332323D02*X68083D01*
Y329173D01*
X70051D01*
Y332323D01*
G37*
G36*
Y339016D02*X68083D01*
Y335866D01*
X70051D01*
Y339016D01*
G37*
G36*
Y312323D02*X68083D01*
Y309173D01*
X70051D01*
Y312323D01*
G37*
G36*
Y319016D02*X68083D01*
Y315866D01*
X70051D01*
Y319016D01*
G37*
G36*
Y292323D02*X68083D01*
Y289173D01*
X70051D01*
Y292323D01*
G37*
G36*
Y299016D02*X68083D01*
Y295866D01*
X70051D01*
Y299016D01*
G37*
G36*
Y272323D02*X68083D01*
Y269173D01*
X70051D01*
Y272323D01*
G37*
G36*
Y279016D02*X68083D01*
Y275866D01*
X70051D01*
Y279016D01*
G37*
G36*
Y252323D02*X68083D01*
Y249173D01*
X70051D01*
Y252323D01*
G37*
G36*
Y259016D02*X68083D01*
Y255866D01*
X70051D01*
Y259016D01*
G37*
G36*
Y232323D02*X68083D01*
Y229173D01*
X70051D01*
Y232323D01*
G37*
G36*
Y239016D02*X68083D01*
Y235866D01*
X70051D01*
Y239016D01*
G37*
G36*
Y212323D02*X68083D01*
Y209173D01*
X70051D01*
Y212323D01*
G37*
G36*
Y219016D02*X68083D01*
Y215866D01*
X70051D01*
Y219016D01*
G37*
G36*
Y192323D02*X68083D01*
Y189173D01*
X70051D01*
Y192323D01*
G37*
G36*
Y199016D02*X68083D01*
Y195866D01*
X70051D01*
Y199016D01*
G37*
G36*
Y172323D02*X68083D01*
Y169173D01*
X70051D01*
Y172323D01*
G37*
G36*
Y179016D02*X68083D01*
Y175866D01*
X70051D01*
Y179016D01*
G37*
G36*
Y152323D02*X68083D01*
Y149173D01*
X70051D01*
Y152323D01*
G37*
G36*
Y159016D02*X68083D01*
Y155866D01*
X70051D01*
Y159016D01*
G37*
G36*
Y132323D02*X68083D01*
Y129173D01*
X70051D01*
Y132323D01*
G37*
G36*
Y139016D02*X68083D01*
Y135866D01*
X70051D01*
Y139016D01*
G37*
G36*
Y112323D02*X68083D01*
Y109173D01*
X70051D01*
Y112323D01*
G37*
G36*
Y119016D02*X68083D01*
Y115866D01*
X70051D01*
Y119016D01*
G37*
G36*
Y92323D02*X68083D01*
Y89173D01*
X70051D01*
Y92323D01*
G37*
G36*
Y99016D02*X68083D01*
Y95866D01*
X70051D01*
Y99016D01*
G37*
G36*
Y72323D02*X68083D01*
Y69173D01*
X70051D01*
Y72323D01*
G37*
G36*
Y79016D02*X68083D01*
Y75866D01*
X70051D01*
Y79016D01*
G37*
G36*
Y52323D02*X68083D01*
Y49173D01*
X70051D01*
Y52323D01*
G37*
G36*
Y59016D02*X68083D01*
Y55866D01*
X70051D01*
Y59016D01*
G37*
G36*
Y32323D02*X68083D01*
Y29173D01*
X70051D01*
Y32323D01*
G37*
G36*
Y39016D02*X68083D01*
Y35866D01*
X70051D01*
Y39016D01*
G37*
G36*
X55017Y496498D02*X52117D01*
Y492998D01*
X55017D01*
Y496498D01*
G37*
G36*
X49917D02*X47017D01*
Y492998D01*
X49917D01*
Y496498D01*
G37*
G36*
X52417Y489498D02*X49517D01*
Y485998D01*
X52417D01*
Y489498D01*
G37*
G36*
X55017Y476498D02*X52117D01*
Y472998D01*
X55017D01*
Y476498D01*
G37*
G36*
X49917D02*X47017D01*
Y472998D01*
X49917D01*
Y476498D01*
G37*
G36*
X52417Y469498D02*X49517D01*
Y465998D01*
X52417D01*
Y469498D01*
G37*
G36*
X55017Y456498D02*X52117D01*
Y452998D01*
X55017D01*
Y456498D01*
G37*
G36*
X49917D02*X47017D01*
Y452998D01*
X49917D01*
Y456498D01*
G37*
G36*
X52417Y449498D02*X49517D01*
Y445998D01*
X52417D01*
Y449498D01*
G37*
G36*
X55017Y436498D02*X52117D01*
Y432998D01*
X55017D01*
Y436498D01*
G37*
G36*
X49917D02*X47017D01*
Y432998D01*
X49917D01*
Y436498D01*
G37*
G36*
X52417Y429498D02*X49517D01*
Y425998D01*
X52417D01*
Y429498D01*
G37*
G36*
X55017Y416498D02*X52117D01*
Y412998D01*
X55017D01*
Y416498D01*
G37*
G36*
X49917D02*X47017D01*
Y412998D01*
X49917D01*
Y416498D01*
G37*
G36*
X52417Y409498D02*X49517D01*
Y405998D01*
X52417D01*
Y409498D01*
G37*
G36*
X55017Y396498D02*X52117D01*
Y392998D01*
X55017D01*
Y396498D01*
G37*
G36*
X49917D02*X47017D01*
Y392998D01*
X49917D01*
Y396498D01*
G37*
G36*
X52417Y389498D02*X49517D01*
Y385998D01*
X52417D01*
Y389498D01*
G37*
G36*
X55017Y376498D02*X52117D01*
Y372998D01*
X55017D01*
Y376498D01*
G37*
G36*
X49917D02*X47017D01*
Y372998D01*
X49917D01*
Y376498D01*
G37*
G36*
X52417Y369498D02*X49517D01*
Y365998D01*
X52417D01*
Y369498D01*
G37*
G36*
X55017Y356498D02*X52117D01*
Y352998D01*
X55017D01*
Y356498D01*
G37*
G36*
X49917D02*X47017D01*
Y352998D01*
X49917D01*
Y356498D01*
G37*
G36*
X52417Y349498D02*X49517D01*
Y345998D01*
X52417D01*
Y349498D01*
G37*
G36*
X55017Y336498D02*X52117D01*
Y332998D01*
X55017D01*
Y336498D01*
G37*
G36*
X49917D02*X47017D01*
Y332998D01*
X49917D01*
Y336498D01*
G37*
G36*
X52417Y329498D02*X49517D01*
Y325998D01*
X52417D01*
Y329498D01*
G37*
G36*
X55017Y316498D02*X52117D01*
Y312998D01*
X55017D01*
Y316498D01*
G37*
G36*
X49917D02*X47017D01*
Y312998D01*
X49917D01*
Y316498D01*
G37*
G36*
X52417Y309498D02*X49517D01*
Y305998D01*
X52417D01*
Y309498D01*
G37*
G36*
X55017Y296498D02*X52117D01*
Y292998D01*
X55017D01*
Y296498D01*
G37*
G36*
X49917D02*X47017D01*
Y292998D01*
X49917D01*
Y296498D01*
G37*
G36*
X52417Y289498D02*X49517D01*
Y285998D01*
X52417D01*
Y289498D01*
G37*
G36*
X55017Y276498D02*X52117D01*
Y272998D01*
X55017D01*
Y276498D01*
G37*
G36*
X49917D02*X47017D01*
Y272998D01*
X49917D01*
Y276498D01*
G37*
G36*
X52417Y269498D02*X49517D01*
Y265998D01*
X52417D01*
Y269498D01*
G37*
G36*
X55017Y256498D02*X52117D01*
Y252998D01*
X55017D01*
Y256498D01*
G37*
G36*
X49917D02*X47017D01*
Y252998D01*
X49917D01*
Y256498D01*
G37*
G36*
X52417Y249498D02*X49517D01*
Y245998D01*
X52417D01*
Y249498D01*
G37*
G36*
X55017Y236498D02*X52117D01*
Y232998D01*
X55017D01*
Y236498D01*
G37*
G36*
X49917D02*X47017D01*
Y232998D01*
X49917D01*
Y236498D01*
G37*
G36*
X52417Y229498D02*X49517D01*
Y225998D01*
X52417D01*
Y229498D01*
G37*
G36*
X55017Y216498D02*X52117D01*
Y212998D01*
X55017D01*
Y216498D01*
G37*
G36*
X49917D02*X47017D01*
Y212998D01*
X49917D01*
Y216498D01*
G37*
G36*
X52417Y209498D02*X49517D01*
Y205998D01*
X52417D01*
Y209498D01*
G37*
G36*
X55017Y196498D02*X52117D01*
Y192998D01*
X55017D01*
Y196498D01*
G37*
G36*
X49917D02*X47017D01*
Y192998D01*
X49917D01*
Y196498D01*
G37*
G36*
X52417Y189498D02*X49517D01*
Y185998D01*
X52417D01*
Y189498D01*
G37*
G36*
X55017Y176498D02*X52117D01*
Y172998D01*
X55017D01*
Y176498D01*
G37*
G36*
X49917D02*X47017D01*
Y172998D01*
X49917D01*
Y176498D01*
G37*
G36*
X52417Y169498D02*X49517D01*
Y165998D01*
X52417D01*
Y169498D01*
G37*
G36*
X55017Y156498D02*X52117D01*
Y152998D01*
X55017D01*
Y156498D01*
G37*
G36*
X49917D02*X47017D01*
Y152998D01*
X49917D01*
Y156498D01*
G37*
G36*
X52417Y149498D02*X49517D01*
Y145998D01*
X52417D01*
Y149498D01*
G37*
G36*
X55017Y136498D02*X52117D01*
Y132998D01*
X55017D01*
Y136498D01*
G37*
G36*
X49917D02*X47017D01*
Y132998D01*
X49917D01*
Y136498D01*
G37*
G36*
X52417Y129498D02*X49517D01*
Y125998D01*
X52417D01*
Y129498D01*
G37*
G36*
X55017Y116498D02*X52117D01*
Y112998D01*
X55017D01*
Y116498D01*
G37*
G36*
X49917D02*X47017D01*
Y112998D01*
X49917D01*
Y116498D01*
G37*
G36*
X52417Y109498D02*X49517D01*
Y105998D01*
X52417D01*
Y109498D01*
G37*
G36*
X55017Y96498D02*X52117D01*
Y92998D01*
X55017D01*
Y96498D01*
G37*
G36*
X49917D02*X47017D01*
Y92998D01*
X49917D01*
Y96498D01*
G37*
G36*
X52417Y89498D02*X49517D01*
Y85998D01*
X52417D01*
Y89498D01*
G37*
G36*
X55017Y76498D02*X52117D01*
Y72998D01*
X55017D01*
Y76498D01*
G37*
G36*
X49917D02*X47017D01*
Y72998D01*
X49917D01*
Y76498D01*
G37*
G36*
X52417Y69498D02*X49517D01*
Y65998D01*
X52417D01*
Y69498D01*
G37*
G36*
X55017Y56498D02*X52117D01*
Y52998D01*
X55017D01*
Y56498D01*
G37*
G36*
X49917D02*X47017D01*
Y52998D01*
X49917D01*
Y56498D01*
G37*
G36*
X52417Y49498D02*X49517D01*
Y45998D01*
X52417D01*
Y49498D01*
G37*
G36*
X55017Y36498D02*X52117D01*
Y32998D01*
X55017D01*
Y36498D01*
G37*
G36*
X49917D02*X47017D01*
Y32998D01*
X49917D01*
Y36498D01*
G37*
G36*
X52417Y29498D02*X49517D01*
Y25998D01*
X52417D01*
Y29498D01*
G37*
G36*
X65017Y496498D02*X62117D01*
Y492998D01*
X65017D01*
Y496498D01*
G37*
G36*
X59917D02*X57017D01*
Y492998D01*
X59917D01*
Y496498D01*
G37*
G36*
X62417Y489498D02*X59517D01*
Y485998D01*
X62417D01*
Y489498D01*
G37*
G36*
X65017Y476498D02*X62117D01*
Y472998D01*
X65017D01*
Y476498D01*
G37*
G36*
X59917D02*X57017D01*
Y472998D01*
X59917D01*
Y476498D01*
G37*
G36*
X62417Y469498D02*X59517D01*
Y465998D01*
X62417D01*
Y469498D01*
G37*
G36*
X65017Y456498D02*X62117D01*
Y452998D01*
X65017D01*
Y456498D01*
G37*
G36*
X59917D02*X57017D01*
Y452998D01*
X59917D01*
Y456498D01*
G37*
G36*
X62417Y449498D02*X59517D01*
Y445998D01*
X62417D01*
Y449498D01*
G37*
G36*
X65017Y436498D02*X62117D01*
Y432998D01*
X65017D01*
Y436498D01*
G37*
G36*
X59917D02*X57017D01*
Y432998D01*
X59917D01*
Y436498D01*
G37*
G36*
X62417Y429498D02*X59517D01*
Y425998D01*
X62417D01*
Y429498D01*
G37*
G36*
X65017Y416498D02*X62117D01*
Y412998D01*
X65017D01*
Y416498D01*
G37*
G36*
X59917D02*X57017D01*
Y412998D01*
X59917D01*
Y416498D01*
G37*
G36*
X62417Y409498D02*X59517D01*
Y405998D01*
X62417D01*
Y409498D01*
G37*
G36*
X65017Y396498D02*X62117D01*
Y392998D01*
X65017D01*
Y396498D01*
G37*
G36*
X59917D02*X57017D01*
Y392998D01*
X59917D01*
Y396498D01*
G37*
G36*
X62417Y389498D02*X59517D01*
Y385998D01*
X62417D01*
Y389498D01*
G37*
G36*
X65017Y376498D02*X62117D01*
Y372998D01*
X65017D01*
Y376498D01*
G37*
G36*
X59917D02*X57017D01*
Y372998D01*
X59917D01*
Y376498D01*
G37*
G36*
X62417Y369498D02*X59517D01*
Y365998D01*
X62417D01*
Y369498D01*
G37*
G36*
X65017Y356498D02*X62117D01*
Y352998D01*
X65017D01*
Y356498D01*
G37*
G36*
X59917D02*X57017D01*
Y352998D01*
X59917D01*
Y356498D01*
G37*
G36*
X62417Y349498D02*X59517D01*
Y345998D01*
X62417D01*
Y349498D01*
G37*
G36*
X65017Y336498D02*X62117D01*
Y332998D01*
X65017D01*
Y336498D01*
G37*
G36*
X59917D02*X57017D01*
Y332998D01*
X59917D01*
Y336498D01*
G37*
G36*
X62417Y329498D02*X59517D01*
Y325998D01*
X62417D01*
Y329498D01*
G37*
G36*
X65017Y316498D02*X62117D01*
Y312998D01*
X65017D01*
Y316498D01*
G37*
G36*
X59917D02*X57017D01*
Y312998D01*
X59917D01*
Y316498D01*
G37*
G36*
X62417Y309498D02*X59517D01*
Y305998D01*
X62417D01*
Y309498D01*
G37*
G36*
X65017Y296498D02*X62117D01*
Y292998D01*
X65017D01*
Y296498D01*
G37*
G36*
X59917D02*X57017D01*
Y292998D01*
X59917D01*
Y296498D01*
G37*
G36*
X62417Y289498D02*X59517D01*
Y285998D01*
X62417D01*
Y289498D01*
G37*
G36*
X65017Y276498D02*X62117D01*
Y272998D01*
X65017D01*
Y276498D01*
G37*
G36*
X59917D02*X57017D01*
Y272998D01*
X59917D01*
Y276498D01*
G37*
G36*
X62417Y269498D02*X59517D01*
Y265998D01*
X62417D01*
Y269498D01*
G37*
G36*
X65017Y256498D02*X62117D01*
Y252998D01*
X65017D01*
Y256498D01*
G37*
G36*
X59917D02*X57017D01*
Y252998D01*
X59917D01*
Y256498D01*
G37*
G36*
X62417Y249498D02*X59517D01*
Y245998D01*
X62417D01*
Y249498D01*
G37*
G36*
X65017Y236498D02*X62117D01*
Y232998D01*
X65017D01*
Y236498D01*
G37*
G36*
X59917D02*X57017D01*
Y232998D01*
X59917D01*
Y236498D01*
G37*
G36*
X62417Y229498D02*X59517D01*
Y225998D01*
X62417D01*
Y229498D01*
G37*
G36*
X65017Y216498D02*X62117D01*
Y212998D01*
X65017D01*
Y216498D01*
G37*
G36*
X59917D02*X57017D01*
Y212998D01*
X59917D01*
Y216498D01*
G37*
G36*
X62417Y209498D02*X59517D01*
Y205998D01*
X62417D01*
Y209498D01*
G37*
G36*
X65017Y196498D02*X62117D01*
Y192998D01*
X65017D01*
Y196498D01*
G37*
G36*
X59917D02*X57017D01*
Y192998D01*
X59917D01*
Y196498D01*
G37*
G36*
X62417Y189498D02*X59517D01*
Y185998D01*
X62417D01*
Y189498D01*
G37*
G36*
X65017Y176498D02*X62117D01*
Y172998D01*
X65017D01*
Y176498D01*
G37*
G36*
X59917D02*X57017D01*
Y172998D01*
X59917D01*
Y176498D01*
G37*
G36*
X62417Y169498D02*X59517D01*
Y165998D01*
X62417D01*
Y169498D01*
G37*
G36*
X65017Y156498D02*X62117D01*
Y152998D01*
X65017D01*
Y156498D01*
G37*
G36*
X59917D02*X57017D01*
Y152998D01*
X59917D01*
Y156498D01*
G37*
G36*
X62417Y149498D02*X59517D01*
Y145998D01*
X62417D01*
Y149498D01*
G37*
G36*
X65017Y136498D02*X62117D01*
Y132998D01*
X65017D01*
Y136498D01*
G37*
G36*
X59917D02*X57017D01*
Y132998D01*
X59917D01*
Y136498D01*
G37*
G36*
X62417Y129498D02*X59517D01*
Y125998D01*
X62417D01*
Y129498D01*
G37*
G36*
X65017Y116498D02*X62117D01*
Y112998D01*
X65017D01*
Y116498D01*
G37*
G36*
X59917D02*X57017D01*
Y112998D01*
X59917D01*
Y116498D01*
G37*
G36*
X62417Y109498D02*X59517D01*
Y105998D01*
X62417D01*
Y109498D01*
G37*
G36*
X65017Y96498D02*X62117D01*
Y92998D01*
X65017D01*
Y96498D01*
G37*
G36*
X59917D02*X57017D01*
Y92998D01*
X59917D01*
Y96498D01*
G37*
G36*
X62417Y89498D02*X59517D01*
Y85998D01*
X62417D01*
Y89498D01*
G37*
G36*
X65017Y76498D02*X62117D01*
Y72998D01*
X65017D01*
Y76498D01*
G37*
G36*
X59917D02*X57017D01*
Y72998D01*
X59917D01*
Y76498D01*
G37*
G36*
X62417Y69498D02*X59517D01*
Y65998D01*
X62417D01*
Y69498D01*
G37*
G36*
X65017Y56498D02*X62117D01*
Y52998D01*
X65017D01*
Y56498D01*
G37*
G36*
X59917D02*X57017D01*
Y52998D01*
X59917D01*
Y56498D01*
G37*
G36*
X62417Y49498D02*X59517D01*
Y45998D01*
X62417D01*
Y49498D01*
G37*
G36*
X65017Y36498D02*X62117D01*
Y32998D01*
X65017D01*
Y36498D01*
G37*
G36*
X59917D02*X57017D01*
Y32998D01*
X59917D01*
Y36498D01*
G37*
G36*
X62417Y29498D02*X59517D01*
Y25998D01*
X62417D01*
Y29498D01*
G37*
G36*
X119125Y485125D02*X117157D01*
Y482371D01*
X119125D01*
Y485125D01*
G37*
G36*
X115977D02*X114009D01*
Y482371D01*
X115977D01*
Y485125D01*
G37*
G36*
X119125Y465125D02*X117157D01*
Y462371D01*
X119125D01*
Y465125D01*
G37*
G36*
X115977D02*X114009D01*
Y462371D01*
X115977D01*
Y465125D01*
G37*
G36*
X119125Y445125D02*X117157D01*
Y442371D01*
X119125D01*
Y445125D01*
G37*
G36*
X115977D02*X114009D01*
Y442371D01*
X115977D01*
Y445125D01*
G37*
G36*
X119125Y425125D02*X117157D01*
Y422371D01*
X119125D01*
Y425125D01*
G37*
G36*
X115977D02*X114009D01*
Y422371D01*
X115977D01*
Y425125D01*
G37*
G36*
X119125Y405125D02*X117157D01*
Y402371D01*
X119125D01*
Y405125D01*
G37*
G36*
X115977D02*X114009D01*
Y402371D01*
X115977D01*
Y405125D01*
G37*
G36*
X119125Y385125D02*X117157D01*
Y382371D01*
X119125D01*
Y385125D01*
G37*
G36*
X115977D02*X114009D01*
Y382371D01*
X115977D01*
Y385125D01*
G37*
G36*
X119125Y365125D02*X117157D01*
Y362371D01*
X119125D01*
Y365125D01*
G37*
G36*
X115977D02*X114009D01*
Y362371D01*
X115977D01*
Y365125D01*
G37*
G36*
X119125Y345125D02*X117157D01*
Y342371D01*
X119125D01*
Y345125D01*
G37*
G36*
X115977D02*X114009D01*
Y342371D01*
X115977D01*
Y345125D01*
G37*
G36*
X119125Y325125D02*X117157D01*
Y322371D01*
X119125D01*
Y325125D01*
G37*
G36*
X115977D02*X114009D01*
Y322371D01*
X115977D01*
Y325125D01*
G37*
G36*
X119125Y305125D02*X117157D01*
Y302371D01*
X119125D01*
Y305125D01*
G37*
G36*
X115977D02*X114009D01*
Y302371D01*
X115977D01*
Y305125D01*
G37*
G36*
X119125Y285125D02*X117157D01*
Y282371D01*
X119125D01*
Y285125D01*
G37*
G36*
X115977D02*X114009D01*
Y282371D01*
X115977D01*
Y285125D01*
G37*
G36*
X119125Y265125D02*X117157D01*
Y262371D01*
X119125D01*
Y265125D01*
G37*
G36*
X115977D02*X114009D01*
Y262371D01*
X115977D01*
Y265125D01*
G37*
G36*
X119125Y245125D02*X117157D01*
Y242371D01*
X119125D01*
Y245125D01*
G37*
G36*
X115977D02*X114009D01*
Y242371D01*
X115977D01*
Y245125D01*
G37*
G36*
X119125Y225125D02*X117157D01*
Y222371D01*
X119125D01*
Y225125D01*
G37*
G36*
X115977D02*X114009D01*
Y222371D01*
X115977D01*
Y225125D01*
G37*
G36*
X119125Y205125D02*X117157D01*
Y202371D01*
X119125D01*
Y205125D01*
G37*
G36*
X115977D02*X114009D01*
Y202371D01*
X115977D01*
Y205125D01*
G37*
G36*
X119125Y185125D02*X117157D01*
Y182371D01*
X119125D01*
Y185125D01*
G37*
G36*
X115977D02*X114009D01*
Y182371D01*
X115977D01*
Y185125D01*
G37*
G36*
X119125Y165125D02*X117157D01*
Y162371D01*
X119125D01*
Y165125D01*
G37*
G36*
X115977D02*X114009D01*
Y162371D01*
X115977D01*
Y165125D01*
G37*
G36*
X119125Y145125D02*X117157D01*
Y142371D01*
X119125D01*
Y145125D01*
G37*
G36*
X115977D02*X114009D01*
Y142371D01*
X115977D01*
Y145125D01*
G37*
G36*
X119125Y125125D02*X117157D01*
Y122371D01*
X119125D01*
Y125125D01*
G37*
G36*
X115977D02*X114009D01*
Y122371D01*
X115977D01*
Y125125D01*
G37*
G36*
X119125Y105125D02*X117157D01*
Y102371D01*
X119125D01*
Y105125D01*
G37*
G36*
X115977D02*X114009D01*
Y102371D01*
X115977D01*
Y105125D01*
G37*
G36*
X119125Y85125D02*X117157D01*
Y82371D01*
X119125D01*
Y85125D01*
G37*
G36*
X115977D02*X114009D01*
Y82371D01*
X115977D01*
Y85125D01*
G37*
G36*
X119125Y65125D02*X117157D01*
Y62371D01*
X119125D01*
Y65125D01*
G37*
G36*
X115977D02*X114009D01*
Y62371D01*
X115977D01*
Y65125D01*
G37*
G36*
X119125Y45125D02*X117157D01*
Y42371D01*
X119125D01*
Y45125D01*
G37*
G36*
X115977D02*X114009D01*
Y42371D01*
X115977D01*
Y45125D01*
G37*
G36*
X119125Y25125D02*X117157D01*
Y22371D01*
X119125D01*
Y25125D01*
G37*
G36*
X115977D02*X114009D01*
Y22371D01*
X115977D01*
Y25125D01*
G37*
G36*
X91267Y489748D02*X87867D01*
Y485748D01*
X91267D01*
Y489748D01*
G37*
G36*
X99067D02*X95667D01*
Y485748D01*
X99067D01*
Y489748D01*
G37*
G36*
X95167Y497948D02*X91767D01*
Y493948D01*
X95167D01*
Y497948D01*
G37*
G36*
X91267Y469748D02*X87867D01*
Y465748D01*
X91267D01*
Y469748D01*
G37*
G36*
X99067D02*X95667D01*
Y465748D01*
X99067D01*
Y469748D01*
G37*
G36*
X95167Y477948D02*X91767D01*
Y473948D01*
X95167D01*
Y477948D01*
G37*
G36*
X91267Y449748D02*X87867D01*
Y445748D01*
X91267D01*
Y449748D01*
G37*
G36*
X99067D02*X95667D01*
Y445748D01*
X99067D01*
Y449748D01*
G37*
G36*
X95167Y457948D02*X91767D01*
Y453948D01*
X95167D01*
Y457948D01*
G37*
G36*
X91267Y429748D02*X87867D01*
Y425748D01*
X91267D01*
Y429748D01*
G37*
G36*
X99067D02*X95667D01*
Y425748D01*
X99067D01*
Y429748D01*
G37*
G36*
X95167Y437948D02*X91767D01*
Y433948D01*
X95167D01*
Y437948D01*
G37*
G36*
X91267Y409748D02*X87867D01*
Y405748D01*
X91267D01*
Y409748D01*
G37*
G36*
X99067D02*X95667D01*
Y405748D01*
X99067D01*
Y409748D01*
G37*
G36*
X95167Y417948D02*X91767D01*
Y413948D01*
X95167D01*
Y417948D01*
G37*
G36*
X91267Y389748D02*X87867D01*
Y385748D01*
X91267D01*
Y389748D01*
G37*
G36*
X99067D02*X95667D01*
Y385748D01*
X99067D01*
Y389748D01*
G37*
G36*
X95167Y397948D02*X91767D01*
Y393948D01*
X95167D01*
Y397948D01*
G37*
G36*
X91267Y369748D02*X87867D01*
Y365748D01*
X91267D01*
Y369748D01*
G37*
G36*
X99067D02*X95667D01*
Y365748D01*
X99067D01*
Y369748D01*
G37*
G36*
X95167Y377948D02*X91767D01*
Y373948D01*
X95167D01*
Y377948D01*
G37*
G36*
X91267Y349748D02*X87867D01*
Y345748D01*
X91267D01*
Y349748D01*
G37*
G36*
X99067D02*X95667D01*
Y345748D01*
X99067D01*
Y349748D01*
G37*
G36*
X95167Y357948D02*X91767D01*
Y353948D01*
X95167D01*
Y357948D01*
G37*
G36*
X91267Y329748D02*X87867D01*
Y325748D01*
X91267D01*
Y329748D01*
G37*
G36*
X99067D02*X95667D01*
Y325748D01*
X99067D01*
Y329748D01*
G37*
G36*
X95167Y337948D02*X91767D01*
Y333948D01*
X95167D01*
Y337948D01*
G37*
G36*
X91267Y309748D02*X87867D01*
Y305748D01*
X91267D01*
Y309748D01*
G37*
G36*
X99067D02*X95667D01*
Y305748D01*
X99067D01*
Y309748D01*
G37*
G36*
X95167Y317948D02*X91767D01*
Y313948D01*
X95167D01*
Y317948D01*
G37*
G36*
X91267Y289748D02*X87867D01*
Y285748D01*
X91267D01*
Y289748D01*
G37*
G36*
X99067D02*X95667D01*
Y285748D01*
X99067D01*
Y289748D01*
G37*
G36*
X95167Y297948D02*X91767D01*
Y293948D01*
X95167D01*
Y297948D01*
G37*
G36*
X91267Y269748D02*X87867D01*
Y265748D01*
X91267D01*
Y269748D01*
G37*
G36*
X99067D02*X95667D01*
Y265748D01*
X99067D01*
Y269748D01*
G37*
G36*
X95167Y277948D02*X91767D01*
Y273948D01*
X95167D01*
Y277948D01*
G37*
G36*
X91267Y249748D02*X87867D01*
Y245748D01*
X91267D01*
Y249748D01*
G37*
G36*
X99067D02*X95667D01*
Y245748D01*
X99067D01*
Y249748D01*
G37*
G36*
X95167Y257948D02*X91767D01*
Y253948D01*
X95167D01*
Y257948D01*
G37*
G36*
X91267Y229748D02*X87867D01*
Y225748D01*
X91267D01*
Y229748D01*
G37*
G36*
X99067D02*X95667D01*
Y225748D01*
X99067D01*
Y229748D01*
G37*
G36*
X95167Y237948D02*X91767D01*
Y233948D01*
X95167D01*
Y237948D01*
G37*
G36*
X91267Y209748D02*X87867D01*
Y205748D01*
X91267D01*
Y209748D01*
G37*
G36*
X99067D02*X95667D01*
Y205748D01*
X99067D01*
Y209748D01*
G37*
G36*
X95167Y217948D02*X91767D01*
Y213948D01*
X95167D01*
Y217948D01*
G37*
G36*
X91267Y189748D02*X87867D01*
Y185748D01*
X91267D01*
Y189748D01*
G37*
G36*
X99067D02*X95667D01*
Y185748D01*
X99067D01*
Y189748D01*
G37*
G36*
X95167Y197948D02*X91767D01*
Y193948D01*
X95167D01*
Y197948D01*
G37*
G36*
X91267Y169748D02*X87867D01*
Y165748D01*
X91267D01*
Y169748D01*
G37*
G36*
X99067D02*X95667D01*
Y165748D01*
X99067D01*
Y169748D01*
G37*
G36*
X95167Y177948D02*X91767D01*
Y173948D01*
X95167D01*
Y177948D01*
G37*
G36*
X91267Y149748D02*X87867D01*
Y145748D01*
X91267D01*
Y149748D01*
G37*
G36*
X99067D02*X95667D01*
Y145748D01*
X99067D01*
Y149748D01*
G37*
G36*
X95167Y157948D02*X91767D01*
Y153948D01*
X95167D01*
Y157948D01*
G37*
G36*
X91267Y129748D02*X87867D01*
Y125748D01*
X91267D01*
Y129748D01*
G37*
G36*
X99067D02*X95667D01*
Y125748D01*
X99067D01*
Y129748D01*
G37*
G36*
X95167Y137948D02*X91767D01*
Y133948D01*
X95167D01*
Y137948D01*
G37*
G36*
X91267Y109748D02*X87867D01*
Y105748D01*
X91267D01*
Y109748D01*
G37*
G36*
X99067D02*X95667D01*
Y105748D01*
X99067D01*
Y109748D01*
G37*
G36*
X95167Y117948D02*X91767D01*
Y113948D01*
X95167D01*
Y117948D01*
G37*
G36*
X91267Y89748D02*X87867D01*
Y85748D01*
X91267D01*
Y89748D01*
G37*
G36*
X99067D02*X95667D01*
Y85748D01*
X99067D01*
Y89748D01*
G37*
G36*
X95167Y97948D02*X91767D01*
Y93948D01*
X95167D01*
Y97948D01*
G37*
G36*
X91267Y69748D02*X87867D01*
Y65748D01*
X91267D01*
Y69748D01*
G37*
G36*
X99067D02*X95667D01*
Y65748D01*
X99067D01*
Y69748D01*
G37*
G36*
X95167Y77948D02*X91767D01*
Y73948D01*
X95167D01*
Y77948D01*
G37*
G36*
X91267Y49748D02*X87867D01*
Y45748D01*
X91267D01*
Y49748D01*
G37*
G36*
X99067D02*X95667D01*
Y45748D01*
X99067D01*
Y49748D01*
G37*
G36*
X95167Y57948D02*X91767D01*
Y53948D01*
X95167D01*
Y57948D01*
G37*
G36*
X91267Y29748D02*X87867D01*
Y25748D01*
X91267D01*
Y29748D01*
G37*
G36*
X99067D02*X95667D01*
Y25748D01*
X99067D01*
Y29748D01*
G37*
G36*
X95167Y37948D02*X91767D01*
Y33948D01*
X95167D01*
Y37948D01*
G37*
G36*
X361051Y42323D02*X359083D01*
Y39173D01*
X361051D01*
Y42323D01*
G37*
G36*
Y35630D02*X359083D01*
Y32480D01*
X361051D01*
Y35630D01*
G37*
G36*
X341267Y505748D02*X337867D01*
Y501748D01*
X341267D01*
Y505748D01*
G37*
G36*
X333467D02*X330067D01*
Y501748D01*
X333467D01*
Y505748D01*
G37*
G36*
X337367Y497548D02*X333967D01*
Y493548D01*
X337367D01*
Y497548D01*
G37*
G36*
X341267Y485748D02*X337867D01*
Y481748D01*
X341267D01*
Y485748D01*
G37*
G36*
X333467D02*X330067D01*
Y481748D01*
X333467D01*
Y485748D01*
G37*
G36*
X337367Y477548D02*X333967D01*
Y473548D01*
X337367D01*
Y477548D01*
G37*
G36*
X341267Y465748D02*X337867D01*
Y461748D01*
X341267D01*
Y465748D01*
G37*
G36*
X333467D02*X330067D01*
Y461748D01*
X333467D01*
Y465748D01*
G37*
G36*
X337367Y457548D02*X333967D01*
Y453548D01*
X337367D01*
Y457548D01*
G37*
G36*
X341267Y445748D02*X337867D01*
Y441748D01*
X341267D01*
Y445748D01*
G37*
G36*
X333467D02*X330067D01*
Y441748D01*
X333467D01*
Y445748D01*
G37*
G36*
X337367Y437548D02*X333967D01*
Y433548D01*
X337367D01*
Y437548D01*
G37*
G36*
X341267Y425748D02*X337867D01*
Y421748D01*
X341267D01*
Y425748D01*
G37*
G36*
X333467D02*X330067D01*
Y421748D01*
X333467D01*
Y425748D01*
G37*
G36*
X337367Y417548D02*X333967D01*
Y413548D01*
X337367D01*
Y417548D01*
G37*
G36*
X341267Y405748D02*X337867D01*
Y401748D01*
X341267D01*
Y405748D01*
G37*
G36*
X333467D02*X330067D01*
Y401748D01*
X333467D01*
Y405748D01*
G37*
G36*
X337367Y397548D02*X333967D01*
Y393548D01*
X337367D01*
Y397548D01*
G37*
G36*
X341267Y385748D02*X337867D01*
Y381748D01*
X341267D01*
Y385748D01*
G37*
G36*
X333467D02*X330067D01*
Y381748D01*
X333467D01*
Y385748D01*
G37*
G36*
X337367Y377548D02*X333967D01*
Y373548D01*
X337367D01*
Y377548D01*
G37*
G36*
X341267Y365748D02*X337867D01*
Y361748D01*
X341267D01*
Y365748D01*
G37*
G36*
X333467D02*X330067D01*
Y361748D01*
X333467D01*
Y365748D01*
G37*
G36*
X337367Y357548D02*X333967D01*
Y353548D01*
X337367D01*
Y357548D01*
G37*
G36*
X341267Y345748D02*X337867D01*
Y341748D01*
X341267D01*
Y345748D01*
G37*
G36*
X333467D02*X330067D01*
Y341748D01*
X333467D01*
Y345748D01*
G37*
G36*
X337367Y337548D02*X333967D01*
Y333548D01*
X337367D01*
Y337548D01*
G37*
G36*
X341267Y325748D02*X337867D01*
Y321748D01*
X341267D01*
Y325748D01*
G37*
G36*
X333467D02*X330067D01*
Y321748D01*
X333467D01*
Y325748D01*
G37*
G36*
X337367Y317548D02*X333967D01*
Y313548D01*
X337367D01*
Y317548D01*
G37*
G36*
X341267Y305748D02*X337867D01*
Y301748D01*
X341267D01*
Y305748D01*
G37*
G36*
X333467D02*X330067D01*
Y301748D01*
X333467D01*
Y305748D01*
G37*
G36*
X337367Y297548D02*X333967D01*
Y293548D01*
X337367D01*
Y297548D01*
G37*
G36*
X341267Y285748D02*X337867D01*
Y281748D01*
X341267D01*
Y285748D01*
G37*
G36*
X333467D02*X330067D01*
Y281748D01*
X333467D01*
Y285748D01*
G37*
G36*
X337367Y277548D02*X333967D01*
Y273548D01*
X337367D01*
Y277548D01*
G37*
G36*
X341267Y265748D02*X337867D01*
Y261748D01*
X341267D01*
Y265748D01*
G37*
G36*
X333467D02*X330067D01*
Y261748D01*
X333467D01*
Y265748D01*
G37*
G36*
X337367Y257548D02*X333967D01*
Y253548D01*
X337367D01*
Y257548D01*
G37*
G36*
X341267Y245748D02*X337867D01*
Y241748D01*
X341267D01*
Y245748D01*
G37*
G36*
X333467D02*X330067D01*
Y241748D01*
X333467D01*
Y245748D01*
G37*
G36*
X337367Y237548D02*X333967D01*
Y233548D01*
X337367D01*
Y237548D01*
G37*
G36*
X341267Y225748D02*X337867D01*
Y221748D01*
X341267D01*
Y225748D01*
G37*
G36*
X333467D02*X330067D01*
Y221748D01*
X333467D01*
Y225748D01*
G37*
G36*
X337367Y217548D02*X333967D01*
Y213548D01*
X337367D01*
Y217548D01*
G37*
G36*
X341267Y205748D02*X337867D01*
Y201748D01*
X341267D01*
Y205748D01*
G37*
G36*
X333467D02*X330067D01*
Y201748D01*
X333467D01*
Y205748D01*
G37*
G36*
X337367Y197548D02*X333967D01*
Y193548D01*
X337367D01*
Y197548D01*
G37*
G36*
X341267Y185748D02*X337867D01*
Y181748D01*
X341267D01*
Y185748D01*
G37*
G36*
X333467D02*X330067D01*
Y181748D01*
X333467D01*
Y185748D01*
G37*
G36*
X337367Y177548D02*X333967D01*
Y173548D01*
X337367D01*
Y177548D01*
G37*
G36*
X341267Y165748D02*X337867D01*
Y161748D01*
X341267D01*
Y165748D01*
G37*
G36*
X333467D02*X330067D01*
Y161748D01*
X333467D01*
Y165748D01*
G37*
G36*
X337367Y157548D02*X333967D01*
Y153548D01*
X337367D01*
Y157548D01*
G37*
G36*
X341267Y145748D02*X337867D01*
Y141748D01*
X341267D01*
Y145748D01*
G37*
G36*
X333467D02*X330067D01*
Y141748D01*
X333467D01*
Y145748D01*
G37*
G36*
X337367Y137548D02*X333967D01*
Y133548D01*
X337367D01*
Y137548D01*
G37*
G36*
X341267Y125748D02*X337867D01*
Y121748D01*
X341267D01*
Y125748D01*
G37*
G36*
X333467D02*X330067D01*
Y121748D01*
X333467D01*
Y125748D01*
G37*
G36*
X337367Y117548D02*X333967D01*
Y113548D01*
X337367D01*
Y117548D01*
G37*
G36*
X341267Y105748D02*X337867D01*
Y101748D01*
X341267D01*
Y105748D01*
G37*
G36*
X333467D02*X330067D01*
Y101748D01*
X333467D01*
Y105748D01*
G37*
G36*
X337367Y97548D02*X333967D01*
Y93548D01*
X337367D01*
Y97548D01*
G37*
G36*
X341267Y85748D02*X337867D01*
Y81748D01*
X341267D01*
Y85748D01*
G37*
G36*
X333467D02*X330067D01*
Y81748D01*
X333467D01*
Y85748D01*
G37*
G36*
X337367Y77548D02*X333967D01*
Y73548D01*
X337367D01*
Y77548D01*
G37*
G36*
X341267Y65748D02*X337867D01*
Y61748D01*
X341267D01*
Y65748D01*
G37*
G36*
X333467D02*X330067D01*
Y61748D01*
X333467D01*
Y65748D01*
G37*
G36*
X337367Y57548D02*X333967D01*
Y53548D01*
X337367D01*
Y57548D01*
G37*
G36*
X341267Y45748D02*X337867D01*
Y41748D01*
X341267D01*
Y45748D01*
G37*
G36*
X333467D02*X330067D01*
Y41748D01*
X333467D01*
Y45748D01*
G37*
G36*
X337367Y37548D02*X333967D01*
Y33548D01*
X337367D01*
Y37548D01*
G37*
G36*
X311977Y509125D02*X310009D01*
Y506371D01*
X311977D01*
Y509125D01*
G37*
G36*
X315125D02*X313157D01*
Y506371D01*
X315125D01*
Y509125D01*
G37*
G36*
X311977Y489125D02*X310009D01*
Y486371D01*
X311977D01*
Y489125D01*
G37*
G36*
X315125D02*X313157D01*
Y486371D01*
X315125D01*
Y489125D01*
G37*
G36*
X311977Y469125D02*X310009D01*
Y466371D01*
X311977D01*
Y469125D01*
G37*
G36*
X315125D02*X313157D01*
Y466371D01*
X315125D01*
Y469125D01*
G37*
G36*
X311977Y449125D02*X310009D01*
Y446371D01*
X311977D01*
Y449125D01*
G37*
G36*
X315125D02*X313157D01*
Y446371D01*
X315125D01*
Y449125D01*
G37*
G36*
X311977Y429125D02*X310009D01*
Y426371D01*
X311977D01*
Y429125D01*
G37*
G36*
X315125D02*X313157D01*
Y426371D01*
X315125D01*
Y429125D01*
G37*
G36*
X311977Y409125D02*X310009D01*
Y406371D01*
X311977D01*
Y409125D01*
G37*
G36*
X315125D02*X313157D01*
Y406371D01*
X315125D01*
Y409125D01*
G37*
G36*
X311977Y389125D02*X310009D01*
Y386371D01*
X311977D01*
Y389125D01*
G37*
G36*
X315125D02*X313157D01*
Y386371D01*
X315125D01*
Y389125D01*
G37*
G36*
X311977Y369125D02*X310009D01*
Y366371D01*
X311977D01*
Y369125D01*
G37*
G36*
X315125D02*X313157D01*
Y366371D01*
X315125D01*
Y369125D01*
G37*
G36*
X311977Y349125D02*X310009D01*
Y346371D01*
X311977D01*
Y349125D01*
G37*
G36*
X315125D02*X313157D01*
Y346371D01*
X315125D01*
Y349125D01*
G37*
G36*
X311977Y329125D02*X310009D01*
Y326371D01*
X311977D01*
Y329125D01*
G37*
G36*
X315125D02*X313157D01*
Y326371D01*
X315125D01*
Y329125D01*
G37*
G36*
X311977Y309125D02*X310009D01*
Y306371D01*
X311977D01*
Y309125D01*
G37*
G36*
X315125D02*X313157D01*
Y306371D01*
X315125D01*
Y309125D01*
G37*
G36*
X311977Y289125D02*X310009D01*
Y286371D01*
X311977D01*
Y289125D01*
G37*
G36*
X315125D02*X313157D01*
Y286371D01*
X315125D01*
Y289125D01*
G37*
G36*
X311977Y269125D02*X310009D01*
Y266371D01*
X311977D01*
Y269125D01*
G37*
G36*
X315125D02*X313157D01*
Y266371D01*
X315125D01*
Y269125D01*
G37*
G36*
X311977Y249125D02*X310009D01*
Y246371D01*
X311977D01*
Y249125D01*
G37*
G36*
X315125D02*X313157D01*
Y246371D01*
X315125D01*
Y249125D01*
G37*
G36*
X311977Y229125D02*X310009D01*
Y226371D01*
X311977D01*
Y229125D01*
G37*
G36*
X315125D02*X313157D01*
Y226371D01*
X315125D01*
Y229125D01*
G37*
G36*
X311977Y209125D02*X310009D01*
Y206371D01*
X311977D01*
Y209125D01*
G37*
G36*
X315125D02*X313157D01*
Y206371D01*
X315125D01*
Y209125D01*
G37*
G36*
X311977Y189125D02*X310009D01*
Y186371D01*
X311977D01*
Y189125D01*
G37*
G36*
X315125D02*X313157D01*
Y186371D01*
X315125D01*
Y189125D01*
G37*
G36*
X311977Y169125D02*X310009D01*
Y166371D01*
X311977D01*
Y169125D01*
G37*
G36*
X315125D02*X313157D01*
Y166371D01*
X315125D01*
Y169125D01*
G37*
G36*
X311977Y149125D02*X310009D01*
Y146371D01*
X311977D01*
Y149125D01*
G37*
G36*
X315125D02*X313157D01*
Y146371D01*
X315125D01*
Y149125D01*
G37*
G36*
X311977Y129125D02*X310009D01*
Y126371D01*
X311977D01*
Y129125D01*
G37*
G36*
X315125D02*X313157D01*
Y126371D01*
X315125D01*
Y129125D01*
G37*
G36*
X311977Y109125D02*X310009D01*
Y106371D01*
X311977D01*
Y109125D01*
G37*
G36*
X315125D02*X313157D01*
Y106371D01*
X315125D01*
Y109125D01*
G37*
G36*
X311977Y89125D02*X310009D01*
Y86371D01*
X311977D01*
Y89125D01*
G37*
G36*
X315125D02*X313157D01*
Y86371D01*
X315125D01*
Y89125D01*
G37*
G36*
X311977Y69125D02*X310009D01*
Y66371D01*
X311977D01*
Y69125D01*
G37*
G36*
X315125D02*X313157D01*
Y66371D01*
X315125D01*
Y69125D01*
G37*
G36*
X311977Y49125D02*X310009D01*
Y46371D01*
X311977D01*
Y49125D01*
G37*
G36*
X315125D02*X313157D01*
Y46371D01*
X315125D01*
Y49125D01*
G37*
G36*
X367017Y498498D02*X364117D01*
Y494998D01*
X367017D01*
Y498498D01*
G37*
G36*
X372117D02*X369217D01*
Y494998D01*
X372117D01*
Y498498D01*
G37*
G36*
X369617Y505498D02*X366717D01*
Y501998D01*
X369617D01*
Y505498D01*
G37*
G36*
X367017Y478498D02*X364117D01*
Y474998D01*
X367017D01*
Y478498D01*
G37*
G36*
X372117D02*X369217D01*
Y474998D01*
X372117D01*
Y478498D01*
G37*
G36*
X369617Y485498D02*X366717D01*
Y481998D01*
X369617D01*
Y485498D01*
G37*
G36*
X367017Y458498D02*X364117D01*
Y454998D01*
X367017D01*
Y458498D01*
G37*
G36*
X372117D02*X369217D01*
Y454998D01*
X372117D01*
Y458498D01*
G37*
G36*
X369617Y465498D02*X366717D01*
Y461998D01*
X369617D01*
Y465498D01*
G37*
G36*
X367017Y438498D02*X364117D01*
Y434998D01*
X367017D01*
Y438498D01*
G37*
G36*
X372117D02*X369217D01*
Y434998D01*
X372117D01*
Y438498D01*
G37*
G36*
X369617Y445498D02*X366717D01*
Y441998D01*
X369617D01*
Y445498D01*
G37*
G36*
X367017Y418498D02*X364117D01*
Y414998D01*
X367017D01*
Y418498D01*
G37*
G36*
X372117D02*X369217D01*
Y414998D01*
X372117D01*
Y418498D01*
G37*
G36*
X369617Y425498D02*X366717D01*
Y421998D01*
X369617D01*
Y425498D01*
G37*
G36*
X367017Y398498D02*X364117D01*
Y394998D01*
X367017D01*
Y398498D01*
G37*
G36*
X372117D02*X369217D01*
Y394998D01*
X372117D01*
Y398498D01*
G37*
G36*
X369617Y405498D02*X366717D01*
Y401998D01*
X369617D01*
Y405498D01*
G37*
G36*
X367017Y378498D02*X364117D01*
Y374998D01*
X367017D01*
Y378498D01*
G37*
G36*
X372117D02*X369217D01*
Y374998D01*
X372117D01*
Y378498D01*
G37*
G36*
X369617Y385498D02*X366717D01*
Y381998D01*
X369617D01*
Y385498D01*
G37*
G36*
X367017Y358498D02*X364117D01*
Y354998D01*
X367017D01*
Y358498D01*
G37*
G36*
X372117D02*X369217D01*
Y354998D01*
X372117D01*
Y358498D01*
G37*
G36*
X369617Y365498D02*X366717D01*
Y361998D01*
X369617D01*
Y365498D01*
G37*
G36*
X367017Y338498D02*X364117D01*
Y334998D01*
X367017D01*
Y338498D01*
G37*
G36*
X372117D02*X369217D01*
Y334998D01*
X372117D01*
Y338498D01*
G37*
G36*
X369617Y345498D02*X366717D01*
Y341998D01*
X369617D01*
Y345498D01*
G37*
G36*
X367017Y318498D02*X364117D01*
Y314998D01*
X367017D01*
Y318498D01*
G37*
G36*
X372117D02*X369217D01*
Y314998D01*
X372117D01*
Y318498D01*
G37*
G36*
X369617Y325498D02*X366717D01*
Y321998D01*
X369617D01*
Y325498D01*
G37*
G36*
X367017Y298498D02*X364117D01*
Y294998D01*
X367017D01*
Y298498D01*
G37*
G36*
X372117D02*X369217D01*
Y294998D01*
X372117D01*
Y298498D01*
G37*
G36*
X369617Y305498D02*X366717D01*
Y301998D01*
X369617D01*
Y305498D01*
G37*
G36*
X367017Y278498D02*X364117D01*
Y274998D01*
X367017D01*
Y278498D01*
G37*
G36*
X372117D02*X369217D01*
Y274998D01*
X372117D01*
Y278498D01*
G37*
G36*
X369617Y285498D02*X366717D01*
Y281998D01*
X369617D01*
Y285498D01*
G37*
G36*
X367017Y258498D02*X364117D01*
Y254998D01*
X367017D01*
Y258498D01*
G37*
G36*
X372117D02*X369217D01*
Y254998D01*
X372117D01*
Y258498D01*
G37*
G36*
X369617Y265498D02*X366717D01*
Y261998D01*
X369617D01*
Y265498D01*
G37*
G36*
X367017Y238498D02*X364117D01*
Y234998D01*
X367017D01*
Y238498D01*
G37*
G36*
X372117D02*X369217D01*
Y234998D01*
X372117D01*
Y238498D01*
G37*
G36*
X369617Y245498D02*X366717D01*
Y241998D01*
X369617D01*
Y245498D01*
G37*
G36*
X367017Y218498D02*X364117D01*
Y214998D01*
X367017D01*
Y218498D01*
G37*
G36*
X372117D02*X369217D01*
Y214998D01*
X372117D01*
Y218498D01*
G37*
G36*
X369617Y225498D02*X366717D01*
Y221998D01*
X369617D01*
Y225498D01*
G37*
G36*
X367017Y198498D02*X364117D01*
Y194998D01*
X367017D01*
Y198498D01*
G37*
G36*
X372117D02*X369217D01*
Y194998D01*
X372117D01*
Y198498D01*
G37*
G36*
X369617Y205498D02*X366717D01*
Y201998D01*
X369617D01*
Y205498D01*
G37*
G36*
X367017Y178498D02*X364117D01*
Y174998D01*
X367017D01*
Y178498D01*
G37*
G36*
X372117D02*X369217D01*
Y174998D01*
X372117D01*
Y178498D01*
G37*
G36*
X369617Y185498D02*X366717D01*
Y181998D01*
X369617D01*
Y185498D01*
G37*
G36*
X367017Y158498D02*X364117D01*
Y154998D01*
X367017D01*
Y158498D01*
G37*
G36*
X372117D02*X369217D01*
Y154998D01*
X372117D01*
Y158498D01*
G37*
G36*
X369617Y165498D02*X366717D01*
Y161998D01*
X369617D01*
Y165498D01*
G37*
G36*
X367017Y138498D02*X364117D01*
Y134998D01*
X367017D01*
Y138498D01*
G37*
G36*
X372117D02*X369217D01*
Y134998D01*
X372117D01*
Y138498D01*
G37*
G36*
X369617Y145498D02*X366717D01*
Y141998D01*
X369617D01*
Y145498D01*
G37*
G36*
X367017Y118498D02*X364117D01*
Y114998D01*
X367017D01*
Y118498D01*
G37*
G36*
X372117D02*X369217D01*
Y114998D01*
X372117D01*
Y118498D01*
G37*
G36*
X369617Y125498D02*X366717D01*
Y121998D01*
X369617D01*
Y125498D01*
G37*
G36*
X367017Y98498D02*X364117D01*
Y94998D01*
X367017D01*
Y98498D01*
G37*
G36*
X372117D02*X369217D01*
Y94998D01*
X372117D01*
Y98498D01*
G37*
G36*
X369617Y105498D02*X366717D01*
Y101998D01*
X369617D01*
Y105498D01*
G37*
G36*
X367017Y78498D02*X364117D01*
Y74998D01*
X367017D01*
Y78498D01*
G37*
G36*
X372117D02*X369217D01*
Y74998D01*
X372117D01*
Y78498D01*
G37*
G36*
X369617Y85498D02*X366717D01*
Y81998D01*
X369617D01*
Y85498D01*
G37*
G36*
X367017Y58498D02*X364117D01*
Y54998D01*
X367017D01*
Y58498D01*
G37*
G36*
X372117D02*X369217D01*
Y54998D01*
X372117D01*
Y58498D01*
G37*
G36*
X369617Y65498D02*X366717D01*
Y61998D01*
X369617D01*
Y65498D01*
G37*
G36*
X367017Y38498D02*X364117D01*
Y34998D01*
X367017D01*
Y38498D01*
G37*
G36*
X372117D02*X369217D01*
Y34998D01*
X372117D01*
Y38498D01*
G37*
G36*
X369617Y45498D02*X366717D01*
Y41998D01*
X369617D01*
Y45498D01*
G37*
G36*
X377017Y498498D02*X374117D01*
Y494998D01*
X377017D01*
Y498498D01*
G37*
G36*
X382117D02*X379217D01*
Y494998D01*
X382117D01*
Y498498D01*
G37*
G36*
X379617Y505498D02*X376717D01*
Y501998D01*
X379617D01*
Y505498D01*
G37*
G36*
X377017Y478498D02*X374117D01*
Y474998D01*
X377017D01*
Y478498D01*
G37*
G36*
X382117D02*X379217D01*
Y474998D01*
X382117D01*
Y478498D01*
G37*
G36*
X379617Y485498D02*X376717D01*
Y481998D01*
X379617D01*
Y485498D01*
G37*
G36*
X377017Y458498D02*X374117D01*
Y454998D01*
X377017D01*
Y458498D01*
G37*
G36*
X382117D02*X379217D01*
Y454998D01*
X382117D01*
Y458498D01*
G37*
G36*
X379617Y465498D02*X376717D01*
Y461998D01*
X379617D01*
Y465498D01*
G37*
G36*
X377017Y438498D02*X374117D01*
Y434998D01*
X377017D01*
Y438498D01*
G37*
G36*
X382117D02*X379217D01*
Y434998D01*
X382117D01*
Y438498D01*
G37*
G36*
X379617Y445498D02*X376717D01*
Y441998D01*
X379617D01*
Y445498D01*
G37*
G36*
X377017Y418498D02*X374117D01*
Y414998D01*
X377017D01*
Y418498D01*
G37*
G36*
X382117D02*X379217D01*
Y414998D01*
X382117D01*
Y418498D01*
G37*
G36*
X379617Y425498D02*X376717D01*
Y421998D01*
X379617D01*
Y425498D01*
G37*
G36*
X377017Y398498D02*X374117D01*
Y394998D01*
X377017D01*
Y398498D01*
G37*
G36*
X382117D02*X379217D01*
Y394998D01*
X382117D01*
Y398498D01*
G37*
G36*
X379617Y405498D02*X376717D01*
Y401998D01*
X379617D01*
Y405498D01*
G37*
G36*
X377017Y378498D02*X374117D01*
Y374998D01*
X377017D01*
Y378498D01*
G37*
G36*
X382117D02*X379217D01*
Y374998D01*
X382117D01*
Y378498D01*
G37*
G36*
X379617Y385498D02*X376717D01*
Y381998D01*
X379617D01*
Y385498D01*
G37*
G36*
X377017Y358498D02*X374117D01*
Y354998D01*
X377017D01*
Y358498D01*
G37*
G36*
X382117D02*X379217D01*
Y354998D01*
X382117D01*
Y358498D01*
G37*
G36*
X379617Y365498D02*X376717D01*
Y361998D01*
X379617D01*
Y365498D01*
G37*
G36*
X377017Y338498D02*X374117D01*
Y334998D01*
X377017D01*
Y338498D01*
G37*
G36*
X382117D02*X379217D01*
Y334998D01*
X382117D01*
Y338498D01*
G37*
G36*
X379617Y345498D02*X376717D01*
Y341998D01*
X379617D01*
Y345498D01*
G37*
G36*
X377017Y318498D02*X374117D01*
Y314998D01*
X377017D01*
Y318498D01*
G37*
G36*
X382117D02*X379217D01*
Y314998D01*
X382117D01*
Y318498D01*
G37*
G36*
X379617Y325498D02*X376717D01*
Y321998D01*
X379617D01*
Y325498D01*
G37*
G36*
X377017Y298498D02*X374117D01*
Y294998D01*
X377017D01*
Y298498D01*
G37*
G36*
X382117D02*X379217D01*
Y294998D01*
X382117D01*
Y298498D01*
G37*
G36*
X379617Y305498D02*X376717D01*
Y301998D01*
X379617D01*
Y305498D01*
G37*
G36*
X377017Y278498D02*X374117D01*
Y274998D01*
X377017D01*
Y278498D01*
G37*
G36*
X382117D02*X379217D01*
Y274998D01*
X382117D01*
Y278498D01*
G37*
G36*
X379617Y285498D02*X376717D01*
Y281998D01*
X379617D01*
Y285498D01*
G37*
G36*
X377017Y258498D02*X374117D01*
Y254998D01*
X377017D01*
Y258498D01*
G37*
G36*
X382117D02*X379217D01*
Y254998D01*
X382117D01*
Y258498D01*
G37*
G36*
X379617Y265498D02*X376717D01*
Y261998D01*
X379617D01*
Y265498D01*
G37*
G36*
X377017Y238498D02*X374117D01*
Y234998D01*
X377017D01*
Y238498D01*
G37*
G36*
X382117D02*X379217D01*
Y234998D01*
X382117D01*
Y238498D01*
G37*
G36*
X379617Y245498D02*X376717D01*
Y241998D01*
X379617D01*
Y245498D01*
G37*
G36*
X377017Y218498D02*X374117D01*
Y214998D01*
X377017D01*
Y218498D01*
G37*
G36*
X382117D02*X379217D01*
Y214998D01*
X382117D01*
Y218498D01*
G37*
G36*
X379617Y225498D02*X376717D01*
Y221998D01*
X379617D01*
Y225498D01*
G37*
G36*
X377017Y198498D02*X374117D01*
Y194998D01*
X377017D01*
Y198498D01*
G37*
G36*
X382117D02*X379217D01*
Y194998D01*
X382117D01*
Y198498D01*
G37*
G36*
X379617Y205498D02*X376717D01*
Y201998D01*
X379617D01*
Y205498D01*
G37*
G36*
X377017Y178498D02*X374117D01*
Y174998D01*
X377017D01*
Y178498D01*
G37*
G36*
X382117D02*X379217D01*
Y174998D01*
X382117D01*
Y178498D01*
G37*
G36*
X379617Y185498D02*X376717D01*
Y181998D01*
X379617D01*
Y185498D01*
G37*
G36*
X377017Y158498D02*X374117D01*
Y154998D01*
X377017D01*
Y158498D01*
G37*
G36*
X382117D02*X379217D01*
Y154998D01*
X382117D01*
Y158498D01*
G37*
G36*
X379617Y165498D02*X376717D01*
Y161998D01*
X379617D01*
Y165498D01*
G37*
G36*
X377017Y138498D02*X374117D01*
Y134998D01*
X377017D01*
Y138498D01*
G37*
G36*
X382117D02*X379217D01*
Y134998D01*
X382117D01*
Y138498D01*
G37*
G36*
X379617Y145498D02*X376717D01*
Y141998D01*
X379617D01*
Y145498D01*
G37*
G36*
X377017Y118498D02*X374117D01*
Y114998D01*
X377017D01*
Y118498D01*
G37*
G36*
X382117D02*X379217D01*
Y114998D01*
X382117D01*
Y118498D01*
G37*
G36*
X379617Y125498D02*X376717D01*
Y121998D01*
X379617D01*
Y125498D01*
G37*
G36*
X377017Y98498D02*X374117D01*
Y94998D01*
X377017D01*
Y98498D01*
G37*
G36*
X382117D02*X379217D01*
Y94998D01*
X382117D01*
Y98498D01*
G37*
G36*
X379617Y105498D02*X376717D01*
Y101998D01*
X379617D01*
Y105498D01*
G37*
G36*
X377017Y78498D02*X374117D01*
Y74998D01*
X377017D01*
Y78498D01*
G37*
G36*
X382117D02*X379217D01*
Y74998D01*
X382117D01*
Y78498D01*
G37*
G36*
X379617Y85498D02*X376717D01*
Y81998D01*
X379617D01*
Y85498D01*
G37*
G36*
X377017Y58498D02*X374117D01*
Y54998D01*
X377017D01*
Y58498D01*
G37*
G36*
X382117D02*X379217D01*
Y54998D01*
X382117D01*
Y58498D01*
G37*
G36*
X379617Y65498D02*X376717D01*
Y61998D01*
X379617D01*
Y65498D01*
G37*
G36*
X377017Y38498D02*X374117D01*
Y34998D01*
X377017D01*
Y38498D01*
G37*
G36*
X382117D02*X379217D01*
Y34998D01*
X382117D01*
Y38498D01*
G37*
G36*
X379617Y45498D02*X376717D01*
Y41998D01*
X379617D01*
Y45498D01*
G37*
G36*
X361051Y502323D02*X359083D01*
Y499173D01*
X361051D01*
Y502323D01*
G37*
G36*
Y495630D02*X359083D01*
Y492480D01*
X361051D01*
Y495630D01*
G37*
G36*
Y482323D02*X359083D01*
Y479173D01*
X361051D01*
Y482323D01*
G37*
G36*
Y475630D02*X359083D01*
Y472480D01*
X361051D01*
Y475630D01*
G37*
G36*
Y462323D02*X359083D01*
Y459173D01*
X361051D01*
Y462323D01*
G37*
G36*
Y455630D02*X359083D01*
Y452480D01*
X361051D01*
Y455630D01*
G37*
G36*
Y442323D02*X359083D01*
Y439173D01*
X361051D01*
Y442323D01*
G37*
G36*
Y435630D02*X359083D01*
Y432480D01*
X361051D01*
Y435630D01*
G37*
G36*
Y422323D02*X359083D01*
Y419173D01*
X361051D01*
Y422323D01*
G37*
G36*
Y415630D02*X359083D01*
Y412480D01*
X361051D01*
Y415630D01*
G37*
G36*
Y402323D02*X359083D01*
Y399173D01*
X361051D01*
Y402323D01*
G37*
G36*
Y395630D02*X359083D01*
Y392480D01*
X361051D01*
Y395630D01*
G37*
G36*
Y382323D02*X359083D01*
Y379173D01*
X361051D01*
Y382323D01*
G37*
G36*
Y375630D02*X359083D01*
Y372480D01*
X361051D01*
Y375630D01*
G37*
G36*
Y362323D02*X359083D01*
Y359173D01*
X361051D01*
Y362323D01*
G37*
G36*
Y355630D02*X359083D01*
Y352480D01*
X361051D01*
Y355630D01*
G37*
G36*
Y342323D02*X359083D01*
Y339173D01*
X361051D01*
Y342323D01*
G37*
G36*
Y335630D02*X359083D01*
Y332480D01*
X361051D01*
Y335630D01*
G37*
G36*
Y322323D02*X359083D01*
Y319173D01*
X361051D01*
Y322323D01*
G37*
G36*
Y315630D02*X359083D01*
Y312480D01*
X361051D01*
Y315630D01*
G37*
G36*
Y302323D02*X359083D01*
Y299173D01*
X361051D01*
Y302323D01*
G37*
G36*
Y295630D02*X359083D01*
Y292480D01*
X361051D01*
Y295630D01*
G37*
G36*
Y282323D02*X359083D01*
Y279173D01*
X361051D01*
Y282323D01*
G37*
G36*
Y275630D02*X359083D01*
Y272480D01*
X361051D01*
Y275630D01*
G37*
G36*
Y262323D02*X359083D01*
Y259173D01*
X361051D01*
Y262323D01*
G37*
G36*
Y255630D02*X359083D01*
Y252480D01*
X361051D01*
Y255630D01*
G37*
G36*
Y242323D02*X359083D01*
Y239173D01*
X361051D01*
Y242323D01*
G37*
G36*
Y235630D02*X359083D01*
Y232480D01*
X361051D01*
Y235630D01*
G37*
G36*
Y222323D02*X359083D01*
Y219173D01*
X361051D01*
Y222323D01*
G37*
G36*
Y215630D02*X359083D01*
Y212480D01*
X361051D01*
Y215630D01*
G37*
G36*
Y202323D02*X359083D01*
Y199173D01*
X361051D01*
Y202323D01*
G37*
G36*
Y195630D02*X359083D01*
Y192480D01*
X361051D01*
Y195630D01*
G37*
G36*
Y182323D02*X359083D01*
Y179173D01*
X361051D01*
Y182323D01*
G37*
G36*
Y175630D02*X359083D01*
Y172480D01*
X361051D01*
Y175630D01*
G37*
G36*
Y162323D02*X359083D01*
Y159173D01*
X361051D01*
Y162323D01*
G37*
G36*
Y155630D02*X359083D01*
Y152480D01*
X361051D01*
Y155630D01*
G37*
G36*
Y142323D02*X359083D01*
Y139173D01*
X361051D01*
Y142323D01*
G37*
G36*
Y135630D02*X359083D01*
Y132480D01*
X361051D01*
Y135630D01*
G37*
G36*
Y122323D02*X359083D01*
Y119173D01*
X361051D01*
Y122323D01*
G37*
G36*
Y115630D02*X359083D01*
Y112480D01*
X361051D01*
Y115630D01*
G37*
G36*
Y102323D02*X359083D01*
Y99173D01*
X361051D01*
Y102323D01*
G37*
G36*
Y95630D02*X359083D01*
Y92480D01*
X361051D01*
Y95630D01*
G37*
G36*
Y82323D02*X359083D01*
Y79173D01*
X361051D01*
Y82323D01*
G37*
G36*
Y75630D02*X359083D01*
Y72480D01*
X361051D01*
Y75630D01*
G37*
G36*
Y62323D02*X359083D01*
Y59173D01*
X361051D01*
Y62323D01*
G37*
G36*
Y55630D02*X359083D01*
Y52480D01*
X361051D01*
Y55630D01*
G37*
G36*
X353190Y495158D02*Y493190D01*
X355944D01*
Y495158D01*
X353190D01*
G37*
G36*
Y498306D02*Y496338D01*
X355944D01*
Y498306D01*
X353190D01*
G37*
G36*
Y475158D02*Y473190D01*
X355944D01*
Y475158D01*
X353190D01*
G37*
G36*
Y478306D02*Y476338D01*
X355944D01*
Y478306D01*
X353190D01*
G37*
G36*
Y455158D02*Y453190D01*
X355944D01*
Y455158D01*
X353190D01*
G37*
G36*
Y458306D02*Y456338D01*
X355944D01*
Y458306D01*
X353190D01*
G37*
G36*
Y435158D02*Y433190D01*
X355944D01*
Y435158D01*
X353190D01*
G37*
G36*
Y438306D02*Y436338D01*
X355944D01*
Y438306D01*
X353190D01*
G37*
G36*
Y415158D02*Y413190D01*
X355944D01*
Y415158D01*
X353190D01*
G37*
G36*
Y418306D02*Y416338D01*
X355944D01*
Y418306D01*
X353190D01*
G37*
G36*
Y395158D02*Y393190D01*
X355944D01*
Y395158D01*
X353190D01*
G37*
G36*
Y398306D02*Y396338D01*
X355944D01*
Y398306D01*
X353190D01*
G37*
G36*
Y375158D02*Y373190D01*
X355944D01*
Y375158D01*
X353190D01*
G37*
G36*
Y378306D02*Y376338D01*
X355944D01*
Y378306D01*
X353190D01*
G37*
G36*
Y355158D02*Y353190D01*
X355944D01*
Y355158D01*
X353190D01*
G37*
G36*
Y358306D02*Y356338D01*
X355944D01*
Y358306D01*
X353190D01*
G37*
G36*
Y335158D02*Y333190D01*
X355944D01*
Y335158D01*
X353190D01*
G37*
G36*
Y338306D02*Y336338D01*
X355944D01*
Y338306D01*
X353190D01*
G37*
G36*
Y315158D02*Y313190D01*
X355944D01*
Y315158D01*
X353190D01*
G37*
G36*
Y318306D02*Y316338D01*
X355944D01*
Y318306D01*
X353190D01*
G37*
G36*
Y295158D02*Y293190D01*
X355944D01*
Y295158D01*
X353190D01*
G37*
G36*
Y298306D02*Y296338D01*
X355944D01*
Y298306D01*
X353190D01*
G37*
G36*
Y275158D02*Y273190D01*
X355944D01*
Y275158D01*
X353190D01*
G37*
G36*
Y278306D02*Y276338D01*
X355944D01*
Y278306D01*
X353190D01*
G37*
G36*
Y255158D02*Y253190D01*
X355944D01*
Y255158D01*
X353190D01*
G37*
G36*
Y258306D02*Y256338D01*
X355944D01*
Y258306D01*
X353190D01*
G37*
G36*
Y235158D02*Y233190D01*
X355944D01*
Y235158D01*
X353190D01*
G37*
G36*
Y238306D02*Y236338D01*
X355944D01*
Y238306D01*
X353190D01*
G37*
G36*
Y215158D02*Y213190D01*
X355944D01*
Y215158D01*
X353190D01*
G37*
G36*
Y218306D02*Y216338D01*
X355944D01*
Y218306D01*
X353190D01*
G37*
G36*
Y195158D02*Y193190D01*
X355944D01*
Y195158D01*
X353190D01*
G37*
G36*
Y198306D02*Y196338D01*
X355944D01*
Y198306D01*
X353190D01*
G37*
G36*
Y175158D02*Y173190D01*
X355944D01*
Y175158D01*
X353190D01*
G37*
G36*
Y178306D02*Y176338D01*
X355944D01*
Y178306D01*
X353190D01*
G37*
G36*
Y155158D02*Y153190D01*
X355944D01*
Y155158D01*
X353190D01*
G37*
G36*
Y158306D02*Y156338D01*
X355944D01*
Y158306D01*
X353190D01*
G37*
G36*
Y135158D02*Y133190D01*
X355944D01*
Y135158D01*
X353190D01*
G37*
G36*
Y138306D02*Y136338D01*
X355944D01*
Y138306D01*
X353190D01*
G37*
G36*
Y115158D02*Y113190D01*
X355944D01*
Y115158D01*
X353190D01*
G37*
G36*
Y118306D02*Y116338D01*
X355944D01*
Y118306D01*
X353190D01*
G37*
G36*
Y95158D02*Y93190D01*
X355944D01*
Y95158D01*
X353190D01*
G37*
G36*
Y98306D02*Y96338D01*
X355944D01*
Y98306D01*
X353190D01*
G37*
G36*
Y75158D02*Y73190D01*
X355944D01*
Y75158D01*
X353190D01*
G37*
G36*
Y78306D02*Y76338D01*
X355944D01*
Y78306D01*
X353190D01*
G37*
G36*
Y55158D02*Y53190D01*
X355944D01*
Y55158D01*
X353190D01*
G37*
G36*
Y58306D02*Y56338D01*
X355944D01*
Y58306D01*
X353190D01*
G37*
G36*
Y35158D02*Y33190D01*
X355944D01*
Y35158D01*
X353190D01*
G37*
G36*
Y38306D02*Y36338D01*
X355944D01*
Y38306D01*
X353190D01*
G37*
G36*
X346317Y498498D02*X344817D01*
Y494998D01*
X346317D01*
Y498498D01*
G37*
G36*
X348917D02*X347417D01*
Y494998D01*
X348917D01*
Y498498D01*
G37*
G36*
X351417D02*X349917D01*
Y494998D01*
X351417D01*
Y498498D01*
G37*
G36*
Y505498D02*X349917D01*
Y501998D01*
X351417D01*
Y505498D01*
G37*
G36*
X348917D02*X347417D01*
Y501998D01*
X348917D01*
Y505498D01*
G37*
G36*
X346317D02*X344817D01*
Y501998D01*
X346317D01*
Y505498D01*
G37*
G36*
Y478498D02*X344817D01*
Y474998D01*
X346317D01*
Y478498D01*
G37*
G36*
X348917D02*X347417D01*
Y474998D01*
X348917D01*
Y478498D01*
G37*
G36*
X351417D02*X349917D01*
Y474998D01*
X351417D01*
Y478498D01*
G37*
G36*
Y485498D02*X349917D01*
Y481998D01*
X351417D01*
Y485498D01*
G37*
G36*
X348917D02*X347417D01*
Y481998D01*
X348917D01*
Y485498D01*
G37*
G36*
X346317D02*X344817D01*
Y481998D01*
X346317D01*
Y485498D01*
G37*
G36*
Y458498D02*X344817D01*
Y454998D01*
X346317D01*
Y458498D01*
G37*
G36*
X348917D02*X347417D01*
Y454998D01*
X348917D01*
Y458498D01*
G37*
G36*
X351417D02*X349917D01*
Y454998D01*
X351417D01*
Y458498D01*
G37*
G36*
Y465498D02*X349917D01*
Y461998D01*
X351417D01*
Y465498D01*
G37*
G36*
X348917D02*X347417D01*
Y461998D01*
X348917D01*
Y465498D01*
G37*
G36*
X346317D02*X344817D01*
Y461998D01*
X346317D01*
Y465498D01*
G37*
G36*
Y438498D02*X344817D01*
Y434998D01*
X346317D01*
Y438498D01*
G37*
G36*
X348917D02*X347417D01*
Y434998D01*
X348917D01*
Y438498D01*
G37*
G36*
X351417D02*X349917D01*
Y434998D01*
X351417D01*
Y438498D01*
G37*
G36*
Y445498D02*X349917D01*
Y441998D01*
X351417D01*
Y445498D01*
G37*
G36*
X348917D02*X347417D01*
Y441998D01*
X348917D01*
Y445498D01*
G37*
G36*
X346317D02*X344817D01*
Y441998D01*
X346317D01*
Y445498D01*
G37*
G36*
Y418498D02*X344817D01*
Y414998D01*
X346317D01*
Y418498D01*
G37*
G36*
X348917D02*X347417D01*
Y414998D01*
X348917D01*
Y418498D01*
G37*
G36*
X351417D02*X349917D01*
Y414998D01*
X351417D01*
Y418498D01*
G37*
G36*
Y425498D02*X349917D01*
Y421998D01*
X351417D01*
Y425498D01*
G37*
G36*
X348917D02*X347417D01*
Y421998D01*
X348917D01*
Y425498D01*
G37*
G36*
X346317D02*X344817D01*
Y421998D01*
X346317D01*
Y425498D01*
G37*
G36*
Y398498D02*X344817D01*
Y394998D01*
X346317D01*
Y398498D01*
G37*
G36*
X348917D02*X347417D01*
Y394998D01*
X348917D01*
Y398498D01*
G37*
G36*
X351417D02*X349917D01*
Y394998D01*
X351417D01*
Y398498D01*
G37*
G36*
Y405498D02*X349917D01*
Y401998D01*
X351417D01*
Y405498D01*
G37*
G36*
X348917D02*X347417D01*
Y401998D01*
X348917D01*
Y405498D01*
G37*
G36*
X346317D02*X344817D01*
Y401998D01*
X346317D01*
Y405498D01*
G37*
G36*
Y378498D02*X344817D01*
Y374998D01*
X346317D01*
Y378498D01*
G37*
G36*
X348917D02*X347417D01*
Y374998D01*
X348917D01*
Y378498D01*
G37*
G36*
X351417D02*X349917D01*
Y374998D01*
X351417D01*
Y378498D01*
G37*
G36*
Y385498D02*X349917D01*
Y381998D01*
X351417D01*
Y385498D01*
G37*
G36*
X348917D02*X347417D01*
Y381998D01*
X348917D01*
Y385498D01*
G37*
G36*
X346317D02*X344817D01*
Y381998D01*
X346317D01*
Y385498D01*
G37*
G36*
Y358498D02*X344817D01*
Y354998D01*
X346317D01*
Y358498D01*
G37*
G36*
X348917D02*X347417D01*
Y354998D01*
X348917D01*
Y358498D01*
G37*
G36*
X351417D02*X349917D01*
Y354998D01*
X351417D01*
Y358498D01*
G37*
G36*
Y365498D02*X349917D01*
Y361998D01*
X351417D01*
Y365498D01*
G37*
G36*
X348917D02*X347417D01*
Y361998D01*
X348917D01*
Y365498D01*
G37*
G36*
X346317D02*X344817D01*
Y361998D01*
X346317D01*
Y365498D01*
G37*
G36*
Y338498D02*X344817D01*
Y334998D01*
X346317D01*
Y338498D01*
G37*
G36*
X348917D02*X347417D01*
Y334998D01*
X348917D01*
Y338498D01*
G37*
G36*
X351417D02*X349917D01*
Y334998D01*
X351417D01*
Y338498D01*
G37*
G36*
Y345498D02*X349917D01*
Y341998D01*
X351417D01*
Y345498D01*
G37*
G36*
X348917D02*X347417D01*
Y341998D01*
X348917D01*
Y345498D01*
G37*
G36*
X346317D02*X344817D01*
Y341998D01*
X346317D01*
Y345498D01*
G37*
G36*
Y318498D02*X344817D01*
Y314998D01*
X346317D01*
Y318498D01*
G37*
G36*
X348917D02*X347417D01*
Y314998D01*
X348917D01*
Y318498D01*
G37*
G36*
X351417D02*X349917D01*
Y314998D01*
X351417D01*
Y318498D01*
G37*
G36*
Y325498D02*X349917D01*
Y321998D01*
X351417D01*
Y325498D01*
G37*
G36*
X348917D02*X347417D01*
Y321998D01*
X348917D01*
Y325498D01*
G37*
G36*
X346317D02*X344817D01*
Y321998D01*
X346317D01*
Y325498D01*
G37*
G36*
Y298498D02*X344817D01*
Y294998D01*
X346317D01*
Y298498D01*
G37*
G36*
X348917D02*X347417D01*
Y294998D01*
X348917D01*
Y298498D01*
G37*
G36*
X351417D02*X349917D01*
Y294998D01*
X351417D01*
Y298498D01*
G37*
G36*
Y305498D02*X349917D01*
Y301998D01*
X351417D01*
Y305498D01*
G37*
G36*
X348917D02*X347417D01*
Y301998D01*
X348917D01*
Y305498D01*
G37*
G36*
X346317D02*X344817D01*
Y301998D01*
X346317D01*
Y305498D01*
G37*
G36*
Y278498D02*X344817D01*
Y274998D01*
X346317D01*
Y278498D01*
G37*
G36*
X348917D02*X347417D01*
Y274998D01*
X348917D01*
Y278498D01*
G37*
G36*
X351417D02*X349917D01*
Y274998D01*
X351417D01*
Y278498D01*
G37*
G36*
Y285498D02*X349917D01*
Y281998D01*
X351417D01*
Y285498D01*
G37*
G36*
X348917D02*X347417D01*
Y281998D01*
X348917D01*
Y285498D01*
G37*
G36*
X346317D02*X344817D01*
Y281998D01*
X346317D01*
Y285498D01*
G37*
G36*
Y258498D02*X344817D01*
Y254998D01*
X346317D01*
Y258498D01*
G37*
G36*
X348917D02*X347417D01*
Y254998D01*
X348917D01*
Y258498D01*
G37*
G36*
X351417D02*X349917D01*
Y254998D01*
X351417D01*
Y258498D01*
G37*
G36*
Y265498D02*X349917D01*
Y261998D01*
X351417D01*
Y265498D01*
G37*
G36*
X348917D02*X347417D01*
Y261998D01*
X348917D01*
Y265498D01*
G37*
G36*
X346317D02*X344817D01*
Y261998D01*
X346317D01*
Y265498D01*
G37*
G36*
Y238498D02*X344817D01*
Y234998D01*
X346317D01*
Y238498D01*
G37*
G36*
X348917D02*X347417D01*
Y234998D01*
X348917D01*
Y238498D01*
G37*
G36*
X351417D02*X349917D01*
Y234998D01*
X351417D01*
Y238498D01*
G37*
G36*
Y245498D02*X349917D01*
Y241998D01*
X351417D01*
Y245498D01*
G37*
G36*
X348917D02*X347417D01*
Y241998D01*
X348917D01*
Y245498D01*
G37*
G36*
X346317D02*X344817D01*
Y241998D01*
X346317D01*
Y245498D01*
G37*
G36*
Y218498D02*X344817D01*
Y214998D01*
X346317D01*
Y218498D01*
G37*
G36*
X348917D02*X347417D01*
Y214998D01*
X348917D01*
Y218498D01*
G37*
G36*
X351417D02*X349917D01*
Y214998D01*
X351417D01*
Y218498D01*
G37*
G36*
Y225498D02*X349917D01*
Y221998D01*
X351417D01*
Y225498D01*
G37*
G36*
X348917D02*X347417D01*
Y221998D01*
X348917D01*
Y225498D01*
G37*
G36*
X346317D02*X344817D01*
Y221998D01*
X346317D01*
Y225498D01*
G37*
G36*
Y198498D02*X344817D01*
Y194998D01*
X346317D01*
Y198498D01*
G37*
G36*
X348917D02*X347417D01*
Y194998D01*
X348917D01*
Y198498D01*
G37*
G36*
X351417D02*X349917D01*
Y194998D01*
X351417D01*
Y198498D01*
G37*
G36*
Y205498D02*X349917D01*
Y201998D01*
X351417D01*
Y205498D01*
G37*
G36*
X348917D02*X347417D01*
Y201998D01*
X348917D01*
Y205498D01*
G37*
G36*
X346317D02*X344817D01*
Y201998D01*
X346317D01*
Y205498D01*
G37*
G36*
Y178498D02*X344817D01*
Y174998D01*
X346317D01*
Y178498D01*
G37*
G36*
X348917D02*X347417D01*
Y174998D01*
X348917D01*
Y178498D01*
G37*
G36*
X351417D02*X349917D01*
Y174998D01*
X351417D01*
Y178498D01*
G37*
G36*
Y185498D02*X349917D01*
Y181998D01*
X351417D01*
Y185498D01*
G37*
G36*
X348917D02*X347417D01*
Y181998D01*
X348917D01*
Y185498D01*
G37*
G36*
X346317D02*X344817D01*
Y181998D01*
X346317D01*
Y185498D01*
G37*
G36*
Y158498D02*X344817D01*
Y154998D01*
X346317D01*
Y158498D01*
G37*
G36*
X348917D02*X347417D01*
Y154998D01*
X348917D01*
Y158498D01*
G37*
G36*
X351417D02*X349917D01*
Y154998D01*
X351417D01*
Y158498D01*
G37*
G36*
Y165498D02*X349917D01*
Y161998D01*
X351417D01*
Y165498D01*
G37*
G36*
X348917D02*X347417D01*
Y161998D01*
X348917D01*
Y165498D01*
G37*
G36*
X346317D02*X344817D01*
Y161998D01*
X346317D01*
Y165498D01*
G37*
G36*
Y138498D02*X344817D01*
Y134998D01*
X346317D01*
Y138498D01*
G37*
G36*
X348917D02*X347417D01*
Y134998D01*
X348917D01*
Y138498D01*
G37*
G36*
X351417D02*X349917D01*
Y134998D01*
X351417D01*
Y138498D01*
G37*
G36*
Y145498D02*X349917D01*
Y141998D01*
X351417D01*
Y145498D01*
G37*
G36*
X348917D02*X347417D01*
Y141998D01*
X348917D01*
Y145498D01*
G37*
G36*
X346317D02*X344817D01*
Y141998D01*
X346317D01*
Y145498D01*
G37*
G36*
Y118498D02*X344817D01*
Y114998D01*
X346317D01*
Y118498D01*
G37*
G36*
X348917D02*X347417D01*
Y114998D01*
X348917D01*
Y118498D01*
G37*
G36*
X351417D02*X349917D01*
Y114998D01*
X351417D01*
Y118498D01*
G37*
G36*
Y125498D02*X349917D01*
Y121998D01*
X351417D01*
Y125498D01*
G37*
G36*
X348917D02*X347417D01*
Y121998D01*
X348917D01*
Y125498D01*
G37*
G36*
X346317D02*X344817D01*
Y121998D01*
X346317D01*
Y125498D01*
G37*
G36*
Y98498D02*X344817D01*
Y94998D01*
X346317D01*
Y98498D01*
G37*
G36*
X348917D02*X347417D01*
Y94998D01*
X348917D01*
Y98498D01*
G37*
G36*
X351417D02*X349917D01*
Y94998D01*
X351417D01*
Y98498D01*
G37*
G36*
Y105498D02*X349917D01*
Y101998D01*
X351417D01*
Y105498D01*
G37*
G36*
X348917D02*X347417D01*
Y101998D01*
X348917D01*
Y105498D01*
G37*
G36*
X346317D02*X344817D01*
Y101998D01*
X346317D01*
Y105498D01*
G37*
G36*
Y78498D02*X344817D01*
Y74998D01*
X346317D01*
Y78498D01*
G37*
G36*
X348917D02*X347417D01*
Y74998D01*
X348917D01*
Y78498D01*
G37*
G36*
X351417D02*X349917D01*
Y74998D01*
X351417D01*
Y78498D01*
G37*
G36*
Y85498D02*X349917D01*
Y81998D01*
X351417D01*
Y85498D01*
G37*
G36*
X348917D02*X347417D01*
Y81998D01*
X348917D01*
Y85498D01*
G37*
G36*
X346317D02*X344817D01*
Y81998D01*
X346317D01*
Y85498D01*
G37*
G36*
Y58498D02*X344817D01*
Y54998D01*
X346317D01*
Y58498D01*
G37*
G36*
X348917D02*X347417D01*
Y54998D01*
X348917D01*
Y58498D01*
G37*
G36*
X351417D02*X349917D01*
Y54998D01*
X351417D01*
Y58498D01*
G37*
G36*
Y65498D02*X349917D01*
Y61998D01*
X351417D01*
Y65498D01*
G37*
G36*
X348917D02*X347417D01*
Y61998D01*
X348917D01*
Y65498D01*
G37*
G36*
X346317D02*X344817D01*
Y61998D01*
X346317D01*
Y65498D01*
G37*
G36*
Y38498D02*X344817D01*
Y34998D01*
X346317D01*
Y38498D01*
G37*
G36*
X348917D02*X347417D01*
Y34998D01*
X348917D01*
Y38498D01*
G37*
G36*
X351417D02*X349917D01*
Y34998D01*
X351417D01*
Y38498D01*
G37*
G36*
Y45498D02*X349917D01*
Y41998D01*
X351417D01*
Y45498D01*
G37*
G36*
X348917D02*X347417D01*
Y41998D01*
X348917D01*
Y45498D01*
G37*
G36*
X346317D02*X344817D01*
Y41998D01*
X346317D01*
Y45498D01*
G37*
G36*
X292267Y505748D02*X288867D01*
Y501748D01*
X292267D01*
Y505748D01*
G37*
G36*
X284467D02*X281067D01*
Y501748D01*
X284467D01*
Y505748D01*
G37*
G36*
X288367Y497548D02*X284967D01*
Y493548D01*
X288367D01*
Y497548D01*
G37*
G36*
X292267Y485748D02*X288867D01*
Y481748D01*
X292267D01*
Y485748D01*
G37*
G36*
X284467D02*X281067D01*
Y481748D01*
X284467D01*
Y485748D01*
G37*
G36*
X288367Y477548D02*X284967D01*
Y473548D01*
X288367D01*
Y477548D01*
G37*
G36*
X292267Y465748D02*X288867D01*
Y461748D01*
X292267D01*
Y465748D01*
G37*
G36*
X284467D02*X281067D01*
Y461748D01*
X284467D01*
Y465748D01*
G37*
G36*
X288367Y457548D02*X284967D01*
Y453548D01*
X288367D01*
Y457548D01*
G37*
G36*
X292267Y445748D02*X288867D01*
Y441748D01*
X292267D01*
Y445748D01*
G37*
G36*
X284467D02*X281067D01*
Y441748D01*
X284467D01*
Y445748D01*
G37*
G36*
X288367Y437548D02*X284967D01*
Y433548D01*
X288367D01*
Y437548D01*
G37*
G36*
X292267Y425748D02*X288867D01*
Y421748D01*
X292267D01*
Y425748D01*
G37*
G36*
X284467D02*X281067D01*
Y421748D01*
X284467D01*
Y425748D01*
G37*
G36*
X288367Y417548D02*X284967D01*
Y413548D01*
X288367D01*
Y417548D01*
G37*
G36*
X292267Y405748D02*X288867D01*
Y401748D01*
X292267D01*
Y405748D01*
G37*
G36*
X284467D02*X281067D01*
Y401748D01*
X284467D01*
Y405748D01*
G37*
G36*
X288367Y397548D02*X284967D01*
Y393548D01*
X288367D01*
Y397548D01*
G37*
G36*
X292267Y385748D02*X288867D01*
Y381748D01*
X292267D01*
Y385748D01*
G37*
G36*
X284467D02*X281067D01*
Y381748D01*
X284467D01*
Y385748D01*
G37*
G36*
X288367Y377548D02*X284967D01*
Y373548D01*
X288367D01*
Y377548D01*
G37*
G36*
X292267Y365748D02*X288867D01*
Y361748D01*
X292267D01*
Y365748D01*
G37*
G36*
X284467D02*X281067D01*
Y361748D01*
X284467D01*
Y365748D01*
G37*
G36*
X288367Y357548D02*X284967D01*
Y353548D01*
X288367D01*
Y357548D01*
G37*
G36*
X292267Y345748D02*X288867D01*
Y341748D01*
X292267D01*
Y345748D01*
G37*
G36*
X284467D02*X281067D01*
Y341748D01*
X284467D01*
Y345748D01*
G37*
G36*
X288367Y337548D02*X284967D01*
Y333548D01*
X288367D01*
Y337548D01*
G37*
G36*
X292267Y325748D02*X288867D01*
Y321748D01*
X292267D01*
Y325748D01*
G37*
G36*
X284467D02*X281067D01*
Y321748D01*
X284467D01*
Y325748D01*
G37*
G36*
X288367Y317548D02*X284967D01*
Y313548D01*
X288367D01*
Y317548D01*
G37*
G36*
X292267Y305748D02*X288867D01*
Y301748D01*
X292267D01*
Y305748D01*
G37*
G36*
X284467D02*X281067D01*
Y301748D01*
X284467D01*
Y305748D01*
G37*
G36*
X288367Y297548D02*X284967D01*
Y293548D01*
X288367D01*
Y297548D01*
G37*
G36*
X292267Y285748D02*X288867D01*
Y281748D01*
X292267D01*
Y285748D01*
G37*
G36*
X284467D02*X281067D01*
Y281748D01*
X284467D01*
Y285748D01*
G37*
G36*
X288367Y277548D02*X284967D01*
Y273548D01*
X288367D01*
Y277548D01*
G37*
G36*
X292267Y265748D02*X288867D01*
Y261748D01*
X292267D01*
Y265748D01*
G37*
G36*
X284467D02*X281067D01*
Y261748D01*
X284467D01*
Y265748D01*
G37*
G36*
X288367Y257548D02*X284967D01*
Y253548D01*
X288367D01*
Y257548D01*
G37*
G36*
X292267Y245748D02*X288867D01*
Y241748D01*
X292267D01*
Y245748D01*
G37*
G36*
X284467D02*X281067D01*
Y241748D01*
X284467D01*
Y245748D01*
G37*
G36*
X288367Y237548D02*X284967D01*
Y233548D01*
X288367D01*
Y237548D01*
G37*
G36*
X292267Y225748D02*X288867D01*
Y221748D01*
X292267D01*
Y225748D01*
G37*
G36*
X284467D02*X281067D01*
Y221748D01*
X284467D01*
Y225748D01*
G37*
G36*
X288367Y217548D02*X284967D01*
Y213548D01*
X288367D01*
Y217548D01*
G37*
G36*
X292267Y205748D02*X288867D01*
Y201748D01*
X292267D01*
Y205748D01*
G37*
G36*
X284467D02*X281067D01*
Y201748D01*
X284467D01*
Y205748D01*
G37*
G36*
X288367Y197548D02*X284967D01*
Y193548D01*
X288367D01*
Y197548D01*
G37*
G36*
X292267Y185748D02*X288867D01*
Y181748D01*
X292267D01*
Y185748D01*
G37*
G36*
X284467D02*X281067D01*
Y181748D01*
X284467D01*
Y185748D01*
G37*
G36*
X288367Y177548D02*X284967D01*
Y173548D01*
X288367D01*
Y177548D01*
G37*
G36*
X292267Y165748D02*X288867D01*
Y161748D01*
X292267D01*
Y165748D01*
G37*
G36*
X284467D02*X281067D01*
Y161748D01*
X284467D01*
Y165748D01*
G37*
G36*
X288367Y157548D02*X284967D01*
Y153548D01*
X288367D01*
Y157548D01*
G37*
G36*
X292267Y145748D02*X288867D01*
Y141748D01*
X292267D01*
Y145748D01*
G37*
G36*
X284467D02*X281067D01*
Y141748D01*
X284467D01*
Y145748D01*
G37*
G36*
X288367Y137548D02*X284967D01*
Y133548D01*
X288367D01*
Y137548D01*
G37*
G36*
X292267Y125748D02*X288867D01*
Y121748D01*
X292267D01*
Y125748D01*
G37*
G36*
X284467D02*X281067D01*
Y121748D01*
X284467D01*
Y125748D01*
G37*
G36*
X288367Y117548D02*X284967D01*
Y113548D01*
X288367D01*
Y117548D01*
G37*
G36*
X292267Y105748D02*X288867D01*
Y101748D01*
X292267D01*
Y105748D01*
G37*
G36*
X284467D02*X281067D01*
Y101748D01*
X284467D01*
Y105748D01*
G37*
G36*
X288367Y97548D02*X284967D01*
Y93548D01*
X288367D01*
Y97548D01*
G37*
G36*
X292267Y85748D02*X288867D01*
Y81748D01*
X292267D01*
Y85748D01*
G37*
G36*
X284467D02*X281067D01*
Y81748D01*
X284467D01*
Y85748D01*
G37*
G36*
X288367Y77548D02*X284967D01*
Y73548D01*
X288367D01*
Y77548D01*
G37*
G36*
X292267Y65748D02*X288867D01*
Y61748D01*
X292267D01*
Y65748D01*
G37*
G36*
X284467D02*X281067D01*
Y61748D01*
X284467D01*
Y65748D01*
G37*
G36*
X288367Y57548D02*X284967D01*
Y53548D01*
X288367D01*
Y57548D01*
G37*
G36*
X292267Y45748D02*X288867D01*
Y41748D01*
X292267D01*
Y45748D01*
G37*
G36*
X284467D02*X281067D01*
Y41748D01*
X284467D01*
Y45748D01*
G37*
G36*
X288367Y37548D02*X284967D01*
Y33548D01*
X288367D01*
Y37548D01*
G37*
G36*
X306267Y505748D02*X302867D01*
Y501748D01*
X306267D01*
Y505748D01*
G37*
G36*
X298467D02*X295067D01*
Y501748D01*
X298467D01*
Y505748D01*
G37*
G36*
X302367Y497548D02*X298967D01*
Y493548D01*
X302367D01*
Y497548D01*
G37*
G36*
X306267Y485748D02*X302867D01*
Y481748D01*
X306267D01*
Y485748D01*
G37*
G36*
X298467D02*X295067D01*
Y481748D01*
X298467D01*
Y485748D01*
G37*
G36*
X302367Y477548D02*X298967D01*
Y473548D01*
X302367D01*
Y477548D01*
G37*
G36*
X306267Y465748D02*X302867D01*
Y461748D01*
X306267D01*
Y465748D01*
G37*
G36*
X298467D02*X295067D01*
Y461748D01*
X298467D01*
Y465748D01*
G37*
G36*
X302367Y457548D02*X298967D01*
Y453548D01*
X302367D01*
Y457548D01*
G37*
G36*
X306267Y445748D02*X302867D01*
Y441748D01*
X306267D01*
Y445748D01*
G37*
G36*
X298467D02*X295067D01*
Y441748D01*
X298467D01*
Y445748D01*
G37*
G36*
X302367Y437548D02*X298967D01*
Y433548D01*
X302367D01*
Y437548D01*
G37*
G36*
X306267Y425748D02*X302867D01*
Y421748D01*
X306267D01*
Y425748D01*
G37*
G36*
X298467D02*X295067D01*
Y421748D01*
X298467D01*
Y425748D01*
G37*
G36*
X302367Y417548D02*X298967D01*
Y413548D01*
X302367D01*
Y417548D01*
G37*
G36*
X306267Y405748D02*X302867D01*
Y401748D01*
X306267D01*
Y405748D01*
G37*
G36*
X298467D02*X295067D01*
Y401748D01*
X298467D01*
Y405748D01*
G37*
G36*
X302367Y397548D02*X298967D01*
Y393548D01*
X302367D01*
Y397548D01*
G37*
G36*
X306267Y385748D02*X302867D01*
Y381748D01*
X306267D01*
Y385748D01*
G37*
G36*
X298467D02*X295067D01*
Y381748D01*
X298467D01*
Y385748D01*
G37*
G36*
X302367Y377548D02*X298967D01*
Y373548D01*
X302367D01*
Y377548D01*
G37*
G36*
X306267Y365748D02*X302867D01*
Y361748D01*
X306267D01*
Y365748D01*
G37*
G36*
X298467D02*X295067D01*
Y361748D01*
X298467D01*
Y365748D01*
G37*
G36*
X302367Y357548D02*X298967D01*
Y353548D01*
X302367D01*
Y357548D01*
G37*
G36*
X306267Y345748D02*X302867D01*
Y341748D01*
X306267D01*
Y345748D01*
G37*
G36*
X298467D02*X295067D01*
Y341748D01*
X298467D01*
Y345748D01*
G37*
G36*
X302367Y337548D02*X298967D01*
Y333548D01*
X302367D01*
Y337548D01*
G37*
G36*
X306267Y325748D02*X302867D01*
Y321748D01*
X306267D01*
Y325748D01*
G37*
G36*
X298467D02*X295067D01*
Y321748D01*
X298467D01*
Y325748D01*
G37*
G36*
X302367Y317548D02*X298967D01*
Y313548D01*
X302367D01*
Y317548D01*
G37*
G36*
X306267Y305748D02*X302867D01*
Y301748D01*
X306267D01*
Y305748D01*
G37*
G36*
X298467D02*X295067D01*
Y301748D01*
X298467D01*
Y305748D01*
G37*
G36*
X302367Y297548D02*X298967D01*
Y293548D01*
X302367D01*
Y297548D01*
G37*
G36*
X306267Y285748D02*X302867D01*
Y281748D01*
X306267D01*
Y285748D01*
G37*
G36*
X298467D02*X295067D01*
Y281748D01*
X298467D01*
Y285748D01*
G37*
G36*
X302367Y277548D02*X298967D01*
Y273548D01*
X302367D01*
Y277548D01*
G37*
G36*
X306267Y265748D02*X302867D01*
Y261748D01*
X306267D01*
Y265748D01*
G37*
G36*
X298467D02*X295067D01*
Y261748D01*
X298467D01*
Y265748D01*
G37*
G36*
X302367Y257548D02*X298967D01*
Y253548D01*
X302367D01*
Y257548D01*
G37*
G36*
X306267Y245748D02*X302867D01*
Y241748D01*
X306267D01*
Y245748D01*
G37*
G36*
X298467D02*X295067D01*
Y241748D01*
X298467D01*
Y245748D01*
G37*
G36*
X302367Y237548D02*X298967D01*
Y233548D01*
X302367D01*
Y237548D01*
G37*
G36*
X306267Y225748D02*X302867D01*
Y221748D01*
X306267D01*
Y225748D01*
G37*
G36*
X298467D02*X295067D01*
Y221748D01*
X298467D01*
Y225748D01*
G37*
G36*
X302367Y217548D02*X298967D01*
Y213548D01*
X302367D01*
Y217548D01*
G37*
G36*
X306267Y205748D02*X302867D01*
Y201748D01*
X306267D01*
Y205748D01*
G37*
G36*
X298467D02*X295067D01*
Y201748D01*
X298467D01*
Y205748D01*
G37*
G36*
X302367Y197548D02*X298967D01*
Y193548D01*
X302367D01*
Y197548D01*
G37*
G36*
X306267Y185748D02*X302867D01*
Y181748D01*
X306267D01*
Y185748D01*
G37*
G36*
X298467D02*X295067D01*
Y181748D01*
X298467D01*
Y185748D01*
G37*
G36*
X302367Y177548D02*X298967D01*
Y173548D01*
X302367D01*
Y177548D01*
G37*
G36*
X306267Y165748D02*X302867D01*
Y161748D01*
X306267D01*
Y165748D01*
G37*
G36*
X298467D02*X295067D01*
Y161748D01*
X298467D01*
Y165748D01*
G37*
G36*
X302367Y157548D02*X298967D01*
Y153548D01*
X302367D01*
Y157548D01*
G37*
G36*
X306267Y145748D02*X302867D01*
Y141748D01*
X306267D01*
Y145748D01*
G37*
G36*
X298467D02*X295067D01*
Y141748D01*
X298467D01*
Y145748D01*
G37*
G36*
X302367Y137548D02*X298967D01*
Y133548D01*
X302367D01*
Y137548D01*
G37*
G36*
X306267Y125748D02*X302867D01*
Y121748D01*
X306267D01*
Y125748D01*
G37*
G36*
X298467D02*X295067D01*
Y121748D01*
X298467D01*
Y125748D01*
G37*
G36*
X302367Y117548D02*X298967D01*
Y113548D01*
X302367D01*
Y117548D01*
G37*
G36*
X306267Y105748D02*X302867D01*
Y101748D01*
X306267D01*
Y105748D01*
G37*
G36*
X298467D02*X295067D01*
Y101748D01*
X298467D01*
Y105748D01*
G37*
G36*
X302367Y97548D02*X298967D01*
Y93548D01*
X302367D01*
Y97548D01*
G37*
G36*
X306267Y85748D02*X302867D01*
Y81748D01*
X306267D01*
Y85748D01*
G37*
G36*
X298467D02*X295067D01*
Y81748D01*
X298467D01*
Y85748D01*
G37*
G36*
X302367Y77548D02*X298967D01*
Y73548D01*
X302367D01*
Y77548D01*
G37*
G36*
X306267Y65748D02*X302867D01*
Y61748D01*
X306267D01*
Y65748D01*
G37*
G36*
X298467D02*X295067D01*
Y61748D01*
X298467D01*
Y65748D01*
G37*
G36*
X302367Y57548D02*X298967D01*
Y53548D01*
X302367D01*
Y57548D01*
G37*
G36*
X306267Y45748D02*X302867D01*
Y41748D01*
X306267D01*
Y45748D01*
G37*
G36*
X298467D02*X295067D01*
Y41748D01*
X298467D01*
Y45748D01*
G37*
G36*
X302367Y37548D02*X298967D01*
Y33548D01*
X302367D01*
Y37548D01*
G37*
G36*
X322567Y497448D02*Y494048D01*
X326567D01*
Y497448D01*
X322567D01*
G37*
G36*
Y505248D02*Y501848D01*
X326567D01*
Y505248D01*
X322567D01*
G37*
G36*
X314367Y501348D02*Y497948D01*
X318367D01*
Y501348D01*
X314367D01*
G37*
G36*
X322567Y477448D02*Y474048D01*
X326567D01*
Y477448D01*
X322567D01*
G37*
G36*
Y485248D02*Y481848D01*
X326567D01*
Y485248D01*
X322567D01*
G37*
G36*
X314367Y481348D02*Y477948D01*
X318367D01*
Y481348D01*
X314367D01*
G37*
G36*
X322567Y457448D02*Y454048D01*
X326567D01*
Y457448D01*
X322567D01*
G37*
G36*
Y465248D02*Y461848D01*
X326567D01*
Y465248D01*
X322567D01*
G37*
G36*
X314367Y461348D02*Y457948D01*
X318367D01*
Y461348D01*
X314367D01*
G37*
G36*
X322567Y437448D02*Y434048D01*
X326567D01*
Y437448D01*
X322567D01*
G37*
G36*
Y445248D02*Y441848D01*
X326567D01*
Y445248D01*
X322567D01*
G37*
G36*
X314367Y441348D02*Y437948D01*
X318367D01*
Y441348D01*
X314367D01*
G37*
G36*
X322567Y417448D02*Y414048D01*
X326567D01*
Y417448D01*
X322567D01*
G37*
G36*
Y425248D02*Y421848D01*
X326567D01*
Y425248D01*
X322567D01*
G37*
G36*
X314367Y421348D02*Y417948D01*
X318367D01*
Y421348D01*
X314367D01*
G37*
G36*
X322567Y397448D02*Y394048D01*
X326567D01*
Y397448D01*
X322567D01*
G37*
G36*
Y405248D02*Y401848D01*
X326567D01*
Y405248D01*
X322567D01*
G37*
G36*
X314367Y401348D02*Y397948D01*
X318367D01*
Y401348D01*
X314367D01*
G37*
G36*
X322567Y377448D02*Y374048D01*
X326567D01*
Y377448D01*
X322567D01*
G37*
G36*
Y385248D02*Y381848D01*
X326567D01*
Y385248D01*
X322567D01*
G37*
G36*
X314367Y381348D02*Y377948D01*
X318367D01*
Y381348D01*
X314367D01*
G37*
G36*
X322567Y357448D02*Y354048D01*
X326567D01*
Y357448D01*
X322567D01*
G37*
G36*
Y365248D02*Y361848D01*
X326567D01*
Y365248D01*
X322567D01*
G37*
G36*
X314367Y361348D02*Y357948D01*
X318367D01*
Y361348D01*
X314367D01*
G37*
G36*
X322567Y337448D02*Y334048D01*
X326567D01*
Y337448D01*
X322567D01*
G37*
G36*
Y345248D02*Y341848D01*
X326567D01*
Y345248D01*
X322567D01*
G37*
G36*
X314367Y341348D02*Y337948D01*
X318367D01*
Y341348D01*
X314367D01*
G37*
G36*
X322567Y317448D02*Y314048D01*
X326567D01*
Y317448D01*
X322567D01*
G37*
G36*
Y325248D02*Y321848D01*
X326567D01*
Y325248D01*
X322567D01*
G37*
G36*
X314367Y321348D02*Y317948D01*
X318367D01*
Y321348D01*
X314367D01*
G37*
G36*
X322567Y297448D02*Y294048D01*
X326567D01*
Y297448D01*
X322567D01*
G37*
G36*
Y305248D02*Y301848D01*
X326567D01*
Y305248D01*
X322567D01*
G37*
G36*
X314367Y301348D02*Y297948D01*
X318367D01*
Y301348D01*
X314367D01*
G37*
G36*
X322567Y277448D02*Y274048D01*
X326567D01*
Y277448D01*
X322567D01*
G37*
G36*
Y285248D02*Y281848D01*
X326567D01*
Y285248D01*
X322567D01*
G37*
G36*
X314367Y281348D02*Y277948D01*
X318367D01*
Y281348D01*
X314367D01*
G37*
G36*
X322567Y257448D02*Y254048D01*
X326567D01*
Y257448D01*
X322567D01*
G37*
G36*
Y265248D02*Y261848D01*
X326567D01*
Y265248D01*
X322567D01*
G37*
G36*
X314367Y261348D02*Y257948D01*
X318367D01*
Y261348D01*
X314367D01*
G37*
G36*
X322567Y237448D02*Y234048D01*
X326567D01*
Y237448D01*
X322567D01*
G37*
G36*
Y245248D02*Y241848D01*
X326567D01*
Y245248D01*
X322567D01*
G37*
G36*
X314367Y241348D02*Y237948D01*
X318367D01*
Y241348D01*
X314367D01*
G37*
G36*
X322567Y217448D02*Y214048D01*
X326567D01*
Y217448D01*
X322567D01*
G37*
G36*
Y225248D02*Y221848D01*
X326567D01*
Y225248D01*
X322567D01*
G37*
G36*
X314367Y221348D02*Y217948D01*
X318367D01*
Y221348D01*
X314367D01*
G37*
G36*
X322567Y197448D02*Y194048D01*
X326567D01*
Y197448D01*
X322567D01*
G37*
G36*
Y205248D02*Y201848D01*
X326567D01*
Y205248D01*
X322567D01*
G37*
G36*
X314367Y201348D02*Y197948D01*
X318367D01*
Y201348D01*
X314367D01*
G37*
G36*
X322567Y177448D02*Y174048D01*
X326567D01*
Y177448D01*
X322567D01*
G37*
G36*
Y185248D02*Y181848D01*
X326567D01*
Y185248D01*
X322567D01*
G37*
G36*
X314367Y181348D02*Y177948D01*
X318367D01*
Y181348D01*
X314367D01*
G37*
G36*
X322567Y157448D02*Y154048D01*
X326567D01*
Y157448D01*
X322567D01*
G37*
G36*
Y165248D02*Y161848D01*
X326567D01*
Y165248D01*
X322567D01*
G37*
G36*
X314367Y161348D02*Y157948D01*
X318367D01*
Y161348D01*
X314367D01*
G37*
G36*
X322567Y137448D02*Y134048D01*
X326567D01*
Y137448D01*
X322567D01*
G37*
G36*
Y145248D02*Y141848D01*
X326567D01*
Y145248D01*
X322567D01*
G37*
G36*
X314367Y141348D02*Y137948D01*
X318367D01*
Y141348D01*
X314367D01*
G37*
G36*
X322567Y117448D02*Y114048D01*
X326567D01*
Y117448D01*
X322567D01*
G37*
G36*
Y125248D02*Y121848D01*
X326567D01*
Y125248D01*
X322567D01*
G37*
G36*
X314367Y121348D02*Y117948D01*
X318367D01*
Y121348D01*
X314367D01*
G37*
G36*
X322567Y97448D02*Y94048D01*
X326567D01*
Y97448D01*
X322567D01*
G37*
G36*
Y105248D02*Y101848D01*
X326567D01*
Y105248D01*
X322567D01*
G37*
G36*
X314367Y101348D02*Y97948D01*
X318367D01*
Y101348D01*
X314367D01*
G37*
G36*
X322567Y77448D02*Y74048D01*
X326567D01*
Y77448D01*
X322567D01*
G37*
G36*
Y85248D02*Y81848D01*
X326567D01*
Y85248D01*
X322567D01*
G37*
G36*
X314367Y81348D02*Y77948D01*
X318367D01*
Y81348D01*
X314367D01*
G37*
G36*
X322567Y57448D02*Y54048D01*
X326567D01*
Y57448D01*
X322567D01*
G37*
G36*
Y65248D02*Y61848D01*
X326567D01*
Y65248D01*
X322567D01*
G37*
G36*
X314367Y61348D02*Y57948D01*
X318367D01*
Y61348D01*
X314367D01*
G37*
G36*
X322567Y37448D02*Y34048D01*
X326567D01*
Y37448D01*
X322567D01*
G37*
G36*
Y45248D02*Y41848D01*
X326567D01*
Y45248D01*
X322567D01*
G37*
G36*
X314367Y41348D02*Y37948D01*
X318367D01*
Y41348D01*
X314367D01*
G37*
G36*
X289125Y509125D02*X287157D01*
Y506371D01*
X289125D01*
Y509125D01*
G37*
G36*
X285977D02*X284009D01*
Y506371D01*
X285977D01*
Y509125D01*
G37*
G36*
X289125Y489125D02*X287157D01*
Y486371D01*
X289125D01*
Y489125D01*
G37*
G36*
X285977D02*X284009D01*
Y486371D01*
X285977D01*
Y489125D01*
G37*
G36*
X289125Y469125D02*X287157D01*
Y466371D01*
X289125D01*
Y469125D01*
G37*
G36*
X285977D02*X284009D01*
Y466371D01*
X285977D01*
Y469125D01*
G37*
G36*
X289125Y449125D02*X287157D01*
Y446371D01*
X289125D01*
Y449125D01*
G37*
G36*
X285977D02*X284009D01*
Y446371D01*
X285977D01*
Y449125D01*
G37*
G36*
X289125Y429125D02*X287157D01*
Y426371D01*
X289125D01*
Y429125D01*
G37*
G36*
X285977D02*X284009D01*
Y426371D01*
X285977D01*
Y429125D01*
G37*
G36*
X289125Y409125D02*X287157D01*
Y406371D01*
X289125D01*
Y409125D01*
G37*
G36*
X285977D02*X284009D01*
Y406371D01*
X285977D01*
Y409125D01*
G37*
G36*
X289125Y389125D02*X287157D01*
Y386371D01*
X289125D01*
Y389125D01*
G37*
G36*
X285977D02*X284009D01*
Y386371D01*
X285977D01*
Y389125D01*
G37*
G36*
X289125Y369125D02*X287157D01*
Y366371D01*
X289125D01*
Y369125D01*
G37*
G36*
X285977D02*X284009D01*
Y366371D01*
X285977D01*
Y369125D01*
G37*
G36*
X289125Y349125D02*X287157D01*
Y346371D01*
X289125D01*
Y349125D01*
G37*
G36*
X285977D02*X284009D01*
Y346371D01*
X285977D01*
Y349125D01*
G37*
G36*
X289125Y329125D02*X287157D01*
Y326371D01*
X289125D01*
Y329125D01*
G37*
G36*
X285977D02*X284009D01*
Y326371D01*
X285977D01*
Y329125D01*
G37*
G36*
X289125Y309125D02*X287157D01*
Y306371D01*
X289125D01*
Y309125D01*
G37*
G36*
X285977D02*X284009D01*
Y306371D01*
X285977D01*
Y309125D01*
G37*
G36*
X289125Y289125D02*X287157D01*
Y286371D01*
X289125D01*
Y289125D01*
G37*
G36*
X285977D02*X284009D01*
Y286371D01*
X285977D01*
Y289125D01*
G37*
G36*
X289125Y269125D02*X287157D01*
Y266371D01*
X289125D01*
Y269125D01*
G37*
G36*
X285977D02*X284009D01*
Y266371D01*
X285977D01*
Y269125D01*
G37*
G36*
X289125Y249125D02*X287157D01*
Y246371D01*
X289125D01*
Y249125D01*
G37*
G36*
X285977D02*X284009D01*
Y246371D01*
X285977D01*
Y249125D01*
G37*
G36*
X289125Y229125D02*X287157D01*
Y226371D01*
X289125D01*
Y229125D01*
G37*
G36*
X285977D02*X284009D01*
Y226371D01*
X285977D01*
Y229125D01*
G37*
G36*
X289125Y209125D02*X287157D01*
Y206371D01*
X289125D01*
Y209125D01*
G37*
G36*
X285977D02*X284009D01*
Y206371D01*
X285977D01*
Y209125D01*
G37*
G36*
X289125Y189125D02*X287157D01*
Y186371D01*
X289125D01*
Y189125D01*
G37*
G36*
X285977D02*X284009D01*
Y186371D01*
X285977D01*
Y189125D01*
G37*
G36*
X289125Y169125D02*X287157D01*
Y166371D01*
X289125D01*
Y169125D01*
G37*
G36*
X285977D02*X284009D01*
Y166371D01*
X285977D01*
Y169125D01*
G37*
G36*
X289125Y149125D02*X287157D01*
Y146371D01*
X289125D01*
Y149125D01*
G37*
G36*
X285977D02*X284009D01*
Y146371D01*
X285977D01*
Y149125D01*
G37*
G36*
X289125Y129125D02*X287157D01*
Y126371D01*
X289125D01*
Y129125D01*
G37*
G36*
X285977D02*X284009D01*
Y126371D01*
X285977D01*
Y129125D01*
G37*
G36*
X289125Y109125D02*X287157D01*
Y106371D01*
X289125D01*
Y109125D01*
G37*
G36*
X285977D02*X284009D01*
Y106371D01*
X285977D01*
Y109125D01*
G37*
G36*
X289125Y89125D02*X287157D01*
Y86371D01*
X289125D01*
Y89125D01*
G37*
G36*
X285977D02*X284009D01*
Y86371D01*
X285977D01*
Y89125D01*
G37*
G36*
X289125Y69125D02*X287157D01*
Y66371D01*
X289125D01*
Y69125D01*
G37*
G36*
X285977D02*X284009D01*
Y66371D01*
X285977D01*
Y69125D01*
G37*
G36*
X289125Y49125D02*X287157D01*
Y46371D01*
X289125D01*
Y49125D01*
G37*
G36*
X285977D02*X284009D01*
Y46371D01*
X285977D01*
Y49125D01*
G37*
G36*
X308599Y502783D02*Y499831D01*
X312535D01*
Y502783D01*
X308599D01*
G37*
G36*
Y497665D02*Y494713D01*
X312535D01*
Y497665D01*
X308599D01*
G37*
G36*
Y482783D02*Y479831D01*
X312535D01*
Y482783D01*
X308599D01*
G37*
G36*
Y477665D02*Y474713D01*
X312535D01*
Y477665D01*
X308599D01*
G37*
G36*
Y462783D02*Y459831D01*
X312535D01*
Y462783D01*
X308599D01*
G37*
G36*
Y457665D02*Y454713D01*
X312535D01*
Y457665D01*
X308599D01*
G37*
G36*
Y442783D02*Y439831D01*
X312535D01*
Y442783D01*
X308599D01*
G37*
G36*
Y437665D02*Y434713D01*
X312535D01*
Y437665D01*
X308599D01*
G37*
G36*
Y422783D02*Y419831D01*
X312535D01*
Y422783D01*
X308599D01*
G37*
G36*
Y417665D02*Y414713D01*
X312535D01*
Y417665D01*
X308599D01*
G37*
G36*
Y402783D02*Y399831D01*
X312535D01*
Y402783D01*
X308599D01*
G37*
G36*
Y397665D02*Y394713D01*
X312535D01*
Y397665D01*
X308599D01*
G37*
G36*
Y382783D02*Y379831D01*
X312535D01*
Y382783D01*
X308599D01*
G37*
G36*
Y377665D02*Y374713D01*
X312535D01*
Y377665D01*
X308599D01*
G37*
G36*
Y362783D02*Y359831D01*
X312535D01*
Y362783D01*
X308599D01*
G37*
G36*
Y357665D02*Y354713D01*
X312535D01*
Y357665D01*
X308599D01*
G37*
G36*
Y342783D02*Y339831D01*
X312535D01*
Y342783D01*
X308599D01*
G37*
G36*
Y337665D02*Y334713D01*
X312535D01*
Y337665D01*
X308599D01*
G37*
G36*
Y322783D02*Y319831D01*
X312535D01*
Y322783D01*
X308599D01*
G37*
G36*
Y317665D02*Y314713D01*
X312535D01*
Y317665D01*
X308599D01*
G37*
G36*
Y302783D02*Y299831D01*
X312535D01*
Y302783D01*
X308599D01*
G37*
G36*
Y297665D02*Y294713D01*
X312535D01*
Y297665D01*
X308599D01*
G37*
G36*
Y282783D02*Y279831D01*
X312535D01*
Y282783D01*
X308599D01*
G37*
G36*
Y277665D02*Y274713D01*
X312535D01*
Y277665D01*
X308599D01*
G37*
G36*
Y262783D02*Y259831D01*
X312535D01*
Y262783D01*
X308599D01*
G37*
G36*
Y257665D02*Y254713D01*
X312535D01*
Y257665D01*
X308599D01*
G37*
G36*
Y242783D02*Y239831D01*
X312535D01*
Y242783D01*
X308599D01*
G37*
G36*
Y237665D02*Y234713D01*
X312535D01*
Y237665D01*
X308599D01*
G37*
G36*
Y222783D02*Y219831D01*
X312535D01*
Y222783D01*
X308599D01*
G37*
G36*
Y217665D02*Y214713D01*
X312535D01*
Y217665D01*
X308599D01*
G37*
G36*
Y202783D02*Y199831D01*
X312535D01*
Y202783D01*
X308599D01*
G37*
G36*
Y197665D02*Y194713D01*
X312535D01*
Y197665D01*
X308599D01*
G37*
G36*
Y182783D02*Y179831D01*
X312535D01*
Y182783D01*
X308599D01*
G37*
G36*
Y177665D02*Y174713D01*
X312535D01*
Y177665D01*
X308599D01*
G37*
G36*
Y162783D02*Y159831D01*
X312535D01*
Y162783D01*
X308599D01*
G37*
G36*
Y157665D02*Y154713D01*
X312535D01*
Y157665D01*
X308599D01*
G37*
G36*
Y142783D02*Y139831D01*
X312535D01*
Y142783D01*
X308599D01*
G37*
G36*
Y137665D02*Y134713D01*
X312535D01*
Y137665D01*
X308599D01*
G37*
G36*
Y122783D02*Y119831D01*
X312535D01*
Y122783D01*
X308599D01*
G37*
G36*
Y117665D02*Y114713D01*
X312535D01*
Y117665D01*
X308599D01*
G37*
G36*
Y102783D02*Y99831D01*
X312535D01*
Y102783D01*
X308599D01*
G37*
G36*
Y97665D02*Y94713D01*
X312535D01*
Y97665D01*
X308599D01*
G37*
G36*
Y82783D02*Y79831D01*
X312535D01*
Y82783D01*
X308599D01*
G37*
G36*
Y77665D02*Y74713D01*
X312535D01*
Y77665D01*
X308599D01*
G37*
G36*
Y62783D02*Y59831D01*
X312535D01*
Y62783D01*
X308599D01*
G37*
G36*
Y57665D02*Y54713D01*
X312535D01*
Y57665D01*
X308599D01*
G37*
G36*
Y42783D02*Y39831D01*
X312535D01*
Y42783D01*
X308599D01*
G37*
G36*
Y37665D02*Y34713D01*
X312535D01*
Y37665D01*
X308599D01*
G37*
G36*
X303125Y509125D02*X301157D01*
Y506371D01*
X303125D01*
Y509125D01*
G37*
G36*
X299977D02*X298009D01*
Y506371D01*
X299977D01*
Y509125D01*
G37*
G36*
X303125Y489125D02*X301157D01*
Y486371D01*
X303125D01*
Y489125D01*
G37*
G36*
X299977D02*X298009D01*
Y486371D01*
X299977D01*
Y489125D01*
G37*
G36*
X303125Y469125D02*X301157D01*
Y466371D01*
X303125D01*
Y469125D01*
G37*
G36*
X299977D02*X298009D01*
Y466371D01*
X299977D01*
Y469125D01*
G37*
G36*
X303125Y449125D02*X301157D01*
Y446371D01*
X303125D01*
Y449125D01*
G37*
G36*
X299977D02*X298009D01*
Y446371D01*
X299977D01*
Y449125D01*
G37*
G36*
X303125Y429125D02*X301157D01*
Y426371D01*
X303125D01*
Y429125D01*
G37*
G36*
X299977D02*X298009D01*
Y426371D01*
X299977D01*
Y429125D01*
G37*
G36*
X303125Y409125D02*X301157D01*
Y406371D01*
X303125D01*
Y409125D01*
G37*
G36*
X299977D02*X298009D01*
Y406371D01*
X299977D01*
Y409125D01*
G37*
G36*
X303125Y389125D02*X301157D01*
Y386371D01*
X303125D01*
Y389125D01*
G37*
G36*
X299977D02*X298009D01*
Y386371D01*
X299977D01*
Y389125D01*
G37*
G36*
X303125Y369125D02*X301157D01*
Y366371D01*
X303125D01*
Y369125D01*
G37*
G36*
X299977D02*X298009D01*
Y366371D01*
X299977D01*
Y369125D01*
G37*
G36*
X303125Y349125D02*X301157D01*
Y346371D01*
X303125D01*
Y349125D01*
G37*
G36*
X299977D02*X298009D01*
Y346371D01*
X299977D01*
Y349125D01*
G37*
G36*
X303125Y329125D02*X301157D01*
Y326371D01*
X303125D01*
Y329125D01*
G37*
G36*
X299977D02*X298009D01*
Y326371D01*
X299977D01*
Y329125D01*
G37*
G36*
X303125Y309125D02*X301157D01*
Y306371D01*
X303125D01*
Y309125D01*
G37*
G36*
X299977D02*X298009D01*
Y306371D01*
X299977D01*
Y309125D01*
G37*
G36*
X303125Y289125D02*X301157D01*
Y286371D01*
X303125D01*
Y289125D01*
G37*
G36*
X299977D02*X298009D01*
Y286371D01*
X299977D01*
Y289125D01*
G37*
G36*
X303125Y269125D02*X301157D01*
Y266371D01*
X303125D01*
Y269125D01*
G37*
G36*
X299977D02*X298009D01*
Y266371D01*
X299977D01*
Y269125D01*
G37*
G36*
X303125Y249125D02*X301157D01*
Y246371D01*
X303125D01*
Y249125D01*
G37*
G36*
X299977D02*X298009D01*
Y246371D01*
X299977D01*
Y249125D01*
G37*
G36*
X303125Y229125D02*X301157D01*
Y226371D01*
X303125D01*
Y229125D01*
G37*
G36*
X299977D02*X298009D01*
Y226371D01*
X299977D01*
Y229125D01*
G37*
G36*
X303125Y209125D02*X301157D01*
Y206371D01*
X303125D01*
Y209125D01*
G37*
G36*
X299977D02*X298009D01*
Y206371D01*
X299977D01*
Y209125D01*
G37*
G36*
X303125Y189125D02*X301157D01*
Y186371D01*
X303125D01*
Y189125D01*
G37*
G36*
X299977D02*X298009D01*
Y186371D01*
X299977D01*
Y189125D01*
G37*
G36*
X303125Y169125D02*X301157D01*
Y166371D01*
X303125D01*
Y169125D01*
G37*
G36*
X299977D02*X298009D01*
Y166371D01*
X299977D01*
Y169125D01*
G37*
G36*
X303125Y149125D02*X301157D01*
Y146371D01*
X303125D01*
Y149125D01*
G37*
G36*
X299977D02*X298009D01*
Y146371D01*
X299977D01*
Y149125D01*
G37*
G36*
X303125Y129125D02*X301157D01*
Y126371D01*
X303125D01*
Y129125D01*
G37*
G36*
X299977D02*X298009D01*
Y126371D01*
X299977D01*
Y129125D01*
G37*
G36*
X303125Y109125D02*X301157D01*
Y106371D01*
X303125D01*
Y109125D01*
G37*
G36*
X299977D02*X298009D01*
Y106371D01*
X299977D01*
Y109125D01*
G37*
G36*
X303125Y89125D02*X301157D01*
Y86371D01*
X303125D01*
Y89125D01*
G37*
G36*
X299977D02*X298009D01*
Y86371D01*
X299977D01*
Y89125D01*
G37*
G36*
X303125Y69125D02*X301157D01*
Y66371D01*
X303125D01*
Y69125D01*
G37*
G36*
X299977D02*X298009D01*
Y66371D01*
X299977D01*
Y69125D01*
G37*
G36*
X303125Y49125D02*X301157D01*
Y46371D01*
X303125D01*
Y49125D01*
G37*
G36*
X299977D02*X298009D01*
Y46371D01*
X299977D01*
Y49125D01*
G37*
G54D58*X419567Y515248D03*
G54D57*G36*
X11067Y377248D02*Y375248D01*
X19567D01*
Y377248D01*
X11067D01*
G37*
G36*
Y372248D02*Y370248D01*
X19567D01*
Y372248D01*
X11067D01*
G37*
G36*
Y367248D02*Y365248D01*
X19567D01*
Y367248D01*
X11067D01*
G37*
G36*
Y362248D02*Y360248D01*
X19567D01*
Y362248D01*
X11067D01*
G37*
G36*
Y357248D02*Y355248D01*
X19567D01*
Y357248D01*
X11067D01*
G37*
G36*
Y352248D02*Y350248D01*
X19567D01*
Y352248D01*
X11067D01*
G37*
G36*
Y347248D02*Y345248D01*
X19567D01*
Y347248D01*
X11067D01*
G37*
G36*
Y342248D02*Y340248D01*
X19567D01*
Y342248D01*
X11067D01*
G37*
G36*
X31567D02*Y340248D01*
X40067D01*
Y342248D01*
X31567D01*
G37*
G36*
Y347248D02*Y345248D01*
X40067D01*
Y347248D01*
X31567D01*
G37*
G36*
Y352248D02*Y350248D01*
X40067D01*
Y352248D01*
X31567D01*
G37*
G36*
Y357248D02*Y355248D01*
X40067D01*
Y357248D01*
X31567D01*
G37*
G36*
Y362248D02*Y360248D01*
X40067D01*
Y362248D01*
X31567D01*
G37*
G36*
Y367248D02*Y365248D01*
X40067D01*
Y367248D01*
X31567D01*
G37*
G36*
Y372248D02*Y370248D01*
X40067D01*
Y372248D01*
X31567D01*
G37*
G36*
Y377248D02*Y375248D01*
X40067D01*
Y377248D01*
X31567D01*
G37*
G36*
X11067Y218248D02*Y216248D01*
X19567D01*
Y218248D01*
X11067D01*
G37*
G36*
Y213248D02*Y211248D01*
X19567D01*
Y213248D01*
X11067D01*
G37*
G36*
Y208248D02*Y206248D01*
X19567D01*
Y208248D01*
X11067D01*
G37*
G36*
Y203248D02*Y201248D01*
X19567D01*
Y203248D01*
X11067D01*
G37*
G36*
Y198248D02*Y196248D01*
X19567D01*
Y198248D01*
X11067D01*
G37*
G36*
Y193248D02*Y191248D01*
X19567D01*
Y193248D01*
X11067D01*
G37*
G36*
Y188248D02*Y186248D01*
X19567D01*
Y188248D01*
X11067D01*
G37*
G36*
Y183248D02*Y181248D01*
X19567D01*
Y183248D01*
X11067D01*
G37*
G36*
X31567D02*Y181248D01*
X40067D01*
Y183248D01*
X31567D01*
G37*
G36*
Y188248D02*Y186248D01*
X40067D01*
Y188248D01*
X31567D01*
G37*
G36*
Y193248D02*Y191248D01*
X40067D01*
Y193248D01*
X31567D01*
G37*
G36*
Y198248D02*Y196248D01*
X40067D01*
Y198248D01*
X31567D01*
G37*
G36*
Y203248D02*Y201248D01*
X40067D01*
Y203248D01*
X31567D01*
G37*
G36*
Y208248D02*Y206248D01*
X40067D01*
Y208248D01*
X31567D01*
G37*
G36*
Y213248D02*Y211248D01*
X40067D01*
Y213248D01*
X31567D01*
G37*
G36*
Y218248D02*Y216248D01*
X40067D01*
Y218248D01*
X31567D01*
G37*
G36*
X11067Y59248D02*Y57248D01*
X19567D01*
Y59248D01*
X11067D01*
G37*
G36*
Y54248D02*Y52248D01*
X19567D01*
Y54248D01*
X11067D01*
G37*
G36*
Y49248D02*Y47248D01*
X19567D01*
Y49248D01*
X11067D01*
G37*
G36*
Y44248D02*Y42248D01*
X19567D01*
Y44248D01*
X11067D01*
G37*
G36*
Y39248D02*Y37248D01*
X19567D01*
Y39248D01*
X11067D01*
G37*
G36*
Y34248D02*Y32248D01*
X19567D01*
Y34248D01*
X11067D01*
G37*
G36*
Y29248D02*Y27248D01*
X19567D01*
Y29248D01*
X11067D01*
G37*
G36*
Y24248D02*Y22248D01*
X19567D01*
Y24248D01*
X11067D01*
G37*
G36*
X31567D02*Y22248D01*
X40067D01*
Y24248D01*
X31567D01*
G37*
G36*
Y29248D02*Y27248D01*
X40067D01*
Y29248D01*
X31567D01*
G37*
G36*
Y34248D02*Y32248D01*
X40067D01*
Y34248D01*
X31567D01*
G37*
G36*
Y39248D02*Y37248D01*
X40067D01*
Y39248D01*
X31567D01*
G37*
G36*
Y44248D02*Y42248D01*
X40067D01*
Y44248D01*
X31567D01*
G37*
G36*
Y49248D02*Y47248D01*
X40067D01*
Y49248D01*
X31567D01*
G37*
G36*
Y54248D02*Y52248D01*
X40067D01*
Y54248D01*
X31567D01*
G37*
G36*
Y59248D02*Y57248D01*
X40067D01*
Y59248D01*
X31567D01*
G37*
G36*
X11067Y430248D02*Y428248D01*
X19567D01*
Y430248D01*
X11067D01*
G37*
G36*
Y425248D02*Y423248D01*
X19567D01*
Y425248D01*
X11067D01*
G37*
G36*
Y420248D02*Y418248D01*
X19567D01*
Y420248D01*
X11067D01*
G37*
G36*
Y415248D02*Y413248D01*
X19567D01*
Y415248D01*
X11067D01*
G37*
G36*
Y410248D02*Y408248D01*
X19567D01*
Y410248D01*
X11067D01*
G37*
G36*
Y405248D02*Y403248D01*
X19567D01*
Y405248D01*
X11067D01*
G37*
G36*
Y400248D02*Y398248D01*
X19567D01*
Y400248D01*
X11067D01*
G37*
G36*
Y395248D02*Y393248D01*
X19567D01*
Y395248D01*
X11067D01*
G37*
G36*
X31567D02*Y393248D01*
X40067D01*
Y395248D01*
X31567D01*
G37*
G36*
Y400248D02*Y398248D01*
X40067D01*
Y400248D01*
X31567D01*
G37*
G36*
Y405248D02*Y403248D01*
X40067D01*
Y405248D01*
X31567D01*
G37*
G36*
Y410248D02*Y408248D01*
X40067D01*
Y410248D01*
X31567D01*
G37*
G36*
Y415248D02*Y413248D01*
X40067D01*
Y415248D01*
X31567D01*
G37*
G36*
Y420248D02*Y418248D01*
X40067D01*
Y420248D01*
X31567D01*
G37*
G36*
Y425248D02*Y423248D01*
X40067D01*
Y425248D01*
X31567D01*
G37*
G36*
Y430248D02*Y428248D01*
X40067D01*
Y430248D01*
X31567D01*
G37*
G36*
X11067Y271248D02*Y269248D01*
X19567D01*
Y271248D01*
X11067D01*
G37*
G36*
Y266248D02*Y264248D01*
X19567D01*
Y266248D01*
X11067D01*
G37*
G36*
Y261248D02*Y259248D01*
X19567D01*
Y261248D01*
X11067D01*
G37*
G36*
Y256248D02*Y254248D01*
X19567D01*
Y256248D01*
X11067D01*
G37*
G36*
Y251248D02*Y249248D01*
X19567D01*
Y251248D01*
X11067D01*
G37*
G36*
Y246248D02*Y244248D01*
X19567D01*
Y246248D01*
X11067D01*
G37*
G36*
Y241248D02*Y239248D01*
X19567D01*
Y241248D01*
X11067D01*
G37*
G36*
Y236248D02*Y234248D01*
X19567D01*
Y236248D01*
X11067D01*
G37*
G36*
X31567D02*Y234248D01*
X40067D01*
Y236248D01*
X31567D01*
G37*
G36*
Y241248D02*Y239248D01*
X40067D01*
Y241248D01*
X31567D01*
G37*
G36*
Y246248D02*Y244248D01*
X40067D01*
Y246248D01*
X31567D01*
G37*
G36*
Y251248D02*Y249248D01*
X40067D01*
Y251248D01*
X31567D01*
G37*
G36*
Y256248D02*Y254248D01*
X40067D01*
Y256248D01*
X31567D01*
G37*
G36*
Y261248D02*Y259248D01*
X40067D01*
Y261248D01*
X31567D01*
G37*
G36*
Y266248D02*Y264248D01*
X40067D01*
Y266248D01*
X31567D01*
G37*
G36*
Y271248D02*Y269248D01*
X40067D01*
Y271248D01*
X31567D01*
G37*
G36*
X11067Y112248D02*Y110248D01*
X19567D01*
Y112248D01*
X11067D01*
G37*
G36*
Y107248D02*Y105248D01*
X19567D01*
Y107248D01*
X11067D01*
G37*
G36*
Y102248D02*Y100248D01*
X19567D01*
Y102248D01*
X11067D01*
G37*
G36*
Y97248D02*Y95248D01*
X19567D01*
Y97248D01*
X11067D01*
G37*
G36*
Y92248D02*Y90248D01*
X19567D01*
Y92248D01*
X11067D01*
G37*
G36*
Y87248D02*Y85248D01*
X19567D01*
Y87248D01*
X11067D01*
G37*
G36*
Y82248D02*Y80248D01*
X19567D01*
Y82248D01*
X11067D01*
G37*
G36*
Y77248D02*Y75248D01*
X19567D01*
Y77248D01*
X11067D01*
G37*
G36*
X31567D02*Y75248D01*
X40067D01*
Y77248D01*
X31567D01*
G37*
G36*
Y82248D02*Y80248D01*
X40067D01*
Y82248D01*
X31567D01*
G37*
G36*
Y87248D02*Y85248D01*
X40067D01*
Y87248D01*
X31567D01*
G37*
G36*
Y92248D02*Y90248D01*
X40067D01*
Y92248D01*
X31567D01*
G37*
G36*
Y97248D02*Y95248D01*
X40067D01*
Y97248D01*
X31567D01*
G37*
G36*
Y102248D02*Y100248D01*
X40067D01*
Y102248D01*
X31567D01*
G37*
G36*
Y107248D02*Y105248D01*
X40067D01*
Y107248D01*
X31567D01*
G37*
G36*
Y112248D02*Y110248D01*
X40067D01*
Y112248D01*
X31567D01*
G37*
G36*
X11067Y483248D02*Y481248D01*
X19567D01*
Y483248D01*
X11067D01*
G37*
G36*
Y478248D02*Y476248D01*
X19567D01*
Y478248D01*
X11067D01*
G37*
G36*
Y473248D02*Y471248D01*
X19567D01*
Y473248D01*
X11067D01*
G37*
G36*
Y468248D02*Y466248D01*
X19567D01*
Y468248D01*
X11067D01*
G37*
G36*
Y463248D02*Y461248D01*
X19567D01*
Y463248D01*
X11067D01*
G37*
G36*
Y458248D02*Y456248D01*
X19567D01*
Y458248D01*
X11067D01*
G37*
G36*
Y453248D02*Y451248D01*
X19567D01*
Y453248D01*
X11067D01*
G37*
G36*
Y448248D02*Y446248D01*
X19567D01*
Y448248D01*
X11067D01*
G37*
G36*
X31567D02*Y446248D01*
X40067D01*
Y448248D01*
X31567D01*
G37*
G36*
Y453248D02*Y451248D01*
X40067D01*
Y453248D01*
X31567D01*
G37*
G36*
Y458248D02*Y456248D01*
X40067D01*
Y458248D01*
X31567D01*
G37*
G36*
Y463248D02*Y461248D01*
X40067D01*
Y463248D01*
X31567D01*
G37*
G36*
Y468248D02*Y466248D01*
X40067D01*
Y468248D01*
X31567D01*
G37*
G36*
Y473248D02*Y471248D01*
X40067D01*
Y473248D01*
X31567D01*
G37*
G36*
Y478248D02*Y476248D01*
X40067D01*
Y478248D01*
X31567D01*
G37*
G36*
Y483248D02*Y481248D01*
X40067D01*
Y483248D01*
X31567D01*
G37*
G36*
X11067Y324248D02*Y322248D01*
X19567D01*
Y324248D01*
X11067D01*
G37*
G36*
Y319248D02*Y317248D01*
X19567D01*
Y319248D01*
X11067D01*
G37*
G36*
Y314248D02*Y312248D01*
X19567D01*
Y314248D01*
X11067D01*
G37*
G36*
Y309248D02*Y307248D01*
X19567D01*
Y309248D01*
X11067D01*
G37*
G36*
Y304248D02*Y302248D01*
X19567D01*
Y304248D01*
X11067D01*
G37*
G36*
Y299248D02*Y297248D01*
X19567D01*
Y299248D01*
X11067D01*
G37*
G36*
Y294248D02*Y292248D01*
X19567D01*
Y294248D01*
X11067D01*
G37*
G36*
Y289248D02*Y287248D01*
X19567D01*
Y289248D01*
X11067D01*
G37*
G36*
X31567D02*Y287248D01*
X40067D01*
Y289248D01*
X31567D01*
G37*
G36*
Y294248D02*Y292248D01*
X40067D01*
Y294248D01*
X31567D01*
G37*
G36*
Y299248D02*Y297248D01*
X40067D01*
Y299248D01*
X31567D01*
G37*
G36*
Y304248D02*Y302248D01*
X40067D01*
Y304248D01*
X31567D01*
G37*
G36*
Y309248D02*Y307248D01*
X40067D01*
Y309248D01*
X31567D01*
G37*
G36*
Y314248D02*Y312248D01*
X40067D01*
Y314248D01*
X31567D01*
G37*
G36*
Y319248D02*Y317248D01*
X40067D01*
Y319248D01*
X31567D01*
G37*
G36*
Y324248D02*Y322248D01*
X40067D01*
Y324248D01*
X31567D01*
G37*
G36*
X11067Y165248D02*Y163248D01*
X19567D01*
Y165248D01*
X11067D01*
G37*
G36*
Y160248D02*Y158248D01*
X19567D01*
Y160248D01*
X11067D01*
G37*
G36*
Y155248D02*Y153248D01*
X19567D01*
Y155248D01*
X11067D01*
G37*
G36*
Y150248D02*Y148248D01*
X19567D01*
Y150248D01*
X11067D01*
G37*
G36*
Y145248D02*Y143248D01*
X19567D01*
Y145248D01*
X11067D01*
G37*
G36*
Y140248D02*Y138248D01*
X19567D01*
Y140248D01*
X11067D01*
G37*
G36*
Y135248D02*Y133248D01*
X19567D01*
Y135248D01*
X11067D01*
G37*
G36*
Y130248D02*Y128248D01*
X19567D01*
Y130248D01*
X11067D01*
G37*
G36*
X31567D02*Y128248D01*
X40067D01*
Y130248D01*
X31567D01*
G37*
G36*
Y135248D02*Y133248D01*
X40067D01*
Y135248D01*
X31567D01*
G37*
G36*
Y140248D02*Y138248D01*
X40067D01*
Y140248D01*
X31567D01*
G37*
G36*
Y145248D02*Y143248D01*
X40067D01*
Y145248D01*
X31567D01*
G37*
G36*
Y150248D02*Y148248D01*
X40067D01*
Y150248D01*
X31567D01*
G37*
G36*
Y155248D02*Y153248D01*
X40067D01*
Y155248D01*
X31567D01*
G37*
G36*
Y160248D02*Y158248D01*
X40067D01*
Y160248D01*
X31567D01*
G37*
G36*
Y165248D02*Y163248D01*
X40067D01*
Y165248D01*
X31567D01*
G37*
G36*
X17484Y389716D02*X14532D01*
Y385780D01*
X17484D01*
Y389716D01*
G37*
G36*
X22602D02*X19650D01*
Y385780D01*
X22602D01*
Y389716D01*
G37*
G36*
X17484Y230716D02*X14532D01*
Y226780D01*
X17484D01*
Y230716D01*
G37*
G36*
X22602D02*X19650D01*
Y226780D01*
X22602D01*
Y230716D01*
G37*
G36*
X17484Y71716D02*X14532D01*
Y67780D01*
X17484D01*
Y71716D01*
G37*
G36*
X22602D02*X19650D01*
Y67780D01*
X22602D01*
Y71716D01*
G37*
G36*
X30484Y389716D02*X27532D01*
Y385780D01*
X30484D01*
Y389716D01*
G37*
G36*
X35602D02*X32650D01*
Y385780D01*
X35602D01*
Y389716D01*
G37*
G36*
X30484Y230716D02*X27532D01*
Y226780D01*
X30484D01*
Y230716D01*
G37*
G36*
X35602D02*X32650D01*
Y226780D01*
X35602D01*
Y230716D01*
G37*
G36*
X30484Y71716D02*X27532D01*
Y67780D01*
X30484D01*
Y71716D01*
G37*
G36*
X35602D02*X32650D01*
Y67780D01*
X35602D01*
Y71716D01*
G37*
G36*
X17484Y442716D02*X14532D01*
Y438780D01*
X17484D01*
Y442716D01*
G37*
G36*
X22602D02*X19650D01*
Y438780D01*
X22602D01*
Y442716D01*
G37*
G36*
X17484Y283716D02*X14532D01*
Y279780D01*
X17484D01*
Y283716D01*
G37*
G36*
X22602D02*X19650D01*
Y279780D01*
X22602D01*
Y283716D01*
G37*
G36*
X17484Y124716D02*X14532D01*
Y120780D01*
X17484D01*
Y124716D01*
G37*
G36*
X22602D02*X19650D01*
Y120780D01*
X22602D01*
Y124716D01*
G37*
G36*
X30484Y442716D02*X27532D01*
Y438780D01*
X30484D01*
Y442716D01*
G37*
G36*
X35602D02*X32650D01*
Y438780D01*
X35602D01*
Y442716D01*
G37*
G36*
X30484Y283716D02*X27532D01*
Y279780D01*
X30484D01*
Y283716D01*
G37*
G36*
X35602D02*X32650D01*
Y279780D01*
X35602D01*
Y283716D01*
G37*
G36*
X30484Y124716D02*X27532D01*
Y120780D01*
X30484D01*
Y124716D01*
G37*
G36*
X35602D02*X32650D01*
Y120780D01*
X35602D01*
Y124716D01*
G37*
G36*
X17484Y336716D02*X14532D01*
Y332780D01*
X17484D01*
Y336716D01*
G37*
G36*
X22602D02*X19650D01*
Y332780D01*
X22602D01*
Y336716D01*
G37*
G36*
X17484Y177716D02*X14532D01*
Y173780D01*
X17484D01*
Y177716D01*
G37*
G36*
X22602D02*X19650D01*
Y173780D01*
X22602D01*
Y177716D01*
G37*
G36*
X17484Y18716D02*X14532D01*
Y14780D01*
X17484D01*
Y18716D01*
G37*
G36*
X22602D02*X19650D01*
Y14780D01*
X22602D01*
Y18716D01*
G37*
G36*
X30543Y336716D02*X27591D01*
Y332780D01*
X30543D01*
Y336716D01*
G37*
G36*
X35661D02*X32709D01*
Y332780D01*
X35661D01*
Y336716D01*
G37*
G36*
X30543Y177716D02*X27591D01*
Y173780D01*
X30543D01*
Y177716D01*
G37*
G36*
X35661D02*X32709D01*
Y173780D01*
X35661D01*
Y177716D01*
G37*
G36*
X30543Y18716D02*X27591D01*
Y14780D01*
X30543D01*
Y18716D01*
G37*
G36*
X35661D02*X32709D01*
Y14780D01*
X35661D01*
Y18716D01*
G37*
G36*
X230669Y83700D02*X225551D01*
Y77796D01*
X230669D01*
Y83700D01*
G37*
G36*
X223583D02*X218465D01*
Y77796D01*
X223583D01*
Y83700D01*
G37*
G36*
X210669D02*X205551D01*
Y77796D01*
X210669D01*
Y83700D01*
G37*
G36*
X203583D02*X198465D01*
Y77796D01*
X203583D01*
Y83700D01*
G37*
G36*
X409567Y156248D02*Y154248D01*
X418067D01*
Y156248D01*
X409567D01*
G37*
G36*
Y161248D02*Y159248D01*
X418067D01*
Y161248D01*
X409567D01*
G37*
G36*
Y166248D02*Y164248D01*
X418067D01*
Y166248D01*
X409567D01*
G37*
G36*
Y171248D02*Y169248D01*
X418067D01*
Y171248D01*
X409567D01*
G37*
G36*
Y176248D02*Y174248D01*
X418067D01*
Y176248D01*
X409567D01*
G37*
G36*
Y181248D02*Y179248D01*
X418067D01*
Y181248D01*
X409567D01*
G37*
G36*
Y186248D02*Y184248D01*
X418067D01*
Y186248D01*
X409567D01*
G37*
G36*
Y191248D02*Y189248D01*
X418067D01*
Y191248D01*
X409567D01*
G37*
G36*
X389067D02*Y189248D01*
X397567D01*
Y191248D01*
X389067D01*
G37*
G36*
Y186248D02*Y184248D01*
X397567D01*
Y186248D01*
X389067D01*
G37*
G36*
Y181248D02*Y179248D01*
X397567D01*
Y181248D01*
X389067D01*
G37*
G36*
Y176248D02*Y174248D01*
X397567D01*
Y176248D01*
X389067D01*
G37*
G36*
Y171248D02*Y169248D01*
X397567D01*
Y171248D01*
X389067D01*
G37*
G36*
Y166248D02*Y164248D01*
X397567D01*
Y166248D01*
X389067D01*
G37*
G36*
Y161248D02*Y159248D01*
X397567D01*
Y161248D01*
X389067D01*
G37*
G36*
Y156248D02*Y154248D01*
X397567D01*
Y156248D01*
X389067D01*
G37*
G36*
X409567Y315248D02*Y313248D01*
X418067D01*
Y315248D01*
X409567D01*
G37*
G36*
Y320248D02*Y318248D01*
X418067D01*
Y320248D01*
X409567D01*
G37*
G36*
Y325248D02*Y323248D01*
X418067D01*
Y325248D01*
X409567D01*
G37*
G36*
Y330248D02*Y328248D01*
X418067D01*
Y330248D01*
X409567D01*
G37*
G36*
Y335248D02*Y333248D01*
X418067D01*
Y335248D01*
X409567D01*
G37*
G36*
Y340248D02*Y338248D01*
X418067D01*
Y340248D01*
X409567D01*
G37*
G36*
Y345248D02*Y343248D01*
X418067D01*
Y345248D01*
X409567D01*
G37*
G36*
Y350248D02*Y348248D01*
X418067D01*
Y350248D01*
X409567D01*
G37*
G36*
X389067D02*Y348248D01*
X397567D01*
Y350248D01*
X389067D01*
G37*
G36*
Y345248D02*Y343248D01*
X397567D01*
Y345248D01*
X389067D01*
G37*
G36*
Y340248D02*Y338248D01*
X397567D01*
Y340248D01*
X389067D01*
G37*
G36*
Y335248D02*Y333248D01*
X397567D01*
Y335248D01*
X389067D01*
G37*
G36*
Y330248D02*Y328248D01*
X397567D01*
Y330248D01*
X389067D01*
G37*
G36*
Y325248D02*Y323248D01*
X397567D01*
Y325248D01*
X389067D01*
G37*
G36*
Y320248D02*Y318248D01*
X397567D01*
Y320248D01*
X389067D01*
G37*
G36*
Y315248D02*Y313248D01*
X397567D01*
Y315248D01*
X389067D01*
G37*
G36*
X409567Y474248D02*Y472248D01*
X418067D01*
Y474248D01*
X409567D01*
G37*
G36*
Y479248D02*Y477248D01*
X418067D01*
Y479248D01*
X409567D01*
G37*
G36*
Y484248D02*Y482248D01*
X418067D01*
Y484248D01*
X409567D01*
G37*
G36*
Y489248D02*Y487248D01*
X418067D01*
Y489248D01*
X409567D01*
G37*
G36*
Y494248D02*Y492248D01*
X418067D01*
Y494248D01*
X409567D01*
G37*
G36*
Y499248D02*Y497248D01*
X418067D01*
Y499248D01*
X409567D01*
G37*
G36*
Y504248D02*Y502248D01*
X418067D01*
Y504248D01*
X409567D01*
G37*
G36*
Y509248D02*Y507248D01*
X418067D01*
Y509248D01*
X409567D01*
G37*
G36*
X389067D02*Y507248D01*
X397567D01*
Y509248D01*
X389067D01*
G37*
G36*
Y504248D02*Y502248D01*
X397567D01*
Y504248D01*
X389067D01*
G37*
G36*
Y499248D02*Y497248D01*
X397567D01*
Y499248D01*
X389067D01*
G37*
G36*
Y494248D02*Y492248D01*
X397567D01*
Y494248D01*
X389067D01*
G37*
G36*
Y489248D02*Y487248D01*
X397567D01*
Y489248D01*
X389067D01*
G37*
G36*
Y484248D02*Y482248D01*
X397567D01*
Y484248D01*
X389067D01*
G37*
G36*
Y479248D02*Y477248D01*
X397567D01*
Y479248D01*
X389067D01*
G37*
G36*
Y474248D02*Y472248D01*
X397567D01*
Y474248D01*
X389067D01*
G37*
G36*
X409567Y103248D02*Y101248D01*
X418067D01*
Y103248D01*
X409567D01*
G37*
G36*
Y108248D02*Y106248D01*
X418067D01*
Y108248D01*
X409567D01*
G37*
G36*
Y113248D02*Y111248D01*
X418067D01*
Y113248D01*
X409567D01*
G37*
G36*
Y118248D02*Y116248D01*
X418067D01*
Y118248D01*
X409567D01*
G37*
G36*
Y123248D02*Y121248D01*
X418067D01*
Y123248D01*
X409567D01*
G37*
G36*
Y128248D02*Y126248D01*
X418067D01*
Y128248D01*
X409567D01*
G37*
G36*
Y133248D02*Y131248D01*
X418067D01*
Y133248D01*
X409567D01*
G37*
G36*
Y138248D02*Y136248D01*
X418067D01*
Y138248D01*
X409567D01*
G37*
G36*
X389067D02*Y136248D01*
X397567D01*
Y138248D01*
X389067D01*
G37*
G36*
Y133248D02*Y131248D01*
X397567D01*
Y133248D01*
X389067D01*
G37*
G36*
Y128248D02*Y126248D01*
X397567D01*
Y128248D01*
X389067D01*
G37*
G36*
Y123248D02*Y121248D01*
X397567D01*
Y123248D01*
X389067D01*
G37*
G36*
Y118248D02*Y116248D01*
X397567D01*
Y118248D01*
X389067D01*
G37*
G36*
Y113248D02*Y111248D01*
X397567D01*
Y113248D01*
X389067D01*
G37*
G36*
Y108248D02*Y106248D01*
X397567D01*
Y108248D01*
X389067D01*
G37*
G36*
Y103248D02*Y101248D01*
X397567D01*
Y103248D01*
X389067D01*
G37*
G36*
X409567Y262248D02*Y260248D01*
X418067D01*
Y262248D01*
X409567D01*
G37*
G36*
Y267248D02*Y265248D01*
X418067D01*
Y267248D01*
X409567D01*
G37*
G36*
Y272248D02*Y270248D01*
X418067D01*
Y272248D01*
X409567D01*
G37*
G36*
Y277248D02*Y275248D01*
X418067D01*
Y277248D01*
X409567D01*
G37*
G36*
Y282248D02*Y280248D01*
X418067D01*
Y282248D01*
X409567D01*
G37*
G36*
Y287248D02*Y285248D01*
X418067D01*
Y287248D01*
X409567D01*
G37*
G36*
Y292248D02*Y290248D01*
X418067D01*
Y292248D01*
X409567D01*
G37*
G36*
Y297248D02*Y295248D01*
X418067D01*
Y297248D01*
X409567D01*
G37*
G36*
X389067D02*Y295248D01*
X397567D01*
Y297248D01*
X389067D01*
G37*
G36*
Y292248D02*Y290248D01*
X397567D01*
Y292248D01*
X389067D01*
G37*
G36*
Y287248D02*Y285248D01*
X397567D01*
Y287248D01*
X389067D01*
G37*
G36*
Y282248D02*Y280248D01*
X397567D01*
Y282248D01*
X389067D01*
G37*
G36*
Y277248D02*Y275248D01*
X397567D01*
Y277248D01*
X389067D01*
G37*
G36*
Y272248D02*Y270248D01*
X397567D01*
Y272248D01*
X389067D01*
G37*
G36*
Y267248D02*Y265248D01*
X397567D01*
Y267248D01*
X389067D01*
G37*
G36*
Y262248D02*Y260248D01*
X397567D01*
Y262248D01*
X389067D01*
G37*
G36*
X409567Y421248D02*Y419248D01*
X418067D01*
Y421248D01*
X409567D01*
G37*
G36*
Y426248D02*Y424248D01*
X418067D01*
Y426248D01*
X409567D01*
G37*
G36*
Y431248D02*Y429248D01*
X418067D01*
Y431248D01*
X409567D01*
G37*
G36*
Y436248D02*Y434248D01*
X418067D01*
Y436248D01*
X409567D01*
G37*
G36*
Y441248D02*Y439248D01*
X418067D01*
Y441248D01*
X409567D01*
G37*
G36*
Y446248D02*Y444248D01*
X418067D01*
Y446248D01*
X409567D01*
G37*
G36*
Y451248D02*Y449248D01*
X418067D01*
Y451248D01*
X409567D01*
G37*
G36*
Y456248D02*Y454248D01*
X418067D01*
Y456248D01*
X409567D01*
G37*
G36*
X389067D02*Y454248D01*
X397567D01*
Y456248D01*
X389067D01*
G37*
G36*
Y451248D02*Y449248D01*
X397567D01*
Y451248D01*
X389067D01*
G37*
G36*
Y446248D02*Y444248D01*
X397567D01*
Y446248D01*
X389067D01*
G37*
G36*
Y441248D02*Y439248D01*
X397567D01*
Y441248D01*
X389067D01*
G37*
G36*
Y436248D02*Y434248D01*
X397567D01*
Y436248D01*
X389067D01*
G37*
G36*
Y431248D02*Y429248D01*
X397567D01*
Y431248D01*
X389067D01*
G37*
G36*
Y426248D02*Y424248D01*
X397567D01*
Y426248D01*
X389067D01*
G37*
G36*
Y421248D02*Y419248D01*
X397567D01*
Y421248D01*
X389067D01*
G37*
G36*
X409567Y50248D02*Y48248D01*
X418067D01*
Y50248D01*
X409567D01*
G37*
G36*
Y55248D02*Y53248D01*
X418067D01*
Y55248D01*
X409567D01*
G37*
G36*
Y60248D02*Y58248D01*
X418067D01*
Y60248D01*
X409567D01*
G37*
G36*
Y65248D02*Y63248D01*
X418067D01*
Y65248D01*
X409567D01*
G37*
G36*
Y70248D02*Y68248D01*
X418067D01*
Y70248D01*
X409567D01*
G37*
G36*
Y75248D02*Y73248D01*
X418067D01*
Y75248D01*
X409567D01*
G37*
G36*
Y80248D02*Y78248D01*
X418067D01*
Y80248D01*
X409567D01*
G37*
G36*
Y85248D02*Y83248D01*
X418067D01*
Y85248D01*
X409567D01*
G37*
G36*
X389067D02*Y83248D01*
X397567D01*
Y85248D01*
X389067D01*
G37*
G36*
Y80248D02*Y78248D01*
X397567D01*
Y80248D01*
X389067D01*
G37*
G36*
Y75248D02*Y73248D01*
X397567D01*
Y75248D01*
X389067D01*
G37*
G36*
Y70248D02*Y68248D01*
X397567D01*
Y70248D01*
X389067D01*
G37*
G36*
Y65248D02*Y63248D01*
X397567D01*
Y65248D01*
X389067D01*
G37*
G36*
Y60248D02*Y58248D01*
X397567D01*
Y60248D01*
X389067D01*
G37*
G36*
Y55248D02*Y53248D01*
X397567D01*
Y55248D01*
X389067D01*
G37*
G36*
Y50248D02*Y48248D01*
X397567D01*
Y50248D01*
X389067D01*
G37*
G36*
X409567Y209248D02*Y207248D01*
X418067D01*
Y209248D01*
X409567D01*
G37*
G36*
Y214248D02*Y212248D01*
X418067D01*
Y214248D01*
X409567D01*
G37*
G36*
Y219248D02*Y217248D01*
X418067D01*
Y219248D01*
X409567D01*
G37*
G36*
Y224248D02*Y222248D01*
X418067D01*
Y224248D01*
X409567D01*
G37*
G36*
Y229248D02*Y227248D01*
X418067D01*
Y229248D01*
X409567D01*
G37*
G36*
Y234248D02*Y232248D01*
X418067D01*
Y234248D01*
X409567D01*
G37*
G36*
Y239248D02*Y237248D01*
X418067D01*
Y239248D01*
X409567D01*
G37*
G36*
Y244248D02*Y242248D01*
X418067D01*
Y244248D01*
X409567D01*
G37*
G36*
X389067D02*Y242248D01*
X397567D01*
Y244248D01*
X389067D01*
G37*
G36*
Y239248D02*Y237248D01*
X397567D01*
Y239248D01*
X389067D01*
G37*
G36*
Y234248D02*Y232248D01*
X397567D01*
Y234248D01*
X389067D01*
G37*
G36*
Y229248D02*Y227248D01*
X397567D01*
Y229248D01*
X389067D01*
G37*
G36*
Y224248D02*Y222248D01*
X397567D01*
Y224248D01*
X389067D01*
G37*
G36*
Y219248D02*Y217248D01*
X397567D01*
Y219248D01*
X389067D01*
G37*
G36*
Y214248D02*Y212248D01*
X397567D01*
Y214248D01*
X389067D01*
G37*
G36*
Y209248D02*Y207248D01*
X397567D01*
Y209248D01*
X389067D01*
G37*
G36*
X409567Y368248D02*Y366248D01*
X418067D01*
Y368248D01*
X409567D01*
G37*
G36*
Y373248D02*Y371248D01*
X418067D01*
Y373248D01*
X409567D01*
G37*
G36*
Y378248D02*Y376248D01*
X418067D01*
Y378248D01*
X409567D01*
G37*
G36*
Y383248D02*Y381248D01*
X418067D01*
Y383248D01*
X409567D01*
G37*
G36*
Y388248D02*Y386248D01*
X418067D01*
Y388248D01*
X409567D01*
G37*
G36*
Y393248D02*Y391248D01*
X418067D01*
Y393248D01*
X409567D01*
G37*
G36*
Y398248D02*Y396248D01*
X418067D01*
Y398248D01*
X409567D01*
G37*
G36*
Y403248D02*Y401248D01*
X418067D01*
Y403248D01*
X409567D01*
G37*
G36*
X389067D02*Y401248D01*
X397567D01*
Y403248D01*
X389067D01*
G37*
G36*
Y398248D02*Y396248D01*
X397567D01*
Y398248D01*
X389067D01*
G37*
G36*
Y393248D02*Y391248D01*
X397567D01*
Y393248D01*
X389067D01*
G37*
G36*
Y388248D02*Y386248D01*
X397567D01*
Y388248D01*
X389067D01*
G37*
G36*
Y383248D02*Y381248D01*
X397567D01*
Y383248D01*
X389067D01*
G37*
G36*
Y378248D02*Y376248D01*
X397567D01*
Y378248D01*
X389067D01*
G37*
G36*
Y373248D02*Y371248D01*
X397567D01*
Y373248D01*
X389067D01*
G37*
G36*
Y368248D02*Y366248D01*
X397567D01*
Y368248D01*
X389067D01*
G37*
G36*
X414602Y145716D02*X411650D01*
Y141780D01*
X414602D01*
Y145716D01*
G37*
G36*
X409484D02*X406532D01*
Y141780D01*
X409484D01*
Y145716D01*
G37*
G36*
X414602Y304716D02*X411650D01*
Y300780D01*
X414602D01*
Y304716D01*
G37*
G36*
X409484D02*X406532D01*
Y300780D01*
X409484D01*
Y304716D01*
G37*
G36*
X414602Y463716D02*X411650D01*
Y459780D01*
X414602D01*
Y463716D01*
G37*
G36*
X409484D02*X406532D01*
Y459780D01*
X409484D01*
Y463716D01*
G37*
G36*
X401602Y145716D02*X398650D01*
Y141780D01*
X401602D01*
Y145716D01*
G37*
G36*
X396484D02*X393532D01*
Y141780D01*
X396484D01*
Y145716D01*
G37*
G36*
X401602Y304716D02*X398650D01*
Y300780D01*
X401602D01*
Y304716D01*
G37*
G36*
X396484D02*X393532D01*
Y300780D01*
X396484D01*
Y304716D01*
G37*
G36*
X401602Y463716D02*X398650D01*
Y459780D01*
X401602D01*
Y463716D01*
G37*
G36*
X396484D02*X393532D01*
Y459780D01*
X396484D01*
Y463716D01*
G37*
G36*
X414602Y92716D02*X411650D01*
Y88780D01*
X414602D01*
Y92716D01*
G37*
G36*
X409484D02*X406532D01*
Y88780D01*
X409484D01*
Y92716D01*
G37*
G36*
X414602Y251716D02*X411650D01*
Y247780D01*
X414602D01*
Y251716D01*
G37*
G36*
X409484D02*X406532D01*
Y247780D01*
X409484D01*
Y251716D01*
G37*
G36*
X414602Y410716D02*X411650D01*
Y406780D01*
X414602D01*
Y410716D01*
G37*
G36*
X409484D02*X406532D01*
Y406780D01*
X409484D01*
Y410716D01*
G37*
G36*
X401602Y92716D02*X398650D01*
Y88780D01*
X401602D01*
Y92716D01*
G37*
G36*
X396484D02*X393532D01*
Y88780D01*
X396484D01*
Y92716D01*
G37*
G36*
X401602Y251716D02*X398650D01*
Y247780D01*
X401602D01*
Y251716D01*
G37*
G36*
X396484D02*X393532D01*
Y247780D01*
X396484D01*
Y251716D01*
G37*
G36*
X401602Y410716D02*X398650D01*
Y406780D01*
X401602D01*
Y410716D01*
G37*
G36*
X396484D02*X393532D01*
Y406780D01*
X396484D01*
Y410716D01*
G37*
G36*
X414602Y198716D02*X411650D01*
Y194780D01*
X414602D01*
Y198716D01*
G37*
G36*
X409484D02*X406532D01*
Y194780D01*
X409484D01*
Y198716D01*
G37*
G36*
X414602Y357716D02*X411650D01*
Y353780D01*
X414602D01*
Y357716D01*
G37*
G36*
X409484D02*X406532D01*
Y353780D01*
X409484D01*
Y357716D01*
G37*
G36*
X414602Y516716D02*X411650D01*
Y512780D01*
X414602D01*
Y516716D01*
G37*
G36*
X409484D02*X406532D01*
Y512780D01*
X409484D01*
Y516716D01*
G37*
G36*
X401543Y198716D02*X398591D01*
Y194780D01*
X401543D01*
Y198716D01*
G37*
G36*
X396425D02*X393473D01*
Y194780D01*
X396425D01*
Y198716D01*
G37*
G36*
X401543Y357716D02*X398591D01*
Y353780D01*
X401543D01*
Y357716D01*
G37*
G36*
X396425D02*X393473D01*
Y353780D01*
X396425D01*
Y357716D01*
G37*
G36*
X401543Y516716D02*X398591D01*
Y512780D01*
X401543D01*
Y516716D01*
G37*
G36*
X396425D02*X393473D01*
Y512780D01*
X396425D01*
Y516716D01*
G37*
G36*
X210599Y459783D02*Y456831D01*
X214535D01*
Y459783D01*
X210599D01*
G37*
G36*
Y454665D02*Y451713D01*
X214535D01*
Y454665D01*
X210599D01*
G37*
G36*
X216599Y459783D02*Y456831D01*
X220535D01*
Y459783D01*
X216599D01*
G37*
G36*
Y454665D02*Y451713D01*
X220535D01*
Y454665D01*
X216599D01*
G37*
G36*
X262602Y488716D02*X259650D01*
Y484780D01*
X262602D01*
Y488716D01*
G37*
G36*
X257484D02*X254532D01*
Y484780D01*
X257484D01*
Y488716D01*
G37*
G36*
X234067Y473248D02*Y471248D01*
X242567D01*
Y473248D01*
X234067D01*
G37*
G36*
Y468248D02*Y466248D01*
X242567D01*
Y468248D01*
X234067D01*
G37*
G36*
Y463248D02*Y461248D01*
X242567D01*
Y463248D01*
X234067D01*
G37*
G36*
Y458248D02*Y456248D01*
X242567D01*
Y458248D01*
X234067D01*
G37*
G36*
X254567D02*Y456248D01*
X263067D01*
Y458248D01*
X254567D01*
G37*
G36*
Y463248D02*Y461248D01*
X263067D01*
Y463248D01*
X254567D01*
G37*
G36*
Y468248D02*Y466248D01*
X263067D01*
Y468248D01*
X254567D01*
G37*
G36*
Y473248D02*Y471248D01*
X263067D01*
Y473248D01*
X254567D01*
G37*
G36*
X236615Y441850D02*Y436732D01*
X242519D01*
Y441850D01*
X236615D01*
G37*
G36*
Y434764D02*Y429646D01*
X242519D01*
Y434764D01*
X236615D01*
G37*
G36*
X262602Y480716D02*X259650D01*
Y476780D01*
X262602D01*
Y480716D01*
G37*
G36*
X257484D02*X254532D01*
Y476780D01*
X257484D01*
Y480716D01*
G37*
M02*
