M48
INCH
T61C0.118
T60C0.031
T59C0.012
T58C0.020
T57C0.059
T56C0.039
T55C0.091
T54C0.035
%
T59
X002855Y034316
X003455Y022366
X003605Y033866
X005555Y009366
X005905Y014166
X007205Y015666
X008205Y019266
X008755Y021416
X010155Y027866
X010155Y026316
X010405Y021866
X010655Y028316
X010655Y026766
X010955Y021866
X011055Y024516
X011105Y029366
X011105Y026916
X011155Y017216
X011162Y023873
X011455Y019616
X011455Y019166
X011455Y017566
X011805Y017766
X012205Y025716
X012905Y021016
X014155Y021016
X014205Y022216
X014805Y037666
X014805Y022216
X014855Y020316
X014855Y017866
X015055Y016466
X015105Y037366
X015105Y031166
X015105Y030716
X015105Y029416
X015105Y023366
X015155Y014866
X015355Y037966
X015405Y037066
X015405Y013666
X015505Y026866
X015505Y026266
X015605Y029216
X015705Y025916
X015805Y013466
X015855Y012316
X015905Y025566
X016205Y008266
X016405Y037616
X016855Y031466
X016855Y031016
X017405Y015866
X017505Y038016
X017505Y037566
X017855Y031066
X017955Y038466
X017955Y038016
X017955Y030416
X017955Y029816
X018155Y039266
X018155Y038816
X018255Y041016
X018255Y031066
X018355Y029016
X018355Y025766
X018555Y029766
X018655Y031066
X018655Y027466
X018755Y025866
X018805Y014966
X018805Y013266
X019005Y028866
X019005Y027266
X019255Y026916
X019355Y028666
X019405Y015866
X019605Y038916
X019605Y037716
X019705Y031166
X019705Y015566
X019705Y007916
X019755Y032266
X019805Y035266
X020005Y015866
X020055Y031966
X020055Y031366
X020055Y027066
X020105Y035566
X020105Y034966
X020255Y006416
X020355Y031666
X020355Y026416
X020505Y035466
X020555Y028916
X020655Y031066
X020655Y022516
X020955Y022216
X023005Y029916
X023405Y013366
X023455Y019716
X023655Y029216
X023755Y019416
X025355Y030266
X025805Y030216
X026545Y014822
X026647Y034008
X026655Y021366
X026805Y020966
X027055Y016666
X027287Y015564
X027389Y033265
X027405Y031766
X027605Y030466
X027655Y029066
X027655Y022666
X027855Y013566
X027905Y017516
X028005Y035416
X028030Y016306
X028132Y032523
X028155Y018766
X028355Y020376
X028455Y019066
X028605Y014316
X028755Y034666
X028772Y017049
X028874Y031781
X029305Y015066
X029455Y033916
X029515Y017791
X029617Y031038
X030055Y015816
X030205Y033166
X030255Y026516
X030257Y018534
X030359Y030296
X030705Y021666
X030805Y016566
X030955Y032416
X031000Y019276
X031102Y029553
X031105Y021866
X031305Y026416
X031455Y002566
X031555Y017316
X031705Y031666
X031742Y020019
X031855Y028866
X032405Y020736
X032505Y021916
X032605Y028086
X032605Y027036
X032605Y025986
X032605Y024936
X032605Y023886
X032655Y023016
X035355Y036816
X035355Y034116
X035355Y031916
X035355Y029716
X035355Y027016
X035355Y024816
X035355Y022616
X035355Y019916
X035355Y017716
X035355Y015516
X035355Y012816
X035355Y010616
X036855Y036816
X036855Y034116
X036855Y031916
X036855Y029716
X036855Y027016
X036855Y024816
X036855Y022616
X036855Y019916
X036855Y017716
X036855Y015516
X036855Y012816
X036855Y010616
X037455Y003066
X039755Y041766
X039955Y037916
X039955Y035716
X039955Y033016
X039955Y030816
X039955Y028616
X039955Y025916
X039955Y023716
X039955Y021516
X039955Y018816
X039955Y016616
X039955Y014416
X039955Y011716
X041455Y037916
X041455Y035716
X041455Y033016
X041455Y030816
X041455Y028616
X041455Y025916
X041455Y023716
X041455Y021516
X041455Y018816
X041455Y016616
X041455Y014416
X041455Y011716
X043105Y004566
X043505Y001266
T58
X004505Y034416
X005505Y033616
X005505Y033216
X005505Y027916
X005505Y027516
X006205Y036516
X007005Y024916
X007405Y028716
X007505Y012366
X008005Y030616
X008005Y028716
X008005Y026816
X008155Y016766
X008405Y007316
X008805Y007716
X008805Y007316
X009605Y030616
X009605Y028716
X009605Y026816
X009705Y040116
X009755Y031716
X010355Y031166
X010455Y014016
X010455Y012566
X011005Y007916
X011155Y016216
X012355Y029366
X012405Y024416
X013005Y028466
X013005Y027566
X013005Y026666
X013005Y025766
X013005Y024866
X013005Y023966
X013005Y022966
X013055Y019466
X013055Y019066
X013355Y034016
X013355Y033616
X013605Y016066
X014155Y026466
X014155Y025816
X014155Y025216
X014305Y029366
X014305Y028466
X014305Y027566
X014305Y023966
X014305Y022966
X014405Y018666
X014405Y018266
X014455Y035116
X014455Y034716
X014455Y026116
X014455Y025516
X014505Y032116
X014505Y020016
X015655Y028466
X015655Y027566
X015855Y035416
X015855Y035016
X015905Y033316
X016055Y026516
X016055Y022316
X016105Y019066
X016155Y024616
X016155Y024216
X016655Y016916
X016905Y033316
X017005Y028466
X017005Y027566
X017055Y026516
X017055Y025166
X017055Y023566
X017055Y023016
X017705Y021016
X017855Y035416
X017855Y035016
X017855Y033316
X017905Y011666
X018555Y018216
X018805Y021216
X019155Y035416
X019155Y035016
X019155Y033316
X019155Y020866
X019155Y016916
X019365Y024636
X019405Y007016
X019555Y033316
X019805Y007016
X019805Y006616
X019905Y022316
X020255Y020216
X020255Y016916
X020505Y024416
X020555Y008266
X020655Y020216
X020855Y032716
X021105Y009866
X021505Y032066
X021605Y025466
X021805Y012416
X021855Y023066
X021905Y024666
X021955Y009666
X022005Y018216
X022405Y022516
X022505Y031066
X022505Y030566
X022505Y024116
X022755Y018916
X022955Y021966
X023105Y026916
X023105Y026066
X023105Y025166
X023105Y024266
X023105Y023516
X023355Y033416
X023405Y015616
X023405Y010416
X024155Y017566
X024205Y037216
X024205Y034016
X024205Y033466
X024205Y027866
X024205Y026966
X024205Y026066
X024205Y025166
X024205Y024266
X024205Y023366
X024405Y016016
X024405Y010416
X024555Y022166
X024555Y021266
X024805Y024416
X024905Y035816
X024955Y018366
X025205Y028916
X025205Y024816
X025205Y024016
X025455Y017066
X025605Y027866
X025605Y025216
X025605Y024416
X025605Y023616
X025705Y009966
X025855Y014816
X025955Y032416
X026005Y024816
X026005Y024016
X026055Y022016
X026205Y028916
X026255Y026966
X026255Y026066
X026655Y020416
X026705Y028166
X026905Y012366
X026955Y022216
X026955Y013366
X027105Y035616
X027205Y026966
X027205Y026066
X027205Y025216
X027205Y024416
X027205Y023616
X027655Y030966
X028305Y029966
X028355Y022066
X028605Y026066
X028605Y025166
X028605Y024416
X028605Y023616
X029405Y021266
X029655Y025466
X029805Y001116
X029955Y004316
X030155Y024816
X030155Y024016
X030755Y004016
X031055Y024416
X031155Y005216
X031255Y026966
X031805Y006566
X033655Y004416
X033905Y004866
X034105Y003816
X034105Y002816
X035055Y005516
X035405Y035016
X035405Y027916
X035405Y020816
X035405Y013716
X037605Y039766
X037605Y005116
X037805Y044016
X040005Y034816
X040005Y027716
X040005Y020616
X040005Y013516
X040655Y043566
X040655Y042566
T60
X002405Y037616
X004255Y011166
X004455Y013116
X004855Y011166
X005055Y013116
X006955Y022516
X008255Y013316
X008855Y013316
X011205Y005166
X011205Y004366
X011355Y011166
X011355Y010566
X011805Y032866
X013255Y001116
X013605Y040816
X013605Y040216
X013855Y001116
X013905Y035716
X014755Y011966
X014755Y011366
X016405Y036216
X020905Y004966
X020905Y004166
X024605Y032216
X025305Y039766
X025305Y037966
X025405Y004916
X025905Y005716
X025905Y004116
X026405Y004916
X026905Y005716
X026905Y004116
X027405Y004916
X028505Y007216
X029105Y007216
X029305Y003316
X034255Y007766
X034605Y001116
X036855Y009216
X041455Y009216
X045355Y003966
T54
X005217Y023000
X005217Y022016
X006005Y023000
X006005Y022016
T56
X003805Y018316
X003805Y017316
X003805Y016316
X003805Y015316
X003805Y014316
X014705Y044516
X014705Y043516
X014705Y040516
X015705Y044516
X015705Y043516
X015705Y040516
X016705Y044516
X016705Y043516
X017705Y044516
X017705Y043516
X018705Y044516
X018705Y043516
X043505Y042016
X043505Y041016
X043505Y008016
X043505Y007016
X044505Y042016
X044505Y041016
X044505Y038016
X044505Y037016
X044505Y036016
X044505Y035016
X044505Y034016
X044505Y033016
X044505Y032016
X044505Y031016
X044505Y030016
X044505Y029016
X044505Y028016
X044505Y027016
X044505Y026016
X044505Y025016
X044505Y024016
X044505Y023016
X044505Y022016
X044505Y021016
X044505Y020016
X044505Y019016
X044505Y018016
X044505Y017016
X044505Y016016
X044505Y015016
X044505Y014016
X044505Y013016
X044505Y012016
X044505Y011016
X044505Y008016
X044505Y007016
X045505Y042016
X045505Y041016
X045505Y038016
X045505Y037016
X045505Y036016
X045505Y035016
X045505Y034016
X045505Y033016
X045505Y032016
X045505Y031016
X045505Y030016
X045505Y029016
X045505Y028016
X045505Y027016
X045505Y026016
X045505Y025016
X045505Y024016
X045505Y023016
X045505Y022016
X045505Y021016
X045505Y020016
X045505Y019016
X045505Y018016
X045505Y017016
X045505Y016016
X045505Y015016
X045505Y014016
X045505Y013016
X045505Y012016
X045505Y011016
X045505Y008016
X045505Y007016
X046505Y042016
X046505Y041016
X046505Y008016
X046505Y007016
T57
X003064Y041116
X004284Y039147
X005505Y041116
T55
X004154Y024870
X004154Y020146
T61
X002879Y044594
X002879Y001681
X041855Y044594
X048154Y044594
X048154Y004437
X048154Y001681
M30
