G04 start of page 6 for group -4063 idx -4063 *
G04 Title: NVMemProg_Main, componentmask *
G04 Creator: pcb v4.0.0-ga246c150 *
G04 CreationDate: Sat Sep 30 23:46:22 2017 UTC *
G04 For: wojtek *
G04 Format: Gerber/RS-274X *
G04 PCB-Dimensions (mil): 4980.31 4606.30 *
G04 PCB-Coordinate-Origin: lower left *
%MOIN*%
%FSLAX25Y25*%
%LNTOPMASK*%
%ADD69C,0.0867*%
%ADD68C,0.0780*%
%ADD67C,0.0785*%
%ADD66C,0.1260*%
%ADD65C,0.0769*%
%ADD64C,0.1496*%
%ADD63C,0.0748*%
%ADD62C,0.0001*%
G54D62*G36*
X56307Y223898D02*Y216417D01*
X63787D01*
Y223898D01*
X56307D01*
G37*
G54D63*X60047Y230000D03*
X52173D03*
Y220157D03*
G54D64*X41543Y248701D03*
Y201457D03*
G54D62*G36*
X34204Y147001D02*Y139314D01*
X41891D01*
Y147001D01*
X34204D01*
G37*
G54D65*X38047Y153157D03*
G54D62*G36*
X34204Y167001D02*Y159314D01*
X41891D01*
Y167001D01*
X34204D01*
G37*
G54D65*X38047Y173157D03*
Y183157D03*
G54D66*X30638Y411157D03*
X55047D03*
X42843Y391472D03*
G54D62*G36*
X143204Y409001D02*Y401314D01*
X150891D01*
Y409001D01*
X143204D01*
G37*
G54D65*X157047Y405157D03*
G54D67*X147047Y435157D03*
Y445157D03*
X157047Y435157D03*
Y445157D03*
X167047Y435157D03*
X177047D03*
X187047D03*
X167047Y445157D03*
X177047D03*
X187047D03*
G54D62*G36*
X431204Y74001D02*Y66314D01*
X438891D01*
Y74001D01*
X431204D01*
G37*
G54D65*X435047Y80157D03*
X445047Y70157D03*
X455047D03*
X465047D03*
X445047Y80157D03*
X455047D03*
X465047D03*
X455047Y410157D03*
Y420157D03*
X465047Y410157D03*
Y420157D03*
G54D62*G36*
X431204Y414001D02*Y406314D01*
X438891D01*
Y414001D01*
X431204D01*
G37*
G54D65*X435047Y420157D03*
X445047Y410157D03*
Y420157D03*
G54D62*G36*
X451204Y384001D02*Y376314D01*
X458891D01*
Y384001D01*
X451204D01*
G37*
G54D65*X455047Y370157D03*
Y360157D03*
G54D62*G36*
X441204Y384001D02*Y376314D01*
X448891D01*
Y384001D01*
X441204D01*
G37*
G54D65*X445047Y370157D03*
Y360157D03*
Y350157D03*
Y340157D03*
Y330157D03*
X455047Y350157D03*
Y340157D03*
Y330157D03*
Y320157D03*
Y310157D03*
Y300157D03*
Y290157D03*
Y280157D03*
Y270157D03*
Y260157D03*
X445047D03*
X455047Y250157D03*
G54D62*G36*
X451204Y244001D02*Y236314D01*
X458891D01*
Y244001D01*
X451204D01*
G37*
G54D65*X455047Y230157D03*
G54D62*G36*
X441204Y244001D02*Y236314D01*
X448891D01*
Y244001D01*
X441204D01*
G37*
G54D65*X445047Y250157D03*
Y320157D03*
Y310157D03*
Y300157D03*
Y290157D03*
Y280157D03*
Y270157D03*
X455047Y220157D03*
Y210157D03*
Y200157D03*
Y190157D03*
Y180157D03*
Y170157D03*
Y160157D03*
Y150157D03*
Y140157D03*
Y130157D03*
Y120157D03*
Y110157D03*
X445047Y230157D03*
Y220157D03*
Y210157D03*
Y200157D03*
Y190157D03*
Y180157D03*
Y170157D03*
Y160157D03*
Y150157D03*
Y140157D03*
Y130157D03*
Y120157D03*
Y110157D03*
G54D62*G36*
X39417Y450348D02*X33190Y456575D01*
X24384D01*
X18157Y450348D01*
Y441542D01*
X24384Y435315D01*
X33190D01*
X39417Y441542D01*
Y450348D01*
G37*
G36*
Y21214D02*X33190Y27441D01*
X24384D01*
X18157Y21214D01*
Y12408D01*
X24384Y6181D01*
X33190D01*
X39417Y12408D01*
Y21214D01*
G37*
G36*
X429181Y450348D02*X422954Y456575D01*
X414148D01*
X407921Y450348D01*
Y441542D01*
X414148Y435315D01*
X422954D01*
X429181Y441542D01*
Y450348D01*
G37*
G36*
X492173D02*X485946Y456575D01*
X477140D01*
X470913Y450348D01*
Y441542D01*
X477140Y435315D01*
X485946D01*
X492173Y441542D01*
Y450348D01*
G37*
G36*
Y21214D02*X485946Y27441D01*
X477140D01*
X470913Y21214D01*
Y12408D01*
X477140Y6181D01*
X485946D01*
X492173Y12408D01*
Y21214D01*
G37*
G36*
Y48773D02*X485946Y55000D01*
X477140D01*
X470913Y48773D01*
Y39967D01*
X477140Y33740D01*
X485946D01*
X492173Y39967D01*
Y48773D01*
G37*
G36*
X162870Y314515D02*Y311947D01*
X166224D01*
Y314515D01*
X162870D01*
G37*
G36*
Y311367D02*Y308799D01*
X166224D01*
Y311367D01*
X162870D01*
G37*
G36*
X172362Y303197D02*X170945D01*
Y297764D01*
X172362D01*
Y303197D01*
G37*
G36*
X168295Y356973D02*Y351255D01*
X174799D01*
Y356973D01*
X168295D01*
G37*
G36*
Y364059D02*Y358341D01*
X174799D01*
Y364059D01*
X168295D01*
G37*
G36*
X170394Y303197D02*X168977D01*
Y297764D01*
X170394D01*
Y303197D01*
G37*
G36*
X168425D02*X167008D01*
Y297764D01*
X168425D01*
Y303197D01*
G37*
G36*
X166457D02*X165040D01*
Y297764D01*
X166457D01*
Y303197D01*
G37*
G36*
X164488D02*X163071D01*
Y297764D01*
X164488D01*
Y303197D01*
G37*
G36*
X196840Y266493D02*X198656Y264677D01*
X201028Y267048D01*
X199212Y268864D01*
X196840Y266493D01*
G37*
G36*
X199066Y264267D02*X200882Y262451D01*
X203254Y264822D01*
X201438Y266638D01*
X199066Y264267D01*
G37*
G36*
X190905Y256334D02*X188337D01*
Y252980D01*
X190905D01*
Y256334D01*
G37*
G36*
Y292834D02*X188337D01*
Y289480D01*
X190905D01*
Y292834D01*
G37*
G36*
X174843Y271661D02*Y270244D01*
X180276D01*
Y271661D01*
X174843D01*
G37*
G36*
Y273630D02*Y272213D01*
X180276D01*
Y273630D01*
X174843D01*
G37*
G36*
Y275598D02*Y274181D01*
X180276D01*
Y275598D01*
X174843D01*
G37*
G36*
Y277567D02*Y276150D01*
X180276D01*
Y277567D01*
X174843D01*
G37*
G36*
Y279535D02*Y278118D01*
X180276D01*
Y279535D01*
X174843D01*
G37*
G36*
Y281504D02*Y280087D01*
X180276D01*
Y281504D01*
X174843D01*
G37*
G36*
Y283472D02*Y282055D01*
X180276D01*
Y283472D01*
X174843D01*
G37*
G36*
Y285441D02*Y284024D01*
X180276D01*
Y285441D01*
X174843D01*
G37*
G36*
Y287409D02*Y285992D01*
X180276D01*
Y287409D01*
X174843D01*
G37*
G36*
Y289378D02*Y287961D01*
X180276D01*
Y289378D01*
X174843D01*
G37*
G36*
Y291346D02*Y289929D01*
X180276D01*
Y291346D01*
X174843D01*
G37*
G36*
Y293315D02*Y291898D01*
X180276D01*
Y293315D01*
X174843D01*
G37*
G36*
Y295283D02*Y293866D01*
X180276D01*
Y295283D01*
X174843D01*
G37*
G36*
X199701Y362780D02*X196945D01*
Y358450D01*
X199701D01*
Y362780D01*
G37*
G36*
X202851D02*X200095D01*
Y358450D01*
X202851D01*
Y362780D01*
G37*
G36*
X205999D02*X203243D01*
Y358450D01*
X205999D01*
Y362780D01*
G37*
G36*
X209149D02*X206393D01*
Y358450D01*
X209149D01*
Y362780D01*
G37*
G36*
Y369865D02*X206393D01*
Y365535D01*
X209149D01*
Y369865D01*
G37*
G36*
X205999D02*X203243D01*
Y365535D01*
X205999D01*
Y369865D01*
G37*
G36*
X202851D02*X200095D01*
Y365535D01*
X202851D01*
Y369865D01*
G37*
G36*
X199701D02*X196945D01*
Y365535D01*
X199701D01*
Y369865D01*
G37*
G36*
X188201Y400280D02*X185445D01*
Y395950D01*
X188201D01*
Y400280D01*
G37*
G36*
X191351D02*X188595D01*
Y395950D01*
X191351D01*
Y400280D01*
G37*
G36*
X194499D02*X191743D01*
Y395950D01*
X194499D01*
Y400280D01*
G37*
G36*
X197649D02*X194893D01*
Y395950D01*
X197649D01*
Y400280D01*
G37*
G36*
Y407365D02*X194893D01*
Y403035D01*
X197649D01*
Y407365D01*
G37*
G36*
X194499D02*X191743D01*
Y403035D01*
X194499D01*
Y407365D01*
G37*
G36*
X191351D02*X188595D01*
Y403035D01*
X191351D01*
Y407365D01*
G37*
G36*
X188201D02*X185445D01*
Y403035D01*
X188201D01*
Y407365D01*
G37*
G36*
X132795Y398559D02*Y392841D01*
X139299D01*
Y398559D01*
X132795D01*
G37*
G36*
Y391473D02*Y385755D01*
X139299D01*
Y391473D01*
X132795D01*
G37*
G54D68*X138047Y377157D03*
G54D62*G36*
X162079Y383535D02*Y380780D01*
X166016D01*
Y383535D01*
X162079D01*
G37*
G36*
X155386D02*Y380780D01*
X159323D01*
Y383535D01*
X155386D01*
G37*
G36*
X160264Y390425D02*X156712D01*
Y385889D01*
X160264D01*
Y390425D01*
G37*
G36*
X165382D02*X161830D01*
Y385889D01*
X165382D01*
Y390425D01*
G37*
G36*
Y396425D02*X161830D01*
Y391889D01*
X165382D01*
Y396425D01*
G37*
G36*
X160264D02*X156712D01*
Y391889D01*
X160264D01*
Y396425D01*
G37*
G36*
X70488Y241732D02*Y238583D01*
X75606D01*
Y241732D01*
X70488D01*
G37*
G36*
Y237992D02*Y234843D01*
X75606D01*
Y237992D01*
X70488D01*
G37*
G36*
Y234252D02*Y231102D01*
X75606D01*
Y234252D01*
X70488D01*
G37*
G36*
X81512Y241732D02*Y238583D01*
X86630D01*
Y241732D01*
X81512D01*
G37*
G36*
Y237992D02*Y234843D01*
X86630D01*
Y237992D01*
X81512D01*
G37*
G36*
Y234252D02*Y231102D01*
X86630D01*
Y234252D01*
X81512D01*
G37*
G36*
X76264Y251425D02*X72712D01*
Y246889D01*
X76264D01*
Y251425D01*
G37*
G36*
X81382D02*X77830D01*
Y246889D01*
X81382D01*
Y251425D01*
G37*
G36*
X70449Y259409D02*X64731D01*
Y252905D01*
X70449D01*
Y259409D01*
G37*
G36*
X63363D02*X57645D01*
Y252905D01*
X63363D01*
Y259409D01*
G37*
G36*
X106370Y239867D02*Y237299D01*
X109724D01*
Y239867D01*
X106370D01*
G37*
G54D68*X106047Y231157D03*
G54D62*G36*
X113819Y238197D02*Y236780D01*
X119252D01*
Y238197D01*
X113819D01*
G37*
G36*
Y236228D02*Y234811D01*
X119252D01*
Y236228D01*
X113819D01*
G37*
G36*
Y234260D02*Y232843D01*
X119252D01*
Y234260D01*
X113819D01*
G37*
G36*
Y232291D02*Y230874D01*
X119252D01*
Y232291D01*
X113819D01*
G37*
G36*
Y230323D02*Y228906D01*
X119252D01*
Y230323D01*
X113819D01*
G37*
G36*
Y228354D02*Y226937D01*
X119252D01*
Y228354D01*
X113819D01*
G37*
G36*
Y226386D02*Y224969D01*
X119252D01*
Y226386D01*
X113819D01*
G37*
G36*
Y224417D02*Y223000D01*
X119252D01*
Y224417D01*
X113819D01*
G37*
G36*
Y222449D02*Y221032D01*
X119252D01*
Y222449D01*
X113819D01*
G37*
G36*
X106370Y243015D02*Y240447D01*
X109724D01*
Y243015D01*
X106370D01*
G37*
G36*
X113819Y253945D02*Y252528D01*
X119252D01*
Y253945D01*
X113819D01*
G37*
G36*
Y251976D02*Y250559D01*
X119252D01*
Y251976D01*
X113819D01*
G37*
G36*
Y250008D02*Y248591D01*
X119252D01*
Y250008D01*
X113819D01*
G37*
G36*
Y248039D02*Y246622D01*
X119252D01*
Y248039D01*
X113819D01*
G37*
G36*
Y246071D02*Y244654D01*
X119252D01*
Y246071D01*
X113819D01*
G37*
G36*
Y244102D02*Y242685D01*
X119252D01*
Y244102D01*
X113819D01*
G37*
G36*
Y242134D02*Y240717D01*
X119252D01*
Y242134D01*
X113819D01*
G37*
G36*
Y240165D02*Y238748D01*
X119252D01*
Y240165D01*
X113819D01*
G37*
G36*
X63764Y411331D02*Y403457D01*
X78331D01*
Y411331D01*
X63764D01*
G37*
G36*
Y390858D02*Y382984D01*
X78331D01*
Y390858D01*
X63764D01*
G37*
G36*
X28747Y338157D02*Y334157D01*
X33347D01*
Y338157D01*
X28747D01*
G37*
G36*
X34264Y345425D02*X30712D01*
Y340889D01*
X34264D01*
Y345425D01*
G37*
G36*
X28747Y330357D02*Y326357D01*
X33347D01*
Y330357D01*
X28747D01*
G37*
G36*
X36947Y334257D02*Y330257D01*
X41547D01*
Y334257D01*
X36947D01*
G37*
G36*
X34264Y358425D02*X30712D01*
Y353889D01*
X34264D01*
Y358425D01*
G37*
G36*
Y352425D02*X30712D01*
Y347889D01*
X34264D01*
Y352425D01*
G37*
G36*
X39382Y358425D02*X35830D01*
Y353889D01*
X39382D01*
Y358425D01*
G37*
G36*
Y345425D02*X35830D01*
Y340889D01*
X39382D01*
Y345425D01*
G37*
G36*
Y352425D02*X35830D01*
Y347889D01*
X39382D01*
Y352425D01*
G37*
G36*
X47075Y380201D02*Y372114D01*
X57917D01*
Y380201D01*
X47075D01*
G37*
G36*
X28177D02*Y372114D01*
X39020D01*
Y380201D01*
X28177D01*
G37*
G36*
X34264Y364425D02*X30712D01*
Y359889D01*
X34264D01*
Y364425D01*
G37*
G36*
X39382D02*X35830D01*
Y359889D01*
X39382D01*
Y364425D01*
G37*
G36*
X45747Y366157D02*Y362157D01*
X50347D01*
Y366157D01*
X45747D01*
G37*
G36*
Y358357D02*Y354357D01*
X50347D01*
Y358357D01*
X45747D01*
G37*
G36*
X53947Y362257D02*Y358257D01*
X58547D01*
Y362257D01*
X53947D01*
G37*
G36*
X51264Y352425D02*X47712D01*
Y347889D01*
X51264D01*
Y352425D01*
G37*
G36*
X56382D02*X52830D01*
Y347889D01*
X56382D01*
Y352425D01*
G37*
G36*
X51264Y346425D02*X47712D01*
Y341889D01*
X51264D01*
Y346425D01*
G37*
G36*
X56382D02*X52830D01*
Y341889D01*
X56382D01*
Y346425D01*
G37*
G36*
X70363Y359409D02*X64645D01*
Y352905D01*
X70363D01*
Y359409D01*
G37*
G36*
X77449D02*X71731D01*
Y352905D01*
X77449D01*
Y359409D01*
G37*
G36*
X70406Y350409D02*X64688D01*
Y343905D01*
X70406D01*
Y350409D01*
G37*
G36*
X77492D02*X71774D01*
Y343905D01*
X77492D01*
Y350409D01*
G37*
G36*
X70363Y368409D02*X64645D01*
Y361905D01*
X70363D01*
Y368409D01*
G37*
G36*
X77449D02*X71731D01*
Y361905D01*
X77449D01*
Y368409D01*
G37*
G54D68*X73047Y336157D03*
G54D62*G36*
X187757Y292834D02*X185189D01*
Y289480D01*
X187757D01*
Y292834D01*
G37*
G36*
X162520Y303197D02*X161103D01*
Y297764D01*
X162520D01*
Y303197D01*
G37*
G36*
X160551D02*X159134D01*
Y297764D01*
X160551D01*
Y303197D01*
G37*
G36*
X158583D02*X157166D01*
Y297764D01*
X158583D01*
Y303197D01*
G37*
G36*
X156614D02*X155197D01*
Y297764D01*
X156614D01*
Y303197D01*
G37*
G36*
X154646D02*X153229D01*
Y297764D01*
X154646D01*
Y303197D01*
G37*
G36*
X152677D02*X151260D01*
Y297764D01*
X152677D01*
Y303197D01*
G37*
G36*
X150709D02*X149292D01*
Y297764D01*
X150709D01*
Y303197D01*
G37*
G36*
X148740D02*X147323D01*
Y297764D01*
X148740D01*
Y303197D01*
G37*
G36*
X146772D02*X145355D01*
Y297764D01*
X146772D01*
Y303197D01*
G37*
G36*
X144803D02*X143386D01*
Y297764D01*
X144803D01*
Y303197D01*
G37*
G36*
X142835D02*X141418D01*
Y297764D01*
X142835D01*
Y303197D01*
G37*
G36*
X140866D02*X139449D01*
Y297764D01*
X140866D01*
Y303197D01*
G37*
G36*
X138898D02*X137481D01*
Y297764D01*
X138898D01*
Y303197D01*
G37*
G36*
X136929D02*X135512D01*
Y297764D01*
X136929D01*
Y303197D01*
G37*
G36*
X134961D02*X133544D01*
Y297764D01*
X134961D01*
Y303197D01*
G37*
G36*
X132992D02*X131575D01*
Y297764D01*
X132992D01*
Y303197D01*
G37*
G36*
X131024D02*X129607D01*
Y297764D01*
X131024D01*
Y303197D01*
G37*
G36*
X129055D02*X127638D01*
Y297764D01*
X129055D01*
Y303197D01*
G37*
G36*
X127087D02*X125670D01*
Y297764D01*
X127087D01*
Y303197D01*
G37*
G36*
X125118D02*X123701D01*
Y297764D01*
X125118D01*
Y303197D01*
G37*
G36*
X123150D02*X121733D01*
Y297764D01*
X123150D01*
Y303197D01*
G37*
G54D69*X88047Y275346D02*Y261567D01*
G54D62*G36*
X108156Y255638D02*X106340Y253822D01*
X108712Y251451D01*
X110528Y253267D01*
X108156Y255638D01*
G37*
G36*
X110382Y257864D02*X108566Y256048D01*
X110938Y253677D01*
X112754Y255493D01*
X110382Y257864D01*
G37*
G36*
X106257Y264834D02*X103689D01*
Y261480D01*
X106257D01*
Y264834D01*
G37*
G36*
X109405D02*X106837D01*
Y261480D01*
X109405D01*
Y264834D01*
G37*
G36*
X106257Y280334D02*X103689D01*
Y276980D01*
X106257D01*
Y280334D01*
G37*
G36*
X109405D02*X106837D01*
Y276980D01*
X109405D01*
Y280334D01*
G37*
G36*
X105156Y258638D02*X103340Y256822D01*
X105712Y254451D01*
X107528Y256267D01*
X105156Y258638D01*
G37*
G36*
X107382Y260864D02*X105566Y259048D01*
X107938Y256677D01*
X109754Y258493D01*
X107382Y260864D01*
G37*
G54D68*X55047Y268157D03*
X110047Y301157D03*
G54D69*X88047Y312748D02*Y298969D01*
G54D62*G36*
X103764Y319425D02*X100212D01*
Y314889D01*
X103764D01*
Y319425D01*
G37*
G36*
X108882D02*X105330D01*
Y314889D01*
X108882D01*
Y319425D01*
G37*
G36*
X114764D02*X111212D01*
Y314889D01*
X114764D01*
Y319425D01*
G37*
G36*
X119882D02*X116330D01*
Y314889D01*
X119882D01*
Y319425D01*
G37*
G36*
X71779Y293374D02*Y289822D01*
X76315D01*
Y293374D01*
X71779D01*
G37*
G36*
Y298492D02*Y294940D01*
X76315D01*
Y298492D01*
X71779D01*
G37*
G36*
Y284492D02*Y280940D01*
X76315D01*
Y284492D01*
X71779D01*
G37*
G36*
Y279374D02*Y275822D01*
X76315D01*
Y279374D01*
X71779D01*
G37*
G36*
X106257Y295334D02*X103689D01*
Y291980D01*
X106257D01*
Y295334D01*
G37*
G36*
X109405D02*X106837D01*
Y291980D01*
X109405D01*
Y295334D01*
G37*
G36*
X113819Y295283D02*Y293866D01*
X119252D01*
Y295283D01*
X113819D01*
G37*
G36*
Y293315D02*Y291898D01*
X119252D01*
Y293315D01*
X113819D01*
G37*
G36*
Y291346D02*Y289929D01*
X119252D01*
Y291346D01*
X113819D01*
G37*
G36*
Y289378D02*Y287961D01*
X119252D01*
Y289378D01*
X113819D01*
G37*
G36*
Y287409D02*Y285992D01*
X119252D01*
Y287409D01*
X113819D01*
G37*
G36*
Y285441D02*Y284024D01*
X119252D01*
Y285441D01*
X113819D01*
G37*
G36*
Y283472D02*Y282055D01*
X119252D01*
Y283472D01*
X113819D01*
G37*
G36*
Y281504D02*Y280087D01*
X119252D01*
Y281504D01*
X113819D01*
G37*
G36*
Y279535D02*Y278118D01*
X119252D01*
Y279535D01*
X113819D01*
G37*
G36*
X94779Y398492D02*Y394940D01*
X99315D01*
Y398492D01*
X94779D01*
G37*
G36*
Y393374D02*Y389822D01*
X99315D01*
Y393374D01*
X94779D01*
G37*
G36*
X128147Y407557D02*X121947D01*
Y394757D01*
X128147D01*
Y407557D01*
G37*
G36*
X119147D02*X112947D01*
Y394757D01*
X119147D01*
Y407557D01*
G37*
G36*
X110047D02*X103847D01*
Y394757D01*
X110047D01*
Y407557D01*
G37*
G36*
X105147Y383157D02*Y370357D01*
X126947D01*
Y383157D01*
X105147D01*
G37*
G36*
X113819Y277567D02*Y276150D01*
X119252D01*
Y277567D01*
X113819D01*
G37*
G36*
Y275598D02*Y274181D01*
X119252D01*
Y275598D01*
X113819D01*
G37*
G36*
Y273630D02*Y272213D01*
X119252D01*
Y273630D01*
X113819D01*
G37*
G36*
Y271661D02*Y270244D01*
X119252D01*
Y271661D01*
X113819D01*
G37*
G36*
Y269693D02*Y268276D01*
X119252D01*
Y269693D01*
X113819D01*
G37*
G36*
Y267724D02*Y266307D01*
X119252D01*
Y267724D01*
X113819D01*
G37*
G36*
Y265756D02*Y264339D01*
X119252D01*
Y265756D01*
X113819D01*
G37*
G36*
Y263787D02*Y262370D01*
X119252D01*
Y263787D01*
X113819D01*
G37*
G36*
Y261819D02*Y260402D01*
X119252D01*
Y261819D01*
X113819D01*
G37*
G36*
Y259850D02*Y258433D01*
X119252D01*
Y259850D01*
X113819D01*
G37*
G36*
Y257882D02*Y256465D01*
X119252D01*
Y257882D01*
X113819D01*
G37*
G36*
Y255913D02*Y254496D01*
X119252D01*
Y255913D01*
X113819D01*
G37*
G36*
X201656Y222638D02*X199840Y220822D01*
X202212Y218451D01*
X204028Y220267D01*
X201656Y222638D01*
G37*
G36*
X203882Y224864D02*X202066Y223048D01*
X204438Y220677D01*
X206254Y222493D01*
X203882Y224864D01*
G37*
G36*
X204656Y219638D02*X202840Y217822D01*
X205212Y215451D01*
X207028Y217267D01*
X204656Y219638D01*
G37*
G36*
X206882Y221864D02*X205066Y220048D01*
X207438Y217677D01*
X209254Y219493D01*
X206882Y221864D01*
G37*
G36*
X139370Y204867D02*Y202299D01*
X142724D01*
Y204867D01*
X139370D01*
G37*
G36*
X142835Y218551D02*X141418D01*
Y213118D01*
X142835D01*
Y218551D01*
G37*
G36*
X144803D02*X143386D01*
Y213118D01*
X144803D01*
Y218551D01*
G37*
G36*
X146772D02*X145355D01*
Y213118D01*
X146772D01*
Y218551D01*
G37*
G36*
X271406Y203344D02*X270415Y202353D01*
X273809Y198959D01*
X274800Y199950D01*
X271406Y203344D01*
G37*
G36*
X272798Y204735D02*X271807Y203744D01*
X275200Y200350D01*
X276192Y201341D01*
X272798Y204735D01*
G37*
G36*
X274190Y206128D02*X273199Y205136D01*
X276593Y201742D01*
X277584Y202734D01*
X274190Y206128D01*
G37*
G36*
X275582Y207519D02*X274591Y206528D01*
X277985Y203134D01*
X278976Y204126D01*
X275582Y207519D01*
G37*
G36*
X276974Y208912D02*X275983Y207920D01*
X279377Y204526D01*
X280368Y205518D01*
X276974Y208912D01*
G37*
G36*
X278366Y210303D02*X277374Y209312D01*
X280769Y205918D01*
X281760Y206910D01*
X278366Y210303D01*
G37*
G36*
X279758Y211696D02*X278767Y210704D01*
X282161Y207310D01*
X283152Y208302D01*
X279758Y211696D01*
G37*
G36*
X281150Y213087D02*X280158Y212096D01*
X283552Y208702D01*
X284544Y209693D01*
X281150Y213087D01*
G37*
G36*
X282542Y214480D02*X281550Y213488D01*
X284944Y210094D01*
X285936Y211085D01*
X282542Y214480D01*
G37*
G36*
X283933Y215871D02*X282942Y214879D01*
X286336Y211486D01*
X287328Y212477D01*
X283933Y215871D01*
G37*
G36*
X285326Y217263D02*X284334Y216272D01*
X287728Y212878D01*
X288720Y213869D01*
X285326Y217263D01*
G37*
G36*
X286717Y218655D02*X285726Y217664D01*
X289120Y214270D01*
X290111Y215261D01*
X286717Y218655D01*
G37*
G36*
X288109Y220047D02*X287118Y219056D01*
X290512Y215662D01*
X291504Y216653D01*
X288109Y220047D01*
G37*
G36*
X289501Y221439D02*X288510Y220447D01*
X291904Y217054D01*
X292895Y218045D01*
X289501Y221439D01*
G37*
G36*
X290893Y222831D02*X289902Y221840D01*
X293296Y218446D01*
X294287Y219437D01*
X290893Y222831D01*
G37*
G36*
X216416Y220828D02*X217407Y219837D01*
X220802Y223231D01*
X219810Y224222D01*
X216416Y220828D01*
G37*
G36*
X217808Y219436D02*X218799Y218445D01*
X222193Y221839D01*
X221201Y222830D01*
X217808Y219436D01*
G37*
G36*
X219200Y218044D02*X220191Y217053D01*
X223585Y220447D01*
X222594Y221438D01*
X219200Y218044D01*
G37*
G36*
X220592Y216652D02*X221583Y215661D01*
X224977Y219055D01*
X223985Y220046D01*
X220592Y216652D01*
G37*
G36*
X221984Y215260D02*X222975Y214269D01*
X226369Y217663D01*
X225378Y218654D01*
X221984Y215260D01*
G37*
G36*
X223376Y213868D02*X224367Y212877D01*
X227761Y216271D01*
X226769Y217263D01*
X223376Y213868D01*
G37*
G36*
X224768Y212476D02*X225759Y211485D01*
X229153Y214879D01*
X228162Y215870D01*
X224768Y212476D01*
G37*
G36*
X226159Y211085D02*X227151Y210093D01*
X230545Y213488D01*
X229554Y214479D01*
X226159Y211085D01*
G37*
G36*
X227552Y209692D02*X228543Y208701D01*
X231937Y212095D01*
X230946Y213087D01*
X227552Y209692D01*
G37*
G36*
X228943Y208301D02*X229935Y207309D01*
X233329Y210704D01*
X232337Y211695D01*
X228943Y208301D01*
G37*
G36*
X230335Y206909D02*X231327Y205917D01*
X234721Y209311D01*
X233730Y210303D01*
X230335Y206909D01*
G37*
G36*
X231727Y205517D02*X232719Y204526D01*
X236113Y207920D01*
X235121Y208911D01*
X231727Y205517D01*
G37*
G36*
X233119Y204125D02*X234111Y203133D01*
X237505Y206528D01*
X236513Y207519D01*
X233119Y204125D01*
G37*
G36*
X234511Y202733D02*X235502Y201742D01*
X238896Y205136D01*
X237905Y206127D01*
X234511Y202733D01*
G37*
G36*
X235903Y201341D02*X236894Y200350D01*
X240289Y203743D01*
X239297Y204735D01*
X235903Y201341D01*
G37*
G36*
X237295Y199949D02*X238286Y198958D01*
X241680Y202352D01*
X240689Y203343D01*
X237295Y199949D01*
G37*
G36*
X238687Y198557D02*X239678Y197566D01*
X243072Y200959D01*
X242081Y201951D01*
X238687Y198557D01*
G37*
G36*
X240079Y197165D02*X241070Y196174D01*
X244464Y199568D01*
X243473Y200559D01*
X240079Y197165D01*
G37*
G36*
X241471Y195773D02*X242462Y194782D01*
X245856Y198176D01*
X244865Y199167D01*
X241471Y195773D01*
G37*
G36*
X242863Y194381D02*X243854Y193390D01*
X247248Y196784D01*
X246256Y197776D01*
X242863Y194381D01*
G37*
G36*
X244255Y192989D02*X245246Y191998D01*
X248640Y195392D01*
X247649Y196383D01*
X244255Y192989D01*
G37*
G36*
X245646Y191598D02*X246638Y190606D01*
X250032Y194000D01*
X249041Y194992D01*
X245646Y191598D01*
G37*
G36*
X247039Y190205D02*X248030Y189214D01*
X251424Y192608D01*
X250433Y193599D01*
X247039Y190205D01*
G37*
G36*
X248430Y188814D02*X249422Y187822D01*
X252816Y191217D01*
X251824Y192208D01*
X248430Y188814D01*
G37*
G36*
X164075Y16201D02*Y8114D01*
X174917D01*
Y16201D01*
X164075D01*
G37*
G36*
X168747Y88157D02*Y84157D01*
X173347D01*
Y88157D01*
X168747D01*
G37*
G36*
Y95957D02*Y91957D01*
X173347D01*
Y95957D01*
X168747D01*
G37*
G36*
X160547Y92057D02*Y88057D01*
X165147D01*
Y92057D01*
X160547D01*
G37*
G36*
X145177Y16201D02*Y8114D01*
X156020D01*
Y16201D01*
X145177D01*
G37*
G36*
X145122Y104327D02*X138973D01*
Y91091D01*
X145122D01*
Y104327D01*
G37*
G36*
Y123224D02*X138973D01*
Y109988D01*
X145122D01*
Y123224D01*
G37*
G36*
X146811Y87197D02*X141093D01*
Y79117D01*
X146811D01*
Y87197D01*
G37*
G36*
X153264Y85425D02*X149712D01*
Y80889D01*
X153264D01*
Y85425D01*
G37*
G36*
X158382D02*X154830D01*
Y80889D01*
X158382D01*
Y85425D01*
G37*
G54D68*X231047Y16157D03*
G54D62*G36*
X220497Y86500D02*X223009Y83988D01*
X226216Y87196D01*
X223705Y89708D01*
X220497Y86500D01*
G37*
G36*
X225958Y79403D02*X220660Y74105D01*
X234309Y60455D01*
X239607Y65753D01*
X225958Y79403D01*
G37*
G36*
X236500Y47073D02*X262400Y21174D01*
X293031Y51805D01*
X267131Y77704D01*
X236500Y47073D01*
G37*
G36*
X109712Y24799D02*X102382D01*
Y8414D01*
X109712D01*
Y24799D01*
G37*
G36*
Y55900D02*X102382D01*
Y39515D01*
X109712D01*
Y55900D01*
G37*
G36*
X111122Y96327D02*X104973D01*
Y83091D01*
X111122D01*
Y96327D01*
G37*
G36*
Y115224D02*X104973D01*
Y101988D01*
X111122D01*
Y115224D01*
G37*
G54D68*X111547Y121657D03*
G54D62*G36*
X109795Y76559D02*Y70841D01*
X116299D01*
Y76559D01*
X109795D01*
G37*
G36*
Y69473D02*Y63755D01*
X116299D01*
Y69473D01*
X109795D01*
G37*
G36*
X135001Y87197D02*X129283D01*
Y79117D01*
X135001D01*
Y87197D01*
G37*
G36*
X117354Y152586D02*Y150854D01*
X123063D01*
Y152586D01*
X117354D01*
G37*
G36*
X131264Y145925D02*X127712D01*
Y141389D01*
X131264D01*
Y145925D01*
G37*
G36*
X136382D02*X132830D01*
Y141389D01*
X136382D01*
Y145925D01*
G37*
G36*
X131264Y151925D02*X127712D01*
Y147389D01*
X131264D01*
Y151925D01*
G37*
G36*
X136382D02*X132830D01*
Y147389D01*
X136382D01*
Y151925D01*
G37*
G36*
X117354Y154554D02*Y152822D01*
X123063D01*
Y154554D01*
X117354D01*
G37*
G36*
X131264Y157925D02*X127712D01*
Y153389D01*
X131264D01*
Y157925D01*
G37*
G36*
X136382D02*X132830D01*
Y153389D01*
X136382D01*
Y157925D01*
G37*
G36*
X117354Y156523D02*Y154791D01*
X123063D01*
Y156523D01*
X117354D01*
G37*
G36*
Y158492D02*Y156760D01*
X123063D01*
Y158492D01*
X117354D01*
G37*
G36*
Y160460D02*Y158728D01*
X123063D01*
Y160460D01*
X117354D01*
G37*
G36*
X206712Y22799D02*X199382D01*
Y6414D01*
X206712D01*
Y22799D01*
G37*
G36*
X191382Y75425D02*X187830D01*
Y70889D01*
X191382D01*
Y75425D01*
G37*
G36*
X189747Y60157D02*Y56157D01*
X194347D01*
Y60157D01*
X189747D01*
G37*
G36*
Y67957D02*Y63957D01*
X194347D01*
Y67957D01*
X189747D01*
G37*
G36*
X186264Y75425D02*X182712D01*
Y70889D01*
X186264D01*
Y75425D01*
G37*
G36*
Y81425D02*X182712D01*
Y76889D01*
X186264D01*
Y81425D01*
G37*
G36*
X181547Y64057D02*Y60057D01*
X186147D01*
Y64057D01*
X181547D01*
G37*
G36*
X191382Y81425D02*X187830D01*
Y76889D01*
X191382D01*
Y81425D01*
G37*
G36*
X198221Y74385D02*X202264Y70342D01*
X206863Y74941D01*
X202820Y78984D01*
X198221Y74385D01*
G37*
G36*
X199264Y104425D02*X195712D01*
Y99889D01*
X199264D01*
Y104425D01*
G37*
G36*
X204382D02*X200830D01*
Y99889D01*
X204382D01*
Y104425D01*
G37*
G36*
X199264Y98425D02*X195712D01*
Y93889D01*
X199264D01*
Y98425D01*
G37*
G36*
X204382D02*X200830D01*
Y93889D01*
X204382D01*
Y98425D01*
G37*
G36*
X187757Y256334D02*X185189D01*
Y252980D01*
X187757D01*
Y256334D01*
G37*
G36*
X199713Y237531D02*X200704Y236540D01*
X204098Y239934D01*
X203107Y240925D01*
X199713Y237531D01*
G37*
G36*
X201104Y236140D02*X202096Y235148D01*
X205490Y238543D01*
X204498Y239534D01*
X201104Y236140D01*
G37*
G36*
X202497Y234747D02*X203488Y233756D01*
X206882Y237150D01*
X205891Y238141D01*
X202497Y234747D01*
G37*
G36*
X203888Y233356D02*X204880Y232365D01*
X208274Y235759D01*
X207282Y236750D01*
X203888Y233356D01*
G37*
G36*
X205281Y231963D02*X206272Y230972D01*
X209666Y234367D01*
X208675Y235358D01*
X205281Y231963D01*
G37*
G36*
X206672Y230572D02*X207663Y229581D01*
X211058Y232974D01*
X210066Y233966D01*
X206672Y230572D01*
G37*
G36*
X208065Y229180D02*X209056Y228188D01*
X212450Y231582D01*
X211459Y232574D01*
X208065Y229180D01*
G37*
G36*
X209456Y227788D02*X210447Y226797D01*
X213841Y230190D01*
X212850Y231182D01*
X209456Y227788D01*
G37*
G36*
X210848Y226396D02*X211840Y225404D01*
X215234Y228798D01*
X214243Y229790D01*
X210848Y226396D01*
G37*
G36*
X212240Y225004D02*X213231Y224013D01*
X216625Y227407D01*
X215634Y228398D01*
X212240Y225004D01*
G37*
G36*
X213632Y223612D02*X214624Y222620D01*
X218018Y226015D01*
X217026Y227006D01*
X213632Y223612D01*
G37*
G36*
X215024Y222220D02*X216015Y221229D01*
X219409Y224623D01*
X218418Y225614D01*
X215024Y222220D01*
G37*
G36*
X185405Y211834D02*X182837D01*
Y208480D01*
X185405D01*
Y211834D01*
G37*
G36*
X182257D02*X179689D01*
Y208480D01*
X182257D01*
Y211834D01*
G37*
G36*
X185405Y216834D02*X182837D01*
Y213480D01*
X185405D01*
Y216834D01*
G37*
G36*
X182257D02*X179689D01*
Y213480D01*
X182257D01*
Y216834D01*
G37*
G36*
X174843Y222449D02*Y221032D01*
X180276D01*
Y222449D01*
X174843D01*
G37*
G36*
Y224417D02*Y223000D01*
X180276D01*
Y224417D01*
X174843D01*
G37*
G36*
Y226386D02*Y224969D01*
X180276D01*
Y226386D01*
X174843D01*
G37*
G36*
Y228354D02*Y226937D01*
X180276D01*
Y228354D01*
X174843D01*
G37*
G36*
Y230323D02*Y228906D01*
X180276D01*
Y230323D01*
X174843D01*
G37*
G36*
Y232291D02*Y230874D01*
X180276D01*
Y232291D01*
X174843D01*
G37*
G36*
Y234260D02*Y232843D01*
X180276D01*
Y234260D01*
X174843D01*
G37*
G36*
Y236228D02*Y234811D01*
X180276D01*
Y236228D01*
X174843D01*
G37*
G36*
Y238197D02*Y236780D01*
X180276D01*
Y238197D01*
X174843D01*
G37*
G36*
Y240165D02*Y238748D01*
X180276D01*
Y240165D01*
X174843D01*
G37*
G36*
Y242134D02*Y240717D01*
X180276D01*
Y242134D01*
X174843D01*
G37*
G36*
Y244102D02*Y242685D01*
X180276D01*
Y244102D01*
X174843D01*
G37*
G36*
Y246071D02*Y244654D01*
X180276D01*
Y246071D01*
X174843D01*
G37*
G36*
Y248039D02*Y246622D01*
X180276D01*
Y248039D01*
X174843D01*
G37*
G36*
Y250008D02*Y248591D01*
X180276D01*
Y250008D01*
X174843D01*
G37*
G36*
Y251976D02*Y250559D01*
X180276D01*
Y251976D01*
X174843D01*
G37*
G36*
Y253945D02*Y252528D01*
X180276D01*
Y253945D01*
X174843D01*
G37*
G36*
Y255913D02*Y254496D01*
X180276D01*
Y255913D01*
X174843D01*
G37*
G36*
Y257882D02*Y256465D01*
X180276D01*
Y257882D01*
X174843D01*
G37*
G36*
Y259850D02*Y258433D01*
X180276D01*
Y259850D01*
X174843D01*
G37*
G36*
Y261819D02*Y260402D01*
X180276D01*
Y261819D01*
X174843D01*
G37*
G36*
Y263787D02*Y262370D01*
X180276D01*
Y263787D01*
X174843D01*
G37*
G36*
Y265756D02*Y264339D01*
X180276D01*
Y265756D01*
X174843D01*
G37*
G36*
Y267724D02*Y266307D01*
X180276D01*
Y267724D01*
X174843D01*
G37*
G36*
Y269693D02*Y268276D01*
X180276D01*
Y269693D01*
X174843D01*
G37*
G36*
X229656Y194638D02*X227840Y192822D01*
X230212Y190451D01*
X232028Y192267D01*
X229656Y194638D01*
G37*
G36*
X231882Y196864D02*X230066Y195048D01*
X232438Y192677D01*
X234254Y194493D01*
X231882Y196864D01*
G37*
G36*
X232656Y191638D02*X230840Y189822D01*
X233212Y187451D01*
X235028Y189267D01*
X232656Y191638D01*
G37*
G36*
X234882Y193864D02*X233066Y192048D01*
X235438Y189677D01*
X237254Y191493D01*
X234882Y193864D01*
G37*
G36*
X229947Y157657D02*X225947D01*
Y153057D01*
X229947D01*
Y157657D01*
G37*
G36*
X222047Y140157D02*Y137157D01*
X231547D01*
Y140157D01*
X222047D01*
G37*
G36*
Y135157D02*Y132157D01*
X231547D01*
Y135157D01*
X222047D01*
G37*
G36*
Y130157D02*Y127157D01*
X231547D01*
Y130157D01*
X222047D01*
G37*
G36*
Y125157D02*Y122157D01*
X231547D01*
Y125157D01*
X222047D01*
G37*
G36*
X229497Y95500D02*X232009Y92988D01*
X235216Y96196D01*
X232705Y98708D01*
X229497Y95500D01*
G37*
G36*
X260271Y192208D02*X259280Y191217D01*
X262674Y187823D01*
X263665Y188815D01*
X260271Y192208D01*
G37*
G36*
X261662Y193600D02*X260671Y192609D01*
X264065Y189215D01*
X265056Y190206D01*
X261662Y193600D01*
G37*
G36*
X263055Y194992D02*X262063Y194001D01*
X265458Y190607D01*
X266449Y191599D01*
X263055Y194992D01*
G37*
G36*
X264447Y196384D02*X263455Y195393D01*
X266849Y191998D01*
X267840Y192990D01*
X264447Y196384D01*
G37*
G36*
X265838Y197776D02*X264847Y196785D01*
X268241Y193391D01*
X269233Y194382D01*
X265838Y197776D01*
G37*
G36*
X267230Y199168D02*X266239Y198177D01*
X269633Y194782D01*
X270624Y195774D01*
X267230Y199168D01*
G37*
G36*
X268622Y200560D02*X267631Y199569D01*
X271025Y196175D01*
X272017Y197166D01*
X268622Y200560D01*
G37*
G36*
X270014Y201952D02*X269023Y200960D01*
X272416Y197566D01*
X273408Y198557D01*
X270014Y201952D01*
G37*
G54D68*X258047Y155657D03*
G54D62*G36*
X252047Y157457D02*X248047D01*
Y152857D01*
X252047D01*
Y157457D01*
G37*
G36*
X244247D02*X240247D01*
Y152857D01*
X244247D01*
Y157457D01*
G37*
G36*
X248147Y149257D02*X244147D01*
Y144657D01*
X248147D01*
Y149257D01*
G37*
G36*
X261779Y125374D02*Y121822D01*
X266315D01*
Y125374D01*
X261779D01*
G37*
G36*
X242547Y125157D02*Y122157D01*
X252047D01*
Y125157D01*
X242547D01*
G37*
G36*
X255779Y125374D02*Y121822D01*
X260315D01*
Y125374D01*
X255779D01*
G37*
G36*
X261779Y130492D02*Y126940D01*
X266315D01*
Y130492D01*
X261779D01*
G37*
G36*
X242547Y130157D02*Y127157D01*
X252047D01*
Y130157D01*
X242547D01*
G37*
G36*
Y135157D02*Y132157D01*
X252047D01*
Y135157D01*
X242547D01*
G37*
G36*
Y140157D02*Y137157D01*
X252047D01*
Y140157D01*
X242547D01*
G37*
G36*
X255779Y130492D02*Y126940D01*
X260315D01*
Y130492D01*
X255779D01*
G37*
G36*
X259721Y97885D02*X263764Y93842D01*
X268363Y98441D01*
X264320Y102484D01*
X259721Y97885D01*
G37*
G36*
X264732Y92874D02*X268775Y88831D01*
X273374Y93430D01*
X269330Y97473D01*
X264732Y92874D01*
G37*
G36*
X256878Y92121D02*X259389Y89608D01*
X262597Y92814D01*
X260087Y95327D01*
X256878Y92121D01*
G37*
G36*
X260498Y88499D02*X263010Y85988D01*
X266216Y89197D01*
X263704Y91708D01*
X260498Y88499D01*
G37*
G36*
X240100Y93545D02*X234802Y88246D01*
X248451Y74597D01*
X253750Y79896D01*
X240100Y93545D01*
G37*
G36*
X148740Y218551D02*X147323D01*
Y213118D01*
X148740D01*
Y218551D01*
G37*
G36*
X150709D02*X149292D01*
Y213118D01*
X150709D01*
Y218551D01*
G37*
G36*
X152677D02*X151260D01*
Y213118D01*
X152677D01*
Y218551D01*
G37*
G36*
X154646D02*X153229D01*
Y213118D01*
X154646D01*
Y218551D01*
G37*
G36*
X156614D02*X155197D01*
Y213118D01*
X156614D01*
Y218551D01*
G37*
G36*
X158583D02*X157166D01*
Y213118D01*
X158583D01*
Y218551D01*
G37*
G36*
X160551D02*X159134D01*
Y213118D01*
X160551D01*
Y218551D01*
G37*
G36*
X162520D02*X161103D01*
Y213118D01*
X162520D01*
Y218551D01*
G37*
G36*
X172382Y160425D02*X168830D01*
Y155889D01*
X172382D01*
Y160425D01*
G37*
G36*
X167264D02*X163712D01*
Y155889D01*
X167264D01*
Y160425D01*
G37*
G36*
X164488Y218551D02*X163071D01*
Y213118D01*
X164488D01*
Y218551D01*
G37*
G36*
X166457D02*X165040D01*
Y213118D01*
X166457D01*
Y218551D01*
G37*
G36*
X168425D02*X167008D01*
Y213118D01*
X168425D01*
Y218551D01*
G37*
G36*
X170394D02*X168977D01*
Y213118D01*
X170394D01*
Y218551D01*
G37*
G36*
X172362D02*X170945D01*
Y213118D01*
X172362D01*
Y218551D01*
G37*
G36*
X186747Y88157D02*Y84157D01*
X191347D01*
Y88157D01*
X186747D01*
G37*
G36*
Y95957D02*Y91957D01*
X191347D01*
Y95957D01*
X186747D01*
G37*
G36*
X178547Y92057D02*Y88057D01*
X183147D01*
Y92057D01*
X178547D01*
G37*
G36*
X181547Y103157D02*Y100157D01*
X191047D01*
Y103157D01*
X181547D01*
G37*
G36*
Y108157D02*Y105157D01*
X191047D01*
Y108157D01*
X181547D01*
G37*
G36*
Y113157D02*Y110157D01*
X191047D01*
Y113157D01*
X181547D01*
G37*
G36*
Y118157D02*Y115157D01*
X191047D01*
Y118157D01*
X181547D01*
G37*
G36*
X174764Y125425D02*X171212D01*
Y120889D01*
X174764D01*
Y125425D01*
G37*
G36*
X179882D02*X176330D01*
Y120889D01*
X179882D01*
Y125425D01*
G37*
G36*
X161047Y118157D02*Y115157D01*
X170547D01*
Y118157D01*
X161047D01*
G37*
G36*
Y113157D02*Y110157D01*
X170547D01*
Y113157D01*
X161047D01*
G37*
G36*
Y108157D02*Y105157D01*
X170547D01*
Y108157D01*
X161047D01*
G37*
G36*
Y103157D02*Y100157D01*
X170547D01*
Y103157D01*
X161047D01*
G37*
G36*
X164264Y125425D02*X160712D01*
Y120889D01*
X164264D01*
Y125425D01*
G37*
G36*
X169382D02*X165830D01*
Y120889D01*
X169382D01*
Y125425D01*
G37*
G36*
X164264Y131425D02*X160712D01*
Y126889D01*
X164264D01*
Y131425D01*
G37*
G36*
X169382D02*X165830D01*
Y126889D01*
X169382D01*
Y131425D01*
G37*
G36*
X206712Y53900D02*X199382D01*
Y37515D01*
X206712D01*
Y53900D01*
G37*
G54D68*X210547Y60157D03*
G54D62*G36*
X205878Y79119D02*X208390Y76607D01*
X211597Y79815D01*
X209086Y82327D01*
X205878Y79119D01*
G37*
G36*
X203232Y69374D02*X207275Y65331D01*
X211874Y69930D01*
X207830Y73973D01*
X203232Y69374D01*
G37*
G36*
X209497Y75500D02*X212009Y72988D01*
X215216Y76196D01*
X212705Y78708D01*
X209497Y75500D01*
G37*
G36*
X212378Y85619D02*X214890Y83107D01*
X218097Y86315D01*
X215586Y88827D01*
X212378Y85619D01*
G37*
G36*
X215997Y82000D02*X218509Y79488D01*
X221716Y82696D01*
X219205Y85208D01*
X215997Y82000D01*
G37*
G36*
X225878Y99119D02*X228390Y96607D01*
X231597Y99815D01*
X229086Y102327D01*
X225878Y99119D01*
G37*
G36*
X221378Y94619D02*X223890Y92107D01*
X227097Y95315D01*
X224586Y97827D01*
X221378Y94619D01*
G37*
G36*
X224997Y91000D02*X227509Y88488D01*
X230716Y91696D01*
X228205Y94208D01*
X224997Y91000D01*
G37*
G36*
X216878Y90119D02*X219390Y87607D01*
X222597Y90815D01*
X220086Y93327D01*
X216878Y90119D01*
G37*
G36*
X226047Y149457D02*X222047D01*
Y144857D01*
X226047D01*
Y149457D01*
G37*
G36*
X218382Y148925D02*X214830D01*
Y144389D01*
X218382D01*
Y148925D01*
G37*
G36*
X233847Y149457D02*X229847D01*
Y144857D01*
X233847D01*
Y149457D01*
G37*
G36*
X208370Y155367D02*Y152799D01*
X211724D01*
Y155367D01*
X208370D01*
G37*
G36*
Y158515D02*Y155947D01*
X211724D01*
Y158515D01*
X208370D01*
G37*
G36*
X203370Y155367D02*Y152799D01*
X206724D01*
Y155367D01*
X203370D01*
G37*
G36*
Y158515D02*Y155947D01*
X206724D01*
Y158515D01*
X203370D01*
G37*
G36*
X218382Y136925D02*X214830D01*
Y132389D01*
X218382D01*
Y136925D01*
G37*
G36*
X213264D02*X209712D01*
Y132389D01*
X213264D01*
Y136925D01*
G37*
G36*
Y142925D02*X209712D01*
Y138389D01*
X213264D01*
Y142925D01*
G37*
G36*
X218382D02*X214830D01*
Y138389D01*
X218382D01*
Y142925D01*
G37*
G36*
X213264Y148925D02*X209712D01*
Y144389D01*
X213264D01*
Y148925D01*
G37*
G36*
X107264Y198425D02*X103712D01*
Y193889D01*
X107264D01*
Y198425D01*
G37*
G36*
X70047Y199157D02*Y196157D01*
X79547D01*
Y199157D01*
X70047D01*
G37*
G36*
Y194157D02*Y191157D01*
X79547D01*
Y194157D01*
X70047D01*
G37*
G36*
X90547D02*Y191157D01*
X100047D01*
Y194157D01*
X90547D01*
G37*
G36*
Y199157D02*Y196157D01*
X100047D01*
Y199157D01*
X90547D01*
G37*
G36*
X107264Y192425D02*X103712D01*
Y187889D01*
X107264D01*
Y192425D01*
G37*
G36*
X99441Y216425D02*X95889D01*
Y211889D01*
X99441D01*
Y216425D01*
G37*
G36*
X94323D02*X90771D01*
Y211889D01*
X94323D01*
Y216425D01*
G37*
G36*
X107264Y204425D02*X103712D01*
Y199889D01*
X107264D01*
Y204425D01*
G37*
G36*
Y216425D02*X103712D01*
Y211889D01*
X107264D01*
Y216425D01*
G37*
G36*
Y210425D02*X103712D01*
Y205889D01*
X107264D01*
Y210425D01*
G37*
G36*
X112382Y192425D02*X108830D01*
Y187889D01*
X112382D01*
Y192425D01*
G37*
G36*
X127370Y204867D02*Y202299D01*
X130724D01*
Y204867D01*
X127370D01*
G37*
G36*
Y208015D02*Y205447D01*
X130724D01*
Y208015D01*
X127370D01*
G37*
G36*
X139370D02*Y205447D01*
X142724D01*
Y208015D01*
X139370D01*
G37*
G36*
X70047Y209157D02*Y206157D01*
X79547D01*
Y209157D01*
X70047D01*
G37*
G36*
Y204157D02*Y201157D01*
X79547D01*
Y204157D01*
X70047D01*
G37*
G36*
X90547D02*Y201157D01*
X100047D01*
Y204157D01*
X90547D01*
G37*
G36*
Y209157D02*Y206157D01*
X100047D01*
Y209157D01*
X90547D01*
G37*
G36*
X112382Y198425D02*X108830D01*
Y193889D01*
X112382D01*
Y198425D01*
G37*
G36*
Y204425D02*X108830D01*
Y199889D01*
X112382D01*
Y204425D01*
G37*
G36*
Y216425D02*X108830D01*
Y211889D01*
X112382D01*
Y216425D01*
G37*
G36*
Y210425D02*X108830D01*
Y205889D01*
X112382D01*
Y210425D01*
G37*
G36*
X123150Y218551D02*X121733D01*
Y213118D01*
X123150D01*
Y218551D01*
G37*
G36*
X125118D02*X123701D01*
Y213118D01*
X125118D01*
Y218551D01*
G37*
G36*
X127087D02*X125670D01*
Y213118D01*
X127087D01*
Y218551D01*
G37*
G36*
X129055D02*X127638D01*
Y213118D01*
X129055D01*
Y218551D01*
G37*
G36*
X131024D02*X129607D01*
Y213118D01*
X131024D01*
Y218551D01*
G37*
G36*
X132992D02*X131575D01*
Y213118D01*
X132992D01*
Y218551D01*
G37*
G36*
X134961D02*X133544D01*
Y213118D01*
X134961D01*
Y218551D01*
G37*
G36*
X136929D02*X135512D01*
Y213118D01*
X136929D01*
Y218551D01*
G37*
G36*
X138898D02*X137481D01*
Y213118D01*
X138898D01*
Y218551D01*
G37*
G36*
X140866D02*X139449D01*
Y213118D01*
X140866D01*
Y218551D01*
G37*
G36*
X104264Y174425D02*X100712D01*
Y169889D01*
X104264D01*
Y174425D01*
G37*
G36*
X109382D02*X105830D01*
Y169889D01*
X109382D01*
Y174425D01*
G37*
G36*
Y168425D02*X105830D01*
Y163889D01*
X109382D01*
Y168425D01*
G37*
G36*
X104264D02*X100712D01*
Y163889D01*
X104264D01*
Y168425D01*
G37*
G36*
X91264Y166425D02*X87712D01*
Y161889D01*
X91264D01*
Y166425D01*
G37*
G36*
X96382D02*X92830D01*
Y161889D01*
X96382D01*
Y166425D01*
G37*
G36*
X96449Y174409D02*X90731D01*
Y167905D01*
X96449D01*
Y174409D01*
G37*
G36*
X117264Y145925D02*X113712D01*
Y141389D01*
X117264D01*
Y145925D01*
G37*
G36*
X100031Y160460D02*Y158728D01*
X105740D01*
Y160460D01*
X100031D01*
G37*
G36*
Y158492D02*Y156760D01*
X105740D01*
Y158492D01*
X100031D01*
G37*
G36*
Y156523D02*Y154791D01*
X105740D01*
Y156523D01*
X100031D01*
G37*
G36*
Y154554D02*Y152822D01*
X105740D01*
Y154554D01*
X100031D01*
G37*
G36*
Y152586D02*Y150854D01*
X105740D01*
Y152586D01*
X100031D01*
G37*
G36*
X91264Y160425D02*X87712D01*
Y155889D01*
X91264D01*
Y160425D01*
G37*
G36*
X96382D02*X92830D01*
Y155889D01*
X96382D01*
Y160425D01*
G37*
G36*
Y154425D02*X92830D01*
Y149889D01*
X96382D01*
Y154425D01*
G37*
G36*
X91264D02*X87712D01*
Y149889D01*
X91264D01*
Y154425D01*
G37*
G36*
X89363Y174409D02*X83645D01*
Y167905D01*
X89363D01*
Y174409D01*
G37*
G36*
X77764Y158925D02*X74212D01*
Y154389D01*
X77764D01*
Y158925D01*
G37*
G36*
X82882D02*X79330D01*
Y154389D01*
X82882D01*
Y158925D01*
G37*
G36*
Y152925D02*X79330D01*
Y148389D01*
X82882D01*
Y152925D01*
G37*
G36*
X122382Y145925D02*X118830D01*
Y141389D01*
X122382D01*
Y145925D01*
G37*
G36*
X143024Y76717D02*Y63331D01*
X165071D01*
Y76717D01*
X143024D01*
G37*
G36*
Y34984D02*Y21598D01*
X165071D01*
Y34984D01*
X143024D01*
G37*
G36*
X81747Y62157D02*Y58157D01*
X86347D01*
Y62157D01*
X81747D01*
G37*
G36*
Y69957D02*Y65957D01*
X86347D01*
Y69957D01*
X81747D01*
G37*
G36*
X95433Y67111D02*Y61393D01*
X106661D01*
Y67111D01*
X95433D01*
G37*
G36*
Y78921D02*Y73203D01*
X106661D01*
Y78921D01*
X95433D01*
G37*
G36*
X77547Y116157D02*Y113157D01*
X87047D01*
Y116157D01*
X77547D01*
G37*
G36*
Y121157D02*Y118157D01*
X87047D01*
Y121157D01*
X77547D01*
G37*
G36*
X94264Y120425D02*X90712D01*
Y115889D01*
X94264D01*
Y120425D01*
G37*
G36*
X99382D02*X95830D01*
Y115889D01*
X99382D01*
Y120425D01*
G37*
G36*
X77547Y126157D02*Y123157D01*
X87047D01*
Y126157D01*
X77547D01*
G37*
G36*
X94264Y126425D02*X90712D01*
Y121889D01*
X94264D01*
Y126425D01*
G37*
G36*
X99382D02*X95830D01*
Y121889D01*
X99382D01*
Y126425D01*
G37*
G36*
X85382Y82425D02*X81830D01*
Y77889D01*
X85382D01*
Y82425D01*
G37*
G36*
X82747Y96157D02*Y92157D01*
X87347D01*
Y96157D01*
X82747D01*
G37*
G36*
Y103957D02*Y99957D01*
X87347D01*
Y103957D01*
X82747D01*
G37*
G36*
X77547Y111157D02*Y108157D01*
X87047D01*
Y111157D01*
X77547D01*
G37*
G36*
X85382Y88425D02*X81830D01*
Y83889D01*
X85382D01*
Y88425D01*
G37*
G36*
X53363Y176409D02*X47645D01*
Y169905D01*
X53363D01*
Y176409D01*
G37*
G36*
X60449D02*X54731D01*
Y169905D01*
X60449D01*
Y176409D01*
G37*
G36*
X53363Y186409D02*X47645D01*
Y179905D01*
X53363D01*
Y186409D01*
G37*
G36*
X60449D02*X54731D01*
Y179905D01*
X60449D01*
Y186409D01*
G37*
G36*
X19981Y120232D02*Y114083D01*
X33217D01*
Y120232D01*
X19981D01*
G37*
G36*
X38878D02*Y114083D01*
X52114D01*
Y120232D01*
X38878D01*
G37*
G36*
X27001Y99197D02*X21283D01*
Y91117D01*
X27001D01*
Y99197D01*
G37*
G36*
X35024Y46984D02*Y33598D01*
X57071D01*
Y46984D01*
X35024D01*
G37*
G36*
Y88717D02*Y75331D01*
X57071D01*
Y88717D01*
X35024D01*
G37*
G36*
X38811Y99197D02*X33093D01*
Y91117D01*
X38811D01*
Y99197D01*
G37*
G36*
X46264Y97425D02*X42712D01*
Y92889D01*
X46264D01*
Y97425D01*
G37*
G36*
X51382D02*X47830D01*
Y92889D01*
X51382D01*
Y97425D01*
G37*
G36*
X56547Y100057D02*Y96057D01*
X61147D01*
Y100057D01*
X56547D01*
G37*
G36*
X57047Y126157D02*Y123157D01*
X66547D01*
Y126157D01*
X57047D01*
G37*
G36*
Y121157D02*Y118157D01*
X66547D01*
Y121157D01*
X57047D01*
G37*
G36*
Y116157D02*Y113157D01*
X66547D01*
Y116157D01*
X57047D01*
G37*
G36*
Y111157D02*Y108157D01*
X66547D01*
Y111157D01*
X57047D01*
G37*
G36*
X56779Y139492D02*Y135940D01*
X61315D01*
Y139492D01*
X56779D01*
G37*
G36*
Y134374D02*Y130822D01*
X61315D01*
Y134374D01*
X56779D01*
G37*
G36*
X72382Y175425D02*X68830D01*
Y170889D01*
X72382D01*
Y175425D01*
G37*
G36*
X67264D02*X63712D01*
Y170889D01*
X67264D01*
Y175425D01*
G37*
G36*
X72382Y185425D02*X68830D01*
Y180889D01*
X72382D01*
Y185425D01*
G37*
G36*
X67264D02*X63712D01*
Y180889D01*
X67264D01*
Y185425D01*
G37*
G36*
X74547Y100057D02*Y96057D01*
X79147D01*
Y100057D01*
X74547D01*
G37*
G36*
X64747Y96157D02*Y92157D01*
X69347D01*
Y96157D01*
X64747D01*
G37*
G36*
Y103957D02*Y99957D01*
X69347D01*
Y103957D01*
X64747D01*
G37*
G36*
X77764Y152925D02*X74212D01*
Y148389D01*
X77764D01*
Y152925D01*
G37*
G36*
X62779Y139492D02*Y135940D01*
X67315D01*
Y139492D01*
X62779D01*
G37*
G36*
Y134374D02*Y130822D01*
X67315D01*
Y134374D01*
X62779D01*
G37*
G36*
X68779D02*Y130822D01*
X73315D01*
Y134374D01*
X68779D01*
G37*
G36*
Y139492D02*Y135940D01*
X73315D01*
Y139492D01*
X68779D01*
G37*
G36*
X81091Y22130D02*X73004D01*
Y11287D01*
X81091D01*
Y22130D01*
G37*
G36*
Y41028D02*X73004D01*
Y30185D01*
X81091D01*
Y41028D01*
G37*
G36*
X73547Y66057D02*Y62057D01*
X78147D01*
Y66057D01*
X73547D01*
G37*
G36*
X80264Y82425D02*X76712D01*
Y77889D01*
X80264D01*
Y82425D01*
G37*
G36*
Y88425D02*X76712D01*
Y83889D01*
X80264D01*
Y88425D01*
G37*
G36*
X346747Y374157D02*Y370157D01*
X351347D01*
Y374157D01*
X346747D01*
G37*
G36*
Y366357D02*Y362357D01*
X351347D01*
Y366357D01*
X346747D01*
G37*
G36*
X354947Y370257D02*Y366257D01*
X359547D01*
Y370257D01*
X354947D01*
G37*
G36*
X361747Y374157D02*Y370157D01*
X366347D01*
Y374157D01*
X361747D01*
G37*
G36*
Y366357D02*Y362357D01*
X366347D01*
Y366357D01*
X361747D01*
G37*
G36*
Y325157D02*Y321157D01*
X366347D01*
Y325157D01*
X361747D01*
G37*
G36*
Y317357D02*Y313357D01*
X366347D01*
Y317357D01*
X361747D01*
G37*
G36*
Y303157D02*Y299157D01*
X366347D01*
Y303157D01*
X361747D01*
G37*
G36*
X346747Y347157D02*Y343157D01*
X351347D01*
Y347157D01*
X346747D01*
G37*
G36*
X354947Y343257D02*Y339257D01*
X359547D01*
Y343257D01*
X354947D01*
G37*
G36*
X361747Y347157D02*Y343157D01*
X366347D01*
Y347157D01*
X361747D01*
G37*
G36*
Y339357D02*Y335357D01*
X366347D01*
Y339357D01*
X361747D01*
G37*
G36*
X346747D02*Y335357D01*
X351347D01*
Y339357D01*
X346747D01*
G37*
G36*
Y325157D02*Y321157D01*
X351347D01*
Y325157D01*
X346747D01*
G37*
G36*
Y317357D02*Y313357D01*
X351347D01*
Y317357D01*
X346747D01*
G37*
G36*
X354947Y321257D02*Y317257D01*
X359547D01*
Y321257D01*
X354947D01*
G37*
G36*
X346747Y303157D02*Y299157D01*
X351347D01*
Y303157D01*
X346747D01*
G37*
G36*
X354947Y299257D02*Y295257D01*
X359547D01*
Y299257D01*
X354947D01*
G37*
G36*
X369947Y370257D02*Y366257D01*
X374547D01*
Y370257D01*
X369947D01*
G37*
G36*
X378757Y371834D02*X376189D01*
Y368480D01*
X378757D01*
Y371834D01*
G37*
G36*
Y367834D02*X376189D01*
Y364480D01*
X378757D01*
Y367834D01*
G37*
G36*
X382264Y376925D02*X378712D01*
Y372389D01*
X382264D01*
Y376925D01*
G37*
G36*
X387382D02*X383830D01*
Y372389D01*
X387382D01*
Y376925D01*
G37*
G36*
X382264Y363925D02*X378712D01*
Y359389D01*
X382264D01*
Y363925D01*
G37*
G36*
X387382D02*X383830D01*
Y359389D01*
X387382D01*
Y363925D01*
G37*
G36*
X386757Y367834D02*X384189D01*
Y364480D01*
X386757D01*
Y367834D01*
G37*
G36*
X381905Y371834D02*X379337D01*
Y368480D01*
X381905D01*
Y371834D01*
G37*
G36*
X386757D02*X384189D01*
Y368480D01*
X386757D01*
Y371834D01*
G37*
G36*
X389905D02*X387337D01*
Y368480D01*
X389905D01*
Y371834D01*
G37*
G36*
X381905Y367834D02*X379337D01*
Y364480D01*
X381905D01*
Y367834D01*
G37*
G36*
X389905D02*X387337D01*
Y364480D01*
X389905D01*
Y367834D01*
G37*
G36*
X382264Y349925D02*X378712D01*
Y345389D01*
X382264D01*
Y349925D01*
G37*
G36*
X387382D02*X383830D01*
Y345389D01*
X387382D01*
Y349925D01*
G37*
G36*
X381905Y344834D02*X379337D01*
Y341480D01*
X381905D01*
Y344834D01*
G37*
G36*
X386757D02*X384189D01*
Y341480D01*
X386757D01*
Y344834D01*
G37*
G36*
X389905D02*X387337D01*
Y341480D01*
X389905D01*
Y344834D01*
G37*
G36*
X369947Y343257D02*Y339257D01*
X374547D01*
Y343257D01*
X369947D01*
G37*
G36*
X378757Y344834D02*X376189D01*
Y341480D01*
X378757D01*
Y344834D01*
G37*
G36*
X275070Y341126D02*X276886Y339310D01*
X279258Y341682D01*
X277442Y343498D01*
X275070Y341126D01*
G37*
G36*
X389905Y322834D02*X387337D01*
Y319480D01*
X389905D01*
Y322834D01*
G37*
G36*
X382264Y336925D02*X378712D01*
Y332389D01*
X382264D01*
Y336925D01*
G37*
G36*
X387382D02*X383830D01*
Y332389D01*
X387382D01*
Y336925D01*
G37*
G36*
X378757Y340834D02*X376189D01*
Y337480D01*
X378757D01*
Y340834D01*
G37*
G36*
X381905D02*X379337D01*
Y337480D01*
X381905D01*
Y340834D01*
G37*
G36*
X386757D02*X384189D01*
Y337480D01*
X386757D01*
Y340834D01*
G37*
G36*
X389905D02*X387337D01*
Y337480D01*
X389905D01*
Y340834D01*
G37*
G36*
X369947Y321257D02*Y317257D01*
X374547D01*
Y321257D01*
X369947D01*
G37*
G36*
X378757Y322834D02*X376189D01*
Y319480D01*
X378757D01*
Y322834D01*
G37*
G36*
X382264Y314925D02*X378712D01*
Y310389D01*
X382264D01*
Y314925D01*
G37*
G36*
X378757Y318834D02*X376189D01*
Y315480D01*
X378757D01*
Y318834D01*
G37*
G36*
X381905D02*X379337D01*
Y315480D01*
X381905D01*
Y318834D01*
G37*
G36*
X369947Y299257D02*Y295257D01*
X374547D01*
Y299257D01*
X369947D01*
G37*
G36*
X382264Y305925D02*X378712D01*
Y301389D01*
X382264D01*
Y305925D01*
G37*
G36*
X387382D02*X383830D01*
Y301389D01*
X387382D01*
Y305925D01*
G37*
G36*
X378757Y300834D02*X376189D01*
Y297480D01*
X378757D01*
Y300834D01*
G37*
G36*
X381905D02*X379337D01*
Y297480D01*
X381905D01*
Y300834D01*
G37*
G36*
X386757D02*X384189D01*
Y297480D01*
X386757D01*
Y300834D01*
G37*
G36*
X389905D02*X387337D01*
Y297480D01*
X389905D01*
Y300834D01*
G37*
G36*
X387382Y314925D02*X383830D01*
Y310389D01*
X387382D01*
Y314925D01*
G37*
G36*
X386757Y318834D02*X384189D01*
Y315480D01*
X386757D01*
Y318834D01*
G37*
G36*
X389905D02*X387337D01*
Y315480D01*
X389905D01*
Y318834D01*
G37*
G36*
X378757Y296834D02*X376189D01*
Y293480D01*
X378757D01*
Y296834D01*
G37*
G36*
X381905D02*X379337D01*
Y293480D01*
X381905D01*
Y296834D01*
G37*
G36*
X386757D02*X384189D01*
Y293480D01*
X386757D01*
Y296834D01*
G37*
G36*
X389905D02*X387337D01*
Y293480D01*
X389905D01*
Y296834D01*
G37*
G36*
X382264Y327925D02*X378712D01*
Y323389D01*
X382264D01*
Y327925D01*
G37*
G36*
X387382D02*X383830D01*
Y323389D01*
X387382D01*
Y327925D01*
G37*
G36*
X381905Y322834D02*X379337D01*
Y319480D01*
X381905D01*
Y322834D01*
G37*
G36*
X386757D02*X384189D01*
Y319480D01*
X386757D01*
Y322834D01*
G37*
G36*
X289920Y326277D02*X291736Y324461D01*
X294108Y326833D01*
X292292Y328649D01*
X289920Y326277D01*
G37*
G36*
X306995Y309202D02*X308811Y307386D01*
X311183Y309757D01*
X309367Y311573D01*
X306995Y309202D01*
G37*
G36*
X304769Y311428D02*X306585Y309612D01*
X308957Y311983D01*
X307141Y313799D01*
X304769Y311428D01*
G37*
G36*
X319619Y296578D02*X321435Y294762D01*
X323806Y297134D01*
X321991Y298950D01*
X319619Y296578D01*
G37*
G36*
X314774Y301423D02*X316589Y299607D01*
X318961Y301979D01*
X317145Y303795D01*
X314774Y301423D01*
G37*
G36*
X312548Y303649D02*X314363Y301833D01*
X316735Y304205D01*
X314919Y306021D01*
X312548Y303649D01*
G37*
G36*
X311840Y297993D02*X313656Y296177D01*
X316028Y298548D01*
X314212Y300364D01*
X311840Y297993D01*
G37*
G36*
X314066Y295767D02*X315882Y293951D01*
X318254Y296322D01*
X316438Y298138D01*
X314066Y295767D01*
G37*
G36*
X278382Y300364D02*X276566Y298548D01*
X278938Y296177D01*
X280754Y297993D01*
X278382Y300364D01*
G37*
G36*
X276156Y298138D02*X274340Y296322D01*
X276712Y293951D01*
X278528Y295767D01*
X276156Y298138D01*
G37*
G36*
X281382Y297364D02*X279566Y295548D01*
X281938Y293177D01*
X283754Y294993D01*
X281382Y297364D01*
G37*
G36*
X279156Y295138D02*X277340Y293322D01*
X279712Y290951D01*
X281528Y292767D01*
X279156Y295138D01*
G37*
G36*
X432757Y378834D02*X430189D01*
Y375480D01*
X432757D01*
Y378834D01*
G37*
G36*
X435905D02*X433337D01*
Y375480D01*
X435905D01*
Y378834D01*
G37*
G36*
X428264Y374925D02*X424712D01*
Y370389D01*
X428264D01*
Y374925D01*
G37*
G36*
X433382D02*X429830D01*
Y370389D01*
X433382D01*
Y374925D01*
G37*
G36*
X427905Y378834D02*X425337D01*
Y375480D01*
X427905D01*
Y378834D01*
G37*
G36*
X424757D02*X422189D01*
Y375480D01*
X424757D01*
Y378834D01*
G37*
G36*
Y382834D02*X422189D01*
Y379480D01*
X424757D01*
Y382834D01*
G37*
G36*
X432757D02*X430189D01*
Y379480D01*
X432757D01*
Y382834D01*
G37*
G36*
X435905D02*X433337D01*
Y379480D01*
X435905D01*
Y382834D01*
G37*
G36*
X428264Y387925D02*X424712D01*
Y383389D01*
X428264D01*
Y387925D01*
G37*
G36*
X427905Y382834D02*X425337D01*
Y379480D01*
X427905D01*
Y382834D01*
G37*
G36*
X433382Y387925D02*X429830D01*
Y383389D01*
X433382D01*
Y387925D01*
G37*
G36*
X407747Y363157D02*Y359157D01*
X412347D01*
Y363157D01*
X407747D01*
G37*
G36*
Y355357D02*Y351357D01*
X412347D01*
Y355357D01*
X407747D01*
G37*
G36*
X415947Y359257D02*Y355257D01*
X420547D01*
Y359257D01*
X415947D01*
G37*
G36*
X407747Y385157D02*Y381157D01*
X412347D01*
Y385157D01*
X407747D01*
G37*
G36*
Y377357D02*Y373357D01*
X412347D01*
Y377357D01*
X407747D01*
G37*
G36*
X415947Y381257D02*Y377257D01*
X420547D01*
Y381257D01*
X415947D01*
G37*
G36*
X392747Y385157D02*Y381157D01*
X397347D01*
Y385157D01*
X392747D01*
G37*
G36*
Y377357D02*Y373357D01*
X397347D01*
Y377357D01*
X392747D01*
G37*
G36*
X400947Y381257D02*Y377257D01*
X405547D01*
Y381257D01*
X400947D01*
G37*
G36*
X392747Y363157D02*Y359157D01*
X397347D01*
Y363157D01*
X392747D01*
G37*
G36*
Y355357D02*Y351357D01*
X397347D01*
Y355357D01*
X392747D01*
G37*
G36*
Y336157D02*Y332157D01*
X397347D01*
Y336157D01*
X392747D01*
G37*
G36*
Y328357D02*Y324357D01*
X397347D01*
Y328357D01*
X392747D01*
G37*
G36*
Y314157D02*Y310157D01*
X397347D01*
Y314157D01*
X392747D01*
G37*
G36*
Y306357D02*Y302357D01*
X397347D01*
Y306357D01*
X392747D01*
G37*
G36*
X400947Y359257D02*Y355257D01*
X405547D01*
Y359257D01*
X400947D01*
G37*
G36*
Y332257D02*Y328257D01*
X405547D01*
Y332257D01*
X400947D01*
G37*
G36*
Y310257D02*Y306257D01*
X405547D01*
Y310257D01*
X400947D01*
G37*
G36*
X407747Y336157D02*Y332157D01*
X412347D01*
Y336157D01*
X407747D01*
G37*
G36*
Y328357D02*Y324357D01*
X412347D01*
Y328357D01*
X407747D01*
G37*
G36*
X415947Y332257D02*Y328257D01*
X420547D01*
Y332257D01*
X415947D01*
G37*
G36*
X407747Y314157D02*Y310157D01*
X412347D01*
Y314157D01*
X407747D01*
G37*
G36*
Y306357D02*Y302357D01*
X412347D01*
Y306357D01*
X407747D01*
G37*
G36*
X415947Y310257D02*Y306257D01*
X420547D01*
Y310257D01*
X415947D01*
G37*
G36*
X428264Y352925D02*X424712D01*
Y348389D01*
X428264D01*
Y352925D01*
G37*
G36*
X433382D02*X429830D01*
Y348389D01*
X433382D01*
Y352925D01*
G37*
G36*
X427905Y356834D02*X425337D01*
Y353480D01*
X427905D01*
Y356834D01*
G37*
G36*
X424757D02*X422189D01*
Y353480D01*
X424757D01*
Y356834D01*
G37*
G36*
X432757D02*X430189D01*
Y353480D01*
X432757D01*
Y356834D01*
G37*
G36*
X435905D02*X433337D01*
Y353480D01*
X435905D01*
Y356834D01*
G37*
G36*
X432757Y360834D02*X430189D01*
Y357480D01*
X432757D01*
Y360834D01*
G37*
G36*
X435905D02*X433337D01*
Y357480D01*
X435905D01*
Y360834D01*
G37*
G36*
X433382Y365925D02*X429830D01*
Y361389D01*
X433382D01*
Y365925D01*
G37*
G36*
X424757Y360834D02*X422189D01*
Y357480D01*
X424757D01*
Y360834D01*
G37*
G36*
X427905D02*X425337D01*
Y357480D01*
X427905D01*
Y360834D01*
G37*
G36*
X428264Y365925D02*X424712D01*
Y361389D01*
X428264D01*
Y365925D01*
G37*
G36*
Y338925D02*X424712D01*
Y334389D01*
X428264D01*
Y338925D01*
G37*
G36*
X432757Y333834D02*X430189D01*
Y330480D01*
X432757D01*
Y333834D01*
G37*
G36*
X433382Y338925D02*X429830D01*
Y334389D01*
X433382D01*
Y338925D01*
G37*
G36*
X427905Y333834D02*X425337D01*
Y330480D01*
X427905D01*
Y333834D01*
G37*
G36*
X424757Y307834D02*X422189D01*
Y304480D01*
X424757D01*
Y307834D01*
G37*
G36*
X432757D02*X430189D01*
Y304480D01*
X432757D01*
Y307834D01*
G37*
G36*
X435905D02*X433337D01*
Y304480D01*
X435905D01*
Y307834D01*
G37*
G36*
X433382Y303925D02*X429830D01*
Y299389D01*
X433382D01*
Y303925D01*
G37*
G36*
X432757Y311834D02*X430189D01*
Y308480D01*
X432757D01*
Y311834D01*
G37*
G36*
X424757D02*X422189D01*
Y308480D01*
X424757D01*
Y311834D01*
G37*
G36*
X427905D02*X425337D01*
Y308480D01*
X427905D01*
Y311834D01*
G37*
G36*
X432757Y329834D02*X430189D01*
Y326480D01*
X432757D01*
Y329834D01*
G37*
G36*
X435905D02*X433337D01*
Y326480D01*
X435905D01*
Y329834D01*
G37*
G36*
X433382Y325925D02*X429830D01*
Y321389D01*
X433382D01*
Y325925D01*
G37*
G36*
X424757Y329834D02*X422189D01*
Y326480D01*
X424757D01*
Y329834D01*
G37*
G36*
Y333834D02*X422189D01*
Y330480D01*
X424757D01*
Y333834D01*
G37*
G36*
X435905D02*X433337D01*
Y330480D01*
X435905D01*
Y333834D01*
G37*
G36*
Y311834D02*X433337D01*
Y308480D01*
X435905D01*
Y311834D01*
G37*
G36*
X428264Y325925D02*X424712D01*
Y321389D01*
X428264D01*
Y325925D01*
G37*
G36*
Y303925D02*X424712D01*
Y299389D01*
X428264D01*
Y303925D01*
G37*
G36*
X427905Y329834D02*X425337D01*
Y326480D01*
X427905D01*
Y329834D01*
G37*
G36*
Y307834D02*X425337D01*
Y304480D01*
X427905D01*
Y307834D01*
G37*
G36*
X428264Y316925D02*X424712D01*
Y312389D01*
X428264D01*
Y316925D01*
G37*
G36*
X433382D02*X429830D01*
Y312389D01*
X433382D01*
Y316925D01*
G37*
G36*
X346747Y276157D02*Y272157D01*
X351347D01*
Y276157D01*
X346747D01*
G37*
G36*
X361747D02*Y272157D01*
X366347D01*
Y276157D01*
X361747D01*
G37*
G36*
X346747Y268357D02*Y264357D01*
X351347D01*
Y268357D01*
X346747D01*
G37*
G36*
X361747D02*Y264357D01*
X366347D01*
Y268357D01*
X361747D01*
G37*
G36*
X354947Y272257D02*Y268257D01*
X359547D01*
Y272257D01*
X354947D01*
G37*
G36*
X369947D02*Y268257D01*
X374547D01*
Y272257D01*
X369947D01*
G37*
G36*
X378757Y273834D02*X376189D01*
Y270480D01*
X378757D01*
Y273834D01*
G37*
G36*
X381905D02*X379337D01*
Y270480D01*
X381905D01*
Y273834D01*
G37*
G36*
X386757D02*X384189D01*
Y270480D01*
X386757D01*
Y273834D01*
G37*
G36*
X389905D02*X387337D01*
Y270480D01*
X389905D01*
Y273834D01*
G37*
G36*
X382264Y265925D02*X378712D01*
Y261389D01*
X382264D01*
Y265925D01*
G37*
G36*
X378757Y269834D02*X376189D01*
Y266480D01*
X378757D01*
Y269834D01*
G37*
G36*
X381905D02*X379337D01*
Y266480D01*
X381905D01*
Y269834D01*
G37*
G36*
X361747Y295357D02*Y291357D01*
X366347D01*
Y295357D01*
X361747D01*
G37*
G36*
X382264Y292925D02*X378712D01*
Y288389D01*
X382264D01*
Y292925D01*
G37*
G36*
X387382D02*X383830D01*
Y288389D01*
X387382D01*
Y292925D01*
G37*
G36*
X346747Y254157D02*Y250157D01*
X351347D01*
Y254157D01*
X346747D01*
G37*
G36*
Y246357D02*Y242357D01*
X351347D01*
Y246357D01*
X346747D01*
G37*
G36*
X354947Y250257D02*Y246257D01*
X359547D01*
Y250257D01*
X354947D01*
G37*
G36*
X361747Y254157D02*Y250157D01*
X366347D01*
Y254157D01*
X361747D01*
G37*
G36*
Y246357D02*Y242357D01*
X366347D01*
Y246357D01*
X361747D01*
G37*
G36*
X369947Y250257D02*Y246257D01*
X374547D01*
Y250257D01*
X369947D01*
G37*
G36*
X378757Y251834D02*X376189D01*
Y248480D01*
X378757D01*
Y251834D01*
G37*
G36*
X382264Y256925D02*X378712D01*
Y252389D01*
X382264D01*
Y256925D01*
G37*
G36*
X387382D02*X383830D01*
Y252389D01*
X387382D01*
Y256925D01*
G37*
G36*
X381905Y251834D02*X379337D01*
Y248480D01*
X381905D01*
Y251834D01*
G37*
G36*
X386757D02*X384189D01*
Y248480D01*
X386757D01*
Y251834D01*
G37*
G36*
X389905D02*X387337D01*
Y248480D01*
X389905D01*
Y251834D01*
G37*
G36*
X382264Y243925D02*X378712D01*
Y239389D01*
X382264D01*
Y243925D01*
G37*
G36*
X387382D02*X383830D01*
Y239389D01*
X387382D01*
Y243925D01*
G37*
G36*
X386757Y247834D02*X384189D01*
Y244480D01*
X386757D01*
Y247834D01*
G37*
G36*
X389905D02*X387337D01*
Y244480D01*
X389905D01*
Y247834D01*
G37*
G36*
X378757D02*X376189D01*
Y244480D01*
X378757D01*
Y247834D01*
G37*
G36*
X381905D02*X379337D01*
Y244480D01*
X381905D01*
Y247834D01*
G37*
G36*
X382264Y278925D02*X378712D01*
Y274389D01*
X382264D01*
Y278925D01*
G37*
G36*
X387382D02*X383830D01*
Y274389D01*
X387382D01*
Y278925D01*
G37*
G36*
X392747Y292157D02*Y288157D01*
X397347D01*
Y292157D01*
X392747D01*
G37*
G36*
Y284357D02*Y280357D01*
X397347D01*
Y284357D01*
X392747D01*
G37*
G36*
X387382Y265925D02*X383830D01*
Y261389D01*
X387382D01*
Y265925D01*
G37*
G36*
X386757Y269834D02*X384189D01*
Y266480D01*
X386757D01*
Y269834D01*
G37*
G36*
X389905D02*X387337D01*
Y266480D01*
X389905D01*
Y269834D01*
G37*
G36*
X407747Y292157D02*Y288157D01*
X412347D01*
Y292157D01*
X407747D01*
G37*
G36*
Y284357D02*Y280357D01*
X412347D01*
Y284357D01*
X407747D01*
G37*
G36*
X415947Y288257D02*Y284257D01*
X420547D01*
Y288257D01*
X415947D01*
G37*
G36*
X400947D02*Y284257D01*
X405547D01*
Y288257D01*
X400947D01*
G37*
G36*
X346747Y295357D02*Y291357D01*
X351347D01*
Y295357D01*
X346747D01*
G37*
G36*
X321845Y294352D02*X323661Y292537D01*
X326032Y294908D01*
X324217Y296724D01*
X321845Y294352D01*
G37*
G36*
X318912Y290214D02*X320728Y288398D01*
X323099Y290770D01*
X321283Y292586D01*
X318912Y290214D01*
G37*
G36*
X321138Y287988D02*X322954Y286172D01*
X325325Y288544D01*
X323509Y290360D01*
X321138Y287988D01*
G37*
G36*
X328370Y282015D02*Y279447D01*
X331724D01*
Y282015D01*
X328370D01*
G37*
G36*
Y278867D02*Y276299D01*
X331724D01*
Y278867D01*
X328370D01*
G37*
G36*
X332870Y282367D02*Y279799D01*
X336224D01*
Y282367D01*
X332870D01*
G37*
G36*
Y285515D02*Y282947D01*
X336224D01*
Y285515D01*
X332870D01*
G37*
G36*
X327870Y268367D02*Y265799D01*
X331224D01*
Y268367D01*
X327870D01*
G37*
G36*
X306882Y271864D02*X305066Y270048D01*
X307438Y267677D01*
X309254Y269493D01*
X306882Y271864D01*
G37*
G36*
X304656Y269638D02*X302840Y267822D01*
X305212Y265451D01*
X307028Y267267D01*
X304656Y269638D01*
G37*
G36*
X309882Y268864D02*X308066Y267048D01*
X310438Y264677D01*
X312254Y266493D01*
X309882Y268864D01*
G37*
G36*
X307656Y266638D02*X305840Y264822D01*
X308212Y262451D01*
X310028Y264267D01*
X307656Y266638D01*
G37*
G36*
X327870Y271515D02*Y268947D01*
X331224D01*
Y271515D01*
X327870D01*
G37*
G36*
X332870Y272367D02*Y269799D01*
X336224D01*
Y272367D01*
X332870D01*
G37*
G36*
Y275515D02*Y272947D01*
X336224D01*
Y275515D01*
X332870D01*
G37*
G36*
X304062Y305064D02*X305878Y303248D01*
X308250Y305620D01*
X306434Y307436D01*
X304062Y305064D01*
G37*
G36*
X306288Y302838D02*X308104Y301022D01*
X310476Y303394D01*
X308660Y305210D01*
X306288Y302838D01*
G37*
G36*
X332870Y243515D02*Y240947D01*
X336224D01*
Y243515D01*
X332870D01*
G37*
G36*
Y251367D02*Y248799D01*
X336224D01*
Y251367D01*
X332870D01*
G37*
G36*
Y254515D02*Y251947D01*
X336224D01*
Y254515D01*
X332870D01*
G37*
G36*
X327870Y250515D02*Y247947D01*
X331224D01*
Y250515D01*
X327870D01*
G37*
G36*
Y247367D02*Y244799D01*
X331224D01*
Y247367D01*
X327870D01*
G37*
G36*
X328370Y261015D02*Y258447D01*
X331724D01*
Y261015D01*
X328370D01*
G37*
G36*
X332870Y261367D02*Y258799D01*
X336224D01*
Y261367D01*
X332870D01*
G37*
G36*
Y264515D02*Y261947D01*
X336224D01*
Y264515D01*
X332870D01*
G37*
G36*
X328370Y257867D02*Y255299D01*
X331724D01*
Y257867D01*
X328370D01*
G37*
G36*
X301009Y203827D02*X298497Y201315D01*
X301705Y198107D01*
X304216Y200619D01*
X301009Y203827D01*
G37*
G36*
X297390Y200208D02*X294878Y197696D01*
X298086Y194488D01*
X300597Y197000D01*
X297390Y200208D01*
G37*
G36*
X292390Y205208D02*X289878Y202696D01*
X293086Y199488D01*
X295597Y202000D01*
X292390Y205208D01*
G37*
G36*
X296009Y208827D02*X293497Y206315D01*
X296705Y203107D01*
X299216Y205619D01*
X296009Y208827D01*
G37*
G36*
X292285Y224223D02*X291294Y223231D01*
X294688Y219837D01*
X295679Y220829D01*
X292285Y224223D01*
G37*
G36*
X293677Y225615D02*X292686Y224624D01*
X296080Y221230D01*
X297071Y222221D01*
X293677Y225615D01*
G37*
G36*
X295069Y227007D02*X294078Y226015D01*
X297472Y222621D01*
X298463Y223613D01*
X295069Y227007D01*
G37*
G36*
X296461Y228399D02*X295470Y227408D01*
X298864Y224013D01*
X299855Y225005D01*
X296461Y228399D01*
G37*
G36*
X297853Y229791D02*X296861Y228799D01*
X300256Y225405D01*
X301247Y226396D01*
X297853Y229791D01*
G37*
G36*
X299245Y231183D02*X298254Y230191D01*
X301648Y226797D01*
X302639Y227789D01*
X299245Y231183D01*
G37*
G36*
X300637Y232574D02*X299645Y231583D01*
X303039Y228189D01*
X304031Y229180D01*
X300637Y232574D01*
G37*
G36*
X302029Y233967D02*X301038Y232975D01*
X304431Y229581D01*
X305423Y230572D01*
X302029Y233967D01*
G37*
G36*
X303420Y235358D02*X302429Y234366D01*
X305823Y230973D01*
X306815Y231964D01*
X303420Y235358D01*
G37*
G36*
X304813Y236750D02*X303822Y235759D01*
X307215Y232365D01*
X308207Y233356D01*
X304813Y236750D01*
G37*
G36*
X306204Y238142D02*X305213Y237151D01*
X308607Y233757D01*
X309598Y234748D01*
X306204Y238142D01*
G37*
G36*
X307597Y239534D02*X306605Y238543D01*
X310000Y235149D01*
X310991Y236141D01*
X307597Y239534D01*
G37*
G36*
X308988Y240926D02*X307997Y239935D01*
X311391Y236541D01*
X312382Y237532D01*
X308988Y240926D01*
G37*
G36*
X307996Y248381D02*X308988Y247390D01*
X312382Y250784D01*
X311390Y251775D01*
X307996Y248381D01*
G37*
G36*
X306605Y249772D02*X307596Y248781D01*
X310990Y252175D01*
X309999Y253167D01*
X306605Y249772D01*
G37*
G36*
X305213Y251165D02*X306204Y250174D01*
X309598Y253568D01*
X308606Y254559D01*
X305213Y251165D01*
G37*
G36*
X303821Y252557D02*X304812Y251565D01*
X308206Y254959D01*
X307215Y255950D01*
X303821Y252557D01*
G37*
G36*
X302428Y253948D02*X303420Y252957D01*
X306814Y256352D01*
X305822Y257343D01*
X302428Y253948D01*
G37*
G36*
X301037Y255341D02*X302028Y254349D01*
X305422Y257743D01*
X304431Y258734D01*
X301037Y255341D01*
G37*
G36*
X299644Y256733D02*X300636Y255741D01*
X304030Y259135D01*
X303039Y260127D01*
X299644Y256733D01*
G37*
G36*
X298253Y258124D02*X299244Y257133D01*
X302639Y260527D01*
X301647Y261518D01*
X298253Y258124D01*
G37*
G36*
X296861Y259517D02*X297852Y258525D01*
X301246Y261919D01*
X300255Y262911D01*
X296861Y259517D01*
G37*
G36*
X295469Y260908D02*X296461Y259917D01*
X299855Y263311D01*
X298863Y264302D01*
X295469Y260908D01*
G37*
G36*
X294077Y262300D02*X295068Y261309D01*
X298462Y264703D01*
X297471Y265695D01*
X294077Y262300D01*
G37*
G36*
X292685Y263692D02*X293677Y262701D01*
X297070Y266095D01*
X296079Y267086D01*
X292685Y263692D01*
G37*
G36*
X291293Y265084D02*X292284Y264093D01*
X295678Y267487D01*
X294687Y268478D01*
X291293Y265084D01*
G37*
G36*
X289902Y266476D02*X290893Y265485D01*
X294287Y268879D01*
X293295Y269870D01*
X289902Y266476D01*
G37*
G36*
X288509Y267868D02*X289500Y266877D01*
X292895Y270271D01*
X291903Y271262D01*
X288509Y267868D01*
G37*
G36*
X287118Y269260D02*X288109Y268268D01*
X291503Y271663D01*
X290511Y272654D01*
X287118Y269260D01*
G37*
G36*
X285725Y270652D02*X286717Y269661D01*
X290111Y273055D01*
X289119Y274046D01*
X285725Y270652D01*
G37*
G36*
X284334Y272044D02*X285325Y271052D01*
X288719Y274447D01*
X287727Y275438D01*
X284334Y272044D01*
G37*
G36*
X282941Y273436D02*X283933Y272444D01*
X287327Y275839D01*
X286335Y276830D01*
X282941Y273436D01*
G37*
G36*
X281550Y274828D02*X282541Y273836D01*
X285935Y277230D01*
X284944Y278222D01*
X281550Y274828D01*
G37*
G36*
X280157Y276220D02*X281149Y275228D01*
X284543Y278622D01*
X283552Y279614D01*
X280157Y276220D01*
G37*
G36*
X278766Y277611D02*X279757Y276620D01*
X283151Y280014D01*
X282160Y281006D01*
X278766Y277611D01*
G37*
G36*
X277374Y279004D02*X278365Y278012D01*
X281759Y281406D01*
X280768Y282398D01*
X277374Y279004D01*
G37*
G36*
X275982Y280395D02*X276973Y279404D01*
X280367Y282798D01*
X279376Y283789D01*
X275982Y280395D01*
G37*
G36*
X363547Y434157D02*Y431157D01*
X373047D01*
Y434157D01*
X363547D01*
G37*
G36*
Y429157D02*Y426157D01*
X373047D01*
Y429157D01*
X363547D01*
G37*
G36*
Y424157D02*Y421157D01*
X373047D01*
Y424157D01*
X363547D01*
G37*
G36*
Y419157D02*Y416157D01*
X373047D01*
Y419157D01*
X363547D01*
G37*
G36*
Y414157D02*Y411157D01*
X373047D01*
Y414157D01*
X363547D01*
G37*
G36*
Y409157D02*Y406157D01*
X373047D01*
Y409157D01*
X363547D01*
G37*
G36*
Y404157D02*Y401157D01*
X373047D01*
Y404157D01*
X363547D01*
G37*
G36*
X372405Y392334D02*X369837D01*
Y388980D01*
X372405D01*
Y392334D01*
G37*
G36*
X369257D02*X366689D01*
Y388980D01*
X369257D01*
Y392334D01*
G37*
G36*
X363547Y399157D02*Y396157D01*
X373047D01*
Y399157D01*
X363547D01*
G37*
G36*
X384047D02*Y396157D01*
X393547D01*
Y399157D01*
X384047D01*
G37*
G36*
Y404157D02*Y401157D01*
X393547D01*
Y404157D01*
X384047D01*
G37*
G36*
Y409157D02*Y406157D01*
X393547D01*
Y409157D01*
X384047D01*
G37*
G36*
Y414157D02*Y411157D01*
X393547D01*
Y414157D01*
X384047D01*
G37*
G36*
Y419157D02*Y416157D01*
X393547D01*
Y419157D01*
X384047D01*
G37*
G36*
Y424157D02*Y421157D01*
X393547D01*
Y424157D01*
X384047D01*
G37*
G36*
Y429157D02*Y426157D01*
X393547D01*
Y429157D01*
X384047D01*
G37*
G36*
Y434157D02*Y431157D01*
X393547D01*
Y434157D01*
X384047D01*
G37*
G36*
X391882Y442425D02*X388330D01*
Y437889D01*
X391882D01*
Y442425D01*
G37*
G36*
X386764D02*X383212D01*
Y437889D01*
X386764D01*
Y442425D01*
G37*
G36*
X373882D02*X370330D01*
Y437889D01*
X373882D01*
Y442425D01*
G37*
G36*
X368764D02*X365212D01*
Y437889D01*
X368764D01*
Y442425D01*
G37*
G36*
X407747Y123157D02*Y119157D01*
X412347D01*
Y123157D01*
X407747D01*
G37*
G36*
Y115357D02*Y111357D01*
X412347D01*
Y115357D01*
X407747D01*
G37*
G36*
X392747Y123157D02*Y119157D01*
X397347D01*
Y123157D01*
X392747D01*
G37*
G36*
X400947Y119257D02*Y115257D01*
X405547D01*
Y119257D01*
X400947D01*
G37*
G36*
X415947D02*Y115257D01*
X420547D01*
Y119257D01*
X415947D01*
G37*
G36*
X432757Y116834D02*X430189D01*
Y113480D01*
X432757D01*
Y116834D01*
G37*
G36*
X424757D02*X422189D01*
Y113480D01*
X424757D01*
Y116834D01*
G37*
G36*
X427905D02*X425337D01*
Y113480D01*
X427905D01*
Y116834D01*
G37*
G36*
X424757Y120834D02*X422189D01*
Y117480D01*
X424757D01*
Y120834D01*
G37*
G36*
X427905D02*X425337D01*
Y117480D01*
X427905D01*
Y120834D01*
G37*
G36*
X435905Y116834D02*X433337D01*
Y113480D01*
X435905D01*
Y116834D01*
G37*
G36*
X428264Y112925D02*X424712D01*
Y108389D01*
X428264D01*
Y112925D01*
G37*
G36*
Y125925D02*X424712D01*
Y121389D01*
X428264D01*
Y125925D01*
G37*
G36*
X432757Y120834D02*X430189D01*
Y117480D01*
X432757D01*
Y120834D01*
G37*
G36*
X435905D02*X433337D01*
Y117480D01*
X435905D01*
Y120834D01*
G37*
G36*
X433382Y125925D02*X429830D01*
Y121389D01*
X433382D01*
Y125925D01*
G37*
G36*
Y112925D02*X429830D01*
Y108389D01*
X433382D01*
Y112925D01*
G37*
G36*
X392747Y115357D02*Y111357D01*
X397347D01*
Y115357D01*
X392747D01*
G37*
G36*
X402295Y102059D02*Y96341D01*
X408799D01*
Y102059D01*
X402295D01*
G37*
G36*
Y94973D02*Y89255D01*
X408799D01*
Y94973D01*
X402295D01*
G37*
G36*
X393338Y102059D02*Y96341D01*
X399842D01*
Y102059D01*
X393338D01*
G37*
G36*
Y94973D02*Y89255D01*
X399842D01*
Y94973D01*
X393338D01*
G37*
G36*
X390047Y80157D02*Y77157D01*
X399547D01*
Y80157D01*
X390047D01*
G37*
G36*
X410547D02*Y77157D01*
X420047D01*
Y80157D01*
X410547D01*
G37*
G36*
X390047Y75157D02*Y72157D01*
X399547D01*
Y75157D01*
X390047D01*
G37*
G36*
X410547D02*Y72157D01*
X420047D01*
Y75157D01*
X410547D01*
G37*
G36*
X390047Y70157D02*Y67157D01*
X399547D01*
Y70157D01*
X390047D01*
G37*
G36*
X410547D02*Y67157D01*
X420047D01*
Y70157D01*
X410547D01*
G37*
G36*
X390047Y65157D02*Y62157D01*
X399547D01*
Y65157D01*
X390047D01*
G37*
G36*
X410547D02*Y62157D01*
X420047D01*
Y65157D01*
X410547D01*
G37*
G36*
X428779Y51374D02*Y47822D01*
X433315D01*
Y51374D01*
X428779D01*
G37*
G36*
Y56492D02*Y52940D01*
X433315D01*
Y56492D01*
X428779D01*
G37*
G54D68*X440047Y54157D03*
G54D62*G36*
X422779Y51374D02*Y47822D01*
X427315D01*
Y51374D01*
X422779D01*
G37*
G36*
Y56492D02*Y52940D01*
X427315D01*
Y56492D01*
X422779D01*
G37*
G36*
X416779Y51374D02*Y47822D01*
X421315D01*
Y51374D01*
X416779D01*
G37*
G36*
Y56492D02*Y52940D01*
X421315D01*
Y56492D01*
X416779D01*
G37*
G36*
X405047Y50457D02*X401047D01*
Y45857D01*
X405047D01*
Y50457D01*
G37*
G36*
X412847D02*X408847D01*
Y45857D01*
X412847D01*
Y50457D01*
G37*
G36*
X408947Y58657D02*X404947D01*
Y54057D01*
X408947D01*
Y58657D01*
G37*
G36*
X395847Y50457D02*X391847D01*
Y45857D01*
X395847D01*
Y50457D01*
G37*
G54D68*X440047Y24657D03*
G54D62*G36*
X395847Y31457D02*X391847D01*
Y26857D01*
X395847D01*
Y31457D01*
G37*
G36*
X398779Y32374D02*Y28822D01*
X403315D01*
Y32374D01*
X398779D01*
G37*
G36*
Y37492D02*Y33940D01*
X403315D01*
Y37492D01*
X398779D01*
G37*
G36*
X416047Y31457D02*X412047D01*
Y26857D01*
X416047D01*
Y31457D01*
G37*
G36*
X423847D02*X419847D01*
Y26857D01*
X423847D01*
Y31457D01*
G37*
G36*
X419947Y39657D02*X415947D01*
Y35057D01*
X419947D01*
Y39657D01*
G37*
G36*
X426779Y37492D02*Y33940D01*
X431315D01*
Y37492D01*
X426779D01*
G37*
G36*
Y32374D02*Y28822D01*
X431315D01*
Y32374D01*
X426779D01*
G37*
G36*
X404779Y37492D02*Y33940D01*
X409315D01*
Y37492D01*
X404779D01*
G37*
G36*
Y32374D02*Y28822D01*
X409315D01*
Y32374D01*
X404779D01*
G37*
G36*
X403779Y19492D02*Y15940D01*
X408315D01*
Y19492D01*
X403779D01*
G37*
G36*
Y14374D02*Y10822D01*
X408315D01*
Y14374D01*
X403779D01*
G37*
G36*
X411747Y21157D02*Y17157D01*
X416347D01*
Y21157D01*
X411747D01*
G37*
G36*
Y13357D02*Y9357D01*
X416347D01*
Y13357D01*
X411747D01*
G37*
G36*
X419947Y17257D02*Y13257D01*
X424547D01*
Y17257D01*
X419947D01*
G37*
G36*
X427779Y14374D02*Y10822D01*
X432315D01*
Y14374D01*
X427779D01*
G37*
G36*
Y19492D02*Y15940D01*
X432315D01*
Y19492D01*
X427779D01*
G37*
G36*
X407747Y172157D02*Y168157D01*
X412347D01*
Y172157D01*
X407747D01*
G37*
G36*
X392747D02*Y168157D01*
X397347D01*
Y172157D01*
X392747D01*
G37*
G36*
X400947Y168257D02*Y164257D01*
X405547D01*
Y168257D01*
X400947D01*
G37*
G36*
X407747Y164357D02*Y160357D01*
X412347D01*
Y164357D01*
X407747D01*
G37*
G36*
X392747D02*Y160357D01*
X397347D01*
Y164357D01*
X392747D01*
G37*
G36*
X407747Y150157D02*Y146157D01*
X412347D01*
Y150157D01*
X407747D01*
G37*
G36*
Y142357D02*Y138357D01*
X412347D01*
Y142357D01*
X407747D01*
G37*
G36*
X392747Y150157D02*Y146157D01*
X397347D01*
Y150157D01*
X392747D01*
G37*
G36*
Y142357D02*Y138357D01*
X397347D01*
Y142357D01*
X392747D01*
G37*
G36*
X400947Y146257D02*Y142257D01*
X405547D01*
Y146257D01*
X400947D01*
G37*
G36*
X415947Y168257D02*Y164257D01*
X420547D01*
Y168257D01*
X415947D01*
G37*
G36*
X424757Y165834D02*X422189D01*
Y162480D01*
X424757D01*
Y165834D01*
G37*
G36*
Y169834D02*X422189D01*
Y166480D01*
X424757D01*
Y169834D01*
G37*
G36*
X432757Y165834D02*X430189D01*
Y162480D01*
X432757D01*
Y165834D01*
G37*
G36*
X435905D02*X433337D01*
Y162480D01*
X435905D01*
Y165834D01*
G37*
G36*
X428264Y161925D02*X424712D01*
Y157389D01*
X428264D01*
Y161925D01*
G37*
G36*
X433382D02*X429830D01*
Y157389D01*
X433382D01*
Y161925D01*
G37*
G36*
X427905Y165834D02*X425337D01*
Y162480D01*
X427905D01*
Y165834D01*
G37*
G36*
X432757Y169834D02*X430189D01*
Y166480D01*
X432757D01*
Y169834D01*
G37*
G36*
X435905D02*X433337D01*
Y166480D01*
X435905D01*
Y169834D01*
G37*
G36*
X428264Y174925D02*X424712D01*
Y170389D01*
X428264D01*
Y174925D01*
G37*
G36*
X427905Y169834D02*X425337D01*
Y166480D01*
X427905D01*
Y169834D01*
G37*
G36*
X433382Y174925D02*X429830D01*
Y170389D01*
X433382D01*
Y174925D01*
G37*
G36*
X415947Y146257D02*Y142257D01*
X420547D01*
Y146257D01*
X415947D01*
G37*
G36*
X424757Y143834D02*X422189D01*
Y140480D01*
X424757D01*
Y143834D01*
G37*
G36*
Y147834D02*X422189D01*
Y144480D01*
X424757D01*
Y147834D01*
G37*
G36*
X435905Y143834D02*X433337D01*
Y140480D01*
X435905D01*
Y143834D01*
G37*
G36*
X432757D02*X430189D01*
Y140480D01*
X432757D01*
Y143834D01*
G37*
G36*
X428264Y139925D02*X424712D01*
Y135389D01*
X428264D01*
Y139925D01*
G37*
G36*
X433382D02*X429830D01*
Y135389D01*
X433382D01*
Y139925D01*
G37*
G36*
X427905Y143834D02*X425337D01*
Y140480D01*
X427905D01*
Y143834D01*
G37*
G36*
X432757Y147834D02*X430189D01*
Y144480D01*
X432757D01*
Y147834D01*
G37*
G36*
X427905D02*X425337D01*
Y144480D01*
X427905D01*
Y147834D01*
G37*
G36*
X435905D02*X433337D01*
Y144480D01*
X435905D01*
Y147834D01*
G37*
G36*
X428264Y152925D02*X424712D01*
Y148389D01*
X428264D01*
Y152925D01*
G37*
G36*
X433382D02*X429830D01*
Y148389D01*
X433382D01*
Y152925D01*
G37*
G36*
X346747Y183157D02*Y179157D01*
X351347D01*
Y183157D01*
X346747D01*
G37*
G36*
X354947Y179257D02*Y175257D01*
X359547D01*
Y179257D01*
X354947D01*
G37*
G36*
X346747Y175357D02*Y171357D01*
X351347D01*
Y175357D01*
X346747D01*
G37*
G36*
Y161157D02*Y157157D01*
X351347D01*
Y161157D01*
X346747D01*
G37*
G36*
Y153357D02*Y149357D01*
X351347D01*
Y153357D01*
X346747D01*
G37*
G36*
X354947Y157257D02*Y153257D01*
X359547D01*
Y157257D01*
X354947D01*
G37*
G36*
X361747Y161157D02*Y157157D01*
X366347D01*
Y161157D01*
X361747D01*
G37*
G36*
Y153357D02*Y149357D01*
X366347D01*
Y153357D01*
X361747D01*
G37*
G36*
X369947Y157257D02*Y153257D01*
X374547D01*
Y157257D01*
X369947D01*
G37*
G36*
X382264Y163925D02*X378712D01*
Y159389D01*
X382264D01*
Y163925D01*
G37*
G36*
X387382D02*X383830D01*
Y159389D01*
X387382D01*
Y163925D01*
G37*
G36*
X378757Y158834D02*X376189D01*
Y155480D01*
X378757D01*
Y158834D01*
G37*
G36*
X381905D02*X379337D01*
Y155480D01*
X381905D01*
Y158834D01*
G37*
G36*
X382264Y150925D02*X378712D01*
Y146389D01*
X382264D01*
Y150925D01*
G37*
G36*
X378757Y154834D02*X376189D01*
Y151480D01*
X378757D01*
Y154834D01*
G37*
G36*
X381905D02*X379337D01*
Y151480D01*
X381905D01*
Y154834D01*
G37*
G36*
X386757Y158834D02*X384189D01*
Y155480D01*
X386757D01*
Y158834D01*
G37*
G36*
X387382Y150925D02*X383830D01*
Y146389D01*
X387382D01*
Y150925D01*
G37*
G36*
X386757Y154834D02*X384189D01*
Y151480D01*
X386757D01*
Y154834D01*
G37*
G36*
X389905Y158834D02*X387337D01*
Y155480D01*
X389905D01*
Y158834D01*
G37*
G36*
Y154834D02*X387337D01*
Y151480D01*
X389905D01*
Y154834D01*
G37*
G36*
X361747Y183157D02*Y179157D01*
X366347D01*
Y183157D01*
X361747D01*
G37*
G36*
Y175357D02*Y171357D01*
X366347D01*
Y175357D01*
X361747D01*
G37*
G36*
X369947Y179257D02*Y175257D01*
X374547D01*
Y179257D01*
X369947D01*
G37*
G36*
X378757Y176834D02*X376189D01*
Y173480D01*
X378757D01*
Y176834D01*
G37*
G36*
Y180834D02*X376189D01*
Y177480D01*
X378757D01*
Y180834D01*
G37*
G36*
X381905D02*X379337D01*
Y177480D01*
X381905D01*
Y180834D01*
G37*
G36*
X386757D02*X384189D01*
Y177480D01*
X386757D01*
Y180834D01*
G37*
G36*
X389905D02*X387337D01*
Y177480D01*
X389905D01*
Y180834D01*
G37*
G36*
X382264Y172925D02*X378712D01*
Y168389D01*
X382264D01*
Y172925D01*
G37*
G36*
X387382D02*X383830D01*
Y168389D01*
X387382D01*
Y172925D01*
G37*
G36*
X381905Y176834D02*X379337D01*
Y173480D01*
X381905D01*
Y176834D01*
G37*
G36*
X386757D02*X384189D01*
Y173480D01*
X386757D01*
Y176834D01*
G37*
G36*
X389905D02*X387337D01*
Y173480D01*
X389905D01*
Y176834D01*
G37*
G36*
X336047Y37157D02*X333047D01*
Y27657D01*
X336047D01*
Y37157D01*
G37*
G36*
X331047D02*X328047D01*
Y27657D01*
X331047D01*
Y37157D01*
G37*
G36*
X326047D02*X323047D01*
Y27657D01*
X326047D01*
Y37157D01*
G37*
G36*
X321047D02*X318047D01*
Y27657D01*
X321047D01*
Y37157D01*
G37*
G36*
X316047D02*X313047D01*
Y27657D01*
X316047D01*
Y37157D01*
G37*
G36*
X311047D02*X308047D01*
Y27657D01*
X311047D01*
Y37157D01*
G37*
G36*
X306047D02*X303047D01*
Y27657D01*
X306047D01*
Y37157D01*
G37*
G36*
Y16657D02*X303047D01*
Y7157D01*
X306047D01*
Y16657D01*
G37*
G36*
X311047D02*X308047D01*
Y7157D01*
X311047D01*
Y16657D01*
G37*
G36*
X316047D02*X313047D01*
Y7157D01*
X316047D01*
Y16657D01*
G37*
G36*
X321047D02*X318047D01*
Y7157D01*
X321047D01*
Y16657D01*
G37*
G36*
X326047D02*X323047D01*
Y7157D01*
X326047D01*
Y16657D01*
G37*
G36*
X331047D02*X328047D01*
Y7157D01*
X331047D01*
Y16657D01*
G37*
G36*
X336047D02*X333047D01*
Y7157D01*
X336047D01*
Y16657D01*
G37*
G36*
X338779Y25492D02*Y21940D01*
X343315D01*
Y25492D01*
X338779D01*
G37*
G36*
X345779D02*Y21940D01*
X350315D01*
Y25492D01*
X345779D01*
G37*
G36*
X351779D02*Y21940D01*
X356315D01*
Y25492D01*
X351779D01*
G37*
G36*
X357779D02*Y21940D01*
X362315D01*
Y25492D01*
X357779D01*
G37*
G36*
X338779Y20374D02*Y16822D01*
X343315D01*
Y20374D01*
X338779D01*
G37*
G36*
X345779D02*Y16822D01*
X350315D01*
Y20374D01*
X345779D01*
G37*
G36*
X351779D02*Y16822D01*
X356315D01*
Y20374D01*
X351779D01*
G37*
G36*
X357779D02*Y16822D01*
X362315D01*
Y20374D01*
X357779D01*
G37*
G36*
X345779Y38492D02*Y34940D01*
X350315D01*
Y38492D01*
X345779D01*
G37*
G36*
Y33374D02*Y29822D01*
X350315D01*
Y33374D01*
X345779D01*
G37*
G36*
X356047Y38657D02*X353047D01*
Y29157D01*
X356047D01*
Y38657D01*
G37*
G36*
X361047D02*X358047D01*
Y29157D01*
X361047D01*
Y38657D01*
G37*
G36*
X366047D02*X363047D01*
Y29157D01*
X366047D01*
Y38657D01*
G37*
G36*
X363779Y20374D02*Y16822D01*
X368315D01*
Y20374D01*
X363779D01*
G37*
G36*
Y25492D02*Y21940D01*
X368315D01*
Y25492D01*
X363779D01*
G37*
G36*
X371047Y38657D02*X368047D01*
Y29157D01*
X371047D01*
Y38657D01*
G37*
G36*
X369779Y20374D02*Y16822D01*
X374315D01*
Y20374D01*
X369779D01*
G37*
G36*
Y25492D02*Y21940D01*
X374315D01*
Y25492D01*
X369779D01*
G37*
G36*
X358001Y14197D02*X352283D01*
Y6117D01*
X358001D01*
Y14197D01*
G37*
G36*
X369811D02*X364093D01*
Y6117D01*
X369811D01*
Y14197D01*
G37*
G36*
X310779Y61374D02*Y57822D01*
X315315D01*
Y61374D01*
X310779D01*
G37*
G36*
X321047Y57657D02*X318047D01*
Y48157D01*
X321047D01*
Y57657D01*
G37*
G36*
X326047D02*X323047D01*
Y48157D01*
X326047D01*
Y57657D01*
G37*
G36*
X331047D02*X328047D01*
Y48157D01*
X331047D01*
Y57657D01*
G37*
G36*
X336047D02*X333047D01*
Y48157D01*
X336047D01*
Y57657D01*
G37*
G36*
X310779Y66492D02*Y62940D01*
X315315D01*
Y66492D01*
X310779D01*
G37*
G36*
Y72374D02*Y68822D01*
X315315D01*
Y72374D01*
X310779D01*
G37*
G36*
Y77492D02*Y73940D01*
X315315D01*
Y77492D01*
X310779D01*
G37*
G36*
X321047Y78157D02*X318047D01*
Y68657D01*
X321047D01*
Y78157D01*
G37*
G36*
X336047D02*X333047D01*
Y68657D01*
X336047D01*
Y78157D01*
G37*
G36*
X331047D02*X328047D01*
Y68657D01*
X331047D01*
Y78157D01*
G37*
G36*
X326047D02*X323047D01*
Y68657D01*
X326047D01*
Y78157D01*
G37*
G36*
X346747Y134157D02*Y130157D01*
X351347D01*
Y134157D01*
X346747D01*
G37*
G36*
Y126357D02*Y122357D01*
X351347D01*
Y126357D01*
X346747D01*
G37*
G36*
X354947Y130257D02*Y126257D01*
X359547D01*
Y130257D01*
X354947D01*
G37*
G36*
X346747Y112157D02*Y108157D01*
X351347D01*
Y112157D01*
X346747D01*
G37*
G36*
X361747D02*Y108157D01*
X366347D01*
Y112157D01*
X361747D01*
G37*
G36*
X354947Y108257D02*Y104257D01*
X359547D01*
Y108257D01*
X354947D01*
G37*
G36*
X369947D02*Y104257D01*
X374547D01*
Y108257D01*
X369947D01*
G37*
G36*
X361747Y134157D02*Y130157D01*
X366347D01*
Y134157D01*
X361747D01*
G37*
G36*
Y126357D02*Y122357D01*
X366347D01*
Y126357D01*
X361747D01*
G37*
G36*
X369947Y130257D02*Y126257D01*
X374547D01*
Y130257D01*
X369947D01*
G37*
G36*
X378757Y131834D02*X376189D01*
Y128480D01*
X378757D01*
Y131834D01*
G37*
G36*
X382264Y123925D02*X378712D01*
Y119389D01*
X382264D01*
Y123925D01*
G37*
G36*
X378757Y127834D02*X376189D01*
Y124480D01*
X378757D01*
Y127834D01*
G37*
G36*
X381905D02*X379337D01*
Y124480D01*
X381905D01*
Y127834D01*
G37*
G36*
X389905Y131834D02*X387337D01*
Y128480D01*
X389905D01*
Y131834D01*
G37*
G36*
X382264Y136925D02*X378712D01*
Y132389D01*
X382264D01*
Y136925D01*
G37*
G36*
X387382D02*X383830D01*
Y132389D01*
X387382D01*
Y136925D01*
G37*
G36*
X381905Y131834D02*X379337D01*
Y128480D01*
X381905D01*
Y131834D01*
G37*
G36*
X386757D02*X384189D01*
Y128480D01*
X386757D01*
Y131834D01*
G37*
G36*
Y127834D02*X384189D01*
Y124480D01*
X386757D01*
Y127834D01*
G37*
G36*
X389905D02*X387337D01*
Y124480D01*
X389905D01*
Y127834D01*
G37*
G36*
X382264Y114925D02*X378712D01*
Y110389D01*
X382264D01*
Y114925D01*
G37*
G36*
X387382D02*X383830D01*
Y110389D01*
X387382D01*
Y114925D01*
G37*
G36*
X378757Y109834D02*X376189D01*
Y106480D01*
X378757D01*
Y109834D01*
G37*
G36*
X381905D02*X379337D01*
Y106480D01*
X381905D01*
Y109834D01*
G37*
G36*
X387382Y123925D02*X383830D01*
Y119389D01*
X387382D01*
Y123925D01*
G37*
G36*
X386757Y109834D02*X384189D01*
Y106480D01*
X386757D01*
Y109834D01*
G37*
G36*
X389905D02*X387337D01*
Y106480D01*
X389905D01*
Y109834D01*
G37*
G36*
X386757Y105834D02*X384189D01*
Y102480D01*
X386757D01*
Y105834D01*
G37*
G36*
X389905D02*X387337D01*
Y102480D01*
X389905D01*
Y105834D01*
G37*
G36*
X378757D02*X376189D01*
Y102480D01*
X378757D01*
Y105834D01*
G37*
G36*
X382264Y101925D02*X378712D01*
Y97389D01*
X382264D01*
Y101925D01*
G37*
G36*
X387382D02*X383830D01*
Y97389D01*
X387382D01*
Y101925D01*
G37*
G36*
X381905Y105834D02*X379337D01*
Y102480D01*
X381905D01*
Y105834D01*
G37*
G36*
X346747Y104357D02*Y100357D01*
X351347D01*
Y104357D01*
X346747D01*
G37*
G36*
X361747D02*Y100357D01*
X366347D01*
Y104357D01*
X361747D01*
G37*
G36*
X339779Y71492D02*Y67940D01*
X344315D01*
Y71492D01*
X339779D01*
G37*
G36*
X345779D02*Y67940D01*
X350315D01*
Y71492D01*
X345779D01*
G37*
G36*
X351779D02*Y67940D01*
X356315D01*
Y71492D01*
X351779D01*
G37*
G36*
X339779Y66374D02*Y62822D01*
X344315D01*
Y66374D01*
X339779D01*
G37*
G36*
X345779D02*Y62822D01*
X350315D01*
Y66374D01*
X345779D01*
G37*
G36*
X357779D02*Y62822D01*
X362315D01*
Y66374D01*
X357779D01*
G37*
G36*
X351779D02*Y62822D01*
X356315D01*
Y66374D01*
X351779D01*
G37*
G36*
X366047Y59157D02*X363047D01*
Y49657D01*
X366047D01*
Y59157D01*
G37*
G36*
X361047D02*X358047D01*
Y49657D01*
X361047D01*
Y59157D01*
G37*
G36*
X356047D02*X353047D01*
Y49657D01*
X356047D01*
Y59157D01*
G37*
G36*
X358001Y82197D02*X352283D01*
Y74117D01*
X358001D01*
Y82197D01*
G37*
G36*
X369811D02*X364093D01*
Y74117D01*
X369811D01*
Y82197D01*
G37*
G36*
X357779Y71492D02*Y67940D01*
X362315D01*
Y71492D01*
X357779D01*
G37*
G36*
X363779D02*Y67940D01*
X368315D01*
Y71492D01*
X363779D01*
G37*
G36*
Y66374D02*Y62822D01*
X368315D01*
Y66374D01*
X363779D01*
G37*
G36*
X373779Y48492D02*Y44940D01*
X378315D01*
Y48492D01*
X373779D01*
G37*
G36*
Y43374D02*Y39822D01*
X378315D01*
Y43374D01*
X373779D01*
G37*
G36*
X371047Y59157D02*X368047D01*
Y49657D01*
X371047D01*
Y59157D01*
G37*
G36*
X369779Y71492D02*Y67940D01*
X374315D01*
Y71492D01*
X369779D01*
G37*
G36*
Y66374D02*Y62822D01*
X374315D01*
Y66374D01*
X369779D01*
G37*
G36*
X382779Y65374D02*Y61822D01*
X387315D01*
Y65374D01*
X382779D01*
G37*
G36*
Y70492D02*Y66940D01*
X387315D01*
Y70492D01*
X382779D01*
G37*
G36*
X388047Y50457D02*X384047D01*
Y45857D01*
X388047D01*
Y50457D01*
G37*
G36*
X391947Y58657D02*X387947D01*
Y54057D01*
X391947D01*
Y58657D01*
G37*
G36*
X388047Y31457D02*X384047D01*
Y26857D01*
X388047D01*
Y31457D01*
G37*
G36*
X391947Y39657D02*X387947D01*
Y35057D01*
X391947D01*
Y39657D01*
G37*
G36*
X407747Y194157D02*Y190157D01*
X412347D01*
Y194157D01*
X407747D01*
G37*
G36*
Y186357D02*Y182357D01*
X412347D01*
Y186357D01*
X407747D01*
G37*
G36*
X392747Y194157D02*Y190157D01*
X397347D01*
Y194157D01*
X392747D01*
G37*
G36*
Y186357D02*Y182357D01*
X397347D01*
Y186357D01*
X392747D01*
G37*
G36*
X400947Y190257D02*Y186257D01*
X405547D01*
Y190257D01*
X400947D01*
G37*
G36*
X354947Y201257D02*Y197257D01*
X359547D01*
Y201257D01*
X354947D01*
G37*
G36*
X369947D02*Y197257D01*
X374547D01*
Y201257D01*
X369947D01*
G37*
G36*
X382264Y207925D02*X378712D01*
Y203389D01*
X382264D01*
Y207925D01*
G37*
G36*
X378757Y202834D02*X376189D01*
Y199480D01*
X378757D01*
Y202834D01*
G37*
G36*
X381905D02*X379337D01*
Y199480D01*
X381905D01*
Y202834D01*
G37*
G36*
X378757Y198834D02*X376189D01*
Y195480D01*
X378757D01*
Y198834D01*
G37*
G36*
X381905D02*X379337D01*
Y195480D01*
X381905D01*
Y198834D01*
G37*
G36*
X387382Y207925D02*X383830D01*
Y203389D01*
X387382D01*
Y207925D01*
G37*
G36*
X386757Y202834D02*X384189D01*
Y199480D01*
X386757D01*
Y202834D01*
G37*
G36*
X389905D02*X387337D01*
Y199480D01*
X389905D01*
Y202834D01*
G37*
G36*
Y198834D02*X387337D01*
Y195480D01*
X389905D01*
Y198834D01*
G37*
G36*
X382264Y185925D02*X378712D01*
Y181389D01*
X382264D01*
Y185925D01*
G37*
G36*
Y194925D02*X378712D01*
Y190389D01*
X382264D01*
Y194925D01*
G37*
G36*
X387382Y185925D02*X383830D01*
Y181389D01*
X387382D01*
Y185925D01*
G37*
G36*
Y194925D02*X383830D01*
Y190389D01*
X387382D01*
Y194925D01*
G37*
G36*
X386757Y198834D02*X384189D01*
Y195480D01*
X386757D01*
Y198834D01*
G37*
G36*
X346747Y205157D02*Y201157D01*
X351347D01*
Y205157D01*
X346747D01*
G37*
G36*
X361747D02*Y201157D01*
X366347D01*
Y205157D01*
X361747D01*
G37*
G36*
X346747Y197357D02*Y193357D01*
X351347D01*
Y197357D01*
X346747D01*
G37*
G36*
X361747D02*Y193357D01*
X366347D01*
Y197357D01*
X361747D01*
G37*
G36*
X346747Y232157D02*Y228157D01*
X351347D01*
Y232157D01*
X346747D01*
G37*
G36*
Y224357D02*Y220357D01*
X351347D01*
Y224357D01*
X346747D01*
G37*
G36*
X354947Y228257D02*Y224257D01*
X359547D01*
Y228257D01*
X354947D01*
G37*
G36*
X361747Y232157D02*Y228157D01*
X366347D01*
Y232157D01*
X361747D01*
G37*
G36*
Y224357D02*Y220357D01*
X366347D01*
Y224357D01*
X361747D01*
G37*
G36*
X369947Y228257D02*Y224257D01*
X374547D01*
Y228257D01*
X369947D01*
G37*
G36*
X378757Y229834D02*X376189D01*
Y226480D01*
X378757D01*
Y229834D01*
G37*
G36*
Y225834D02*X376189D01*
Y222480D01*
X378757D01*
Y225834D01*
G37*
G36*
X382264Y234925D02*X378712D01*
Y230389D01*
X382264D01*
Y234925D01*
G37*
G36*
X387382D02*X383830D01*
Y230389D01*
X387382D01*
Y234925D01*
G37*
G36*
X381905Y229834D02*X379337D01*
Y226480D01*
X381905D01*
Y229834D01*
G37*
G36*
X386757D02*X384189D01*
Y226480D01*
X386757D01*
Y229834D01*
G37*
G36*
X389905D02*X387337D01*
Y226480D01*
X389905D01*
Y229834D01*
G37*
G36*
X382264Y221925D02*X378712D01*
Y217389D01*
X382264D01*
Y221925D01*
G37*
G36*
X381905Y225834D02*X379337D01*
Y222480D01*
X381905D01*
Y225834D01*
G37*
G36*
X387382Y221925D02*X383830D01*
Y217389D01*
X387382D01*
Y221925D01*
G37*
G36*
X386757Y225834D02*X384189D01*
Y222480D01*
X386757D01*
Y225834D01*
G37*
G36*
X389905D02*X387337D01*
Y222480D01*
X389905D01*
Y225834D01*
G37*
G36*
X415947Y190257D02*Y186257D01*
X420547D01*
Y190257D01*
X415947D01*
G37*
G36*
X424757Y187834D02*X422189D01*
Y184480D01*
X424757D01*
Y187834D01*
G37*
G36*
Y191834D02*X422189D01*
Y188480D01*
X424757D01*
Y191834D01*
G37*
G36*
X428264Y183925D02*X424712D01*
Y179389D01*
X428264D01*
Y183925D01*
G37*
G36*
Y196925D02*X424712D01*
Y192389D01*
X428264D01*
Y196925D01*
G37*
G36*
X433382Y183925D02*X429830D01*
Y179389D01*
X433382D01*
Y183925D01*
G37*
G36*
X432757Y191834D02*X430189D01*
Y188480D01*
X432757D01*
Y191834D01*
G37*
G36*
X433382Y196925D02*X429830D01*
Y192389D01*
X433382D01*
Y196925D01*
G37*
G36*
X435905Y191834D02*X433337D01*
Y188480D01*
X435905D01*
Y191834D01*
G37*
G36*
X432757Y187834D02*X430189D01*
Y184480D01*
X432757D01*
Y187834D01*
G37*
G36*
X435905D02*X433337D01*
Y184480D01*
X435905D01*
Y187834D01*
G37*
G36*
X427905D02*X425337D01*
Y184480D01*
X427905D01*
Y187834D01*
G37*
G36*
Y191834D02*X425337D01*
Y188480D01*
X427905D01*
Y191834D01*
G37*
G36*
X407747Y235357D02*Y231357D01*
X412347D01*
Y235357D01*
X407747D01*
G37*
G36*
Y221157D02*Y217157D01*
X412347D01*
Y221157D01*
X407747D01*
G37*
G36*
X392747D02*Y217157D01*
X397347D01*
Y221157D01*
X392747D01*
G37*
G36*
X400947Y217257D02*Y213257D01*
X405547D01*
Y217257D01*
X400947D01*
G37*
G36*
X407747Y213357D02*Y209357D01*
X412347D01*
Y213357D01*
X407747D01*
G37*
G36*
X392747D02*Y209357D01*
X397347D01*
Y213357D01*
X392747D01*
G37*
G36*
X407747Y257357D02*Y253357D01*
X412347D01*
Y257357D01*
X407747D01*
G37*
G36*
Y243157D02*Y239157D01*
X412347D01*
Y243157D01*
X407747D01*
G37*
G36*
X392747Y265157D02*Y261157D01*
X397347D01*
Y265157D01*
X392747D01*
G37*
G36*
Y257357D02*Y253357D01*
X397347D01*
Y257357D01*
X392747D01*
G37*
G36*
X400947Y261257D02*Y257257D01*
X405547D01*
Y261257D01*
X400947D01*
G37*
G36*
X392747Y243157D02*Y239157D01*
X397347D01*
Y243157D01*
X392747D01*
G37*
G36*
Y235357D02*Y231357D01*
X397347D01*
Y235357D01*
X392747D01*
G37*
G36*
X400947Y239257D02*Y235257D01*
X405547D01*
Y239257D01*
X400947D01*
G37*
G36*
X415947Y217257D02*Y213257D01*
X420547D01*
Y217257D01*
X415947D01*
G37*
G36*
X424757Y214834D02*X422189D01*
Y211480D01*
X424757D01*
Y214834D01*
G37*
G36*
X428264Y210925D02*X424712D01*
Y206389D01*
X428264D01*
Y210925D01*
G37*
G36*
X433382D02*X429830D01*
Y206389D01*
X433382D01*
Y210925D01*
G37*
G36*
X427905Y214834D02*X425337D01*
Y211480D01*
X427905D01*
Y214834D01*
G37*
G36*
X432757D02*X430189D01*
Y211480D01*
X432757D01*
Y214834D01*
G37*
G36*
X435905D02*X433337D01*
Y211480D01*
X435905D01*
Y214834D01*
G37*
G36*
X432757Y218834D02*X430189D01*
Y215480D01*
X432757D01*
Y218834D01*
G37*
G36*
X435905D02*X433337D01*
Y215480D01*
X435905D01*
Y218834D01*
G37*
G36*
X428264Y223925D02*X424712D01*
Y219389D01*
X428264D01*
Y223925D01*
G37*
G36*
X433382D02*X429830D01*
Y219389D01*
X433382D01*
Y223925D01*
G37*
G36*
X424757Y218834D02*X422189D01*
Y215480D01*
X424757D01*
Y218834D01*
G37*
G36*
X427905D02*X425337D01*
Y215480D01*
X427905D01*
Y218834D01*
G37*
G36*
X407747Y265157D02*Y261157D01*
X412347D01*
Y265157D01*
X407747D01*
G37*
G36*
X415947Y261257D02*Y257257D01*
X420547D01*
Y261257D01*
X415947D01*
G37*
G36*
X424757Y262834D02*X422189D01*
Y259480D01*
X424757D01*
Y262834D01*
G37*
G36*
X432757Y258834D02*X430189D01*
Y255480D01*
X432757D01*
Y258834D01*
G37*
G36*
X428264Y254925D02*X424712D01*
Y250389D01*
X428264D01*
Y254925D01*
G37*
G36*
X433382D02*X429830D01*
Y250389D01*
X433382D01*
Y254925D01*
G37*
G36*
X424757Y258834D02*X422189D01*
Y255480D01*
X424757D01*
Y258834D01*
G37*
G36*
X427905D02*X425337D01*
Y255480D01*
X427905D01*
Y258834D01*
G37*
G36*
X435905D02*X433337D01*
Y255480D01*
X435905D01*
Y258834D01*
G37*
G36*
X415947Y239257D02*Y235257D01*
X420547D01*
Y239257D01*
X415947D01*
G37*
G36*
X424757Y240834D02*X422189D01*
Y237480D01*
X424757D01*
Y240834D01*
G37*
G36*
X432757Y236834D02*X430189D01*
Y233480D01*
X432757D01*
Y236834D01*
G37*
G36*
X435905D02*X433337D01*
Y233480D01*
X435905D01*
Y236834D01*
G37*
G36*
X428264Y232925D02*X424712D01*
Y228389D01*
X428264D01*
Y232925D01*
G37*
G36*
X433382D02*X429830D01*
Y228389D01*
X433382D01*
Y232925D01*
G37*
G36*
X424757Y236834D02*X422189D01*
Y233480D01*
X424757D01*
Y236834D01*
G37*
G36*
X427905D02*X425337D01*
Y233480D01*
X427905D01*
Y236834D01*
G37*
G36*
X432757Y240834D02*X430189D01*
Y237480D01*
X432757D01*
Y240834D01*
G37*
G36*
X435905D02*X433337D01*
Y237480D01*
X435905D01*
Y240834D01*
G37*
G36*
X428264Y245925D02*X424712D01*
Y241389D01*
X428264D01*
Y245925D01*
G37*
G36*
X427905Y240834D02*X425337D01*
Y237480D01*
X427905D01*
Y240834D01*
G37*
G36*
X433382Y245925D02*X429830D01*
Y241389D01*
X433382D01*
Y245925D01*
G37*
G36*
X432757Y262834D02*X430189D01*
Y259480D01*
X432757D01*
Y262834D01*
G37*
G36*
X433382Y267925D02*X429830D01*
Y263389D01*
X433382D01*
Y267925D01*
G37*
G36*
X435905Y262834D02*X433337D01*
Y259480D01*
X435905D01*
Y262834D01*
G37*
G36*
X428264Y267925D02*X424712D01*
Y263389D01*
X428264D01*
Y267925D01*
G37*
G36*
X427905Y262834D02*X425337D01*
Y259480D01*
X427905D01*
Y262834D01*
G37*
G36*
X432757Y285834D02*X430189D01*
Y282480D01*
X432757D01*
Y285834D01*
G37*
G36*
X435905D02*X433337D01*
Y282480D01*
X435905D01*
Y285834D01*
G37*
G36*
X433382Y281925D02*X429830D01*
Y277389D01*
X433382D01*
Y281925D01*
G37*
G36*
X432757Y289834D02*X430189D01*
Y286480D01*
X432757D01*
Y289834D01*
G37*
G36*
X435905D02*X433337D01*
Y286480D01*
X435905D01*
Y289834D01*
G37*
G36*
X428264Y294925D02*X424712D01*
Y290389D01*
X428264D01*
Y294925D01*
G37*
G36*
X433382D02*X429830D01*
Y290389D01*
X433382D01*
Y294925D01*
G37*
G36*
X428264Y281925D02*X424712D01*
Y277389D01*
X428264D01*
Y281925D01*
G37*
G36*
X424757Y285834D02*X422189D01*
Y282480D01*
X424757D01*
Y285834D01*
G37*
G36*
X427905D02*X425337D01*
Y282480D01*
X427905D01*
Y285834D01*
G37*
G36*
X424757Y289834D02*X422189D01*
Y286480D01*
X424757D01*
Y289834D01*
G37*
G36*
X427905D02*X425337D01*
Y286480D01*
X427905D01*
Y289834D01*
G37*
G36*
X326370Y219015D02*Y216447D01*
X329724D01*
Y219015D01*
X326370D01*
G37*
G36*
Y215867D02*Y213299D01*
X329724D01*
Y215867D01*
X326370D01*
G37*
G36*
X330870Y219367D02*Y216799D01*
X334224D01*
Y219367D01*
X330870D01*
G37*
G36*
Y222515D02*Y219947D01*
X334224D01*
Y222515D01*
X330870D01*
G37*
G36*
X308882Y224364D02*X307066Y222548D01*
X309438Y220177D01*
X311254Y221993D01*
X308882Y224364D01*
G37*
G36*
X306656Y222138D02*X304840Y220322D01*
X307212Y217951D01*
X309028Y219767D01*
X306656Y222138D01*
G37*
G36*
X325870Y208515D02*Y205947D01*
X329224D01*
Y208515D01*
X325870D01*
G37*
G36*
Y205367D02*Y202799D01*
X329224D01*
Y205367D01*
X325870D01*
G37*
G36*
X330870Y209367D02*Y206799D01*
X334224D01*
Y209367D01*
X330870D01*
G37*
G36*
Y212515D02*Y209947D01*
X334224D01*
Y212515D01*
X330870D01*
G37*
G36*
X319882Y199364D02*X318066Y197548D01*
X320438Y195177D01*
X322254Y196993D01*
X319882Y199364D01*
G37*
G36*
X317656Y197138D02*X315840Y195322D01*
X318212Y192951D01*
X320028Y194767D01*
X317656Y197138D01*
G37*
G36*
X323313Y196431D02*X321497Y194615D01*
X323869Y192243D01*
X325685Y194059D01*
X323313Y196431D01*
G37*
G36*
X325539Y198657D02*X323723Y196841D01*
X326095Y194469D01*
X327911Y196285D01*
X325539Y198657D01*
G37*
G36*
X312104Y192293D02*X310288Y190477D01*
X312660Y188105D01*
X314476Y189921D01*
X312104Y192293D01*
G37*
G36*
X309878Y190067D02*X308062Y188251D01*
X310434Y185879D01*
X312250Y187695D01*
X309878Y190067D01*
G37*
G36*
X316242Y189360D02*X314426Y187544D01*
X316798Y185172D01*
X318614Y186988D01*
X316242Y189360D01*
G37*
G36*
X318468Y191586D02*X316652Y189770D01*
X319024Y187398D01*
X320840Y189214D01*
X318468Y191586D01*
G37*
G36*
X305033Y184515D02*X303217Y182699D01*
X305589Y180327D01*
X307405Y182143D01*
X305033Y184515D01*
G37*
G36*
X302807Y182289D02*X300991Y180473D01*
X303363Y178101D01*
X305179Y179917D01*
X302807Y182289D01*
G37*
G36*
X308464Y181582D02*X306648Y179766D01*
X309020Y177394D01*
X310836Y179210D01*
X308464Y181582D01*
G37*
G36*
X310690Y183808D02*X308874Y181992D01*
X311246Y179620D01*
X313062Y181436D01*
X310690Y183808D01*
G37*
G36*
X295841Y168959D02*X294025Y167143D01*
X296396Y164771D01*
X298212Y166587D01*
X295841Y168959D01*
G37*
G36*
X297255Y177444D02*X295439Y175628D01*
X297811Y173256D01*
X299627Y175072D01*
X297255Y177444D01*
G37*
G36*
X295029Y175218D02*X293213Y173402D01*
X295585Y171030D01*
X297401Y172846D01*
X295029Y175218D01*
G37*
G36*
X301393Y174511D02*X299577Y172695D01*
X301949Y170323D01*
X303765Y172139D01*
X301393Y174511D01*
G37*
G36*
X303619Y176737D02*X301803Y174921D01*
X304175Y172549D01*
X305991Y174365D01*
X303619Y176737D01*
G37*
G36*
X290184Y169667D02*X288368Y167851D01*
X290740Y165479D01*
X292556Y167295D01*
X290184Y169667D01*
G37*
G36*
X287958Y167441D02*X286142Y165625D01*
X288514Y163253D01*
X290330Y165069D01*
X287958Y167441D01*
G37*
G36*
X293615Y166733D02*X291799Y164917D01*
X294170Y162545D01*
X295986Y164361D01*
X293615Y166733D01*
G37*
G36*
X282405Y162595D02*X280589Y160779D01*
X282961Y158407D01*
X284777Y160223D01*
X282405Y162595D01*
G37*
G36*
X280179Y160369D02*X278363Y158553D01*
X280735Y156181D01*
X282551Y157997D01*
X280179Y160369D01*
G37*
G36*
X286544Y159662D02*X284728Y157846D01*
X287100Y155474D01*
X288915Y157290D01*
X286544Y159662D01*
G37*
G36*
X288770Y161888D02*X286954Y160072D01*
X289326Y157700D01*
X291141Y159516D01*
X288770Y161888D01*
G37*
G36*
X289656Y208638D02*X287840Y206822D01*
X290212Y204451D01*
X292028Y206267D01*
X289656Y208638D01*
G37*
G36*
X291882Y210864D02*X290066Y209048D01*
X292438Y206677D01*
X294254Y208493D01*
X291882Y210864D01*
G37*
G36*
X280882Y195364D02*X279066Y193548D01*
X281438Y191177D01*
X283254Y192993D01*
X280882Y195364D01*
G37*
G36*
X278656Y193138D02*X276840Y191322D01*
X279212Y188951D01*
X281028Y190767D01*
X278656Y193138D01*
G37*
G36*
X278765Y151883D02*X276950Y150067D01*
X279321Y147696D01*
X281137Y149511D01*
X278765Y151883D01*
G37*
G36*
X275335Y154817D02*X273519Y153001D01*
X275891Y150629D01*
X277707Y152445D01*
X275335Y154817D01*
G37*
G36*
X273109Y152591D02*X271293Y150775D01*
X273665Y148403D01*
X275481Y150219D01*
X273109Y152591D01*
G37*
G36*
X280991Y154109D02*X279175Y152293D01*
X281547Y149922D01*
X283363Y151737D01*
X280991Y154109D01*
G37*
G36*
X267556Y147745D02*X265740Y145930D01*
X268112Y143558D01*
X269928Y145374D01*
X267556Y147745D01*
G37*
G36*
X265330Y145519D02*X263514Y143704D01*
X265886Y141332D01*
X267702Y143148D01*
X265330Y145519D01*
G37*
G36*
X271694Y144812D02*X269879Y142996D01*
X272250Y140625D01*
X274066Y142441D01*
X271694Y144812D01*
G37*
G36*
X273920Y147038D02*X272105Y145222D01*
X274476Y142851D01*
X276292Y144667D01*
X273920Y147038D01*
G37*
G36*
X327870Y229515D02*Y226947D01*
X331224D01*
Y229515D01*
X327870D01*
G37*
G36*
Y226367D02*Y223799D01*
X331224D01*
Y226367D01*
X327870D01*
G37*
G36*
X332870Y230367D02*Y227799D01*
X336224D01*
Y230367D01*
X332870D01*
G37*
G36*
Y233515D02*Y230947D01*
X336224D01*
Y233515D01*
X332870D01*
G37*
G36*
X328370Y240015D02*Y237447D01*
X331724D01*
Y240015D01*
X328370D01*
G37*
G36*
Y236867D02*Y234299D01*
X331724D01*
Y236867D01*
X328370D01*
G37*
G36*
X332870Y240367D02*Y237799D01*
X336224D01*
Y240367D01*
X332870D01*
G37*
G36*
X274590Y281787D02*X275581Y280796D01*
X278975Y284190D01*
X277984Y285182D01*
X274590Y281787D01*
G37*
G36*
X273198Y283179D02*X274189Y282188D01*
X277583Y285582D01*
X276592Y286573D01*
X273198Y283179D01*
G37*
G36*
X271806Y284572D02*X272797Y283580D01*
X276191Y286974D01*
X275200Y287965D01*
X271806Y284572D01*
G37*
G36*
X270414Y285963D02*X271406Y284972D01*
X274800Y288366D01*
X273808Y289357D01*
X270414Y285963D01*
G37*
G36*
X269022Y287356D02*X270013Y286364D01*
X273408Y289758D01*
X272416Y290749D01*
X269022Y287356D01*
G37*
G36*
X267630Y288747D02*X268622Y287755D01*
X272016Y291150D01*
X271024Y292141D01*
X267630Y288747D01*
G37*
G36*
X266238Y290139D02*X267229Y289148D01*
X270624Y292542D01*
X269632Y293533D01*
X266238Y290139D01*
G37*
G36*
X282142Y327691D02*X283958Y325875D01*
X286330Y328246D01*
X284514Y330062D01*
X282142Y327691D01*
G37*
G36*
X284368Y325465D02*X286184Y323649D01*
X288556Y326020D01*
X286740Y327836D01*
X284368Y325465D01*
G37*
G36*
X296991Y312842D02*X298807Y311026D01*
X301179Y313398D01*
X299363Y315213D01*
X296991Y312842D01*
G37*
G36*
X289213Y319913D02*X291029Y318097D01*
X293401Y320469D01*
X291585Y322285D01*
X289213Y319913D01*
G37*
G36*
X291439Y317687D02*X293255Y315871D01*
X295627Y318243D01*
X293811Y320059D01*
X291439Y317687D01*
G37*
G36*
X299217Y310616D02*X301033Y308800D01*
X303405Y311172D01*
X301589Y312988D01*
X299217Y310616D01*
G37*
G36*
X299924Y316272D02*X301740Y314457D01*
X304112Y316828D01*
X302296Y318644D01*
X299924Y316272D01*
G37*
G36*
X297698Y318498D02*X299514Y316683D01*
X301886Y319054D01*
X300070Y320870D01*
X297698Y318498D01*
G37*
G36*
X267293Y342540D02*X269109Y340724D01*
X271481Y343096D01*
X269665Y344912D01*
X267293Y342540D01*
G37*
G36*
X269519Y340314D02*X271335Y338498D01*
X273707Y340870D01*
X271891Y342686D01*
X269519Y340314D01*
G37*
G36*
X270226Y345972D02*X272042Y344156D01*
X274413Y346528D01*
X272598Y348343D01*
X270226Y345972D01*
G37*
G36*
X268000Y348198D02*X269816Y346382D01*
X272188Y348754D01*
X270372Y350569D01*
X268000Y348198D01*
G37*
G36*
X277296Y338900D02*X279112Y337084D01*
X281484Y339456D01*
X279668Y341272D01*
X277296Y338900D01*
G37*
G54D68*X224047Y357157D03*
G54D62*G36*
X248264Y341425D02*X244712D01*
Y336889D01*
X248264D01*
Y341425D01*
G37*
G36*
X253382D02*X249830D01*
Y336889D01*
X253382D01*
Y341425D01*
G37*
G36*
X248264Y347425D02*X244712D01*
Y342889D01*
X248264D01*
Y347425D01*
G37*
G36*
Y374425D02*X244712D01*
Y369889D01*
X248264D01*
Y374425D01*
G37*
G36*
X247142Y366717D02*X243992D01*
Y361598D01*
X247142D01*
Y366717D01*
G37*
G36*
Y355693D02*X243992D01*
Y350575D01*
X247142D01*
Y355693D01*
G37*
G36*
X253382Y347425D02*X249830D01*
Y342889D01*
X253382D01*
Y347425D01*
G37*
G36*
Y374425D02*X249830D01*
Y369889D01*
X253382D01*
Y374425D01*
G37*
G36*
X254622Y366717D02*X251472D01*
Y361598D01*
X254622D01*
Y366717D01*
G37*
G36*
X250882D02*X247732D01*
Y361598D01*
X250882D01*
Y366717D01*
G37*
G36*
X254622Y355693D02*X251472D01*
Y350575D01*
X254622D01*
Y355693D01*
G37*
G36*
X285075Y331122D02*X286891Y329306D01*
X289263Y331678D01*
X287447Y333493D01*
X285075Y331122D01*
G37*
G36*
X282849Y333348D02*X284665Y331532D01*
X287037Y333904D01*
X285221Y335719D01*
X282849Y333348D01*
G37*
G36*
X274363Y334762D02*X276179Y332946D01*
X278551Y335318D01*
X276735Y337134D01*
X274363Y334762D01*
G37*
G36*
X276589Y332536D02*X278405Y330720D01*
X280777Y333092D01*
X278961Y334908D01*
X276589Y332536D01*
G37*
G36*
X292146Y324051D02*X293962Y322235D01*
X296334Y324607D01*
X294518Y326423D01*
X292146Y324051D01*
G37*
G36*
X264847Y291531D02*X265838Y290539D01*
X269232Y293934D01*
X268240Y294925D01*
X264847Y291531D01*
G37*
G36*
X263454Y292923D02*X264446Y291932D01*
X267840Y295326D01*
X266848Y296317D01*
X263454Y292923D01*
G37*
G36*
X262063Y294314D02*X263054Y293323D01*
X266448Y296717D01*
X265456Y297709D01*
X262063Y294314D01*
G37*
G36*
X260670Y295707D02*X261662Y294716D01*
X265056Y298110D01*
X264064Y299101D01*
X260670Y295707D01*
G37*
G36*
X259279Y297098D02*X260270Y296107D01*
X263664Y299501D01*
X262673Y300493D01*
X259279Y297098D01*
G37*
G36*
X249421Y300492D02*X248430Y299500D01*
X251824Y296107D01*
X252815Y297098D01*
X249421Y300492D01*
G37*
G36*
X248030Y299100D02*X247038Y298109D01*
X250432Y294715D01*
X251424Y295706D01*
X248030Y299100D01*
G37*
G36*
X230340Y296493D02*X232156Y294677D01*
X234528Y297048D01*
X232712Y298864D01*
X230340Y296493D01*
G37*
G36*
X232566Y294267D02*X234382Y292451D01*
X236754Y294822D01*
X234938Y296638D01*
X232566Y294267D01*
G37*
G36*
X246637Y297708D02*X245646Y296717D01*
X249040Y293323D01*
X250031Y294314D01*
X246637Y297708D01*
G37*
G36*
X245246Y296317D02*X244254Y295325D01*
X247648Y291931D01*
X248640Y292922D01*
X245246Y296317D01*
G37*
G36*
X243853Y294924D02*X242862Y293933D01*
X246256Y290539D01*
X247248Y291530D01*
X243853Y294924D01*
G37*
G36*
X242462Y293533D02*X241470Y292541D01*
X244864Y289147D01*
X245856Y290138D01*
X242462Y293533D01*
G37*
G36*
X241069Y292140D02*X240078Y291149D01*
X243472Y287755D01*
X244463Y288746D01*
X241069Y292140D01*
G37*
G36*
X239678Y290749D02*X238687Y289758D01*
X242080Y286363D01*
X243072Y287355D01*
X239678Y290749D01*
G37*
G36*
X238285Y289356D02*X237294Y288365D01*
X240688Y284971D01*
X241680Y285962D01*
X238285Y289356D01*
G37*
G36*
X236894Y287965D02*X235903Y286974D01*
X239296Y283580D01*
X240288Y284571D01*
X236894Y287965D01*
G37*
G36*
X235502Y286572D02*X234510Y285581D01*
X237904Y282187D01*
X238896Y283179D01*
X235502Y286572D01*
G37*
G36*
X234110Y285181D02*X233119Y284189D01*
X236513Y280796D01*
X237504Y281787D01*
X234110Y285181D01*
G37*
G36*
X232718Y283789D02*X231726Y282797D01*
X235120Y279403D01*
X236112Y280394D01*
X232718Y283789D01*
G37*
G36*
X231326Y282397D02*X230335Y281405D01*
X233729Y278012D01*
X234720Y279003D01*
X231326Y282397D01*
G37*
G36*
X229934Y281005D02*X228942Y280013D01*
X232337Y276619D01*
X233328Y277611D01*
X229934Y281005D01*
G37*
G36*
X228542Y279613D02*X227551Y278622D01*
X230945Y275228D01*
X231936Y276219D01*
X228542Y279613D01*
G37*
G36*
X227150Y278221D02*X226159Y277229D01*
X229553Y273835D01*
X230544Y274827D01*
X227150Y278221D01*
G37*
G36*
X225758Y276829D02*X224767Y275838D01*
X228161Y272444D01*
X229152Y273436D01*
X225758Y276829D01*
G37*
G36*
X224366Y275437D02*X223375Y274446D01*
X226769Y271052D01*
X227760Y272043D01*
X224366Y275437D01*
G37*
G36*
X222974Y274045D02*X221983Y273054D01*
X225377Y269660D01*
X226369Y270651D01*
X222974Y274045D01*
G37*
G36*
X221582Y272653D02*X220591Y271662D01*
X223985Y268268D01*
X224976Y269259D01*
X221582Y272653D01*
G37*
G36*
X220191Y271261D02*X219199Y270270D01*
X222593Y266876D01*
X223585Y267868D01*
X220191Y271261D01*
G37*
G36*
X218798Y269869D02*X217807Y268878D01*
X221201Y265484D01*
X222193Y266475D01*
X218798Y269869D01*
G37*
G36*
X217407Y268478D02*X216415Y267486D01*
X219809Y264092D01*
X220801Y265083D01*
X217407Y268478D01*
G37*
G36*
X216015Y267085D02*X215023Y266094D01*
X218417Y262700D01*
X219409Y263691D01*
X216015Y267085D01*
G37*
G36*
X214623Y265694D02*X213631Y264702D01*
X217026Y261308D01*
X218017Y262300D01*
X214623Y265694D01*
G37*
G36*
X213231Y264302D02*X212239Y263310D01*
X215633Y259916D01*
X216625Y260907D01*
X213231Y264302D01*
G37*
G36*
X211839Y262910D02*X210848Y261919D01*
X214242Y258524D01*
X215233Y259516D01*
X211839Y262910D01*
G37*
G36*
X210447Y261518D02*X209455Y260526D01*
X212849Y257132D01*
X213841Y258124D01*
X210447Y261518D01*
G37*
G36*
X209055Y260126D02*X208064Y259135D01*
X211458Y255741D01*
X212449Y256732D01*
X209055Y260126D01*
G37*
G36*
X207663Y258734D02*X206672Y257743D01*
X210065Y254348D01*
X211057Y255340D01*
X207663Y258734D01*
G37*
G36*
X206271Y257342D02*X205280Y256351D01*
X208674Y252957D01*
X209665Y253949D01*
X206271Y257342D01*
G37*
G36*
X204879Y255950D02*X203888Y254959D01*
X207281Y251565D01*
X208273Y252556D01*
X204879Y255950D01*
G37*
G36*
X203487Y254558D02*X202496Y253566D01*
X205890Y250173D01*
X206882Y251164D01*
X203487Y254558D01*
G37*
G36*
X202095Y253166D02*X201104Y252174D01*
X204498Y248781D01*
X205489Y249772D01*
X202095Y253166D01*
G37*
G36*
X200704Y251774D02*X199712Y250783D01*
X203106Y247389D01*
X204098Y248380D01*
X200704Y251774D01*
G37*
M02*
