G04 start of page 7 for group -4062 idx -4062 *
G04 Title: NVMemProg_Main, soldermask *
G04 Creator: pcb v4.0.0-ga246c150 *
G04 CreationDate: Sat Sep 30 23:46:22 2017 UTC *
G04 For: wojtek *
G04 Format: Gerber/RS-274X *
G04 PCB-Dimensions (mil): 4980.31 4606.30 *
G04 PCB-Coordinate-Origin: lower left *
%MOIN*%
%FSLAX25Y25*%
%LNBOTTOMMASK*%
%ADD75C,0.0785*%
%ADD74C,0.1260*%
%ADD73C,0.0769*%
%ADD72C,0.1496*%
%ADD71C,0.0748*%
%ADD70C,0.0001*%
G54D70*G36*
X56307Y223898D02*Y216417D01*
X63787D01*
Y223898D01*
X56307D01*
G37*
G54D71*X60047Y230000D03*
X52173D03*
Y220157D03*
G54D72*X41543Y248701D03*
Y201457D03*
G54D70*G36*
X34204Y147001D02*Y139314D01*
X41891D01*
Y147001D01*
X34204D01*
G37*
G54D73*X38047Y153157D03*
G54D70*G36*
X34204Y167001D02*Y159314D01*
X41891D01*
Y167001D01*
X34204D01*
G37*
G54D73*X38047Y173157D03*
Y183157D03*
G54D74*X30638Y411157D03*
X55047D03*
X42843Y391472D03*
G54D70*G36*
X143204Y409001D02*Y401314D01*
X150891D01*
Y409001D01*
X143204D01*
G37*
G54D73*X157047Y405157D03*
G54D75*X147047Y435157D03*
Y445157D03*
X157047Y435157D03*
Y445157D03*
X167047Y435157D03*
X177047D03*
X187047D03*
X167047Y445157D03*
X177047D03*
X187047D03*
G54D70*G36*
X431204Y74001D02*Y66314D01*
X438891D01*
Y74001D01*
X431204D01*
G37*
G54D73*X435047Y80157D03*
X445047Y70157D03*
X455047D03*
X465047D03*
X445047Y80157D03*
X455047D03*
X465047D03*
X455047Y410157D03*
Y420157D03*
X465047Y410157D03*
Y420157D03*
G54D70*G36*
X431204Y414001D02*Y406314D01*
X438891D01*
Y414001D01*
X431204D01*
G37*
G54D73*X435047Y420157D03*
X445047Y410157D03*
Y420157D03*
G54D70*G36*
X451204Y384001D02*Y376314D01*
X458891D01*
Y384001D01*
X451204D01*
G37*
G54D73*X455047Y370157D03*
Y360157D03*
G54D70*G36*
X441204Y384001D02*Y376314D01*
X448891D01*
Y384001D01*
X441204D01*
G37*
G54D73*X445047Y370157D03*
Y360157D03*
Y350157D03*
Y340157D03*
Y330157D03*
X455047Y350157D03*
Y340157D03*
Y330157D03*
Y320157D03*
Y310157D03*
Y300157D03*
Y290157D03*
Y280157D03*
Y270157D03*
Y260157D03*
X445047D03*
X455047Y250157D03*
G54D70*G36*
X451204Y244001D02*Y236314D01*
X458891D01*
Y244001D01*
X451204D01*
G37*
G54D73*X455047Y230157D03*
G54D70*G36*
X441204Y244001D02*Y236314D01*
X448891D01*
Y244001D01*
X441204D01*
G37*
G54D73*X445047Y250157D03*
Y320157D03*
Y310157D03*
Y300157D03*
Y290157D03*
Y280157D03*
Y270157D03*
X455047Y220157D03*
Y210157D03*
Y200157D03*
Y190157D03*
Y180157D03*
Y170157D03*
Y160157D03*
Y150157D03*
Y140157D03*
Y130157D03*
Y120157D03*
Y110157D03*
X445047Y230157D03*
Y220157D03*
Y210157D03*
Y200157D03*
Y190157D03*
Y180157D03*
Y170157D03*
Y160157D03*
Y150157D03*
Y140157D03*
Y130157D03*
Y120157D03*
Y110157D03*
G54D70*G36*
X39417Y450348D02*X33190Y456575D01*
X24384D01*
X18157Y450348D01*
Y441542D01*
X24384Y435315D01*
X33190D01*
X39417Y441542D01*
Y450348D01*
G37*
G36*
Y21214D02*X33190Y27441D01*
X24384D01*
X18157Y21214D01*
Y12408D01*
X24384Y6181D01*
X33190D01*
X39417Y12408D01*
Y21214D01*
G37*
G36*
X429181Y450348D02*X422954Y456575D01*
X414148D01*
X407921Y450348D01*
Y441542D01*
X414148Y435315D01*
X422954D01*
X429181Y441542D01*
Y450348D01*
G37*
G36*
X492173D02*X485946Y456575D01*
X477140D01*
X470913Y450348D01*
Y441542D01*
X477140Y435315D01*
X485946D01*
X492173Y441542D01*
Y450348D01*
G37*
G36*
Y21214D02*X485946Y27441D01*
X477140D01*
X470913Y21214D01*
Y12408D01*
X477140Y6181D01*
X485946D01*
X492173Y12408D01*
Y21214D01*
G37*
G36*
Y48773D02*X485946Y55000D01*
X477140D01*
X470913Y48773D01*
Y39967D01*
X477140Y33740D01*
X485946D01*
X492173Y39967D01*
Y48773D01*
G37*
M02*
