G04 start of page 10 for group -3984 idx -3984 *
G04 Title: NVMemProg_Main, fab *
G04 Creator: pcb v4.0.0-ga246c150 *
G04 CreationDate: Sat Sep 30 23:46:22 2017 UTC *
G04 For: wojtek *
G04 Format: Gerber/RS-274X *
G04 PCB-Dimensions (mil): 4980.31 4606.30 *
G04 PCB-Coordinate-Origin: lower left *
%MOIN*%
%FSLAX25Y25*%
%LNFAB*%
%ADD90C,0.0100*%
%ADD89C,0.0075*%
%ADD88C,0.0060*%
%ADD87R,0.0080X0.0080*%
%ADD86C,0.0001*%
G54D86*G36*
X416151Y448911D02*X421517Y443545D01*
X420951Y442979D01*
X415585Y448345D01*
X416151Y448911D01*
G37*
G36*
X415585Y443545D02*X420951Y448911D01*
X421517Y448345D01*
X416151Y442979D01*
X415585Y443545D01*
G37*
G54D87*X416951Y447545D02*X420151D01*
X416951D02*Y444345D01*
X420151D01*
Y447545D02*Y444345D01*
G54D86*G36*
X26387Y448911D02*X31753Y443545D01*
X31187Y442979D01*
X25822Y448345D01*
X26387Y448911D01*
G37*
G36*
X25822Y443545D02*X31187Y448911D01*
X31753Y448345D01*
X26387Y442979D01*
X25822Y443545D01*
G37*
G54D87*X27187Y447545D02*X30387D01*
X27187D02*Y444345D01*
X30387D01*
Y447545D02*Y444345D01*
G54D86*G36*
X26387Y19777D02*X31753Y14411D01*
X31187Y13845D01*
X25822Y19211D01*
X26387Y19777D01*
G37*
G36*
X25822Y14411D02*X31187Y19777D01*
X31753Y19211D01*
X26387Y13845D01*
X25822Y14411D01*
G37*
G54D87*X27187Y18411D02*X30387D01*
X27187D02*Y15211D01*
X30387D01*
Y18411D02*Y15211D01*
G54D86*G36*
X479143Y19777D02*X484509Y14411D01*
X483943Y13845D01*
X478578Y19211D01*
X479143Y19777D01*
G37*
G36*
X478578Y14411D02*X483943Y19777D01*
X484509Y19211D01*
X479143Y13845D01*
X478578Y14411D01*
G37*
G54D87*X479943Y18411D02*X483143D01*
X479943D02*Y15211D01*
X483143D01*
Y18411D02*Y15211D01*
G54D86*G36*
X479143Y448911D02*X484509Y443545D01*
X483943Y442979D01*
X478578Y448345D01*
X479143Y448911D01*
G37*
G36*
X478578Y443545D02*X483943Y448911D01*
X484509Y448345D01*
X479143Y442979D01*
X478578Y443545D01*
G37*
G54D87*X479943Y447545D02*X483143D01*
X479943D02*Y444345D01*
X483143D01*
Y447545D02*Y444345D01*
G54D86*G36*
X479143Y47336D02*X484509Y41970D01*
X483943Y41404D01*
X478578Y46770D01*
X479143Y47336D01*
G37*
G36*
X478578Y41970D02*X483943Y47336D01*
X484509Y46770D01*
X479143Y41404D01*
X478578Y41970D01*
G37*
G54D87*X479943Y45970D02*X483143D01*
X479943D02*Y42770D01*
X483143D01*
Y45970D02*Y42770D01*
G54D86*G36*
X12600Y474846D02*X17966Y469480D01*
X17400Y468914D01*
X12034Y474280D01*
X12600Y474846D01*
G37*
G36*
X12034Y469480D02*X17400Y474846D01*
X17966Y474280D01*
X12600Y468914D01*
X12034Y469480D01*
G37*
G54D87*X13400Y473480D02*X16600D01*
X13400D02*Y470280D01*
X16600D01*
Y473480D02*Y470280D01*
G54D88*X150000Y474130D02*X151500Y471130D01*
X153000Y474130D01*
X151500Y471130D02*Y468130D01*
X154800Y471430D02*X157050D01*
X154800Y468130D02*X157800D01*
X154800Y474130D02*Y468130D01*
Y474130D02*X157800D01*
X162600D02*X163350Y473380D01*
X160350Y474130D02*X162600D01*
X159600Y473380D02*X160350Y474130D01*
X159600Y473380D02*Y471880D01*
X160350Y471130D01*
X162600D01*
X163350Y470380D01*
Y468880D01*
X162600Y468130D02*X163350Y468880D01*
X160350Y468130D02*X162600D01*
X159600Y468880D02*X160350Y468130D01*
X115250Y474130D02*X116000Y473380D01*
X113750Y474130D02*X115250D01*
X113000Y473380D02*X113750Y474130D01*
X113000Y473380D02*Y468880D01*
X113750Y468130D01*
X115250Y471430D02*X116000Y470680D01*
X113000Y471430D02*X115250D01*
X113750Y468130D02*X115250D01*
X116000Y468880D01*
Y470680D02*Y468880D01*
X45000D02*X45750Y468130D01*
X45000Y473380D02*Y468880D01*
Y473380D02*X45750Y474130D01*
X47250D01*
X48000Y473380D01*
Y468880D01*
X47250Y468130D02*X48000Y468880D01*
X45750Y468130D02*X47250D01*
X45000Y469630D02*X48000Y472630D01*
X49800Y468130D02*X50550D01*
X52350Y472930D02*X53550Y474130D01*
Y468130D01*
X52350D02*X54600D01*
X56400Y472930D02*X57600Y474130D01*
Y468130D01*
X56400D02*X58650D01*
X60450Y468880D02*X61200Y468130D01*
X60450Y470080D02*Y468880D01*
Y470080D02*X61500Y471130D01*
X62400D01*
X63450Y470080D01*
Y468880D01*
X62700Y468130D02*X63450Y468880D01*
X61200Y468130D02*X62700D01*
X60450Y472180D02*X61500Y471130D01*
X60450Y473380D02*Y472180D01*
Y473380D02*X61200Y474130D01*
X62700D01*
X63450Y473380D01*
Y472180D01*
X62400Y471130D02*X63450Y472180D01*
X65250Y468130D02*X66750Y469630D01*
Y471880D02*Y471130D01*
X71250Y473380D02*X72000Y474130D01*
X73500D01*
X74250Y473380D01*
X73500Y468130D02*X74250Y468880D01*
X72000Y468130D02*X73500D01*
X71250Y468880D02*X72000Y468130D01*
Y471430D02*X73500D01*
X74250Y473380D02*Y472180D01*
Y470680D02*Y468880D01*
Y470680D02*X73500Y471430D01*
X74250Y472180D02*X73500Y471430D01*
X76050Y468130D02*X76800D01*
X78600Y468880D02*X79350Y468130D01*
X78600Y473380D02*Y468880D01*
Y473380D02*X79350Y474130D01*
X80850D01*
X81600Y473380D01*
Y468880D01*
X80850Y468130D02*X81600Y468880D01*
X79350Y468130D02*X80850D01*
X78600Y469630D02*X81600Y472630D01*
X83400Y468880D02*X84150Y468130D01*
X83400Y473380D02*Y468880D01*
Y473380D02*X84150Y474130D01*
X85650D01*
X86400Y473380D01*
Y468880D01*
X85650Y468130D02*X86400Y468880D01*
X84150Y468130D02*X85650D01*
X83400Y469630D02*X86400Y472630D01*
X41543Y251901D02*Y245501D01*
X38343Y248701D02*X44743D01*
X39943Y250301D02*X43143D01*
X39943D02*Y247101D01*
X43143D01*
Y250301D02*Y247101D01*
X41543Y204657D02*Y198257D01*
X38343Y201457D02*X44743D01*
X39943Y203057D02*X43143D01*
X39943D02*Y199857D01*
X43143D01*
Y203057D02*Y199857D01*
X15000Y490080D02*Y483680D01*
X11800Y486880D02*X18200D01*
X13400Y488480D02*X16600D01*
X13400D02*Y485280D01*
X16600D01*
Y488480D02*Y485280D01*
X150000Y489130D02*X151500Y486130D01*
X153000Y489130D01*
X151500Y486130D02*Y483130D01*
X154800Y486430D02*X157050D01*
X154800Y483130D02*X157800D01*
X154800Y489130D02*Y483130D01*
Y489130D02*X157800D01*
X162600D02*X163350Y488380D01*
X160350Y489130D02*X162600D01*
X159600Y488380D02*X160350Y489130D01*
X159600Y488380D02*Y486880D01*
X160350Y486130D01*
X162600D01*
X163350Y485380D01*
Y483880D01*
X162600Y483130D02*X163350Y483880D01*
X160350Y483130D02*X162600D01*
X159600Y483880D02*X160350Y483130D01*
X113000Y488380D02*X113750Y489130D01*
X116000D01*
X116750Y488380D01*
Y486880D01*
X113000Y483130D02*X116750Y486880D01*
X113000Y483130D02*X116750D01*
X45000Y483880D02*X45750Y483130D01*
X45000Y488380D02*Y483880D01*
Y488380D02*X45750Y489130D01*
X47250D01*
X48000Y488380D01*
Y483880D01*
X47250Y483130D02*X48000Y483880D01*
X45750Y483130D02*X47250D01*
X45000Y484630D02*X48000Y487630D01*
X49800Y483130D02*X50550D01*
X52350Y483880D02*X53100Y483130D01*
X52350Y488380D02*Y483880D01*
Y488380D02*X53100Y489130D01*
X54600D01*
X55350Y488380D01*
Y483880D01*
X54600Y483130D02*X55350Y483880D01*
X53100Y483130D02*X54600D01*
X52350Y484630D02*X55350Y487630D01*
X57900Y483130D02*X60150Y486130D01*
Y488380D02*Y486130D01*
X59400Y489130D02*X60150Y488380D01*
X57900Y489130D02*X59400D01*
X57150Y488380D02*X57900Y489130D01*
X57150Y488380D02*Y486880D01*
X57900Y486130D01*
X60150D01*
X61950Y487930D02*X63150Y489130D01*
Y483130D01*
X61950D02*X64200D01*
X66000D02*X67500Y484630D01*
Y486880D02*Y486130D01*
X72000Y488380D02*X72750Y489130D01*
X75000D01*
X75750Y488380D01*
Y486880D01*
X72000Y483130D02*X75750Y486880D01*
X72000Y483130D02*X75750D01*
X77550D02*X78300D01*
X80100Y488380D02*X80850Y489130D01*
X82350D01*
X83100Y488380D01*
X82350Y483130D02*X83100Y483880D01*
X80850Y483130D02*X82350D01*
X80100Y483880D02*X80850Y483130D01*
Y486430D02*X82350D01*
X83100Y488380D02*Y487180D01*
Y485680D02*Y483880D01*
Y485680D02*X82350Y486430D01*
X83100Y487180D02*X82350Y486430D01*
X84900Y483880D02*X85650Y483130D01*
X84900Y488380D02*Y483880D01*
Y488380D02*X85650Y489130D01*
X87150D01*
X87900Y488380D01*
Y483880D01*
X87150Y483130D02*X87900Y483880D01*
X85650Y483130D02*X87150D01*
X84900Y484630D02*X87900Y487630D01*
X30638Y411157D02*Y407957D01*
Y411157D02*X33411Y412757D01*
X30638Y411157D02*X27864Y412757D01*
X29038Y411157D02*G75*G03X32238Y411157I1600J0D01*G01*
G75*G03X29038Y411157I-1600J0D01*G01*
X55047D02*Y407957D01*
Y411157D02*X57821Y412757D01*
X55047Y411157D02*X52274Y412757D01*
X53447Y411157D02*G75*G03X56647Y411157I1600J0D01*G01*
G75*G03X53447Y411157I-1600J0D01*G01*
X42843Y391472D02*Y388272D01*
Y391472D02*X45616Y393072D01*
X42843Y391472D02*X40069Y393072D01*
X41243Y391472D02*G75*G03X44443Y391472I1600J0D01*G01*
G75*G03X41243Y391472I-1600J0D01*G01*
X15000Y501880D02*Y498680D01*
Y501880D02*X17773Y503480D01*
X15000Y501880D02*X12227Y503480D01*
X13400Y501880D02*G75*G03X16600Y501880I1600J0D01*G01*
G75*G03X13400Y501880I-1600J0D01*G01*
X150000Y504130D02*X151500Y501130D01*
X153000Y504130D01*
X151500Y501130D02*Y498130D01*
X154800Y501430D02*X157050D01*
X154800Y498130D02*X157800D01*
X154800Y504130D02*Y498130D01*
Y504130D02*X157800D01*
X162600D02*X163350Y503380D01*
X160350Y504130D02*X162600D01*
X159600Y503380D02*X160350Y504130D01*
X159600Y503380D02*Y501880D01*
X160350Y501130D01*
X162600D01*
X163350Y500380D01*
Y498880D01*
X162600Y498130D02*X163350Y498880D01*
X160350Y498130D02*X162600D01*
X159600Y498880D02*X160350Y498130D01*
X113000Y503380D02*X113750Y504130D01*
X115250D01*
X116000Y503380D01*
X115250Y498130D02*X116000Y498880D01*
X113750Y498130D02*X115250D01*
X113000Y498880D02*X113750Y498130D01*
Y501430D02*X115250D01*
X116000Y503380D02*Y502180D01*
Y500680D02*Y498880D01*
Y500680D02*X115250Y501430D01*
X116000Y502180D02*X115250Y501430D01*
X45000Y498880D02*X45750Y498130D01*
X45000Y503380D02*Y498880D01*
Y503380D02*X45750Y504130D01*
X47250D01*
X48000Y503380D01*
Y498880D01*
X47250Y498130D02*X48000Y498880D01*
X45750Y498130D02*X47250D01*
X45000Y499630D02*X48000Y502630D01*
X49800Y498130D02*X50550D01*
X52350Y498880D02*X53100Y498130D01*
X52350Y503380D02*Y498880D01*
Y503380D02*X53100Y504130D01*
X54600D01*
X55350Y503380D01*
Y498880D01*
X54600Y498130D02*X55350Y498880D01*
X53100Y498130D02*X54600D01*
X52350Y499630D02*X55350Y502630D01*
X57150Y504130D02*X60150D01*
X57150D02*Y501130D01*
X57900Y501880D01*
X59400D01*
X60150Y501130D01*
Y498880D01*
X59400Y498130D02*X60150Y498880D01*
X57900Y498130D02*X59400D01*
X57150Y498880D02*X57900Y498130D01*
X62700D02*X64950Y501130D01*
Y503380D02*Y501130D01*
X64200Y504130D02*X64950Y503380D01*
X62700Y504130D02*X64200D01*
X61950Y503380D02*X62700Y504130D01*
X61950Y503380D02*Y501880D01*
X62700Y501130D01*
X64950D01*
X66750Y498130D02*X68250Y499630D01*
Y501880D02*Y501130D01*
X72750Y502930D02*X73950Y504130D01*
Y498130D01*
X72750D02*X75000D01*
X76800D02*X77550D01*
X79350Y504130D02*X82350D01*
X79350D02*Y501130D01*
X80100Y501880D01*
X81600D01*
X82350Y501130D01*
Y498880D01*
X81600Y498130D02*X82350Y498880D01*
X80100Y498130D02*X81600D01*
X79350Y498880D02*X80100Y498130D01*
X84150Y498880D02*X84900Y498130D01*
X84150Y503380D02*Y498880D01*
Y503380D02*X84900Y504130D01*
X86400D01*
X87150Y503380D01*
Y498880D01*
X86400Y498130D02*X87150Y498880D01*
X84900Y498130D02*X86400D01*
X84150Y499630D02*X87150Y502630D01*
X433447Y411757D02*X436647D01*
X433447D02*Y408557D01*
X436647D01*
Y411757D02*Y408557D01*
X433447Y421757D02*X436647D01*
X433447D02*Y418557D01*
X436647D01*
Y421757D02*Y418557D01*
X443447Y411757D02*X446647D01*
X443447D02*Y408557D01*
X446647D01*
Y411757D02*Y408557D01*
X443447Y421757D02*X446647D01*
X443447D02*Y418557D01*
X446647D01*
Y421757D02*Y418557D01*
X453447Y411757D02*X456647D01*
X453447D02*Y408557D01*
X456647D01*
Y411757D02*Y408557D01*
X453447Y421757D02*X456647D01*
X453447D02*Y418557D01*
X456647D01*
Y421757D02*Y418557D01*
X463447Y411757D02*X466647D01*
X463447D02*Y408557D01*
X466647D01*
Y411757D02*Y408557D01*
X463447Y421757D02*X466647D01*
X463447D02*Y418557D01*
X466647D01*
Y421757D02*Y418557D01*
X433447Y71757D02*X436647D01*
X433447D02*Y68557D01*
X436647D01*
Y71757D02*Y68557D01*
X433447Y81757D02*X436647D01*
X433447D02*Y78557D01*
X436647D01*
Y81757D02*Y78557D01*
X443447Y71757D02*X446647D01*
X443447D02*Y68557D01*
X446647D01*
Y71757D02*Y68557D01*
X443447Y81757D02*X446647D01*
X443447D02*Y78557D01*
X446647D01*
Y81757D02*Y78557D01*
X453447Y71757D02*X456647D01*
X453447D02*Y68557D01*
X456647D01*
Y71757D02*Y68557D01*
X453447Y81757D02*X456647D01*
X453447D02*Y78557D01*
X456647D01*
Y81757D02*Y78557D01*
X463447Y71757D02*X466647D01*
X463447D02*Y68557D01*
X466647D01*
Y71757D02*Y68557D01*
X463447Y81757D02*X466647D01*
X463447D02*Y78557D01*
X466647D01*
Y81757D02*Y78557D01*
X453447Y381757D02*X456647D01*
X453447D02*Y378557D01*
X456647D01*
Y381757D02*Y378557D01*
X453447Y371757D02*X456647D01*
X453447D02*Y368557D01*
X456647D01*
Y371757D02*Y368557D01*
X453447Y361757D02*X456647D01*
X453447D02*Y358557D01*
X456647D01*
Y361757D02*Y358557D01*
X453447Y351757D02*X456647D01*
X453447D02*Y348557D01*
X456647D01*
Y351757D02*Y348557D01*
X453447Y341757D02*X456647D01*
X453447D02*Y338557D01*
X456647D01*
Y341757D02*Y338557D01*
X453447Y331757D02*X456647D01*
X453447D02*Y328557D01*
X456647D01*
Y331757D02*Y328557D01*
X453447Y321757D02*X456647D01*
X453447D02*Y318557D01*
X456647D01*
Y321757D02*Y318557D01*
X453447Y311757D02*X456647D01*
X453447D02*Y308557D01*
X456647D01*
Y311757D02*Y308557D01*
X453447Y301757D02*X456647D01*
X453447D02*Y298557D01*
X456647D01*
Y301757D02*Y298557D01*
X453447Y291757D02*X456647D01*
X453447D02*Y288557D01*
X456647D01*
Y291757D02*Y288557D01*
X453447Y281757D02*X456647D01*
X453447D02*Y278557D01*
X456647D01*
Y281757D02*Y278557D01*
X453447Y271757D02*X456647D01*
X453447D02*Y268557D01*
X456647D01*
Y271757D02*Y268557D01*
X453447Y261757D02*X456647D01*
X453447D02*Y258557D01*
X456647D01*
Y261757D02*Y258557D01*
X453447Y251757D02*X456647D01*
X453447D02*Y248557D01*
X456647D01*
Y251757D02*Y248557D01*
X453447Y241757D02*X456647D01*
X453447D02*Y238557D01*
X456647D01*
Y241757D02*Y238557D01*
X453447Y231757D02*X456647D01*
X453447D02*Y228557D01*
X456647D01*
Y231757D02*Y228557D01*
X453447Y221757D02*X456647D01*
X453447D02*Y218557D01*
X456647D01*
Y221757D02*Y218557D01*
X453447Y211757D02*X456647D01*
X453447D02*Y208557D01*
X456647D01*
Y211757D02*Y208557D01*
X453447Y201757D02*X456647D01*
X453447D02*Y198557D01*
X456647D01*
Y201757D02*Y198557D01*
X453447Y191757D02*X456647D01*
X453447D02*Y188557D01*
X456647D01*
Y191757D02*Y188557D01*
X453447Y181757D02*X456647D01*
X453447D02*Y178557D01*
X456647D01*
Y181757D02*Y178557D01*
X453447Y171757D02*X456647D01*
X453447D02*Y168557D01*
X456647D01*
Y171757D02*Y168557D01*
X453447Y161757D02*X456647D01*
X453447D02*Y158557D01*
X456647D01*
Y161757D02*Y158557D01*
X453447Y151757D02*X456647D01*
X453447D02*Y148557D01*
X456647D01*
Y151757D02*Y148557D01*
X453447Y141757D02*X456647D01*
X453447D02*Y138557D01*
X456647D01*
Y141757D02*Y138557D01*
X453447Y131757D02*X456647D01*
X453447D02*Y128557D01*
X456647D01*
Y131757D02*Y128557D01*
X453447Y121757D02*X456647D01*
X453447D02*Y118557D01*
X456647D01*
Y121757D02*Y118557D01*
X453447Y111757D02*X456647D01*
X453447D02*Y108557D01*
X456647D01*
Y111757D02*Y108557D01*
X443447Y241757D02*X446647D01*
X443447D02*Y238557D01*
X446647D01*
Y241757D02*Y238557D01*
X443447Y231757D02*X446647D01*
X443447D02*Y228557D01*
X446647D01*
Y231757D02*Y228557D01*
X443447Y221757D02*X446647D01*
X443447D02*Y218557D01*
X446647D01*
Y221757D02*Y218557D01*
X443447Y211757D02*X446647D01*
X443447D02*Y208557D01*
X446647D01*
Y211757D02*Y208557D01*
X443447Y201757D02*X446647D01*
X443447D02*Y198557D01*
X446647D01*
Y201757D02*Y198557D01*
X443447Y191757D02*X446647D01*
X443447D02*Y188557D01*
X446647D01*
Y191757D02*Y188557D01*
X443447Y181757D02*X446647D01*
X443447D02*Y178557D01*
X446647D01*
Y181757D02*Y178557D01*
X443447Y171757D02*X446647D01*
X443447D02*Y168557D01*
X446647D01*
Y171757D02*Y168557D01*
X443447Y161757D02*X446647D01*
X443447D02*Y158557D01*
X446647D01*
Y161757D02*Y158557D01*
X443447Y151757D02*X446647D01*
X443447D02*Y148557D01*
X446647D01*
Y151757D02*Y148557D01*
X443447Y141757D02*X446647D01*
X443447D02*Y138557D01*
X446647D01*
Y141757D02*Y138557D01*
X443447Y131757D02*X446647D01*
X443447D02*Y128557D01*
X446647D01*
Y131757D02*Y128557D01*
X443447Y121757D02*X446647D01*
X443447D02*Y118557D01*
X446647D01*
Y121757D02*Y118557D01*
X443447Y111757D02*X446647D01*
X443447D02*Y108557D01*
X446647D01*
Y111757D02*Y108557D01*
X443447Y381757D02*X446647D01*
X443447D02*Y378557D01*
X446647D01*
Y381757D02*Y378557D01*
X443447Y371757D02*X446647D01*
X443447D02*Y368557D01*
X446647D01*
Y371757D02*Y368557D01*
X443447Y361757D02*X446647D01*
X443447D02*Y358557D01*
X446647D01*
Y361757D02*Y358557D01*
X443447Y351757D02*X446647D01*
X443447D02*Y348557D01*
X446647D01*
Y351757D02*Y348557D01*
X443447Y341757D02*X446647D01*
X443447D02*Y338557D01*
X446647D01*
Y341757D02*Y338557D01*
X443447Y331757D02*X446647D01*
X443447D02*Y328557D01*
X446647D01*
Y331757D02*Y328557D01*
X443447Y321757D02*X446647D01*
X443447D02*Y318557D01*
X446647D01*
Y321757D02*Y318557D01*
X443447Y311757D02*X446647D01*
X443447D02*Y308557D01*
X446647D01*
Y311757D02*Y308557D01*
X443447Y301757D02*X446647D01*
X443447D02*Y298557D01*
X446647D01*
Y301757D02*Y298557D01*
X443447Y291757D02*X446647D01*
X443447D02*Y288557D01*
X446647D01*
Y291757D02*Y288557D01*
X443447Y281757D02*X446647D01*
X443447D02*Y278557D01*
X446647D01*
Y281757D02*Y278557D01*
X443447Y271757D02*X446647D01*
X443447D02*Y268557D01*
X446647D01*
Y271757D02*Y268557D01*
X443447Y261757D02*X446647D01*
X443447D02*Y258557D01*
X446647D01*
Y261757D02*Y258557D01*
X443447Y251757D02*X446647D01*
X443447D02*Y248557D01*
X446647D01*
Y251757D02*Y248557D01*
X36447Y144757D02*X39647D01*
X36447D02*Y141557D01*
X39647D01*
Y144757D02*Y141557D01*
X36447Y154757D02*X39647D01*
X36447D02*Y151557D01*
X39647D01*
Y154757D02*Y151557D01*
X36447Y164757D02*X39647D01*
X36447D02*Y161557D01*
X39647D01*
Y164757D02*Y161557D01*
X36447Y174757D02*X39647D01*
X36447D02*Y171557D01*
X39647D01*
Y174757D02*Y171557D01*
X36447Y184757D02*X39647D01*
X36447D02*Y181557D01*
X39647D01*
Y184757D02*Y181557D01*
X145447Y406757D02*X148647D01*
X145447D02*Y403557D01*
X148647D01*
Y406757D02*Y403557D01*
X155447Y406757D02*X158647D01*
X155447D02*Y403557D01*
X158647D01*
Y406757D02*Y403557D01*
X145447Y436757D02*X148647D01*
X145447D02*Y433557D01*
X148647D01*
Y436757D02*Y433557D01*
X145447Y446757D02*X148647D01*
X145447D02*Y443557D01*
X148647D01*
Y446757D02*Y443557D01*
X155447Y436757D02*X158647D01*
X155447D02*Y433557D01*
X158647D01*
Y436757D02*Y433557D01*
X155447Y446757D02*X158647D01*
X155447D02*Y443557D01*
X158647D01*
Y446757D02*Y443557D01*
X165447Y436757D02*X168647D01*
X165447D02*Y433557D01*
X168647D01*
Y436757D02*Y433557D01*
X165447Y446757D02*X168647D01*
X165447D02*Y443557D01*
X168647D01*
Y446757D02*Y443557D01*
X175447Y436757D02*X178647D01*
X175447D02*Y433557D01*
X178647D01*
Y436757D02*Y433557D01*
X175447Y446757D02*X178647D01*
X175447D02*Y443557D01*
X178647D01*
Y446757D02*Y443557D01*
X185447Y436757D02*X188647D01*
X185447D02*Y433557D01*
X188647D01*
Y436757D02*Y433557D01*
X185447Y446757D02*X188647D01*
X185447D02*Y443557D01*
X188647D01*
Y446757D02*Y443557D01*
X13400Y518480D02*X16600D01*
X13400D02*Y515280D01*
X16600D01*
Y518480D02*Y515280D01*
X150000Y519130D02*X151500Y516130D01*
X153000Y519130D01*
X151500Y516130D02*Y513130D01*
X154800Y516430D02*X157050D01*
X154800Y513130D02*X157800D01*
X154800Y519130D02*Y513130D01*
Y519130D02*X157800D01*
X162600D02*X163350Y518380D01*
X160350Y519130D02*X162600D01*
X159600Y518380D02*X160350Y519130D01*
X159600Y518380D02*Y516880D01*
X160350Y516130D01*
X162600D01*
X163350Y515380D01*
Y513880D01*
X162600Y513130D02*X163350Y513880D01*
X160350Y513130D02*X162600D01*
X159600Y513880D02*X160350Y513130D01*
X113000Y513880D02*X113750Y513130D01*
X113000Y515080D02*Y513880D01*
Y515080D02*X114050Y516130D01*
X114950D01*
X116000Y515080D01*
Y513880D01*
X115250Y513130D02*X116000Y513880D01*
X113750Y513130D02*X115250D01*
X113000Y517180D02*X114050Y516130D01*
X113000Y518380D02*Y517180D01*
Y518380D02*X113750Y519130D01*
X115250D01*
X116000Y518380D01*
Y517180D01*
X114950Y516130D02*X116000Y517180D01*
X118550Y513130D02*X120800Y516130D01*
Y518380D02*Y516130D01*
X120050Y519130D02*X120800Y518380D01*
X118550Y519130D02*X120050D01*
X117800Y518380D02*X118550Y519130D01*
X117800Y518380D02*Y516880D01*
X118550Y516130D01*
X120800D01*
X45000Y513880D02*X45750Y513130D01*
X45000Y518380D02*Y513880D01*
Y518380D02*X45750Y519130D01*
X47250D01*
X48000Y518380D01*
Y513880D01*
X47250Y513130D02*X48000Y513880D01*
X45750Y513130D02*X47250D01*
X45000Y514630D02*X48000Y517630D01*
X49800Y513130D02*X50550D01*
X52350Y513880D02*X53100Y513130D01*
X52350Y518380D02*Y513880D01*
Y518380D02*X53100Y519130D01*
X54600D01*
X55350Y518380D01*
Y513880D01*
X54600Y513130D02*X55350Y513880D01*
X53100Y513130D02*X54600D01*
X52350Y514630D02*X55350Y517630D01*
X57150Y518380D02*X57900Y519130D01*
X59400D01*
X60150Y518380D01*
X59400Y513130D02*X60150Y513880D01*
X57900Y513130D02*X59400D01*
X57150Y513880D02*X57900Y513130D01*
Y516430D02*X59400D01*
X60150Y518380D02*Y517180D01*
Y515680D02*Y513880D01*
Y515680D02*X59400Y516430D01*
X60150Y517180D02*X59400Y516430D01*
X62700Y513130D02*X64950Y516130D01*
Y518380D02*Y516130D01*
X64200Y519130D02*X64950Y518380D01*
X62700Y519130D02*X64200D01*
X61950Y518380D02*X62700Y519130D01*
X61950Y518380D02*Y516880D01*
X62700Y516130D01*
X64950D01*
X66750Y513130D02*X68250Y514630D01*
Y516880D02*Y516130D01*
X72750Y517930D02*X73950Y519130D01*
Y513130D01*
X72750D02*X75000D01*
X76800D02*X77550D01*
X79350Y513880D02*X80100Y513130D01*
X79350Y518380D02*Y513880D01*
Y518380D02*X80100Y519130D01*
X81600D01*
X82350Y518380D01*
Y513880D01*
X81600Y513130D02*X82350Y513880D01*
X80100Y513130D02*X81600D01*
X79350Y514630D02*X82350Y517630D01*
X84150Y513880D02*X84900Y513130D01*
X84150Y518380D02*Y513880D01*
Y518380D02*X84900Y519130D01*
X86400D01*
X87150Y518380D01*
Y513880D01*
X86400Y513130D02*X87150Y513880D01*
X84900Y513130D02*X86400D01*
X84150Y514630D02*X87150Y517630D01*
X59247Y220157D02*G75*G03X60847Y220157I800J0D01*G01*
G75*G03X59247Y220157I-800J0D01*G01*
Y230000D02*G75*G03X60847Y230000I800J0D01*G01*
G75*G03X59247Y230000I-800J0D01*G01*
X51373D02*G75*G03X52973Y230000I800J0D01*G01*
G75*G03X51373Y230000I-800J0D01*G01*
Y220157D02*G75*G03X52973Y220157I800J0D01*G01*
G75*G03X51373Y220157I-800J0D01*G01*
X14200Y531880D02*G75*G03X15800Y531880I800J0D01*G01*
G75*G03X14200Y531880I-800J0D01*G01*
X150000Y534130D02*X151500Y531130D01*
X153000Y534130D01*
X151500Y531130D02*Y528130D01*
X154800Y531430D02*X157050D01*
X154800Y528130D02*X157800D01*
X154800Y534130D02*Y528130D01*
Y534130D02*X157800D01*
X162600D02*X163350Y533380D01*
X160350Y534130D02*X162600D01*
X159600Y533380D02*X160350Y534130D01*
X159600Y533380D02*Y531880D01*
X160350Y531130D01*
X162600D01*
X163350Y530380D01*
Y528880D01*
X162600Y528130D02*X163350Y528880D01*
X160350Y528130D02*X162600D01*
X159600Y528880D02*X160350Y528130D01*
X113000Y530380D02*X116000Y534130D01*
X113000Y530380D02*X116750D01*
X116000Y534130D02*Y528130D01*
X45000Y528880D02*X45750Y528130D01*
X45000Y533380D02*Y528880D01*
Y533380D02*X45750Y534130D01*
X47250D01*
X48000Y533380D01*
Y528880D01*
X47250Y528130D02*X48000Y528880D01*
X45750Y528130D02*X47250D01*
X45000Y529630D02*X48000Y532630D01*
X49800Y528130D02*X50550D01*
X52350Y528880D02*X53100Y528130D01*
X52350Y533380D02*Y528880D01*
Y533380D02*X53100Y534130D01*
X54600D01*
X55350Y533380D01*
Y528880D01*
X54600Y528130D02*X55350Y528880D01*
X53100Y528130D02*X54600D01*
X52350Y529630D02*X55350Y532630D01*
X57150Y533380D02*X57900Y534130D01*
X59400D01*
X60150Y533380D01*
X59400Y528130D02*X60150Y528880D01*
X57900Y528130D02*X59400D01*
X57150Y528880D02*X57900Y528130D01*
Y531430D02*X59400D01*
X60150Y533380D02*Y532180D01*
Y530680D02*Y528880D01*
Y530680D02*X59400Y531430D01*
X60150Y532180D02*X59400Y531430D01*
X61950Y534130D02*X64950D01*
X61950D02*Y531130D01*
X62700Y531880D01*
X64200D01*
X64950Y531130D01*
Y528880D01*
X64200Y528130D02*X64950Y528880D01*
X62700Y528130D02*X64200D01*
X61950Y528880D02*X62700Y528130D01*
X66750D02*X68250Y529630D01*
Y531880D02*Y531130D01*
X72750Y528880D02*X73500Y528130D01*
X72750Y533380D02*Y528880D01*
Y533380D02*X73500Y534130D01*
X75000D01*
X75750Y533380D01*
Y528880D01*
X75000Y528130D02*X75750Y528880D01*
X73500Y528130D02*X75000D01*
X72750Y529630D02*X75750Y532630D01*
X77550Y528130D02*X78300D01*
X80850D02*X83100Y531130D01*
Y533380D02*Y531130D01*
X82350Y534130D02*X83100Y533380D01*
X80850Y534130D02*X82350D01*
X80100Y533380D02*X80850Y534130D01*
X80100Y533380D02*Y531880D01*
X80850Y531130D01*
X83100D01*
X84900Y528880D02*X85650Y528130D01*
X84900Y533380D02*Y528880D01*
Y533380D02*X85650Y534130D01*
X87150D01*
X87900Y533380D01*
Y528880D01*
X87150Y528130D02*X87900Y528880D01*
X85650Y528130D02*X87150D01*
X84900Y529630D02*X87900Y532630D01*
X68347Y226357D02*X70747Y223957D01*
X68347D02*X70747Y226357D01*
X22847Y377357D02*X25247Y374957D01*
X22847D02*X25247Y377357D01*
X134847Y403357D02*X137247Y400957D01*
X134847D02*X137247Y403357D01*
X134847Y409357D02*X137247Y406957D01*
X134847D02*X137247Y409357D01*
X137847Y358357D02*X140247Y355957D01*
X137847D02*X140247Y358357D01*
X116847Y329857D02*X119247Y327457D01*
X116847D02*X119247Y329857D01*
X162847Y363357D02*X165247Y360957D01*
X162847D02*X165247Y363357D01*
X244847Y323357D02*X247247Y320957D01*
X244847D02*X247247Y323357D01*
X251847Y380857D02*X254247Y378457D01*
X251847D02*X254247Y380857D01*
X251847Y398857D02*X254247Y396457D01*
X251847D02*X254247Y398857D01*
X367347Y93357D02*X369747Y90957D01*
X367347D02*X369747Y93357D01*
X413347D02*X415747Y90957D01*
X413347D02*X415747Y93357D01*
X131347Y12357D02*X133747Y9957D01*
X131347D02*X133747Y12357D01*
X137347D02*X139747Y9957D01*
X137347D02*X139747Y12357D01*
X344847D02*X347247Y9957D01*
X344847D02*X347247Y12357D01*
X283847Y73357D02*X286247Y70957D01*
X283847D02*X286247Y73357D01*
X289847D02*X292247Y70957D01*
X289847D02*X292247Y73357D01*
X341347Y78857D02*X343747Y76457D01*
X341347D02*X343747Y78857D01*
X452347Y40857D02*X454747Y38457D01*
X452347D02*X454747Y40857D01*
X291847Y34357D02*X294247Y31957D01*
X291847D02*X294247Y34357D01*
X49347Y132357D02*X51747Y129957D01*
X49347D02*X51747Y132357D01*
X43347D02*X45747Y129957D01*
X43347D02*X45747Y132357D01*
X87347Y134357D02*X89747Y131957D01*
X87347D02*X89747Y134357D01*
X81347D02*X83747Y131957D01*
X81347D02*X83747Y134357D01*
X41347Y112857D02*X43747Y110457D01*
X41347D02*X43747Y112857D01*
X47347D02*X49747Y110457D01*
X47347D02*X49747Y112857D01*
X112347D02*X114747Y110457D01*
X112347D02*X114747Y112857D01*
X112347Y106857D02*X114747Y104457D01*
X112347D02*X114747Y106857D01*
X146347Y114857D02*X148747Y112457D01*
X146347D02*X148747Y114857D01*
X146347Y120857D02*X148747Y118457D01*
X146347D02*X148747Y120857D01*
X110847Y44857D02*X113247Y42457D01*
X110847D02*X113247Y44857D01*
X110847Y52857D02*X113247Y50457D01*
X110847D02*X113247Y52857D01*
X207847Y50857D02*X210247Y48457D01*
X207847D02*X210247Y50857D01*
X207847Y42857D02*X210247Y40457D01*
X207847D02*X210247Y42857D01*
X252847Y50357D02*X255247Y47957D01*
X252847D02*X255247Y50357D01*
X262847D02*X265247Y47957D01*
X262847D02*X265247Y50357D01*
X272847D02*X275247Y47957D01*
X272847D02*X275247Y50357D01*
X257847Y42357D02*X260247Y39957D01*
X257847D02*X260247Y42357D01*
X267847D02*X270247Y39957D01*
X267847D02*X270247Y42357D01*
X257847Y58357D02*X260247Y55957D01*
X257847D02*X260247Y58357D01*
X267847D02*X270247Y55957D01*
X267847D02*X270247Y58357D01*
X13800Y548080D02*X16200Y545680D01*
X13800D02*X16200Y548080D01*
X150000Y549130D02*X151500Y546130D01*
X153000Y549130D01*
X151500Y546130D02*Y543130D01*
X154800Y546430D02*X157050D01*
X154800Y543130D02*X157800D01*
X154800Y549130D02*Y543130D01*
Y549130D02*X157800D01*
X162600D02*X163350Y548380D01*
X160350Y549130D02*X162600D01*
X159600Y548380D02*X160350Y549130D01*
X159600Y548380D02*Y546880D01*
X160350Y546130D01*
X162600D01*
X163350Y545380D01*
Y543880D01*
X162600Y543130D02*X163350Y543880D01*
X160350Y543130D02*X162600D01*
X159600Y543880D02*X160350Y543130D01*
X113000Y545380D02*X116000Y549130D01*
X113000Y545380D02*X116750D01*
X116000Y549130D02*Y543130D01*
X118550Y547930D02*X119750Y549130D01*
Y543130D01*
X118550D02*X120800D01*
X45000Y543880D02*X45750Y543130D01*
X45000Y548380D02*Y543880D01*
Y548380D02*X45750Y549130D01*
X47250D01*
X48000Y548380D01*
Y543880D01*
X47250Y543130D02*X48000Y543880D01*
X45750Y543130D02*X47250D01*
X45000Y544630D02*X48000Y547630D01*
X49800Y543130D02*X50550D01*
X52350Y543880D02*X53100Y543130D01*
X52350Y548380D02*Y543880D01*
Y548380D02*X53100Y549130D01*
X54600D01*
X55350Y548380D01*
Y543880D01*
X54600Y543130D02*X55350Y543880D01*
X53100Y543130D02*X54600D01*
X52350Y544630D02*X55350Y547630D01*
X57150Y548380D02*X57900Y549130D01*
X59400D01*
X60150Y548380D01*
X59400Y543130D02*X60150Y543880D01*
X57900Y543130D02*X59400D01*
X57150Y543880D02*X57900Y543130D01*
Y546430D02*X59400D01*
X60150Y548380D02*Y547180D01*
Y545680D02*Y543880D01*
Y545680D02*X59400Y546430D01*
X60150Y547180D02*X59400Y546430D01*
X61950Y547930D02*X63150Y549130D01*
Y543130D01*
X61950D02*X64200D01*
X66000D02*X67500Y544630D01*
Y546880D02*Y546130D01*
X72000Y543880D02*X72750Y543130D01*
X72000Y548380D02*Y543880D01*
Y548380D02*X72750Y549130D01*
X74250D01*
X75000Y548380D01*
Y543880D01*
X74250Y543130D02*X75000Y543880D01*
X72750Y543130D02*X74250D01*
X72000Y544630D02*X75000Y547630D01*
X76800Y543130D02*X77550D01*
X79350Y543880D02*X80100Y543130D01*
X79350Y545080D02*Y543880D01*
Y545080D02*X80400Y546130D01*
X81300D01*
X82350Y545080D01*
Y543880D01*
X81600Y543130D02*X82350Y543880D01*
X80100Y543130D02*X81600D01*
X79350Y547180D02*X80400Y546130D01*
X79350Y548380D02*Y547180D01*
Y548380D02*X80100Y549130D01*
X81600D01*
X82350Y548380D01*
Y547180D01*
X81300Y546130D02*X82350Y547180D01*
X84150Y543880D02*X84900Y543130D01*
X84150Y548380D02*Y543880D01*
Y548380D02*X84900Y549130D01*
X86400D01*
X87150Y548380D01*
Y543880D01*
X86400Y543130D02*X87150Y543880D01*
X84900Y543130D02*X86400D01*
X84150Y544630D02*X87150Y547630D01*
X354047Y351757D02*Y348557D01*
X352447Y350157D02*X355647D01*
X354047Y280757D02*Y277557D01*
X352447Y279157D02*X355647D01*
X354047Y209757D02*Y206557D01*
X352447Y208157D02*X355647D01*
X354047Y138757D02*Y135557D01*
X352447Y137157D02*X355647D01*
X400047Y136757D02*Y133557D01*
X398447Y135157D02*X401647D01*
X400047Y207757D02*Y204557D01*
X398447Y206157D02*X401647D01*
X400047Y278757D02*Y275557D01*
X398447Y277157D02*X401647D01*
X400047Y349757D02*Y346557D01*
X398447Y348157D02*X401647D01*
X283047Y301257D02*Y298057D01*
X281447Y299657D02*X284647D01*
X312547Y271257D02*Y268057D01*
X310947Y269657D02*X314147D01*
X199047Y224757D02*Y221557D01*
X197447Y223157D02*X200647D01*
X296547Y256257D02*Y253057D01*
X294947Y254657D02*X298147D01*
X188047Y213757D02*Y210557D01*
X186447Y212157D02*X189647D01*
X218547Y232257D02*Y229057D01*
X216947Y230657D02*X220147D01*
X227547Y190757D02*Y187557D01*
X225947Y189157D02*X229147D01*
X123547Y295257D02*Y292057D01*
X121947Y293657D02*X125147D01*
X74047Y288757D02*Y285557D01*
X72447Y287157D02*X75647D01*
X283547Y222257D02*Y219057D01*
X281947Y220657D02*X285147D01*
X266547Y205757D02*Y202557D01*
X264947Y204157D02*X268147D01*
X294047Y214257D02*Y211057D01*
X292447Y212657D02*X295647D01*
X97547Y318757D02*Y315557D01*
X95947Y317157D02*X99147D01*
X103547Y313257D02*Y310057D01*
X101947Y311657D02*X105147D01*
X70047Y250757D02*Y247557D01*
X68447Y249157D02*X71647D01*
X45047Y345757D02*Y342557D01*
X43447Y344157D02*X46647D01*
X62047Y366757D02*Y363557D01*
X60447Y365157D02*X63647D01*
X55047Y276757D02*Y273557D01*
X53447Y275157D02*X56647D01*
X55047Y280757D02*Y277557D01*
X53447Y279157D02*X56647D01*
X55047Y333757D02*Y330557D01*
X53447Y332157D02*X56647D01*
X55047Y337757D02*Y334557D01*
X53447Y336157D02*X56647D01*
X144047Y188257D02*Y185057D01*
X142447Y186657D02*X145647D01*
X269547Y223757D02*Y220557D01*
X267947Y222157D02*X271147D01*
X260547Y221757D02*Y218557D01*
X258947Y220157D02*X262147D01*
X276547Y311257D02*Y308057D01*
X274947Y309657D02*X278147D01*
X193647Y247957D02*Y244757D01*
X192047Y246357D02*X195247D01*
X177047Y211757D02*Y208557D01*
X175447Y210157D02*X178647D01*
X170047Y286257D02*Y283057D01*
X168447Y284657D02*X171647D01*
X170547Y266757D02*Y263557D01*
X168947Y265157D02*X172147D01*
X160547Y266757D02*Y263557D01*
X158947Y265157D02*X162147D01*
X156547Y277257D02*Y274057D01*
X154947Y275657D02*X158147D01*
X156547Y286257D02*Y283057D01*
X154947Y284657D02*X158147D01*
X143047Y295257D02*Y292057D01*
X141447Y293657D02*X144647D01*
X143047Y286257D02*Y283057D01*
X141447Y284657D02*X144647D01*
X143047Y277257D02*Y274057D01*
X141447Y275657D02*X144647D01*
X170047Y277257D02*Y274057D01*
X168447Y275657D02*X171647D01*
X143047Y241257D02*Y238057D01*
X141447Y239657D02*X144647D01*
X143047Y231257D02*Y228057D01*
X141447Y229657D02*X144647D01*
X130047Y286257D02*Y283057D01*
X128447Y284657D02*X131647D01*
X130047Y277257D02*Y274057D01*
X128447Y275657D02*X131647D01*
X130047Y268257D02*Y265057D01*
X128447Y266657D02*X131647D01*
X130047Y259257D02*Y256057D01*
X128447Y257657D02*X131647D01*
X130047Y250257D02*Y247057D01*
X128447Y248657D02*X131647D01*
X130047Y241257D02*Y238057D01*
X128447Y239657D02*X131647D01*
X130047Y231257D02*Y228057D01*
X128447Y229657D02*X131647D01*
X160547Y224757D02*Y221557D01*
X158947Y223157D02*X162147D01*
X170547Y253257D02*Y250057D01*
X168947Y251657D02*X172147D01*
X161547Y247757D02*Y244557D01*
X159947Y246157D02*X163147D01*
X205047Y245757D02*Y242557D01*
X203447Y244157D02*X206647D01*
X170547Y231757D02*Y228557D01*
X168947Y230157D02*X172147D01*
X170547Y237257D02*Y234057D01*
X168947Y235657D02*X172147D01*
X159047Y334757D02*Y331557D01*
X157447Y333157D02*X160647D01*
X169047Y334757D02*Y331557D01*
X167447Y333157D02*X170647D01*
X178547Y334757D02*Y331557D01*
X176947Y333157D02*X180147D01*
X191547Y334757D02*Y331557D01*
X189947Y333157D02*X193147D01*
X145047Y322757D02*Y319557D01*
X143447Y321157D02*X146647D01*
X208547Y328757D02*Y325557D01*
X206947Y327157D02*X210147D01*
X225047Y312257D02*Y309057D01*
X223447Y310657D02*X226647D01*
X225047Y307257D02*Y304057D01*
X223447Y305657D02*X226647D01*
X215047Y322257D02*Y319057D01*
X213447Y320657D02*X216647D01*
X195547Y334757D02*Y331557D01*
X193947Y333157D02*X197147D01*
X145047Y201757D02*Y198557D01*
X143447Y200157D02*X146647D01*
X144047Y184257D02*Y181057D01*
X142447Y182657D02*X145647D01*
X166547Y170757D02*Y167557D01*
X164947Y169157D02*X168147D01*
X202547Y170757D02*Y167557D01*
X200947Y169157D02*X204147D01*
X191547Y170757D02*Y167557D01*
X189947Y169157D02*X193147D01*
X161047Y192257D02*Y189057D01*
X159447Y190657D02*X162647D01*
X185547Y183757D02*Y180557D01*
X183947Y182157D02*X187147D01*
X202547Y203757D02*Y200557D01*
X200947Y202157D02*X204147D01*
X206547Y203757D02*Y200557D01*
X204947Y202157D02*X208147D01*
X191547Y210257D02*Y207057D01*
X189947Y208657D02*X193147D01*
X220047Y183757D02*Y180557D01*
X218447Y182157D02*X221647D01*
X249547Y185257D02*Y182057D01*
X247947Y183657D02*X251147D01*
X161547Y243757D02*Y240557D01*
X159947Y242157D02*X163147D01*
X248047Y245757D02*Y242557D01*
X246447Y244157D02*X249647D01*
X252047Y249757D02*Y246557D01*
X250447Y248157D02*X253647D01*
X256047Y253757D02*Y250557D01*
X254447Y252157D02*X257647D01*
X260047Y249757D02*Y246557D01*
X258447Y248157D02*X261647D01*
X252047Y241757D02*Y238557D01*
X250447Y240157D02*X253647D01*
X256047Y237757D02*Y234557D01*
X254447Y236157D02*X257647D01*
X260047Y241757D02*Y238557D01*
X258447Y240157D02*X261647D01*
X256047Y245757D02*Y242557D01*
X254447Y244157D02*X257647D01*
X141547Y266257D02*Y263057D01*
X139947Y264657D02*X143147D01*
X141547Y259757D02*Y256557D01*
X139947Y258157D02*X143147D01*
X141547Y253757D02*Y250557D01*
X139947Y252157D02*X143147D01*
X144547Y262757D02*Y259557D01*
X142947Y261157D02*X146147D01*
X144547Y256757D02*Y253557D01*
X142947Y255157D02*X146147D01*
X224047Y226757D02*Y223557D01*
X222447Y225157D02*X225647D01*
X229547Y221257D02*Y218057D01*
X227947Y219657D02*X231147D01*
X216047Y256257D02*Y253057D01*
X214447Y254657D02*X217647D01*
X245547Y214257D02*Y211057D01*
X243947Y212657D02*X247147D01*
X245547Y223257D02*Y220057D01*
X243947Y221657D02*X247147D01*
X231047Y270757D02*Y267557D01*
X229447Y269157D02*X232647D01*
X231047Y262257D02*Y259057D01*
X229447Y260657D02*X232647D01*
X231047Y253257D02*Y250057D01*
X229447Y251657D02*X232647D01*
X231047Y244257D02*Y241057D01*
X229447Y242657D02*X232647D01*
X231047Y236757D02*Y233557D01*
X229447Y235157D02*X232647D01*
X225047Y242757D02*Y239557D01*
X223447Y241157D02*X226647D01*
X219047Y248257D02*Y245057D01*
X217447Y246657D02*X220647D01*
X242047Y235257D02*Y232057D01*
X240447Y233657D02*X243647D01*
X242047Y244257D02*Y241057D01*
X240447Y242657D02*X243647D01*
X242047Y253257D02*Y250057D01*
X240447Y251657D02*X243647D01*
X242047Y262257D02*Y259057D01*
X240447Y260657D02*X243647D01*
X242047Y271257D02*Y268057D01*
X240447Y269657D02*X243647D01*
X242047Y280257D02*Y277057D01*
X240447Y278657D02*X243647D01*
X252047Y290757D02*Y287557D01*
X250447Y289157D02*X253647D01*
X256047Y280257D02*Y277057D01*
X254447Y278657D02*X257647D01*
X262547Y271257D02*Y268057D01*
X260947Y269657D02*X264147D01*
X262547Y262257D02*Y259057D01*
X260947Y260657D02*X264147D01*
X286047Y237757D02*Y234557D01*
X284447Y236157D02*X287647D01*
X286047Y245757D02*Y242557D01*
X284447Y244157D02*X287647D01*
X286047Y253257D02*Y250057D01*
X284447Y251657D02*X287647D01*
X286047Y262257D02*Y259057D01*
X284447Y260657D02*X287647D01*
X310547Y245757D02*Y242557D01*
X308947Y244157D02*X312147D01*
X301547Y249757D02*Y246557D01*
X299947Y248157D02*X303147D01*
X262047Y290757D02*Y287557D01*
X260447Y289157D02*X263647D01*
X267047Y283257D02*Y280057D01*
X265447Y281657D02*X268647D01*
X124047Y245757D02*Y242557D01*
X122447Y244157D02*X125647D01*
X80047Y288757D02*Y285557D01*
X78447Y287157D02*X81647D01*
X80047Y269757D02*Y266557D01*
X78447Y268157D02*X81647D01*
X96047Y269757D02*Y266557D01*
X94447Y268157D02*X97647D01*
X96047Y288757D02*Y285557D01*
X94447Y287157D02*X97647D01*
X80047Y307757D02*Y304557D01*
X78447Y306157D02*X81647D01*
X96047Y307757D02*Y304557D01*
X94447Y306157D02*X97647D01*
X97047Y402757D02*Y399557D01*
X95447Y401157D02*X98647D01*
X144547Y348757D02*Y345557D01*
X142947Y347157D02*X146147D01*
X158547Y351757D02*Y348557D01*
X156947Y350157D02*X160147D01*
X178547Y351757D02*Y348557D01*
X176947Y350157D02*X180147D01*
X191547Y351757D02*Y348557D01*
X189947Y350157D02*X193147D01*
X191547Y355757D02*Y352557D01*
X189947Y354157D02*X193147D01*
X178547Y355757D02*Y352557D01*
X176947Y354157D02*X180147D01*
X158547Y355757D02*Y352557D01*
X156947Y354157D02*X160147D01*
X144547Y352757D02*Y349557D01*
X142947Y351157D02*X146147D01*
X133547Y337757D02*Y334557D01*
X131947Y336157D02*X135147D01*
X133547Y341757D02*Y338557D01*
X131947Y340157D02*X135147D01*
X301547Y241757D02*Y238557D01*
X299947Y240157D02*X303147D01*
X272047Y271257D02*Y268057D01*
X270447Y269657D02*X273647D01*
X272047Y262257D02*Y259057D01*
X270447Y260657D02*X273647D01*
X272047Y237757D02*Y234557D01*
X270447Y236157D02*X273647D01*
X272047Y253757D02*Y250557D01*
X270447Y252157D02*X273647D01*
X272047Y245757D02*Y242557D01*
X270447Y244157D02*X273647D01*
X242047Y336257D02*Y333057D01*
X240447Y334657D02*X243647D01*
X233547Y335757D02*Y332557D01*
X231947Y334157D02*X235147D01*
X259547Y325757D02*Y322557D01*
X257947Y324157D02*X261147D01*
X271047Y357757D02*Y354557D01*
X269447Y356157D02*X272647D01*
X130547Y196257D02*Y193057D01*
X128947Y194657D02*X132147D01*
X130547Y192257D02*Y189057D01*
X128947Y190657D02*X132147D01*
X81547Y169257D02*Y166057D01*
X79947Y167657D02*X83147D01*
X111547Y163757D02*Y160557D01*
X109947Y162157D02*X113147D01*
X136047Y162257D02*Y159057D01*
X134447Y160657D02*X137647D01*
X242047Y373757D02*Y370557D01*
X240447Y372157D02*X243647D01*
X249047Y359757D02*Y356557D01*
X247447Y358157D02*X250647D01*
X242047Y341757D02*Y338557D01*
X240447Y340157D02*X243647D01*
X241547Y177257D02*Y174057D01*
X239947Y175657D02*X243147D01*
X269547Y135257D02*Y132057D01*
X267947Y133657D02*X271147D01*
X258547Y149757D02*Y146557D01*
X256947Y148157D02*X260147D01*
X406547Y437257D02*Y434057D01*
X404947Y435657D02*X408147D01*
X406547Y427257D02*Y424057D01*
X404947Y425657D02*X408147D01*
X378047Y441757D02*Y438557D01*
X376447Y440157D02*X379647D01*
X376047Y399257D02*Y396057D01*
X374447Y397657D02*X377647D01*
X254547Y172257D02*Y169057D01*
X252947Y170657D02*X256147D01*
X234047Y157757D02*Y154557D01*
X232447Y156157D02*X235647D01*
X244047Y161757D02*Y158557D01*
X242447Y160157D02*X245647D01*
X244047Y105757D02*Y102557D01*
X242447Y104157D02*X245647D01*
X311547Y53757D02*Y50557D01*
X309947Y52157D02*X313147D01*
X307547Y41757D02*Y38557D01*
X305947Y40157D02*X309147D01*
X299547Y44757D02*Y41557D01*
X297947Y43157D02*X301147D01*
X298047Y12757D02*Y9557D01*
X296447Y11157D02*X299647D01*
X341047Y29757D02*Y26557D01*
X339447Y28157D02*X342647D01*
X339047Y50257D02*Y47057D01*
X337447Y48657D02*X340647D01*
X318047Y67257D02*Y64057D01*
X316447Y65657D02*X319647D01*
X336547Y45757D02*Y42557D01*
X334947Y44157D02*X338147D01*
X350547Y56757D02*Y53557D01*
X348947Y55157D02*X352147D01*
X376047Y52757D02*Y49557D01*
X374447Y51157D02*X377647D01*
X341047Y39757D02*Y36557D01*
X339447Y38157D02*X342647D01*
X75047Y125257D02*Y122057D01*
X73447Y123657D02*X76647D01*
X84047Y74757D02*Y71557D01*
X82447Y73157D02*X85647D01*
X88047Y74757D02*Y71557D01*
X86447Y73157D02*X89647D01*
X110047Y80757D02*Y77557D01*
X108447Y79157D02*X111647D01*
X104547Y127257D02*Y124057D01*
X102947Y125657D02*X106147D01*
X104547Y141757D02*Y138557D01*
X102947Y140157D02*X106147D01*
X88047Y78757D02*Y75557D01*
X86447Y77157D02*X89647D01*
X198047Y71757D02*Y68557D01*
X196447Y70157D02*X199647D01*
X198047Y67757D02*Y64557D01*
X196447Y66157D02*X199647D01*
X194047Y71757D02*Y68557D01*
X192447Y70157D02*X195647D01*
X205547Y84257D02*Y81057D01*
X203947Y82657D02*X207147D01*
X234047Y105757D02*Y102557D01*
X232447Y104157D02*X235647D01*
X211047Y100257D02*Y97057D01*
X209447Y98657D02*X212647D01*
X218047Y125757D02*Y122557D01*
X216447Y124157D02*X219647D01*
X269047Y125257D02*Y122057D01*
X267447Y123657D02*X270647D01*
X179047Y118257D02*Y115057D01*
X177447Y116657D02*X180647D01*
X219547Y98257D02*Y95057D01*
X217947Y96657D02*X221147D01*
X257047Y101257D02*Y98057D01*
X255447Y99657D02*X258647D01*
X15000Y563480D02*Y560280D01*
X13400Y561880D02*X16600D01*
X150000Y564130D02*X151500Y561130D01*
X153000Y564130D01*
X151500Y561130D02*Y558130D01*
X154800Y561430D02*X157050D01*
X154800Y558130D02*X157800D01*
X154800Y564130D02*Y558130D01*
Y564130D02*X157800D01*
X162600D02*X163350Y563380D01*
X160350Y564130D02*X162600D01*
X159600Y563380D02*X160350Y564130D01*
X159600Y563380D02*Y561880D01*
X160350Y561130D01*
X162600D01*
X163350Y560380D01*
Y558880D01*
X162600Y558130D02*X163350Y558880D01*
X160350Y558130D02*X162600D01*
X159600Y558880D02*X160350Y558130D01*
X113000Y563380D02*X113750Y564130D01*
X116000D01*
X116750Y563380D01*
Y561880D01*
X113000Y558130D02*X116750Y561880D01*
X113000Y558130D02*X116750D01*
X118550Y558880D02*X119300Y558130D01*
X118550Y563380D02*Y558880D01*
Y563380D02*X119300Y564130D01*
X120800D01*
X121550Y563380D01*
Y558880D01*
X120800Y558130D02*X121550Y558880D01*
X119300Y558130D02*X120800D01*
X118550Y559630D02*X121550Y562630D01*
X123350Y562930D02*X124550Y564130D01*
Y558130D01*
X123350D02*X125600D01*
X45000Y558880D02*X45750Y558130D01*
X45000Y563380D02*Y558880D01*
Y563380D02*X45750Y564130D01*
X47250D01*
X48000Y563380D01*
Y558880D01*
X47250Y558130D02*X48000Y558880D01*
X45750Y558130D02*X47250D01*
X45000Y559630D02*X48000Y562630D01*
X49800Y558130D02*X50550D01*
X52350Y558880D02*X53100Y558130D01*
X52350Y563380D02*Y558880D01*
Y563380D02*X53100Y564130D01*
X54600D01*
X55350Y563380D01*
Y558880D01*
X54600Y558130D02*X55350Y558880D01*
X53100Y558130D02*X54600D01*
X52350Y559630D02*X55350Y562630D01*
X57150Y563380D02*X57900Y564130D01*
X60150D01*
X60900Y563380D01*
Y561880D01*
X57150Y558130D02*X60900Y561880D01*
X57150Y558130D02*X60900D01*
X62700Y558880D02*X63450Y558130D01*
X62700Y563380D02*Y558880D01*
Y563380D02*X63450Y564130D01*
X64950D01*
X65700Y563380D01*
Y558880D01*
X64950Y558130D02*X65700Y558880D01*
X63450Y558130D02*X64950D01*
X62700Y559630D02*X65700Y562630D01*
X67500Y558130D02*X69000Y559630D01*
Y561880D02*Y561130D01*
X73500Y558880D02*X74250Y558130D01*
X73500Y563380D02*Y558880D01*
Y563380D02*X74250Y564130D01*
X75750D01*
X76500Y563380D01*
Y558880D01*
X75750Y558130D02*X76500Y558880D01*
X74250Y558130D02*X75750D01*
X73500Y559630D02*X76500Y562630D01*
X78300Y558130D02*X79050D01*
X80850Y564130D02*X83850D01*
X80850D02*Y561130D01*
X81600Y561880D01*
X83100D01*
X83850Y561130D01*
Y558880D01*
X83100Y558130D02*X83850Y558880D01*
X81600Y558130D02*X83100D01*
X80850Y558880D02*X81600Y558130D01*
X85650Y558880D02*X86400Y558130D01*
X85650Y563380D02*Y558880D01*
Y563380D02*X86400Y564130D01*
X87900D01*
X88650Y563380D01*
Y558880D01*
X87900Y558130D02*X88650Y558880D01*
X86400Y558130D02*X87900D01*
X85650Y559630D02*X88650Y562630D01*
X399547Y379157D02*Y377557D01*
Y379157D02*X400934Y379957D01*
X399547Y379157D02*X398161Y379957D01*
X399547Y357157D02*Y355557D01*
Y357157D02*X400934Y357957D01*
X399547Y357157D02*X398161Y357957D01*
X414547Y379157D02*Y377557D01*
Y379157D02*X415934Y379957D01*
X414547Y379157D02*X413161Y379957D01*
X414547Y357157D02*Y355557D01*
Y357157D02*X415934Y357957D01*
X414547Y357157D02*X413161Y357957D01*
X353547Y368157D02*Y366557D01*
Y368157D02*X354934Y368957D01*
X353547Y368157D02*X352161Y368957D01*
X368547Y368157D02*Y366557D01*
Y368157D02*X369934Y368957D01*
X368547Y368157D02*X367161Y368957D01*
X399547Y117157D02*Y115557D01*
Y117157D02*X400934Y117957D01*
X399547Y117157D02*X398161Y117957D01*
X414547Y117157D02*Y115557D01*
Y117157D02*X415934Y117957D01*
X414547Y117157D02*X413161Y117957D01*
X353547Y128157D02*Y126557D01*
Y128157D02*X354934Y128957D01*
X353547Y128157D02*X352161Y128957D01*
X353547Y106157D02*Y104557D01*
Y106157D02*X354934Y106957D01*
X353547Y106157D02*X352161Y106957D01*
X368547Y128157D02*Y126557D01*
Y128157D02*X369934Y128957D01*
X368547Y128157D02*X367161Y128957D01*
X368547Y106157D02*Y104557D01*
Y106157D02*X369934Y106957D01*
X368547Y106157D02*X367161Y106957D01*
X399547Y188157D02*Y186557D01*
Y188157D02*X400934Y188957D01*
X399547Y188157D02*X398161Y188957D01*
X399547Y166157D02*Y164557D01*
Y166157D02*X400934Y166957D01*
X399547Y166157D02*X398161Y166957D01*
X399547Y144157D02*Y142557D01*
Y144157D02*X400934Y144957D01*
X399547Y144157D02*X398161Y144957D01*
X414547Y188157D02*Y186557D01*
Y188157D02*X415934Y188957D01*
X414547Y188157D02*X413161Y188957D01*
X414547Y166157D02*Y164557D01*
Y166157D02*X415934Y166957D01*
X414547Y166157D02*X413161Y166957D01*
X414547Y144157D02*Y142557D01*
Y144157D02*X415934Y144957D01*
X414547Y144157D02*X413161Y144957D01*
X353547Y199157D02*Y197557D01*
Y199157D02*X354934Y199957D01*
X353547Y199157D02*X352161Y199957D01*
X353547Y177157D02*Y175557D01*
Y177157D02*X354934Y177957D01*
X353547Y177157D02*X352161Y177957D01*
X353547Y155157D02*Y153557D01*
Y155157D02*X354934Y155957D01*
X353547Y155157D02*X352161Y155957D01*
X368547Y199157D02*Y197557D01*
Y199157D02*X369934Y199957D01*
X368547Y199157D02*X367161Y199957D01*
X368547Y177157D02*Y175557D01*
Y177157D02*X369934Y177957D01*
X368547Y177157D02*X367161Y177957D01*
X368547Y155157D02*Y153557D01*
Y155157D02*X369934Y155957D01*
X368547Y155157D02*X367161Y155957D01*
X399547Y259157D02*Y257557D01*
Y259157D02*X400934Y259957D01*
X399547Y259157D02*X398161Y259957D01*
X399547Y237157D02*Y235557D01*
Y237157D02*X400934Y237957D01*
X399547Y237157D02*X398161Y237957D01*
X399547Y215157D02*Y213557D01*
Y215157D02*X400934Y215957D01*
X399547Y215157D02*X398161Y215957D01*
X414547Y259157D02*Y257557D01*
Y259157D02*X415934Y259957D01*
X414547Y259157D02*X413161Y259957D01*
X414547Y237157D02*Y235557D01*
Y237157D02*X415934Y237957D01*
X414547Y237157D02*X413161Y237957D01*
X414547Y215157D02*Y213557D01*
Y215157D02*X415934Y215957D01*
X414547Y215157D02*X413161Y215957D01*
X353547Y270157D02*Y268557D01*
Y270157D02*X354934Y270957D01*
X353547Y270157D02*X352161Y270957D01*
X353547Y248157D02*Y246557D01*
Y248157D02*X354934Y248957D01*
X353547Y248157D02*X352161Y248957D01*
X353547Y226157D02*Y224557D01*
Y226157D02*X354934Y226957D01*
X353547Y226157D02*X352161Y226957D01*
X368547Y270157D02*Y268557D01*
Y270157D02*X369934Y270957D01*
X368547Y270157D02*X367161Y270957D01*
X368547Y248157D02*Y246557D01*
Y248157D02*X369934Y248957D01*
X368547Y248157D02*X367161Y248957D01*
X368547Y226157D02*Y224557D01*
Y226157D02*X369934Y226957D01*
X368547Y226157D02*X367161Y226957D01*
X399547Y330157D02*Y328557D01*
Y330157D02*X400934Y330957D01*
X399547Y330157D02*X398161Y330957D01*
X399547Y308157D02*Y306557D01*
Y308157D02*X400934Y308957D01*
X399547Y308157D02*X398161Y308957D01*
X399547Y286157D02*Y284557D01*
Y286157D02*X400934Y286957D01*
X399547Y286157D02*X398161Y286957D01*
X414547Y330157D02*Y328557D01*
Y330157D02*X415934Y330957D01*
X414547Y330157D02*X413161Y330957D01*
X414547Y308157D02*Y306557D01*
Y308157D02*X415934Y308957D01*
X414547Y308157D02*X413161Y308957D01*
X414547Y286157D02*Y284557D01*
Y286157D02*X415934Y286957D01*
X414547Y286157D02*X413161Y286957D01*
X353547Y341157D02*Y339557D01*
Y341157D02*X354934Y341957D01*
X353547Y341157D02*X352161Y341957D01*
X353547Y319157D02*Y317557D01*
Y319157D02*X354934Y319957D01*
X353547Y319157D02*X352161Y319957D01*
X353547Y297157D02*Y295557D01*
Y297157D02*X354934Y297957D01*
X353547Y297157D02*X352161Y297957D01*
X368547Y341157D02*Y339557D01*
Y341157D02*X369934Y341957D01*
X368547Y341157D02*X367161Y341957D01*
X368547Y319157D02*Y317557D01*
Y319157D02*X369934Y319957D01*
X368547Y319157D02*X367161Y319957D01*
X368547Y297157D02*Y295557D01*
Y297157D02*X369934Y297957D01*
X368547Y297157D02*X367161Y297957D01*
X325047Y219157D02*Y217557D01*
Y219157D02*X326434Y219957D01*
X325047Y219157D02*X323661Y219957D01*
X324047Y207357D02*Y205757D01*
Y207357D02*X325434Y208157D01*
X324047Y207357D02*X322661Y208157D01*
X266469Y340079D02*Y338479D01*
Y340079D02*X267856Y340879D01*
X266469Y340079D02*X265082Y340879D01*
X281318Y325230D02*Y323630D01*
Y325230D02*X282705Y326030D01*
X281318Y325230D02*X279931Y326030D01*
X296167Y310380D02*Y308780D01*
Y310380D02*X297554Y311180D01*
X296167Y310380D02*X294781Y311180D01*
X273894Y332654D02*Y331054D01*
Y332654D02*X275280Y333454D01*
X273894Y332654D02*X272507Y333454D01*
X288743Y317805D02*Y316205D01*
Y317805D02*X290130Y318605D01*
X288743Y317805D02*X287356Y318605D01*
X303592Y302956D02*Y301356D01*
Y302956D02*X304979Y303756D01*
X303592Y302956D02*X302205Y303756D01*
X318547Y288657D02*Y287057D01*
Y288657D02*X319934Y289457D01*
X318547Y288657D02*X317161Y289457D01*
X311017Y295531D02*Y293931D01*
Y295531D02*X312404Y296331D01*
X311017Y295531D02*X309631Y296331D01*
X317421Y200188D02*Y198588D01*
Y200188D02*X318808Y200988D01*
X317421Y200188D02*X316034Y200988D01*
X302572Y185339D02*Y183739D01*
Y185339D02*X303958Y186139D01*
X302572Y185339D02*X301185Y186139D01*
X287722Y170489D02*Y168889D01*
Y170489D02*X289109Y171289D01*
X287722Y170489D02*X286336Y171289D01*
X272873Y155640D02*Y154040D01*
Y155640D02*X274260Y156440D01*
X272873Y155640D02*X271487Y156440D01*
X309996Y192763D02*Y191163D01*
Y192763D02*X311383Y193563D01*
X309996Y192763D02*X308610Y193563D01*
X295147Y177914D02*Y176314D01*
Y177914D02*X296534Y178714D01*
X295147Y177914D02*X293761Y178714D01*
X280297Y163065D02*Y161465D01*
Y163065D02*X281684Y163865D01*
X280297Y163065D02*X278911Y163865D01*
X265448Y148216D02*Y146616D01*
Y148216D02*X266835Y149016D01*
X265448Y148216D02*X264062Y149016D01*
X281547Y187657D02*Y186057D01*
Y187657D02*X282934Y188457D01*
X281547Y187657D02*X280161Y188457D01*
X284547Y190657D02*Y189057D01*
Y190657D02*X285934Y191457D01*
X284547Y190657D02*X283161Y191457D01*
X283547Y203757D02*Y202157D01*
Y203757D02*X284934Y204557D01*
X283547Y203757D02*X282161Y204557D01*
X307047Y216657D02*Y215057D01*
Y216657D02*X308434Y217457D01*
X307047Y216657D02*X305661Y217457D01*
X311047Y218657D02*Y217057D01*
Y218657D02*X312434Y219457D01*
X311047Y218657D02*X309661Y219457D01*
X326547Y230157D02*Y228557D01*
Y230157D02*X327934Y230957D01*
X326547Y230157D02*X325161Y230957D01*
X326047Y238857D02*Y237257D01*
Y238857D02*X327434Y239657D01*
X326047Y238857D02*X324661Y239657D01*
X326047Y249357D02*Y247757D01*
Y249357D02*X327434Y250157D01*
X326047Y249357D02*X324661Y250157D01*
X326047Y259857D02*Y258257D01*
Y259857D02*X327434Y260657D01*
X326047Y259857D02*X324661Y260657D01*
X326047Y280857D02*Y279257D01*
Y280857D02*X327434Y281657D01*
X326047Y280857D02*X324661Y281657D01*
X326047Y270357D02*Y268757D01*
Y270357D02*X327434Y271157D01*
X326047Y270357D02*X324661Y271157D01*
X276047Y304657D02*Y303057D01*
Y304657D02*X277434Y305457D01*
X276047Y304657D02*X274661Y305457D01*
X276547Y290657D02*Y289057D01*
Y290657D02*X277934Y291457D01*
X276547Y290657D02*X275161Y291457D01*
X302547Y265157D02*Y263557D01*
Y265157D02*X303934Y265957D01*
X302547Y265157D02*X301161Y265957D01*
X313047Y264157D02*Y262557D01*
Y264157D02*X314434Y264957D01*
X313047Y264157D02*X311661Y264957D01*
X168547Y310157D02*Y308557D01*
Y310157D02*X169934Y310957D01*
X168547Y310157D02*X167161Y310957D01*
X168547Y314657D02*Y313057D01*
Y314657D02*X169934Y315457D01*
X168547Y314657D02*X167161Y315457D01*
X266547Y213657D02*Y212057D01*
Y213657D02*X267934Y214457D01*
X266547Y213657D02*X265161Y214457D01*
X151047Y311657D02*Y310057D01*
Y311657D02*X152434Y312457D01*
X151047Y311657D02*X149661Y312457D01*
X151047Y307157D02*Y305557D01*
Y307157D02*X152434Y307957D01*
X151047Y307157D02*X149661Y307957D01*
X258047Y302157D02*Y300557D01*
Y302157D02*X259434Y302957D01*
X258047Y302157D02*X256661Y302957D01*
X253547Y302657D02*Y301057D01*
Y302657D02*X254934Y303457D01*
X253547Y302657D02*X252161Y303457D01*
X197547Y322657D02*Y321057D01*
Y322657D02*X198934Y323457D01*
X197547Y322657D02*X196161Y323457D01*
X129047Y210157D02*Y208557D01*
Y210157D02*X130434Y210957D01*
X129047Y210157D02*X127661Y210957D01*
X148547Y178657D02*Y177057D01*
Y178657D02*X149934Y179457D01*
X148547Y178657D02*X147161Y179457D01*
X234547Y197157D02*Y195557D01*
Y197157D02*X235934Y197957D01*
X234547Y197157D02*X233161Y197957D01*
X237547Y194157D02*Y192557D01*
Y194157D02*X238934Y194957D01*
X237547Y194157D02*X236161Y194957D01*
X206547Y225157D02*Y223557D01*
Y225157D02*X207934Y225957D01*
X206547Y225157D02*X205161Y225957D01*
X209547Y222157D02*Y220557D01*
Y222157D02*X210934Y222957D01*
X209547Y222157D02*X208161Y222957D01*
X236547Y292157D02*Y290557D01*
Y292157D02*X237934Y292957D01*
X236547Y292157D02*X235161Y292957D01*
X230047Y299157D02*Y297557D01*
Y299157D02*X231434Y299957D01*
X230047Y299157D02*X228661Y299957D01*
X183547Y290157D02*Y288557D01*
Y290157D02*X184934Y290957D01*
X183547Y290157D02*X182161Y290957D01*
X205547Y289157D02*Y287557D01*
Y289157D02*X206934Y289957D01*
X205547Y289157D02*X204161Y289957D01*
X185547Y297657D02*Y296057D01*
Y297657D02*X186934Y298457D01*
X185547Y297657D02*X184161Y298457D01*
X200547Y319657D02*Y318057D01*
Y319657D02*X201934Y320457D01*
X200547Y319657D02*X199161Y320457D01*
X156047Y292157D02*Y290557D01*
Y292157D02*X157434Y292957D01*
X156047Y292157D02*X154661Y292957D01*
X197047Y311657D02*Y310057D01*
Y311657D02*X198434Y312457D01*
X197047Y311657D02*X195661Y312457D01*
X148547Y203157D02*Y201557D01*
Y203157D02*X149934Y203957D01*
X148547Y203157D02*X147161Y203957D01*
X106547Y283157D02*Y281557D01*
Y283157D02*X107934Y283957D01*
X106547Y283157D02*X105161Y283957D01*
X101547Y278657D02*Y277057D01*
Y278657D02*X102934Y279457D01*
X101547Y278657D02*X100161Y279457D01*
X106547Y267657D02*Y266057D01*
Y267657D02*X107934Y268457D01*
X106547Y267657D02*X105161Y268457D01*
X101547Y263157D02*Y261557D01*
Y263157D02*X102934Y263957D01*
X101547Y263157D02*X100161Y263957D01*
X203547Y316657D02*Y315057D01*
Y316657D02*X204934Y317457D01*
X203547Y316657D02*X202161Y317457D01*
X206547Y310657D02*Y309057D01*
Y310657D02*X207934Y311457D01*
X206547Y310657D02*X205161Y311457D01*
X200547Y313657D02*Y312057D01*
Y313657D02*X201934Y314457D01*
X200547Y313657D02*X199161Y314457D01*
X276547Y226657D02*Y225057D01*
Y226657D02*X277934Y227457D01*
X276547Y226657D02*X275161Y227457D01*
X111621Y238731D02*Y237131D01*
Y238731D02*X113008Y239531D01*
X111621Y238731D02*X110235Y239531D01*
X110547Y245157D02*Y243557D01*
Y245157D02*X111934Y245957D01*
X110547Y245157D02*X109161Y245957D01*
X186547Y274657D02*Y273057D01*
Y274657D02*X187934Y275457D01*
X186547Y274657D02*X185161Y275457D01*
X142047Y222157D02*Y220557D01*
Y222157D02*X143434Y222957D01*
X142047Y222157D02*X140661Y222957D01*
X183547Y257657D02*Y256057D01*
Y257657D02*X184934Y258457D01*
X183547Y257657D02*X182161Y258457D01*
X187547Y258657D02*Y257057D01*
Y258657D02*X188934Y259457D01*
X187547Y258657D02*X186161Y259457D01*
X122047Y257157D02*Y255557D01*
Y257157D02*X123434Y257957D01*
X122047Y257157D02*X120661Y257957D01*
X36047Y338657D02*Y337057D01*
Y338657D02*X37434Y339457D01*
X36047Y338657D02*X34661Y339457D01*
X28547Y343157D02*Y341557D01*
Y343157D02*X29934Y343957D01*
X28547Y343157D02*X27161Y343957D01*
X109547Y218657D02*Y217057D01*
Y218657D02*X110934Y219457D01*
X109547Y218657D02*X108161Y219457D01*
X114547Y196157D02*Y194557D01*
Y196157D02*X115934Y196957D01*
X114547Y196157D02*X113161Y196957D01*
X82047Y192657D02*Y191057D01*
Y192657D02*X83434Y193457D01*
X82047Y192657D02*X80661Y193457D01*
X87547Y214157D02*Y212557D01*
Y214157D02*X88934Y214957D01*
X87547Y214157D02*X86161Y214957D01*
X151047Y233657D02*Y232057D01*
Y233657D02*X152434Y234457D01*
X151047Y233657D02*X149661Y234457D01*
X151047Y294157D02*Y292557D01*
Y294157D02*X152434Y294957D01*
X151047Y294157D02*X149661Y294957D01*
X193547Y286657D02*Y285057D01*
Y286657D02*X194934Y287457D01*
X193547Y286657D02*X192161Y287457D01*
X186547Y310657D02*Y309057D01*
Y310657D02*X187934Y311457D01*
X186547Y310657D02*X185161Y311457D01*
X178547Y310657D02*Y309057D01*
Y310657D02*X179934Y311457D01*
X178547Y310657D02*X177161Y311457D01*
X182547Y310657D02*Y309057D01*
Y310657D02*X183934Y311457D01*
X182547Y310657D02*X181161Y311457D01*
X179547Y304157D02*Y302557D01*
Y304157D02*X180934Y304957D01*
X179547Y304157D02*X178161Y304957D01*
X179547Y298157D02*Y296557D01*
Y298157D02*X180934Y298957D01*
X179547Y298157D02*X178161Y298957D01*
X190047Y288657D02*Y287057D01*
Y288657D02*X191434Y289457D01*
X190047Y288657D02*X188661Y289457D01*
X192547Y269157D02*Y267557D01*
Y269157D02*X193934Y269957D01*
X192547Y269157D02*X191161Y269957D01*
X157047Y259157D02*Y257557D01*
Y259157D02*X158434Y259957D01*
X157047Y259157D02*X155661Y259957D01*
X155047Y262657D02*Y261057D01*
Y262657D02*X156434Y263457D01*
X155047Y262657D02*X153661Y263457D01*
X155047Y268657D02*Y267057D01*
Y268657D02*X156434Y269457D01*
X155047Y268657D02*X153661Y269457D01*
X159047Y255657D02*Y254057D01*
Y255657D02*X160434Y256457D01*
X159047Y255657D02*X157661Y256457D01*
X148047Y222157D02*Y220557D01*
Y222157D02*X149434Y222957D01*
X148047Y222157D02*X146661Y222957D01*
X201047Y349657D02*Y348057D01*
Y349657D02*X202434Y350457D01*
X201047Y349657D02*X199661Y350457D01*
X198047Y352657D02*Y351057D01*
Y352657D02*X199434Y353457D01*
X198047Y352657D02*X196661Y353457D01*
X201047Y355657D02*Y354057D01*
Y355657D02*X202434Y356457D01*
X201047Y355657D02*X199661Y356457D01*
X205047Y354657D02*Y353057D01*
Y354657D02*X206434Y355457D01*
X205047Y354657D02*X203661Y355457D01*
X141547Y210157D02*Y208557D01*
Y210157D02*X142934Y210957D01*
X141547Y210157D02*X140161Y210957D01*
X200047Y158657D02*Y157057D01*
Y158657D02*X201434Y159457D01*
X200047Y158657D02*X198661Y159457D01*
X197047Y155657D02*Y154057D01*
Y155657D02*X198434Y156457D01*
X197047Y155657D02*X195661Y156457D01*
X194047Y158657D02*Y157057D01*
Y158657D02*X195434Y159457D01*
X194047Y158657D02*X192661Y159457D01*
X150547Y164657D02*Y163057D01*
Y164657D02*X151934Y165457D01*
X150547Y164657D02*X149161Y165457D01*
X174047Y158657D02*Y157057D01*
Y158657D02*X175434Y159457D01*
X174047Y158657D02*X172661Y159457D01*
X111047Y293657D02*Y292057D01*
Y293657D02*X112434Y294457D01*
X111047Y293657D02*X109661Y294457D01*
X111047Y269157D02*Y267557D01*
Y269157D02*X112434Y269957D01*
X111047Y269157D02*X109661Y269957D01*
X151047Y373657D02*Y372057D01*
Y373657D02*X152434Y374457D01*
X151047Y373657D02*X149661Y374457D01*
X154047Y370657D02*Y369057D01*
Y370657D02*X155434Y371457D01*
X154047Y370657D02*X152661Y371457D01*
X148047Y376657D02*Y375057D01*
Y376657D02*X149434Y377457D01*
X148047Y376657D02*X146661Y377457D01*
X268047Y209657D02*Y208057D01*
Y209657D02*X269434Y210457D01*
X268047Y209657D02*X266661Y210457D01*
X293047Y150657D02*Y149057D01*
Y150657D02*X294434Y151457D01*
X293047Y150657D02*X291661Y151457D01*
X175047Y375657D02*Y374057D01*
Y375657D02*X176434Y376457D01*
X175047Y375657D02*X173661Y376457D01*
X175047Y380157D02*Y378557D01*
Y380157D02*X176434Y380957D01*
X175047Y380157D02*X173661Y380957D01*
X179547Y380157D02*Y378557D01*
Y380157D02*X180934Y380957D01*
X179547Y380157D02*X178161Y380957D01*
X179547Y384657D02*Y383057D01*
Y384657D02*X180934Y385457D01*
X179547Y384657D02*X178161Y385457D01*
X182547Y410157D02*Y408557D01*
Y410157D02*X183934Y410957D01*
X182547Y410157D02*X181161Y410957D01*
X181547Y388157D02*Y386557D01*
Y388157D02*X182934Y388957D01*
X181547Y388157D02*X180161Y388957D01*
X181547Y392657D02*Y391057D01*
Y392657D02*X182934Y393457D01*
X181547Y392657D02*X180161Y393457D01*
X164047Y376157D02*Y374557D01*
Y376157D02*X165434Y376957D01*
X164047Y376157D02*X162661Y376957D01*
X196047Y377157D02*Y375557D01*
Y377157D02*X197434Y377957D01*
X196047Y377157D02*X194661Y377957D01*
X196047Y389157D02*Y387557D01*
Y389157D02*X197434Y389957D01*
X196047Y389157D02*X194661Y389957D01*
X114547Y191657D02*Y190057D01*
Y191657D02*X115934Y192457D01*
X114547Y191657D02*X113161Y192457D01*
X118047Y177657D02*Y176057D01*
Y177657D02*X119434Y178457D01*
X118047Y177657D02*X116661Y178457D01*
X114547Y175657D02*Y174057D01*
Y175657D02*X115934Y176457D01*
X114547Y175657D02*X113161Y176457D01*
X111547Y172157D02*Y170557D01*
Y172157D02*X112934Y172957D01*
X111547Y172157D02*X110161Y172957D01*
X104047Y218657D02*Y217057D01*
Y218657D02*X105434Y219457D01*
X104047Y218657D02*X102661Y219457D01*
X72047Y156657D02*Y155057D01*
Y156657D02*X73434Y157457D01*
X72047Y156657D02*X70661Y157457D01*
X154047Y136657D02*Y135057D01*
Y136657D02*X155434Y137457D01*
X154047Y136657D02*X152661Y137457D01*
X158047Y134657D02*Y133057D01*
Y134657D02*X159434Y135457D01*
X158047Y134657D02*X156661Y135457D01*
X274047Y317657D02*Y316057D01*
Y317657D02*X275434Y318457D01*
X274047Y317657D02*X272661Y318457D01*
X397547Y417657D02*Y416057D01*
Y417657D02*X398934Y418457D01*
X397547Y417657D02*X396161Y418457D01*
X153547Y379657D02*Y378057D01*
Y379657D02*X154934Y380457D01*
X153547Y379657D02*X152161Y380457D01*
X234047Y133657D02*Y132057D01*
Y133657D02*X235434Y134457D01*
X234047Y133657D02*X232661Y134457D01*
X190047Y272657D02*Y271057D01*
Y272657D02*X191434Y273457D01*
X190047Y272657D02*X188661Y273457D01*
X203547Y264157D02*Y262557D01*
Y264157D02*X204934Y264957D01*
X203547Y264157D02*X202161Y264957D01*
X200547Y270657D02*Y269057D01*
Y270657D02*X201934Y271457D01*
X200547Y270657D02*X199161Y271457D01*
X151547Y148657D02*Y147057D01*
Y148657D02*X152934Y149457D01*
X151547Y148657D02*X150161Y149457D01*
X188047Y149657D02*Y148057D01*
Y149657D02*X189434Y150457D01*
X188047Y149657D02*X186661Y150457D01*
X314547Y25657D02*Y24057D01*
Y25657D02*X315934Y26457D01*
X314547Y25657D02*X313161Y26457D01*
X374547Y30657D02*Y29057D01*
Y30657D02*X375934Y31457D01*
X374547Y30657D02*X373161Y31457D01*
X431047Y45657D02*Y44057D01*
Y45657D02*X432434Y46457D01*
X431047Y45657D02*X429661Y46457D01*
X59047Y141657D02*Y140057D01*
Y141657D02*X60434Y142457D01*
X59047Y141657D02*X57661Y142457D01*
X55547Y93657D02*Y92057D01*
Y93657D02*X56934Y94457D01*
X55547Y93657D02*X54161Y94457D01*
X162047Y82657D02*Y81057D01*
Y82657D02*X163434Y83457D01*
X162047Y82657D02*X160661Y83457D01*
X188047Y132657D02*Y131057D01*
Y132657D02*X189434Y133457D01*
X188047Y132657D02*X186661Y133457D01*
X158547Y123157D02*Y121557D01*
Y123157D02*X159934Y123957D01*
X158547Y123157D02*X157161Y123957D01*
X202547Y64157D02*Y62557D01*
Y64157D02*X203934Y64957D01*
X202547Y64157D02*X201161Y64957D01*
X197047Y79157D02*Y77557D01*
Y79157D02*X198434Y79957D01*
X197047Y79157D02*X195661Y79957D01*
X34547Y223657D02*Y222057D01*
Y223657D02*X35934Y224457D01*
X34547Y223657D02*X33161Y224457D01*
X279047Y175157D02*Y173557D01*
Y175157D02*X280434Y175957D01*
X279047Y175157D02*X277661Y175957D01*
X270547Y166657D02*Y165057D01*
Y166657D02*X271934Y167457D01*
X270547Y166657D02*X269161Y167457D01*
X286047Y143157D02*Y141557D01*
Y143157D02*X287434Y143957D01*
X286047Y143157D02*X284661Y143957D01*
X278547Y135657D02*Y134057D01*
Y135657D02*X279934Y136457D01*
X278547Y135657D02*X277161Y136457D01*
X300547Y158157D02*Y156557D01*
Y158157D02*X301934Y158957D01*
X300547Y158157D02*X299161Y158957D01*
X308047Y165657D02*Y164057D01*
Y165657D02*X309434Y166457D01*
X308047Y165657D02*X306661Y166457D01*
X315547Y173157D02*Y171557D01*
Y173157D02*X316934Y173957D01*
X315547Y173157D02*X314161Y173957D01*
X317047Y316657D02*Y315057D01*
Y316657D02*X318434Y317457D01*
X317047Y316657D02*X315661Y317457D01*
X309547Y324157D02*Y322557D01*
Y324157D02*X310934Y324957D01*
X309547Y324157D02*X308161Y324957D01*
X302047Y331657D02*Y330057D01*
Y331657D02*X303434Y332457D01*
X302047Y331657D02*X300661Y332457D01*
X294547Y339157D02*Y337557D01*
Y339157D02*X295934Y339957D01*
X294547Y339157D02*X293161Y339957D01*
X287547Y346657D02*Y345057D01*
Y346657D02*X288934Y347457D01*
X287547Y346657D02*X286161Y347457D01*
X280047Y354157D02*Y352557D01*
Y354157D02*X281434Y354957D01*
X280047Y354157D02*X278661Y354957D01*
X435047Y12657D02*Y11057D01*
Y12657D02*X436434Y13457D01*
X435047Y12657D02*X433661Y13457D01*
X15000Y576880D02*Y575280D01*
Y576880D02*X16387Y577680D01*
X15000Y576880D02*X13613Y577680D01*
X150000Y579130D02*X151500Y576130D01*
X153000Y579130D01*
X151500Y576130D02*Y573130D01*
X154800Y576430D02*X157050D01*
X154800Y573130D02*X157800D01*
X154800Y579130D02*Y573130D01*
Y579130D02*X157800D01*
X162600D02*X163350Y578380D01*
X160350Y579130D02*X162600D01*
X159600Y578380D02*X160350Y579130D01*
X159600Y578380D02*Y576880D01*
X160350Y576130D01*
X162600D01*
X163350Y575380D01*
Y573880D01*
X162600Y573130D02*X163350Y573880D01*
X160350Y573130D02*X162600D01*
X159600Y573880D02*X160350Y573130D01*
X113000Y578380D02*X113750Y579130D01*
X116000D01*
X116750Y578380D01*
Y576880D01*
X113000Y573130D02*X116750Y576880D01*
X113000Y573130D02*X116750D01*
X118550Y573880D02*X119300Y573130D01*
X118550Y578380D02*Y573880D01*
Y578380D02*X119300Y579130D01*
X120800D01*
X121550Y578380D01*
Y573880D01*
X120800Y573130D02*X121550Y573880D01*
X119300Y573130D02*X120800D01*
X118550Y574630D02*X121550Y577630D01*
X124100Y573130D02*X126350Y576130D01*
Y578380D02*Y576130D01*
X125600Y579130D02*X126350Y578380D01*
X124100Y579130D02*X125600D01*
X123350Y578380D02*X124100Y579130D01*
X123350Y578380D02*Y576880D01*
X124100Y576130D01*
X126350D01*
X45000Y573880D02*X45750Y573130D01*
X45000Y578380D02*Y573880D01*
Y578380D02*X45750Y579130D01*
X47250D01*
X48000Y578380D01*
Y573880D01*
X47250Y573130D02*X48000Y573880D01*
X45750Y573130D02*X47250D01*
X45000Y574630D02*X48000Y577630D01*
X49800Y573130D02*X50550D01*
X52350Y573880D02*X53100Y573130D01*
X52350Y578380D02*Y573880D01*
Y578380D02*X53100Y579130D01*
X54600D01*
X55350Y578380D01*
Y573880D01*
X54600Y573130D02*X55350Y573880D01*
X53100Y573130D02*X54600D01*
X52350Y574630D02*X55350Y577630D01*
X57150Y577930D02*X58350Y579130D01*
Y573130D01*
X57150D02*X59400D01*
X61200Y578380D02*X61950Y579130D01*
X64200D01*
X64950Y578380D01*
Y576880D01*
X61200Y573130D02*X64950Y576880D01*
X61200Y573130D02*X64950D01*
X66750D02*X68250Y574630D01*
Y576880D02*Y576130D01*
X72750Y573880D02*X73500Y573130D01*
X72750Y578380D02*Y573880D01*
Y578380D02*X73500Y579130D01*
X75000D01*
X75750Y578380D01*
Y573880D01*
X75000Y573130D02*X75750Y573880D01*
X73500Y573130D02*X75000D01*
X72750Y574630D02*X75750Y577630D01*
X77550Y573130D02*X78300D01*
X80100Y578380D02*X80850Y579130D01*
X82350D01*
X83100Y578380D01*
X82350Y573130D02*X83100Y573880D01*
X80850Y573130D02*X82350D01*
X80100Y573880D02*X80850Y573130D01*
Y576430D02*X82350D01*
X83100Y578380D02*Y577180D01*
Y575680D02*Y573880D01*
Y575680D02*X82350Y576430D01*
X83100Y577180D02*X82350Y576430D01*
X84900Y573880D02*X85650Y573130D01*
X84900Y578380D02*Y573880D01*
Y578380D02*X85650Y579130D01*
X87150D01*
X87900Y578380D01*
Y573880D01*
X87150Y573130D02*X87900Y573880D01*
X85650Y573130D02*X87150D01*
X84900Y574630D02*X87900Y577630D01*
X3000Y594130D02*X3750Y593380D01*
X750Y594130D02*X3000D01*
X0Y593380D02*X750Y594130D01*
X0Y593380D02*Y591880D01*
X750Y591130D01*
X3000D01*
X3750Y590380D01*
Y588880D01*
X3000Y588130D02*X3750Y588880D01*
X750Y588130D02*X3000D01*
X0Y588880D02*X750Y588130D01*
X5550Y591130D02*Y588880D01*
X6300Y588130D01*
X8550Y591130D02*Y586630D01*
X7800Y585880D02*X8550Y586630D01*
X6300Y585880D02*X7800D01*
X5550Y586630D02*X6300Y585880D01*
Y588130D02*X7800D01*
X8550Y588880D01*
X11100Y590380D02*Y588130D01*
Y590380D02*X11850Y591130D01*
X12600D01*
X13350Y590380D01*
Y588130D01*
Y590380D02*X14100Y591130D01*
X14850D01*
X15600Y590380D01*
Y588130D01*
X10350Y591130D02*X11100Y590380D01*
X17400Y594130D02*Y588130D01*
Y588880D02*X18150Y588130D01*
X19650D01*
X20400Y588880D01*
Y590380D02*Y588880D01*
X19650Y591130D02*X20400Y590380D01*
X18150Y591130D02*X19650D01*
X17400Y590380D02*X18150Y591130D01*
X22200Y590380D02*Y588880D01*
Y590380D02*X22950Y591130D01*
X24450D01*
X25200Y590380D01*
Y588880D01*
X24450Y588130D02*X25200Y588880D01*
X22950Y588130D02*X24450D01*
X22200Y588880D02*X22950Y588130D01*
X27000Y594130D02*Y588880D01*
X27750Y588130D01*
X0Y584880D02*X29250D01*
X41750Y594130D02*Y588130D01*
X43700Y594130D02*X44750Y593080D01*
Y589180D01*
X43700Y588130D02*X44750Y589180D01*
X41000Y588130D02*X43700D01*
X41000Y594130D02*X43700D01*
G54D89*X46550Y592630D02*Y592480D01*
G54D88*Y590380D02*Y588130D01*
X50300Y591130D02*X51050Y590380D01*
X48800Y591130D02*X50300D01*
X48050Y590380D02*X48800Y591130D01*
X48050Y590380D02*Y588880D01*
X48800Y588130D01*
X51050Y591130D02*Y588880D01*
X51800Y588130D01*
X48800D02*X50300D01*
X51050Y588880D01*
X54350Y590380D02*Y588130D01*
Y590380D02*X55100Y591130D01*
X55850D01*
X56600Y590380D01*
Y588130D01*
Y590380D02*X57350Y591130D01*
X58100D01*
X58850Y590380D01*
Y588130D01*
X53600Y591130D02*X54350Y590380D01*
X60650Y588130D02*X61400D01*
X65900Y588880D02*X66650Y588130D01*
X65900Y593380D02*X66650Y594130D01*
X65900Y593380D02*Y588880D01*
X68450Y594130D02*X69950D01*
X69200D02*Y588130D01*
X68450D02*X69950D01*
X72500Y590380D02*Y588130D01*
Y590380D02*X73250Y591130D01*
X74000D01*
X74750Y590380D01*
Y588130D01*
X71750Y591130D02*X72500Y590380D01*
X76550Y588130D02*X78050Y589630D01*
Y591880D02*Y591130D01*
X83300Y590380D02*Y588130D01*
Y590380D02*X84050Y591130D01*
X84800D01*
X85550Y590380D01*
Y588130D01*
Y590380D02*X86300Y591130D01*
X87050D01*
X87800Y590380D01*
Y588130D01*
X82550Y591130D02*X83300Y590380D01*
X90350D02*Y588130D01*
Y590380D02*X91100Y591130D01*
X91850D01*
X92600Y590380D01*
Y588130D01*
Y590380D02*X93350Y591130D01*
X94100D01*
X94850Y590380D01*
Y588130D01*
X89600Y591130D02*X90350Y590380D01*
X96650Y594130D02*X97400Y593380D01*
Y588880D01*
X96650Y588130D02*X97400Y588880D01*
X41000Y584880D02*X99200D01*
X111050Y588130D02*X113000D01*
X110000Y589180D02*X111050Y588130D01*
X110000Y593080D02*Y589180D01*
Y593080D02*X111050Y594130D01*
X113000D01*
X114800Y590380D02*Y588880D01*
Y590380D02*X115550Y591130D01*
X117050D01*
X117800Y590380D01*
Y588880D01*
X117050Y588130D02*X117800Y588880D01*
X115550Y588130D02*X117050D01*
X114800Y588880D02*X115550Y588130D01*
X119600Y591130D02*Y588880D01*
X120350Y588130D01*
X121850D01*
X122600Y588880D01*
Y591130D02*Y588880D01*
X125150Y590380D02*Y588130D01*
Y590380D02*X125900Y591130D01*
X126650D01*
X127400Y590380D01*
Y588130D01*
X124400Y591130D02*X125150Y590380D01*
X129950Y594130D02*Y588880D01*
X130700Y588130D01*
X129200Y591880D02*X130700D01*
X110000Y584880D02*X132200D01*
X145750Y594130D02*Y588130D01*
X145000Y594130D02*X148000D01*
X148750Y593380D01*
Y591880D01*
X148000Y591130D02*X148750Y591880D01*
X145750Y591130D02*X148000D01*
X150550Y594130D02*Y588880D01*
X151300Y588130D01*
X155050Y591130D02*X155800Y590380D01*
X153550Y591130D02*X155050D01*
X152800Y590380D02*X153550Y591130D01*
X152800Y590380D02*Y588880D01*
X153550Y588130D01*
X155800Y591130D02*Y588880D01*
X156550Y588130D01*
X153550D02*X155050D01*
X155800Y588880D01*
X159100Y594130D02*Y588880D01*
X159850Y588130D01*
X158350Y591880D02*X159850D01*
X162100Y588130D02*X164350D01*
X161350Y588880D02*X162100Y588130D01*
X161350Y590380D02*Y588880D01*
Y590380D02*X162100Y591130D01*
X163600D01*
X164350Y590380D01*
X161350Y589630D02*X164350D01*
Y590380D02*Y589630D01*
X169150Y594130D02*Y588130D01*
X168400D02*X169150Y588880D01*
X166900Y588130D02*X168400D01*
X166150Y588880D02*X166900Y588130D01*
X166150Y590380D02*Y588880D01*
Y590380D02*X166900Y591130D01*
X168400D01*
X169150Y590380D01*
X172450Y591130D02*Y590380D01*
Y588880D02*Y588130D01*
X170950Y593380D02*Y592630D01*
Y593380D02*X171700Y594130D01*
X173200D01*
X173950Y593380D01*
Y592630D01*
X172450Y591130D02*X173950Y592630D01*
X145000Y584880D02*X175750D01*
X0Y609130D02*X3000D01*
X1500D02*Y603130D01*
X4800Y609130D02*Y603130D01*
Y605380D02*X5550Y606130D01*
X7050D01*
X7800Y605380D01*
Y603130D01*
X10350D02*X12600D01*
X9600Y603880D02*X10350Y603130D01*
X9600Y605380D02*Y603880D01*
Y605380D02*X10350Y606130D01*
X11850D01*
X12600Y605380D01*
X9600Y604630D02*X12600D01*
Y605380D02*Y604630D01*
X15150Y605380D02*Y603130D01*
Y605380D02*X15900Y606130D01*
X17400D01*
X14400D02*X15150Y605380D01*
X19950Y603130D02*X22200D01*
X19200Y603880D02*X19950Y603130D01*
X19200Y605380D02*Y603880D01*
Y605380D02*X19950Y606130D01*
X21450D01*
X22200Y605380D01*
X19200Y604630D02*X22200D01*
Y605380D02*Y604630D01*
X28950Y606130D02*X29700Y605380D01*
X27450Y606130D02*X28950D01*
X26700Y605380D02*X27450Y606130D01*
X26700Y605380D02*Y603880D01*
X27450Y603130D01*
X29700Y606130D02*Y603880D01*
X30450Y603130D01*
X27450D02*X28950D01*
X29700Y603880D01*
X33000Y605380D02*Y603130D01*
Y605380D02*X33750Y606130D01*
X35250D01*
X32250D02*X33000Y605380D01*
X37800Y603130D02*X40050D01*
X37050Y603880D02*X37800Y603130D01*
X37050Y605380D02*Y603880D01*
Y605380D02*X37800Y606130D01*
X39300D01*
X40050Y605380D01*
X37050Y604630D02*X40050D01*
Y605380D02*Y604630D01*
X44550Y603880D02*X45300Y603130D01*
X44550Y605080D02*Y603880D01*
Y605080D02*X45600Y606130D01*
X46500D01*
X47550Y605080D01*
Y603880D01*
X46800Y603130D02*X47550Y603880D01*
X45300Y603130D02*X46800D01*
X44550Y607180D02*X45600Y606130D01*
X44550Y608380D02*Y607180D01*
Y608380D02*X45300Y609130D01*
X46800D01*
X47550Y608380D01*
Y607180D01*
X46500Y606130D02*X47550Y607180D01*
X55050Y609130D02*Y603130D01*
X54300D02*X55050Y603880D01*
X52800Y603130D02*X54300D01*
X52050Y603880D02*X52800Y603130D01*
X52050Y605380D02*Y603880D01*
Y605380D02*X52800Y606130D01*
X54300D01*
X55050Y605380D01*
G54D89*X56850Y607630D02*Y607480D01*
G54D88*Y605380D02*Y603130D01*
X59100Y608380D02*Y603130D01*
Y608380D02*X59850Y609130D01*
X60600D01*
X58350Y606130D02*X59850D01*
X62850Y608380D02*Y603130D01*
Y608380D02*X63600Y609130D01*
X64350D01*
X62100Y606130D02*X63600D01*
X66600Y603130D02*X68850D01*
X65850Y603880D02*X66600Y603130D01*
X65850Y605380D02*Y603880D01*
Y605380D02*X66600Y606130D01*
X68100D01*
X68850Y605380D01*
X65850Y604630D02*X68850D01*
Y605380D02*Y604630D01*
X71400Y605380D02*Y603130D01*
Y605380D02*X72150Y606130D01*
X73650D01*
X70650D02*X71400Y605380D01*
X76200Y603130D02*X78450D01*
X75450Y603880D02*X76200Y603130D01*
X75450Y605380D02*Y603880D01*
Y605380D02*X76200Y606130D01*
X77700D01*
X78450Y605380D01*
X75450Y604630D02*X78450D01*
Y605380D02*Y604630D01*
X81000Y605380D02*Y603130D01*
Y605380D02*X81750Y606130D01*
X82500D01*
X83250Y605380D01*
Y603130D01*
X80250Y606130D02*X81000Y605380D01*
X85800Y609130D02*Y603880D01*
X86550Y603130D01*
X85050Y606880D02*X86550D01*
X93750Y609130D02*Y603130D01*
X93000D02*X93750Y603880D01*
X91500Y603130D02*X93000D01*
X90750Y603880D02*X91500Y603130D01*
X90750Y605380D02*Y603880D01*
Y605380D02*X91500Y606130D01*
X93000D01*
X93750Y605380D01*
X96300D02*Y603130D01*
Y605380D02*X97050Y606130D01*
X98550D01*
X95550D02*X96300Y605380D01*
G54D89*X100350Y607630D02*Y607480D01*
G54D88*Y605380D02*Y603130D01*
X101850Y609130D02*Y603880D01*
X102600Y603130D01*
X104100Y609130D02*Y603880D01*
X104850Y603130D01*
X109800D02*X112050D01*
X112800Y603880D01*
X112050Y604630D02*X112800Y603880D01*
X109800Y604630D02*X112050D01*
X109050Y605380D02*X109800Y604630D01*
X109050Y605380D02*X109800Y606130D01*
X112050D01*
X112800Y605380D01*
X109050Y603880D02*X109800Y603130D01*
G54D89*X114600Y607630D02*Y607480D01*
G54D88*Y605380D02*Y603130D01*
X116100Y606130D02*X119100D01*
X116100Y603130D02*X119100Y606130D01*
X116100Y603130D02*X119100D01*
X121650D02*X123900D01*
X120900Y603880D02*X121650Y603130D01*
X120900Y605380D02*Y603880D01*
Y605380D02*X121650Y606130D01*
X123150D01*
X123900Y605380D01*
X120900Y604630D02*X123900D01*
Y605380D02*Y604630D01*
X126450Y603130D02*X128700D01*
X129450Y603880D01*
X128700Y604630D02*X129450Y603880D01*
X126450Y604630D02*X128700D01*
X125700Y605380D02*X126450Y604630D01*
X125700Y605380D02*X126450Y606130D01*
X128700D01*
X129450Y605380D01*
X125700Y603880D02*X126450Y603130D01*
X133950Y606130D02*Y603880D01*
X134700Y603130D01*
X136200D01*
X136950Y603880D01*
Y606130D02*Y603880D01*
X139500Y603130D02*X141750D01*
X142500Y603880D01*
X141750Y604630D02*X142500Y603880D01*
X139500Y604630D02*X141750D01*
X138750Y605380D02*X139500Y604630D01*
X138750Y605380D02*X139500Y606130D01*
X141750D01*
X142500Y605380D01*
X138750Y603880D02*X139500Y603130D01*
X145050D02*X147300D01*
X144300Y603880D02*X145050Y603130D01*
X144300Y605380D02*Y603880D01*
Y605380D02*X145050Y606130D01*
X146550D01*
X147300Y605380D01*
X144300Y604630D02*X147300D01*
Y605380D02*Y604630D01*
X152100Y609130D02*Y603130D01*
X151350D02*X152100Y603880D01*
X149850Y603130D02*X151350D01*
X149100Y603880D02*X149850Y603130D01*
X149100Y605380D02*Y603880D01*
Y605380D02*X149850Y606130D01*
X151350D01*
X152100Y605380D01*
G54D89*X156600Y607630D02*Y607480D01*
G54D88*Y605380D02*Y603130D01*
X158850Y605380D02*Y603130D01*
Y605380D02*X159600Y606130D01*
X160350D01*
X161100Y605380D01*
Y603130D01*
X158100Y606130D02*X158850Y605380D01*
X166350Y609130D02*Y603880D01*
X167100Y603130D01*
X165600Y606880D02*X167100D01*
X168600Y609130D02*Y603130D01*
Y605380D02*X169350Y606130D01*
X170850D01*
X171600Y605380D01*
Y603130D01*
G54D89*X173400Y607630D02*Y607480D01*
G54D88*Y605380D02*Y603130D01*
X175650D02*X177900D01*
X178650Y603880D01*
X177900Y604630D02*X178650Y603880D01*
X175650Y604630D02*X177900D01*
X174900Y605380D02*X175650Y604630D01*
X174900Y605380D02*X175650Y606130D01*
X177900D01*
X178650Y605380D01*
X174900Y603880D02*X175650Y603130D01*
X183150Y609130D02*Y603880D01*
X183900Y603130D01*
X187650Y606130D02*X188400Y605380D01*
X186150Y606130D02*X187650D01*
X185400Y605380D02*X186150Y606130D01*
X185400Y605380D02*Y603880D01*
X186150Y603130D01*
X188400Y606130D02*Y603880D01*
X189150Y603130D01*
X186150D02*X187650D01*
X188400Y603880D01*
X190950Y606130D02*Y603880D01*
X191700Y603130D01*
X193950Y606130D02*Y601630D01*
X193200Y600880D02*X193950Y601630D01*
X191700Y600880D02*X193200D01*
X190950Y601630D02*X191700Y600880D01*
Y603130D02*X193200D01*
X193950Y603880D01*
X195750Y605380D02*Y603880D01*
Y605380D02*X196500Y606130D01*
X198000D01*
X198750Y605380D01*
Y603880D01*
X198000Y603130D02*X198750Y603880D01*
X196500Y603130D02*X198000D01*
X195750Y603880D02*X196500Y603130D01*
X200550Y606130D02*Y603880D01*
X201300Y603130D01*
X202800D01*
X203550Y603880D01*
Y606130D02*Y603880D01*
X206100Y609130D02*Y603880D01*
X206850Y603130D01*
X205350Y606880D02*X206850D01*
X208350Y601630D02*X209850Y603130D01*
X214350Y609130D02*X217350D01*
X214350D02*Y606130D01*
X215100Y606880D01*
X216600D01*
X217350Y606130D01*
Y603880D01*
X216600Y603130D02*X217350Y603880D01*
X215100Y603130D02*X216600D01*
X214350Y603880D02*X215100Y603130D01*
X219150Y609130D02*X222150D01*
X219150D02*Y606130D01*
X219900Y606880D01*
X221400D01*
X222150Y606130D01*
Y603880D01*
X221400Y603130D02*X222150Y603880D01*
X219900Y603130D02*X221400D01*
X219150Y603880D02*X219900Y603130D01*
X223950Y609130D02*X226950D01*
X223950D02*Y606130D01*
X224700Y606880D01*
X226200D01*
X226950Y606130D01*
Y603880D01*
X226200Y603130D02*X226950Y603880D01*
X224700Y603130D02*X226200D01*
X223950Y603880D02*X224700Y603130D01*
X231450Y609130D02*Y603130D01*
Y605380D02*X232200Y606130D01*
X233700D01*
X234450Y605380D01*
Y603130D01*
X236250Y605380D02*Y603880D01*
Y605380D02*X237000Y606130D01*
X238500D01*
X239250Y605380D01*
Y603880D01*
X238500Y603130D02*X239250Y603880D01*
X237000Y603130D02*X238500D01*
X236250Y603880D02*X237000Y603130D01*
X241050Y609130D02*Y603880D01*
X241800Y603130D01*
X244050D02*X246300D01*
X243300Y603880D02*X244050Y603130D01*
X243300Y605380D02*Y603880D01*
Y605380D02*X244050Y606130D01*
X245550D01*
X246300Y605380D01*
X243300Y604630D02*X246300D01*
Y605380D02*Y604630D01*
X248850Y603130D02*X251100D01*
X251850Y603880D01*
X251100Y604630D02*X251850Y603880D01*
X248850Y604630D02*X251100D01*
X248100Y605380D02*X248850Y604630D01*
X248100Y605380D02*X248850Y606130D01*
X251100D01*
X251850Y605380D01*
X248100Y603880D02*X248850Y603130D01*
X257100Y609130D02*Y603880D01*
X257850Y603130D01*
X256350Y606880D02*X257850D01*
X259350Y605380D02*Y603880D01*
Y605380D02*X260100Y606130D01*
X261600D01*
X262350Y605380D01*
Y603880D01*
X261600Y603130D02*X262350Y603880D01*
X260100Y603130D02*X261600D01*
X259350Y603880D02*X260100Y603130D01*
X264900Y609130D02*Y603880D01*
X265650Y603130D01*
X264150Y606880D02*X265650D01*
X269400Y606130D02*X270150Y605380D01*
X267900Y606130D02*X269400D01*
X267150Y605380D02*X267900Y606130D01*
X267150Y605380D02*Y603880D01*
X267900Y603130D01*
X270150Y606130D02*Y603880D01*
X270900Y603130D01*
X267900D02*X269400D01*
X270150Y603880D01*
X272700Y609130D02*Y603880D01*
X273450Y603130D01*
G54D90*X495323Y3031D02*X15008D01*
Y459724D01*
X495323D01*
Y3031D01*
G54D88*X162691Y-9500D02*X165691D01*
X166441Y-8750D01*
Y-6950D02*Y-8750D01*
X165691Y-6200D02*X166441Y-6950D01*
X163441Y-6200D02*X165691D01*
X163441Y-3500D02*Y-9500D01*
X162691Y-3500D02*X165691D01*
X166441Y-4250D01*
Y-5450D01*
X165691Y-6200D02*X166441Y-5450D01*
X168241Y-7250D02*Y-8750D01*
Y-7250D02*X168991Y-6500D01*
X170491D01*
X171241Y-7250D01*
Y-8750D01*
X170491Y-9500D02*X171241Y-8750D01*
X168991Y-9500D02*X170491D01*
X168241Y-8750D02*X168991Y-9500D01*
X175291Y-6500D02*X176041Y-7250D01*
X173791Y-6500D02*X175291D01*
X173041Y-7250D02*X173791Y-6500D01*
X173041Y-7250D02*Y-8750D01*
X173791Y-9500D01*
X176041Y-6500D02*Y-8750D01*
X176791Y-9500D01*
X173791D02*X175291D01*
X176041Y-8750D01*
X179341Y-7250D02*Y-9500D01*
Y-7250D02*X180091Y-6500D01*
X181591D01*
X178591D02*X179341Y-7250D01*
X186391Y-3500D02*Y-9500D01*
X185641D02*X186391Y-8750D01*
X184141Y-9500D02*X185641D01*
X183391Y-8750D02*X184141Y-9500D01*
X183391Y-7250D02*Y-8750D01*
Y-7250D02*X184141Y-6500D01*
X185641D01*
X186391Y-7250D01*
X190891D02*Y-8750D01*
Y-7250D02*X191641Y-6500D01*
X193141D01*
X193891Y-7250D01*
Y-8750D01*
X193141Y-9500D02*X193891Y-8750D01*
X191641Y-9500D02*X193141D01*
X190891Y-8750D02*X191641Y-9500D01*
X195691Y-6500D02*Y-8750D01*
X196441Y-9500D01*
X197941D01*
X198691Y-8750D01*
Y-6500D02*Y-8750D01*
X201241Y-3500D02*Y-8750D01*
X201991Y-9500D01*
X200491Y-5750D02*X201991D01*
X203491Y-3500D02*Y-8750D01*
X204241Y-9500D01*
G54D89*X205741Y-5000D02*Y-5150D01*
G54D88*Y-7250D02*Y-9500D01*
X207991Y-7250D02*Y-9500D01*
Y-7250D02*X208741Y-6500D01*
X209491D01*
X210241Y-7250D01*
Y-9500D01*
X207241Y-6500D02*X207991Y-7250D01*
X212791Y-9500D02*X215041D01*
X212041Y-8750D02*X212791Y-9500D01*
X212041Y-7250D02*Y-8750D01*
Y-7250D02*X212791Y-6500D01*
X214291D01*
X215041Y-7250D01*
X212041Y-8000D02*X215041D01*
Y-7250D02*Y-8000D01*
G54D89*X219541Y-5000D02*Y-5150D01*
G54D88*Y-7250D02*Y-9500D01*
X221791D02*X224041D01*
X224791Y-8750D01*
X224041Y-8000D02*X224791Y-8750D01*
X221791Y-8000D02*X224041D01*
X221041Y-7250D02*X221791Y-8000D01*
X221041Y-7250D02*X221791Y-6500D01*
X224041D01*
X224791Y-7250D01*
X221041Y-8750D02*X221791Y-9500D01*
X230041Y-3500D02*Y-8750D01*
X230791Y-9500D01*
X229291Y-5750D02*X230791D01*
X232291Y-3500D02*Y-9500D01*
Y-7250D02*X233041Y-6500D01*
X234541D01*
X235291Y-7250D01*
Y-9500D01*
X237841D02*X240091D01*
X237091Y-8750D02*X237841Y-9500D01*
X237091Y-7250D02*Y-8750D01*
Y-7250D02*X237841Y-6500D01*
X239341D01*
X240091Y-7250D01*
X237091Y-8000D02*X240091D01*
Y-7250D02*Y-8000D01*
X245341Y-6500D02*X247591D01*
X244591Y-7250D02*X245341Y-6500D01*
X244591Y-7250D02*Y-8750D01*
X245341Y-9500D01*
X247591D01*
X250141D02*X252391D01*
X249391Y-8750D02*X250141Y-9500D01*
X249391Y-7250D02*Y-8750D01*
Y-7250D02*X250141Y-6500D01*
X251641D01*
X252391Y-7250D01*
X249391Y-8000D02*X252391D01*
Y-7250D02*Y-8000D01*
X254941Y-7250D02*Y-9500D01*
Y-7250D02*X255691Y-6500D01*
X256441D01*
X257191Y-7250D01*
Y-9500D01*
X254191Y-6500D02*X254941Y-7250D01*
X259741Y-3500D02*Y-8750D01*
X260491Y-9500D01*
X258991Y-5750D02*X260491D01*
X262741Y-9500D02*X264991D01*
X261991Y-8750D02*X262741Y-9500D01*
X261991Y-7250D02*Y-8750D01*
Y-7250D02*X262741Y-6500D01*
X264241D01*
X264991Y-7250D01*
X261991Y-8000D02*X264991D01*
Y-7250D02*Y-8000D01*
X267541Y-7250D02*Y-9500D01*
Y-7250D02*X268291Y-6500D01*
X269791D01*
X266791D02*X267541Y-7250D01*
X271591Y-3500D02*Y-8750D01*
X272341Y-9500D01*
G54D89*X273841Y-5000D02*Y-5150D01*
G54D88*Y-7250D02*Y-9500D01*
X276091Y-7250D02*Y-9500D01*
Y-7250D02*X276841Y-6500D01*
X277591D01*
X278341Y-7250D01*
Y-9500D01*
X275341Y-6500D02*X276091Y-7250D01*
X280891Y-9500D02*X283141D01*
X280141Y-8750D02*X280891Y-9500D01*
X280141Y-7250D02*Y-8750D01*
Y-7250D02*X280891Y-6500D01*
X282391D01*
X283141Y-7250D01*
X280141Y-8000D02*X283141D01*
Y-7250D02*Y-8000D01*
X287641Y-7250D02*Y-8750D01*
Y-7250D02*X288391Y-6500D01*
X289891D01*
X290641Y-7250D01*
Y-8750D01*
X289891Y-9500D02*X290641Y-8750D01*
X288391Y-9500D02*X289891D01*
X287641Y-8750D02*X288391Y-9500D01*
X293191Y-4250D02*Y-9500D01*
Y-4250D02*X293941Y-3500D01*
X294691D01*
X292441Y-6500D02*X293941D01*
X299641Y-3500D02*Y-8750D01*
X300391Y-9500D01*
X298891Y-5750D02*X300391D01*
X301891Y-3500D02*Y-9500D01*
Y-7250D02*X302641Y-6500D01*
X304141D01*
X304891Y-7250D01*
Y-9500D01*
G54D89*X306691Y-5000D02*Y-5150D01*
G54D88*Y-7250D02*Y-9500D01*
X308941D02*X311191D01*
X311941Y-8750D01*
X311191Y-8000D02*X311941Y-8750D01*
X308941Y-8000D02*X311191D01*
X308191Y-7250D02*X308941Y-8000D01*
X308191Y-7250D02*X308941Y-6500D01*
X311191D01*
X311941Y-7250D01*
X308191Y-8750D02*X308941Y-9500D01*
X317191Y-7250D02*Y-11750D01*
X316441Y-6500D02*X317191Y-7250D01*
X317941Y-6500D01*
X319441D01*
X320191Y-7250D01*
Y-8750D01*
X319441Y-9500D02*X320191Y-8750D01*
X317941Y-9500D02*X319441D01*
X317191Y-8750D02*X317941Y-9500D01*
X324241Y-6500D02*X324991Y-7250D01*
X322741Y-6500D02*X324241D01*
X321991Y-7250D02*X322741Y-6500D01*
X321991Y-7250D02*Y-8750D01*
X322741Y-9500D01*
X324991Y-6500D02*Y-8750D01*
X325741Y-9500D01*
X322741D02*X324241D01*
X324991Y-8750D01*
X328291Y-3500D02*Y-8750D01*
X329041Y-9500D01*
X327541Y-5750D02*X329041D01*
X330541Y-3500D02*Y-9500D01*
Y-7250D02*X331291Y-6500D01*
X332791D01*
X333541Y-7250D01*
Y-9500D01*
X200750Y489130D02*Y483130D01*
X202700Y489130D02*X203750Y488080D01*
Y484180D01*
X202700Y483130D02*X203750Y484180D01*
X200000Y483130D02*X202700D01*
X200000Y489130D02*X202700D01*
X207800Y486130D02*X208550Y485380D01*
X206300Y486130D02*X207800D01*
X205550Y485380D02*X206300Y486130D01*
X205550Y485380D02*Y483880D01*
X206300Y483130D01*
X208550Y486130D02*Y483880D01*
X209300Y483130D01*
X206300D02*X207800D01*
X208550Y483880D01*
X211850Y489130D02*Y483880D01*
X212600Y483130D01*
X211100Y486880D02*X212600D01*
X214850Y483130D02*X217100D01*
X214100Y483880D02*X214850Y483130D01*
X214100Y485380D02*Y483880D01*
Y485380D02*X214850Y486130D01*
X216350D01*
X217100Y485380D01*
X214100Y484630D02*X217100D01*
Y485380D02*Y484630D01*
X218900Y486880D02*X219650D01*
X218900Y485380D02*X219650D01*
X227150Y489130D02*X227900Y488380D01*
X224900Y489130D02*X227150D01*
X224150Y488380D02*X224900Y489130D01*
X224150Y488380D02*Y486880D01*
X224900Y486130D01*
X227150D01*
X227900Y485380D01*
Y483880D01*
X227150Y483130D02*X227900Y483880D01*
X224900Y483130D02*X227150D01*
X224150Y483880D02*X224900Y483130D01*
X231950Y486130D02*X232700Y485380D01*
X230450Y486130D02*X231950D01*
X229700Y485380D02*X230450Y486130D01*
X229700Y485380D02*Y483880D01*
X230450Y483130D01*
X232700Y486130D02*Y483880D01*
X233450Y483130D01*
X230450D02*X231950D01*
X232700Y483880D01*
X236000Y489130D02*Y483880D01*
X236750Y483130D01*
X235250Y486880D02*X236750D01*
X243950Y489130D02*X244700Y488380D01*
X241700Y489130D02*X243950D01*
X240950Y488380D02*X241700Y489130D01*
X240950Y488380D02*Y486880D01*
X241700Y486130D01*
X243950D01*
X244700Y485380D01*
Y483880D01*
X243950Y483130D02*X244700Y483880D01*
X241700Y483130D02*X243950D01*
X240950Y483880D02*X241700Y483130D01*
X247250D02*X249500D01*
X246500Y483880D02*X247250Y483130D01*
X246500Y485380D02*Y483880D01*
Y485380D02*X247250Y486130D01*
X248750D01*
X249500Y485380D01*
X246500Y484630D02*X249500D01*
Y485380D02*Y484630D01*
X252050Y485380D02*Y480880D01*
X251300Y486130D02*X252050Y485380D01*
X252800Y486130D01*
X254300D01*
X255050Y485380D01*
Y483880D01*
X254300Y483130D02*X255050Y483880D01*
X252800Y483130D02*X254300D01*
X252050Y483880D02*X252800Y483130D01*
X259550Y488380D02*X260300Y489130D01*
X261800D01*
X262550Y488380D01*
X261800Y483130D02*X262550Y483880D01*
X260300Y483130D02*X261800D01*
X259550Y483880D02*X260300Y483130D01*
Y486430D02*X261800D01*
X262550Y488380D02*Y487180D01*
Y485680D02*Y483880D01*
Y485680D02*X261800Y486430D01*
X262550Y487180D02*X261800Y486430D01*
X264350Y483880D02*X265100Y483130D01*
X264350Y488380D02*Y483880D01*
Y488380D02*X265100Y489130D01*
X266600D01*
X267350Y488380D01*
Y483880D01*
X266600Y483130D02*X267350Y483880D01*
X265100Y483130D02*X266600D01*
X264350Y484630D02*X267350Y487630D01*
X271850Y488380D02*X272600Y489130D01*
X274850D01*
X275600Y488380D01*
Y486880D01*
X271850Y483130D02*X275600Y486880D01*
X271850Y483130D02*X275600D01*
X277400Y488380D02*X278150Y489130D01*
X279650D01*
X280400Y488380D01*
X279650Y483130D02*X280400Y483880D01*
X278150Y483130D02*X279650D01*
X277400Y483880D02*X278150Y483130D01*
Y486430D02*X279650D01*
X280400Y488380D02*Y487180D01*
Y485680D02*Y483880D01*
Y485680D02*X279650Y486430D01*
X280400Y487180D02*X279650Y486430D01*
X282200Y486880D02*X282950D01*
X282200Y485380D02*X282950D01*
X284750D02*X287750Y489130D01*
X284750Y485380D02*X288500D01*
X287750Y489130D02*Y483130D01*
X292550Y489130D02*X293300Y488380D01*
X291050Y489130D02*X292550D01*
X290300Y488380D02*X291050Y489130D01*
X290300Y488380D02*Y483880D01*
X291050Y483130D01*
X292550Y486430D02*X293300Y485680D01*
X290300Y486430D02*X292550D01*
X291050Y483130D02*X292550D01*
X293300Y483880D01*
Y485680D02*Y483880D01*
X295100Y486880D02*X295850D01*
X295100Y485380D02*X295850D01*
X297650Y488380D02*X298400Y489130D01*
X300650D01*
X301400Y488380D01*
Y486880D01*
X297650Y483130D02*X301400Y486880D01*
X297650Y483130D02*X301400D01*
X303200Y488380D02*X303950Y489130D01*
X306200D01*
X306950Y488380D01*
Y486880D01*
X303200Y483130D02*X306950Y486880D01*
X303200Y483130D02*X306950D01*
X311450Y488380D02*X312200Y489130D01*
X314450D01*
X315200Y488380D01*
Y486880D01*
X311450Y483130D02*X315200Y486880D01*
X311450Y483130D02*X315200D01*
X317000Y483880D02*X317750Y483130D01*
X317000Y488380D02*Y483880D01*
Y488380D02*X317750Y489130D01*
X319250D01*
X320000Y488380D01*
Y483880D01*
X319250Y483130D02*X320000Y483880D01*
X317750Y483130D02*X319250D01*
X317000Y484630D02*X320000Y487630D01*
X321800Y487930D02*X323000Y489130D01*
Y483130D01*
X321800D02*X324050D01*
X326600D02*X329600Y489130D01*
X325850D02*X329600D01*
X334100D02*Y483880D01*
X334850Y483130D01*
X336350D01*
X337100Y483880D01*
Y489130D02*Y483880D01*
X338900Y489130D02*X341900D01*
X340400D02*Y483130D01*
X344750D02*X346700D01*
X343700Y484180D02*X344750Y483130D01*
X343700Y488080D02*Y484180D01*
Y488080D02*X344750Y489130D01*
X346700D01*
X200000Y502630D02*Y498130D01*
Y502630D02*X201050Y504130D01*
X202700D01*
X203750Y502630D01*
Y498130D01*
X200000Y501130D02*X203750D01*
X205550D02*Y498880D01*
X206300Y498130D01*
X207800D01*
X208550Y498880D01*
Y501130D02*Y498880D01*
X211100Y504130D02*Y498880D01*
X211850Y498130D01*
X210350Y501880D02*X211850D01*
X213350Y504130D02*Y498130D01*
Y500380D02*X214100Y501130D01*
X215600D01*
X216350Y500380D01*
Y498130D01*
X218150Y500380D02*Y498880D01*
Y500380D02*X218900Y501130D01*
X220400D01*
X221150Y500380D01*
Y498880D01*
X220400Y498130D02*X221150Y498880D01*
X218900Y498130D02*X220400D01*
X218150Y498880D02*X218900Y498130D01*
X223700Y500380D02*Y498130D01*
Y500380D02*X224450Y501130D01*
X225950D01*
X222950D02*X223700Y500380D01*
X227750Y501880D02*X228500D01*
X227750Y500380D02*X228500D01*
X233000Y504130D02*Y501130D01*
X233750Y498130D01*
X235250Y501130D01*
X236750Y498130D01*
X237500Y501130D01*
Y504130D02*Y501130D01*
X239300Y500380D02*Y498880D01*
Y500380D02*X240050Y501130D01*
X241550D01*
X242300Y500380D01*
Y498880D01*
X241550Y498130D02*X242300Y498880D01*
X240050Y498130D02*X241550D01*
X239300Y498880D02*X240050Y498130D01*
G54D89*X244850Y502630D02*Y502480D01*
G54D88*Y500380D02*Y496630D01*
X244100Y495880D02*X244850Y496630D01*
X247100Y501130D02*X249350D01*
X246350Y500380D02*X247100Y501130D01*
X246350Y500380D02*Y498880D01*
X247100Y498130D01*
X249350D01*
G54D89*X251150Y502630D02*Y502480D01*
G54D88*Y500380D02*Y498130D01*
X253400D02*X255650D01*
X252650Y498880D02*X253400Y498130D01*
X252650Y500380D02*Y498880D01*
Y500380D02*X253400Y501130D01*
X254900D01*
X255650Y500380D01*
X252650Y499630D02*X255650D01*
Y500380D02*Y499630D01*
X258200Y501130D02*X260450D01*
X257450Y500380D02*X258200Y501130D01*
X257450Y500380D02*Y498880D01*
X258200Y498130D01*
X260450D01*
X262250Y504130D02*Y498130D01*
Y500380D02*X263000Y501130D01*
X264500D01*
X265250Y500380D01*
Y498130D01*
X269750Y504130D02*Y498130D01*
Y501130D02*X272750Y504130D01*
X269750Y501130D02*X272750Y498130D01*
X275300Y500380D02*Y498130D01*
Y500380D02*X276050Y501130D01*
X277550D01*
X274550D02*X275300Y500380D01*
X279350Y501130D02*Y498880D01*
X280100Y498130D01*
X281600D01*
X282350Y498880D01*
Y501130D02*Y498880D01*
X284900Y504130D02*Y498880D01*
X285650Y498130D01*
X284150Y501880D02*X285650D01*
X287900Y500380D02*Y498130D01*
Y500380D02*X288650Y501130D01*
X289400D01*
X290150Y500380D01*
Y498130D01*
X287150Y501130D02*X287900Y500380D01*
G54D89*X291950Y502630D02*Y502480D01*
G54D88*Y500380D02*Y498130D01*
X293450Y504130D02*Y498130D01*
Y500380D02*X295700Y498130D01*
X293450Y500380D02*X294950Y501880D01*
X200000Y519130D02*X203000D01*
X201500D02*Y513130D01*
G54D89*X204800Y517630D02*Y517480D01*
G54D88*Y515380D02*Y513130D01*
X207050Y519130D02*Y513880D01*
X207800Y513130D01*
X206300Y516880D02*X207800D01*
X209300Y519130D02*Y513880D01*
X210050Y513130D01*
X212300D02*X214550D01*
X211550Y513880D02*X212300Y513130D01*
X211550Y515380D02*Y513880D01*
Y515380D02*X212300Y516130D01*
X213800D01*
X214550Y515380D01*
X211550Y514630D02*X214550D01*
Y515380D02*Y514630D01*
X216350Y516880D02*X217100D01*
X216350Y515380D02*X217100D01*
X221600Y519130D02*Y513130D01*
Y519130D02*X225350Y513130D01*
Y519130D02*Y513130D01*
X227150Y519130D02*X228650Y513130D01*
X230150Y519130D01*
X231950D02*Y513130D01*
Y519130D02*X234200Y516130D01*
X236450Y519130D01*
Y513130D01*
X239000D02*X241250D01*
X238250Y513880D02*X239000Y513130D01*
X238250Y515380D02*Y513880D01*
Y515380D02*X239000Y516130D01*
X240500D01*
X241250Y515380D01*
X238250Y514630D02*X241250D01*
Y515380D02*Y514630D01*
X243800Y515380D02*Y513130D01*
Y515380D02*X244550Y516130D01*
X245300D01*
X246050Y515380D01*
Y513130D01*
Y515380D02*X246800Y516130D01*
X247550D01*
X248300Y515380D01*
Y513130D01*
X243050Y516130D02*X243800Y515380D01*
X250850Y519130D02*Y513130D01*
X250100Y519130D02*X253100D01*
X253850Y518380D01*
Y516880D01*
X253100Y516130D02*X253850Y516880D01*
X250850Y516130D02*X253100D01*
X256400Y515380D02*Y513130D01*
Y515380D02*X257150Y516130D01*
X258650D01*
X255650D02*X256400Y515380D01*
X260450D02*Y513880D01*
Y515380D02*X261200Y516130D01*
X262700D01*
X263450Y515380D01*
Y513880D01*
X262700Y513130D02*X263450Y513880D01*
X261200Y513130D02*X262700D01*
X260450Y513880D02*X261200Y513130D01*
X267500Y516130D02*X268250Y515380D01*
X266000Y516130D02*X267500D01*
X265250Y515380D02*X266000Y516130D01*
X265250Y515380D02*Y513880D01*
X266000Y513130D01*
X267500D01*
X268250Y513880D01*
X265250Y511630D02*X266000Y510880D01*
X267500D01*
X268250Y511630D01*
Y516130D02*Y511630D01*
X270050Y513130D02*X273050D01*
X274850Y519130D02*Y513130D01*
Y519130D02*X277100Y516130D01*
X279350Y519130D01*
Y513130D01*
X283400Y516130D02*X284150Y515380D01*
X281900Y516130D02*X283400D01*
X281150Y515380D02*X281900Y516130D01*
X281150Y515380D02*Y513880D01*
X281900Y513130D01*
X284150Y516130D02*Y513880D01*
X284900Y513130D01*
X281900D02*X283400D01*
X284150Y513880D01*
G54D89*X286700Y517630D02*Y517480D01*
G54D88*Y515380D02*Y513130D01*
X288950Y515380D02*Y513130D01*
Y515380D02*X289700Y516130D01*
X290450D01*
X291200Y515380D01*
Y513130D01*
X288200Y516130D02*X288950Y515380D01*
X295700Y516130D02*X298700D01*
X303200Y519130D02*Y513130D01*
Y519130D02*X306200D01*
X303200Y516430D02*X305450D01*
X310250Y516130D02*X311000Y515380D01*
X308750Y516130D02*X310250D01*
X308000Y515380D02*X308750Y516130D01*
X308000Y515380D02*Y513880D01*
X308750Y513130D01*
X311000Y516130D02*Y513880D01*
X311750Y513130D01*
X308750D02*X310250D01*
X311000Y513880D01*
X313550Y519130D02*Y513130D01*
Y513880D02*X314300Y513130D01*
X315800D01*
X316550Y513880D01*
Y515380D02*Y513880D01*
X315800Y516130D02*X316550Y515380D01*
X314300Y516130D02*X315800D01*
X313550Y515380D02*X314300Y516130D01*
X319100Y515380D02*Y513130D01*
Y515380D02*X319850Y516130D01*
X321350D01*
X318350D02*X319100Y515380D01*
G54D89*X323150Y517630D02*Y517480D01*
G54D88*Y515380D02*Y513130D01*
X325400Y516130D02*X327650D01*
X324650Y515380D02*X325400Y516130D01*
X324650Y515380D02*Y513880D01*
X325400Y513130D01*
X327650D01*
X331700Y516130D02*X332450Y515380D01*
X330200Y516130D02*X331700D01*
X329450Y515380D02*X330200Y516130D01*
X329450Y515380D02*Y513880D01*
X330200Y513130D01*
X332450Y516130D02*Y513880D01*
X333200Y513130D01*
X330200D02*X331700D01*
X332450Y513880D01*
X335750Y519130D02*Y513880D01*
X336500Y513130D01*
X335000Y516880D02*X336500D01*
G54D89*X338000Y517630D02*Y517480D01*
G54D88*Y515380D02*Y513130D01*
X339500Y515380D02*Y513880D01*
Y515380D02*X340250Y516130D01*
X341750D01*
X342500Y515380D01*
Y513880D01*
X341750Y513130D02*X342500Y513880D01*
X340250Y513130D02*X341750D01*
X339500Y513880D02*X340250Y513130D01*
X345050Y515380D02*Y513130D01*
Y515380D02*X345800Y516130D01*
X346550D01*
X347300Y515380D01*
Y513130D01*
X344300Y516130D02*X345050Y515380D01*
X352550Y519130D02*Y513130D01*
X354500Y519130D02*X355550Y518080D01*
Y514180D01*
X354500Y513130D02*X355550Y514180D01*
X351800Y513130D02*X354500D01*
X351800Y519130D02*X354500D01*
X358100Y515380D02*Y513130D01*
Y515380D02*X358850Y516130D01*
X360350D01*
X357350D02*X358100Y515380D01*
X364400Y516130D02*X365150Y515380D01*
X362900Y516130D02*X364400D01*
X362150Y515380D02*X362900Y516130D01*
X362150Y515380D02*Y513880D01*
X362900Y513130D01*
X365150Y516130D02*Y513880D01*
X365900Y513130D01*
X362900D02*X364400D01*
X365150Y513880D01*
X367700Y516130D02*Y513880D01*
X368450Y513130D01*
X369200D01*
X369950Y513880D01*
Y516130D02*Y513880D01*
X370700Y513130D01*
X371450D01*
X372200Y513880D01*
Y516130D02*Y513880D01*
G54D89*X374000Y517630D02*Y517480D01*
G54D88*Y515380D02*Y513130D01*
X376250Y515380D02*Y513130D01*
Y515380D02*X377000Y516130D01*
X377750D01*
X378500Y515380D01*
Y513130D01*
X375500Y516130D02*X376250Y515380D01*
X382550Y516130D02*X383300Y515380D01*
X381050Y516130D02*X382550D01*
X380300Y515380D02*X381050Y516130D01*
X380300Y515380D02*Y513880D01*
X381050Y513130D01*
X382550D01*
X383300Y513880D01*
X380300Y511630D02*X381050Y510880D01*
X382550D01*
X383300Y511630D01*
Y516130D02*Y511630D01*
M02*
