G04 start of page 9 for group -4015 idx -4015 *
G04 Title: NVMemProg_Main, toppaste *
G04 Creator: pcb v4.0.0-ga246c150 *
G04 CreationDate: Sat Sep 30 23:46:22 2017 UTC *
G04 For: wojtek *
G04 Format: Gerber/RS-274X *
G04 PCB-Dimensions (mil): 4980.31 4606.30 *
G04 PCB-Coordinate-Origin: lower left *
%MOIN*%
%FSLAX25Y25*%
%LNTOPPASTE*%
%ADD85C,0.0787*%
%ADD84C,0.0700*%
%ADD83C,0.0001*%
G54D83*G36*
X408047Y384857D02*Y381457D01*
X412047D01*
Y384857D01*
X408047D01*
G37*
G36*
Y377057D02*Y373657D01*
X412047D01*
Y377057D01*
X408047D01*
G37*
G36*
X416247Y380957D02*Y377557D01*
X420247D01*
Y380957D01*
X416247D01*
G37*
G36*
X408047Y362857D02*Y359457D01*
X412047D01*
Y362857D01*
X408047D01*
G37*
G36*
Y355057D02*Y351657D01*
X412047D01*
Y355057D01*
X408047D01*
G37*
G36*
X416247Y358957D02*Y355557D01*
X420247D01*
Y358957D01*
X416247D01*
G37*
G36*
X393047Y384857D02*Y381457D01*
X397047D01*
Y384857D01*
X393047D01*
G37*
G36*
Y377057D02*Y373657D01*
X397047D01*
Y377057D01*
X393047D01*
G37*
G36*
X401247Y380957D02*Y377557D01*
X405247D01*
Y380957D01*
X401247D01*
G37*
G36*
X393047Y362857D02*Y359457D01*
X397047D01*
Y362857D01*
X393047D01*
G37*
G36*
Y355057D02*Y351657D01*
X397047D01*
Y355057D01*
X393047D01*
G37*
G36*
X401247Y358957D02*Y355557D01*
X405247D01*
Y358957D01*
X401247D01*
G37*
G36*
X432457Y378534D02*X430489D01*
Y375780D01*
X432457D01*
Y378534D01*
G37*
G36*
X435605D02*X433637D01*
Y375780D01*
X435605D01*
Y378534D01*
G37*
G36*
X432457Y356534D02*X430489D01*
Y353780D01*
X432457D01*
Y356534D01*
G37*
G36*
X435605D02*X433637D01*
Y353780D01*
X435605D01*
Y356534D01*
G37*
G36*
X427964Y374625D02*X425012D01*
Y370689D01*
X427964D01*
Y374625D01*
G37*
G36*
X433082D02*X430130D01*
Y370689D01*
X433082D01*
Y374625D01*
G37*
G36*
X427964Y352625D02*X425012D01*
Y348689D01*
X427964D01*
Y352625D01*
G37*
G36*
X433082D02*X430130D01*
Y348689D01*
X433082D01*
Y352625D01*
G37*
G36*
X424457Y378534D02*X422489D01*
Y375780D01*
X424457D01*
Y378534D01*
G37*
G36*
X427605D02*X425637D01*
Y375780D01*
X427605D01*
Y378534D01*
G37*
G36*
X424457Y356534D02*X422489D01*
Y353780D01*
X424457D01*
Y356534D01*
G37*
G36*
X427605D02*X425637D01*
Y353780D01*
X427605D01*
Y356534D01*
G37*
G36*
X432457Y382534D02*X430489D01*
Y379780D01*
X432457D01*
Y382534D01*
G37*
G36*
X435605D02*X433637D01*
Y379780D01*
X435605D01*
Y382534D01*
G37*
G36*
X432457Y360534D02*X430489D01*
Y357780D01*
X432457D01*
Y360534D01*
G37*
G36*
X435605D02*X433637D01*
Y357780D01*
X435605D01*
Y360534D01*
G37*
G36*
X427964Y387625D02*X425012D01*
Y383689D01*
X427964D01*
Y387625D01*
G37*
G36*
X433082D02*X430130D01*
Y383689D01*
X433082D01*
Y387625D01*
G37*
G36*
X427964Y365625D02*X425012D01*
Y361689D01*
X427964D01*
Y365625D01*
G37*
G36*
X433082D02*X430130D01*
Y361689D01*
X433082D01*
Y365625D01*
G37*
G36*
X424457Y382534D02*X422489D01*
Y379780D01*
X424457D01*
Y382534D01*
G37*
G36*
X427605D02*X425637D01*
Y379780D01*
X427605D01*
Y382534D01*
G37*
G36*
X424457Y360534D02*X422489D01*
Y357780D01*
X424457D01*
Y360534D01*
G37*
G36*
X427605D02*X425637D01*
Y357780D01*
X427605D01*
Y360534D01*
G37*
G36*
X347047Y373857D02*Y370457D01*
X351047D01*
Y373857D01*
X347047D01*
G37*
G36*
Y366057D02*Y362657D01*
X351047D01*
Y366057D01*
X347047D01*
G37*
G36*
X355247Y369957D02*Y366557D01*
X359247D01*
Y369957D01*
X355247D01*
G37*
G36*
X362047Y373857D02*Y370457D01*
X366047D01*
Y373857D01*
X362047D01*
G37*
G36*
Y366057D02*Y362657D01*
X366047D01*
Y366057D01*
X362047D01*
G37*
G36*
X370247Y369957D02*Y366557D01*
X374247D01*
Y369957D01*
X370247D01*
G37*
G36*
X381964Y376625D02*X379012D01*
Y372689D01*
X381964D01*
Y376625D01*
G37*
G36*
X387082D02*X384130D01*
Y372689D01*
X387082D01*
Y376625D01*
G37*
G36*
X378457Y371534D02*X376489D01*
Y368780D01*
X378457D01*
Y371534D01*
G37*
G36*
X381605D02*X379637D01*
Y368780D01*
X381605D01*
Y371534D01*
G37*
G36*
X386457D02*X384489D01*
Y368780D01*
X386457D01*
Y371534D01*
G37*
G36*
X389605D02*X387637D01*
Y368780D01*
X389605D01*
Y371534D01*
G37*
G36*
X381964Y363625D02*X379012D01*
Y359689D01*
X381964D01*
Y363625D01*
G37*
G36*
X387082D02*X384130D01*
Y359689D01*
X387082D01*
Y363625D01*
G37*
G36*
X378457Y367534D02*X376489D01*
Y364780D01*
X378457D01*
Y367534D01*
G37*
G36*
X381605D02*X379637D01*
Y364780D01*
X381605D01*
Y367534D01*
G37*
G36*
X386457D02*X384489D01*
Y364780D01*
X386457D01*
Y367534D01*
G37*
G36*
X389605D02*X387637D01*
Y364780D01*
X389605D01*
Y367534D01*
G37*
G36*
X408047Y122857D02*Y119457D01*
X412047D01*
Y122857D01*
X408047D01*
G37*
G36*
Y115057D02*Y111657D01*
X412047D01*
Y115057D01*
X408047D01*
G37*
G36*
X416247Y118957D02*Y115557D01*
X420247D01*
Y118957D01*
X416247D01*
G37*
G36*
X393047Y122857D02*Y119457D01*
X397047D01*
Y122857D01*
X393047D01*
G37*
G36*
Y115057D02*Y111657D01*
X397047D01*
Y115057D01*
X393047D01*
G37*
G36*
X401247Y118957D02*Y115557D01*
X405247D01*
Y118957D01*
X401247D01*
G37*
G36*
X432457Y116534D02*X430489D01*
Y113780D01*
X432457D01*
Y116534D01*
G37*
G36*
X435605D02*X433637D01*
Y113780D01*
X435605D01*
Y116534D01*
G37*
G36*
X427964Y112625D02*X425012D01*
Y108689D01*
X427964D01*
Y112625D01*
G37*
G36*
X433082D02*X430130D01*
Y108689D01*
X433082D01*
Y112625D01*
G37*
G36*
X424457Y116534D02*X422489D01*
Y113780D01*
X424457D01*
Y116534D01*
G37*
G36*
X427605D02*X425637D01*
Y113780D01*
X427605D01*
Y116534D01*
G37*
G36*
X432457Y120534D02*X430489D01*
Y117780D01*
X432457D01*
Y120534D01*
G37*
G36*
X435605D02*X433637D01*
Y117780D01*
X435605D01*
Y120534D01*
G37*
G36*
X427964Y125625D02*X425012D01*
Y121689D01*
X427964D01*
Y125625D01*
G37*
G36*
X433082D02*X430130D01*
Y121689D01*
X433082D01*
Y125625D01*
G37*
G36*
X424457Y120534D02*X422489D01*
Y117780D01*
X424457D01*
Y120534D01*
G37*
G36*
X427605D02*X425637D01*
Y117780D01*
X427605D01*
Y120534D01*
G37*
G36*
X347047Y133857D02*Y130457D01*
X351047D01*
Y133857D01*
X347047D01*
G37*
G36*
Y126057D02*Y122657D01*
X351047D01*
Y126057D01*
X347047D01*
G37*
G36*
X355247Y129957D02*Y126557D01*
X359247D01*
Y129957D01*
X355247D01*
G37*
G36*
X347047Y111857D02*Y108457D01*
X351047D01*
Y111857D01*
X347047D01*
G37*
G36*
Y104057D02*Y100657D01*
X351047D01*
Y104057D01*
X347047D01*
G37*
G36*
X355247Y107957D02*Y104557D01*
X359247D01*
Y107957D01*
X355247D01*
G37*
G36*
X362047Y133857D02*Y130457D01*
X366047D01*
Y133857D01*
X362047D01*
G37*
G36*
Y126057D02*Y122657D01*
X366047D01*
Y126057D01*
X362047D01*
G37*
G36*
X370247Y129957D02*Y126557D01*
X374247D01*
Y129957D01*
X370247D01*
G37*
G36*
X362047Y111857D02*Y108457D01*
X366047D01*
Y111857D01*
X362047D01*
G37*
G36*
Y104057D02*Y100657D01*
X366047D01*
Y104057D01*
X362047D01*
G37*
G36*
X370247Y107957D02*Y104557D01*
X374247D01*
Y107957D01*
X370247D01*
G37*
G36*
X381964Y136625D02*X379012D01*
Y132689D01*
X381964D01*
Y136625D01*
G37*
G36*
X387082D02*X384130D01*
Y132689D01*
X387082D01*
Y136625D01*
G37*
G36*
X381964Y114625D02*X379012D01*
Y110689D01*
X381964D01*
Y114625D01*
G37*
G36*
X387082D02*X384130D01*
Y110689D01*
X387082D01*
Y114625D01*
G37*
G36*
X378457Y131534D02*X376489D01*
Y128780D01*
X378457D01*
Y131534D01*
G37*
G36*
X381605D02*X379637D01*
Y128780D01*
X381605D01*
Y131534D01*
G37*
G36*
X378457Y109534D02*X376489D01*
Y106780D01*
X378457D01*
Y109534D01*
G37*
G36*
X381605D02*X379637D01*
Y106780D01*
X381605D01*
Y109534D01*
G37*
G36*
X386457Y131534D02*X384489D01*
Y128780D01*
X386457D01*
Y131534D01*
G37*
G36*
X389605D02*X387637D01*
Y128780D01*
X389605D01*
Y131534D01*
G37*
G36*
X386457Y109534D02*X384489D01*
Y106780D01*
X386457D01*
Y109534D01*
G37*
G36*
X389605D02*X387637D01*
Y106780D01*
X389605D01*
Y109534D01*
G37*
G36*
X381964Y123625D02*X379012D01*
Y119689D01*
X381964D01*
Y123625D01*
G37*
G36*
X387082D02*X384130D01*
Y119689D01*
X387082D01*
Y123625D01*
G37*
G36*
X381964Y101625D02*X379012D01*
Y97689D01*
X381964D01*
Y101625D01*
G37*
G36*
X387082D02*X384130D01*
Y97689D01*
X387082D01*
Y101625D01*
G37*
G36*
X378457Y127534D02*X376489D01*
Y124780D01*
X378457D01*
Y127534D01*
G37*
G36*
X381605D02*X379637D01*
Y124780D01*
X381605D01*
Y127534D01*
G37*
G36*
X378457Y105534D02*X376489D01*
Y102780D01*
X378457D01*
Y105534D01*
G37*
G36*
X381605D02*X379637D01*
Y102780D01*
X381605D01*
Y105534D01*
G37*
G36*
X386457Y127534D02*X384489D01*
Y124780D01*
X386457D01*
Y127534D01*
G37*
G36*
X389605D02*X387637D01*
Y124780D01*
X389605D01*
Y127534D01*
G37*
G36*
X386457Y105534D02*X384489D01*
Y102780D01*
X386457D01*
Y105534D01*
G37*
G36*
X389605D02*X387637D01*
Y102780D01*
X389605D01*
Y105534D01*
G37*
G36*
X408047Y193857D02*Y190457D01*
X412047D01*
Y193857D01*
X408047D01*
G37*
G36*
Y186057D02*Y182657D01*
X412047D01*
Y186057D01*
X408047D01*
G37*
G36*
X416247Y189957D02*Y186557D01*
X420247D01*
Y189957D01*
X416247D01*
G37*
G36*
X408047Y171857D02*Y168457D01*
X412047D01*
Y171857D01*
X408047D01*
G37*
G36*
Y164057D02*Y160657D01*
X412047D01*
Y164057D01*
X408047D01*
G37*
G36*
X416247Y167957D02*Y164557D01*
X420247D01*
Y167957D01*
X416247D01*
G37*
G36*
X408047Y149857D02*Y146457D01*
X412047D01*
Y149857D01*
X408047D01*
G37*
G36*
Y142057D02*Y138657D01*
X412047D01*
Y142057D01*
X408047D01*
G37*
G36*
X416247Y145957D02*Y142557D01*
X420247D01*
Y145957D01*
X416247D01*
G37*
G36*
X393047Y193857D02*Y190457D01*
X397047D01*
Y193857D01*
X393047D01*
G37*
G36*
Y186057D02*Y182657D01*
X397047D01*
Y186057D01*
X393047D01*
G37*
G36*
X401247Y189957D02*Y186557D01*
X405247D01*
Y189957D01*
X401247D01*
G37*
G36*
X393047Y171857D02*Y168457D01*
X397047D01*
Y171857D01*
X393047D01*
G37*
G36*
Y164057D02*Y160657D01*
X397047D01*
Y164057D01*
X393047D01*
G37*
G36*
X401247Y167957D02*Y164557D01*
X405247D01*
Y167957D01*
X401247D01*
G37*
G36*
X393047Y149857D02*Y146457D01*
X397047D01*
Y149857D01*
X393047D01*
G37*
G36*
Y142057D02*Y138657D01*
X397047D01*
Y142057D01*
X393047D01*
G37*
G36*
X401247Y145957D02*Y142557D01*
X405247D01*
Y145957D01*
X401247D01*
G37*
G36*
X432457Y187534D02*X430489D01*
Y184780D01*
X432457D01*
Y187534D01*
G37*
G36*
X435605D02*X433637D01*
Y184780D01*
X435605D01*
Y187534D01*
G37*
G36*
X432457Y165534D02*X430489D01*
Y162780D01*
X432457D01*
Y165534D01*
G37*
G36*
X435605D02*X433637D01*
Y162780D01*
X435605D01*
Y165534D01*
G37*
G36*
X432457Y143534D02*X430489D01*
Y140780D01*
X432457D01*
Y143534D01*
G37*
G36*
X435605D02*X433637D01*
Y140780D01*
X435605D01*
Y143534D01*
G37*
G36*
X427964Y183625D02*X425012D01*
Y179689D01*
X427964D01*
Y183625D01*
G37*
G36*
X433082D02*X430130D01*
Y179689D01*
X433082D01*
Y183625D01*
G37*
G36*
X427964Y161625D02*X425012D01*
Y157689D01*
X427964D01*
Y161625D01*
G37*
G36*
X433082D02*X430130D01*
Y157689D01*
X433082D01*
Y161625D01*
G37*
G36*
X427964Y139625D02*X425012D01*
Y135689D01*
X427964D01*
Y139625D01*
G37*
G36*
X433082D02*X430130D01*
Y135689D01*
X433082D01*
Y139625D01*
G37*
G36*
X424457Y187534D02*X422489D01*
Y184780D01*
X424457D01*
Y187534D01*
G37*
G36*
X427605D02*X425637D01*
Y184780D01*
X427605D01*
Y187534D01*
G37*
G36*
X424457Y165534D02*X422489D01*
Y162780D01*
X424457D01*
Y165534D01*
G37*
G36*
X427605D02*X425637D01*
Y162780D01*
X427605D01*
Y165534D01*
G37*
G36*
X424457Y143534D02*X422489D01*
Y140780D01*
X424457D01*
Y143534D01*
G37*
G36*
X427605D02*X425637D01*
Y140780D01*
X427605D01*
Y143534D01*
G37*
G36*
X432457Y191534D02*X430489D01*
Y188780D01*
X432457D01*
Y191534D01*
G37*
G36*
X435605D02*X433637D01*
Y188780D01*
X435605D01*
Y191534D01*
G37*
G36*
X432457Y169534D02*X430489D01*
Y166780D01*
X432457D01*
Y169534D01*
G37*
G36*
X435605D02*X433637D01*
Y166780D01*
X435605D01*
Y169534D01*
G37*
G36*
X432457Y147534D02*X430489D01*
Y144780D01*
X432457D01*
Y147534D01*
G37*
G36*
X435605D02*X433637D01*
Y144780D01*
X435605D01*
Y147534D01*
G37*
G36*
X427964Y196625D02*X425012D01*
Y192689D01*
X427964D01*
Y196625D01*
G37*
G36*
X433082D02*X430130D01*
Y192689D01*
X433082D01*
Y196625D01*
G37*
G36*
X427964Y174625D02*X425012D01*
Y170689D01*
X427964D01*
Y174625D01*
G37*
G36*
X433082D02*X430130D01*
Y170689D01*
X433082D01*
Y174625D01*
G37*
G36*
X427964Y152625D02*X425012D01*
Y148689D01*
X427964D01*
Y152625D01*
G37*
G36*
X433082D02*X430130D01*
Y148689D01*
X433082D01*
Y152625D01*
G37*
G36*
X424457Y191534D02*X422489D01*
Y188780D01*
X424457D01*
Y191534D01*
G37*
G36*
X427605D02*X425637D01*
Y188780D01*
X427605D01*
Y191534D01*
G37*
G36*
X424457Y169534D02*X422489D01*
Y166780D01*
X424457D01*
Y169534D01*
G37*
G36*
X427605D02*X425637D01*
Y166780D01*
X427605D01*
Y169534D01*
G37*
G36*
X424457Y147534D02*X422489D01*
Y144780D01*
X424457D01*
Y147534D01*
G37*
G36*
X427605D02*X425637D01*
Y144780D01*
X427605D01*
Y147534D01*
G37*
G36*
X347047Y204857D02*Y201457D01*
X351047D01*
Y204857D01*
X347047D01*
G37*
G36*
Y197057D02*Y193657D01*
X351047D01*
Y197057D01*
X347047D01*
G37*
G36*
X355247Y200957D02*Y197557D01*
X359247D01*
Y200957D01*
X355247D01*
G37*
G36*
X347047Y182857D02*Y179457D01*
X351047D01*
Y182857D01*
X347047D01*
G37*
G36*
Y175057D02*Y171657D01*
X351047D01*
Y175057D01*
X347047D01*
G37*
G36*
X355247Y178957D02*Y175557D01*
X359247D01*
Y178957D01*
X355247D01*
G37*
G36*
X347047Y160857D02*Y157457D01*
X351047D01*
Y160857D01*
X347047D01*
G37*
G36*
Y153057D02*Y149657D01*
X351047D01*
Y153057D01*
X347047D01*
G37*
G36*
X355247Y156957D02*Y153557D01*
X359247D01*
Y156957D01*
X355247D01*
G37*
G36*
X362047Y204857D02*Y201457D01*
X366047D01*
Y204857D01*
X362047D01*
G37*
G36*
Y197057D02*Y193657D01*
X366047D01*
Y197057D01*
X362047D01*
G37*
G36*
X370247Y200957D02*Y197557D01*
X374247D01*
Y200957D01*
X370247D01*
G37*
G36*
X362047Y182857D02*Y179457D01*
X366047D01*
Y182857D01*
X362047D01*
G37*
G36*
Y175057D02*Y171657D01*
X366047D01*
Y175057D01*
X362047D01*
G37*
G36*
X370247Y178957D02*Y175557D01*
X374247D01*
Y178957D01*
X370247D01*
G37*
G36*
X362047Y160857D02*Y157457D01*
X366047D01*
Y160857D01*
X362047D01*
G37*
G36*
Y153057D02*Y149657D01*
X366047D01*
Y153057D01*
X362047D01*
G37*
G36*
X370247Y156957D02*Y153557D01*
X374247D01*
Y156957D01*
X370247D01*
G37*
G36*
X381964Y207625D02*X379012D01*
Y203689D01*
X381964D01*
Y207625D01*
G37*
G36*
X387082D02*X384130D01*
Y203689D01*
X387082D01*
Y207625D01*
G37*
G36*
X381964Y185625D02*X379012D01*
Y181689D01*
X381964D01*
Y185625D01*
G37*
G36*
X387082D02*X384130D01*
Y181689D01*
X387082D01*
Y185625D01*
G37*
G36*
X381964Y163625D02*X379012D01*
Y159689D01*
X381964D01*
Y163625D01*
G37*
G36*
X387082D02*X384130D01*
Y159689D01*
X387082D01*
Y163625D01*
G37*
G36*
X378457Y202534D02*X376489D01*
Y199780D01*
X378457D01*
Y202534D01*
G37*
G36*
X381605D02*X379637D01*
Y199780D01*
X381605D01*
Y202534D01*
G37*
G36*
X378457Y180534D02*X376489D01*
Y177780D01*
X378457D01*
Y180534D01*
G37*
G36*
X381605D02*X379637D01*
Y177780D01*
X381605D01*
Y180534D01*
G37*
G36*
X378457Y158534D02*X376489D01*
Y155780D01*
X378457D01*
Y158534D01*
G37*
G36*
X381605D02*X379637D01*
Y155780D01*
X381605D01*
Y158534D01*
G37*
G36*
X386457Y202534D02*X384489D01*
Y199780D01*
X386457D01*
Y202534D01*
G37*
G36*
X389605D02*X387637D01*
Y199780D01*
X389605D01*
Y202534D01*
G37*
G36*
X386457Y180534D02*X384489D01*
Y177780D01*
X386457D01*
Y180534D01*
G37*
G36*
X389605D02*X387637D01*
Y177780D01*
X389605D01*
Y180534D01*
G37*
G36*
X386457Y158534D02*X384489D01*
Y155780D01*
X386457D01*
Y158534D01*
G37*
G36*
X389605D02*X387637D01*
Y155780D01*
X389605D01*
Y158534D01*
G37*
G36*
X381964Y194625D02*X379012D01*
Y190689D01*
X381964D01*
Y194625D01*
G37*
G36*
X387082D02*X384130D01*
Y190689D01*
X387082D01*
Y194625D01*
G37*
G36*
X381964Y172625D02*X379012D01*
Y168689D01*
X381964D01*
Y172625D01*
G37*
G36*
X387082D02*X384130D01*
Y168689D01*
X387082D01*
Y172625D01*
G37*
G36*
X381964Y150625D02*X379012D01*
Y146689D01*
X381964D01*
Y150625D01*
G37*
G36*
X387082D02*X384130D01*
Y146689D01*
X387082D01*
Y150625D01*
G37*
G36*
X378457Y198534D02*X376489D01*
Y195780D01*
X378457D01*
Y198534D01*
G37*
G36*
X381605D02*X379637D01*
Y195780D01*
X381605D01*
Y198534D01*
G37*
G36*
X378457Y176534D02*X376489D01*
Y173780D01*
X378457D01*
Y176534D01*
G37*
G36*
X381605D02*X379637D01*
Y173780D01*
X381605D01*
Y176534D01*
G37*
G36*
X378457Y154534D02*X376489D01*
Y151780D01*
X378457D01*
Y154534D01*
G37*
G36*
X381605D02*X379637D01*
Y151780D01*
X381605D01*
Y154534D01*
G37*
G36*
X386457Y198534D02*X384489D01*
Y195780D01*
X386457D01*
Y198534D01*
G37*
G36*
X389605D02*X387637D01*
Y195780D01*
X389605D01*
Y198534D01*
G37*
G36*
X386457Y176534D02*X384489D01*
Y173780D01*
X386457D01*
Y176534D01*
G37*
G36*
X389605D02*X387637D01*
Y173780D01*
X389605D01*
Y176534D01*
G37*
G36*
X386457Y154534D02*X384489D01*
Y151780D01*
X386457D01*
Y154534D01*
G37*
G36*
X389605D02*X387637D01*
Y151780D01*
X389605D01*
Y154534D01*
G37*
G36*
X408047Y264857D02*Y261457D01*
X412047D01*
Y264857D01*
X408047D01*
G37*
G36*
Y257057D02*Y253657D01*
X412047D01*
Y257057D01*
X408047D01*
G37*
G36*
X416247Y260957D02*Y257557D01*
X420247D01*
Y260957D01*
X416247D01*
G37*
G36*
X408047Y242857D02*Y239457D01*
X412047D01*
Y242857D01*
X408047D01*
G37*
G36*
Y235057D02*Y231657D01*
X412047D01*
Y235057D01*
X408047D01*
G37*
G36*
X416247Y238957D02*Y235557D01*
X420247D01*
Y238957D01*
X416247D01*
G37*
G36*
X408047Y220857D02*Y217457D01*
X412047D01*
Y220857D01*
X408047D01*
G37*
G36*
Y213057D02*Y209657D01*
X412047D01*
Y213057D01*
X408047D01*
G37*
G36*
X416247Y216957D02*Y213557D01*
X420247D01*
Y216957D01*
X416247D01*
G37*
G36*
X393047Y264857D02*Y261457D01*
X397047D01*
Y264857D01*
X393047D01*
G37*
G36*
Y257057D02*Y253657D01*
X397047D01*
Y257057D01*
X393047D01*
G37*
G36*
X401247Y260957D02*Y257557D01*
X405247D01*
Y260957D01*
X401247D01*
G37*
G36*
X393047Y242857D02*Y239457D01*
X397047D01*
Y242857D01*
X393047D01*
G37*
G36*
Y235057D02*Y231657D01*
X397047D01*
Y235057D01*
X393047D01*
G37*
G36*
X401247Y238957D02*Y235557D01*
X405247D01*
Y238957D01*
X401247D01*
G37*
G36*
X393047Y220857D02*Y217457D01*
X397047D01*
Y220857D01*
X393047D01*
G37*
G36*
Y213057D02*Y209657D01*
X397047D01*
Y213057D01*
X393047D01*
G37*
G36*
X401247Y216957D02*Y213557D01*
X405247D01*
Y216957D01*
X401247D01*
G37*
G36*
X432457Y258534D02*X430489D01*
Y255780D01*
X432457D01*
Y258534D01*
G37*
G36*
X435605D02*X433637D01*
Y255780D01*
X435605D01*
Y258534D01*
G37*
G36*
X432457Y236534D02*X430489D01*
Y233780D01*
X432457D01*
Y236534D01*
G37*
G36*
X435605D02*X433637D01*
Y233780D01*
X435605D01*
Y236534D01*
G37*
G36*
X432457Y214534D02*X430489D01*
Y211780D01*
X432457D01*
Y214534D01*
G37*
G36*
X435605D02*X433637D01*
Y211780D01*
X435605D01*
Y214534D01*
G37*
G36*
X427964Y254625D02*X425012D01*
Y250689D01*
X427964D01*
Y254625D01*
G37*
G36*
X433082D02*X430130D01*
Y250689D01*
X433082D01*
Y254625D01*
G37*
G36*
X427964Y232625D02*X425012D01*
Y228689D01*
X427964D01*
Y232625D01*
G37*
G36*
X433082D02*X430130D01*
Y228689D01*
X433082D01*
Y232625D01*
G37*
G36*
X427964Y210625D02*X425012D01*
Y206689D01*
X427964D01*
Y210625D01*
G37*
G36*
X433082D02*X430130D01*
Y206689D01*
X433082D01*
Y210625D01*
G37*
G36*
X424457Y258534D02*X422489D01*
Y255780D01*
X424457D01*
Y258534D01*
G37*
G36*
X427605D02*X425637D01*
Y255780D01*
X427605D01*
Y258534D01*
G37*
G36*
X424457Y236534D02*X422489D01*
Y233780D01*
X424457D01*
Y236534D01*
G37*
G36*
X427605D02*X425637D01*
Y233780D01*
X427605D01*
Y236534D01*
G37*
G36*
X424457Y214534D02*X422489D01*
Y211780D01*
X424457D01*
Y214534D01*
G37*
G36*
X427605D02*X425637D01*
Y211780D01*
X427605D01*
Y214534D01*
G37*
G36*
X432457Y262534D02*X430489D01*
Y259780D01*
X432457D01*
Y262534D01*
G37*
G36*
X435605D02*X433637D01*
Y259780D01*
X435605D01*
Y262534D01*
G37*
G36*
X432457Y240534D02*X430489D01*
Y237780D01*
X432457D01*
Y240534D01*
G37*
G36*
X435605D02*X433637D01*
Y237780D01*
X435605D01*
Y240534D01*
G37*
G36*
X432457Y218534D02*X430489D01*
Y215780D01*
X432457D01*
Y218534D01*
G37*
G36*
X435605D02*X433637D01*
Y215780D01*
X435605D01*
Y218534D01*
G37*
G36*
X427964Y267625D02*X425012D01*
Y263689D01*
X427964D01*
Y267625D01*
G37*
G36*
X433082D02*X430130D01*
Y263689D01*
X433082D01*
Y267625D01*
G37*
G36*
X427964Y245625D02*X425012D01*
Y241689D01*
X427964D01*
Y245625D01*
G37*
G36*
X433082D02*X430130D01*
Y241689D01*
X433082D01*
Y245625D01*
G37*
G36*
X427964Y223625D02*X425012D01*
Y219689D01*
X427964D01*
Y223625D01*
G37*
G36*
X433082D02*X430130D01*
Y219689D01*
X433082D01*
Y223625D01*
G37*
G36*
X424457Y262534D02*X422489D01*
Y259780D01*
X424457D01*
Y262534D01*
G37*
G36*
X427605D02*X425637D01*
Y259780D01*
X427605D01*
Y262534D01*
G37*
G36*
X424457Y240534D02*X422489D01*
Y237780D01*
X424457D01*
Y240534D01*
G37*
G36*
X427605D02*X425637D01*
Y237780D01*
X427605D01*
Y240534D01*
G37*
G36*
X424457Y218534D02*X422489D01*
Y215780D01*
X424457D01*
Y218534D01*
G37*
G36*
X427605D02*X425637D01*
Y215780D01*
X427605D01*
Y218534D01*
G37*
G36*
X347047Y275857D02*Y272457D01*
X351047D01*
Y275857D01*
X347047D01*
G37*
G36*
Y268057D02*Y264657D01*
X351047D01*
Y268057D01*
X347047D01*
G37*
G36*
X355247Y271957D02*Y268557D01*
X359247D01*
Y271957D01*
X355247D01*
G37*
G36*
X347047Y253857D02*Y250457D01*
X351047D01*
Y253857D01*
X347047D01*
G37*
G36*
Y246057D02*Y242657D01*
X351047D01*
Y246057D01*
X347047D01*
G37*
G36*
X355247Y249957D02*Y246557D01*
X359247D01*
Y249957D01*
X355247D01*
G37*
G36*
X347047Y231857D02*Y228457D01*
X351047D01*
Y231857D01*
X347047D01*
G37*
G36*
Y224057D02*Y220657D01*
X351047D01*
Y224057D01*
X347047D01*
G37*
G36*
X355247Y227957D02*Y224557D01*
X359247D01*
Y227957D01*
X355247D01*
G37*
G36*
X362047Y275857D02*Y272457D01*
X366047D01*
Y275857D01*
X362047D01*
G37*
G36*
Y268057D02*Y264657D01*
X366047D01*
Y268057D01*
X362047D01*
G37*
G36*
X370247Y271957D02*Y268557D01*
X374247D01*
Y271957D01*
X370247D01*
G37*
G36*
X362047Y253857D02*Y250457D01*
X366047D01*
Y253857D01*
X362047D01*
G37*
G36*
Y246057D02*Y242657D01*
X366047D01*
Y246057D01*
X362047D01*
G37*
G36*
X370247Y249957D02*Y246557D01*
X374247D01*
Y249957D01*
X370247D01*
G37*
G36*
X362047Y231857D02*Y228457D01*
X366047D01*
Y231857D01*
X362047D01*
G37*
G36*
Y224057D02*Y220657D01*
X366047D01*
Y224057D01*
X362047D01*
G37*
G36*
X370247Y227957D02*Y224557D01*
X374247D01*
Y227957D01*
X370247D01*
G37*
G36*
X381964Y278625D02*X379012D01*
Y274689D01*
X381964D01*
Y278625D01*
G37*
G36*
X387082D02*X384130D01*
Y274689D01*
X387082D01*
Y278625D01*
G37*
G36*
X381964Y256625D02*X379012D01*
Y252689D01*
X381964D01*
Y256625D01*
G37*
G36*
X387082D02*X384130D01*
Y252689D01*
X387082D01*
Y256625D01*
G37*
G36*
X381964Y234625D02*X379012D01*
Y230689D01*
X381964D01*
Y234625D01*
G37*
G36*
X387082D02*X384130D01*
Y230689D01*
X387082D01*
Y234625D01*
G37*
G36*
X378457Y273534D02*X376489D01*
Y270780D01*
X378457D01*
Y273534D01*
G37*
G36*
X381605D02*X379637D01*
Y270780D01*
X381605D01*
Y273534D01*
G37*
G36*
X378457Y251534D02*X376489D01*
Y248780D01*
X378457D01*
Y251534D01*
G37*
G36*
X381605D02*X379637D01*
Y248780D01*
X381605D01*
Y251534D01*
G37*
G36*
X378457Y229534D02*X376489D01*
Y226780D01*
X378457D01*
Y229534D01*
G37*
G36*
X381605D02*X379637D01*
Y226780D01*
X381605D01*
Y229534D01*
G37*
G36*
X386457Y273534D02*X384489D01*
Y270780D01*
X386457D01*
Y273534D01*
G37*
G36*
X389605D02*X387637D01*
Y270780D01*
X389605D01*
Y273534D01*
G37*
G36*
X386457Y251534D02*X384489D01*
Y248780D01*
X386457D01*
Y251534D01*
G37*
G36*
X389605D02*X387637D01*
Y248780D01*
X389605D01*
Y251534D01*
G37*
G36*
X386457Y229534D02*X384489D01*
Y226780D01*
X386457D01*
Y229534D01*
G37*
G36*
X389605D02*X387637D01*
Y226780D01*
X389605D01*
Y229534D01*
G37*
G36*
X381964Y265625D02*X379012D01*
Y261689D01*
X381964D01*
Y265625D01*
G37*
G36*
X387082D02*X384130D01*
Y261689D01*
X387082D01*
Y265625D01*
G37*
G36*
X381964Y243625D02*X379012D01*
Y239689D01*
X381964D01*
Y243625D01*
G37*
G36*
X387082D02*X384130D01*
Y239689D01*
X387082D01*
Y243625D01*
G37*
G36*
X381964Y221625D02*X379012D01*
Y217689D01*
X381964D01*
Y221625D01*
G37*
G36*
X387082D02*X384130D01*
Y217689D01*
X387082D01*
Y221625D01*
G37*
G36*
X378457Y269534D02*X376489D01*
Y266780D01*
X378457D01*
Y269534D01*
G37*
G36*
X381605D02*X379637D01*
Y266780D01*
X381605D01*
Y269534D01*
G37*
G36*
X378457Y247534D02*X376489D01*
Y244780D01*
X378457D01*
Y247534D01*
G37*
G36*
X381605D02*X379637D01*
Y244780D01*
X381605D01*
Y247534D01*
G37*
G36*
X378457Y225534D02*X376489D01*
Y222780D01*
X378457D01*
Y225534D01*
G37*
G36*
X381605D02*X379637D01*
Y222780D01*
X381605D01*
Y225534D01*
G37*
G36*
X386457Y269534D02*X384489D01*
Y266780D01*
X386457D01*
Y269534D01*
G37*
G36*
X389605D02*X387637D01*
Y266780D01*
X389605D01*
Y269534D01*
G37*
G36*
X386457Y247534D02*X384489D01*
Y244780D01*
X386457D01*
Y247534D01*
G37*
G36*
X389605D02*X387637D01*
Y244780D01*
X389605D01*
Y247534D01*
G37*
G36*
X386457Y225534D02*X384489D01*
Y222780D01*
X386457D01*
Y225534D01*
G37*
G36*
X389605D02*X387637D01*
Y222780D01*
X389605D01*
Y225534D01*
G37*
G36*
X408047Y335857D02*Y332457D01*
X412047D01*
Y335857D01*
X408047D01*
G37*
G36*
Y328057D02*Y324657D01*
X412047D01*
Y328057D01*
X408047D01*
G37*
G36*
X416247Y331957D02*Y328557D01*
X420247D01*
Y331957D01*
X416247D01*
G37*
G36*
X408047Y313857D02*Y310457D01*
X412047D01*
Y313857D01*
X408047D01*
G37*
G36*
Y306057D02*Y302657D01*
X412047D01*
Y306057D01*
X408047D01*
G37*
G36*
X416247Y309957D02*Y306557D01*
X420247D01*
Y309957D01*
X416247D01*
G37*
G36*
X408047Y291857D02*Y288457D01*
X412047D01*
Y291857D01*
X408047D01*
G37*
G36*
Y284057D02*Y280657D01*
X412047D01*
Y284057D01*
X408047D01*
G37*
G36*
X416247Y287957D02*Y284557D01*
X420247D01*
Y287957D01*
X416247D01*
G37*
G36*
X393047Y335857D02*Y332457D01*
X397047D01*
Y335857D01*
X393047D01*
G37*
G36*
Y328057D02*Y324657D01*
X397047D01*
Y328057D01*
X393047D01*
G37*
G36*
X401247Y331957D02*Y328557D01*
X405247D01*
Y331957D01*
X401247D01*
G37*
G36*
X393047Y313857D02*Y310457D01*
X397047D01*
Y313857D01*
X393047D01*
G37*
G36*
Y306057D02*Y302657D01*
X397047D01*
Y306057D01*
X393047D01*
G37*
G36*
X401247Y309957D02*Y306557D01*
X405247D01*
Y309957D01*
X401247D01*
G37*
G36*
X393047Y291857D02*Y288457D01*
X397047D01*
Y291857D01*
X393047D01*
G37*
G36*
Y284057D02*Y280657D01*
X397047D01*
Y284057D01*
X393047D01*
G37*
G36*
X401247Y287957D02*Y284557D01*
X405247D01*
Y287957D01*
X401247D01*
G37*
G36*
X432457Y329534D02*X430489D01*
Y326780D01*
X432457D01*
Y329534D01*
G37*
G36*
X435605D02*X433637D01*
Y326780D01*
X435605D01*
Y329534D01*
G37*
G36*
X432457Y307534D02*X430489D01*
Y304780D01*
X432457D01*
Y307534D01*
G37*
G36*
X435605D02*X433637D01*
Y304780D01*
X435605D01*
Y307534D01*
G37*
G36*
X432457Y285534D02*X430489D01*
Y282780D01*
X432457D01*
Y285534D01*
G37*
G36*
X435605D02*X433637D01*
Y282780D01*
X435605D01*
Y285534D01*
G37*
G36*
X427964Y325625D02*X425012D01*
Y321689D01*
X427964D01*
Y325625D01*
G37*
G36*
X433082D02*X430130D01*
Y321689D01*
X433082D01*
Y325625D01*
G37*
G36*
X427964Y303625D02*X425012D01*
Y299689D01*
X427964D01*
Y303625D01*
G37*
G36*
X433082D02*X430130D01*
Y299689D01*
X433082D01*
Y303625D01*
G37*
G36*
X427964Y281625D02*X425012D01*
Y277689D01*
X427964D01*
Y281625D01*
G37*
G36*
X433082D02*X430130D01*
Y277689D01*
X433082D01*
Y281625D01*
G37*
G36*
X424457Y329534D02*X422489D01*
Y326780D01*
X424457D01*
Y329534D01*
G37*
G36*
X427605D02*X425637D01*
Y326780D01*
X427605D01*
Y329534D01*
G37*
G36*
X424457Y307534D02*X422489D01*
Y304780D01*
X424457D01*
Y307534D01*
G37*
G36*
X427605D02*X425637D01*
Y304780D01*
X427605D01*
Y307534D01*
G37*
G36*
X424457Y285534D02*X422489D01*
Y282780D01*
X424457D01*
Y285534D01*
G37*
G36*
X427605D02*X425637D01*
Y282780D01*
X427605D01*
Y285534D01*
G37*
G36*
X432457Y333534D02*X430489D01*
Y330780D01*
X432457D01*
Y333534D01*
G37*
G36*
X435605D02*X433637D01*
Y330780D01*
X435605D01*
Y333534D01*
G37*
G36*
X432457Y311534D02*X430489D01*
Y308780D01*
X432457D01*
Y311534D01*
G37*
G36*
X435605D02*X433637D01*
Y308780D01*
X435605D01*
Y311534D01*
G37*
G36*
X432457Y289534D02*X430489D01*
Y286780D01*
X432457D01*
Y289534D01*
G37*
G36*
X435605D02*X433637D01*
Y286780D01*
X435605D01*
Y289534D01*
G37*
G36*
X427964Y338625D02*X425012D01*
Y334689D01*
X427964D01*
Y338625D01*
G37*
G36*
X433082D02*X430130D01*
Y334689D01*
X433082D01*
Y338625D01*
G37*
G36*
X427964Y316625D02*X425012D01*
Y312689D01*
X427964D01*
Y316625D01*
G37*
G36*
X433082D02*X430130D01*
Y312689D01*
X433082D01*
Y316625D01*
G37*
G36*
X427964Y294625D02*X425012D01*
Y290689D01*
X427964D01*
Y294625D01*
G37*
G36*
X433082D02*X430130D01*
Y290689D01*
X433082D01*
Y294625D01*
G37*
G36*
X424457Y333534D02*X422489D01*
Y330780D01*
X424457D01*
Y333534D01*
G37*
G36*
X427605D02*X425637D01*
Y330780D01*
X427605D01*
Y333534D01*
G37*
G36*
X424457Y311534D02*X422489D01*
Y308780D01*
X424457D01*
Y311534D01*
G37*
G36*
X427605D02*X425637D01*
Y308780D01*
X427605D01*
Y311534D01*
G37*
G36*
X424457Y289534D02*X422489D01*
Y286780D01*
X424457D01*
Y289534D01*
G37*
G36*
X427605D02*X425637D01*
Y286780D01*
X427605D01*
Y289534D01*
G37*
G36*
X347047Y346857D02*Y343457D01*
X351047D01*
Y346857D01*
X347047D01*
G37*
G36*
Y339057D02*Y335657D01*
X351047D01*
Y339057D01*
X347047D01*
G37*
G36*
X355247Y342957D02*Y339557D01*
X359247D01*
Y342957D01*
X355247D01*
G37*
G36*
X347047Y324857D02*Y321457D01*
X351047D01*
Y324857D01*
X347047D01*
G37*
G36*
Y317057D02*Y313657D01*
X351047D01*
Y317057D01*
X347047D01*
G37*
G36*
X355247Y320957D02*Y317557D01*
X359247D01*
Y320957D01*
X355247D01*
G37*
G36*
X347047Y302857D02*Y299457D01*
X351047D01*
Y302857D01*
X347047D01*
G37*
G36*
Y295057D02*Y291657D01*
X351047D01*
Y295057D01*
X347047D01*
G37*
G36*
X355247Y298957D02*Y295557D01*
X359247D01*
Y298957D01*
X355247D01*
G37*
G36*
X362047Y346857D02*Y343457D01*
X366047D01*
Y346857D01*
X362047D01*
G37*
G36*
Y339057D02*Y335657D01*
X366047D01*
Y339057D01*
X362047D01*
G37*
G36*
X370247Y342957D02*Y339557D01*
X374247D01*
Y342957D01*
X370247D01*
G37*
G36*
X362047Y324857D02*Y321457D01*
X366047D01*
Y324857D01*
X362047D01*
G37*
G36*
Y317057D02*Y313657D01*
X366047D01*
Y317057D01*
X362047D01*
G37*
G36*
X370247Y320957D02*Y317557D01*
X374247D01*
Y320957D01*
X370247D01*
G37*
G36*
X362047Y302857D02*Y299457D01*
X366047D01*
Y302857D01*
X362047D01*
G37*
G36*
Y295057D02*Y291657D01*
X366047D01*
Y295057D01*
X362047D01*
G37*
G36*
X370247Y298957D02*Y295557D01*
X374247D01*
Y298957D01*
X370247D01*
G37*
G36*
X381964Y349625D02*X379012D01*
Y345689D01*
X381964D01*
Y349625D01*
G37*
G36*
X387082D02*X384130D01*
Y345689D01*
X387082D01*
Y349625D01*
G37*
G36*
X381964Y327625D02*X379012D01*
Y323689D01*
X381964D01*
Y327625D01*
G37*
G36*
X387082D02*X384130D01*
Y323689D01*
X387082D01*
Y327625D01*
G37*
G36*
X381964Y305625D02*X379012D01*
Y301689D01*
X381964D01*
Y305625D01*
G37*
G36*
X387082D02*X384130D01*
Y301689D01*
X387082D01*
Y305625D01*
G37*
G36*
X378457Y344534D02*X376489D01*
Y341780D01*
X378457D01*
Y344534D01*
G37*
G36*
X381605D02*X379637D01*
Y341780D01*
X381605D01*
Y344534D01*
G37*
G36*
X378457Y322534D02*X376489D01*
Y319780D01*
X378457D01*
Y322534D01*
G37*
G36*
X381605D02*X379637D01*
Y319780D01*
X381605D01*
Y322534D01*
G37*
G36*
X378457Y300534D02*X376489D01*
Y297780D01*
X378457D01*
Y300534D01*
G37*
G36*
X381605D02*X379637D01*
Y297780D01*
X381605D01*
Y300534D01*
G37*
G36*
X386457Y344534D02*X384489D01*
Y341780D01*
X386457D01*
Y344534D01*
G37*
G36*
X389605D02*X387637D01*
Y341780D01*
X389605D01*
Y344534D01*
G37*
G36*
X386457Y322534D02*X384489D01*
Y319780D01*
X386457D01*
Y322534D01*
G37*
G36*
X389605D02*X387637D01*
Y319780D01*
X389605D01*
Y322534D01*
G37*
G36*
X386457Y300534D02*X384489D01*
Y297780D01*
X386457D01*
Y300534D01*
G37*
G36*
X389605D02*X387637D01*
Y297780D01*
X389605D01*
Y300534D01*
G37*
G36*
X381964Y336625D02*X379012D01*
Y332689D01*
X381964D01*
Y336625D01*
G37*
G36*
X387082D02*X384130D01*
Y332689D01*
X387082D01*
Y336625D01*
G37*
G36*
X381964Y314625D02*X379012D01*
Y310689D01*
X381964D01*
Y314625D01*
G37*
G36*
X387082D02*X384130D01*
Y310689D01*
X387082D01*
Y314625D01*
G37*
G36*
X381964Y292625D02*X379012D01*
Y288689D01*
X381964D01*
Y292625D01*
G37*
G36*
X387082D02*X384130D01*
Y288689D01*
X387082D01*
Y292625D01*
G37*
G36*
X378457Y340534D02*X376489D01*
Y337780D01*
X378457D01*
Y340534D01*
G37*
G36*
X381605D02*X379637D01*
Y337780D01*
X381605D01*
Y340534D01*
G37*
G36*
X378457Y318534D02*X376489D01*
Y315780D01*
X378457D01*
Y318534D01*
G37*
G36*
X381605D02*X379637D01*
Y315780D01*
X381605D01*
Y318534D01*
G37*
G36*
X378457Y296534D02*X376489D01*
Y293780D01*
X378457D01*
Y296534D01*
G37*
G36*
X381605D02*X379637D01*
Y293780D01*
X381605D01*
Y296534D01*
G37*
G36*
X386457Y340534D02*X384489D01*
Y337780D01*
X386457D01*
Y340534D01*
G37*
G36*
X389605D02*X387637D01*
Y337780D01*
X389605D01*
Y340534D01*
G37*
G36*
X386457Y318534D02*X384489D01*
Y315780D01*
X386457D01*
Y318534D01*
G37*
G36*
X389605D02*X387637D01*
Y315780D01*
X389605D01*
Y318534D01*
G37*
G36*
X386457Y296534D02*X384489D01*
Y293780D01*
X386457D01*
Y296534D01*
G37*
G36*
X389605D02*X387637D01*
Y293780D01*
X389605D01*
Y296534D01*
G37*
G36*
X328670Y281715D02*Y279747D01*
X331424D01*
Y281715D01*
X328670D01*
G37*
G36*
Y278567D02*Y276599D01*
X331424D01*
Y278567D01*
X328670D01*
G37*
G36*
X326670Y218715D02*Y216747D01*
X329424D01*
Y218715D01*
X326670D01*
G37*
G36*
Y215567D02*Y213599D01*
X329424D01*
Y215567D01*
X326670D01*
G37*
G36*
X333170Y282067D02*Y280099D01*
X335924D01*
Y282067D01*
X333170D01*
G37*
G36*
Y285215D02*Y283247D01*
X335924D01*
Y285215D01*
X333170D01*
G37*
G36*
X331170Y219067D02*Y217099D01*
X333924D01*
Y219067D01*
X331170D01*
G37*
G36*
Y222215D02*Y220247D01*
X333924D01*
Y222215D01*
X331170D01*
G37*
G36*
X328170Y271215D02*Y269247D01*
X330924D01*
Y271215D01*
X328170D01*
G37*
G36*
Y268067D02*Y266099D01*
X330924D01*
Y268067D01*
X328170D01*
G37*
G36*
X326170Y208215D02*Y206247D01*
X328924D01*
Y208215D01*
X326170D01*
G37*
G36*
Y205067D02*Y203099D01*
X328924D01*
Y205067D01*
X326170D01*
G37*
G36*
X333170Y272067D02*Y270099D01*
X335924D01*
Y272067D01*
X333170D01*
G37*
G36*
Y275215D02*Y273247D01*
X335924D01*
Y275215D01*
X333170D01*
G37*
G36*
X331170Y209067D02*Y207099D01*
X333924D01*
Y209067D01*
X331170D01*
G37*
G36*
Y212215D02*Y210247D01*
X333924D01*
Y212215D01*
X331170D01*
G37*
G36*
X304486Y305064D02*X305878Y303672D01*
X307825Y305620D01*
X306434Y307011D01*
X304486Y305064D01*
G37*
G36*
X306712Y302838D02*X308104Y301446D01*
X310051Y303394D01*
X308660Y304785D01*
X306712Y302838D01*
G37*
G36*
X267717Y342540D02*X269109Y341149D01*
X271057Y343096D01*
X269665Y344488D01*
X267717Y342540D01*
G37*
G36*
X269943Y340314D02*X271335Y338923D01*
X273283Y340870D01*
X271891Y342262D01*
X269943Y340314D01*
G37*
G36*
X282566Y327691D02*X283958Y326299D01*
X285905Y328246D01*
X284514Y329638D01*
X282566Y327691D01*
G37*
G36*
X284792Y325465D02*X286184Y324073D01*
X288131Y326020D01*
X286740Y327412D01*
X284792Y325465D01*
G37*
G36*
X297416Y312842D02*X298807Y311450D01*
X300755Y313398D01*
X299363Y314789D01*
X297416Y312842D01*
G37*
G36*
X299641Y310616D02*X301033Y309224D01*
X302981Y311172D01*
X301589Y312563D01*
X299641Y310616D01*
G37*
G36*
X270650Y345972D02*X272042Y344580D01*
X273989Y346528D01*
X272598Y347919D01*
X270650Y345972D01*
G37*
G36*
X268424Y348198D02*X269816Y346806D01*
X271763Y348754D01*
X270372Y350145D01*
X268424Y348198D01*
G37*
G36*
X285499Y331122D02*X286891Y329730D01*
X288838Y331678D01*
X287447Y333069D01*
X285499Y331122D01*
G37*
G36*
X283273Y333348D02*X284665Y331956D01*
X286612Y333904D01*
X285221Y335295D01*
X283273Y333348D01*
G37*
G36*
X300349Y316272D02*X301740Y314881D01*
X303688Y316828D01*
X302296Y318220D01*
X300349Y316272D01*
G37*
G36*
X298123Y318498D02*X299514Y317107D01*
X301462Y319054D01*
X300070Y320446D01*
X298123Y318498D01*
G37*
G36*
X274787Y334762D02*X276179Y333371D01*
X278127Y335318D01*
X276735Y336710D01*
X274787Y334762D01*
G37*
G36*
X277013Y332536D02*X278405Y331145D01*
X280353Y333092D01*
X278961Y334484D01*
X277013Y332536D01*
G37*
G36*
X289637Y319913D02*X291029Y318521D01*
X292977Y320469D01*
X291585Y321860D01*
X289637Y319913D01*
G37*
G36*
X291863Y317687D02*X293255Y316295D01*
X295203Y318243D01*
X293811Y319634D01*
X291863Y317687D01*
G37*
G36*
X277721Y338900D02*X279112Y337508D01*
X281060Y339456D01*
X279668Y340847D01*
X277721Y338900D01*
G37*
G36*
X275495Y341126D02*X276886Y339734D01*
X278834Y341682D01*
X277442Y343073D01*
X275495Y341126D01*
G37*
G36*
X292571Y324051D02*X293962Y322659D01*
X295910Y324607D01*
X294518Y325998D01*
X292571Y324051D01*
G37*
G36*
X290345Y326277D02*X291736Y324885D01*
X293684Y326833D01*
X292292Y328224D01*
X290345Y326277D01*
G37*
G36*
X307419Y309202D02*X308811Y307810D01*
X310759Y309757D01*
X309367Y311149D01*
X307419Y309202D01*
G37*
G36*
X305193Y311428D02*X306585Y310036D01*
X308533Y311983D01*
X307141Y313375D01*
X305193Y311428D01*
G37*
G36*
X322269Y294352D02*X323661Y292961D01*
X325608Y294908D01*
X324217Y296300D01*
X322269Y294352D01*
G37*
G36*
X320043Y296578D02*X321435Y295187D01*
X323382Y297134D01*
X321991Y298526D01*
X320043Y296578D01*
G37*
G36*
X319336Y290214D02*X320728Y288823D01*
X322675Y290770D01*
X321283Y292162D01*
X319336Y290214D01*
G37*
G36*
X321562Y287988D02*X322954Y286597D01*
X324901Y288544D01*
X323509Y289936D01*
X321562Y287988D01*
G37*
G36*
X315198Y301423D02*X316589Y300032D01*
X318537Y301979D01*
X317145Y303371D01*
X315198Y301423D01*
G37*
G36*
X312972Y303649D02*X314363Y302258D01*
X316311Y304205D01*
X314919Y305597D01*
X312972Y303649D01*
G37*
G36*
X312265Y297993D02*X313656Y296601D01*
X315604Y298548D01*
X314212Y299940D01*
X312265Y297993D01*
G37*
G36*
X314491Y295767D02*X315882Y294375D01*
X317830Y296322D01*
X316438Y297714D01*
X314491Y295767D01*
G37*
G36*
X319882Y198940D02*X318491Y197548D01*
X320438Y195601D01*
X321830Y196993D01*
X319882Y198940D01*
G37*
G36*
X317656Y196714D02*X316265Y195322D01*
X318212Y193375D01*
X319604Y194767D01*
X317656Y196714D01*
G37*
G36*
X305033Y184091D02*X303641Y182699D01*
X305589Y180752D01*
X306981Y182143D01*
X305033Y184091D01*
G37*
G36*
X302807Y181865D02*X301416Y180473D01*
X303363Y178526D01*
X304755Y179917D01*
X302807Y181865D01*
G37*
G36*
X290184Y169242D02*X288792Y167851D01*
X290740Y165903D01*
X292131Y167295D01*
X290184Y169242D01*
G37*
G36*
X287958Y167016D02*X286566Y165625D01*
X288514Y163677D01*
X289905Y165069D01*
X287958Y167016D01*
G37*
G36*
X275335Y154392D02*X273943Y153001D01*
X275891Y151053D01*
X277283Y152445D01*
X275335Y154392D01*
G37*
G36*
X273109Y152166D02*X271717Y150775D01*
X273665Y148827D01*
X275057Y150219D01*
X273109Y152166D01*
G37*
G36*
X323313Y196006D02*X321921Y194615D01*
X323869Y192667D01*
X325260Y194059D01*
X323313Y196006D01*
G37*
G36*
X325539Y198232D02*X324147Y196841D01*
X326095Y194893D01*
X327486Y196285D01*
X325539Y198232D01*
G37*
G36*
X308464Y181158D02*X307072Y179766D01*
X309020Y177819D01*
X310411Y179210D01*
X308464Y181158D01*
G37*
G36*
X310690Y183384D02*X309298Y181992D01*
X311246Y180045D01*
X312637Y181436D01*
X310690Y183384D01*
G37*
G36*
X293615Y166309D02*X292223Y164917D01*
X294170Y162969D01*
X295562Y164361D01*
X293615Y166309D01*
G37*
G36*
X295841Y168534D02*X294449Y167143D01*
X296396Y165195D01*
X297788Y166587D01*
X295841Y168534D01*
G37*
G36*
X278765Y151459D02*X277374Y150067D01*
X279321Y148120D01*
X280713Y149511D01*
X278765Y151459D01*
G37*
G36*
X280991Y153685D02*X279600Y152293D01*
X281547Y150346D01*
X282939Y151737D01*
X280991Y153685D01*
G37*
G36*
X312104Y191869D02*X310712Y190477D01*
X312660Y188530D01*
X314051Y189921D01*
X312104Y191869D01*
G37*
G36*
X309878Y189643D02*X308486Y188251D01*
X310434Y186304D01*
X311825Y187695D01*
X309878Y189643D01*
G37*
G36*
X297255Y177020D02*X295863Y175628D01*
X297811Y173680D01*
X299203Y175072D01*
X297255Y177020D01*
G37*
G36*
X295029Y174794D02*X293637Y173402D01*
X295585Y171454D01*
X296977Y172846D01*
X295029Y174794D01*
G37*
G36*
X282405Y162170D02*X281013Y160779D01*
X282961Y158831D01*
X284353Y160223D01*
X282405Y162170D01*
G37*
G36*
X280179Y159944D02*X278787Y158553D01*
X280735Y156605D01*
X282127Y157997D01*
X280179Y159944D01*
G37*
G36*
X267556Y147321D02*X266165Y145930D01*
X268112Y143982D01*
X269504Y145374D01*
X267556Y147321D01*
G37*
G36*
X265330Y145095D02*X263939Y143704D01*
X265886Y141756D01*
X267278Y143148D01*
X265330Y145095D01*
G37*
G36*
X316242Y188936D02*X314851Y187544D01*
X316798Y185597D01*
X318190Y186988D01*
X316242Y188936D01*
G37*
G36*
X318468Y191162D02*X317077Y189770D01*
X319024Y187823D01*
X320416Y189214D01*
X318468Y191162D01*
G37*
G36*
X301393Y174086D02*X300001Y172695D01*
X301949Y170747D01*
X303340Y172139D01*
X301393Y174086D01*
G37*
G36*
X303619Y176312D02*X302227Y174921D01*
X304175Y172973D01*
X305566Y174365D01*
X303619Y176312D01*
G37*
G36*
X286544Y159237D02*X285152Y157846D01*
X287100Y155898D01*
X288491Y157290D01*
X286544Y159237D01*
G37*
G36*
X288770Y161463D02*X287378Y160072D01*
X289326Y158124D01*
X290717Y159516D01*
X288770Y161463D01*
G37*
G36*
X271694Y144388D02*X270303Y142996D01*
X272250Y141049D01*
X273642Y142441D01*
X271694Y144388D01*
G37*
G36*
X273920Y146614D02*X272529Y145222D01*
X274476Y143275D01*
X275868Y144667D01*
X273920Y146614D01*
G37*
G36*
X289656Y208214D02*X288265Y206822D01*
X290212Y204875D01*
X291604Y206267D01*
X289656Y208214D01*
G37*
G36*
X291882Y210440D02*X290491Y209048D01*
X292438Y207101D01*
X293830Y208493D01*
X291882Y210440D01*
G37*
G36*
X308882Y223940D02*X307491Y222548D01*
X309438Y220601D01*
X310830Y221993D01*
X308882Y223940D01*
G37*
G36*
X306656Y221714D02*X305265Y220322D01*
X307212Y218375D01*
X308604Y219767D01*
X306656Y221714D01*
G37*
G36*
X280882Y194940D02*X279491Y193548D01*
X281438Y191601D01*
X282830Y192993D01*
X280882Y194940D01*
G37*
G36*
X278656Y192714D02*X277265Y191322D01*
X279212Y189375D01*
X280604Y190767D01*
X278656Y192714D01*
G37*
G36*
X328170Y229215D02*Y227247D01*
X330924D01*
Y229215D01*
X328170D01*
G37*
G36*
Y226067D02*Y224099D01*
X330924D01*
Y226067D01*
X328170D01*
G37*
G36*
X333170Y230067D02*Y228099D01*
X335924D01*
Y230067D01*
X333170D01*
G37*
G36*
Y233215D02*Y231247D01*
X335924D01*
Y233215D01*
X333170D01*
G37*
G36*
X328670Y239715D02*Y237747D01*
X331424D01*
Y239715D01*
X328670D01*
G37*
G36*
Y236567D02*Y234599D01*
X331424D01*
Y236567D01*
X328670D01*
G37*
G36*
X333170Y240067D02*Y238099D01*
X335924D01*
Y240067D01*
X333170D01*
G37*
G36*
Y243215D02*Y241247D01*
X335924D01*
Y243215D01*
X333170D01*
G37*
G36*
Y251067D02*Y249099D01*
X335924D01*
Y251067D01*
X333170D01*
G37*
G36*
Y254215D02*Y252247D01*
X335924D01*
Y254215D01*
X333170D01*
G37*
G36*
X328170Y250215D02*Y248247D01*
X330924D01*
Y250215D01*
X328170D01*
G37*
G36*
Y247067D02*Y245099D01*
X330924D01*
Y247067D01*
X328170D01*
G37*
G36*
X328670Y260715D02*Y258747D01*
X331424D01*
Y260715D01*
X328670D01*
G37*
G36*
Y257567D02*Y255599D01*
X331424D01*
Y257567D01*
X328670D01*
G37*
G36*
X333170Y261067D02*Y259099D01*
X335924D01*
Y261067D01*
X333170D01*
G37*
G36*
Y264215D02*Y262247D01*
X335924D01*
Y264215D01*
X333170D01*
G37*
G36*
X306882Y271440D02*X305491Y270048D01*
X307438Y268101D01*
X308830Y269493D01*
X306882Y271440D01*
G37*
G36*
X304656Y269214D02*X303265Y267822D01*
X305212Y265875D01*
X306604Y267267D01*
X304656Y269214D01*
G37*
G36*
X278382Y299940D02*X276991Y298548D01*
X278938Y296601D01*
X280330Y297993D01*
X278382Y299940D01*
G37*
G36*
X276156Y297714D02*X274765Y296322D01*
X276712Y294375D01*
X278104Y295767D01*
X276156Y297714D01*
G37*
G36*
X309882Y268440D02*X308491Y267048D01*
X310438Y265101D01*
X311830Y266493D01*
X309882Y268440D01*
G37*
G36*
X307656Y266214D02*X306265Y264822D01*
X308212Y262875D01*
X309604Y264267D01*
X307656Y266214D01*
G37*
G36*
X281382Y296940D02*X279991Y295548D01*
X281938Y293601D01*
X283330Y294993D01*
X281382Y296940D01*
G37*
G36*
X279156Y294714D02*X277765Y293322D01*
X279712Y291375D01*
X281104Y292767D01*
X279156Y294714D01*
G37*
G36*
X163170Y314215D02*Y312247D01*
X165924D01*
Y314215D01*
X163170D01*
G37*
G36*
Y311067D02*Y309099D01*
X165924D01*
Y311067D01*
X163170D01*
G37*
G36*
X197265Y266493D02*X198656Y265101D01*
X200604Y267048D01*
X199212Y268440D01*
X197265Y266493D01*
G37*
G36*
X199491Y264267D02*X200882Y262875D01*
X202830Y264822D01*
X201438Y266214D01*
X199491Y264267D01*
G37*
G36*
X230765Y296493D02*X232156Y295101D01*
X234104Y297048D01*
X232712Y298440D01*
X230765Y296493D01*
G37*
G36*
X232991Y294267D02*X234382Y292875D01*
X236330Y294822D01*
X234938Y296214D01*
X232991Y294267D01*
G37*
G36*
X201656Y222214D02*X200265Y220822D01*
X202212Y218875D01*
X203604Y220267D01*
X201656Y222214D01*
G37*
G36*
X203882Y224440D02*X202491Y223048D01*
X204438Y221101D01*
X205830Y222493D01*
X203882Y224440D01*
G37*
G36*
X204656Y219214D02*X203265Y217822D01*
X205212Y215875D01*
X206604Y217267D01*
X204656Y219214D01*
G37*
G36*
X206882Y221440D02*X205491Y220048D01*
X207438Y218101D01*
X208830Y219493D01*
X206882Y221440D01*
G37*
G36*
X106670Y239567D02*Y237599D01*
X109424D01*
Y239567D01*
X106670D01*
G37*
G36*
Y242715D02*Y240747D01*
X109424D01*
Y242715D01*
X106670D01*
G37*
G36*
X127670Y204567D02*Y202599D01*
X130424D01*
Y204567D01*
X127670D01*
G37*
G36*
Y207715D02*Y205747D01*
X130424D01*
Y207715D01*
X127670D01*
G37*
G36*
X190605Y256034D02*X188637D01*
Y253280D01*
X190605D01*
Y256034D01*
G37*
G36*
X187457D02*X185489D01*
Y253280D01*
X187457D01*
Y256034D01*
G37*
G36*
X190605Y292534D02*X188637D01*
Y289780D01*
X190605D01*
Y292534D01*
G37*
G36*
X187457D02*X185489D01*
Y289780D01*
X187457D01*
Y292534D01*
G37*
G36*
X139670Y204567D02*Y202599D01*
X142424D01*
Y204567D01*
X139670D01*
G37*
G36*
Y207715D02*Y205747D01*
X142424D01*
Y207715D01*
X139670D01*
G37*
G36*
X185105Y211534D02*X183137D01*
Y208780D01*
X185105D01*
Y211534D01*
G37*
G36*
X181957D02*X179989D01*
Y208780D01*
X181957D01*
Y211534D01*
G37*
G36*
X185105Y216534D02*X183137D01*
Y213780D01*
X185105D01*
Y216534D01*
G37*
G36*
X181957D02*X179989D01*
Y213780D01*
X181957D01*
Y216534D01*
G37*
G36*
X229656Y194214D02*X228265Y192822D01*
X230212Y190875D01*
X231604Y192267D01*
X229656Y194214D01*
G37*
G36*
X231882Y196440D02*X230491Y195048D01*
X232438Y193101D01*
X233830Y194493D01*
X231882Y196440D01*
G37*
G36*
X232656Y191214D02*X231265Y189822D01*
X233212Y187875D01*
X234604Y189267D01*
X232656Y191214D01*
G37*
G36*
X234882Y193440D02*X233491Y192048D01*
X235438Y190101D01*
X236830Y191493D01*
X234882Y193440D01*
G37*
G36*
X105957Y264534D02*X103989D01*
Y261780D01*
X105957D01*
Y264534D01*
G37*
G36*
X109105D02*X107137D01*
Y261780D01*
X109105D01*
Y264534D01*
G37*
G54D84*X106047Y231157D03*
X110047Y301157D03*
G54D83*G36*
X105957Y280034D02*X103989D01*
Y277280D01*
X105957D01*
Y280034D01*
G37*
G36*
X109105D02*X107137D01*
Y277280D01*
X109105D01*
Y280034D01*
G37*
G36*
X72079Y293074D02*Y290122D01*
X76015D01*
Y293074D01*
X72079D01*
G37*
G36*
Y298192D02*Y295240D01*
X76015D01*
Y298192D01*
X72079D01*
G37*
G36*
Y284192D02*Y281240D01*
X76015D01*
Y284192D01*
X72079D01*
G37*
G36*
Y279074D02*Y276122D01*
X76015D01*
Y279074D01*
X72079D01*
G37*
G54D85*X88047Y312748D02*Y298969D01*
Y275346D02*Y261567D01*
G54D83*G36*
X301009Y203402D02*X298921Y201315D01*
X301705Y198532D01*
X303792Y200619D01*
X301009Y203402D01*
G37*
G36*
X297390Y199783D02*X295302Y197696D01*
X298086Y194913D01*
X300173Y197000D01*
X297390Y199783D01*
G37*
G36*
X292390Y204783D02*X290302Y202696D01*
X293086Y199913D01*
X295173Y202000D01*
X292390Y204783D01*
G37*
G36*
X296009Y208402D02*X293921Y206315D01*
X296705Y203532D01*
X298792Y205619D01*
X296009Y208402D01*
G37*
G36*
X260271Y191996D02*X259492Y191217D01*
X262674Y188035D01*
X263453Y188815D01*
X260271Y191996D01*
G37*
G36*
X261662Y193388D02*X260883Y192609D01*
X264065Y189427D01*
X264844Y190206D01*
X261662Y193388D01*
G37*
G36*
X263055Y194780D02*X262275Y194001D01*
X265458Y190819D01*
X266237Y191598D01*
X263055Y194780D01*
G37*
G36*
X264447Y196172D02*X263667Y195393D01*
X266849Y192211D01*
X267628Y192990D01*
X264447Y196172D01*
G37*
G36*
X265838Y197564D02*X265059Y196785D01*
X268241Y193603D01*
X269020Y194382D01*
X265838Y197564D01*
G37*
G36*
X267230Y198956D02*X266451Y198177D01*
X269633Y194994D01*
X270412Y195774D01*
X267230Y198956D01*
G37*
G36*
X268622Y200348D02*X267843Y199569D01*
X271025Y196387D01*
X271804Y197166D01*
X268622Y200348D01*
G37*
G36*
X270014Y201739D02*X269235Y200960D01*
X272416Y197778D01*
X273196Y198557D01*
X270014Y201739D01*
G37*
G36*
X271406Y203132D02*X270627Y202353D01*
X273809Y199171D01*
X274588Y199950D01*
X271406Y203132D01*
G37*
G36*
X272798Y204523D02*X272019Y203744D01*
X275200Y200562D01*
X275980Y201341D01*
X272798Y204523D01*
G37*
G36*
X274190Y205916D02*X273411Y205136D01*
X276593Y201955D01*
X277372Y202734D01*
X274190Y205916D01*
G37*
G36*
X275582Y207307D02*X274803Y206528D01*
X277985Y203346D01*
X278764Y204126D01*
X275582Y207307D01*
G37*
G36*
X276974Y208700D02*X276195Y207920D01*
X279377Y204738D01*
X280156Y205518D01*
X276974Y208700D01*
G37*
G36*
X278366Y210091D02*X277587Y209312D01*
X280769Y206130D01*
X281548Y206910D01*
X278366Y210091D01*
G37*
G36*
X279758Y211484D02*X278979Y210704D01*
X282161Y207522D01*
X282940Y208302D01*
X279758Y211484D01*
G37*
G36*
X281150Y212875D02*X280370Y212096D01*
X283552Y208914D01*
X284331Y209693D01*
X281150Y212875D01*
G37*
G36*
X282542Y214267D02*X281762Y213488D01*
X284944Y210306D01*
X285724Y211085D01*
X282542Y214267D01*
G37*
G36*
X283933Y215659D02*X283154Y214879D01*
X286336Y211698D01*
X287115Y212477D01*
X283933Y215659D01*
G37*
G36*
X285326Y217051D02*X284546Y216272D01*
X287728Y213090D01*
X288508Y213869D01*
X285326Y217051D01*
G37*
G36*
X286717Y218443D02*X285938Y217664D01*
X289120Y214482D01*
X289899Y215261D01*
X286717Y218443D01*
G37*
G36*
X288109Y219835D02*X287330Y219056D01*
X290512Y215874D01*
X291291Y216653D01*
X288109Y219835D01*
G37*
G36*
X289501Y221227D02*X288722Y220447D01*
X291904Y217266D01*
X292683Y218045D01*
X289501Y221227D01*
G37*
G36*
X290893Y222619D02*X290114Y221840D01*
X293296Y218658D01*
X294075Y219437D01*
X290893Y222619D01*
G37*
G36*
X292285Y224011D02*X291506Y223231D01*
X294688Y220050D01*
X295467Y220829D01*
X292285Y224011D01*
G37*
G36*
X293677Y225403D02*X292898Y224624D01*
X296080Y221442D01*
X296859Y222221D01*
X293677Y225403D01*
G37*
G36*
X295069Y226795D02*X294290Y226015D01*
X297472Y222833D01*
X298251Y223613D01*
X295069Y226795D01*
G37*
G36*
X296461Y228187D02*X295682Y227408D01*
X298864Y224225D01*
X299643Y225005D01*
X296461Y228187D01*
G37*
G36*
X297853Y229578D02*X297074Y228799D01*
X300256Y225617D01*
X301035Y226396D01*
X297853Y229578D01*
G37*
G36*
X299245Y230971D02*X298466Y230191D01*
X301648Y227009D01*
X302427Y227789D01*
X299245Y230971D01*
G37*
G36*
X300637Y232362D02*X299857Y231583D01*
X303039Y228401D01*
X303819Y229180D01*
X300637Y232362D01*
G37*
G36*
X302029Y233754D02*X301250Y232975D01*
X304431Y229793D01*
X305211Y230572D01*
X302029Y233754D01*
G37*
G36*
X303420Y235146D02*X302641Y234366D01*
X305823Y231185D01*
X306602Y231964D01*
X303420Y235146D01*
G37*
G36*
X304813Y236538D02*X304034Y235759D01*
X307215Y232577D01*
X307995Y233356D01*
X304813Y236538D01*
G37*
G36*
X306204Y237930D02*X305425Y237151D01*
X308607Y233969D01*
X309386Y234748D01*
X306204Y237930D01*
G37*
G36*
X307597Y239322D02*X306818Y238543D01*
X310000Y235361D01*
X310779Y236141D01*
X307597Y239322D01*
G37*
G36*
X308988Y240714D02*X308209Y239935D01*
X311391Y236753D01*
X312170Y237532D01*
X308988Y240714D01*
G37*
G36*
X308209Y248381D02*X308988Y247602D01*
X312169Y250784D01*
X311390Y251563D01*
X308209Y248381D01*
G37*
G36*
X306817Y249772D02*X307596Y248993D01*
X310778Y252175D01*
X309999Y252954D01*
X306817Y249772D01*
G37*
G36*
X305425Y251165D02*X306204Y250386D01*
X309386Y253568D01*
X308606Y254347D01*
X305425Y251165D01*
G37*
G36*
X304033Y252557D02*X304812Y251777D01*
X307994Y254959D01*
X307215Y255738D01*
X304033Y252557D01*
G37*
G36*
X302640Y253948D02*X303420Y253169D01*
X306602Y256352D01*
X305822Y257131D01*
X302640Y253948D01*
G37*
G36*
X301249Y255341D02*X302028Y254561D01*
X305210Y257743D01*
X304431Y258522D01*
X301249Y255341D01*
G37*
G36*
X299857Y256733D02*X300636Y255953D01*
X303818Y259135D01*
X303039Y259915D01*
X299857Y256733D01*
G37*
G36*
X298465Y258124D02*X299244Y257345D01*
X302426Y260527D01*
X301647Y261306D01*
X298465Y258124D01*
G37*
G36*
X297073Y259517D02*X297852Y258737D01*
X301034Y261919D01*
X300255Y262699D01*
X297073Y259517D01*
G37*
G36*
X295681Y260908D02*X296461Y260129D01*
X299642Y263311D01*
X298863Y264090D01*
X295681Y260908D01*
G37*
G36*
X294289Y262300D02*X295068Y261521D01*
X298250Y264703D01*
X297471Y265482D01*
X294289Y262300D01*
G37*
G36*
X292898Y263692D02*X293677Y262913D01*
X296858Y266095D01*
X296079Y266874D01*
X292898Y263692D01*
G37*
G36*
X291505Y265084D02*X292284Y264305D01*
X295466Y267487D01*
X294687Y268266D01*
X291505Y265084D01*
G37*
G36*
X290114Y266476D02*X290893Y265697D01*
X294075Y268879D01*
X293295Y269658D01*
X290114Y266476D01*
G37*
G36*
X288721Y267868D02*X289500Y267089D01*
X292682Y270271D01*
X291903Y271050D01*
X288721Y267868D01*
G37*
G36*
X287330Y269260D02*X288109Y268481D01*
X291291Y271663D01*
X290511Y272442D01*
X287330Y269260D01*
G37*
G36*
X285937Y270652D02*X286717Y269873D01*
X289898Y273055D01*
X289119Y273834D01*
X285937Y270652D01*
G37*
G36*
X284546Y272044D02*X285325Y271264D01*
X288507Y274447D01*
X287727Y275226D01*
X284546Y272044D01*
G37*
G36*
X283153Y273436D02*X283933Y272657D01*
X287115Y275839D01*
X286335Y276618D01*
X283153Y273436D01*
G37*
G36*
X281762Y274828D02*X282541Y274048D01*
X285723Y277230D01*
X284944Y278010D01*
X281762Y274828D01*
G37*
G36*
X280370Y276220D02*X281149Y275440D01*
X284331Y278622D01*
X283552Y279402D01*
X280370Y276220D01*
G37*
G36*
X278978Y277611D02*X279757Y276832D01*
X282939Y280014D01*
X282160Y280793D01*
X278978Y277611D01*
G37*
G36*
X277586Y279004D02*X278365Y278224D01*
X281547Y281406D01*
X280768Y282186D01*
X277586Y279004D01*
G37*
G36*
X276194Y280395D02*X276973Y279616D01*
X280155Y282798D01*
X279376Y283577D01*
X276194Y280395D01*
G37*
G36*
X274802Y281787D02*X275581Y281008D01*
X278763Y284190D01*
X277984Y284969D01*
X274802Y281787D01*
G37*
G36*
X273410Y283179D02*X274189Y282400D01*
X277371Y285582D01*
X276592Y286361D01*
X273410Y283179D01*
G37*
G36*
X272018Y284572D02*X272797Y283792D01*
X275979Y286974D01*
X275200Y287753D01*
X272018Y284572D01*
G37*
G36*
X270626Y285963D02*X271406Y285184D01*
X274587Y288366D01*
X273808Y289145D01*
X270626Y285963D01*
G37*
G36*
X269234Y287356D02*X270013Y286576D01*
X273195Y289758D01*
X272416Y290537D01*
X269234Y287356D01*
G37*
G36*
X267842Y288747D02*X268622Y287968D01*
X271804Y291150D01*
X271024Y291929D01*
X267842Y288747D01*
G37*
G36*
X266450Y290139D02*X267229Y289360D01*
X270412Y292542D01*
X269632Y293321D01*
X266450Y290139D01*
G37*
G36*
X265059Y291531D02*X265838Y290751D01*
X269020Y293934D01*
X268240Y294713D01*
X265059Y291531D01*
G37*
G36*
X263666Y292923D02*X264446Y292144D01*
X267627Y295326D01*
X266848Y296105D01*
X263666Y292923D01*
G37*
G36*
X262275Y294314D02*X263054Y293535D01*
X266235Y296717D01*
X265456Y297497D01*
X262275Y294314D01*
G37*
G36*
X260883Y295707D02*X261662Y294928D01*
X264843Y298110D01*
X264064Y298889D01*
X260883Y295707D01*
G37*
G36*
X259491Y297098D02*X260270Y296319D01*
X263452Y299501D01*
X262673Y300280D01*
X259491Y297098D01*
G37*
G36*
X249421Y300280D02*X248642Y299500D01*
X251824Y296319D01*
X252603Y297098D01*
X249421Y300280D01*
G37*
G36*
X248030Y298888D02*X247250Y298109D01*
X250432Y294927D01*
X251212Y295706D01*
X248030Y298888D01*
G37*
G36*
X246637Y297496D02*X245858Y296717D01*
X249040Y293535D01*
X249819Y294314D01*
X246637Y297496D01*
G37*
G36*
X245246Y296104D02*X244466Y295325D01*
X247648Y292143D01*
X248428Y292922D01*
X245246Y296104D01*
G37*
G36*
X243853Y294712D02*X243074Y293933D01*
X246256Y290751D01*
X247035Y291530D01*
X243853Y294712D01*
G37*
G36*
X242462Y293321D02*X241683Y292541D01*
X244864Y289359D01*
X245643Y290138D01*
X242462Y293321D01*
G37*
G36*
X241069Y291928D02*X240290Y291149D01*
X243472Y287967D01*
X244251Y288746D01*
X241069Y291928D01*
G37*
G36*
X239678Y290537D02*X238899Y289758D01*
X242080Y286575D01*
X242860Y287355D01*
X239678Y290537D01*
G37*
G36*
X238285Y289144D02*X237506Y288365D01*
X240688Y285183D01*
X241467Y285962D01*
X238285Y289144D01*
G37*
G36*
X236894Y287753D02*X236115Y286974D01*
X239296Y283792D01*
X240076Y284571D01*
X236894Y287753D01*
G37*
G36*
X235502Y286360D02*X234722Y285581D01*
X237904Y282399D01*
X238684Y283179D01*
X235502Y286360D01*
G37*
G36*
X234110Y284969D02*X233331Y284189D01*
X236513Y281008D01*
X237292Y281787D01*
X234110Y284969D01*
G37*
G36*
X232718Y283576D02*X231938Y282797D01*
X235120Y279615D01*
X235900Y280394D01*
X232718Y283576D01*
G37*
G36*
X231326Y282185D02*X230547Y281405D01*
X233729Y278224D01*
X234508Y279003D01*
X231326Y282185D01*
G37*
G36*
X229934Y280793D02*X229155Y280013D01*
X232337Y276831D01*
X233116Y277611D01*
X229934Y280793D01*
G37*
G36*
X228542Y279401D02*X227763Y278622D01*
X230945Y275440D01*
X231724Y276219D01*
X228542Y279401D01*
G37*
G36*
X227150Y278009D02*X226371Y277229D01*
X229553Y274048D01*
X230332Y274827D01*
X227150Y278009D01*
G37*
G36*
X225758Y276617D02*X224979Y275838D01*
X228161Y272656D01*
X228940Y273436D01*
X225758Y276617D01*
G37*
G36*
X224366Y275225D02*X223587Y274446D01*
X226769Y271264D01*
X227548Y272043D01*
X224366Y275225D01*
G37*
G36*
X222974Y273833D02*X222195Y273054D01*
X225377Y269872D01*
X226156Y270651D01*
X222974Y273833D01*
G37*
G36*
X221582Y272441D02*X220803Y271662D01*
X223985Y268480D01*
X224764Y269259D01*
X221582Y272441D01*
G37*
G36*
X220191Y271049D02*X219411Y270270D01*
X222593Y267088D01*
X223373Y267868D01*
X220191Y271049D01*
G37*
G36*
X218798Y269657D02*X218019Y268878D01*
X221201Y265696D01*
X221980Y266475D01*
X218798Y269657D01*
G37*
G36*
X217407Y268265D02*X216627Y267486D01*
X219809Y264304D01*
X220589Y265083D01*
X217407Y268265D01*
G37*
G36*
X216015Y266873D02*X215235Y266094D01*
X218417Y262912D01*
X219197Y263691D01*
X216015Y266873D01*
G37*
G36*
X214623Y265482D02*X213844Y264702D01*
X217026Y261520D01*
X217805Y262300D01*
X214623Y265482D01*
G37*
G36*
X213231Y264089D02*X212451Y263310D01*
X215633Y260128D01*
X216412Y260907D01*
X213231Y264089D01*
G37*
G36*
X211839Y262698D02*X211060Y261919D01*
X214242Y258737D01*
X215021Y259516D01*
X211839Y262698D01*
G37*
G36*
X210447Y261306D02*X209668Y260526D01*
X212849Y257344D01*
X213628Y258124D01*
X210447Y261306D01*
G37*
G36*
X209055Y259914D02*X208276Y259135D01*
X211458Y255953D01*
X212237Y256732D01*
X209055Y259914D01*
G37*
G36*
X207663Y258522D02*X206884Y257743D01*
X210065Y254561D01*
X210845Y255340D01*
X207663Y258522D01*
G37*
G36*
X206271Y257130D02*X205492Y256351D01*
X208674Y253169D01*
X209453Y253949D01*
X206271Y257130D01*
G37*
G36*
X204879Y255738D02*X204100Y254959D01*
X207281Y251777D01*
X208061Y252556D01*
X204879Y255738D01*
G37*
G36*
X203487Y254346D02*X202708Y253566D01*
X205890Y250385D01*
X206669Y251164D01*
X203487Y254346D01*
G37*
G36*
X202095Y252954D02*X201316Y252174D01*
X204498Y248993D01*
X205277Y249772D01*
X202095Y252954D01*
G37*
G36*
X200704Y251562D02*X199924Y250783D01*
X203106Y247601D01*
X203886Y248380D01*
X200704Y251562D01*
G37*
G36*
X199925Y237531D02*X200704Y236752D01*
X203886Y239934D01*
X203107Y240713D01*
X199925Y237531D01*
G37*
G36*
X201316Y236140D02*X202096Y235361D01*
X205278Y238543D01*
X204498Y239322D01*
X201316Y236140D01*
G37*
G36*
X202709Y234747D02*X203488Y233968D01*
X206670Y237150D01*
X205891Y237929D01*
X202709Y234747D01*
G37*
G36*
X204100Y233356D02*X204880Y232577D01*
X208061Y235759D01*
X207282Y236538D01*
X204100Y233356D01*
G37*
G36*
X205493Y231963D02*X206272Y231184D01*
X209454Y234367D01*
X208675Y235146D01*
X205493Y231963D01*
G37*
G36*
X206884Y230572D02*X207663Y229793D01*
X210845Y232974D01*
X210066Y233754D01*
X206884Y230572D01*
G37*
G36*
X208277Y229180D02*X209056Y228400D01*
X212238Y231582D01*
X211459Y232362D01*
X208277Y229180D01*
G37*
G36*
X209668Y227788D02*X210447Y227009D01*
X213629Y230190D01*
X212850Y230970D01*
X209668Y227788D01*
G37*
G36*
X211061Y226396D02*X211840Y225616D01*
X215022Y228798D01*
X214243Y229578D01*
X211061Y226396D01*
G37*
G36*
X212452Y225004D02*X213231Y224225D01*
X216413Y227407D01*
X215634Y228186D01*
X212452Y225004D01*
G37*
G36*
X213844Y223612D02*X214624Y222833D01*
X217805Y226015D01*
X217026Y226794D01*
X213844Y223612D01*
G37*
G36*
X215236Y222220D02*X216015Y221441D01*
X219197Y224623D01*
X218418Y225402D01*
X215236Y222220D01*
G37*
G36*
X216628Y220828D02*X217407Y220049D01*
X220589Y223231D01*
X219810Y224010D01*
X216628Y220828D01*
G37*
G36*
X218020Y219436D02*X218799Y218657D01*
X221981Y221839D01*
X221202Y222618D01*
X218020Y219436D01*
G37*
G36*
X219412Y218044D02*X220191Y217265D01*
X223373Y220447D01*
X222594Y221226D01*
X219412Y218044D01*
G37*
G36*
X220804Y216652D02*X221583Y215873D01*
X224765Y219055D01*
X223985Y219834D01*
X220804Y216652D01*
G37*
G36*
X222196Y215260D02*X222975Y214481D01*
X226157Y217663D01*
X225378Y218442D01*
X222196Y215260D01*
G37*
G36*
X223588Y213868D02*X224367Y213089D01*
X227549Y216271D01*
X226769Y217050D01*
X223588Y213868D01*
G37*
G36*
X224980Y212476D02*X225759Y211697D01*
X228941Y214879D01*
X228162Y215658D01*
X224980Y212476D01*
G37*
G36*
X226372Y211085D02*X227151Y210305D01*
X230333Y213487D01*
X229554Y214267D01*
X226372Y211085D01*
G37*
G36*
X227764Y209692D02*X228543Y208913D01*
X231725Y212095D01*
X230946Y212875D01*
X227764Y209692D01*
G37*
G36*
X229155Y208301D02*X229935Y207522D01*
X233116Y210704D01*
X232337Y211483D01*
X229155Y208301D01*
G37*
G36*
X230548Y206909D02*X231327Y206129D01*
X234509Y209311D01*
X233730Y210091D01*
X230548Y206909D01*
G37*
G36*
X231939Y205517D02*X232719Y204738D01*
X235900Y207920D01*
X235121Y208699D01*
X231939Y205517D01*
G37*
G36*
X233331Y204125D02*X234111Y203346D01*
X237293Y206528D01*
X236513Y207307D01*
X233331Y204125D01*
G37*
G36*
X234723Y202733D02*X235502Y201954D01*
X238684Y205136D01*
X237905Y205915D01*
X234723Y202733D01*
G37*
G36*
X236115Y201341D02*X236894Y200562D01*
X240076Y203743D01*
X239297Y204523D01*
X236115Y201341D01*
G37*
G36*
X237507Y199949D02*X238286Y199170D01*
X241468Y202352D01*
X240689Y203131D01*
X237507Y199949D01*
G37*
G36*
X238899Y198557D02*X239678Y197778D01*
X242860Y200959D01*
X242081Y201739D01*
X238899Y198557D01*
G37*
G36*
X240291Y197165D02*X241070Y196386D01*
X244252Y199568D01*
X243473Y200347D01*
X240291Y197165D01*
G37*
G36*
X241683Y195773D02*X242462Y194994D01*
X245644Y198176D01*
X244865Y198955D01*
X241683Y195773D01*
G37*
G36*
X243075Y194381D02*X243854Y193602D01*
X247035Y196784D01*
X246256Y197563D01*
X243075Y194381D01*
G37*
G36*
X244467Y192989D02*X245246Y192210D01*
X248428Y195392D01*
X247649Y196171D01*
X244467Y192989D01*
G37*
G36*
X245859Y191598D02*X246638Y190818D01*
X249820Y194000D01*
X249041Y194780D01*
X245859Y191598D01*
G37*
G36*
X247251Y190205D02*X248030Y189426D01*
X251212Y192608D01*
X250433Y193387D01*
X247251Y190205D01*
G37*
G36*
X248642Y188814D02*X249422Y188035D01*
X252604Y191217D01*
X251824Y191996D01*
X248642Y188814D01*
G37*
G36*
X103464Y319125D02*X100512D01*
Y315189D01*
X103464D01*
Y319125D01*
G37*
G36*
X108582D02*X105630D01*
Y315189D01*
X108582D01*
Y319125D01*
G37*
G36*
X114464D02*X111512D01*
Y315189D01*
X114464D01*
Y319125D01*
G37*
G36*
X119582D02*X116630D01*
Y315189D01*
X119582D01*
Y319125D01*
G37*
G36*
X70882Y241339D02*Y238976D01*
X75213D01*
Y241339D01*
X70882D01*
G37*
G36*
Y237598D02*Y235236D01*
X75213D01*
Y237598D01*
X70882D01*
G37*
G36*
Y233858D02*Y231496D01*
X75213D01*
Y233858D01*
X70882D01*
G37*
G36*
X81906Y241339D02*Y238976D01*
X86236D01*
Y241339D01*
X81906D01*
G37*
G36*
Y237598D02*Y235236D01*
X86236D01*
Y237598D01*
X81906D01*
G37*
G36*
Y233858D02*Y231496D01*
X86236D01*
Y233858D01*
X81906D01*
G37*
G36*
X108156Y255214D02*X106765Y253822D01*
X108712Y251875D01*
X110104Y253267D01*
X108156Y255214D01*
G37*
G36*
X110382Y257440D02*X108991Y256048D01*
X110938Y254101D01*
X112330Y255493D01*
X110382Y257440D01*
G37*
G36*
X105156Y258214D02*X103765Y256822D01*
X105712Y254875D01*
X107104Y256267D01*
X105156Y258214D01*
G37*
G36*
X107382Y260440D02*X105991Y259048D01*
X107938Y257101D01*
X109330Y258493D01*
X107382Y260440D01*
G37*
G36*
X75964Y251125D02*X73012D01*
Y247189D01*
X75964D01*
Y251125D01*
G37*
G36*
X81082D02*X78130D01*
Y247189D01*
X81082D01*
Y251125D01*
G37*
G36*
X70149Y259109D02*X65031D01*
Y253205D01*
X70149D01*
Y259109D01*
G37*
G36*
X63063D02*X57945D01*
Y253205D01*
X63063D01*
Y259109D01*
G37*
G54D84*X55047Y268157D03*
G54D83*G36*
X64157Y410937D02*Y403850D01*
X77937D01*
Y410937D01*
X64157D01*
G37*
G36*
Y390465D02*Y383378D01*
X77937D01*
Y390465D01*
X64157D01*
G37*
G36*
X47575Y379701D02*Y372614D01*
X57417D01*
Y379701D01*
X47575D01*
G37*
G36*
X28677D02*Y372614D01*
X38520D01*
Y379701D01*
X28677D01*
G37*
G36*
X33964Y364125D02*X31012D01*
Y360189D01*
X33964D01*
Y364125D01*
G37*
G36*
X39082D02*X36130D01*
Y360189D01*
X39082D01*
Y364125D01*
G37*
G36*
X29047Y337857D02*Y334457D01*
X33047D01*
Y337857D01*
X29047D01*
G37*
G36*
Y330057D02*Y326657D01*
X33047D01*
Y330057D01*
X29047D01*
G37*
G36*
X37247Y333957D02*Y330557D01*
X41247D01*
Y333957D01*
X37247D01*
G37*
G36*
X33964Y358125D02*X31012D01*
Y354189D01*
X33964D01*
Y358125D01*
G37*
G36*
X39082D02*X36130D01*
Y354189D01*
X39082D01*
Y358125D01*
G37*
G36*
Y345125D02*X36130D01*
Y341189D01*
X39082D01*
Y345125D01*
G37*
G36*
X33964D02*X31012D01*
Y341189D01*
X33964D01*
Y345125D01*
G37*
G36*
X39082Y352125D02*X36130D01*
Y348189D01*
X39082D01*
Y352125D01*
G37*
G36*
X33964D02*X31012D01*
Y348189D01*
X33964D01*
Y352125D01*
G37*
G36*
X70063Y359109D02*X64945D01*
Y353205D01*
X70063D01*
Y359109D01*
G37*
G36*
X77149D02*X72031D01*
Y353205D01*
X77149D01*
Y359109D01*
G37*
G36*
X70106Y350109D02*X64988D01*
Y344205D01*
X70106D01*
Y350109D01*
G37*
G36*
X77192D02*X72074D01*
Y344205D01*
X77192D01*
Y350109D01*
G37*
G36*
X70063Y368109D02*X64945D01*
Y362205D01*
X70063D01*
Y368109D01*
G37*
G36*
X77149D02*X72031D01*
Y362205D01*
X77149D01*
Y368109D01*
G37*
G54D84*X73047Y336157D03*
G54D83*G36*
X46047Y365857D02*Y362457D01*
X50047D01*
Y365857D01*
X46047D01*
G37*
G36*
Y358057D02*Y354657D01*
X50047D01*
Y358057D01*
X46047D01*
G37*
G36*
X54247Y361957D02*Y358557D01*
X58247D01*
Y361957D01*
X54247D01*
G37*
G36*
X50964Y352125D02*X48012D01*
Y348189D01*
X50964D01*
Y352125D01*
G37*
G36*
X56082D02*X53130D01*
Y348189D01*
X56082D01*
Y352125D01*
G37*
G36*
X50964Y346125D02*X48012D01*
Y342189D01*
X50964D01*
Y346125D01*
G37*
G36*
X56082D02*X53130D01*
Y342189D01*
X56082D01*
Y346125D01*
G37*
G36*
X20481Y119732D02*Y114583D01*
X32717D01*
Y119732D01*
X20481D01*
G37*
G36*
X39378D02*Y114583D01*
X51614D01*
Y119732D01*
X39378D01*
G37*
G36*
X164575Y15701D02*Y8614D01*
X174417D01*
Y15701D01*
X164575D01*
G37*
G36*
X145677D02*Y8614D01*
X155520D01*
Y15701D01*
X145677D01*
G37*
G36*
X206212Y22299D02*X199882D01*
Y6914D01*
X206212D01*
Y22299D01*
G37*
G36*
Y53400D02*X199882D01*
Y38015D01*
X206212D01*
Y53400D01*
G37*
G36*
X106964Y198125D02*X104012D01*
Y194189D01*
X106964D01*
Y198125D01*
G37*
G36*
X112082D02*X109130D01*
Y194189D01*
X112082D01*
Y198125D01*
G37*
G36*
X106964Y192125D02*X104012D01*
Y188189D01*
X106964D01*
Y192125D01*
G37*
G36*
X112082D02*X109130D01*
Y188189D01*
X112082D01*
Y192125D01*
G37*
G36*
X70547Y208657D02*Y206657D01*
X79047D01*
Y208657D01*
X70547D01*
G37*
G36*
Y203657D02*Y201657D01*
X79047D01*
Y203657D01*
X70547D01*
G37*
G36*
Y198657D02*Y196657D01*
X79047D01*
Y198657D01*
X70547D01*
G37*
G36*
Y193657D02*Y191657D01*
X79047D01*
Y193657D01*
X70547D01*
G37*
G36*
X91047D02*Y191657D01*
X99547D01*
Y193657D01*
X91047D01*
G37*
G36*
Y198657D02*Y196657D01*
X99547D01*
Y198657D01*
X91047D01*
G37*
G36*
Y203657D02*Y201657D01*
X99547D01*
Y203657D01*
X91047D01*
G37*
G36*
Y208657D02*Y206657D01*
X99547D01*
Y208657D01*
X91047D01*
G37*
G36*
X99141Y216125D02*X96189D01*
Y212189D01*
X99141D01*
Y216125D01*
G37*
G36*
X94023D02*X91071D01*
Y212189D01*
X94023D01*
Y216125D01*
G37*
G36*
X106964Y204125D02*X104012D01*
Y200189D01*
X106964D01*
Y204125D01*
G37*
G36*
X112082D02*X109130D01*
Y200189D01*
X112082D01*
Y204125D01*
G37*
G36*
Y216125D02*X109130D01*
Y212189D01*
X112082D01*
Y216125D01*
G37*
G36*
X106964D02*X104012D01*
Y212189D01*
X106964D01*
Y216125D01*
G37*
G36*
X112082Y210125D02*X109130D01*
Y206189D01*
X112082D01*
Y210125D01*
G37*
G36*
X106964D02*X104012D01*
Y206189D01*
X106964D01*
Y210125D01*
G37*
G36*
X339079Y25192D02*Y22240D01*
X343015D01*
Y25192D01*
X339079D01*
G37*
G36*
Y20074D02*Y17122D01*
X343015D01*
Y20074D01*
X339079D01*
G37*
G36*
X429079Y51074D02*Y48122D01*
X433015D01*
Y51074D01*
X429079D01*
G37*
G36*
Y56192D02*Y53240D01*
X433015D01*
Y56192D01*
X429079D01*
G37*
G54D84*X440047Y54157D03*
G54D83*G36*
X72082Y175125D02*X69130D01*
Y171189D01*
X72082D01*
Y175125D01*
G37*
G36*
X66964D02*X64012D01*
Y171189D01*
X66964D01*
Y175125D01*
G37*
G36*
X53063Y176109D02*X47945D01*
Y170205D01*
X53063D01*
Y176109D01*
G37*
G36*
X60149D02*X55031D01*
Y170205D01*
X60149D01*
Y176109D01*
G37*
G36*
X72082Y185125D02*X69130D01*
Y181189D01*
X72082D01*
Y185125D01*
G37*
G36*
X66964D02*X64012D01*
Y181189D01*
X66964D01*
Y185125D01*
G37*
G36*
X53063Y186109D02*X47945D01*
Y180205D01*
X53063D01*
Y186109D01*
G37*
G36*
X60149D02*X55031D01*
Y180205D01*
X60149D01*
Y186109D01*
G37*
G36*
X199307Y362386D02*X197339D01*
Y358843D01*
X199307D01*
Y362386D01*
G37*
G36*
X202457D02*X200489D01*
Y358843D01*
X202457D01*
Y362386D01*
G37*
G36*
X205605D02*X203637D01*
Y358843D01*
X205605D01*
Y362386D01*
G37*
G36*
X208755D02*X206787D01*
Y358843D01*
X208755D01*
Y362386D01*
G37*
G36*
Y369471D02*X206787D01*
Y365928D01*
X208755D01*
Y369471D01*
G37*
G36*
X205605D02*X203637D01*
Y365928D01*
X205605D01*
Y369471D01*
G37*
G36*
X202457D02*X200489D01*
Y365928D01*
X202457D01*
Y369471D01*
G37*
G36*
X199307D02*X197339D01*
Y365928D01*
X199307D01*
Y369471D01*
G37*
G36*
X172082Y160125D02*X169130D01*
Y156189D01*
X172082D01*
Y160125D01*
G37*
G36*
X166964D02*X164012D01*
Y156189D01*
X166964D01*
Y160125D01*
G37*
G36*
X208670Y155067D02*Y153099D01*
X211424D01*
Y155067D01*
X208670D01*
G37*
G36*
Y158215D02*Y156247D01*
X211424D01*
Y158215D01*
X208670D01*
G37*
G36*
X203670Y155067D02*Y153099D01*
X206424D01*
Y155067D01*
X203670D01*
G37*
G36*
Y158215D02*Y156247D01*
X206424D01*
Y158215D01*
X203670D01*
G37*
G36*
X113976Y295125D02*Y294023D01*
X119094D01*
Y295125D01*
X113976D01*
G37*
G36*
Y293157D02*Y292055D01*
X119094D01*
Y293157D01*
X113976D01*
G37*
G36*
Y291188D02*Y290086D01*
X119094D01*
Y291188D01*
X113976D01*
G37*
G36*
Y289220D02*Y288118D01*
X119094D01*
Y289220D01*
X113976D01*
G37*
G36*
Y287251D02*Y286149D01*
X119094D01*
Y287251D01*
X113976D01*
G37*
G36*
Y285283D02*Y284181D01*
X119094D01*
Y285283D01*
X113976D01*
G37*
G36*
Y283314D02*Y282212D01*
X119094D01*
Y283314D01*
X113976D01*
G37*
G36*
Y281346D02*Y280244D01*
X119094D01*
Y281346D01*
X113976D01*
G37*
G36*
Y279377D02*Y278275D01*
X119094D01*
Y279377D01*
X113976D01*
G37*
G36*
Y277409D02*Y276307D01*
X119094D01*
Y277409D01*
X113976D01*
G37*
G36*
Y275440D02*Y274338D01*
X119094D01*
Y275440D01*
X113976D01*
G37*
G36*
Y273472D02*Y272370D01*
X119094D01*
Y273472D01*
X113976D01*
G37*
G36*
Y271503D02*Y270401D01*
X119094D01*
Y271503D01*
X113976D01*
G37*
G36*
Y269535D02*Y268433D01*
X119094D01*
Y269535D01*
X113976D01*
G37*
G36*
Y267566D02*Y266464D01*
X119094D01*
Y267566D01*
X113976D01*
G37*
G36*
Y265598D02*Y264496D01*
X119094D01*
Y265598D01*
X113976D01*
G37*
G36*
Y263629D02*Y262527D01*
X119094D01*
Y263629D01*
X113976D01*
G37*
G36*
Y261661D02*Y260559D01*
X119094D01*
Y261661D01*
X113976D01*
G37*
G36*
Y259692D02*Y258590D01*
X119094D01*
Y259692D01*
X113976D01*
G37*
G36*
Y257724D02*Y256622D01*
X119094D01*
Y257724D01*
X113976D01*
G37*
G36*
Y255755D02*Y254653D01*
X119094D01*
Y255755D01*
X113976D01*
G37*
G36*
Y253787D02*Y252685D01*
X119094D01*
Y253787D01*
X113976D01*
G37*
G36*
Y251818D02*Y250716D01*
X119094D01*
Y251818D01*
X113976D01*
G37*
G36*
Y249850D02*Y248748D01*
X119094D01*
Y249850D01*
X113976D01*
G37*
G36*
Y247881D02*Y246779D01*
X119094D01*
Y247881D01*
X113976D01*
G37*
G36*
Y245913D02*Y244811D01*
X119094D01*
Y245913D01*
X113976D01*
G37*
G36*
Y243944D02*Y242842D01*
X119094D01*
Y243944D01*
X113976D01*
G37*
G36*
Y241976D02*Y240874D01*
X119094D01*
Y241976D01*
X113976D01*
G37*
G36*
Y240007D02*Y238905D01*
X119094D01*
Y240007D01*
X113976D01*
G37*
G36*
Y238039D02*Y236937D01*
X119094D01*
Y238039D01*
X113976D01*
G37*
G36*
Y236070D02*Y234968D01*
X119094D01*
Y236070D01*
X113976D01*
G37*
G36*
Y234102D02*Y233000D01*
X119094D01*
Y234102D01*
X113976D01*
G37*
G36*
Y232133D02*Y231031D01*
X119094D01*
Y232133D01*
X113976D01*
G37*
G36*
Y230165D02*Y229063D01*
X119094D01*
Y230165D01*
X113976D01*
G37*
G36*
Y228196D02*Y227094D01*
X119094D01*
Y228196D01*
X113976D01*
G37*
G36*
Y226228D02*Y225126D01*
X119094D01*
Y226228D01*
X113976D01*
G37*
G36*
Y224259D02*Y223157D01*
X119094D01*
Y224259D01*
X113976D01*
G37*
G36*
Y222291D02*Y221189D01*
X119094D01*
Y222291D01*
X113976D01*
G37*
G36*
X122992Y218394D02*X121890D01*
Y213275D01*
X122992D01*
Y218394D01*
G37*
G36*
X124960D02*X123858D01*
Y213275D01*
X124960D01*
Y218394D01*
G37*
G36*
X126929D02*X125827D01*
Y213275D01*
X126929D01*
Y218394D01*
G37*
G36*
X128897D02*X127795D01*
Y213275D01*
X128897D01*
Y218394D01*
G37*
G36*
X130866D02*X129764D01*
Y213275D01*
X130866D01*
Y218394D01*
G37*
G36*
X132834D02*X131732D01*
Y213275D01*
X132834D01*
Y218394D01*
G37*
G36*
X134803D02*X133701D01*
Y213275D01*
X134803D01*
Y218394D01*
G37*
G36*
X136771D02*X135669D01*
Y213275D01*
X136771D01*
Y218394D01*
G37*
G36*
X138740D02*X137638D01*
Y213275D01*
X138740D01*
Y218394D01*
G37*
G36*
X140708D02*X139606D01*
Y213275D01*
X140708D01*
Y218394D01*
G37*
G36*
X142677D02*X141575D01*
Y213275D01*
X142677D01*
Y218394D01*
G37*
G36*
X144645D02*X143543D01*
Y213275D01*
X144645D01*
Y218394D01*
G37*
G36*
X146614D02*X145512D01*
Y213275D01*
X146614D01*
Y218394D01*
G37*
G36*
X148582D02*X147480D01*
Y213275D01*
X148582D01*
Y218394D01*
G37*
G36*
X150551D02*X149449D01*
Y213275D01*
X150551D01*
Y218394D01*
G37*
G36*
X152519D02*X151417D01*
Y213275D01*
X152519D01*
Y218394D01*
G37*
G36*
X154488D02*X153386D01*
Y213275D01*
X154488D01*
Y218394D01*
G37*
G36*
X156456D02*X155354D01*
Y213275D01*
X156456D01*
Y218394D01*
G37*
G36*
X158425D02*X157323D01*
Y213275D01*
X158425D01*
Y218394D01*
G37*
G36*
X160393D02*X159291D01*
Y213275D01*
X160393D01*
Y218394D01*
G37*
G36*
X162362D02*X161260D01*
Y213275D01*
X162362D01*
Y218394D01*
G37*
G36*
X164330D02*X163228D01*
Y213275D01*
X164330D01*
Y218394D01*
G37*
G36*
X166299D02*X165197D01*
Y213275D01*
X166299D01*
Y218394D01*
G37*
G36*
X168267D02*X167165D01*
Y213275D01*
X168267D01*
Y218394D01*
G37*
G36*
X170236D02*X169134D01*
Y213275D01*
X170236D01*
Y218394D01*
G37*
G36*
X172204D02*X171102D01*
Y213275D01*
X172204D01*
Y218394D01*
G37*
G36*
X175000Y222291D02*Y221189D01*
X180118D01*
Y222291D01*
X175000D01*
G37*
G36*
Y224259D02*Y223157D01*
X180118D01*
Y224259D01*
X175000D01*
G37*
G36*
Y226228D02*Y225126D01*
X180118D01*
Y226228D01*
X175000D01*
G37*
G36*
Y228196D02*Y227094D01*
X180118D01*
Y228196D01*
X175000D01*
G37*
G36*
Y230165D02*Y229063D01*
X180118D01*
Y230165D01*
X175000D01*
G37*
G36*
Y232133D02*Y231031D01*
X180118D01*
Y232133D01*
X175000D01*
G37*
G36*
Y234102D02*Y233000D01*
X180118D01*
Y234102D01*
X175000D01*
G37*
G36*
Y236070D02*Y234968D01*
X180118D01*
Y236070D01*
X175000D01*
G37*
G36*
Y238039D02*Y236937D01*
X180118D01*
Y238039D01*
X175000D01*
G37*
G36*
Y240007D02*Y238905D01*
X180118D01*
Y240007D01*
X175000D01*
G37*
G36*
Y241976D02*Y240874D01*
X180118D01*
Y241976D01*
X175000D01*
G37*
G36*
Y243944D02*Y242842D01*
X180118D01*
Y243944D01*
X175000D01*
G37*
G36*
Y245913D02*Y244811D01*
X180118D01*
Y245913D01*
X175000D01*
G37*
G36*
Y247881D02*Y246779D01*
X180118D01*
Y247881D01*
X175000D01*
G37*
G36*
Y249850D02*Y248748D01*
X180118D01*
Y249850D01*
X175000D01*
G37*
G36*
Y251818D02*Y250716D01*
X180118D01*
Y251818D01*
X175000D01*
G37*
G36*
Y253787D02*Y252685D01*
X180118D01*
Y253787D01*
X175000D01*
G37*
G36*
Y255755D02*Y254653D01*
X180118D01*
Y255755D01*
X175000D01*
G37*
G36*
Y257724D02*Y256622D01*
X180118D01*
Y257724D01*
X175000D01*
G37*
G36*
Y259692D02*Y258590D01*
X180118D01*
Y259692D01*
X175000D01*
G37*
G36*
Y261661D02*Y260559D01*
X180118D01*
Y261661D01*
X175000D01*
G37*
G36*
Y263629D02*Y262527D01*
X180118D01*
Y263629D01*
X175000D01*
G37*
G36*
Y265598D02*Y264496D01*
X180118D01*
Y265598D01*
X175000D01*
G37*
G36*
Y267566D02*Y266464D01*
X180118D01*
Y267566D01*
X175000D01*
G37*
G36*
Y269535D02*Y268433D01*
X180118D01*
Y269535D01*
X175000D01*
G37*
G36*
Y271503D02*Y270401D01*
X180118D01*
Y271503D01*
X175000D01*
G37*
G36*
Y273472D02*Y272370D01*
X180118D01*
Y273472D01*
X175000D01*
G37*
G36*
Y275440D02*Y274338D01*
X180118D01*
Y275440D01*
X175000D01*
G37*
G36*
Y277409D02*Y276307D01*
X180118D01*
Y277409D01*
X175000D01*
G37*
G36*
Y279377D02*Y278275D01*
X180118D01*
Y279377D01*
X175000D01*
G37*
G36*
Y281346D02*Y280244D01*
X180118D01*
Y281346D01*
X175000D01*
G37*
G36*
Y283314D02*Y282212D01*
X180118D01*
Y283314D01*
X175000D01*
G37*
G36*
Y285283D02*Y284181D01*
X180118D01*
Y285283D01*
X175000D01*
G37*
G36*
Y287251D02*Y286149D01*
X180118D01*
Y287251D01*
X175000D01*
G37*
G36*
Y289220D02*Y288118D01*
X180118D01*
Y289220D01*
X175000D01*
G37*
G36*
Y291188D02*Y290086D01*
X180118D01*
Y291188D01*
X175000D01*
G37*
G36*
Y293157D02*Y292055D01*
X180118D01*
Y293157D01*
X175000D01*
G37*
G36*
Y295125D02*Y294023D01*
X180118D01*
Y295125D01*
X175000D01*
G37*
G36*
X172204Y303039D02*X171102D01*
Y297921D01*
X172204D01*
Y303039D01*
G37*
G36*
X170236D02*X169134D01*
Y297921D01*
X170236D01*
Y303039D01*
G37*
G36*
X168267D02*X167165D01*
Y297921D01*
X168267D01*
Y303039D01*
G37*
G36*
X166299D02*X165197D01*
Y297921D01*
X166299D01*
Y303039D01*
G37*
G36*
X164330D02*X163228D01*
Y297921D01*
X164330D01*
Y303039D01*
G37*
G36*
X162362D02*X161260D01*
Y297921D01*
X162362D01*
Y303039D01*
G37*
G36*
X160393D02*X159291D01*
Y297921D01*
X160393D01*
Y303039D01*
G37*
G36*
X158425D02*X157323D01*
Y297921D01*
X158425D01*
Y303039D01*
G37*
G36*
X156456D02*X155354D01*
Y297921D01*
X156456D01*
Y303039D01*
G37*
G36*
X154488D02*X153386D01*
Y297921D01*
X154488D01*
Y303039D01*
G37*
G36*
X152519D02*X151417D01*
Y297921D01*
X152519D01*
Y303039D01*
G37*
G36*
X150551D02*X149449D01*
Y297921D01*
X150551D01*
Y303039D01*
G37*
G36*
X148582D02*X147480D01*
Y297921D01*
X148582D01*
Y303039D01*
G37*
G36*
X146614D02*X145512D01*
Y297921D01*
X146614D01*
Y303039D01*
G37*
G36*
X144645D02*X143543D01*
Y297921D01*
X144645D01*
Y303039D01*
G37*
G36*
X142677D02*X141575D01*
Y297921D01*
X142677D01*
Y303039D01*
G37*
G36*
X140708D02*X139606D01*
Y297921D01*
X140708D01*
Y303039D01*
G37*
G36*
X138740D02*X137638D01*
Y297921D01*
X138740D01*
Y303039D01*
G37*
G36*
X136771D02*X135669D01*
Y297921D01*
X136771D01*
Y303039D01*
G37*
G36*
X134803D02*X133701D01*
Y297921D01*
X134803D01*
Y303039D01*
G37*
G36*
X132834D02*X131732D01*
Y297921D01*
X132834D01*
Y303039D01*
G37*
G36*
X130866D02*X129764D01*
Y297921D01*
X130866D01*
Y303039D01*
G37*
G36*
X128897D02*X127795D01*
Y297921D01*
X128897D01*
Y303039D01*
G37*
G36*
X126929D02*X125827D01*
Y297921D01*
X126929D01*
Y303039D01*
G37*
G36*
X124960D02*X123858D01*
Y297921D01*
X124960D01*
Y303039D01*
G37*
G36*
X122992D02*X121890D01*
Y297921D01*
X122992D01*
Y303039D01*
G37*
G36*
X105957Y295034D02*X103989D01*
Y292280D01*
X105957D01*
Y295034D01*
G37*
G36*
X109105D02*X107137D01*
Y292280D01*
X109105D01*
Y295034D01*
G37*
G36*
X109212Y24299D02*X102882D01*
Y8914D01*
X109212D01*
Y24299D01*
G37*
G36*
Y55400D02*X102882D01*
Y40015D01*
X109212D01*
Y55400D01*
G37*
G36*
X133095Y398259D02*Y393141D01*
X138999D01*
Y398259D01*
X133095D01*
G37*
G36*
Y391173D02*Y386055D01*
X138999D01*
Y391173D01*
X133095D01*
G37*
G36*
X95079Y398192D02*Y395240D01*
X99015D01*
Y398192D01*
X95079D01*
G37*
G36*
Y393074D02*Y390122D01*
X99015D01*
Y393074D01*
X95079D01*
G37*
G36*
X127847Y407257D02*X122247D01*
Y395057D01*
X127847D01*
Y407257D01*
G37*
G36*
X118847D02*X113247D01*
Y395057D01*
X118847D01*
Y407257D01*
G37*
G36*
X109747D02*X104147D01*
Y395057D01*
X109747D01*
Y407257D01*
G37*
G36*
X105447Y382857D02*Y370657D01*
X126647D01*
Y382857D01*
X105447D01*
G37*
G54D84*X138047Y377157D03*
G54D83*G36*
X168595Y356673D02*Y351555D01*
X174499D01*
Y356673D01*
X168595D01*
G37*
G36*
Y363759D02*Y358641D01*
X174499D01*
Y363759D01*
X168595D01*
G37*
G36*
X187807Y399886D02*X185839D01*
Y396343D01*
X187807D01*
Y399886D01*
G37*
G36*
X190957D02*X188989D01*
Y396343D01*
X190957D01*
Y399886D01*
G37*
G36*
X194105D02*X192137D01*
Y396343D01*
X194105D01*
Y399886D01*
G37*
G36*
X197255D02*X195287D01*
Y396343D01*
X197255D01*
Y399886D01*
G37*
G36*
Y406971D02*X195287D01*
Y403428D01*
X197255D01*
Y406971D01*
G37*
G36*
X194105D02*X192137D01*
Y403428D01*
X194105D01*
Y406971D01*
G37*
G36*
X190957D02*X188989D01*
Y403428D01*
X190957D01*
Y406971D01*
G37*
G36*
X187807D02*X185839D01*
Y403428D01*
X187807D01*
Y406971D01*
G37*
G36*
X402595Y101759D02*Y96641D01*
X408499D01*
Y101759D01*
X402595D01*
G37*
G36*
Y94673D02*Y89555D01*
X408499D01*
Y94673D01*
X402595D01*
G37*
G54D84*X258047Y155657D03*
X224047Y357157D03*
G54D83*G36*
X393638Y101759D02*Y96641D01*
X399542D01*
Y101759D01*
X393638D01*
G37*
G36*
Y94673D02*Y89555D01*
X399542D01*
Y94673D01*
X393638D01*
G37*
G54D84*X231047Y16157D03*
X210547Y60157D03*
G54D83*G36*
X103964Y174125D02*X101012D01*
Y170189D01*
X103964D01*
Y174125D01*
G37*
G36*
X109082D02*X106130D01*
Y170189D01*
X109082D01*
Y174125D01*
G37*
G36*
X103964Y168125D02*X101012D01*
Y164189D01*
X103964D01*
Y168125D01*
G37*
G36*
X109082D02*X106130D01*
Y164189D01*
X109082D01*
Y168125D01*
G37*
G36*
X90964Y160125D02*X88012D01*
Y156189D01*
X90964D01*
Y160125D01*
G37*
G36*
X96082D02*X93130D01*
Y156189D01*
X96082D01*
Y160125D01*
G37*
G36*
X90964Y166125D02*X88012D01*
Y162189D01*
X90964D01*
Y166125D01*
G37*
G36*
X96082D02*X93130D01*
Y162189D01*
X96082D01*
Y166125D01*
G37*
G36*
Y154125D02*X93130D01*
Y150189D01*
X96082D01*
Y154125D01*
G37*
G36*
X90964D02*X88012D01*
Y150189D01*
X90964D01*
Y154125D01*
G37*
G36*
X96149Y174109D02*X91031D01*
Y168205D01*
X96149D01*
Y174109D01*
G37*
G36*
X89063D02*X83945D01*
Y168205D01*
X89063D01*
Y174109D01*
G37*
G36*
X77464Y158625D02*X74512D01*
Y154689D01*
X77464D01*
Y158625D01*
G37*
G36*
X82582D02*X79630D01*
Y154689D01*
X82582D01*
Y158625D01*
G37*
G36*
Y152625D02*X79630D01*
Y148689D01*
X82582D01*
Y152625D01*
G37*
G36*
X77464D02*X74512D01*
Y148689D01*
X77464D01*
Y152625D01*
G37*
G36*
X122082Y145625D02*X119130D01*
Y141689D01*
X122082D01*
Y145625D01*
G37*
G36*
X116964D02*X114012D01*
Y141689D01*
X116964D01*
Y145625D01*
G37*
G36*
X35417Y88323D02*Y75724D01*
X56677D01*
Y88323D01*
X35417D01*
G37*
G36*
Y46591D02*Y33992D01*
X56677D01*
Y46591D01*
X35417D01*
G37*
G36*
X247964Y341125D02*X245012D01*
Y337189D01*
X247964D01*
Y341125D01*
G37*
G36*
X253082D02*X250130D01*
Y337189D01*
X253082D01*
Y341125D01*
G37*
G36*
X247964Y347125D02*X245012D01*
Y343189D01*
X247964D01*
Y347125D01*
G37*
G36*
X253082D02*X250130D01*
Y343189D01*
X253082D01*
Y347125D01*
G37*
G36*
X247964Y374125D02*X245012D01*
Y370189D01*
X247964D01*
Y374125D01*
G37*
G36*
X253082D02*X250130D01*
Y370189D01*
X253082D01*
Y374125D01*
G37*
G36*
X254228Y366323D02*X251866D01*
Y361992D01*
X254228D01*
Y366323D01*
G37*
G36*
X250488D02*X248126D01*
Y361992D01*
X250488D01*
Y366323D01*
G37*
G36*
X246748D02*X244386D01*
Y361992D01*
X246748D01*
Y366323D01*
G37*
G36*
X254228Y355299D02*X251866D01*
Y350969D01*
X254228D01*
Y355299D01*
G37*
G36*
X246748D02*X244386D01*
Y350969D01*
X246748D01*
Y355299D01*
G37*
G36*
X225747Y149157D02*X222347D01*
Y145157D01*
X225747D01*
Y149157D01*
G37*
G36*
X233547D02*X230147D01*
Y145157D01*
X233547D01*
Y149157D01*
G37*
G36*
X229647Y157357D02*X226247D01*
Y153357D01*
X229647D01*
Y157357D01*
G37*
G36*
X364047Y433657D02*Y431657D01*
X372547D01*
Y433657D01*
X364047D01*
G37*
G36*
Y428657D02*Y426657D01*
X372547D01*
Y428657D01*
X364047D01*
G37*
G36*
Y423657D02*Y421657D01*
X372547D01*
Y423657D01*
X364047D01*
G37*
G36*
Y418657D02*Y416657D01*
X372547D01*
Y418657D01*
X364047D01*
G37*
G36*
Y413657D02*Y411657D01*
X372547D01*
Y413657D01*
X364047D01*
G37*
G36*
Y408657D02*Y406657D01*
X372547D01*
Y408657D01*
X364047D01*
G37*
G36*
Y403657D02*Y401657D01*
X372547D01*
Y403657D01*
X364047D01*
G37*
G36*
Y398657D02*Y396657D01*
X372547D01*
Y398657D01*
X364047D01*
G37*
G36*
X384547D02*Y396657D01*
X393047D01*
Y398657D01*
X384547D01*
G37*
G36*
Y403657D02*Y401657D01*
X393047D01*
Y403657D01*
X384547D01*
G37*
G36*
Y408657D02*Y406657D01*
X393047D01*
Y408657D01*
X384547D01*
G37*
G36*
Y413657D02*Y411657D01*
X393047D01*
Y413657D01*
X384547D01*
G37*
G36*
Y418657D02*Y416657D01*
X393047D01*
Y418657D01*
X384547D01*
G37*
G36*
Y423657D02*Y421657D01*
X393047D01*
Y423657D01*
X384547D01*
G37*
G36*
Y428657D02*Y426657D01*
X393047D01*
Y428657D01*
X384547D01*
G37*
G36*
Y433657D02*Y431657D01*
X393047D01*
Y433657D01*
X384547D01*
G37*
G36*
X391582Y442125D02*X388630D01*
Y438189D01*
X391582D01*
Y442125D01*
G37*
G36*
X386464D02*X383512D01*
Y438189D01*
X386464D01*
Y442125D01*
G37*
G36*
X373582D02*X370630D01*
Y438189D01*
X373582D01*
Y442125D01*
G37*
G36*
X368464D02*X365512D01*
Y438189D01*
X368464D01*
Y442125D01*
G37*
G36*
X372105Y392034D02*X370137D01*
Y389280D01*
X372105D01*
Y392034D01*
G37*
G36*
X368957D02*X366989D01*
Y389280D01*
X368957D01*
Y392034D01*
G37*
G36*
X162472Y383142D02*Y381173D01*
X165622D01*
Y383142D01*
X162472D01*
G37*
G36*
X155780D02*Y381173D01*
X158929D01*
Y383142D01*
X155780D01*
G37*
G36*
X159964Y390125D02*X157012D01*
Y386189D01*
X159964D01*
Y390125D01*
G37*
G36*
X165082D02*X162130D01*
Y386189D01*
X165082D01*
Y390125D01*
G37*
G36*
Y396125D02*X162130D01*
Y392189D01*
X165082D01*
Y396125D01*
G37*
G36*
X159964D02*X157012D01*
Y392189D01*
X159964D01*
Y396125D01*
G37*
G36*
X262079Y125074D02*Y122122D01*
X266015D01*
Y125074D01*
X262079D01*
G37*
G36*
Y130192D02*Y127240D01*
X266015D01*
Y130192D01*
X262079D01*
G37*
G36*
X222547Y139657D02*Y137657D01*
X231047D01*
Y139657D01*
X222547D01*
G37*
G36*
Y134657D02*Y132657D01*
X231047D01*
Y134657D01*
X222547D01*
G37*
G36*
Y129657D02*Y127657D01*
X231047D01*
Y129657D01*
X222547D01*
G37*
G36*
Y124657D02*Y122657D01*
X231047D01*
Y124657D01*
X222547D01*
G37*
G36*
X243047D02*Y122657D01*
X251547D01*
Y124657D01*
X243047D01*
G37*
G36*
Y129657D02*Y127657D01*
X251547D01*
Y129657D01*
X243047D01*
G37*
G36*
Y134657D02*Y132657D01*
X251547D01*
Y134657D01*
X243047D01*
G37*
G36*
Y139657D02*Y137657D01*
X251547D01*
Y139657D01*
X243047D01*
G37*
G36*
X256079Y125074D02*Y122122D01*
X260015D01*
Y125074D01*
X256079D01*
G37*
G36*
Y130192D02*Y127240D01*
X260015D01*
Y130192D01*
X256079D01*
G37*
G36*
X251747Y157157D02*X248347D01*
Y153157D01*
X251747D01*
Y157157D01*
G37*
G36*
X243947D02*X240547D01*
Y153157D01*
X243947D01*
Y157157D01*
G37*
G36*
X247847Y148957D02*X244447D01*
Y144957D01*
X247847D01*
Y148957D01*
G37*
G36*
X26701Y98897D02*X21583D01*
Y91417D01*
X26701D01*
Y98897D01*
G37*
G36*
X38511D02*X33393D01*
Y91417D01*
X38511D01*
Y98897D01*
G37*
G36*
X80591Y21630D02*X73504D01*
Y11787D01*
X80591D01*
Y21630D01*
G37*
G36*
Y40528D02*X73504D01*
Y30685D01*
X80591D01*
Y40528D01*
G37*
G36*
X45964Y97125D02*X43012D01*
Y93189D01*
X45964D01*
Y97125D01*
G37*
G36*
X51082D02*X48130D01*
Y93189D01*
X51082D01*
Y97125D01*
G37*
G36*
X143417Y76323D02*Y63724D01*
X164677D01*
Y76323D01*
X143417D01*
G37*
G36*
Y34591D02*Y21992D01*
X164677D01*
Y34591D01*
X143417D01*
G37*
G36*
X82047Y61857D02*Y58457D01*
X86047D01*
Y61857D01*
X82047D01*
G37*
G36*
Y69657D02*Y66257D01*
X86047D01*
Y69657D01*
X82047D01*
G37*
G36*
X73847Y65757D02*Y62357D01*
X77847D01*
Y65757D01*
X73847D01*
G37*
G36*
X85082Y82125D02*X82130D01*
Y78189D01*
X85082D01*
Y82125D01*
G37*
G36*
X79964D02*X77012D01*
Y78189D01*
X79964D01*
Y82125D01*
G37*
G36*
X83047Y95857D02*Y92457D01*
X87047D01*
Y95857D01*
X83047D01*
G37*
G36*
Y103657D02*Y100257D01*
X87047D01*
Y103657D01*
X83047D01*
G37*
G36*
X74847Y99757D02*Y96357D01*
X78847D01*
Y99757D01*
X74847D01*
G37*
G36*
X65047Y95857D02*Y92457D01*
X69047D01*
Y95857D01*
X65047D01*
G37*
G36*
Y103657D02*Y100257D01*
X69047D01*
Y103657D01*
X65047D01*
G37*
G36*
X56847Y99757D02*Y96357D01*
X60847D01*
Y99757D01*
X56847D01*
G37*
G36*
X78047Y110657D02*Y108657D01*
X86547D01*
Y110657D01*
X78047D01*
G37*
G36*
Y115657D02*Y113657D01*
X86547D01*
Y115657D01*
X78047D01*
G37*
G36*
Y120657D02*Y118657D01*
X86547D01*
Y120657D01*
X78047D01*
G37*
G36*
Y125657D02*Y123657D01*
X86547D01*
Y125657D01*
X78047D01*
G37*
G36*
X57547D02*Y123657D01*
X66047D01*
Y125657D01*
X57547D01*
G37*
G36*
Y120657D02*Y118657D01*
X66047D01*
Y120657D01*
X57547D01*
G37*
G36*
Y115657D02*Y113657D01*
X66047D01*
Y115657D01*
X57547D01*
G37*
G36*
Y110657D02*Y108657D01*
X66047D01*
Y110657D01*
X57547D01*
G37*
G36*
X85082Y88125D02*X82130D01*
Y84189D01*
X85082D01*
Y88125D01*
G37*
G36*
X79964D02*X77012D01*
Y84189D01*
X79964D01*
Y88125D01*
G37*
G36*
X63079Y139192D02*Y136240D01*
X67015D01*
Y139192D01*
X63079D01*
G37*
G36*
Y134074D02*Y131122D01*
X67015D01*
Y134074D01*
X63079D01*
G37*
G36*
X57079Y139192D02*Y136240D01*
X61015D01*
Y139192D01*
X57079D01*
G37*
G36*
Y134074D02*Y131122D01*
X61015D01*
Y134074D01*
X57079D01*
G37*
G36*
X69079D02*Y131122D01*
X73015D01*
Y134074D01*
X69079D01*
G37*
G36*
Y139192D02*Y136240D01*
X73015D01*
Y139192D01*
X69079D01*
G37*
G36*
X110622Y95827D02*X105473D01*
Y83591D01*
X110622D01*
Y95827D01*
G37*
G36*
Y114724D02*X105473D01*
Y102488D01*
X110622D01*
Y114724D01*
G37*
G54D84*X111547Y121657D03*
G54D83*G36*
X95733Y66811D02*Y61693D01*
X106361D01*
Y66811D01*
X95733D01*
G37*
G36*
Y78621D02*Y73503D01*
X106361D01*
Y78621D01*
X95733D01*
G37*
G36*
X110095Y76259D02*Y71141D01*
X115999D01*
Y76259D01*
X110095D01*
G37*
G36*
Y69173D02*Y64055D01*
X115999D01*
Y69173D01*
X110095D01*
G37*
G36*
X93964Y126125D02*X91012D01*
Y122189D01*
X93964D01*
Y126125D01*
G37*
G36*
X99082D02*X96130D01*
Y122189D01*
X99082D01*
Y126125D01*
G37*
G36*
X93964Y120125D02*X91012D01*
Y116189D01*
X93964D01*
Y120125D01*
G37*
G36*
X99082D02*X96130D01*
Y116189D01*
X99082D01*
Y120125D01*
G37*
G36*
X144622Y103827D02*X139473D01*
Y91591D01*
X144622D01*
Y103827D01*
G37*
G36*
Y122724D02*X139473D01*
Y110488D01*
X144622D01*
Y122724D01*
G37*
G36*
X134701Y86897D02*X129583D01*
Y79417D01*
X134701D01*
Y86897D01*
G37*
G36*
X146511D02*X141393D01*
Y79417D01*
X146511D01*
Y86897D01*
G37*
G36*
X152964Y85125D02*X150012D01*
Y81189D01*
X152964D01*
Y85125D01*
G37*
G36*
X158082D02*X155130D01*
Y81189D01*
X158082D01*
Y85125D01*
G37*
G36*
X335547Y36657D02*X333547D01*
Y28157D01*
X335547D01*
Y36657D01*
G37*
G36*
X330547D02*X328547D01*
Y28157D01*
X330547D01*
Y36657D01*
G37*
G36*
X325547D02*X323547D01*
Y28157D01*
X325547D01*
Y36657D01*
G37*
G36*
X320547D02*X318547D01*
Y28157D01*
X320547D01*
Y36657D01*
G37*
G36*
X315547D02*X313547D01*
Y28157D01*
X315547D01*
Y36657D01*
G37*
G36*
X310547D02*X308547D01*
Y28157D01*
X310547D01*
Y36657D01*
G37*
G36*
X305547D02*X303547D01*
Y28157D01*
X305547D01*
Y36657D01*
G37*
G36*
Y16157D02*X303547D01*
Y7657D01*
X305547D01*
Y16157D01*
G37*
G36*
X310547D02*X308547D01*
Y7657D01*
X310547D01*
Y16157D01*
G37*
G36*
X315547D02*X313547D01*
Y7657D01*
X315547D01*
Y16157D01*
G37*
G36*
X320547D02*X318547D01*
Y7657D01*
X320547D01*
Y16157D01*
G37*
G36*
X325547D02*X323547D01*
Y7657D01*
X325547D01*
Y16157D01*
G37*
G36*
X330547D02*X328547D01*
Y7657D01*
X330547D01*
Y16157D01*
G37*
G36*
X335547D02*X333547D01*
Y7657D01*
X335547D01*
Y16157D01*
G37*
G36*
X340079Y71192D02*Y68240D01*
X344015D01*
Y71192D01*
X340079D01*
G37*
G36*
Y66074D02*Y63122D01*
X344015D01*
Y66074D01*
X340079D01*
G37*
G36*
X374079Y48192D02*Y45240D01*
X378015D01*
Y48192D01*
X374079D01*
G37*
G36*
Y43074D02*Y40122D01*
X378015D01*
Y43074D01*
X374079D01*
G37*
G36*
X346079Y38192D02*Y35240D01*
X350015D01*
Y38192D01*
X346079D01*
G37*
G36*
Y33074D02*Y30122D01*
X350015D01*
Y33074D01*
X346079D01*
G37*
G36*
X370547Y58657D02*X368547D01*
Y50157D01*
X370547D01*
Y58657D01*
G37*
G36*
X365547D02*X363547D01*
Y50157D01*
X365547D01*
Y58657D01*
G37*
G36*
X360547D02*X358547D01*
Y50157D01*
X360547D01*
Y58657D01*
G37*
G36*
X355547D02*X353547D01*
Y50157D01*
X355547D01*
Y58657D01*
G37*
G36*
Y38157D02*X353547D01*
Y29657D01*
X355547D01*
Y38157D01*
G37*
G36*
X360547D02*X358547D01*
Y29657D01*
X360547D01*
Y38157D01*
G37*
G36*
X365547D02*X363547D01*
Y29657D01*
X365547D01*
Y38157D01*
G37*
G36*
X370547D02*X368547D01*
Y29657D01*
X370547D01*
Y38157D01*
G37*
G36*
X357701Y13897D02*X352583D01*
Y6417D01*
X357701D01*
Y13897D01*
G37*
G36*
X369511D02*X364393D01*
Y6417D01*
X369511D01*
Y13897D01*
G37*
G36*
X370079Y20074D02*Y17122D01*
X374015D01*
Y20074D01*
X370079D01*
G37*
G36*
Y25192D02*Y22240D01*
X374015D01*
Y25192D01*
X370079D01*
G37*
G36*
X364079Y20074D02*Y17122D01*
X368015D01*
Y20074D01*
X364079D01*
G37*
G36*
Y25192D02*Y22240D01*
X368015D01*
Y25192D01*
X364079D01*
G37*
G36*
X346079Y20074D02*Y17122D01*
X350015D01*
Y20074D01*
X346079D01*
G37*
G36*
Y25192D02*Y22240D01*
X350015D01*
Y25192D01*
X346079D01*
G37*
G36*
X352079D02*Y22240D01*
X356015D01*
Y25192D01*
X352079D01*
G37*
G36*
Y20074D02*Y17122D01*
X356015D01*
Y20074D01*
X352079D01*
G37*
G36*
X358079Y25192D02*Y22240D01*
X362015D01*
Y25192D01*
X358079D01*
G37*
G36*
Y20074D02*Y17122D01*
X362015D01*
Y20074D01*
X358079D01*
G37*
G36*
X357701Y81897D02*X352583D01*
Y74417D01*
X357701D01*
Y81897D01*
G37*
G36*
X369511D02*X364393D01*
Y74417D01*
X369511D01*
Y81897D01*
G37*
G36*
X346079Y71192D02*Y68240D01*
X350015D01*
Y71192D01*
X346079D01*
G37*
G36*
Y66074D02*Y63122D01*
X350015D01*
Y66074D01*
X346079D01*
G37*
G36*
X358079D02*Y63122D01*
X362015D01*
Y66074D01*
X358079D01*
G37*
G36*
Y71192D02*Y68240D01*
X362015D01*
Y71192D01*
X358079D01*
G37*
G36*
X352079Y66074D02*Y63122D01*
X356015D01*
Y66074D01*
X352079D01*
G37*
G36*
Y71192D02*Y68240D01*
X356015D01*
Y71192D01*
X352079D01*
G37*
G36*
X364079D02*Y68240D01*
X368015D01*
Y71192D01*
X364079D01*
G37*
G36*
Y66074D02*Y63122D01*
X368015D01*
Y66074D01*
X364079D01*
G37*
G36*
X370079Y71192D02*Y68240D01*
X374015D01*
Y71192D01*
X370079D01*
G37*
G36*
Y66074D02*Y63122D01*
X374015D01*
Y66074D01*
X370079D01*
G37*
G36*
X390547Y79657D02*Y77657D01*
X399047D01*
Y79657D01*
X390547D01*
G37*
G36*
Y74657D02*Y72657D01*
X399047D01*
Y74657D01*
X390547D01*
G37*
G36*
Y69657D02*Y67657D01*
X399047D01*
Y69657D01*
X390547D01*
G37*
G36*
Y64657D02*Y62657D01*
X399047D01*
Y64657D01*
X390547D01*
G37*
G36*
X411047D02*Y62657D01*
X419547D01*
Y64657D01*
X411047D01*
G37*
G36*
Y69657D02*Y67657D01*
X419547D01*
Y69657D01*
X411047D01*
G37*
G36*
Y74657D02*Y72657D01*
X419547D01*
Y74657D01*
X411047D01*
G37*
G36*
Y79657D02*Y77657D01*
X419547D01*
Y79657D01*
X411047D01*
G37*
G36*
X383079Y65074D02*Y62122D01*
X387015D01*
Y65074D01*
X383079D01*
G37*
G36*
Y70192D02*Y67240D01*
X387015D01*
Y70192D01*
X383079D01*
G37*
G36*
X423079Y51074D02*Y48122D01*
X427015D01*
Y51074D01*
X423079D01*
G37*
G36*
Y56192D02*Y53240D01*
X427015D01*
Y56192D01*
X423079D01*
G37*
G36*
X417079Y51074D02*Y48122D01*
X421015D01*
Y51074D01*
X417079D01*
G37*
G36*
Y56192D02*Y53240D01*
X421015D01*
Y56192D01*
X417079D01*
G37*
G36*
X404747Y50157D02*X401347D01*
Y46157D01*
X404747D01*
Y50157D01*
G37*
G36*
X412547D02*X409147D01*
Y46157D01*
X412547D01*
Y50157D01*
G37*
G36*
X408647Y58357D02*X405247D01*
Y54357D01*
X408647D01*
Y58357D01*
G37*
G36*
X387747Y50157D02*X384347D01*
Y46157D01*
X387747D01*
Y50157D01*
G37*
G36*
X395547D02*X392147D01*
Y46157D01*
X395547D01*
Y50157D01*
G37*
G36*
X391647Y58357D02*X388247D01*
Y54357D01*
X391647D01*
Y58357D01*
G37*
G54D84*X440047Y24657D03*
G54D83*G36*
X311079Y61074D02*Y58122D01*
X315015D01*
Y61074D01*
X311079D01*
G37*
G36*
Y66192D02*Y63240D01*
X315015D01*
Y66192D01*
X311079D01*
G37*
G36*
Y72074D02*Y69122D01*
X315015D01*
Y72074D01*
X311079D01*
G37*
G36*
Y77192D02*Y74240D01*
X315015D01*
Y77192D01*
X311079D01*
G37*
G36*
X320547Y57157D02*X318547D01*
Y48657D01*
X320547D01*
Y57157D01*
G37*
G36*
X325547D02*X323547D01*
Y48657D01*
X325547D01*
Y57157D01*
G37*
G36*
X330547D02*X328547D01*
Y48657D01*
X330547D01*
Y57157D01*
G37*
G36*
X335547D02*X333547D01*
Y48657D01*
X335547D01*
Y57157D01*
G37*
G36*
Y77657D02*X333547D01*
Y69157D01*
X335547D01*
Y77657D01*
G37*
G36*
X330547D02*X328547D01*
Y69157D01*
X330547D01*
Y77657D01*
G37*
G36*
X325547D02*X323547D01*
Y69157D01*
X325547D01*
Y77657D01*
G37*
G36*
X320547D02*X318547D01*
Y69157D01*
X320547D01*
Y77657D01*
G37*
G36*
X260145Y97885D02*X263764Y94266D01*
X267939Y98441D01*
X264320Y102060D01*
X260145Y97885D01*
G37*
G36*
X265156Y92874D02*X268775Y89255D01*
X272949Y93430D01*
X269330Y97049D01*
X265156Y92874D01*
G37*
G36*
X257302Y92120D02*X259389Y90032D01*
X262173Y92814D01*
X260087Y94902D01*
X257302Y92120D01*
G37*
G36*
X260922Y88499D02*X263010Y86413D01*
X265792Y89197D01*
X263704Y91283D01*
X260922Y88499D01*
G37*
G36*
X387747Y31157D02*X384347D01*
Y27157D01*
X387747D01*
Y31157D01*
G37*
G36*
X395547D02*X392147D01*
Y27157D01*
X395547D01*
Y31157D01*
G37*
G36*
X391647Y39357D02*X388247D01*
Y35357D01*
X391647D01*
Y39357D01*
G37*
G36*
X399079Y32074D02*Y29122D01*
X403015D01*
Y32074D01*
X399079D01*
G37*
G36*
Y37192D02*Y34240D01*
X403015D01*
Y37192D01*
X399079D01*
G37*
G36*
X415747Y31157D02*X412347D01*
Y27157D01*
X415747D01*
Y31157D01*
G37*
G36*
X423547D02*X420147D01*
Y27157D01*
X423547D01*
Y31157D01*
G37*
G36*
X419647Y39357D02*X416247D01*
Y35357D01*
X419647D01*
Y39357D01*
G37*
G36*
X427079Y37192D02*Y34240D01*
X431015D01*
Y37192D01*
X427079D01*
G37*
G36*
Y32074D02*Y29122D01*
X431015D01*
Y32074D01*
X427079D01*
G37*
G36*
X405079Y37192D02*Y34240D01*
X409015D01*
Y37192D01*
X405079D01*
G37*
G36*
Y32074D02*Y29122D01*
X409015D01*
Y32074D01*
X405079D01*
G37*
G36*
X412047Y20857D02*Y17457D01*
X416047D01*
Y20857D01*
X412047D01*
G37*
G36*
Y13057D02*Y9657D01*
X416047D01*
Y13057D01*
X412047D01*
G37*
G36*
X420247Y16957D02*Y13557D01*
X424247D01*
Y16957D01*
X420247D01*
G37*
G36*
X428079Y14074D02*Y11122D01*
X432015D01*
Y14074D01*
X428079D01*
G37*
G36*
Y19192D02*Y16240D01*
X432015D01*
Y19192D01*
X428079D01*
G37*
G36*
X404079D02*Y16240D01*
X408015D01*
Y19192D01*
X404079D01*
G37*
G36*
Y14074D02*Y11122D01*
X408015D01*
Y14074D01*
X404079D01*
G37*
G36*
X187047Y87857D02*Y84457D01*
X191047D01*
Y87857D01*
X187047D01*
G37*
G36*
Y95657D02*Y92257D01*
X191047D01*
Y95657D01*
X187047D01*
G37*
G36*
X178847Y91757D02*Y88357D01*
X182847D01*
Y91757D01*
X178847D01*
G37*
G36*
X169047Y87857D02*Y84457D01*
X173047D01*
Y87857D01*
X169047D01*
G37*
G36*
Y95657D02*Y92257D01*
X173047D01*
Y95657D01*
X169047D01*
G37*
G36*
X160847Y91757D02*Y88357D01*
X164847D01*
Y91757D01*
X160847D01*
G37*
G36*
X182047Y102657D02*Y100657D01*
X190547D01*
Y102657D01*
X182047D01*
G37*
G36*
Y107657D02*Y105657D01*
X190547D01*
Y107657D01*
X182047D01*
G37*
G36*
Y112657D02*Y110657D01*
X190547D01*
Y112657D01*
X182047D01*
G37*
G36*
Y117657D02*Y115657D01*
X190547D01*
Y117657D01*
X182047D01*
G37*
G36*
X161547D02*Y115657D01*
X170047D01*
Y117657D01*
X161547D01*
G37*
G36*
Y112657D02*Y110657D01*
X170047D01*
Y112657D01*
X161547D01*
G37*
G36*
Y107657D02*Y105657D01*
X170047D01*
Y107657D01*
X161547D01*
G37*
G36*
Y102657D02*Y100657D01*
X170047D01*
Y102657D01*
X161547D01*
G37*
G36*
X174464Y125125D02*X171512D01*
Y121189D01*
X174464D01*
Y125125D01*
G37*
G36*
X179582D02*X176630D01*
Y121189D01*
X179582D01*
Y125125D01*
G37*
G36*
X163964D02*X161012D01*
Y121189D01*
X163964D01*
Y125125D01*
G37*
G36*
X169082D02*X166130D01*
Y121189D01*
X169082D01*
Y125125D01*
G37*
G36*
X163964Y131125D02*X161012D01*
Y127189D01*
X163964D01*
Y131125D01*
G37*
G36*
X169082D02*X166130D01*
Y127189D01*
X169082D01*
Y131125D01*
G37*
G36*
X191082Y75125D02*X188130D01*
Y71189D01*
X191082D01*
Y75125D01*
G37*
G36*
X185964D02*X183012D01*
Y71189D01*
X185964D01*
Y75125D01*
G37*
G36*
X191082Y81125D02*X188130D01*
Y77189D01*
X191082D01*
Y81125D01*
G37*
G36*
X185964D02*X183012D01*
Y77189D01*
X185964D01*
Y81125D01*
G37*
G36*
X190047Y59857D02*Y56457D01*
X194047D01*
Y59857D01*
X190047D01*
G37*
G36*
Y67657D02*Y64257D01*
X194047D01*
Y67657D01*
X190047D01*
G37*
G36*
X181847Y63757D02*Y60357D01*
X185847D01*
Y63757D01*
X181847D01*
G37*
G36*
X206302Y79119D02*X208390Y77032D01*
X211173Y79815D01*
X209086Y81902D01*
X206302Y79119D01*
G37*
G36*
X209921Y75500D02*X212009Y73413D01*
X214792Y76196D01*
X212705Y78283D01*
X209921Y75500D01*
G37*
G36*
X198645Y74385D02*X202264Y70766D01*
X206439Y74941D01*
X202820Y78560D01*
X198645Y74385D01*
G37*
G36*
X203656Y69374D02*X207275Y65755D01*
X211449Y69930D01*
X207830Y73549D01*
X203656Y69374D01*
G37*
G36*
X198964Y104125D02*X196012D01*
Y100189D01*
X198964D01*
Y104125D01*
G37*
G36*
X204082D02*X201130D01*
Y100189D01*
X204082D01*
Y104125D01*
G37*
G36*
X198964Y98125D02*X196012D01*
Y94189D01*
X198964D01*
Y98125D01*
G37*
G36*
X204082D02*X201130D01*
Y94189D01*
X204082D01*
Y98125D01*
G37*
G36*
X212802Y85619D02*X214890Y83532D01*
X217673Y86315D01*
X215586Y88402D01*
X212802Y85619D01*
G37*
G36*
X216421Y82000D02*X218509Y79913D01*
X221292Y82696D01*
X219205Y84783D01*
X216421Y82000D01*
G37*
G36*
X229921Y95500D02*X232009Y93413D01*
X234792Y96196D01*
X232705Y98283D01*
X229921Y95500D01*
G37*
G36*
X226302Y99119D02*X228390Y97032D01*
X231173Y99815D01*
X229086Y101902D01*
X226302Y99119D01*
G37*
G36*
X221802Y94619D02*X223890Y92532D01*
X226673Y95315D01*
X224586Y97402D01*
X221802Y94619D01*
G37*
G36*
X225421Y91000D02*X227509Y88913D01*
X230292Y91696D01*
X228205Y93783D01*
X225421Y91000D01*
G37*
G36*
X217302Y90119D02*X219390Y88032D01*
X222173Y90815D01*
X220086Y92902D01*
X217302Y90119D01*
G37*
G36*
X220921Y86500D02*X223009Y84413D01*
X225792Y87196D01*
X223705Y89283D01*
X220921Y86500D01*
G37*
G36*
X218082Y136625D02*X215130D01*
Y132689D01*
X218082D01*
Y136625D01*
G37*
G36*
X212964D02*X210012D01*
Y132689D01*
X212964D01*
Y136625D01*
G37*
G36*
Y142625D02*X210012D01*
Y138689D01*
X212964D01*
Y142625D01*
G37*
G36*
X218082D02*X215130D01*
Y138689D01*
X218082D01*
Y142625D01*
G37*
G36*
Y148625D02*X215130D01*
Y144689D01*
X218082D01*
Y148625D01*
G37*
G36*
X212964D02*X210012D01*
Y144689D01*
X212964D01*
Y148625D01*
G37*
G36*
X240100Y92979D02*X235368Y88246D01*
X248451Y75163D01*
X253184Y79896D01*
X240100Y92979D01*
G37*
G36*
X225958Y78837D02*X221226Y74105D01*
X234309Y61021D01*
X239042Y65754D01*
X225958Y78837D01*
G37*
G36*
X237066Y47073D02*X262400Y21740D01*
X292465Y51805D01*
X267131Y77139D01*
X237066Y47073D01*
G37*
G36*
X100326Y160165D02*Y159023D01*
X105445D01*
Y160165D01*
X100326D01*
G37*
G36*
Y158197D02*Y157055D01*
X105445D01*
Y158197D01*
X100326D01*
G37*
G36*
Y156228D02*Y155086D01*
X105445D01*
Y156228D01*
X100326D01*
G37*
G36*
Y154259D02*Y153117D01*
X105445D01*
Y154259D01*
X100326D01*
G37*
G36*
Y152291D02*Y151149D01*
X105445D01*
Y152291D01*
X100326D01*
G37*
G36*
X117649D02*Y151149D01*
X122768D01*
Y152291D01*
X117649D01*
G37*
G36*
Y154259D02*Y153117D01*
X122768D01*
Y154259D01*
X117649D01*
G37*
G36*
Y156228D02*Y155086D01*
X122768D01*
Y156228D01*
X117649D01*
G37*
G36*
Y158197D02*Y157055D01*
X122768D01*
Y158197D01*
X117649D01*
G37*
G36*
Y160165D02*Y159023D01*
X122768D01*
Y160165D01*
X117649D01*
G37*
G36*
X130964Y157625D02*X128012D01*
Y153689D01*
X130964D01*
Y157625D01*
G37*
G36*
X136082D02*X133130D01*
Y153689D01*
X136082D01*
Y157625D01*
G37*
G36*
X130964Y145625D02*X128012D01*
Y141689D01*
X130964D01*
Y145625D01*
G37*
G36*
X136082D02*X133130D01*
Y141689D01*
X136082D01*
Y145625D01*
G37*
G36*
X130964Y151625D02*X128012D01*
Y147689D01*
X130964D01*
Y151625D01*
G37*
G36*
X136082D02*X133130D01*
Y147689D01*
X136082D01*
Y151625D01*
G37*
M02*
